<svg width="40" height="39" viewBox="0 0 40 39" fill="none" xmlns="http://www.w3.org/2000/svg">
<path d="M16.4339 26.7751C15.9722 25.6371 15.1293 24.6949 14.0494 24.1101C12.9695 23.5252 11.7199 23.3341 10.5145 23.5693C9.30916 23.8045 8.2231 24.4515 7.44235 25.3995C6.66159 26.3475 6.23473 27.5374 6.23487 28.7655C6.23487 29.3092 6.12321 29.847 5.90681 30.3458C5.69041 30.8445 5.37388 31.2935 4.97684 31.6649C4.5798 32.0363 4.11071 32.3222 3.59865 32.5049C3.08659 32.6875 2.54246 32.7631 2 32.7269C2.87247 34.2425 4.2209 35.4277 5.83595 36.0985C7.45101 36.7693 9.24235 36.8882 10.9319 36.4366C12.6214 35.9851 14.1146 34.9884 15.1797 33.6013C16.2447 32.2142 16.8221 30.5143 16.8221 28.7655C16.8221 28.0614 16.6844 27.3891 16.4339 26.7751ZM16.4339 26.7751C18.5319 26.0602 20.5385 25.1008 22.4121 23.9166M13.5136 23.8724C14.2286 21.7699 15.1892 19.7592 16.3756 17.8819M22.4103 23.9166C25.7565 21.8024 28.6206 19.0081 30.8165 15.715L37.6559 5.45603C37.9179 5.0653 38.0361 4.59572 37.9904 4.12751C37.9446 3.65929 37.7378 3.22146 37.4051 2.88881C37.0725 2.55615 36.6347 2.3493 36.1664 2.30357C35.6982 2.25784 35.2286 2.37607 34.8379 2.63808L24.5789 9.47916C21.2855 11.6745 18.4905 14.5379 16.3756 17.8836C19.0611 19.0843 21.2096 21.2329 22.4103 23.9183" stroke="#2D3A47" stroke-width="3.5" stroke-linecap="round" stroke-linejoin="round"/>
</svg>
