<svg width="40" height="40" viewBox="0 0 40 40" fill="none" xmlns="http://www.w3.org/2000/svg">
<path d="M21.0476 35.1746C25.1323 36.9312 30.0254 37.9788 35.8624 37.9788V29.5132L27.3968 27.3968L21.0476 35.1746ZM21.0476 35.1746C12.9185 31.6783 7.97672 25.3757 5.1746 18.9312M5.1746 18.9312C2.84656 13.581 2 8.13333 2 4.1164H10.4656L12.582 12.582L5.1746 18.9312ZM25.2804 2H25.3016M31.6296 2H31.6508M37.9788 2H38M25.2804 8.34921H25.3016M31.6296 8.34921H31.6508M37.9788 8.34921H38M25.2804 14.6984H25.3016M31.6296 14.6984H31.6508M37.9788 14.6984H38" stroke="#2D3A47" stroke-width="3.5" stroke-linecap="round" stroke-linejoin="round"/>
</svg>
