<svg width="40" height="40" viewBox="0 0 40 40" fill="none" xmlns="http://www.w3.org/2000/svg">
<path d="M23.5638 8.75282C22.9441 7.33203 22.0375 6.05462 20.9008 5.00071C19.7641 3.94681 18.422 3.13914 16.9585 2.62837C15.495 2.1176 13.9417 1.91474 12.3961 2.03253C10.8506 2.15032 9.34598 2.5862 7.97679 3.31284C6.60759 4.03949 5.40331 5.04121 4.43948 6.25519C3.47565 7.46917 2.77307 8.86921 2.3758 10.3675C1.97853 11.8658 1.89514 13.43 2.13086 14.9621C2.36658 16.4941 2.91633 17.9609 3.74562 19.2705L2.00205 24.5012L7.23276 22.7576C7.71421 23.0636 8.22266 23.3336 8.75135 23.5653M26.7495 37.9998C24.2536 37.9994 21.8287 37.169 19.8566 35.6392C17.8845 34.1095 16.4771 31.9673 15.8561 29.5499C15.2351 27.1325 15.4357 24.5772 16.4263 22.2863C17.4169 19.9955 19.1412 18.0991 21.3279 16.8958C23.5145 15.6925 26.0393 15.2506 28.5047 15.6396C30.97 16.0287 33.236 17.2267 34.9458 19.0449C36.6556 20.8631 37.7122 23.1983 37.9492 25.683C38.1861 28.1676 37.59 30.6604 36.2548 32.7691L37.9983 37.9998L32.7676 36.2562C30.9684 37.3984 28.8806 38.0033 26.7495 37.9998Z" stroke="#2D3A47" stroke-width="3.5" stroke-linecap="round" stroke-linejoin="round"/>
</svg>
