<svg width="26" height="27" viewBox="0 0 26 27" fill="none" xmlns="http://www.w3.org/2000/svg">
<g id="Group">
<path id="Vector" d="M15.6154 25.3691H10.3846L9.66403 22.2003C8.8065 21.8726 8.00455 21.4203 7.28531 20.8586L4.11542 21.8335L1.5 17.4073L3.94803 15.2121C3.81103 14.3226 3.81103 13.4182 3.94803 12.5288L1.5 10.3323L4.11542 5.90603L7.28531 6.88097C8.00487 6.31871 8.80728 5.86595 9.66534 5.53803L10.3846 2.36914H15.6154L16.336 5.53803C17.1935 5.86571 17.9954 6.31803 18.7147 6.8797L21.8846 5.90475L24.5 10.331L22.052 12.5262C22.1891 13.4156 22.1891 14.3201 22.052 15.2095L24.5 17.4048L21.8846 21.831L18.7147 20.856C17.9956 21.4186 17.1936 21.8718 16.336 22.2003L15.6154 25.3691Z" stroke="#8651E6" stroke-width="2.75" stroke-linecap="round" stroke-linejoin="round"/>
<path id="Vector_2" d="M9.07812 13.869L11.6935 16.4246L16.9244 11.3135" stroke="#8651E6" stroke-width="2.75" stroke-linecap="round" stroke-linejoin="round"/>
</g>
</svg>
