<svg width="26" height="26" viewBox="0 0 26 26" fill="none" xmlns="http://www.w3.org/2000/svg">
<path id="Vector" d="M8.54455 5.34426H6.31683C8.17327 3.72735 10.401 2.8567 12.8762 2.8567C13.2475 2.8567 13.6188 2.8567 13.9901 2.98108C14.6089 3.10546 15.2277 2.60795 15.3515 1.86168C15.4752 1.23979 14.9802 0.617897 14.2376 0.493519C13.7426 0.369141 13.3713 0.369141 12.8762 0.369141C9.90594 0.369141 7.05941 1.48854 4.83168 3.35422V1.61292C4.83168 0.866653 4.33663 0.369141 3.59406 0.369141C2.85149 0.369141 2.35644 0.866653 2.35644 1.61292V6.58805C2.35644 7.33431 2.85149 7.83183 3.59406 7.83183H8.54455C9.28713 7.83183 9.78218 7.33431 9.78218 6.58805C9.78218 5.84178 9.28713 5.34426 8.54455 5.34426ZM6.68812 15.9164C5.94554 15.9164 5.45049 16.4139 5.45049 17.1602V19.399C3.84158 17.5333 2.97525 15.2945 2.97525 12.807C2.97525 12.4338 2.97525 12.0607 3.09901 11.6875C3.22277 11.0657 2.72772 10.4438 1.98515 10.3194C1.36634 10.195 0.747525 10.6925 0.623762 11.4388C0.5 11.9363 0.5 12.3094 0.5 12.807C0.5 15.792 1.61386 18.6527 3.4703 20.8915H1.73762C0.995049 20.8915 0.5 21.389 0.5 22.1353C0.5 22.8816 0.995049 23.3791 1.73762 23.3791H6.68812C7.05941 23.3791 7.43069 23.1303 7.67822 22.8816C7.67822 22.7572 7.80198 22.6328 7.80198 22.5084V17.1602C7.92574 16.4139 7.43069 15.9164 6.68812 15.9164ZM24.0149 4.72237C24.7574 4.72237 25.2525 4.22486 25.2525 3.47859C25.2525 2.73232 24.7574 2.23481 24.0149 2.23481H18.8168C18.6931 2.23481 18.5693 2.35919 18.4455 2.35919C18.3218 2.48357 18.198 2.48357 18.198 2.60795C18.198 2.73232 18.0743 2.8567 18.0743 2.8567V8.20496C18.0743 8.95123 18.5693 9.44874 19.3119 9.44874C20.0545 9.44874 20.5495 8.95123 20.5495 8.20496V6.21491C22.1584 7.9562 23.0248 10.3194 23.0248 12.807C23.0248 13.1801 23.0248 13.5532 22.901 13.9264C22.7772 14.5482 23.2723 15.1701 24.0149 15.2945H24.1386C24.7574 15.2945 25.2525 14.797 25.3762 14.1751C25.3762 13.6776 25.5 13.3045 25.5 12.807C25.5 9.82188 24.3861 6.96118 22.5297 4.72237H24.0149ZM23.1485 18.404L22.7772 18.0308C22.6535 17.9065 22.5297 17.9065 22.4059 17.9065H17.2079C16.4653 17.9065 15.9703 18.404 15.9703 19.1502C15.9703 19.8965 16.4653 20.394 17.2079 20.394H19.4356C17.703 22.0109 15.3515 22.8816 12.8762 22.8816C12.5049 22.8816 12.1337 22.8816 11.7624 22.7572C11.1436 22.6328 10.5248 23.1303 10.401 23.8766C10.2772 24.6229 10.7723 25.1204 11.5149 25.2448C12.0099 25.2448 12.3812 25.3691 12.8762 25.3691C15.8465 25.3691 18.6931 24.2497 20.9208 22.3841V24.001C20.9208 24.7472 21.4158 25.2448 22.1584 25.2448C22.901 25.2448 23.396 24.7472 23.396 24.001V19.0259C23.396 18.7771 23.2723 18.5283 23.1485 18.404Z" fill="#8651E6"/>
</svg>
