<svg xmlns="http://www.w3.org/2000/svg" width="178" height="36" viewbox="0 0 178 36">
  <g fill="none">
    <path fill="#4B286D" d="M73.2 6.65V4.06h-9.01v13.29h9.01v-2.69h-5.36v-2.95h4.46V9.13h-4.46V6.65h5.36m15.9 8.08h-5.64V4.06h-3.69v13.29h9.33v-2.62m29.75-5.6c-2.5-.58-3.37-.65-3.37-1.66 0-.94 1.24-1.23 1.95-1.23 1.15 0 2.5.27 3.88 1l1-2.45a10.4 10.4 0 0 0-4.98-1.12c-3.43 0-5.74 1.43-5.84 4.2-.1 2.54 1.92 3.5 3.77 3.89 1.79.37 3.6.7 3.64 1.78.04 1-.85 1.43-2.5 1.43-1.54 0-2.98-.5-4.44-1.13l-.85 2.66c1.68.73 3.38 1.13 5.14 1.13 2.45 0 4.23-.38 5.54-1.64a3.88 3.88 0 0 0 1.21-2.91c0-2.1-1.28-3.29-4.15-3.95M58.94 6.68V4.06H47.61v2.62h3.83v10.67h3.67V6.68h3.83m42.76-2.62v8.45c0 .66 0 .84-.04 1.1-.12.8-.88 1.28-2.1 1.3-.9-.02-1.56-.3-1.87-.78-.16-.25-.23-.69-.23-1.4V4.06h-3.83v9.17c0 1.27.16 1.84.72 2.56.93 1.19 2.73 1.8 5.22 1.8h.13c3.33 0 5.04-1.32 5.54-2.56.25-.6.27-.89.27-2.1V4.06h-3.81M49.34.42 27.85 4.8v1.53l.07-.02A579.86 579.86 0 0 0 49.4.64c.08-.02.1-.08.1-.13-.01-.06-.07-.1-.16-.1"/>
    <path fill="#6C0" d="M31.3 1.64c.34-.22.44-.08.34.16-.16.4-.89 2.78-6.3 7.32a31.13 31.13 0 0 1-4.45 3.07c3.33-4.76 8.2-9.07 10.42-10.55M31.87 0c-1.05.06-2.98 1.65-4.04 2.59-4.23 3.74-7.37 7.18-9.66 10.77a115.41 115.41 0 0 1-16.87 7.4l-.14.04L0 24l.66-.26c3.84-1.5 10.24-4.31 16.05-7.43-.33.9-.5 1.71-.5 2.46 0 .56.1 1.07.28 1.55a3.63 3.63 0 0 0 2.08 2.05c1.48.6 3.5.62 5.82-.1 5.9-1.83 12.92-7.45 14.44-8.57l.06-.04c.06-.05.06-.11.04-.16a.12.12 0 0 0-.16-.03l-.08.05c-1.63 1-9.59 5.83-14.76 7.25-2.63.72-4.64.32-5.4-.76a2.34 2.34 0 0 1-.39-1.38c0-1.07.5-2.43 1.44-3.93.87-.51 1.68-1 2.41-1.47 5.05-2.9 10.86-8.54 11.1-11.98v-.08c0-.3-.12-.6-.34-.83a1.1 1.1 0 0 0-.88-.34Z"/>
    <path fill="#4B286D" d="M27.78 4.81 5.18 9.78l-.87 2.4 23.54-5.85.04-.01V4.79l-.11.02m23.88 26.3c0-1.77 1.03-2.88 2.55-2.88 1.31 0 2.2.78 2.37 2h-.88c-.15-.83-.8-1.22-1.49-1.22-.94 0-1.65.67-1.65 2.11s.74 2.11 1.65 2.11c.7 0 1.35-.4 1.5-1.25h.87A2.27 2.27 0 0 1 54.21 34c-1.5 0-2.55-1.11-2.55-2.89Zm8.77-2.81v.81h-.21c-1.1 0-1.8.56-1.8 1.62v3.14h-.86v-5.5h.81v.97c.31-.58.88-1.06 1.78-1.06l.28.01Zm5.43 3.11h-4.18c.09 1.24.74 1.8 1.7 1.8.77 0 1.27-.4 1.46-1.02h.88a2.3 2.3 0 0 1-2.36 1.8c-1.5 0-2.56-1.1-2.56-2.88 0-1.72 1-2.88 2.54-2.88 1.64 0 2.52 1.3 2.52 2.88v.3Zm-4.16-.76h3.24c-.09-.9-.63-1.63-1.61-1.63-.86 0-1.5.54-1.63 1.63Zm2.04-3.12h-.76L63.9 26h1.15l-1.31 1.53Zm2.94 3.58c0-1.75 1.13-2.88 2.67-2.88s2.67 1.13 2.67 2.88c0 1.76-1.12 2.88-2.67 2.88-1.54 0-2.67-1.11-2.67-2.88Zm4.44 0c0-1.33-.7-2.1-1.77-2.1-1.06 0-1.77.77-1.77 2.1 0 1.34.7 2.12 1.77 2.12s1.77-.78 1.77-2.12Zm6.32-.97v3.73h-.85v-3.64c0-.85-.47-1.22-1.26-1.22-.72 0-1.52.53-1.52 1.74v3.12h-.85v-5.5h.81v.82c.36-.55.96-.95 1.73-.95 1.22 0 1.94.7 1.94 1.9Zm.9 1.98h.86c.1.83.5 1.14 1.48 1.14.93 0 1.32-.3 1.32-.85 0-.49-.3-.72-1.26-.9l-.52-.09c-1.19-.22-1.71-.77-1.71-1.62 0-.94.74-1.56 2-1.56 1.48 0 2.22.65 2.24 1.82h-.85c-.04-.85-.54-1.08-1.39-1.08-.73 0-1.15.3-1.15.8 0 .53.4.73 1.1.86l.5.1c1.35.26 1.9.73 1.9 1.62 0 1.05-.84 1.64-2.19 1.64-1.4 0-2.24-.59-2.33-1.88Zm11.99-3.75v5.5h-.82v-.82c-.36.55-.96.94-1.72.94-1.23 0-1.94-.7-1.94-1.9v-3.73h.85V32c0 .85.47 1.22 1.26 1.22.72 0 1.51-.53 1.51-1.74v-3.12h.86Zm5.69 1.77v3.73h-.85v-3.64c0-.85-.47-1.22-1.26-1.22-.72 0-1.52.53-1.52 1.74v3.12h-.85v-5.5h.81v.82c.36-.55.96-.95 1.73-.95 1.22 0 1.94.7 1.94 1.9Zm4.69-2.36v.58h1.18v.75h-1.18v4.75h-.85v-4.75h-.9v-.75h.9v-.56c0-.97.45-1.55 1.53-1.55l.55.02V27h-.49c-.5 0-.74.28-.74.78Zm6.53.59v5.5h-.82v-.82c-.36.55-.96.94-1.72.94-1.23 0-1.94-.7-1.94-1.9v-3.73h.85V32c0 .85.47 1.22 1.26 1.22.72 0 1.51-.53 1.51-1.74v-3.12h.86Zm2.66.74v3.57c0 .3.13.47.63.47h.5v.72l-.6.03c-.86 0-1.39-.3-1.39-1.14V29.1h-.9v-.75h.9V26.8h.86v1.56h1.13v.75h-1.13Zm6.5-.74v5.5h-.8v-.82c-.37.55-.97.94-1.74.94-1.22 0-1.94-.7-1.94-1.9v-3.73h.86V32c0 .85.47 1.22 1.26 1.22.71 0 1.51-.53 1.51-1.74v-3.12h.85Zm4.09-.07v.81h-.22c-1.1 0-1.8.56-1.8 1.62v3.14h-.85v-5.5h.81v.97c.31-.58.87-1.06 1.77-1.06l.29.01ZM131 30.13v3.74h-.86v-3.65c0-.85-.43-1.21-1.15-1.21-.7 0-1.41.53-1.41 1.85v3h-.85v-3.64c0-.85-.44-1.21-1.16-1.21-.67 0-1.4.53-1.4 1.85v3h-.86v-5.5h.82v.82c.33-.56.85-.94 1.58-.94.88 0 1.43.43 1.7 1.04a1.9 1.9 0 0 1 1.7-1.04c1.28 0 1.88.83 1.88 1.9Zm6.05 1.28h-4.18c.09 1.24.74 1.8 1.7 1.8.78 0 1.27-.4 1.46-1.02h.88a2.3 2.3 0 0 1-2.36 1.8c-1.5 0-2.56-1.1-2.56-2.88 0-1.72 1-2.88 2.54-2.88 1.64 0 2.53 1.3 2.53 2.88v.3Zm-4.16-.76h3.24c-.08-.9-.63-1.63-1.6-1.63-.87 0-1.5.54-1.64 1.63Zm5.07-3.64c0-.3.27-.57.62-.57.33 0 .62.25.62.57 0 .31-.28.57-.62.57-.33 0-.62-.25-.62-.57Zm.16 1.36h.92v5.5h-.92v-5.5Zm2.16 4.39v-6.49h.86v6.41c0 .3.11.47.52.47h.4v.72l-.54.03c-.77 0-1.24-.3-1.24-1.14Zm2.47 0v-6.49h.85v6.41c0 .3.12.47.52.47h.4v.72l-.53.03c-.77 0-1.24-.3-1.24-1.14Zm7.2-1.35h-4.18c.08 1.24.73 1.8 1.7 1.8.77 0 1.26-.4 1.46-1.02h.88a2.3 2.3 0 0 1-2.37 1.8c-1.5 0-2.56-1.1-2.56-2.88 0-1.72 1.02-2.88 2.54-2.88 1.64 0 2.53 1.3 2.53 2.88v.3Zm-4.16-.76h3.24c-.09-.9-.63-1.63-1.61-1.63-.86 0-1.5.54-1.63 1.63Zm9.65-2.28v5.5h-.8v-.82c-.37.55-.97.94-1.74.94-1.22 0-1.94-.7-1.94-1.9v-3.73h.86V32c0 .85.47 1.22 1.26 1.22.71 0 1.51-.53 1.51-1.74v-3.12h.85Zm4.08-.07v.81h-.21c-1.1 0-1.8.56-1.8 1.62v3.14h-.86v-5.5h.82v.97a1.9 1.9 0 0 1 1.77-1.06l.28.01Z"/>
  </g>
</svg>
