<svg xmlns="http://www.w3.org/2000/svg" width="178" height="36" viewbox="0 0 178 36">
  <g fill="none">
    <path fill="#4B286D" d="M73.2 6.65V4.06h-9.01v13.29h9.01v-2.69h-5.36v-2.95h4.46V9.13h-4.46V6.65h5.36m15.9 8.08h-5.64V4.06h-3.69v13.29h9.33v-2.62m29.75-5.6c-2.5-.58-3.37-.65-3.37-1.66 0-.94 1.24-1.23 1.95-1.23 1.15 0 2.5.27 3.88 1l1-2.45a10.4 10.4 0 0 0-4.98-1.12c-3.43 0-5.74 1.43-5.84 4.2-.1 2.54 1.92 3.5 3.77 3.89 1.79.37 3.6.7 3.64 1.78.04 1-.85 1.43-2.5 1.43-1.54 0-2.98-.5-4.44-1.13l-.85 2.66c1.68.73 3.38 1.13 5.14 1.13 2.45 0 4.23-.38 5.54-1.64a3.88 3.88 0 0 0 1.21-2.91c0-2.1-1.28-3.29-4.15-3.95M58.94 6.68V4.06H47.61v2.62h3.83v10.67h3.67V6.68h3.83m42.76-2.62v8.45c0 .66 0 .84-.04 1.1-.12.8-.88 1.28-2.1 1.3-.9-.02-1.56-.3-1.87-.78-.16-.25-.23-.69-.23-1.4V4.06h-3.83v9.17c0 1.27.16 1.84.72 2.56.93 1.19 2.73 1.8 5.22 1.8h.13c3.33 0 5.04-1.32 5.54-2.56.25-.6.27-.89.27-2.1V4.06h-3.81M49.34.42 27.85 4.8v1.53l.07-.02A579.86 579.86 0 0 0 49.4.64c.08-.02.1-.08.1-.13-.01-.06-.07-.1-.16-.1"/>
    <path fill="#6C0" d="M31.3 1.64c.34-.22.44-.08.34.16-.16.4-.89 2.78-6.3 7.32a31.13 31.13 0 0 1-4.45 3.07c3.33-4.76 8.2-9.07 10.42-10.55M31.87 0c-1.05.06-2.98 1.65-4.04 2.59-4.23 3.74-7.37 7.18-9.66 10.77a115.41 115.41 0 0 1-16.87 7.4l-.14.04L0 24l.66-.26c3.84-1.5 10.24-4.31 16.05-7.43-.33.9-.5 1.71-.5 2.46 0 .56.1 1.07.28 1.55a3.63 3.63 0 0 0 2.08 2.05c1.48.6 3.5.62 5.82-.1 5.9-1.83 12.92-7.45 14.44-8.57l.06-.04c.06-.05.06-.11.04-.16a.12.12 0 0 0-.16-.03l-.08.05c-1.63 1-9.59 5.83-14.76 7.25-2.63.72-4.64.32-5.4-.76a2.34 2.34 0 0 1-.39-1.38c0-1.07.5-2.43 1.44-3.93.87-.51 1.68-1 2.41-1.47 5.05-2.9 10.86-8.54 11.1-11.98v-.08c0-.3-.12-.6-.34-.83a1.1 1.1 0 0 0-.88-.34Z"/>
    <path fill="#4B286D" d="M27.78 4.81 5.18 9.78l-.87 2.4 23.54-5.85.04-.01V4.79l-.11.02"/>
  </g>
</svg>
