<svg xmlns="http://www.w3.org/2000/svg" width="178" height="36" viewbox="0 0 178 36">
  <g fill="none">
    <path fill="#4B286D" d="M73.2 6.65V4.06h-9.01v13.29h9.01v-2.69h-5.36v-2.95h4.46V9.13h-4.46V6.65h5.36m15.9 8.08h-5.64V4.06h-3.69v13.29h9.33v-2.62m29.75-5.6c-2.5-.58-3.37-.65-3.37-1.66 0-.94 1.24-1.23 1.95-1.23 1.15 0 2.5.27 3.88 1l1-2.45a10.4 10.4 0 0 0-4.98-1.12c-3.43 0-5.74 1.43-5.84 4.2-.1 2.54 1.92 3.5 3.77 3.89 1.79.37 3.6.7 3.64 1.78.04 1-.85 1.43-2.5 1.43-1.54 0-2.98-.5-4.44-1.13l-.85 2.66c1.68.73 3.38 1.13 5.14 1.13 2.45 0 4.23-.38 5.54-1.64a3.88 3.88 0 0 0 1.21-2.91c0-2.1-1.28-3.29-4.15-3.95M58.94 6.68V4.06H47.61v2.62h3.83v10.67h3.67V6.68h3.83m42.76-2.62v8.45c0 .66 0 .84-.04 1.1-.12.8-.88 1.28-2.1 1.3-.9-.02-1.56-.3-1.87-.78-.16-.25-.23-.69-.23-1.4V4.06h-3.83v9.17c0 1.27.16 1.84.72 2.56.93 1.19 2.73 1.8 5.22 1.8h.13c3.33 0 5.04-1.32 5.54-2.56.25-.6.27-.89.27-2.1V4.06h-3.81M49.34.42 27.85 4.8v1.53l.07-.02A579.86 579.86 0 0 0 49.4.64c.08-.02.1-.08.1-.13-.01-.06-.07-.1-.16-.1"/>
    <path fill="#6C0" d="M31.3 1.64c.34-.22.44-.08.34.16-.16.4-.89 2.78-6.3 7.32a31.13 31.13 0 0 1-4.45 3.07c3.33-4.76 8.2-9.07 10.42-10.55M31.87 0c-1.05.06-2.98 1.65-4.04 2.59-4.23 3.74-7.37 7.18-9.66 10.77a115.41 115.41 0 0 1-16.87 7.4l-.14.04L0 24l.66-.26c3.84-1.5 10.24-4.31 16.05-7.43-.33.9-.5 1.71-.5 2.46 0 .56.1 1.07.28 1.55a3.63 3.63 0 0 0 2.08 2.05c1.48.6 3.5.62 5.82-.1 5.9-1.83 12.92-7.45 14.44-8.57l.06-.04c.06-.05.06-.11.04-.16a.12.12 0 0 0-.16-.03l-.08.05c-1.63 1-9.59 5.83-14.76 7.25-2.63.72-4.64.32-5.4-.76a2.34 2.34 0 0 1-.39-1.38c0-1.07.5-2.43 1.44-3.93.87-.51 1.68-1 2.41-1.47 5.05-2.9 10.86-8.54 11.1-11.98v-.08c0-.3-.12-.6-.34-.83a1.1 1.1 0 0 0-.88-.34Z"/>
    <path fill="#4B286D" d="M27.78 4.81 5.18 9.78l-.87 2.4 23.54-5.85.04-.01V4.79l-.11.02M52 33.01v-6h.84v5.93c0 .27.11.43.51.43h.4v.66a6 6 0 0 1-.53.03c-.76 0-1.22-.27-1.22-1.05Zm7.08-1.24h-4.11c.08 1.14.72 1.66 1.67 1.66.76 0 1.25-.37 1.44-.94h.87c-.26.95-1.04 1.66-2.33 1.66-1.48 0-2.52-1.01-2.52-2.66 0-1.6 1-2.66 2.5-2.66 1.61 0 2.49 1.2 2.49 2.66v.28Zm-4.1-.71h3.2c-.09-.84-.62-1.5-1.59-1.5-.84 0-1.46.5-1.6 1.5Zm6.25-1.42v3.3c0 .27.14.43.62.43h.5v.66a7.5 7.5 0 0 1-.6.03c-.84 0-1.36-.27-1.36-1.05v-3.37h-.89v-.7h.9v-1.43h.83v1.44h1.12v.69h-1.12Zm3.37-1.8c0 .92-.48 1.35-1.15 1.47l-.1.02v-.52h.07c.33-.1.53-.28.57-.77h-.07c-.32 0-.57-.2-.57-.5s.25-.52.57-.52c.43 0 .69.29.69.82Zm.05 4.58h.85c.1.77.5 1.06 1.45 1.06.91 0 1.3-.3 1.3-.8 0-.44-.3-.65-1.24-.82l-.5-.09c-1.18-.2-1.7-.7-1.7-1.5 0-.86.74-1.44 1.98-1.44 1.45 0 2.18.6 2.2 1.69h-.84c-.04-.79-.53-1-1.36-1-.72 0-1.13.27-1.13.75s.4.66 1.09.78l.48.1c1.33.24 1.86.66 1.86 1.49 0 .97-.82 1.52-2.14 1.52-1.37 0-2.21-.55-2.3-1.74Zm14.95-1.84v3.45h-.84v-3.37c0-.78-.42-1.12-1.14-1.12-.68 0-1.38.5-1.38 1.72v2.77h-.84v-3.37c0-.78-.43-1.12-1.14-1.12-.66 0-1.38.5-1.38 1.72v2.77h-.84v-5.08h.8v.75c.32-.52.84-.87 1.56-.87.86 0 1.4.4 1.67.96.34-.56.9-.96 1.67-.96 1.26 0 1.86.77 1.86 1.75Zm6.05 2.82v.64c-.14.02-.3.03-.46.03-.6 0-.87-.25-.92-.73-.38.54-.98.82-1.76.82-1.17 0-1.9-.53-1.9-1.5 0-.79.5-1.42 2-1.57l.77-.08c.54-.06.85-.25.85-.7 0-.53-.3-.8-1.22-.8-.92 0-1.3.25-1.36 1h-.84c.06-.98.62-1.68 2.2-1.68 1.5 0 2.03.62 2.03 1.48v2.84c0 .16.1.25.3.25h.3Zm-1.42-1.37v-.6c-.17.11-.4.18-.72.21l-.78.09c-.99.1-1.26.42-1.26.91 0 .5.33.84 1.08.84.81 0 1.68-.45 1.68-1.45Zm4.03-.73-.97.85v1.88h-.84v-7.01h.84v4.2l2.51-2.27h1.12l-2.06 1.83 2.2 3.25h-.97zm7.98.47h-4.11c.08 1.14.72 1.66 1.67 1.66.76 0 1.25-.37 1.44-.94h.87c-.27.95-1.04 1.66-2.33 1.66-1.48 0-2.52-1.01-2.52-2.66 0-1.6 1-2.66 2.5-2.66 1.61 0 2.48 1.2 2.48 2.66v.28Zm-4.1-.71h3.2c-.09-.84-.62-1.5-1.59-1.5-.84 0-1.46.5-1.6 1.5Zm8.46-1.42v3.3c0 .27.13.43.62.43h.5v.66a7.5 7.5 0 0 1-.6.03c-.85 0-1.36-.27-1.36-1.05v-3.37h-.9v-.7h.9v-1.43h.84v1.44h1.1v.69h-1.1Zm6.43.96v3.43h-.84v-3.36c0-.78-.46-1.13-1.24-1.13-.7 0-1.5.5-1.5 1.62v2.87h-.83v-7.01h.84v2.63c.35-.47.92-.82 1.66-.82 1.2 0 1.9.64 1.9 1.76Zm5.89 1.17h-4.11c.08 1.14.72 1.66 1.67 1.66.76 0 1.25-.37 1.44-.94h.87c-.27.95-1.04 1.66-2.33 1.66-1.48 0-2.52-1.01-2.52-2.66 0-1.6 1-2.66 2.5-2.66 1.61 0 2.49 1.2 2.49 2.66v.28Zm-4.09-.71h3.2c-.1-.84-.63-1.5-1.6-1.5-.84 0-1.46.5-1.6 1.5Zm8.45-2.66v.55h1.15v.69h-1.15v4.39h-.84v-4.4h-.9v-.68h.9v-.52c0-.9.44-1.43 1.5-1.43.16 0 .42 0 .54.02v.67H118c-.48 0-.72.26-.72.72Zm6.42.55v5.08h-.8v-.76c-.36.52-.95.88-1.7.88-1.2 0-1.91-.64-1.91-1.76v-3.44h.84v3.36c0 .79.46 1.13 1.24 1.13.7 0 1.49-.5 1.49-1.62v-2.87h.84Zm2.62.69v3.3c0 .27.14.43.62.43h.5v.66a7.5 7.5 0 0 1-.6.03c-.84 0-1.36-.27-1.36-1.05v-3.37h-.89v-.7h.9v-1.43h.83v1.44h1.12v.69h-1.12Zm6.4-.69v5.08h-.8v-.76a2 2 0 0 1-1.7.88c-1.2 0-1.9-.64-1.9-1.76v-3.44h.84v3.36c0 .79.46 1.13 1.24 1.13.7 0 1.48-.5 1.48-1.62v-2.87h.84Zm4.02-.07v.76h-.2c-1.09 0-1.78.51-1.78 1.5v2.9h-.84v-5.09h.8v.9c.3-.53.86-.98 1.74-.98l.28.01Zm5.34 2.89h-4.11c.08 1.14.72 1.66 1.67 1.66.76 0 1.25-.37 1.44-.94h.87c-.27.95-1.04 1.66-2.33 1.66-1.48 0-2.52-1.01-2.52-2.66 0-1.6 1-2.66 2.5-2.66 1.61 0 2.48 1.2 2.48 2.66v.28Zm-4.09-.71h3.2c-.1-.84-.63-1.5-1.6-1.5-.84 0-1.46.5-1.6 1.5Zm8.45-2.66v.55h1.15v.69h-1.15v4.39h-.84v-4.4h-.89v-.68h.89v-.52c0-.9.44-1.43 1.51-1.43.16 0 .41 0 .53.02v.67h-.48c-.48 0-.72.26-.72.72Zm4.83.48v.76h-.2c-1.09 0-1.78.51-1.78 1.5v2.9h-.84v-5.09h.8v.9c.3-.53.86-.98 1.74-.98l.28.01Zm.68-1.18c0-.29.29-.53.65-.53.34 0 .64.23.64.53 0 .29-.29.53-.64.53-.35 0-.65-.24-.65-.53Zm.17 1.25h.95v5.08h-.95v-5.08Zm6.7 2.82h-4.12c.09 1.14.73 1.66 1.67 1.66.77 0 1.25-.37 1.44-.94h.87c-.26.95-1.04 1.66-2.33 1.66-1.48 0-2.52-1.01-2.52-2.66 0-1.6 1-2.66 2.5-2.66 1.62 0 2.5 1.2 2.5 2.66v.28h-.01Zm-4.1-.71h3.2c-.1-.84-.63-1.5-1.6-1.5-.84 0-1.46.5-1.6 1.5Zm9.43-.46v3.43h-.84v-3.36c0-.78-.46-1.13-1.24-1.13-.7 0-1.49.5-1.49 1.62v2.87h-.84v-5.08h.8v.76c.36-.5.95-.88 1.7-.88 1.21 0 1.9.64 1.9 1.76Zm6.1-3.58v7.01h-.8v-.78c-.4.58-1.05.9-1.85.9-1.52 0-2.52-1.04-2.52-2.66s1-2.66 2.52-2.66c.78 0 1.4.3 1.81.85v-2.66h.84Zm-.8 4.47c0-1.23-.7-1.95-1.75-1.95s-1.74.76-1.74 1.99.7 1.9 1.74 1.9c1.05 0 1.75-.7 1.75-1.94Zm1.89 1.52v-6h.84v5.93c0 .27.11.43.51.43h.4v.66a6 6 0 0 1-.53.03c-.76 0-1.22-.27-1.22-1.05Zm6.66-4.06-2.29 5.89c-.34.9-.9 1.16-1.76 1.16-.17 0-.33 0-.5-.03v-.66h.49c.53 0 .82-.23.98-.63l.2-.47-2.04-5.25h.92l.77 2.11c.27.74.52 1.47.77 2.2.24-.73.5-1.47.78-2.2l.76-2.11h.92Z"/>
  </g>
</svg>

