<svg width="13" height="16" viewBox="0 0 13 16" fill="none" xmlns="http://www.w3.org/2000/svg">
<path d="M10.8655 11.2252C11.6402 11.2252 12.2681 10.5972 12.2681 9.82255C12.2681 9.0479 11.6402 8.41992 10.8655 8.41992C10.0909 8.41992 9.46289 9.0479 9.46289 9.82255C9.46289 10.5972 10.0909 11.2252 10.8655 11.2252Z" fill="url(#paint0_linear_1661_18961)"/>
<path d="M10.8719 14.6805C11.6465 14.6773 12.272 14.0469 12.2689 13.2722C12.2658 12.4976 11.6353 11.8721 10.8606 11.8752C10.086 11.8783 9.46053 12.5088 9.46364 13.2835C9.46675 14.0581 10.0972 14.6836 10.8719 14.6805Z" fill="url(#paint1_linear_1661_18961)"/>
<path d="M11.1547 0.0059463C11.1243 0.00871009 11.0952 0.0114739 11.0648 0.0142377C10.8962 0.0335842 10.7263 0.0570764 10.5577 0.0819505L10.3545 0.112352L10.2772 0.124789L10.2606 0.127553C8.41436 0.502047 7.03661 1.33118 6.04717 2.66195C5.92971 2.82087 5.82054 2.98255 5.72243 3.14147C4.96515 4.37273 4.68186 5.72146 4.43035 6.91128L4.35988 7.24431C4.14983 8.24066 3.93287 9.27017 3.45059 10.0551C3.3967 10.1408 3.33728 10.2306 3.27233 10.3176C3.02773 10.6438 2.72786 10.9215 2.381 11.1371C1.99546 11.3762 1.56431 11.5351 1.12486 11.6429C0.883031 11.7023 0.653636 11.7147 0.442206 11.8612C0.265324 11.9842 0.127134 12.1625 0.0552758 12.367C0.0442206 12.4002 0.0345474 12.4333 0.026256 12.4679C0.00829137 12.5439 0 12.6226 0 12.7C0 13.2625 0.457407 13.7185 1.01984 13.7185C1.05577 13.7185 1.09032 13.7171 1.12348 13.713L1.14283 13.7102L1.20087 13.7005L1.2285 13.6964L1.26582 13.6895C2.86743 13.3647 4.0531 12.6586 4.89191 11.531C4.99279 11.3941 5.08537 11.2573 5.16829 11.1219C5.83574 10.0357 6.09001 8.83073 6.33599 7.66303L6.40646 7.32999C6.6331 6.25211 6.86802 5.1383 7.44012 4.20691C7.50784 4.09636 7.58384 3.98442 7.66537 3.87387C8.34112 2.96597 9.31535 2.39248 10.6447 2.12025C10.7152 2.10919 10.7843 2.09952 10.8534 2.08984C11.2127 2.03733 11.5982 2.04562 11.894 1.80656C12.1275 1.61724 12.2657 1.32842 12.2657 1.02855V0.998147C12.2657 0.69413 12.1247 0.403932 11.8857 0.214612C11.7793 0.130317 11.6563 0.0681316 11.5264 0.0322023C11.4048 -0.000963173 11.2776 -0.00510886 11.1519 0.00456441L11.1547 0.0059463Z" fill="url(#paint2_linear_1661_18961)"/>
<path d="M11.1547 0.0059463C11.1243 0.00871009 11.0952 0.0114739 11.0648 0.0142377C10.8962 0.0335842 10.7263 0.0570764 10.5577 0.0819505L10.3545 0.112352L10.2772 0.124789L10.2606 0.127553C8.41436 0.502047 7.03661 1.33118 6.04717 2.66195C5.92971 2.82087 5.82054 2.98255 5.72243 3.14147C4.96515 4.37273 4.68186 5.72146 4.43035 6.91128L4.35988 7.24431C4.14983 8.24066 3.93287 9.27017 3.45059 10.0551C3.3967 10.1408 3.33728 10.2306 3.27233 10.3176C3.02773 10.6438 2.72786 10.9215 2.381 11.1371C1.99546 11.3762 1.56431 11.5351 1.12486 11.6429C0.883031 11.7023 0.653636 11.7147 0.442206 11.8612C0.265324 11.9842 0.127134 12.1625 0.0552758 12.367C0.0442206 12.4002 0.0345474 12.4333 0.026256 12.4679C0.00829137 12.5439 0 12.6226 0 12.7C0 13.2625 0.457407 13.7185 1.01984 13.7185C1.05577 13.7185 1.09032 13.7171 1.12348 13.713L1.14283 13.7102L1.20087 13.7005L1.2285 13.6964L1.26582 13.6895C2.86743 13.3647 4.0531 12.6586 4.89191 11.531C4.99279 11.3941 5.08537 11.2573 5.16829 11.1219C5.83574 10.0357 6.09001 8.83073 6.33599 7.66303L6.40646 7.32999C6.6331 6.25211 6.86802 5.1383 7.44012 4.20691C7.50784 4.09636 7.58384 3.98442 7.66537 3.87387C8.34112 2.96597 9.31535 2.39248 10.6447 2.12025C10.7152 2.10919 10.7843 2.09952 10.8534 2.08984C11.2127 2.03733 11.5982 2.04562 11.894 1.80656C12.1275 1.61724 12.2657 1.32842 12.2657 1.02855V0.998147C12.2657 0.69413 12.1247 0.403932 11.8857 0.214612C11.7793 0.130317 11.6563 0.0681316 11.5264 0.0322023C11.4048 -0.000963173 11.2776 -0.00510886 11.1519 0.00456441L11.1547 0.0059463Z" fill="url(#paint3_linear_1661_18961)"/>
<path d="M10.8862 3.13887L10.983 3.12229C11.0037 3.11953 11.5026 3.04628 11.5592 3.03938C11.591 3.03523 11.6228 3.03247 11.656 3.0297C11.6739 3.0297 11.6905 3.02832 11.7071 3.02832C11.8494 3.02832 11.9627 3.06563 12.0622 3.1444C12.1921 3.24804 12.2695 3.40834 12.2695 3.57555V3.62115C12.2695 3.67781 12.2612 3.73309 12.2446 3.78698C12.1935 3.95143 12.0664 4.08409 11.9061 4.14213C11.8315 4.16838 11.7527 4.17806 11.6767 4.18773C11.6518 4.19049 11.6269 4.19326 11.6034 4.1974L11.2718 4.24439L11.1046 4.26926C10.1939 4.46273 10.0861 4.81926 9.65912 5.39274C9.60108 5.47289 9.5541 5.54337 9.51402 5.60694C9.0884 6.29927 8.89217 7.2279 8.68627 8.21181L8.61579 8.54484C8.35461 9.78579 8.05751 11.1926 7.24081 12.5219C7.1344 12.6961 7.01418 12.8729 6.88428 13.0471C5.79535 14.5119 3.87037 15.4225 1.86247 15.8302L1.7381 15.8523L1.52667 15.8827C1.25029 15.9214 0.955949 15.9615 0.661605 15.9933C0.639495 15.996 0.617385 15.9974 0.595274 15.9974C0.267765 15.9974 0.00244141 15.7445 0.00244141 15.4322V15.417C0.00244141 15.3756 0.00658709 15.3355 0.0148785 15.2954C0.0646267 15.0702 0.251183 14.8933 0.480577 14.8573C0.564873 14.8435 0.65055 14.8352 0.736228 14.8269C0.795649 14.8214 0.856452 14.8145 0.915874 14.8076C1.06374 14.7882 1.2116 14.7675 1.35946 14.7454L1.63722 14.7026C3.3563 14.3543 5.05603 13.5874 5.9667 12.3603C6.07587 12.2124 6.17675 12.0631 6.26657 11.9181C6.97825 10.76 7.25324 9.4569 7.49508 8.30716L7.56555 7.97412C7.79495 6.88795 8.01052 5.86397 8.53979 5.00443C8.59921 4.9077 8.66692 4.8082 8.74155 4.70732" fill="url(#paint4_linear_1661_18961)"/>
<path d="M0.593809 15.9976C0.2663 15.9976 0.000976562 15.7447 0.000976562 15.4324V15.4172C0.000976562 15.3757 0.00512225 15.3356 0.0134136 15.2956C0.0631618 15.0703 0.249718 14.8934 0.479112 14.8575C0.563408 14.8437 0.649085 14.8354 0.734763 14.8271C0.794184 14.8216 0.854988 14.8147 0.914409 14.8078C1.06227 14.7884 1.21013 14.7677 1.358 14.7456L1.63576 14.7027C3.35484 14.3545 5.05457 13.5875 5.96524 12.3604C6.0744 12.2126 6.17528 12.0633 6.26511 11.9182C6.97678 10.7602 7.25178 9.45706 7.49361 8.30732L7.56409 7.97429C7.79348 6.88812 8.00906 5.86413 8.53832 5.0046C8.59774 4.90786 8.66546 4.80837 8.74008 4.70749C9.34535 3.89355 9.65489 3.53288 10.8875 3.1418L10.9843 3.12522C11.005 3.12246 11.5039 3.04921 11.5605 3.04231C11.5923 3.03816 11.6241 3.0354 11.6573 3.03263C11.6752 3.03263 11.6918 3.03125 11.7084 3.03125C11.8507 3.03125 11.964 3.06856 12.0635 3.14733C12.1934 3.25097 12.2708 3.41127 12.2708 3.57848V3.62408C12.2708 3.68074 12.2625 3.73602 12.2459 3.78991C12.1948 3.95436 12.0677 4.08702 11.9074 4.14506C11.8328 4.17131 11.754 4.18099 11.678 4.19066C11.6531 4.19342 11.6282 4.19619 11.6047 4.20033L11.2731 4.24732L11.1059 4.27219C10.1579 4.61076 10.0874 4.82219 9.66042 5.39567C9.60238 5.47582 9.5554 5.5463 9.51532 5.60987C9.0897 6.3022 8.89347 7.23083 8.68757 8.21474L8.61709 8.54777C8.35591 9.78872 8.05881 11.1955 7.24211 12.5249C7.1357 12.699 7.01548 12.8759 6.88558 13.05C5.79664 14.5148 3.87166 15.4255 1.86377 15.8331L1.7394 15.8552L1.52797 15.8856C1.25159 15.9243 0.957248 15.9644 0.662904 15.9962C0.640794 15.999 0.618684 16.0003 0.596573 16.0003L0.593809 15.9976Z" fill="url(#paint5_linear_1661_18961)"/>
<defs>
<linearGradient id="paint0_linear_1661_18961" x1="6.90362" y1="16.0853" x2="14.5289" y2="4.02964" gradientUnits="userSpaceOnUse">
<stop stop-color="#0177FF"/>
<stop offset="0.18" stop-color="#0177FF"/>
<stop offset="0.73" stop-color="#00B4FF"/>
<stop offset="1" stop-color="#00C7FF"/>
</linearGradient>
<linearGradient id="paint1_linear_1661_18961" x1="8.46503" y1="17.0732" x2="16.0903" y2="5.01616" gradientUnits="userSpaceOnUse">
<stop stop-color="#0177FF"/>
<stop offset="0.18" stop-color="#0177FF"/>
<stop offset="0.73" stop-color="#00B4FF"/>
<stop offset="1" stop-color="#00C7FF"/>
</linearGradient>
<linearGradient id="paint2_linear_1661_18961" x1="2.36028" y1="12.7221" x2="9.98557" y2="0.665111" gradientUnits="userSpaceOnUse">
<stop stop-color="#0177FF"/>
<stop offset="0.18" stop-color="#0177FF"/>
<stop offset="0.73" stop-color="#00B4FF"/>
<stop offset="1" stop-color="#00C7FF"/>
</linearGradient>
<linearGradient id="paint3_linear_1661_18961" x1="2.36028" y1="12.7221" x2="9.98557" y2="0.665111" gradientUnits="userSpaceOnUse">
<stop offset="0.02" stop-color="#0176FF"/>
<stop offset="0.085" stop-color="#0177FF"/>
<stop offset="0.18" stop-color="#0177FF"/>
<stop offset="0.73" stop-color="#00B4FF"/>
<stop offset="1" stop-color="#00C7FF"/>
</linearGradient>
<linearGradient id="paint4_linear_1661_18961" x1="3.67137" y1="13.8071" x2="11.3174" y2="1.71967" gradientUnits="userSpaceOnUse">
<stop stop-color="#0177FF"/>
<stop offset="0.18" stop-color="#0177FF"/>
<stop offset="0.265" stop-color="#0177FF"/>
<stop offset="0.73" stop-color="#00B4FF"/>
<stop offset="1" stop-color="#00C7FF"/>
</linearGradient>
<linearGradient id="paint5_linear_1661_18961" x1="3.67129" y1="13.8073" x2="11.3173" y2="1.71983" gradientUnits="userSpaceOnUse">
<stop stop-color="#0177FF"/>
<stop offset="0.18" stop-color="#0176FF"/>
<stop offset="0.73" stop-color="#00B4FF"/>
<stop offset="1" stop-color="#00C7FF"/>
</linearGradient>
</defs>
</svg>
