<svg width="59" height="71" viewBox="0 0 59 71" fill="none" xmlns="http://www.w3.org/2000/svg">
<path d="M40.8353 14.7565C39.2409 14.7542 37.7126 14.1194 36.5855 12.9915C35.4585 11.8635 34.8246 10.3345 34.8231 8.7397V0.392578H7.95753C5.87658 0.392578 3.88091 1.21945 2.40946 2.69131C0.938005 4.16317 0.111328 6.15946 0.111328 8.24098V55.553C0.111328 57.6345 0.938005 59.6308 2.40946 61.1026C3.88091 62.5745 5.87658 63.4014 7.95753 63.4014H40.2055C41.2361 63.4018 42.2567 63.1991 43.209 62.8048C44.1613 62.4106 45.0266 61.8325 45.7555 61.1037C46.4844 60.3748 47.0626 59.5095 47.4571 58.5571C47.8516 57.6047 48.0546 56.5839 48.0546 55.553V14.7565H40.8353Z" fill="#FFF3E1"/>
<path d="M48.0558 14.7565H40.8364C39.2421 14.7542 37.7138 14.1194 36.5867 12.9915C35.4596 11.8635 34.8258 10.3345 34.8242 8.7397V0.392578L48.0558 14.7565Z" fill="#FF9908"/>
<path d="M53.7424 50.1519H17.2842C14.698 50.1519 12.6016 52.2489 12.6016 54.8358V65.7087C12.6016 68.2955 14.698 70.3926 17.2842 70.3926H53.7424C56.3286 70.3926 58.4251 68.2955 58.4251 65.7087V54.8358C58.4251 52.2489 56.3286 50.1519 53.7424 50.1519Z" fill="#FF9908"/>
<path d="M30.3733 62.6255V64.7458H28.1777V62.6255H30.3733Z" fill="white"/>
<path d="M36.9104 63.1447H33.6215L33.0763 64.7459H30.8457L34.053 56.0371H36.4964L39.7037 64.7459H37.4469L36.9104 63.1447ZM36.3623 61.5319L35.2718 58.3061L34.1697 61.5319H36.3623Z" fill="white"/>
<path d="M42.651 55.9756V64.7456H40.5312V55.9756H42.651Z" fill="white"/>
<path d="M22.2922 33.6649C22.2766 33.5379 22.2903 33.4091 22.3323 33.2882C22.3742 33.1674 22.4432 33.0578 22.5341 32.9678C22.6138 32.8881 22.7083 32.8249 22.8124 32.7817C22.9165 32.7386 23.028 32.7163 23.1406 32.7163C23.2533 32.7163 23.3648 32.7386 23.4689 32.7817C23.5729 32.8249 23.6675 32.8881 23.7471 32.9678C23.8268 33.0474 23.89 33.142 23.9331 33.2461C23.9763 33.3502 23.9985 33.4618 23.9985 33.5745C23.9985 33.6871 23.9763 33.7987 23.9331 33.9028C23.89 34.0069 23.8268 34.1014 23.7471 34.1811C23.6572 34.272 23.5476 34.3411 23.4268 34.3831C23.306 34.4251 23.1772 34.4388 23.0502 34.4232L13.0901 44.386L27.9603 37.0947C27.9603 37.0947 29.631 30.8708 31.5263 28.9722L27.7358 25.1807C25.8377 27.0764 19.6155 28.7476 19.6155 28.7476L12.3262 43.6219L22.2922 33.6649Z" fill="#FF9908"/>
<path d="M35.8352 26.7597L29.9531 20.876L27.0688 23.7611L32.9509 29.6449L35.8352 26.7597Z" fill="#FF9908"/>
</svg>
