<svg width="60" height="71" viewBox="0 0 60 71" fill="none" xmlns="http://www.w3.org/2000/svg">
<path d="M41.4935 14.6137C39.8991 14.6121 38.3703 13.9781 37.2426 12.8506C36.1149 11.7232 35.4803 10.1943 35.478 8.59948V0.251953H8.60244C6.52139 0.251953 4.52559 1.07888 3.05406 2.55081C1.58254 4.02274 0.755859 6.0191 0.755859 8.10072V55.4151C0.758178 57.4949 1.58598 59.4887 3.05734 60.9583C4.5287 62.4279 6.52317 63.2529 8.60244 63.2522H40.852C42.933 63.2522 44.9288 62.4252 46.4003 60.9533C47.8719 59.4814 48.6986 57.485 48.6986 55.4034V14.6137H41.4935Z" fill="#FFF3E1"/>
<path d="M48.6991 14.6137H41.494C39.8995 14.6121 38.3708 13.9781 37.2431 12.8506C36.1154 11.7232 35.4808 10.1943 35.4785 8.59948V0.251953L48.6991 14.6137Z" fill="#FF9908"/>
<path d="M54.391 50.0103H17.9309C15.3446 50.0103 13.248 52.1075 13.248 54.6945V65.5678C13.248 68.1548 15.3446 70.252 17.9309 70.252H54.391C56.9773 70.252 59.0739 68.1548 59.0739 65.5678V54.6945C59.0739 52.1075 56.9773 50.0103 54.391 50.0103Z" fill="#FF9908"/>
<path d="M26.3304 62.4854V64.6058H24.1348V62.4854H26.3304Z" fill="white"/>
<path d="M32.8755 63.0069H29.5865L29.0412 64.6052H26.8105L30.018 55.8989H32.4527L35.6602 64.6052H33.4033L32.8755 63.0069ZM32.3274 61.394L31.2368 58.1681L30.1346 61.394H32.3274Z" fill="white"/>
<path d="M38.1358 55.835L40.2819 62.4354L42.4279 55.835H44.7023L41.6523 64.6054H38.9114L35.873 55.835H38.1358Z" fill="white"/>
<path d="M47.6355 55.835V64.6054H45.5156V55.835H47.6355Z" fill="white"/>
<path d="M24.6805 43.953C21.4994 43.9491 18.4497 42.6834 16.2003 40.4334C13.9509 38.1834 12.6855 35.1328 12.6816 31.9508C12.6855 28.7689 13.9509 25.7183 16.2003 23.4683C18.4497 21.2183 21.4994 19.9526 24.6805 19.9487C27.8615 19.9526 30.9113 21.2183 33.1606 23.4683C35.41 25.7183 36.6754 28.7689 36.6793 31.9508C36.6754 35.1328 35.41 38.1834 33.1606 40.4334C30.9113 42.6834 27.8615 43.9491 24.6805 43.953ZM24.6805 22.0516C22.0572 22.0563 19.5426 23.1007 17.6877 24.9562C15.8328 26.8116 14.7886 29.3268 14.784 31.9508C14.784 34.5779 15.8261 37.0976 17.6815 38.9568C19.537 40.8161 22.0541 41.8629 24.6805 41.8675C27.3068 41.8629 29.8239 40.8161 31.6794 38.9568C33.5348 37.0976 34.5769 34.5779 34.5769 31.9508C34.5723 29.3268 33.5281 26.8116 31.6732 24.9562C29.8183 23.1007 27.3037 22.0563 24.6805 22.0516Z" fill="#FF9908"/>
<path d="M28.1226 31.128L25.3321 29.518C25.1876 29.4346 25.0238 29.3907 24.857 29.3906C24.6903 29.3906 24.5264 29.4344 24.3819 29.5178C24.2375 29.6011 24.1174 29.721 24.0339 29.8654C23.9504 30.0098 23.9064 30.1737 23.9062 30.3405V33.5634C23.9064 33.7303 23.9504 33.8941 24.0339 34.0385C24.1174 34.1829 24.2375 34.3028 24.3819 34.3862C24.5264 34.4695 24.6903 34.5134 24.857 34.5133C25.0238 34.5133 25.1876 34.4694 25.3321 34.3859L28.1226 32.773C28.2666 32.6894 28.3862 32.5695 28.4693 32.4251C28.5525 32.2808 28.5962 32.1171 28.5962 31.9505C28.5962 31.7839 28.5525 31.6203 28.4693 31.4759C28.3862 31.3316 28.2666 31.2116 28.1226 31.128Z" fill="#FF9908"/>
<path d="M22.4743 29.2671H21.4538C21.0737 29.2671 20.7656 29.5753 20.7656 29.9554V33.9484C20.7656 34.3285 21.0737 34.6367 21.4538 34.6367H22.4743C22.8544 34.6367 23.1625 34.3285 23.1625 33.9484V29.9554C23.1625 29.5753 22.8544 29.2671 22.4743 29.2671Z" fill="#FF9908"/>
</svg>
