<svg width="59" height="71" viewBox="0 0 59 71" fill="none" xmlns="http://www.w3.org/2000/svg">
<path d="M40.933 15.184C39.3383 15.1832 37.8091 14.5494 36.6812 13.4218C35.5534 12.2942 34.919 10.7649 34.9175 9.16979V0.822266H8.05361C7.02293 0.822266 6.00236 1.02536 5.05018 1.41998C4.098 1.81461 3.23287 2.393 2.5042 3.12214C1.77554 3.85127 1.1976 4.71687 0.803447 5.66946C0.409289 6.62205 0.206649 7.64301 0.207032 8.67397V55.9854C0.206649 57.0163 0.409289 58.0373 0.803447 58.9898C1.1976 59.9424 1.77554 60.808 2.5042 61.5372C3.23287 62.2663 4.098 62.8447 5.05018 63.2393C6.00236 63.6339 7.02293 63.8371 8.05361 63.8371H40.3032C41.3338 63.8371 42.3544 63.6339 43.3066 63.2393C44.2588 62.8447 45.1239 62.2663 45.8526 61.5372C46.5812 60.808 47.1591 59.9424 47.5532 58.9898C47.9474 58.0373 48.1501 57.0163 48.1497 55.9854V15.1869L40.933 15.184Z" fill="#F4E8FF"/>
<path d="M48.1502 15.184H40.9334C39.3388 15.1832 37.8096 14.5494 36.6817 13.4218C35.5539 12.2942 34.9195 10.7649 34.918 9.16979V0.822266L48.1502 15.184Z" fill="#A140FF"/>
<path d="M53.8422 50.5806H17.3821C14.7958 50.5806 12.6992 52.6778 12.6992 55.2648V66.1381C12.6992 68.7251 14.7958 70.8223 17.3821 70.8223H53.8422C56.4285 70.8223 58.5251 68.7251 58.5251 66.1381V55.2648C58.5251 52.6778 56.4285 50.5806 53.8422 50.5806Z" fill="#A140FF"/>
<path d="M23.1253 63.0557V65.179H20.9297V63.0557H23.1253Z" fill="white"/>
<path d="M30.7484 61.4312C31.0559 61.8145 31.2198 62.2931 31.212 62.7845C31.2272 63.1138 31.1677 63.4423 31.038 63.7454C30.9082 64.0485 30.7115 64.3182 30.4627 64.5345C29.9612 64.9545 29.2438 65.1674 28.3107 65.1674H24.2285V56.397H28.2086C29.1009 56.397 29.791 56.5914 30.2789 56.9803C30.5229 57.1805 30.7162 57.4353 30.8434 57.7241C30.9705 58.0129 31.0279 58.3277 31.0108 58.6428C31.0292 59.1187 30.8807 59.5861 30.591 59.9641C30.3134 60.3146 29.9228 60.5579 29.4858 60.6524C29.9835 60.7596 30.4292 61.0346 30.7484 61.4312ZM26.3513 59.9932H27.7392C28.476 59.9932 28.8444 59.6782 28.8444 59.0482C28.8444 58.4182 28.4682 58.1042 27.7159 58.1061H26.3513V59.9932ZM29.0426 62.487C29.0494 62.3487 29.0252 62.2106 28.9717 62.083C28.9182 61.9553 28.8368 61.8412 28.7335 61.7491C28.4836 61.5575 28.1731 61.4623 27.8588 61.4807H26.3571V63.4524H27.8704C28.6519 63.4524 29.0426 63.1306 29.0426 62.487Z" fill="white"/>
<path d="M42.1867 56.4692V65.1784H40.0668V59.7388L38.1832 65.1872H36.3462L34.4479 59.7271V65.1872H32.3223V56.478H34.9144L37.2822 62.5447L39.6149 56.478L42.1867 56.4692Z" fill="white"/>
<path d="M45.7731 62.1016V65.1787H43.6504V56.4082H47.0852C48.1291 56.4082 48.9232 56.6658 49.4675 57.1811C49.7434 57.4525 49.9589 57.779 50.1001 58.1394C50.2413 58.4997 50.3049 58.8858 50.2869 59.2724C50.2961 59.7825 50.1693 60.2859 49.9195 60.7307C49.6672 61.1668 49.289 61.5165 48.8347 61.7341C48.2892 61.9943 47.6893 62.1203 47.0852 62.1016H45.7731ZM48.1291 59.2724C48.1291 58.4946 47.7034 58.1057 46.852 58.1057H45.7731V60.3895H46.852C47.7034 60.3973 48.1291 60.0249 48.1291 59.2724Z" fill="white"/>
<path d="M30.6186 43.5251H17.7421C16.4813 43.5236 15.2725 43.0219 14.381 42.1301C13.4894 41.2383 12.9879 40.0292 12.9863 38.768V25.885C12.9879 24.6239 13.4894 23.4148 14.381 22.523C15.2725 21.6312 16.4813 21.1295 17.7421 21.1279H30.6215C31.8821 21.1295 33.0906 21.6313 33.9817 22.5231C34.8727 23.415 35.3736 24.6241 35.3744 25.885V38.768C35.3736 40.0294 34.8723 41.239 33.9806 42.1309C33.0889 43.0229 31.8797 43.5243 30.6186 43.5251ZM17.7421 23.2308C17.0386 23.2316 16.3642 23.5115 15.8667 24.0091C15.3693 24.5067 15.0894 25.1814 15.0887 25.885V38.768C15.0894 39.4717 15.3693 40.1463 15.8667 40.6439C16.3642 41.1415 17.0386 41.4214 17.7421 41.4221H30.6215C31.3245 41.4206 31.9982 41.1404 32.495 40.6429C32.9919 40.1454 33.2713 39.4712 33.2721 38.768V25.885C33.2713 25.1819 32.9919 24.5076 32.495 24.0101C31.9982 23.5126 31.3245 23.2324 30.6215 23.2308H17.7421Z" fill="#A140FF"/>
<path d="M34.3228 36.3183V38.7683C34.3221 39.7504 33.9317 40.6922 33.2374 41.3867C32.543 42.0812 31.6015 42.4717 30.6196 42.4725H17.7432C16.7608 42.4725 15.8185 42.0823 15.1236 41.3877C14.4286 40.6931 14.0379 39.7509 14.0371 38.7683V34.6558C16.1015 34.2124 19.2419 34.0724 23.053 35.5949L25.4148 33.3433L27.0244 37.4266C27.0244 37.4266 27.456 35.9245 28.8497 36.1374C30.2435 36.3503 32.5004 37.1058 33.4655 36.4612C33.7247 36.3118 34.0292 36.2611 34.3228 36.3183Z" fill="#A140FF"/>
<path d="M29.8106 28.5165C30.6013 28.5165 31.2423 27.8754 31.2423 27.0844C31.2423 26.2935 30.6013 25.6523 29.8106 25.6523C29.0199 25.6523 28.3789 26.2935 28.3789 27.0844C28.3789 27.8754 29.0199 28.5165 29.8106 28.5165Z" fill="#A140FF"/>
</svg>
