<svg width="59" height="71" viewBox="0 0 59 71" fill="none" xmlns="http://www.w3.org/2000/svg">
<path d="M41.1224 15.184C39.5283 15.1824 37.9999 14.5483 36.8726 13.4208C35.7454 12.2932 35.1115 10.7644 35.1099 9.16979V0.822266H8.24308C7.21241 0.822266 6.19184 1.02536 5.23965 1.41998C4.28747 1.81461 3.42234 2.393 2.69368 3.12214C1.96501 3.85127 1.38709 4.71687 0.992935 5.66946C0.598778 6.62205 0.396102 7.64301 0.396485 8.67397V55.9854C0.399575 58.065 1.22763 60.0583 2.69882 61.5278C4.17001 62.9972 6.16405 63.8225 8.24308 63.8225H40.4955C42.5751 63.8225 44.5696 62.9968 46.0408 61.5267C47.5121 60.0567 48.3398 58.0625 48.3421 55.9824V15.184H41.1224Z" fill="#E0F8EA"/>
<path d="M48.3435 15.184H41.1238C39.5297 15.1824 38.0013 14.5483 36.8741 13.4208C35.7468 12.2932 35.1129 10.7644 35.1113 9.16979V0.822266L48.3435 15.184Z" fill="#3CBA32"/>
<path d="M54.0316 50.5806H17.5716C14.9853 50.5806 12.8887 52.6778 12.8887 55.2648V66.1381C12.8887 68.7251 14.9853 70.8223 17.5716 70.8223H54.0316C56.6179 70.8223 58.7145 68.7251 58.7145 66.1381V55.2648C58.7145 52.6778 56.6179 50.5806 54.0316 50.5806Z" fill="#3CBA32"/>
<path d="M23.4554 63.0557V65.179H21.2598V63.0557H23.4554Z" fill="white"/>
<path d="M31.3369 57.2016C32.0768 57.802 32.58 58.6452 32.757 59.5816H30.5117C30.3604 59.1931 30.0938 58.8603 29.7478 58.6279C29.3819 58.3885 28.9513 58.2674 28.5144 58.2808C28.2289 58.2716 27.9452 58.3284 27.6852 58.4468C27.4253 58.5652 27.1961 58.7419 27.0156 58.9633C26.6084 59.481 26.4013 60.1282 26.4324 60.7862C26.4004 61.4426 26.6076 62.0882 27.0156 62.6033C27.1969 62.8234 27.4263 62.9989 27.6862 63.1163C27.946 63.2336 28.2294 63.2896 28.5144 63.28C28.9474 63.291 29.3735 63.1699 29.7361 62.9329C30.0787 62.7018 30.3447 62.3738 30.5001 61.9908H32.7453C32.5647 62.9242 32.0621 63.7644 31.3253 64.365C30.5319 64.9725 29.5505 65.2821 28.5523 65.24C27.7669 65.2574 26.9913 65.063 26.307 64.6771C25.6663 64.3053 25.1476 63.7549 24.8141 63.0933C24.4498 62.3705 24.2685 61.5692 24.2864 60.76C24.2709 59.9556 24.4521 59.1596 24.8141 58.4412C25.1476 57.7796 25.6663 57.2293 26.307 56.8574C26.9913 56.4715 27.7669 56.2771 28.5523 56.2945C29.5582 56.26 30.5442 56.5812 31.3369 57.2016Z" fill="white"/>
<path d="M38.4494 65.1792L36.5511 61.8659H36.0671V65.1792H33.9473V56.4087H37.5688C38.1718 56.3919 38.7705 56.5147 39.3183 56.7675C39.7686 56.9805 40.1445 57.324 40.3972 57.7533C40.6413 58.1905 40.7651 58.6847 40.7558 59.1854C40.7725 59.7721 40.5872 60.3466 40.231 60.813C39.8389 61.284 39.2978 61.607 38.6972 61.7288L40.7821 65.1792H38.4494ZM36.0671 60.4134H37.3822C37.7179 60.4371 38.0502 60.3329 38.3123 60.1217C38.4159 60.0121 38.4953 59.8821 38.5455 59.7399C38.5958 59.5977 38.6156 59.4466 38.6039 59.2963C38.6141 59.1469 38.5935 58.9971 38.5433 58.8561C38.4932 58.7151 38.4145 58.586 38.3123 58.4767C38.0548 58.2612 37.7225 58.1563 37.388 58.185H36.0671V60.4134Z" fill="white"/>
<path d="M49.1703 63.0609C48.8061 63.7248 48.2544 64.2665 47.5841 64.6184C46.8312 65.0062 45.993 65.1988 45.1464 65.1785H41.834V56.408H45.1348C45.9817 56.386 46.821 56.5733 47.5783 56.9534C48.2451 57.2986 48.795 57.8334 49.1586 58.4905C49.5358 59.1916 49.7256 59.9783 49.7098 60.7743C49.7288 61.5701 49.543 62.3575 49.1703 63.0609ZM46.8872 62.6205C47.1249 62.3782 47.309 62.0887 47.4275 61.7706C47.5461 61.4525 47.5964 61.1131 47.5753 60.7743C47.5963 60.4351 47.5459 60.0952 47.4274 59.7767C47.3089 59.4581 47.1248 59.168 46.8872 58.9251C46.3561 58.4612 45.6636 58.2254 44.9598 58.2688H43.9684V63.2797H44.9744C45.6727 63.3186 46.3585 63.0819 46.8843 62.6205H46.8872Z" fill="white"/>
<path d="M24.2927 18.9058C24.2927 18.9058 31.1391 20.3641 24.7971 41.7988H23.9223C23.9223 41.7988 17.8282 22.0558 24.2927 18.9058Z" fill="#3CBA32"/>
<path d="M25.8045 19.1162C25.8045 19.1162 35.3802 22.73 25.3438 41.6738C25.3438 41.6738 40.5034 23.1908 25.8045 19.1162Z" fill="#3CBA32"/>
<path d="M29.7941 20.4194C29.7941 20.4194 38.9907 24.9957 26.5195 40.9587C26.5195 40.9587 40.8394 25.544 29.7941 20.4194Z" fill="#3CBA32"/>
<path d="M22.9331 19.1162C22.9331 19.1162 13.3574 22.73 23.3938 41.6738C23.3938 41.6738 8.23418 23.1908 22.9331 19.1162Z" fill="#3CBA32"/>
<path d="M18.9452 20.4194C18.9452 20.4194 9.74853 24.9957 22.2197 40.9587C22.2197 40.9587 7.89987 25.544 18.9452 20.4194Z" fill="#3CBA32"/>
<path d="M25.6547 45.7473H23.1879L22.4473 43.3936H26.3953L25.6547 45.7473Z" fill="#3CBA32"/>
</svg>
