<svg width="60" height="71" viewBox="0 0 60 71" fill="none" xmlns="http://www.w3.org/2000/svg">
<path d="M41.6693 15.3268C40.0752 15.3253 38.5469 14.6911 37.4197 13.5637C36.2925 12.4362 35.6586 10.9074 35.6571 9.31289V0.962891H8.79154C6.71059 0.962891 4.71487 1.7898 3.24342 3.26166C1.77197 4.73351 0.945313 6.72974 0.945312 8.81126V56.1233C0.948403 58.2028 1.77642 60.1961 3.24754 61.6654C4.71866 63.1347 6.71261 63.96 8.79154 63.96H41.0395C42.0701 63.9604 43.0907 63.7577 44.043 63.3635C44.9953 62.9692 45.8606 62.3912 46.5895 61.6623C47.3184 60.9335 47.8966 60.0682 48.2911 59.1158C48.6856 58.1634 48.8886 57.1426 48.8886 56.1117V15.3151L41.6693 15.3268Z" fill="#E0F8EA"/>
<path d="M48.8898 15.3268H41.6704C40.0764 15.3253 38.548 14.6911 37.4209 13.5637C36.2937 12.4362 35.6597 10.9074 35.6582 9.31289V0.962891L48.8898 15.3268Z" fill="#00C650"/>
<path d="M54.5765 50.7222H18.1182C15.532 50.7222 13.4355 52.8192 13.4355 55.4061V66.279C13.4355 68.8658 15.532 70.9629 18.1182 70.9629H54.5765C57.1626 70.9629 59.2591 68.8658 59.2591 66.279V55.4061C59.2591 52.8192 57.1626 50.7222 54.5765 50.7222Z" fill="#00C650"/>
<path d="M24.4143 63.1196V65.2341H22.2305V63.1196H24.4143Z" fill="white"/>
<path d="M32.2613 57.2934C32.9992 57.8907 33.5005 58.7313 33.6754 59.6646H31.442C31.293 59.2773 31.0296 58.9446 30.6868 58.7108C30.3262 58.4743 29.9021 58.3532 29.4709 58.3638C29.1867 58.3552 28.9043 58.4119 28.6455 58.5298C28.3866 58.6476 28.1583 58.8233 27.9781 59.0433C27.5774 59.5614 27.3757 60.2062 27.4095 60.8604C27.3755 61.5119 27.5773 62.1539 27.9781 62.6686C28.159 62.8874 28.3876 63.0619 28.6464 63.1786C28.9052 63.2954 29.1872 63.3513 29.4709 63.3423C29.9021 63.3528 30.3262 63.2318 30.6868 62.9952C31.0294 62.7662 31.2947 62.4388 31.4478 62.0561H33.6812C33.5026 62.9863 33.0019 63.8239 32.2671 64.4214C31.4787 65.0276 30.5024 65.3373 29.5088 65.2964C28.7263 65.3136 27.9537 65.119 27.2725 64.7335C26.6342 64.3643 26.1175 63.817 25.7855 63.1586C25.4261 62.4435 25.246 61.6518 25.2606 60.8516C25.2456 60.0504 25.4257 59.2576 25.7855 58.5417C26.1175 57.8832 26.6342 57.3359 27.2725 56.9668C27.9537 56.5812 28.7263 56.3867 29.5088 56.4039C30.502 56.3697 31.4758 56.6844 32.2613 57.2934Z" fill="white"/>
<path d="M40.7833 64.0472C40.532 64.4483 40.1721 64.7699 39.7453 64.9746C39.2259 65.2178 38.6566 65.3357 38.0833 65.3187C37.22 65.3537 36.3693 65.1025 35.6633 64.6042C35.3515 64.3698 35.0964 64.0683 34.9167 63.722C34.737 63.3757 34.6375 62.9934 34.6253 62.6035H36.8733C36.8889 62.8973 37.0149 63.1744 37.2261 63.3793C37.435 63.5749 37.7128 63.6797 37.9988 63.6709C38.2332 63.6829 38.4632 63.6034 38.6403 63.4493C38.7171 63.3732 38.7774 63.2822 38.8176 63.1819C38.8577 63.0815 38.8767 62.974 38.8735 62.8659C38.8762 62.7639 38.8585 62.6623 38.8215 62.5671C38.7844 62.4719 38.7288 62.3852 38.6577 62.3118C38.5046 62.1562 38.3223 62.0324 38.1213 61.9473C37.9055 61.851 37.611 61.7372 37.232 61.606C36.7692 61.4537 36.3172 61.2706 35.8791 61.0577C35.519 60.8714 35.2097 60.6002 34.9781 60.2673C34.7117 59.8635 34.58 59.3857 34.602 58.9023C34.5901 58.4232 34.7276 57.9523 34.9956 57.5549C35.2711 57.1668 35.6499 56.8637 36.089 56.68C36.597 56.4743 37.1418 56.3751 37.6897 56.3883C38.5181 56.3445 39.336 56.5886 40.0048 57.0795C40.2903 57.311 40.524 57.5999 40.6907 57.9275C40.8575 58.2551 40.9536 58.614 40.9728 58.9811H38.6898C38.6617 58.7246 38.5512 58.4841 38.3749 58.2958C38.2837 58.2094 38.176 58.1423 38.0583 58.0987C37.9405 58.0551 37.8151 58.0358 37.6897 58.042C37.4718 58.0308 37.2576 58.1016 37.0891 58.2403C37.0102 58.3145 36.9489 58.4054 36.9096 58.5063C36.8703 58.6072 36.8539 58.7156 36.8617 58.8236C36.8592 58.9203 36.8759 59.0165 36.911 59.1066C36.946 59.1968 36.9986 59.279 37.0658 59.3486C37.2103 59.5008 37.3851 59.621 37.5789 59.7015C37.783 59.7919 38.0804 59.9086 38.4537 60.0486C38.9249 60.2002 39.384 60.3874 39.827 60.6085C40.1902 60.8039 40.5027 61.0816 40.7396 61.4194C41.01 61.8281 41.1437 62.3122 41.1215 62.8018C41.1237 63.2399 41.0068 63.6704 40.7833 64.0472Z" fill="white"/>
<path d="M43.9355 56.5024L46.0727 63.0734L48.2099 56.5024H50.4696L47.4314 65.2346H44.7023L41.6758 56.5024H43.9355Z" fill="white"/>
<path d="M35.6101 44.9443H14.2232C12.3717 44.9443 10.8672 43.101 10.8672 40.8319V25.3189C10.8672 23.0527 12.3717 21.2095 14.2232 21.2095H35.6101C37.4616 21.2095 38.9661 23.0527 38.9661 25.3189V40.8319C38.9661 43.101 37.4616 44.9443 35.6101 44.9443ZM14.2232 23.3094C13.3193 23.3094 12.5816 24.2106 12.5816 25.3189V40.8319C12.5816 41.9402 13.3193 42.8415 14.2232 42.8415H35.6101C36.5139 42.8415 37.2487 41.9402 37.2487 40.8319V25.3189C37.2487 24.2106 36.5139 23.3094 35.6101 23.3094H14.2232Z" fill="#00C650"/>
<path d="M38.109 35.6021H11.7246V37.7049H38.109V35.6021Z" fill="#00C650"/>
<path d="M38.109 28.3931H11.7246V30.4959H38.109V28.3931Z" fill="#00C650"/>
<path d="M31.3542 22.2593H29.252V43.8912H31.3542V22.2593Z" fill="#00C650"/>
<path d="M20.5827 22.2593H18.4805V43.8912H20.5827V22.2593Z" fill="#00C650"/>
</svg>
