<svg width="59" height="71" viewBox="0 0 59 71" fill="none" xmlns="http://www.w3.org/2000/svg">
<path d="M40.931 14.7565C39.3361 14.755 37.8071 14.1206 36.6793 12.9925C35.5516 11.8645 34.9173 10.335 34.9158 8.7397V0.392578H8.05323C5.97228 0.392578 3.97654 1.21945 2.50509 2.69131C1.03364 4.16317 0.207031 6.15946 0.207031 8.24098V55.553C0.207031 57.6345 1.03364 59.6308 2.50509 61.1026C3.97654 62.5745 5.97228 63.4014 8.05323 63.4014H40.3012C42.3822 63.4014 44.3778 62.5745 45.8493 61.1026C47.3207 59.6308 48.1474 57.6345 48.1474 55.553V14.7565H40.931Z" fill="#F4E8FF"/>
<path d="M48.1476 14.7565H40.9312C39.3364 14.755 37.8073 14.1206 36.6795 12.9925C35.5518 11.8645 34.9176 10.335 34.916 8.7397V0.392578L48.1476 14.7565Z" fill="#A140FF"/>
<path d="M53.8382 50.1519H17.3799C14.7938 50.1519 12.6973 52.2489 12.6973 54.8358V65.7087C12.6973 68.2955 14.7938 70.3926 17.3799 70.3926H53.8382C56.4244 70.3926 58.5209 68.2955 58.5209 65.7087V54.8358C58.5209 52.2489 56.4244 50.1519 53.8382 50.1519Z" fill="#A140FF"/>
<path d="M26.1975 62.6255V64.7458H24.002V62.6255H26.1975Z" fill="white"/>
<path d="M34.6543 62.631C34.29 63.294 33.7383 63.8347 33.0681 64.1855C32.3154 64.5736 31.4771 64.7662 30.6305 64.7455H27.3066V55.9754H30.6159C31.4629 55.953 32.3023 56.1404 33.0594 56.5208C33.7256 56.8668 34.2752 57.4014 34.6397 58.0578C35.0177 58.7587 35.2085 59.5453 35.1937 60.3415C35.2123 61.1382 35.0266 61.9264 34.6543 62.631ZM32.3741 62.1906C32.611 61.9471 32.7945 61.657 32.913 61.3386C33.0315 61.0202 33.0824 60.6806 33.0623 60.3415C33.0824 60.0024 33.0315 59.6628 32.913 59.3444C32.7945 59.026 32.611 58.7359 32.3741 58.4924C31.8418 58.0287 31.1485 57.7929 30.444 57.8362H29.441V62.8468H30.444C31.1436 62.8862 31.8309 62.6507 32.3595 62.1906H32.3741Z" fill="white"/>
<path d="M38.5152 63.1211H41.3435V64.7456H36.3867V55.9756H38.5065L38.5152 63.1211Z" fill="white"/>
<path d="M44.441 63.1211H47.2692V64.7456H42.3125V55.9756H44.4322L44.441 63.1211Z" fill="white"/>
<path d="M20.1444 46.8819C19.8119 46.8819 19.493 46.7497 19.2579 46.5145C19.0227 46.2794 18.8906 45.9604 18.8906 45.6278V43.6999C18.8906 43.5354 18.9231 43.3724 18.9862 43.2204C19.0492 43.0685 19.1415 42.9304 19.258 42.8142C19.3745 42.698 19.5127 42.6059 19.6648 42.5432C19.8169 42.4804 19.9799 42.4484 20.1444 42.4487C20.4761 42.4487 20.7943 42.5806 21.0289 42.8152C21.2635 43.0499 21.3953 43.3681 21.3953 43.6999V45.6278C21.3953 45.9599 21.2636 46.2784 21.0291 46.5135C20.7946 46.7487 20.4764 46.8811 20.1444 46.8819Z" fill="#A140FF"/>
<path d="M20.1444 31.337C19.9799 31.3374 19.8169 31.3053 19.6648 31.2426C19.5127 31.1799 19.3745 31.0878 19.258 30.9716C19.1415 30.8554 19.0492 30.7173 18.9862 30.5653C18.9231 30.4133 18.8906 30.2504 18.8906 30.0858V27.843C18.8906 27.5104 19.0227 27.1914 19.2579 26.9562C19.493 26.721 19.8119 26.5889 20.1444 26.5889C20.4764 26.5896 20.7946 26.7221 21.0291 26.9572C21.2636 27.1924 21.3953 27.5109 21.3953 27.843V30.0858C21.3953 30.4177 21.2635 30.7359 21.0289 30.9705C20.7943 31.2052 20.4761 31.337 20.1444 31.337Z" fill="#A140FF"/>
<path d="M24.5907 45.6922C24.3704 45.6919 24.1541 45.6339 23.9633 45.5238C23.7725 45.4138 23.6138 45.2557 23.5031 45.0651L22.5701 43.4435C22.4041 43.1557 22.3591 42.8138 22.4449 42.4928C22.5307 42.1718 22.7404 41.898 23.0278 41.7315C23.3159 41.5657 23.6581 41.5212 23.979 41.6076C24.3 41.694 24.5735 41.9043 24.7394 42.1923L25.6753 43.811C25.8411 44.0992 25.8857 44.4414 25.7993 44.7624C25.7129 45.0834 25.5026 45.357 25.2146 45.523C25.0253 45.6336 24.81 45.692 24.5907 45.6922Z" fill="#A140FF"/>
<path d="M16.8493 32.2758C16.6289 32.2761 16.4124 32.2184 16.2215 32.1083C16.0305 31.9982 15.8719 31.8397 15.7618 31.6488L14.6159 29.6597C14.5334 29.5175 14.4798 29.3604 14.4581 29.1974C14.4365 29.0345 14.4472 28.8688 14.4898 28.71C14.5323 28.5512 14.6057 28.4024 14.7059 28.2721C14.8061 28.1417 14.9312 28.0325 15.0737 27.9506C15.2161 27.868 15.3733 27.8143 15.5365 27.7926C15.6996 27.771 15.8654 27.7817 16.0244 27.8242C16.1834 27.8668 16.3324 27.9403 16.463 28.0405C16.5935 28.1408 16.703 28.2659 16.7852 28.4085L17.931 30.3976C18.0136 30.54 18.0673 30.6973 18.089 30.8605C18.1107 31.0237 18.0999 31.1896 18.0574 31.3486C18.0149 31.5077 17.9414 31.6568 17.8412 31.7874C17.741 31.9179 17.6159 32.0274 17.4733 32.1096C17.2836 32.2189 17.0683 32.2763 16.8493 32.2758Z" fill="#A140FF"/>
<path d="M27.846 42.4346C27.6258 42.4341 27.4097 42.3757 27.2191 42.2654L25.598 41.3292C25.3107 41.1632 25.1011 40.89 25.0153 40.5695C24.9294 40.2489 24.9744 39.9075 25.1403 39.6201C25.3062 39.332 25.5797 39.1217 25.9007 39.0353C26.2216 38.9489 26.5637 38.9935 26.8518 39.1593L28.4729 40.0955C28.7604 40.262 28.97 40.5358 29.0559 40.8568C29.1417 41.1778 29.0967 41.5197 28.9307 41.8075C28.8212 41.9984 28.6632 42.1569 28.4727 42.267C28.2822 42.3771 28.066 42.4349 27.846 42.4346Z" fill="#A140FF"/>
<path d="M14.4294 34.6909C14.2102 34.6899 13.9951 34.6316 13.8055 34.5218L11.8169 33.3756C11.5294 33.2091 11.3198 32.9353 11.234 32.6143C11.1481 32.2933 11.1932 31.9514 11.3592 31.6635C11.5251 31.3755 11.7986 31.1652 12.1196 31.0787C12.4405 30.9923 12.7826 31.037 13.0707 31.2027L15.0592 32.3518C15.3467 32.5183 15.5563 32.7921 15.6422 33.1131C15.728 33.4341 15.683 33.776 15.517 34.0638C15.4068 34.2548 15.2482 34.4132 15.0573 34.5233C14.8664 34.6334 14.6498 34.6912 14.4294 34.6909Z" fill="#A140FF"/>
<path d="M29.0355 37.9902H27.1053C26.7731 37.9894 26.4545 37.857 26.2196 37.622C25.9846 37.387 25.8523 37.0684 25.8516 36.7361C25.8523 36.404 25.9848 36.0857 26.2198 35.8512C26.4548 35.6166 26.7733 35.4849 27.1053 35.4849H29.0355C29.3675 35.4849 29.686 35.6166 29.9211 35.8512C30.1561 36.0857 30.2885 36.404 30.2893 36.7361C30.2885 37.0684 30.1562 37.387 29.9212 37.622C29.6862 37.857 29.3678 37.9894 29.0355 37.9902Z" fill="#A140FF"/>
<path d="M13.495 37.9902H11.2557C10.9234 37.9894 10.605 37.857 10.37 37.622C10.1351 37.387 10.0027 37.0684 10.002 36.7361C10.0027 36.404 10.1351 36.0857 10.3702 35.8512C10.6052 35.6166 10.9237 35.4849 11.2557 35.4849H13.495C13.8267 35.4849 14.1449 35.6167 14.3795 35.8514C14.614 36.086 14.7458 36.4042 14.7458 36.7361C14.7458 37.0682 14.6142 37.3867 14.3797 37.6218C14.1452 37.8569 13.827 37.9894 13.495 37.9902Z" fill="#A140FF"/>
<path d="M26.0865 34.5568C25.8661 34.5571 25.6495 34.4993 25.4585 34.3892C25.2676 34.2791 25.109 34.1206 24.9988 33.9297C24.9168 33.7872 24.8637 33.63 24.8425 33.467C24.8213 33.304 24.8324 33.1384 24.8752 32.9797C24.918 32.8209 24.9916 32.6722 25.0919 32.542C25.1921 32.4117 25.317 32.3025 25.4595 32.2206L27.209 31.2027C27.4971 31.037 27.8392 30.9923 28.1601 31.0787C28.4811 31.1652 28.7546 31.3755 28.9205 31.6635C29.0865 31.9514 29.1315 32.2933 29.0457 32.6143C28.9599 32.9353 28.7502 33.2091 28.4627 33.3756L26.7133 34.3905C26.5229 34.5007 26.3065 34.5581 26.0865 34.5568Z" fill="#A140FF"/>
<path d="M12.4438 42.4346C12.2239 42.4344 12.0079 42.3763 11.8175 42.2663C11.6272 42.1562 11.4691 41.998 11.3592 41.8075C11.1932 41.5197 11.1481 41.1778 11.234 40.8568C11.3198 40.5358 11.5294 40.262 11.8169 40.0955L13.6713 39.0251C13.9593 38.8599 14.3008 38.8153 14.6215 38.9011C14.9422 38.9869 15.2158 39.1961 15.3828 39.483C15.5488 39.7709 15.5939 40.1128 15.5081 40.4338C15.4222 40.7548 15.2126 41.0286 14.9251 41.1951L13.0707 42.2654C12.8801 42.3757 12.664 42.4341 12.4438 42.4346Z" fill="#A140FF"/>
<path d="M20.2983 44.9542H20.0971C18.6641 44.9231 17.2659 44.506 16.0501 43.7467C14.8481 43.0013 13.8628 41.9534 13.1926 40.7077C12.5662 39.5347 12.2379 38.2256 12.2363 36.8958C12.2363 36.8258 12.2363 36.7616 12.2363 36.6945C12.2708 35.324 12.6541 33.9849 13.3501 32.8039C14.0451 31.6244 15.0284 30.6409 16.2075 29.9457C17.3932 29.249 18.7369 28.8665 20.1116 28.8345H20.2954C21.6265 28.8328 22.9372 29.1626 24.1092 29.794C25.3535 30.4621 26.4003 31.4457 27.1444 32.6464C27.9051 33.8683 28.3221 35.2729 28.3515 36.712C28.3515 36.7616 28.3515 36.8258 28.3515 36.8958C28.3518 38.2881 27.9912 39.6568 27.3048 40.8681C26.5873 42.1394 25.5368 43.1911 24.2666 43.91C23.0561 44.595 21.689 44.9547 20.2983 44.9542ZM20.2662 31.3369H20.1875C19.236 31.3561 18.3054 31.6192 17.4846 32.101C16.6705 32.5805 15.9913 33.2589 15.5107 34.0726C15.0298 34.8898 14.7658 35.8165 14.7438 36.7645C14.7438 36.817 14.7438 36.8549 14.7438 36.8929C14.7441 37.8084 14.9694 38.7098 15.3999 39.5177C15.8624 40.3787 16.5431 41.1029 17.3738 41.6176C18.2149 42.1396 19.1805 42.4266 20.17 42.4488H20.2983C21.2579 42.45 22.2013 42.2017 23.0361 41.7285C23.9128 41.2322 24.6376 40.5062 25.1326 39.6286C25.6052 38.7944 25.8534 37.8517 25.8528 36.8929V36.782C25.8312 35.7857 25.5443 34.8131 25.0218 33.9647C24.5065 33.1368 23.7838 32.4581 22.9254 31.996C22.1066 31.561 21.1933 31.3346 20.2662 31.3369Z" fill="#A140FF"/>
<path d="M23.5162 32.1446C23.2972 32.145 23.0819 32.0877 22.8922 31.9784C22.7496 31.8962 22.6245 31.7867 22.5243 31.6561C22.4241 31.5255 22.3507 31.3764 22.3081 31.2174C22.2656 31.0584 22.2548 30.8925 22.2765 30.7293C22.2982 30.5661 22.3519 30.4088 22.4345 30.2664L23.5045 28.4085C23.5867 28.2659 23.6962 28.1408 23.8267 28.0405C23.9573 27.9403 24.1063 27.8668 24.2653 27.8242C24.4243 27.7817 24.5901 27.771 24.7532 27.7926C24.9164 27.8143 25.0736 27.868 25.216 27.9506C25.3585 28.0325 25.4835 28.1417 25.5838 28.272C25.684 28.4022 25.7577 28.551 25.8004 28.7097C25.8432 28.8684 25.8543 29.034 25.8331 29.197C25.8119 29.36 25.7587 29.5172 25.6767 29.6597L24.6038 31.5175C24.4936 31.7084 24.335 31.8669 24.1441 31.977C23.9531 32.0871 23.7366 32.1449 23.5162 32.1446Z" fill="#A140FF"/>
<path d="M15.7017 45.6919C15.4825 45.6918 15.2672 45.6334 15.0778 45.5228C14.9352 45.4406 14.8102 45.3311 14.7099 45.2006C14.6097 45.07 14.5362 44.9209 14.4937 44.7618C14.4511 44.6028 14.4404 44.4369 14.4621 44.2737C14.4837 44.1105 14.5374 43.9532 14.62 43.8108L15.6318 42.0609C15.7139 41.9182 15.8234 41.7932 15.954 41.6929C16.0845 41.5926 16.2335 41.5191 16.3925 41.4766C16.5515 41.434 16.7173 41.4233 16.8805 41.445C17.0436 41.4667 17.2009 41.5204 17.3433 41.603C17.6307 41.7695 17.8404 42.0433 17.9263 42.3642C18.0121 42.6852 17.967 43.0272 17.8011 43.315L16.7893 45.0649C16.6791 45.2558 16.5206 45.4143 16.3297 45.5244C16.1387 45.6345 15.9221 45.6923 15.7017 45.6919Z" fill="#A140FF"/>
<path d="M31.6897 29.7506C31.4871 29.7506 31.2928 29.67 31.1495 29.5267C31.0063 29.3834 30.9258 29.1891 30.9258 28.9864V27.8198C30.9258 27.7196 30.9456 27.6204 30.984 27.5278C31.0224 27.4353 31.0788 27.3512 31.1497 27.2805C31.2207 27.2098 31.3049 27.1538 31.3976 27.1157C31.4903 27.0776 31.5896 27.0582 31.6897 27.0586C31.8916 27.0586 32.0851 27.1388 32.2278 27.2815C32.3705 27.4243 32.4507 27.6179 32.4507 27.8198V28.9864C32.4511 29.0866 32.4317 29.1859 32.3936 29.2786C32.3555 29.3713 32.2996 29.4556 32.2289 29.5265C32.1582 29.5975 32.0741 29.6539 31.9816 29.6923C31.8891 29.7307 31.7899 29.7506 31.6897 29.7506Z" fill="#A140FF"/>
<path d="M31.6897 20.2917C31.5896 20.292 31.4903 20.2726 31.3976 20.2346C31.3049 20.1965 31.2207 20.1405 31.1497 20.0698C31.0788 19.999 31.0224 19.915 30.984 19.8224C30.9456 19.7299 30.9258 19.6307 30.9258 19.5305V18.1655C30.9258 17.9628 31.0063 17.7685 31.1495 17.6252C31.2928 17.4819 31.4871 17.4014 31.6897 17.4014C31.7899 17.4014 31.8891 17.4212 31.9816 17.4596C32.0741 17.498 32.1582 17.5544 32.2289 17.6254C32.2996 17.6964 32.3555 17.7806 32.3936 17.8733C32.4317 17.966 32.4511 18.0653 32.4507 18.1655V19.5305C32.4507 19.7323 32.3705 19.926 32.2278 20.0687C32.0851 20.2115 31.8916 20.2917 31.6897 20.2917Z" fill="#A140FF"/>
<path d="M34.3973 29.0245C34.2635 29.0248 34.1318 28.99 34.0156 28.9234C33.8995 28.8569 33.8029 28.761 33.7355 28.6453L33.1668 27.6595C33.0672 27.4824 33.042 27.2729 33.0966 27.0771C33.1513 26.8813 33.2814 26.7153 33.4584 26.6154C33.5459 26.5661 33.6423 26.5346 33.7419 26.5226C33.8416 26.5106 33.9427 26.5183 34.0393 26.5454C34.136 26.5725 34.2264 26.6184 34.3053 26.6804C34.3842 26.7425 34.4502 26.8195 34.4993 26.9071L35.0825 27.8929C35.1317 27.9804 35.1633 28.0767 35.1753 28.1764C35.1873 28.2761 35.1795 28.3772 35.1525 28.4739C35.1254 28.5706 35.0795 28.661 35.0175 28.74C34.9555 28.8189 34.8784 28.8849 34.7909 28.9341C34.6704 28.9997 34.5343 29.0309 34.3973 29.0245Z" fill="#A140FF"/>
<path d="M29.6972 20.8638C29.5632 20.8636 29.4315 20.8282 29.3153 20.7612C29.1992 20.6941 29.1027 20.5978 29.0354 20.4818L28.3385 19.2714C28.2893 19.1839 28.2577 19.0876 28.2457 18.9879C28.2337 18.8882 28.2415 18.7871 28.2686 18.6904C28.2956 18.5937 28.3415 18.5033 28.4035 18.4243C28.4656 18.3454 28.5426 18.2794 28.6301 18.2302C28.7175 18.1806 28.8138 18.1487 28.9136 18.1365C29.0133 18.1243 29.1146 18.132 29.2113 18.1591C29.3081 18.1862 29.3985 18.2322 29.4774 18.2945C29.5563 18.3567 29.6221 18.4341 29.671 18.5219L30.3679 19.7323C30.4171 19.8198 30.4487 19.9161 30.4607 20.0158C30.4727 20.1155 30.4649 20.2166 30.4378 20.3133C30.4108 20.41 30.3649 20.5004 30.3029 20.5794C30.2408 20.6583 30.1638 20.7243 30.0763 20.7734C29.9597 20.8352 29.8292 20.8663 29.6972 20.8638Z" fill="#A140FF"/>
<path d="M36.3765 27.0434C36.2423 27.0441 36.1105 27.0088 35.9946 26.9413L35.009 26.358C34.9215 26.3089 34.8445 26.2429 34.7824 26.1639C34.7204 26.085 34.6745 25.9946 34.6475 25.8979C34.6204 25.8012 34.6126 25.7001 34.6246 25.6004C34.6366 25.5007 34.6682 25.4043 34.7174 25.3168C34.7663 25.229 34.8321 25.1517 34.911 25.0894C34.9899 25.0272 35.0804 24.9811 35.1772 24.954C35.2739 24.9269 35.3751 24.9192 35.4748 24.9314C35.5746 24.9436 35.671 24.9755 35.7584 25.0252L36.7439 25.6085C36.8317 25.6574 36.909 25.7232 36.9712 25.8021C37.0335 25.881 37.0795 25.9715 37.1066 26.0683C37.1337 26.1651 37.1414 26.2663 37.1292 26.3661C37.117 26.4659 37.0851 26.5623 37.0354 26.6497C36.9706 26.768 36.8753 26.8669 36.7594 26.9361C36.6436 27.0054 36.5114 27.0424 36.3765 27.0434Z" fill="#A140FF"/>
<path d="M28.2162 22.3306C28.0821 22.3312 27.9503 22.296 27.8343 22.2285L26.6243 21.5315C26.5367 21.4823 26.4597 21.4163 26.3977 21.3374C26.3356 21.2584 26.2898 21.168 26.2627 21.0713C26.2356 20.9746 26.2278 20.8735 26.2399 20.7738C26.2519 20.6741 26.2834 20.5778 26.3327 20.4903C26.4325 20.3132 26.5985 20.1831 26.7942 20.1284C26.99 20.0737 27.1994 20.099 27.3765 20.1986L28.5836 20.8957C28.7606 20.9955 28.8908 21.1616 28.9454 21.3574C29.0001 21.5531 28.9748 21.7626 28.8752 21.9398C28.8097 22.0574 28.7142 22.1555 28.5985 22.2242C28.4827 22.2928 28.3508 22.3295 28.2162 22.3306Z" fill="#A140FF"/>
<path d="M37.0991 24.3403H35.9328C35.8327 24.3403 35.7335 24.3205 35.641 24.2821C35.5485 24.2436 35.4645 24.1873 35.3938 24.1163C35.3231 24.0453 35.267 23.961 35.229 23.8683C35.1909 23.7757 35.1715 23.6764 35.1719 23.5762C35.1719 23.3743 35.252 23.1806 35.3948 23.0379C35.5375 22.8951 35.731 22.8149 35.9328 22.8149H37.0991C37.1993 22.8146 37.2986 22.834 37.3913 22.8721C37.4839 22.9101 37.5682 22.9661 37.6391 23.0369C37.7101 23.1076 37.7664 23.1916 37.8049 23.2842C37.8433 23.3767 37.8631 23.4759 37.8631 23.5762C37.8631 23.7788 37.7826 23.9732 37.6394 24.1165C37.4961 24.2598 37.3017 24.3403 37.0991 24.3403Z" fill="#A140FF"/>
<path d="M27.6568 24.3403H26.2923C26.1921 24.3403 26.0929 24.3205 26.0004 24.2821C25.9078 24.2436 25.8238 24.1873 25.7531 24.1163C25.6824 24.0453 25.6264 23.961 25.5883 23.8683C25.5503 23.7756 25.5309 23.6764 25.5313 23.5762C25.5313 23.4762 25.551 23.3772 25.5892 23.2849C25.6274 23.1925 25.6835 23.1086 25.7541 23.0379C25.8248 22.9672 25.9087 22.9112 26.0011 22.8729C26.0934 22.8346 26.1924 22.8149 26.2923 22.8149H27.6568C27.8587 22.8149 28.0522 22.8951 28.1949 23.0379C28.3376 23.1806 28.4179 23.3743 28.4179 23.5762C28.4183 23.6764 28.3989 23.7756 28.3608 23.8683C28.3227 23.961 28.2667 24.0453 28.196 24.1163C28.1253 24.1873 28.0413 24.2436 27.9488 24.2821C27.8562 24.3205 27.757 24.3403 27.6568 24.3403Z" fill="#A140FF"/>
<path d="M35.3071 22.2663C35.173 22.2661 35.0413 22.2307 34.9251 22.1637C34.809 22.0966 34.7125 22.0003 34.6452 21.8843C34.5959 21.7968 34.5644 21.7004 34.5524 21.6007C34.5403 21.501 34.5481 21.3999 34.5752 21.3032C34.6023 21.2065 34.6481 21.1161 34.7102 21.0371C34.7722 20.9582 34.8492 20.8922 34.9368 20.8431L36.0068 20.2248C36.0943 20.1755 36.1907 20.144 36.2903 20.132C36.39 20.1199 36.4911 20.1277 36.5877 20.1548C36.6844 20.1819 36.7748 20.2278 36.8538 20.2898C36.9327 20.3519 36.9986 20.4289 37.0477 20.5164C37.0974 20.6038 37.1293 20.7002 37.1415 20.8C37.1537 20.8998 37.146 21.001 37.1189 21.0978C37.0918 21.1946 37.0458 21.2851 36.9835 21.364C36.9213 21.4429 36.844 21.5087 36.7562 21.5576L35.6861 22.1759C35.5695 22.2377 35.439 22.2688 35.3071 22.2663Z" fill="#A140FF"/>
<path d="M27.0071 27.0436C26.8733 27.0438 26.7419 27.0085 26.6262 26.9414C26.5105 26.8743 26.4145 26.7777 26.3481 26.6616C26.2975 26.5751 26.2645 26.4795 26.251 26.3803C26.2376 26.281 26.2439 26.18 26.2696 26.0832C26.2954 25.9864 26.3401 25.8957 26.4011 25.8162C26.4621 25.7368 26.5382 25.6702 26.6251 25.6204L27.7535 24.97C27.8409 24.9203 27.9372 24.8885 28.037 24.8762C28.1368 24.864 28.238 24.8717 28.3348 24.8988C28.4315 24.9259 28.522 24.9719 28.6009 25.0342C28.6798 25.0965 28.7455 25.1738 28.7944 25.2616C28.8437 25.3491 28.8752 25.4455 28.8872 25.5452C28.8992 25.6449 28.8915 25.746 28.8644 25.8427C28.8373 25.9394 28.7914 26.0298 28.7294 26.1088C28.6674 26.1877 28.5904 26.2537 28.5028 26.3028L27.3774 26.9561C27.2633 27.0159 27.1359 27.0461 27.0071 27.0436Z" fill="#A140FF"/>
<path d="M31.785 28.5777H31.6597C30.7891 28.5588 29.9399 28.3048 29.2017 27.8428C28.4662 27.391 27.8627 26.7532 27.4523 25.9937C27.0687 25.2759 26.8684 24.4744 26.8691 23.6605V23.535C26.8904 22.7016 27.1242 21.8874 27.5485 21.1697C27.9728 20.4467 28.5751 19.8443 29.2979 19.4198C30.0197 18.9961 30.8376 18.7632 31.6743 18.7432H31.785C32.5989 18.7406 33.4006 18.9411 34.1176 19.3265C34.8768 19.7371 35.5145 20.3407 35.9662 21.0764C36.427 21.8206 36.6806 22.6745 36.701 23.5496V23.6634C36.7016 24.5098 36.4826 25.3419 36.0654 26.0782C35.6281 26.8526 34.9879 27.4929 34.2138 27.9303C33.4744 28.354 32.6372 28.5772 31.785 28.5777ZM31.7647 20.2918H31.7209C31.1409 20.3016 30.5734 20.4613 30.0735 20.7556C29.5776 21.0476 29.1641 21.4611 28.8722 21.9572C28.58 22.454 28.4195 23.0172 28.4057 23.5934V23.6721C28.4054 24.2296 28.5426 24.7786 28.8052 25.2704C29.0866 25.7925 29.4998 26.2319 30.0036 26.5449C30.5158 26.8627 31.1036 27.0379 31.7063 27.0524H31.785C32.3684 27.0528 32.9421 26.902 33.45 26.6149C33.9836 26.3129 34.4251 25.8713 34.727 25.3375C35.0133 24.8291 35.164 24.2556 35.1644 23.6721V23.6021C35.1512 22.9968 34.9771 22.4058 34.66 21.8901C34.346 21.386 33.9057 20.9728 33.3828 20.6914C32.8848 20.4263 32.3288 20.289 31.7647 20.2918Z" fill="#A140FF"/>
<path d="M33.7396 20.7816C33.6065 20.7818 33.4756 20.7466 33.3606 20.6795C33.273 20.6303 33.196 20.5644 33.134 20.4854C33.072 20.4064 33.0261 20.316 32.999 20.2193C32.972 20.1226 32.9642 20.0216 32.9762 19.9219C32.9882 19.8222 33.0197 19.7258 33.069 19.6383L33.7221 18.5096C33.7713 18.422 33.8372 18.345 33.9161 18.283C33.995 18.2209 34.0854 18.175 34.1821 18.1479C34.2788 18.1209 34.3799 18.1131 34.4795 18.1251C34.5792 18.1371 34.6755 18.1687 34.763 18.2179C34.8505 18.2671 34.9275 18.333 34.9896 18.412C35.0516 18.491 35.0975 18.5814 35.1245 18.6781C35.1516 18.7748 35.1594 18.8759 35.1474 18.9756C35.1354 19.0753 35.1038 19.1716 35.0546 19.2591L34.4014 20.3907C34.336 20.509 34.2401 20.6076 34.1238 20.6763C34.0074 20.745 33.8748 20.7814 33.7396 20.7816Z" fill="#A140FF"/>
<path d="M28.9838 29.0241C28.8506 29.0243 28.7198 28.9891 28.6047 28.9219C28.5172 28.8728 28.4402 28.8068 28.3781 28.7279C28.3161 28.6489 28.2703 28.5585 28.2432 28.4618C28.2161 28.3651 28.2083 28.264 28.2203 28.1643C28.2323 28.0646 28.2639 27.9683 28.3131 27.8808L28.9284 26.8133C28.9776 26.7257 29.0434 26.6487 29.1224 26.5867C29.2013 26.5246 29.2917 26.4787 29.3884 26.4516C29.4851 26.4246 29.5861 26.4168 29.6858 26.4288C29.7855 26.4408 29.8818 26.4724 29.9693 26.5216C30.0568 26.5708 30.1338 26.6368 30.1958 26.7157C30.2579 26.7947 30.3037 26.8851 30.3308 26.9818C30.3579 27.0785 30.3657 27.1796 30.3537 27.2793C30.3417 27.379 30.3101 27.4754 30.2608 27.5629L29.6457 28.6332C29.5792 28.7507 29.4831 28.8486 29.367 28.9172C29.2508 28.9858 29.1187 29.0226 28.9838 29.0241Z" fill="#A140FF"/>
</svg>
