<svg width="54" height="70" viewBox="0 0 54 70" fill="none" xmlns="http://www.w3.org/2000/svg">
<path d="M45.2551 15.9577C43.4836 15.956 41.7852 15.2515 40.5326 13.9989C39.2801 12.7463 38.5756 11.0479 38.5739 9.27648V6.02192e-07H8.72247C7.57718 -0.000425 6.44299 0.224751 5.38476 0.662742C4.32652 1.10073 3.36497 1.74294 2.55497 2.55264C1.74498 3.36234 1.10243 4.32367 0.664047 5.38175C0.225663 6.43983 -7.90789e-08 7.57389 0 8.71919V61.2807C-7.90789e-08 62.426 0.225663 63.5602 0.664047 64.6182C1.10243 65.6763 1.74498 66.6377 2.55497 67.4474C3.36497 68.2571 4.32652 68.8992 5.38476 69.3372C6.44299 69.7752 7.57718 70.0004 8.72247 70H44.5584C45.7034 70 46.8372 69.7745 47.8951 69.3363C48.953 68.8981 49.9142 68.2558 50.7239 67.4462C51.5335 66.6365 52.1757 65.6753 52.6139 64.6175C53.0521 63.5596 53.2776 62.4258 53.2776 61.2807V15.9577H45.2551Z" fill="#E6E7E9"/>
<path d="M53.278 15.9577H45.2554C43.484 15.956 41.7856 15.2515 40.533 13.9989C39.2804 12.7463 38.5759 11.0479 38.5742 9.27648V0L53.278 15.9577Z" fill="#2D3A47"/>
<path d="M42.3174 27.1295H8.86611C8.54472 27.1295 8.2365 27.0018 8.00925 26.7746C7.78199 26.5473 7.6543 26.2391 7.6543 25.9177C7.65387 25.7583 7.68492 25.6003 7.74563 25.4529C7.80634 25.3055 7.89553 25.1716 8.0081 25.0587C8.12067 24.9458 8.25441 24.8563 8.40165 24.7952C8.54888 24.7341 8.7067 24.7026 8.86611 24.7026H42.3174C42.6396 24.7026 42.9486 24.8307 43.1765 25.0585C43.4044 25.2864 43.5324 25.5954 43.5324 25.9177C43.5315 26.2394 43.4031 26.5476 43.1754 26.7748C42.9476 27.002 42.639 27.1295 42.3174 27.1295Z" fill="#2D3A47"/>
<path d="M42.3174 34.3775H8.86611C8.54472 34.3775 8.2365 34.2499 8.00925 34.0226C7.78199 33.7953 7.6543 33.4871 7.6543 33.1657C7.65387 33.0063 7.68492 32.8484 7.74563 32.701C7.80634 32.5536 7.89553 32.4196 8.0081 32.3067C8.12067 32.1939 8.25441 32.1043 8.40165 32.0432C8.54888 31.9821 8.7067 31.9507 8.86611 31.9507H42.3174C42.6396 31.9507 42.9486 32.0786 43.1765 32.3065C43.4044 32.5344 43.5324 32.8435 43.5324 33.1657C43.5315 33.4874 43.4031 33.7956 43.1754 34.0228C42.9476 34.2499 42.639 34.3775 42.3174 34.3775Z" fill="#2D3A47"/>
<path d="M42.3174 41.6261H8.86611C8.7067 41.6261 8.54888 41.5946 8.40165 41.5335C8.25441 41.4724 8.12067 41.3829 8.0081 41.27C7.89553 41.1572 7.80634 41.0232 7.74563 40.8758C7.68492 40.7284 7.65387 40.5704 7.6543 40.411C7.6543 40.0896 7.78199 39.7814 8.00925 39.5542C8.2365 39.3269 8.54472 39.1992 8.86611 39.1992H42.3174C42.639 39.1992 42.9476 39.3268 43.1754 39.5539C43.4031 39.7811 43.5315 40.0893 43.5324 40.411C43.5324 40.7333 43.4044 41.0423 43.1765 41.2702C42.9486 41.4981 42.6396 41.6261 42.3174 41.6261Z" fill="#2D3A47"/>
<path d="M29.1235 48.8746H8.86611C8.7067 48.8746 8.54888 48.8432 8.40165 48.7821C8.25441 48.721 8.12067 48.6314 8.0081 48.5185C7.89553 48.4056 7.80634 48.2717 7.74563 48.1243C7.68492 47.9769 7.65387 47.819 7.6543 47.6596C7.6543 47.3382 7.78199 47.0299 8.00925 46.8026C8.2365 46.5754 8.54472 46.4478 8.86611 46.4478H29.1235C29.4449 46.4478 29.7531 46.5754 29.9804 46.8026C30.2076 47.0299 30.3353 47.3382 30.3353 47.6596C30.3357 47.819 30.3047 47.9769 30.244 48.1243C30.1833 48.2717 30.0941 48.4056 29.9815 48.5185C29.869 48.6314 29.7352 48.721 29.588 48.7821C29.4407 48.8432 29.2829 48.8746 29.1235 48.8746Z" fill="#2D3A47"/>
</svg>
