<svg width="59" height="71" viewBox="0 0 59 71" fill="none" xmlns="http://www.w3.org/2000/svg">
<path d="M41.0248 15.3268C39.4307 15.3253 37.9024 14.6911 36.7752 13.5637C35.648 12.4362 35.0141 10.9074 35.0125 9.3129V0.962891H8.14993C7.11931 0.962508 6.09868 1.16519 5.1464 1.55944C4.19411 1.95369 3.32884 2.53176 2.59994 3.26059C1.87104 3.98942 1.29283 4.85474 0.898342 5.80714C0.50385 6.75955 0.300781 7.78035 0.300781 8.81126V56.1233C0.300781 57.1542 0.50385 58.1751 0.898342 59.1275C1.29283 60.0799 1.87104 60.9452 2.59994 61.674C3.32884 62.4028 4.19411 62.9808 5.1464 63.3751C6.09868 63.7693 7.11931 63.9721 8.14993 63.9717H40.3979C41.4283 63.9717 42.4485 63.7687 43.4005 63.3743C44.3524 62.9799 45.2174 62.4017 45.946 61.673C46.6746 60.9442 47.2525 60.079 47.6468 59.1268C48.0411 58.1745 48.2441 57.1539 48.2441 56.1233V15.3268H41.0248Z" fill="#E0EEFF"/>
<path d="M48.2452 15.3268H41.0259C39.4318 15.3253 37.9035 14.6911 36.7763 13.5637C35.6491 12.4362 35.0152 10.9074 35.0137 9.31289V0.962891L48.2452 15.3268Z" fill="#0072FF"/>
<path d="M38.38 25.3832H8.27798C7.98877 25.3832 7.71142 25.2683 7.50691 25.0637C7.3024 24.8592 7.1875 24.5817 7.1875 24.2924C7.18712 24.1489 7.21506 24.0068 7.26969 23.8741C7.32432 23.7414 7.40458 23.6208 7.50588 23.5192C7.60718 23.4176 7.72753 23.337 7.86002 23.282C7.99252 23.227 8.13453 23.1987 8.27798 23.1987H38.38C38.67 23.1987 38.9481 23.314 39.1531 23.5191C39.3582 23.7242 39.4734 24.0024 39.4734 24.2924C39.4726 24.582 39.3571 24.8595 39.1521 25.0639C38.9471 25.2684 38.6695 25.3832 38.38 25.3832Z" fill="#0072FF"/>
<path d="M38.38 31.9076H8.27798C7.98877 31.9076 7.71142 31.7927 7.50691 31.5881C7.3024 31.3836 7.1875 31.1061 7.1875 30.8168C7.18712 30.6734 7.21506 30.5312 7.26969 30.3985C7.32432 30.2658 7.40458 30.1452 7.50588 30.0436C7.60718 29.942 7.72753 29.8615 7.86002 29.8065C7.99252 29.7515 8.13453 29.7231 8.27798 29.7231H38.38C38.67 29.7231 38.9481 29.8383 39.1531 30.0434C39.3582 30.2485 39.4734 30.5268 39.4734 30.8168C39.4726 31.1064 39.3571 31.3838 39.1521 31.5883C38.9471 31.7928 38.6695 31.9076 38.38 31.9076Z" fill="#0072FF"/>
<path d="M38.38 38.4316H8.27798C8.13453 38.4316 7.99252 38.4032 7.86002 38.3482C7.72753 38.2932 7.60718 38.2127 7.50588 38.1111C7.40458 38.0095 7.32432 37.8889 7.26969 37.7562C7.21506 37.6235 7.18712 37.4813 7.1875 37.3379C7.1875 37.0486 7.3024 36.7711 7.50691 36.5666C7.71142 36.362 7.98877 36.2471 8.27798 36.2471H38.38C38.6695 36.2471 38.9471 36.3619 39.1521 36.5664C39.3571 36.7708 39.4726 37.0483 39.4734 37.3379C39.4734 37.6279 39.3582 37.9061 39.1531 38.1112C38.9481 38.3163 38.67 38.4316 38.38 38.4316Z" fill="#0072FF"/>
<path d="M26.5071 44.9565H8.27798C8.13453 44.9565 7.99252 44.9281 7.86002 44.8731C7.72753 44.8181 7.60718 44.7375 7.50588 44.6359C7.40458 44.5343 7.32432 44.4138 7.26969 44.2811C7.21506 44.1484 7.18712 44.0062 7.1875 43.8628C7.1875 43.5735 7.3024 43.296 7.50691 43.0914C7.71142 42.8868 7.98877 42.772 8.27798 42.772H26.5071C26.7963 42.772 27.0737 42.8868 27.2782 43.0914C27.4827 43.296 27.5976 43.5735 27.5976 43.8628C27.598 44.0062 27.5701 44.1484 27.5155 44.2811C27.4608 44.4138 27.3806 44.5343 27.2793 44.6359C27.178 44.7375 27.0576 44.8181 26.9251 44.8731C26.7926 44.9281 26.6506 44.9565 26.5071 44.9565Z" fill="#0072FF"/>
<path d="M53.9358 50.7222H17.4776C14.8914 50.7222 12.7949 52.8192 12.7949 55.4061V66.279C12.7949 68.8658 14.8914 70.9629 17.4776 70.9629H53.9358C56.522 70.9629 58.6185 68.8658 58.6185 66.279V55.4061C58.6185 52.8192 56.522 50.7222 53.9358 50.7222Z" fill="#0072FF"/>
<path d="M22.5237 63.1958V65.3161H20.3281V63.1958H22.5237Z" fill="white"/>
<path d="M30.9629 63.202C30.5979 63.8651 30.0464 64.4066 29.3768 64.7594C28.6232 65.1449 27.7854 65.3364 26.9392 65.3165H23.627V56.5465H26.9392C27.786 56.5256 28.625 56.7128 29.3826 57.0919C30.0495 57.4382 30.5993 57.974 30.9629 58.6318C31.3399 59.3319 31.5297 60.1175 31.514 60.9125C31.529 61.7103 31.3393 62.4985 30.9629 63.202ZM28.6829 62.7616C28.9199 62.5182 29.1035 62.2281 29.222 61.9097C29.3405 61.5913 29.3912 61.2517 29.371 60.9125C29.3913 60.5738 29.3407 60.2346 29.2221 59.9166C29.1036 59.5987 28.9199 59.3091 28.6829 59.0664C28.1516 58.6004 27.4578 58.3635 26.7526 58.4072H25.7525V63.4178H26.7555C27.4591 63.4603 28.1513 63.2246 28.6829 62.7616Z" fill="white"/>
<path d="M39.1368 56.9863C39.804 57.3653 40.3553 57.9188 40.7317 58.5875C41.1262 59.2937 41.3274 60.0915 41.3149 60.9003C41.3282 61.7111 41.1271 62.511 40.7317 63.2189C40.3541 63.8902 39.8007 64.4457 39.131 64.8259C38.4494 65.2153 37.6766 65.4166 36.8917 65.4093C36.1069 65.4162 35.3342 65.2149 34.6525 64.8259C33.983 64.4465 33.4303 63.8907 33.0546 63.2189C32.658 62.5115 32.4567 61.7113 32.4715 60.9003C32.4564 60.0912 32.6577 59.2927 33.0546 58.5875C33.4322 57.9187 33.9845 57.3652 34.6525 56.9863C35.3342 56.5974 36.1069 56.3961 36.8917 56.403C37.6785 56.3956 38.4531 56.5969 39.1368 56.9863ZM35.2298 59.057C34.7996 59.5717 34.5808 60.2305 34.6175 60.9003C34.5807 61.5675 34.7997 62.2236 35.2298 62.7348C35.4393 62.9626 35.6961 63.1417 35.9822 63.2596C36.2683 63.3775 36.5768 63.4313 36.8859 63.4172C37.1941 63.4304 37.5014 63.3763 37.7864 63.2584C38.0714 63.1405 38.3273 62.9618 38.5362 62.7348C38.9684 62.2244 39.1895 61.5682 39.1543 60.9003C39.1893 60.2334 38.9706 59.5779 38.542 59.0658C38.3326 58.8379 38.0758 58.6586 37.7897 58.5407C37.5035 58.4228 37.1951 58.369 36.8859 58.3833C36.5776 58.3691 36.2698 58.4221 35.9839 58.5384C35.698 58.6547 35.4407 58.8316 35.2298 59.057Z" fill="white"/>
<path d="M49.2789 57.3397C50.0184 57.9416 50.5213 58.7855 50.6989 59.7225H48.4537C48.3023 59.3342 48.037 59.0007 47.6927 58.7658C47.3298 58.5295 46.904 58.4085 46.4711 58.4188C46.1852 58.4096 45.901 58.4664 45.6406 58.5848C45.3802 58.7031 45.1506 58.8799 44.9695 59.1013C44.5634 59.6207 44.3566 60.2683 44.3863 60.927C44.3566 61.5831 44.5636 62.2279 44.9695 62.744C45.152 62.9632 45.3822 63.1378 45.6424 63.2545C45.9026 63.3713 46.186 63.427 46.4711 63.4177C46.9041 63.4293 47.3304 63.3082 47.6927 63.0707C48.0351 62.8401 48.3002 62.5118 48.4537 62.1286H50.6989C50.5184 63.0628 50.0159 63.9041 49.2789 64.5056C48.4857 65.1113 47.506 65.4208 46.5089 65.3806C45.7233 65.3972 44.9478 65.2016 44.2638 64.8147C43.6237 64.4426 43.1044 63.8938 42.7681 63.234C42.4066 62.5103 42.2265 61.7096 42.2433 60.9008C42.2268 60.092 42.4069 59.2913 42.7681 58.5675C43.1044 57.9078 43.6237 57.359 44.2638 56.9868C44.9478 56.5999 45.7233 56.4044 46.5089 56.4209C47.5111 56.3944 48.4911 56.7195 49.2789 57.3397Z" fill="white"/>
</svg>
