<svg width="60" height="71" viewBox="0 0 60 71" fill="none" xmlns="http://www.w3.org/2000/svg">
<path d="M41.5716 15.3268C39.9776 15.3253 38.4492 14.6911 37.3221 13.5637C36.1949 12.4362 35.5609 10.9074 35.5594 9.3129V0.962891H8.69681C7.66618 0.962508 6.64556 1.16519 5.69327 1.55944C4.74099 1.95369 3.87568 2.53176 3.14678 3.26059C2.41788 3.98942 1.83967 4.85474 1.44518 5.80714C1.05069 6.75955 0.847656 7.78035 0.847656 8.81126V56.1233C0.847656 57.1542 1.05069 58.1751 1.44518 59.1275C1.83967 60.0799 2.41788 60.9452 3.14678 61.674C3.87568 62.4028 4.74099 62.9808 5.69327 63.3751C6.64556 63.7693 7.66618 63.9721 8.69681 63.9717H40.9448C43.0257 63.9717 45.0214 63.1448 46.4929 61.673C47.9643 60.2011 48.791 58.2048 48.791 56.1233V15.3268H41.5716Z" fill="#E0EEFF"/>
<path d="M48.7921 15.3268H41.5728C39.9787 15.3253 38.4504 14.6911 37.3232 13.5637C36.196 12.4362 35.5621 10.9074 35.5605 9.31289V0.962891L48.7921 15.3268Z" fill="#0072FF"/>
<path d="M38.9268 25.3832H8.82486C8.53564 25.3832 8.25829 25.2683 8.05378 25.0637C7.84928 24.8592 7.73438 24.5817 7.73438 24.2924C7.734 24.1489 7.76193 24.0068 7.81656 23.8741C7.87119 23.7414 7.95145 23.6208 8.05275 23.5192C8.15405 23.4176 8.27437 23.337 8.40686 23.282C8.53936 23.227 8.68141 23.1987 8.82486 23.1987H38.9268C39.2168 23.1987 39.4949 23.314 39.7 23.5191C39.905 23.7242 40.0202 24.0024 40.0202 24.2924C40.0195 24.582 39.9039 24.8595 39.6989 25.0639C39.494 25.2684 39.2163 25.3832 38.9268 25.3832Z" fill="#0072FF"/>
<path d="M38.9268 31.9076H8.82486C8.53564 31.9076 8.25829 31.7927 8.05378 31.5881C7.84928 31.3836 7.73438 31.1061 7.73438 30.8168C7.734 30.6734 7.76193 30.5312 7.81656 30.3985C7.87119 30.2658 7.95145 30.1452 8.05275 30.0436C8.15405 29.942 8.27437 29.8615 8.40686 29.8065C8.53936 29.7515 8.68141 29.7231 8.82486 29.7231H38.9268C39.2168 29.7231 39.4949 29.8383 39.7 30.0434C39.905 30.2485 40.0202 30.5268 40.0202 30.8168C40.0195 31.1064 39.9039 31.3838 39.6989 31.5883C39.494 31.7928 39.2163 31.9076 38.9268 31.9076Z" fill="#0072FF"/>
<path d="M38.9268 38.4316H8.82486C8.68141 38.4316 8.53936 38.4032 8.40686 38.3482C8.27437 38.2932 8.15405 38.2127 8.05275 38.1111C7.95145 38.0095 7.87119 37.8889 7.81656 37.7562C7.76193 37.6235 7.734 37.4813 7.73438 37.3379C7.73438 37.0486 7.84928 36.7711 8.05378 36.5666C8.25829 36.362 8.53564 36.2471 8.82486 36.2471H38.9268C39.2163 36.2471 39.494 36.3619 39.6989 36.5664C39.9039 36.7708 40.0195 37.0483 40.0202 37.3379C40.0202 37.6279 39.905 37.9061 39.7 38.1112C39.4949 38.3163 39.2168 38.4316 38.9268 38.4316Z" fill="#0072FF"/>
<path d="M27.0482 44.9565H8.82486C8.68141 44.9565 8.53936 44.9281 8.40686 44.8731C8.27437 44.8181 8.15405 44.7375 8.05275 44.6359C7.95145 44.5343 7.87119 44.4138 7.81656 44.2811C7.76193 44.1484 7.734 44.0062 7.73438 43.8628C7.73438 43.5735 7.84928 43.296 8.05378 43.0914C8.25829 42.8868 8.53564 42.772 8.82486 42.772H27.0482C27.3374 42.772 27.6147 42.8868 27.8192 43.0914C28.0237 43.296 28.1386 43.5735 28.1386 43.8628C28.139 44.0062 28.1111 44.1484 28.0565 44.2811C28.0018 44.4138 27.9216 44.5343 27.8203 44.6359C27.719 44.7375 27.5986 44.8181 27.4662 44.8731C27.3337 44.9281 27.1916 44.9565 27.0482 44.9565Z" fill="#0072FF"/>
<path d="M54.4827 50.7222H18.0245C15.4383 50.7222 13.3418 52.8192 13.3418 55.4061V66.279C13.3418 68.8658 15.4383 70.9629 18.0245 70.9629H54.4827C57.0689 70.9629 59.1654 68.8658 59.1654 66.279V55.4061C59.1654 52.8192 57.0689 50.7222 54.4827 50.7222Z" fill="#0072FF"/>
<path d="M18.6858 63.1958V65.3161H16.4902V63.1958H18.6858Z" fill="white"/>
<path d="M27.125 63.2019C26.7592 63.8645 26.2079 64.4058 25.5389 64.7594C24.7853 65.1449 23.9475 65.3363 23.1013 65.3164H19.7891V56.5465H23.1013C23.9481 56.5259 24.787 56.7131 25.5447 57.0918C26.2117 57.4382 26.7614 57.9739 27.125 58.6317C27.502 59.3318 27.6919 60.1175 27.6761 60.9125C27.6911 61.7102 27.5014 62.4984 27.125 63.2019ZM24.8449 62.7615C25.0819 62.5182 25.2656 62.228 25.3841 61.9096C25.5026 61.5912 25.5533 61.2516 25.5331 60.9125C25.5535 60.5738 25.5028 60.2345 25.3843 59.9166C25.2657 59.5986 25.082 59.309 24.8449 59.0663C24.3137 58.6004 23.6199 58.3635 22.9147 58.4072H21.9117V63.4178H22.9147C23.6193 63.461 24.3126 63.2253 24.8449 62.7615Z" fill="white"/>
<path d="M35.298 56.9863C35.9651 57.3653 36.5165 57.9188 36.8929 58.5875C37.2875 59.2936 37.4887 60.0914 37.4761 60.9003C37.4908 61.7112 37.2895 62.5115 36.8929 63.2189C36.5172 63.8907 35.9646 64.4465 35.2951 64.8259C34.6135 65.2153 33.8407 65.4166 33.0558 65.4093C32.2709 65.4166 31.4982 65.2153 30.8166 64.8259C30.1471 64.4465 29.5944 63.8907 29.2187 63.2189C28.8221 62.5115 28.6208 61.7112 28.6356 60.9003C28.6204 60.0912 28.8218 59.2927 29.2187 58.5875C29.5963 57.9187 30.1486 57.3652 30.8166 56.9863C31.4982 56.597 32.2709 56.3957 33.0558 56.403C33.8416 56.3961 34.6152 56.5974 35.298 56.9863ZM31.3909 59.057C30.9608 59.5717 30.742 60.2305 30.7786 60.9003C30.7419 61.5675 30.9609 62.2236 31.3909 62.7348C31.6005 62.9626 31.8573 63.1417 32.1434 63.2596C32.4295 63.3775 32.7379 63.4313 33.0471 63.4172C33.3552 63.43 33.6624 63.3757 33.9474 63.2578C34.2323 63.14 34.4882 62.9615 34.6974 62.7348C35.1296 62.2244 35.3507 61.5682 35.3155 60.9003C35.3505 60.2334 35.1317 59.5779 34.7032 59.0658C34.4938 58.8379 34.237 58.6586 33.9509 58.5407C33.6647 58.4228 33.3562 58.369 33.0471 58.3833C32.7387 58.3691 32.431 58.4221 32.1451 58.5384C31.8592 58.6547 31.6019 58.8316 31.3909 59.057Z" fill="white"/>
<path d="M45.4399 57.3397C46.1794 57.9416 46.6823 58.7855 46.8599 59.7225H44.6148C44.4633 59.3342 44.198 59.0007 43.8538 58.7658C43.4909 58.5295 43.065 58.4085 42.6321 58.4188C42.3462 58.4096 42.062 58.4664 41.8016 58.5848C41.5413 58.7031 41.3116 58.8799 41.1305 59.1013C40.7247 59.6209 40.5179 60.2684 40.5473 60.927C40.5176 61.5831 40.7246 62.2279 41.1305 62.744C41.3131 62.9632 41.5432 63.1378 41.8034 63.2545C42.0636 63.3713 42.347 63.427 42.6321 63.4177C43.0651 63.4293 43.4914 63.3082 43.8538 63.0707C44.1961 62.8401 44.4612 62.5118 44.6148 62.1286H46.8599C46.6794 63.0628 46.1769 63.9041 45.4399 64.5056C44.6468 65.1113 43.667 65.4208 42.67 65.3806C41.8844 65.3972 41.1088 65.2016 40.4249 64.8147C39.7847 64.4426 39.2654 63.8938 38.9291 63.234C38.5668 62.5105 38.3856 61.7098 38.4013 60.9008C38.3858 60.0918 38.5669 59.2911 38.9291 58.5675C39.2654 57.9078 39.7847 57.359 40.4249 56.9868C41.1088 56.5999 41.8844 56.4044 42.67 56.4209C43.6722 56.3944 44.6521 56.7195 45.4399 57.3397Z" fill="white"/>
<path d="M53.3709 65.3159L51.5223 62.586L49.9362 65.3159H47.5045L50.3094 60.8011L47.4199 56.5459H49.9362L51.7352 59.1882L53.2834 56.5459H55.7035L52.9365 60.9615L55.8872 65.3159H53.3709Z" fill="white"/>
</svg>
