<svg width="60" height="71" viewBox="0 0 60 71" fill="none" xmlns="http://www.w3.org/2000/svg">
<path d="M41.4935 15.184C39.8988 15.1832 38.3696 14.5494 37.2418 13.4218C36.1139 12.2942 35.4796 10.7649 35.478 9.16979V0.822266H8.60244C7.57176 0.822266 6.55119 1.02536 5.59901 1.41998C4.64682 1.81461 3.7817 2.393 3.05303 3.12214C2.32437 3.85127 1.74647 4.71687 1.35231 5.66946C0.958153 6.62205 0.755477 7.64301 0.75586 8.67397V55.9854C0.75895 58.065 1.587 60.0583 3.05819 61.5278C4.52938 62.9972 6.52341 63.8225 8.60244 63.8225H40.852C41.8827 63.8225 42.9032 63.6194 43.8554 63.2248C44.8076 62.8301 45.6727 62.2517 46.4014 61.5226C47.1301 60.7935 47.708 59.9279 48.1022 58.9753C48.4963 58.0227 48.699 57.0017 48.6986 55.9708V15.1723L41.4935 15.184Z" fill="#E0ECF5"/>
<path d="M48.6991 15.184H41.494C39.8993 15.1832 38.3701 14.5494 37.2423 13.4218C36.1144 12.2942 35.4801 10.7649 35.4785 9.16979V0.822266L48.6991 15.184Z" fill="#005FAD"/>
<path d="M36.7622 26.0053H10.811C10.5612 26.0053 10.3216 25.906 10.145 25.7293C9.96837 25.5526 9.86914 25.313 9.86914 25.0632C9.86914 24.8133 9.96837 24.5737 10.145 24.397C10.3216 24.2203 10.5612 24.1211 10.811 24.1211H36.7622C36.8857 24.1211 37.0081 24.1455 37.1222 24.1929C37.2363 24.2403 37.3399 24.3097 37.4271 24.3972C37.5144 24.4847 37.5835 24.5886 37.6305 24.7029C37.6775 24.8171 37.7015 24.9396 37.7011 25.0632C37.7011 25.3125 37.6023 25.5517 37.4263 25.7283C37.2503 25.9049 37.0115 26.0045 36.7622 26.0053Z" fill="#005FAD"/>
<path d="M54.391 50.5806H17.9309C15.3446 50.5806 13.248 52.6778 13.248 55.2648V66.1381C13.248 68.7251 15.3446 70.8223 17.9309 70.8223H54.391C56.9773 70.8223 59.0739 68.7251 59.0739 66.1381V55.2648C59.0739 52.6778 56.9773 50.5806 54.391 50.5806Z" fill="#005FAD"/>
<path d="M21.3753 63.0557V65.179H19.1797V63.0557H21.3753Z" fill="white"/>
<path d="M29.8304 63.0609C29.4661 63.7248 28.9144 64.2665 28.2442 64.6184C27.4913 65.0062 26.6531 65.1988 25.8065 65.1785H22.4824V56.408H25.7948C26.6418 56.386 27.4811 56.5733 28.2383 56.9534C28.9052 57.2986 29.4551 57.8334 29.8187 58.4905C30.1958 59.1916 30.3857 59.9783 30.3698 60.7743C30.3888 61.5701 30.2031 62.3575 29.8304 63.0609ZM27.5473 62.6205C27.7854 62.3784 27.9699 62.0889 28.089 61.7708C28.208 61.4528 28.2589 61.1133 28.2383 60.7743C28.2589 60.4348 28.2081 60.0948 28.089 59.7763C27.97 59.4578 27.7854 59.1678 27.5473 58.9251C27.0163 58.4609 26.3237 58.2251 25.6199 58.2688H24.6168V63.2797H25.6199C26.3203 63.3208 27.0087 63.0839 27.5356 62.6205H27.5473Z" fill="white"/>
<path d="M43.4918 56.4082L41.3981 65.1787H38.7739L37.3713 59.3103L35.9571 65.1787H33.3329L31.2363 56.4082H33.5428L34.6712 62.7578L36.2079 56.4082H38.5406L40.0772 62.7578L41.2174 56.4082H43.4918Z" fill="white"/>
<path d="M51.4286 57.1136C52.1355 57.6438 52.6107 58.4263 52.7553 59.2982H50.513C50.3664 58.9851 50.1286 58.7238 49.8307 58.5486C49.4967 58.3502 49.1139 58.2491 48.7256 58.2569C48.4236 58.2444 48.1226 58.2985 47.8439 58.4155C47.5652 58.5324 47.3157 58.7093 47.1131 58.9336C46.6865 59.4442 46.4697 60.0979 46.5065 60.7623C46.5065 61.5965 46.7194 62.2372 47.1451 62.6844C47.3845 62.9166 47.6697 63.0963 47.9826 63.2118C48.2954 63.3273 48.629 63.3762 48.9618 63.3553C49.4375 63.3639 49.9031 63.2175 50.2884 62.9382C50.6811 62.6442 50.9643 62.2274 51.0932 61.754H48.4165V60.2286H52.8661V62.3257C52.6948 62.8473 52.4257 63.3313 52.073 63.7519C51.6893 64.2039 51.213 64.5679 50.6763 64.8195C50.068 65.1003 49.4041 65.2399 48.7343 65.2278C47.9207 65.2494 47.1159 65.0552 46.4016 64.6649C45.7481 64.2972 45.2161 63.7468 44.8708 63.0811C44.4985 62.3608 44.313 61.5584 44.3313 60.7478C44.3154 59.942 44.5008 59.145 44.8708 58.429C45.2147 57.7642 45.7445 57.2139 46.3958 56.8452C47.0995 56.4576 47.8932 56.2633 48.6964 56.2823C49.6744 56.2458 50.6365 56.5385 51.4286 57.1136Z" fill="white"/>
<path d="M30.0683 17.7883V43.7467C30.0686 43.8706 30.0445 43.9932 29.9973 44.1077C29.9501 44.2222 29.8808 44.3262 29.7933 44.4137C29.7057 44.5013 29.6017 44.5707 29.4873 44.6179C29.3729 44.6651 29.2502 44.6892 29.1264 44.6888C29.0029 44.6888 28.8805 44.6644 28.7664 44.617C28.6523 44.5697 28.5487 44.5002 28.4615 44.4127C28.3742 44.3252 28.3051 44.2213 28.2581 44.107C28.2111 43.9927 28.1871 43.8703 28.1875 43.7467V17.7883C28.1875 17.539 28.2863 17.2997 28.4623 17.1232C28.6383 16.9466 28.8771 16.847 29.1264 16.8462C29.3762 16.8462 29.6158 16.9454 29.7924 17.1221C29.969 17.2988 30.0683 17.5385 30.0683 17.7883Z" fill="#005FAD"/>
<path d="M32.1912 21.9272H26.1816V27.9385H32.1912V21.9272Z" fill="#005FAD"/>
</svg>
