<svg width="59" height="71" viewBox="0 0 59 71" fill="none" xmlns="http://www.w3.org/2000/svg">
<path d="M41.0267 15.184C39.4326 15.1824 37.9042 14.5483 36.7769 13.4208C35.6497 12.2932 35.0158 10.7644 35.0142 9.16979V0.822266H8.15031C7.1195 0.822266 6.09877 1.02536 5.14642 1.41995C4.19407 1.81453 3.32877 2.39286 2.59988 3.12196C1.87098 3.85106 1.29277 4.71664 0.8983 5.66925C0.503824 6.62186 0.300781 7.64287 0.300781 8.67397V55.9854C0.300781 57.0165 0.503824 58.0375 0.8983 58.9901C1.29277 59.9427 1.87098 60.8083 2.59988 61.5373C3.32877 62.2664 4.19407 62.8448 5.14642 63.2394C6.09877 63.634 7.1195 63.8371 8.15031 63.8371H40.3998C41.4305 63.8371 42.4511 63.6339 43.4033 63.2393C44.3554 62.8447 45.2206 62.2663 45.9493 61.5372C46.6779 60.808 47.2558 59.9424 47.65 58.9898C48.0441 58.0373 48.2468 57.0163 48.2464 55.9854V15.1869L41.0267 15.184Z" fill="#FFF3E1"/>
<path d="M48.2478 15.184H41.0281C39.434 15.1824 37.9056 14.5483 36.7784 13.4208C35.6511 12.2932 35.0172 10.7644 35.0156 9.16979V0.822266L48.2478 15.184Z" fill="#FF9908"/>
<path d="M53.9398 50.5806H17.4797C14.8935 50.5806 12.7969 52.6778 12.7969 55.2648V66.1381C12.7969 68.7251 14.8935 70.8223 17.4797 70.8223H53.9398C56.5261 70.8223 58.6227 68.7251 58.6227 66.1381V55.2648C58.6227 52.6778 56.5261 50.5806 53.9398 50.5806Z" fill="#FF9908"/>
<path d="M25.7543 63.0557V65.179H23.5586V63.0557H25.7543Z" fill="white"/>
<path d="M28.9763 58.0941V59.9287H31.9388V61.5299H28.9763V63.4782H32.312V65.1787H26.8535V56.4082H32.312V58.0941H28.9763Z" fill="white"/>
<path d="M35.6364 62.1016V65.1787H33.5137V56.4082H36.9486C37.9925 56.4082 38.7866 56.6658 39.3309 57.1811C39.6067 57.4525 39.8222 57.779 39.9634 58.1394C40.1046 58.4997 40.1682 58.8858 40.1502 59.2724C40.1594 59.7825 40.0325 60.2859 39.7828 60.7307C39.5304 61.1668 39.1524 61.5165 38.6981 61.7341C38.1526 61.9943 37.5527 62.1203 36.9486 62.1016H35.6364ZM37.9924 59.2724C37.9924 58.4946 37.5667 58.1057 36.7153 58.1057H35.6364V60.3895H36.7153C37.5726 60.3973 38.0012 60.0249 38.0012 59.2724H37.9924Z" fill="white"/>
<path d="M47.1351 63.9856C46.8852 64.3897 46.5236 64.7128 46.0941 64.916C45.5734 65.1618 45.0018 65.2808 44.4263 65.263C43.5588 65.298 42.704 65.0459 41.9944 64.5456C41.682 64.3095 41.4264 64.0065 41.2463 63.6588C41.0662 63.311 40.9661 62.9274 40.9535 62.536H43.2103C43.2292 62.8307 43.3546 63.1086 43.5631 63.3176C43.7736 63.5126 44.052 63.6173 44.3388 63.6093C44.5744 63.6236 44.8061 63.5439 44.9832 63.3876C45.061 63.3122 45.1221 63.2213 45.1628 63.1209C45.2035 63.0205 45.2228 62.9126 45.2194 62.8043C45.2224 62.7013 45.2048 62.5988 45.1678 62.5026C45.1308 62.4065 45.0749 62.3186 45.0036 62.2443C44.8494 62.0886 44.6661 61.9648 44.4642 61.8797C44.2484 61.7844 43.951 61.6707 43.5719 61.5385C43.107 61.3858 42.653 61.2016 42.2131 60.9872C41.8504 60.7998 41.5391 60.5264 41.3063 60.191C41.0396 59.7851 40.908 59.3053 40.9301 58.8201C40.9179 58.3396 41.0566 57.8673 41.3267 57.4697C41.6016 57.0798 41.9819 56.7763 42.4231 56.5947C42.9331 56.3887 43.4799 56.2895 44.0297 56.303C44.8643 56.2561 45.6892 56.5016 46.3624 56.9972C46.6437 57.2248 46.8749 57.5081 47.0415 57.8293C47.2081 58.1506 47.3064 58.5028 47.3305 58.8639H45.0357C45.0101 58.6058 44.8993 58.3636 44.7208 58.1755C44.6292 58.0888 44.521 58.0216 44.4027 57.9779C44.2844 57.9343 44.1585 57.9152 44.0326 57.9218C43.8146 57.9106 43.6004 57.9814 43.4319 58.1201C43.3522 58.1938 43.2901 58.2845 43.2503 58.3855C43.2104 58.4865 43.1937 58.5952 43.2016 58.7034C43.1991 58.8001 43.2159 58.8963 43.2509 58.9865C43.286 59.0766 43.3386 59.1589 43.4057 59.2285C43.5525 59.3801 43.7279 59.5011 43.9218 59.5843C44.1289 59.6747 44.4263 59.7914 44.8141 59.9314C45.2866 60.0834 45.7467 60.2716 46.1903 60.4943C46.5561 60.6898 46.8707 60.9685 47.1089 61.3081C47.3803 61.7186 47.5151 62.2046 47.4938 62.6964C47.4982 63.1514 47.3738 63.5983 47.1351 63.9856Z" fill="white"/>
<path d="M36.1741 38.0771H35.448C35.4441 35.1336 34.2733 32.3119 32.1922 30.2308C30.1112 28.1498 27.2899 26.9793 24.3473 26.9762C21.4049 26.9793 18.5839 28.1499 16.5034 30.231C14.4228 32.3122 13.2526 35.1339 13.2495 38.0771H12.5234C12.5273 34.9415 13.7743 31.9355 15.9908 29.7183C18.2074 27.5011 21.2126 26.2539 24.3473 26.25C27.4825 26.2531 30.4884 27.5 32.7056 29.7173C34.9228 31.9346 36.1702 34.941 36.1741 38.0771Z" fill="#FF9908"/>
<path d="M41.1513 26.25H7.54297V26.9762H41.1513V26.25Z" fill="#FF9908"/>
<path d="M14.0485 36.9165H11.7246V39.2411H14.0485V36.9165Z" fill="#FF9908"/>
<path d="M36.9743 36.9165H34.6504V39.2411H36.9743V36.9165Z" fill="#FF9908"/>
<path d="M25.5095 25.4131H23.1855V27.7377H25.5095V25.4131Z" fill="#FF9908"/>
<path d="M7.50523 27.7406C8.14777 27.7406 8.66865 27.2196 8.66865 26.5768C8.66865 25.9341 8.14777 25.4131 7.50523 25.4131C6.86268 25.4131 6.3418 25.9341 6.3418 26.5768C6.3418 27.2196 6.86268 27.7406 7.50523 27.7406Z" fill="#FF9908"/>
<path d="M41.0404 27.7406C41.683 27.7406 42.2038 27.2196 42.2038 26.5768C42.2038 25.9341 41.683 25.4131 41.0404 25.4131C40.3979 25.4131 39.877 25.9341 39.877 26.5768C39.877 27.2196 40.3979 27.7406 41.0404 27.7406Z" fill="#FF9908"/>
</svg>
