<svg width="60" height="71" viewBox="0 0 60 71" fill="none" xmlns="http://www.w3.org/2000/svg">
<path d="M41.4915 14.7565C39.8966 14.755 38.3676 14.1206 37.2398 12.9925C36.1121 11.8645 35.4779 10.335 35.4763 8.7397V0.392578H8.60206C6.52111 0.392578 4.52541 1.21945 3.05395 2.69131C1.5825 4.16317 0.755859 6.15946 0.755859 8.24098V55.553C0.75895 57.6325 1.58696 59.6258 3.05808 61.0951C4.5292 62.5645 6.52313 63.3897 8.60206 63.3897H40.85C42.931 63.3897 44.9267 62.5628 46.3981 61.091C47.8696 59.6191 48.6962 57.6228 48.6962 55.5413V14.7448L41.4915 14.7565Z" fill="#E0EEFF"/>
<path d="M48.6965 14.7565H41.4917C39.8969 14.755 38.3678 14.1206 37.2401 12.9925C36.1123 11.8645 35.4781 10.335 35.4766 8.7397V0.392578L48.6965 14.7565Z" fill="#0072FF"/>
<path d="M54.387 50.1519H17.9287C15.3426 50.1519 13.2461 52.2489 13.2461 54.8358V65.7087C13.2461 68.2955 15.3426 70.3926 17.9287 70.3926H54.387C56.9732 70.3926 59.0697 68.2955 59.0697 65.7087V54.8358C59.0697 52.2489 56.9732 50.1519 54.387 50.1519Z" fill="#0072FF"/>
<path d="M26.179 62.6255V64.7458H23.998V62.6255H26.179Z" fill="white"/>
<path d="M29.402 57.6614V59.4988H32.3643V61.097H29.402V63.0453H32.7434V64.7456H27.2852V55.9756H32.7434V57.6614H29.402Z" fill="white"/>
<path d="M39.2625 64.7456L37.4139 62.0158L35.8278 64.7456H33.396L36.1981 60.2308L33.3086 55.9756H35.8278L37.6238 58.618L39.175 55.9756H41.5951L38.828 60.3912L41.7788 64.7456H39.2625Z" fill="white"/>
<path d="M44.7174 57.6614V59.4988H47.6827V61.097H44.7174V63.0453H48.053V64.7456H42.5977V55.9756H48.053V57.6614H44.7174Z" fill="white"/>
<path d="M24.7245 43.4727C24.392 43.4727 24.0731 43.3406 23.8379 43.1054C23.6028 42.8702 23.4707 42.5512 23.4707 42.2186V40.2908C23.4707 40.1262 23.5032 39.9633 23.5662 39.8113C23.6292 39.6593 23.7217 39.5212 23.8381 39.405C23.9546 39.2888 24.0928 39.1967 24.2449 39.134C24.397 39.0713 24.56 39.0392 24.7245 39.0396C25.0562 39.0396 25.3744 39.1714 25.609 39.406C25.8435 39.6407 25.9753 39.9589 25.9753 40.2908V42.2186C25.9753 42.5507 25.8436 42.8692 25.6091 43.1043C25.3746 43.3394 25.0565 43.4719 24.7245 43.4727Z" fill="#0072FF"/>
<path d="M24.7245 27.9307C24.392 27.9307 24.0731 27.7986 23.8379 27.5634C23.6028 27.3282 23.4707 27.0092 23.4707 26.6766V24.4338C23.4707 24.1012 23.6028 23.7822 23.8379 23.547C24.0731 23.3118 24.392 23.1797 24.7245 23.1797C25.0565 23.1805 25.3746 23.3129 25.6091 23.548C25.8436 23.7831 25.9753 24.1017 25.9753 24.4338V26.6766C25.9753 27.0087 25.8436 27.3272 25.6091 27.5624C25.3746 27.7975 25.0565 27.93 24.7245 27.9307Z" fill="#0072FF"/>
<path d="M29.1725 42.2829C28.9522 42.2832 28.7356 42.2254 28.5447 42.1153C28.3537 42.0052 28.1952 41.8467 28.085 41.6558L27.1519 40.0342C26.9861 39.7469 26.9412 39.4054 27.027 39.0849C27.1128 38.7644 27.3224 38.4911 27.6097 38.3252C27.7521 38.2426 27.9094 38.1888 28.0725 38.1672C28.2357 38.1455 28.4015 38.1562 28.5605 38.1987C28.7195 38.2413 28.8685 38.3148 28.9991 38.4151C29.1296 38.5153 29.2391 38.6404 29.3212 38.783L30.2543 40.4017C30.4203 40.6895 30.4653 41.0315 30.3795 41.3525C30.2937 41.6734 30.084 41.9472 29.7965 42.1137C29.6068 42.2236 29.3917 42.2819 29.1725 42.2829Z" fill="#0072FF"/>
<path d="M21.4307 28.8671C21.2104 28.8674 20.9938 28.8096 20.8029 28.6995C20.6119 28.5894 20.4534 28.4309 20.3432 28.24L19.1944 26.2539C19.0286 25.9657 18.984 25.6235 19.0704 25.3025C19.1568 24.9814 19.3671 24.7079 19.6551 24.5419C19.9428 24.3758 20.2846 24.3308 20.6055 24.4166C20.9264 24.5025 21.2002 24.7122 21.3666 24.9997L22.5125 26.9888C22.6785 27.2766 22.7235 27.6186 22.6377 27.9396C22.5518 28.2605 22.3422 28.5343 22.0547 28.7008C21.8649 28.8099 21.6497 28.8672 21.4307 28.8671Z" fill="#0072FF"/>
<path d="M32.4234 39.0244C32.2044 39.0245 31.9893 38.9672 31.7994 38.8581L30.1782 37.9219C29.8908 37.7555 29.6811 37.4816 29.5953 37.1607C29.5095 36.8397 29.5545 36.4977 29.7205 36.2099C29.8865 35.9219 30.1599 35.7115 30.4809 35.6251C30.8018 35.5387 31.1439 35.5833 31.432 35.7491L33.0532 36.6853C33.3407 36.8518 33.5503 37.1256 33.6361 37.4466C33.7219 37.7676 33.6769 38.1095 33.5109 38.3973C33.4007 38.5883 33.2422 38.7467 33.0513 38.8568C32.8603 38.9669 32.6438 39.0247 32.4234 39.0244Z" fill="#0072FF"/>
<path d="M19.0115 31.2821C18.7922 31.2815 18.577 31.2231 18.3875 31.1129L16.3989 29.9667C16.1115 29.8002 15.9018 29.5264 15.816 29.2054C15.7302 28.8845 15.7752 28.5425 15.9412 28.2547C16.0233 28.1121 16.1328 27.987 16.2634 27.8867C16.3939 27.7865 16.5429 27.713 16.7019 27.6704C16.8609 27.6279 17.0268 27.6171 17.1899 27.6388C17.3531 27.6605 17.5104 27.7142 17.6527 27.7968L19.6413 28.943C19.9282 29.1101 20.1373 29.3838 20.2231 29.7046C20.3088 30.0253 20.2642 30.367 20.099 30.655C19.9888 30.8459 19.8303 31.0044 19.6394 31.1145C19.4484 31.2246 19.2318 31.2824 19.0115 31.2821Z" fill="#0072FF"/>
<path d="M33.6195 34.58H31.6893C31.3568 34.58 31.0379 34.4479 30.8028 34.2127C30.5677 33.9775 30.4355 33.6585 30.4355 33.3259C30.4363 32.9938 30.5688 32.6755 30.8038 32.441C31.0389 32.2064 31.3573 32.0747 31.6893 32.0747H33.6195C33.9515 32.0747 34.27 32.2064 34.505 32.441C34.7401 32.6755 34.8725 32.9938 34.8733 33.3259C34.8733 33.6585 34.7412 33.9775 34.5061 34.2127C34.2709 34.4479 33.9521 34.58 33.6195 34.58Z" fill="#0072FF"/>
<path d="M18.0731 34.58H15.8339C15.5013 34.58 15.1824 34.4479 14.9473 34.2127C14.7122 33.9775 14.5801 33.6585 14.5801 33.3259C14.5809 32.9938 14.7133 32.6755 14.9484 32.441C15.1834 32.2064 15.5018 32.0747 15.8339 32.0747H18.0702C18.2347 32.0743 18.3977 32.1064 18.5498 32.1691C18.7019 32.2318 18.8401 32.3239 18.9566 32.4401C19.073 32.5564 19.1654 32.6944 19.2285 32.8464C19.2915 32.9984 19.324 33.1614 19.324 33.3259C19.3244 33.4905 19.2923 33.6535 19.2296 33.8056C19.1669 33.9578 19.0748 34.096 18.9587 34.2125C18.8425 34.329 18.7044 34.4214 18.5525 34.4845C18.4005 34.5475 18.2377 34.58 18.0731 34.58Z" fill="#0072FF"/>
<path d="M30.6687 31.1473C30.4486 31.1476 30.2324 31.0902 30.0415 30.9806C29.8506 30.8711 29.6919 30.7134 29.5811 30.5232C29.4154 30.235 29.3708 29.8928 29.4571 29.5718C29.5435 29.2508 29.7538 28.9772 30.0418 28.8112L31.7912 27.7962C32.079 27.6302 32.4208 27.5852 32.7417 27.671C33.0626 27.7569 33.3363 27.9666 33.5028 28.2541C33.6688 28.5419 33.7138 28.8839 33.628 29.2049C33.5421 29.5258 33.3325 29.7997 33.045 29.9661L31.2956 30.9811C31.105 31.0909 30.8887 31.1483 30.6687 31.1473Z" fill="#0072FF"/>
<path d="M17.0258 39.0249C16.8058 39.0253 16.5896 38.9675 16.3992 38.8574C16.2087 38.7473 16.0507 38.5888 15.9412 38.3979C15.7752 38.1101 15.7302 37.7681 15.816 37.4471C15.9018 37.1261 16.1115 36.8523 16.3989 36.6858L18.2534 35.6155C18.5413 35.4502 18.8829 35.4056 19.2035 35.4914C19.5242 35.5772 19.7979 35.7864 19.9649 36.0734C20.1307 36.3615 20.1752 36.7037 20.0888 37.0248C20.0025 37.3458 19.7922 37.6194 19.5042 37.7854L17.6527 38.8558C17.4627 38.9674 17.2462 39.0258 17.0258 39.0249Z" fill="#0072FF"/>
<path d="M24.8725 41.5479H24.6714C23.2383 41.5144 21.8406 41.0963 20.6243 40.3375C19.4224 39.5921 18.4371 38.5442 17.7669 37.2985C17.1405 36.1255 16.8121 34.8164 16.8105 33.4866C16.8105 33.4195 16.8105 33.3525 16.8105 33.2854C16.845 31.9149 17.2284 30.5757 17.9244 29.3947C18.6194 28.2152 19.6026 27.2318 20.7818 26.5365C21.9674 25.8398 23.3112 25.4573 24.6859 25.4253H24.8696C26.2008 25.4239 27.5113 25.7536 28.6834 26.3848C29.9277 27.0529 30.9745 28.0366 31.7187 29.2372C32.4782 30.4597 32.8951 31.8639 32.9258 33.3029C32.9258 33.3524 32.9258 33.4195 32.9258 33.4866C32.9261 34.879 32.5654 36.2476 31.879 37.4589C31.1615 38.7302 30.1111 39.7819 28.8408 40.5009C27.6306 41.1867 26.2635 41.5474 24.8725 41.5479ZM24.8405 27.9277H24.7617C23.8092 27.9484 22.8777 28.2125 22.0559 28.6948C21.2434 29.1741 20.5653 29.8513 20.0849 30.6634C19.6093 31.48 19.3503 32.4046 19.3327 33.3495C19.3327 33.402 19.3327 33.4399 19.3327 33.4778C19.332 34.3938 19.5585 35.2957 19.9916 36.1027C20.453 36.9636 21.1328 37.6878 21.9627 38.2027C22.8046 38.7251 23.7712 39.0121 24.7617 39.0339H24.8901C25.8496 39.035 26.793 38.7867 27.6279 38.3135C28.5046 37.8172 29.2294 37.0912 29.7243 36.2136C30.197 35.3793 30.4451 34.4367 30.4445 33.4778V33.3671C30.4229 32.3703 30.135 31.3975 29.6106 30.5497C29.0976 29.7218 28.3755 29.0437 27.5171 28.5839C26.6966 28.1456 25.7794 27.92 24.8492 27.9277H24.8405Z" fill="#0072FF"/>
<path d="M28.0982 28.735C27.8792 28.7358 27.6639 28.6784 27.4743 28.5687C27.3316 28.4865 27.2066 28.377 27.1064 28.2465C27.0062 28.1159 26.9327 27.9668 26.8901 27.8077C26.8476 27.6487 26.8369 27.4828 26.8586 27.3196C26.8802 27.1564 26.9339 26.9991 27.0165 26.8567L28.0866 24.9989C28.1687 24.8562 28.2782 24.7311 28.4087 24.6309C28.5393 24.5306 28.6883 24.4571 28.8473 24.4146C29.0063 24.372 29.1721 24.3613 29.3353 24.383C29.4984 24.4047 29.6557 24.4584 29.7981 24.541C29.9407 24.6231 30.0657 24.7326 30.166 24.8632C30.2662 24.9938 30.3397 25.1429 30.3822 25.3019C30.4247 25.461 30.4355 25.6268 30.4138 25.79C30.3921 25.9532 30.3384 26.1106 30.2559 26.253L29.1858 28.1079C29.0756 28.2988 28.9171 28.4573 28.7261 28.5674C28.5352 28.6775 28.3186 28.7353 28.0982 28.735Z" fill="#0072FF"/>
<path d="M20.279 42.2832C20.0598 42.283 19.8444 42.2246 19.6551 42.114C19.3671 41.948 19.1568 41.6744 19.0704 41.3534C18.984 41.0323 19.0286 40.6902 19.1944 40.402L20.2091 38.6521C20.3755 38.3645 20.6492 38.1548 20.9701 38.069C21.291 37.9831 21.6329 38.0281 21.9206 38.1942C22.2081 38.3607 22.4177 38.6345 22.5036 38.9555C22.5894 39.2764 22.5443 39.6184 22.3784 39.9062L21.3666 41.6561C21.2564 41.847 21.0979 42.0055 20.9069 42.1156C20.716 42.2257 20.4994 42.2835 20.279 42.2832Z" fill="#0072FF"/>
</svg>
