<svg width="59" height="71" viewBox="0 0 59 71" fill="none" xmlns="http://www.w3.org/2000/svg">
<path d="M41.0267 14.6137C39.4326 14.6121 37.9042 13.978 36.7769 12.8504C35.6497 11.7229 35.0158 10.1941 35.0142 8.59948V0.251954H8.15031C7.11964 0.251571 6.09896 0.454303 5.14663 0.848569C4.1943 1.24284 3.32899 1.82092 2.60005 2.54978C1.87112 3.27864 1.29288 4.14401 0.898371 5.09646C0.50386 6.04891 0.300781 7.06976 0.300781 8.10072V55.4151C0.303872 57.4952 1.13233 59.489 2.60415 60.9585C4.07597 62.428 6.07078 63.2529 8.15031 63.2522H40.3998C41.4303 63.2522 42.4506 63.0491 43.4026 62.6547C44.3546 62.2603 45.2196 61.6821 45.9482 60.9533C46.6769 60.2245 47.2548 59.3592 47.6491 58.407C48.0435 57.4547 48.2464 56.4341 48.2464 55.4034V14.6137H41.0267Z" fill="#FFE8EA"/>
<path d="M48.2478 14.6137H41.0281C39.434 14.6121 37.9056 13.978 36.7784 12.8504C35.6511 11.7229 35.0172 10.1941 35.0156 8.59948V0.251953L48.2478 14.6137Z" fill="#FF3E4C"/>
<path d="M53.9398 50.0103H17.4797C14.8935 50.0103 12.7969 52.1075 12.7969 54.6945V65.5678C12.7969 68.1548 14.8935 70.252 17.4797 70.252H53.9398C56.5261 70.252 58.6227 68.1548 58.6227 65.5678V54.6945C58.6227 52.1075 56.5261 50.0103 53.9398 50.0103Z" fill="#FF3E4C"/>
<path d="M25.7787 62.4854V64.6058H23.5859V62.4854H25.7787Z" fill="white"/>
<path d="M32.6047 55.835V57.5237H29.0066V59.4604H31.7854V61.0733H29.0066V64.62H26.8867V55.8495L32.6047 55.835Z" fill="white"/>
<path d="M35.8122 62.9808H38.6406V64.6054H33.6836V55.835H35.8034L35.8122 62.9808Z" fill="white"/>
<path d="M41.2549 55.835L43.401 62.4354L45.547 55.835H47.8156L44.7656 64.6054H42.0247L38.9863 55.835H41.2549Z" fill="white"/>
<path d="M35.1296 38.7256V24.8102C35.1299 24.7427 35.124 24.6754 35.1121 24.6089C35.1111 24.5895 35.1111 24.57 35.1121 24.5506C35.1121 24.5039 35.0859 24.4602 35.0713 24.4164L35.0451 24.3581C35.0251 24.316 35.0027 24.2751 34.978 24.2356C34.97 24.219 34.9603 24.2034 34.9489 24.1889C34.9131 24.1362 34.8731 24.0864 34.8293 24.0402L34.806 24.0227C34.7676 23.9838 34.7256 23.9487 34.6806 23.9177L34.631 23.8856C34.5931 23.8623 34.5523 23.8418 34.5115 23.8214L34.4531 23.7952C34.4065 23.7775 34.3588 23.7629 34.3103 23.7514H34.2636C34.1975 23.7371 34.13 23.7303 34.0624 23.731H14.4095C14.1395 23.7557 13.8885 23.8804 13.7057 24.0805C13.5228 24.2807 13.4213 24.542 13.421 24.8131C13.4196 24.8296 13.4196 24.8462 13.421 24.8627V38.7694C13.4139 38.9485 13.4708 39.1242 13.5814 39.2652C13.6772 39.4267 13.8133 39.5604 13.9764 39.6535C14.1394 39.7465 14.3238 39.7957 14.5115 39.7961H34.0478C34.3318 39.7931 34.6035 39.6797 34.8054 39.48C35.0073 39.2802 35.1236 39.0096 35.1296 38.7256ZM14.5757 26.3502V24.2385H16.2931V26.3502H14.5757ZM17.474 26.3502V24.2385H19.1915V26.3502H17.474ZM20.3724 26.3502V24.2385H22.0899V26.3502H20.3724ZM23.2708 26.3502V24.2385H24.9882V26.3502H23.2708ZM26.1692 26.3502V24.2385H27.8866V26.3502H26.1692ZM29.0646 26.3502V24.2385H30.7821V26.3502H29.0646ZM31.963 26.3502V24.2385H33.6804V26.3502H31.963ZM14.1762 36.5906V26.9219H34.3599V36.5906H14.1762ZM14.5698 39.2711V37.1594H16.2873V39.2711H14.5698ZM17.4682 39.2711V37.1594H19.1857V39.2711H17.4682ZM20.3666 39.2711V37.1594H22.084V39.2711H20.3666ZM23.265 39.2711V37.1594H24.9824V39.2711H23.265ZM26.1633 39.2711V37.1594H27.8808V39.2711H26.1633ZM29.0588 39.2711V37.1594H30.7762V39.2711H29.0588ZM31.9572 39.2711V37.1594H33.6746V39.2711H31.9572Z" fill="#FF3E4C"/>
<path d="M26.6109 31.0406L23.8204 29.4277C23.676 29.3443 23.5121 29.3003 23.3454 29.3003C23.1786 29.3003 23.0147 29.3441 22.8702 29.4274C22.7258 29.5108 22.6057 29.6307 22.5222 29.7751C22.4387 29.9195 22.3947 30.0833 22.3945 30.2502V33.476C22.3947 33.6428 22.4387 33.8067 22.5222 33.9511C22.6057 34.0955 22.7258 34.2154 22.8702 34.2988C23.0147 34.3821 23.1786 34.426 23.3454 34.4259C23.5121 34.4259 23.676 34.3819 23.8204 34.2985L26.6109 32.6856C26.7549 32.602 26.8745 32.4821 26.9577 32.3377C27.0408 32.1934 27.0846 32.0297 27.0846 31.8631C27.0846 31.6965 27.0408 31.5329 26.9577 31.3885C26.8745 31.2442 26.7549 31.1242 26.6109 31.0406Z" fill="#FF3E4C"/>
</svg>
