<svg width="60" height="60" viewBox="0 0 60 60" fill="none" xmlns="http://www.w3.org/2000/svg">
<path d="M59.055 35.8309V29.411L59.0492 26.3556L59.055 24.1689H0.744995V35.8309C0.744995 46.8253 0.744995 52.3239 4.16196 55.738C7.57601 59.1549 13.0746 59.1549 24.069 59.1549H35.731C46.7253 59.1549 52.224 59.1549 55.638 55.738C59.055 52.3239 59.055 46.8253 59.055 35.8309Z" fill="#8E9EAE"/>
<path opacity="0.5" d="M26.9845 6.67573L25.381 5.0722C24.5821 4.27336 24.1856 3.87685 23.7658 3.52699C21.9601 2.03028 19.7451 1.11279 17.41 0.89429C16.8677 0.844726 16.3021 0.844727 15.1767 0.844727C12.6023 0.844727 11.3166 0.844726 10.2437 1.04881C7.93998 1.48387 5.82088 2.60317 4.16285 4.26068C2.50483 5.91818 1.38486 8.03693 0.94908 10.3405C0.744995 11.4163 0.744995 12.705 0.744995 15.2765V24.1687H59.055L58.918 21.9821C58.708 18.9237 58.1716 16.9179 56.8101 15.4047C56.6042 15.1746 56.3862 14.9557 56.157 14.7487C53.6642 12.5067 49.8245 12.5067 42.1509 12.5067H41.0605C37.699 12.5067 36.0167 12.5067 34.4482 12.0607C33.5874 11.8146 32.7578 11.4702 31.9758 11.0344C30.5531 10.2443 29.3635 9.05186 26.9845 6.67573Z" fill="#8E9EAE"/>
</svg>
