<svg width="60" height="71" viewBox="0 0 60 71" fill="none" xmlns="http://www.w3.org/2000/svg">
<path d="M41.5736 14.6137C39.9795 14.6121 38.4511 13.978 37.3238 12.8504C36.1966 11.7229 35.5626 10.1941 35.5611 8.59948V0.251954H8.69719C7.66651 0.251571 6.64584 0.454303 5.69351 0.848569C4.74118 1.24284 3.87583 1.82092 3.14689 2.54978C2.41796 3.27864 1.83972 4.14401 1.44521 5.09646C1.0507 6.04891 0.847656 7.06976 0.847656 8.10072V55.4151C0.850747 57.4952 1.6792 59.489 3.15102 60.9585C4.62284 62.428 6.61766 63.2529 8.69719 63.2522H40.9467C43.0278 63.2522 45.0236 62.4252 46.4951 60.9533C47.9666 59.4814 48.7933 57.485 48.7933 55.4034V14.6137H41.5736Z" fill="#FFF3E1"/>
<path d="M48.7947 14.6137H41.5751C39.9809 14.6121 38.4525 13.978 37.3253 12.8504C36.198 11.7229 35.564 10.1941 35.5625 8.59948V0.251953L48.7947 14.6137Z" fill="#FF9908"/>
<path d="M54.4867 50.0103H18.0266C15.4403 50.0103 13.3438 52.1075 13.3438 54.6945V65.5678C13.3438 68.1548 15.4403 70.252 18.0266 70.252H54.4867C57.073 70.252 59.1696 68.1548 59.1696 65.5678V54.6945C59.1696 52.1075 57.073 50.0103 54.4867 50.0103Z" fill="#FF9908"/>
<path d="M27.223 62.4854V64.6058H25.0273V62.4854H27.223Z" fill="white"/>
<path d="M35.149 56.5442C35.8566 57.0738 36.3319 57.8566 36.4757 58.7288H34.2305C34.0833 58.4154 33.8457 58.1533 33.5482 57.9763C33.2152 57.7781 32.8334 57.6771 32.446 57.6846C32.1443 57.6721 31.8436 57.726 31.565 57.8424C31.2864 57.9588 31.0367 58.135 30.8335 58.3584C30.4064 58.8701 30.1887 59.5244 30.2241 60.1901C30.2241 61.0242 30.4369 61.6649 30.8627 62.1122C31.1025 62.3446 31.3882 62.5243 31.7016 62.6398C32.0149 62.7554 32.3489 62.8041 32.6822 62.783C33.1579 62.7912 33.6234 62.6449 34.0089 62.3659C34.4006 62.0709 34.6836 61.6545 34.8137 61.1817H32.134V59.6563H36.5865V61.7942C36.4163 62.3163 36.147 62.8005 35.7934 63.2205C35.4109 63.6723 34.9355 64.0364 34.3996 64.288C33.7913 64.5686 33.1275 64.7082 32.4577 64.6963C31.6438 64.7173 30.8388 64.5221 30.125 64.1305C29.4714 63.7633 28.9386 63.2141 28.5912 62.5497C28.2229 61.8331 28.0375 61.0365 28.0518 60.2309C28.0356 59.4204 28.221 58.6186 28.5912 57.8976C28.938 57.2346 29.4685 56.6857 30.1191 56.3167C30.8228 55.929 31.6166 55.7348 32.4198 55.7538C33.3921 55.7061 34.3525 55.9843 35.149 56.5442Z" fill="white"/>
<path d="M39.9011 55.835V64.6054H37.7812V55.835H39.9011Z" fill="white"/>
<path d="M47.0833 55.835V57.5237H43.4851V59.4604H46.2639V61.0733H43.4851V64.62H41.3652V55.8495L47.0833 55.835Z" fill="white"/>
<path d="M23.4871 45.2943C20.306 45.2904 17.2563 44.0247 15.0069 41.7747C12.7575 39.5247 11.4921 36.4741 11.4883 33.2922C11.4921 30.1102 12.7575 27.0596 15.0069 24.8096C17.2563 22.5596 20.306 21.2939 23.4871 21.29C26.6682 21.2939 29.7179 22.5596 31.9672 24.8096C34.2166 27.0596 35.482 30.1102 35.4859 33.2922C35.482 36.4741 34.2166 39.5247 31.9672 41.7747C29.7179 44.0247 26.6682 45.2904 23.4871 45.2943ZM23.4871 23.393C20.8638 23.3976 18.3493 24.442 16.4943 26.2975C14.6394 28.1529 13.5952 30.6682 13.5906 33.2922C13.5952 35.9162 14.6394 38.4314 16.4943 40.2868C18.3493 42.1423 20.8638 43.1867 23.4871 43.1913C26.1104 43.1867 28.6249 42.1423 30.4798 40.2868C32.3348 38.4314 33.3789 35.9162 33.3835 33.2922C33.3789 30.6682 32.3348 28.1529 30.4798 26.2975C28.6249 24.442 26.1104 23.3976 23.4871 23.393Z" fill="#FF9908"/>
<path d="M23.4847 40.0183C22.1136 40.0203 20.7633 39.6834 19.5536 39.0377C18.344 38.392 17.3125 37.4575 16.5508 36.3171L18.3003 35.1504C18.8693 36.0023 19.6395 36.7006 20.5429 37.1834C21.4462 37.6662 22.4547 37.9186 23.4789 37.9183C24.5035 37.9188 25.5123 37.6662 26.4157 37.1828C27.3192 36.6994 28.0892 36.0002 28.6575 35.1475L30.407 36.3141C29.6469 37.4536 28.6175 38.3879 27.41 39.034C26.2025 39.6802 24.8542 40.0183 23.4847 40.0183Z" fill="#FF9908"/>
<path d="M20.1584 31.4519C20.9298 31.4519 21.5551 30.8264 21.5551 30.0548C21.5551 29.2832 20.9298 28.6577 20.1584 28.6577C19.387 28.6577 18.7617 29.2832 18.7617 30.0548C18.7617 30.8264 19.387 31.4519 20.1584 31.4519Z" fill="#FF9908"/>
<path d="M26.8127 31.4519C27.5841 31.4519 28.2094 30.8264 28.2094 30.0548C28.2094 29.2832 27.5841 28.6577 26.8127 28.6577C26.0413 28.6577 25.416 29.2832 25.416 30.0548C25.416 30.8264 26.0413 31.4519 26.8127 31.4519Z" fill="#FF9908"/>
</svg>
