<svg width="59" height="71" viewBox="0 0 59 71" fill="none" xmlns="http://www.w3.org/2000/svg">
<path d="M40.8373 15.0434C39.2431 15.0418 37.7147 14.4077 36.5875 13.2801C35.4602 12.1526 34.8263 10.6238 34.8248 9.02917V0.681641H7.95791C5.87737 0.68164 3.88201 1.50817 2.41057 2.97947C0.939126 4.45077 0.112101 6.44638 0.111328 8.5275V55.8418C0.113646 57.9219 0.941357 59.9161 2.41263 61.3861C3.8839 62.8561 5.87838 63.6819 7.95791 63.6819H40.2075C41.2381 63.6823 42.2588 63.4795 43.2111 63.0853C44.1634 62.691 45.0288 62.1129 45.7577 61.384C46.4867 60.6552 47.0649 59.7898 47.4594 58.8374C47.8539 57.8849 48.057 56.8641 48.057 55.8331V15.0434H40.8373Z" fill="#E0F8EA"/>
<path d="M48.0584 15.0434H40.8387C39.2445 15.0418 37.7161 14.4077 36.5889 13.2801C35.4616 12.1526 34.8277 10.6238 34.8262 9.02917V0.681641L48.0584 15.0434Z" fill="#00C650"/>
<path d="M53.7464 50.4399H17.2864C14.7001 50.4399 12.6035 52.5371 12.6035 55.1241V65.9975C12.6035 68.5845 14.7001 70.6817 17.2864 70.6817H53.7464C56.3327 70.6817 58.4293 68.5845 58.4293 65.9975V55.1241C58.4293 52.5371 56.3327 50.4399 53.7464 50.4399Z" fill="#00C650"/>
<path d="M19.9378 62.915V65.0355H17.7422V62.915H19.9378Z" fill="white"/>
<path d="M28.635 56.2646V65.0351H26.5005V61.3747H23.1765V65.0351H21.0566V56.2646H23.1765V59.6626H26.5005V56.2646H28.635Z" fill="white"/>
<path d="M36.3952 56.2646V57.9505H34.0159V65.0351H31.8932V57.9505H29.5371V56.2646H36.3952Z" fill="white"/>
<path d="M47.1505 56.3262V65.0354H45.0161V59.5987L43.1324 65.0441H41.2954L39.4001 59.587V65.0441H37.2773V56.3349H39.8696L42.2402 62.4016L44.5583 56.3349L47.1505 56.3262Z" fill="white"/>
<path d="M50.7341 63.4105H53.5624V65.0351H48.6055V56.2646H50.7282L50.7341 63.4105Z" fill="white"/>
<path d="M12.2521 33.9871C12.2489 33.8613 12.288 33.7381 12.363 33.6371C12.4514 33.5234 12.5578 33.4249 12.6779 33.3454C12.8596 33.2507 13.0476 33.1689 13.2407 33.1004L13.8034 32.8671L16.0544 31.9192C16.3674 31.7733 16.9506 31.5303 17.804 31.19L18.8741 30.7525L19.259 30.6154L19.326 30.5862C19.3443 30.5821 19.3633 30.5821 19.3815 30.5862C19.4246 30.5669 19.4713 30.5569 19.5185 30.5571C19.6088 30.5524 19.6991 30.5657 19.7842 30.5963C19.8693 30.6268 19.9475 30.674 20.0142 30.735C20.0698 30.7888 20.1142 30.8531 20.1448 30.9242C20.1753 30.9953 20.1914 31.0718 20.1921 31.1491V31.89C20.1895 32.0279 20.1458 32.162 20.0667 32.275C19.9873 32.4024 19.8671 32.4991 19.7255 32.5492L15.1272 34.4304L19.7255 36.3117C19.8621 36.3675 19.9802 36.4605 20.0667 36.58C20.1488 36.6881 20.193 36.8204 20.1921 36.9563V37.6971C20.1903 37.855 20.1264 38.0059 20.0142 38.1171C19.9486 38.1801 19.8708 38.229 19.7855 38.2606C19.7002 38.2922 19.6093 38.3059 19.5185 38.3008C19.4716 38.3006 19.4252 38.2917 19.3815 38.2746L19.259 38.2338L18.8741 38.0967L17.804 37.6563L16.0544 36.93L13.8034 35.9821L13.2407 35.7488C13.057 35.6758 12.8704 35.5942 12.6779 35.5008C12.5581 35.4453 12.4554 35.3586 12.3806 35.2499C12.3057 35.1411 12.2613 35.0142 12.2521 34.8825V33.9871Z" fill="#00C650"/>
<path d="M21.4615 39.0947C21.2797 39.101 21.1021 39.0397 20.9629 38.9226C20.9009 38.8746 20.8507 38.8132 20.8158 38.743C20.781 38.6727 20.7625 38.5956 20.7617 38.5172C20.7617 38.4063 21.0912 37.6422 21.7502 36.1838L22.7124 34.0692L22.9165 33.6288L24.4678 30.1842L25.0159 28.9913L25.1268 28.7171C25.1693 28.6159 25.22 28.5184 25.2784 28.4255C25.3554 28.2992 25.4645 28.1956 25.5946 28.1254C25.7248 28.0552 25.8713 28.0208 26.019 28.0259H26.7042C26.8869 28.0196 27.0654 28.0809 27.2058 28.198C27.2672 28.2463 27.3169 28.3078 27.3513 28.378C27.3856 28.4482 27.4037 28.5252 27.4041 28.6034C27.1707 29.2835 26.896 29.9487 26.5818 30.5955L26.4302 30.9251L25.2638 33.4771L23.7125 36.9217L23.1644 38.1176L23.0536 38.3918C23.0144 38.5013 22.9645 38.6068 22.9048 38.7067C22.8222 38.831 22.7099 38.9327 22.578 39.0025C22.4461 39.0723 22.2989 39.108 22.1497 39.1063L21.4615 39.0947Z" fill="#00C650"/>
<path d="M28.6676 38.3069C28.575 38.3127 28.4821 38.2994 28.3948 38.2678C28.3076 38.2362 28.2277 38.187 28.1603 38.1232C28.1039 38.0687 28.0592 38.0034 28.0287 37.9313C27.9981 37.8591 27.9824 37.7815 27.9825 37.7032V36.9623C27.9811 36.8278 28.0219 36.6962 28.0991 36.5861C28.1863 36.4637 28.3081 36.3702 28.4489 36.3177L33.059 34.4365L28.4489 32.5552C28.3085 32.4932 28.1891 32.3919 28.1049 32.2636C28.0274 32.1521 27.9848 32.0201 27.9825 31.8844V31.1319C27.9825 31.0539 27.9989 30.9767 28.0305 30.9054C28.0621 30.8341 28.1083 30.7701 28.1661 30.7177C28.3037 30.5952 28.4837 30.5314 28.6676 30.5398C28.7112 30.5387 28.7544 30.5488 28.7931 30.569C28.8182 30.5646 28.8438 30.5646 28.8689 30.569L28.9301 30.5981C28.9097 30.5981 29.0351 30.6331 29.3004 30.7352L30.3851 31.1727C30.3288 31.1474 30.9119 31.3905 32.1347 31.9019C32.8014 32.1761 33.5653 32.5008 34.4265 32.8761C34.4819 32.8936 34.5548 32.9227 34.6481 32.9577L34.963 33.0831C35.1477 33.149 35.3263 33.231 35.4967 33.3281C35.6195 33.3835 35.7245 33.4721 35.7997 33.5839C35.8749 33.6957 35.9174 33.8264 35.9224 33.9611V34.8652C35.9211 34.9895 35.8802 35.11 35.8057 35.2094C35.725 35.3232 35.6193 35.417 35.4967 35.4836C35.3334 35.5652 35.1351 35.6527 34.9135 35.7461L34.3303 35.9794L29.2508 38.1057C29.105 38.1786 29.0176 38.2252 28.9913 38.2427L28.9359 38.2836L28.6676 38.3069Z" fill="#00C650"/>
</svg>
