<svg width="59" height="71" viewBox="0 0 59 71" fill="none" xmlns="http://www.w3.org/2000/svg">
<path d="M41.0248 14.7565C39.4304 14.7542 37.9021 14.1194 36.775 12.9915C35.6479 11.8635 35.0141 10.3345 35.0125 8.7397V0.392579H8.14993C7.11931 0.392196 6.09868 0.594918 5.1464 0.989165C4.19411 1.38341 3.32884 1.96145 2.59994 2.69027C1.87104 3.4191 1.29283 4.28443 0.898342 5.23683C0.50385 6.18923 0.300781 7.21007 0.300781 8.24098V55.553C0.300781 56.5839 0.50385 57.6047 0.898342 58.5571C1.29283 59.5095 1.87104 60.3748 2.59994 61.1037C3.32884 61.8325 4.19411 62.4106 5.1464 62.8048C6.09868 63.1991 7.11931 63.4018 8.14993 63.4014H40.3979C41.4283 63.4014 42.4485 63.1984 43.4005 62.804C44.3524 62.4095 45.2174 61.8314 45.946 61.1026C46.6746 60.3738 47.2525 59.5086 47.6468 58.5564C48.0411 57.6042 48.2441 56.5837 48.2441 55.553V14.7565H41.0248Z" fill="#E0EEFF"/>
<path d="M48.2452 14.7565H41.0259C39.4316 14.7542 37.9032 14.1194 36.7761 12.9915C35.649 11.8635 35.0152 10.3345 35.0137 8.7397V0.392578L48.2452 14.7565Z" fill="#0072FF"/>
<path d="M53.9358 50.1519H17.4776C14.8914 50.1519 12.7949 52.2489 12.7949 54.8358V65.7087C12.7949 68.2955 14.8914 70.3926 17.4776 70.3926H53.9358C56.522 70.3926 58.6185 68.2955 58.6185 65.7087V54.8358C58.6185 52.2489 56.522 50.1519 53.9358 50.1519Z" fill="#0072FF"/>
<path d="M26.2346 62.6255V64.7458H24.0391V62.6255H26.2346Z" fill="white"/>
<path d="M29.4556 55.9756V64.7456H27.3359V55.9756H29.4556Z" fill="white"/>
<path d="M36.8663 63.5564C36.6135 63.9592 36.2515 64.2819 35.8224 64.4868C35.3013 64.7313 34.73 64.8501 34.1546 64.8338C33.2878 64.8682 32.4339 64.6149 31.7258 64.1135C31.4117 63.8789 31.1546 63.5763 30.9739 63.2283C30.7931 62.8803 30.6933 62.4959 30.682 62.104H32.9417C32.9558 62.3999 33.082 62.6793 33.2945 62.8856C33.5044 63.0814 33.7832 63.1862 34.0701 63.1773C34.306 63.1895 34.5372 63.1089 34.7145 62.9527C34.7922 62.8772 34.8534 62.7864 34.8941 62.6859C34.9348 62.5855 34.954 62.4777 34.9506 62.3694C34.9537 62.2666 34.9359 62.1642 34.8983 62.0685C34.8607 61.9727 34.8042 61.8856 34.732 61.8123C34.5776 61.6561 34.3944 61.5312 34.1925 61.4448C33.9768 61.3515 33.6794 61.2378 33.3003 61.1036C32.8356 60.9504 32.3817 60.7662 31.9416 60.5524C31.5805 60.3651 31.2703 60.0929 31.0377 59.7591C30.7691 59.354 30.6363 58.8739 30.6587 58.3883C30.6464 57.9069 30.7851 57.4336 31.0552 57.035C31.3321 56.6458 31.7131 56.3425 32.1544 56.1601C32.6634 55.9541 33.2092 55.8548 33.7581 55.8684C34.5926 55.8217 35.4173 56.0672 36.0907 56.5625C36.3768 56.7958 36.6112 57.0862 36.7789 57.4151C36.9465 57.744 37.0438 58.1043 37.0646 58.4729H34.7699C34.7435 58.2145 34.6316 57.9722 34.452 57.7846C34.3606 57.6977 34.2524 57.6304 34.1341 57.5868C34.0158 57.5432 33.8898 57.5241 33.7639 57.5308C33.546 57.5197 33.3318 57.5904 33.1633 57.7292C33.0841 57.8032 33.0223 57.894 32.9825 57.9949C32.9427 58.0958 32.9257 58.2042 32.933 58.3125C32.9296 58.5089 33.004 58.6987 33.14 58.8404C33.2852 58.9917 33.4599 59.1118 33.6531 59.1933C33.8601 59.2837 34.1576 59.4004 34.5454 59.5403C35.018 59.6931 35.4781 59.8823 35.9216 60.1061C36.2878 60.2996 36.6026 60.5775 36.84 60.9169C37.1115 61.3275 37.2462 61.8134 37.2249 62.3052C37.2215 62.7472 37.0975 63.1798 36.8663 63.5564Z" fill="white"/>
<path d="M44.8168 56.416C45.4831 56.7948 46.0342 57.3471 46.4117 58.0143C46.8062 58.7215 47.0074 59.5203 46.9948 60.33C47.0108 61.1457 46.8095 61.951 46.4117 62.6633C46.0332 63.3339 45.48 63.8892 44.8109 64.2703C44.1293 64.6596 43.3566 64.8609 42.5717 64.8536C41.7868 64.8605 41.0142 64.6592 40.3324 64.2703C39.6635 63.89 39.1111 63.3344 38.7346 62.6633C38.3354 61.9515 38.1341 61.1459 38.1514 60.33C38.1362 59.5199 38.3375 58.7205 38.7346 58.0143C39.113 57.3469 39.6652 56.7946 40.3324 56.416C41.0142 56.0271 41.7868 55.8258 42.5717 55.8327C43.3584 55.8253 44.1331 56.0266 44.8168 56.416ZM40.9097 58.4868C40.4793 59.0013 40.2604 59.6602 40.2974 60.33C40.2627 60.9969 40.4814 61.6523 40.9097 62.1645C41.1192 62.3923 41.376 62.5714 41.6622 62.6893C41.9483 62.8072 42.2567 62.861 42.5658 62.847C42.8739 62.8598 43.1811 62.8054 43.4661 62.6875C43.7511 62.5697 44.007 62.3912 44.2161 62.1645C44.6483 61.6542 44.8694 60.998 44.8343 60.33C44.8694 59.6622 44.6507 59.0058 44.222 58.4926C44.0126 58.2647 43.7557 58.0854 43.4696 57.9675C43.1835 57.8496 42.875 57.7959 42.5658 57.8101C42.2583 57.7974 41.9516 57.8512 41.6667 57.968C41.3819 58.0848 41.1257 58.2617 40.9155 58.4868H40.9097Z" fill="white"/>
<path d="M23.1886 42.8571C20.4397 42.854 17.8043 41.7604 15.8605 39.8161C13.9168 37.8718 12.8234 35.2356 12.8203 32.486C12.8234 29.7363 13.9168 27.1001 15.8605 25.1558C17.8043 23.2115 20.4397 22.1178 23.1886 22.1147C25.9375 22.1178 28.573 23.2115 30.5167 25.1558C32.4605 27.1001 33.5539 29.7363 33.557 32.486C33.5539 35.2356 32.4605 37.8718 30.5167 39.8161C28.573 41.7604 25.9375 42.854 23.1886 42.8571ZM23.1886 22.733C20.6065 22.7354 18.1308 23.7624 16.305 25.5887C14.4792 27.4151 13.4524 29.8915 13.4501 32.4743C13.4532 35.0569 14.4802 37.5328 16.3059 39.359C18.1315 41.1851 20.6068 42.2124 23.1886 42.2155C25.7705 42.2124 28.2457 41.1851 30.0714 39.359C31.8971 37.5328 32.9241 35.0569 32.9272 32.4743C32.9218 29.8935 31.8936 27.4201 30.0681 25.5963C28.2426 23.7725 25.7687 22.747 23.1886 22.7447V22.733Z" fill="#0072FF"/>
<path d="M23.2047 22.374V30.622C22.7111 30.6227 22.2379 30.8194 21.8891 31.1688C21.5404 31.5183 21.3445 31.9919 21.3445 32.4856C21.3446 32.8098 21.429 33.1284 21.5894 33.4101L14.4838 37.5137L14.3263 37.2221C13.5405 35.7567 13.1298 34.1194 13.1309 32.4564C13.1309 32.3748 13.1309 32.299 13.1309 32.2231C13.1665 30.5003 13.6455 28.8158 14.5217 27.3321C15.3935 25.8573 16.6242 24.6273 18.0993 23.7564C19.5822 22.8817 21.2649 22.4027 22.986 22.3652L23.2047 22.374Z" fill="#0072FF"/>
<path d="M33.2935 32.4743C33.2947 34.2122 32.8446 35.9207 31.9872 37.4324C31.0879 39.0256 29.7714 40.3435 28.1793 41.2443C26.664 42.1081 24.9492 42.5606 23.2051 42.5567V34.3467C23.6957 34.3421 24.1647 34.1441 24.5102 33.7957C24.8558 33.4473 25.05 32.9767 25.0507 32.4859C25.0522 32.1567 24.9646 31.8331 24.7971 31.5497L31.9435 27.4199C32.7909 28.8858 33.2542 30.5422 33.2906 32.2351C33.2935 32.311 33.2935 32.3868 33.2935 32.4743Z" fill="#0072FF"/>
<path d="M23.1892 33.7576C22.8521 33.7576 22.5287 33.6236 22.2903 33.3851C22.0519 33.1466 21.918 32.8232 21.918 32.4859C21.918 32.1484 22.0518 31.8247 22.2902 31.5857C22.5285 31.3468 22.8518 31.2122 23.1892 31.2114C23.5266 31.2122 23.85 31.3468 24.0883 31.5857C24.3266 31.8247 24.4605 32.1484 24.4605 32.4859C24.4605 32.8232 24.3266 33.1466 24.0881 33.3851C23.8497 33.6236 23.5264 33.7576 23.1892 33.7576ZM23.1892 31.8443C23.0191 31.8443 22.856 31.9119 22.7357 32.0322C22.6154 32.1526 22.5478 32.3158 22.5478 32.4859C22.5485 32.6559 22.6164 32.8186 22.7365 32.9388C22.8566 33.059 23.0193 33.1268 23.1892 33.1276C23.3591 33.1268 23.5218 33.059 23.642 32.9388C23.7621 32.8186 23.8299 32.6559 23.8307 32.4859C23.8307 32.4017 23.8141 32.3182 23.7819 32.2404C23.7496 32.1626 23.7024 32.0918 23.6428 32.0322C23.5832 31.9727 23.5125 31.9254 23.4347 31.8931C23.3569 31.8609 23.2735 31.8443 23.1892 31.8443Z" fill="#0072FF"/>
</svg>
