<svg width="60" height="71" viewBox="0 0 60 71" fill="none" xmlns="http://www.w3.org/2000/svg">
<path d="M41.4935 15.0434C39.8991 15.0418 38.3703 14.4078 37.2427 13.2803C36.115 12.1529 35.4804 10.624 35.478 9.02917V0.681641H8.60244C6.52139 0.681641 4.52559 1.50856 3.05407 2.98049C1.58254 4.45242 0.755859 6.44879 0.755859 8.53042V55.8448C0.75895 57.9244 1.587 59.9177 3.05819 61.3871C4.52938 62.8565 6.52341 63.6819 8.60244 63.6819H40.852C42.9331 63.6819 44.9288 62.8549 46.4003 61.383C47.8719 59.9111 48.6986 57.9147 48.6986 55.8331V15.0434H41.4935Z" fill="#FFE8EA"/>
<path d="M48.6991 15.0434H41.494C39.8995 15.0418 38.3708 14.4078 37.2431 13.2803C36.1154 12.1529 35.4808 10.624 35.4785 9.02917V0.681641L48.6991 15.0434Z" fill="#FF3E4C"/>
<path d="M54.391 50.4399H17.9309C15.3446 50.4399 13.248 52.5371 13.248 55.1241V65.9975C13.248 68.5845 15.3446 70.6817 17.9309 70.6817H54.391C56.9773 70.6817 59.0739 68.5845 59.0739 65.9975V55.1241C59.0739 52.5371 56.9773 50.4399 54.391 50.4399Z" fill="#FF3E4C"/>
<path d="M20.2074 62.915V65.0355H18.0117V62.915H20.2074Z" fill="white"/>
<path d="M26.714 56.2646V62.2555C26.714 63.1742 26.4632 63.8801 25.9617 64.3788C25.6833 64.636 25.3561 64.8344 24.9993 64.9622C24.6426 65.0899 24.2638 65.1445 23.8856 65.1226C23.4702 65.1444 23.0546 65.0837 22.6627 64.944C22.2708 64.8043 21.9105 64.5885 21.6025 64.3088C21.0397 63.7693 20.7598 62.9876 20.7598 61.9755H22.8563C22.8563 62.7961 23.1663 63.2063 23.7864 63.2063C24.323 63.2063 24.5912 62.8913 24.5912 62.2613V56.2705L26.714 56.2646Z" fill="white"/>
<path d="M33.5435 63.4341H30.2573L29.7121 65.0354H27.4785L30.686 56.3262H33.1295L36.3369 65.0354H34.08L33.5435 63.4341ZM32.9983 61.8212L31.9077 58.5983L30.8026 61.8212H32.9983Z" fill="white"/>
<path d="M38.8057 56.2646L40.9488 62.8651L43.0949 56.2646H45.3664L42.3135 65.0351H39.5725L36.5371 56.2646H38.8057Z" fill="white"/>
<path d="M51.6158 63.4341H48.3296L47.7844 65.0354H45.5508L48.7582 56.3262H51.2018L54.4092 65.0354H52.1524L51.6158 63.4341ZM51.0706 61.8212L49.98 58.5983L48.8749 61.8212H51.0706Z" fill="white"/>
<path d="M20.3229 45.6397H19.6785C18.1914 45.6397 17.0066 45.2032 16.1241 44.3302C15.2415 43.4571 14.8012 42.2778 14.8032 40.7922V36.0322C14.8032 34.2122 14.0791 33.3022 12.6309 33.3022V31.068C14.0791 31.068 14.8032 30.158 14.8032 28.338V23.578C14.8032 22.0905 15.2435 20.9102 16.1241 20.0371C17.0047 19.1641 18.1895 18.7285 19.6785 18.7305H20.3229V20.9647H19.8826C18.1331 20.9647 17.2583 21.9534 17.2583 23.9309V28.8076C17.237 30.5576 16.5566 31.664 15.2172 32.1268V32.2434C16.5294 32.6751 17.2097 33.7523 17.2583 35.4751V40.4335C17.2583 42.411 18.1331 43.3997 19.8826 43.3997H20.3229V45.6397Z" fill="#FF3E4C"/>
<path d="M29.127 45.6388V43.4046H29.5673C31.3168 43.4046 32.1915 42.4159 32.1915 40.4383V35.48C32.2304 33.7553 32.9108 32.678 34.2326 32.2483V32.1316C32.8991 31.6611 32.2188 30.5547 32.1915 28.8125V23.9358C32.1915 21.9583 31.3168 20.9695 29.5673 20.9695H29.127V18.7354H29.7743C31.2614 18.7354 32.4452 19.1709 33.3258 20.042C34.2064 20.9131 34.6477 22.0934 34.6496 23.5829V28.3429C34.6496 30.1629 35.3737 31.0729 36.8219 31.0729V33.3071C35.3737 33.3071 34.6496 34.2171 34.6496 36.0371V40.7971C34.6496 42.2846 34.2084 43.4639 33.3258 44.335C32.4433 45.2061 31.2595 45.6427 29.7743 45.6446L29.127 45.6388Z" fill="#FF3E4C"/>
<path d="M24.484 25.8148C25.5517 25.8148 26.4172 24.949 26.4172 23.8811C26.4172 22.8131 25.5517 21.9473 24.484 21.9473C23.4163 21.9473 22.5508 22.8131 22.5508 23.8811C22.5508 24.949 23.4163 25.8148 24.484 25.8148Z" fill="#FF3E4C"/>
<path d="M24.484 34.118C25.5517 34.118 26.4172 33.2523 26.4172 32.1843C26.4172 31.1163 25.5517 30.2505 24.484 30.2505C23.4163 30.2505 22.5508 31.1163 22.5508 32.1843C22.5508 33.2523 23.4163 34.118 24.484 34.118Z" fill="#FF3E4C"/>
<path d="M24.484 42.4222C25.5517 42.4222 26.4172 41.5564 26.4172 40.4884C26.4172 39.4204 25.5517 38.5547 24.484 38.5547C23.4163 38.5547 22.5508 39.4204 22.5508 40.4884C22.5508 41.5564 23.4163 42.4222 24.484 42.4222Z" fill="#FF3E4C"/>
</svg>
