<svg width="59" height="71" viewBox="0 0 59 71" fill="none" xmlns="http://www.w3.org/2000/svg">
<path d="M41.3862 15.184C39.7918 15.1832 38.2629 14.5493 37.1355 13.4216C36.0081 12.2939 35.3744 10.7646 35.3736 9.16979V0.822266H8.50681C7.47613 0.822266 6.45556 1.02536 5.50338 1.41998C4.55119 1.81461 3.68599 2.393 2.95733 3.12214C2.22867 3.85127 1.6508 4.71687 1.25664 5.66946C0.862486 6.62205 0.659774 7.64301 0.660157 8.67397V55.9854C0.659774 57.0163 0.862486 58.0373 1.25664 58.9898C1.6508 59.9424 2.22867 60.808 2.95733 61.5372C3.68599 62.2663 4.55119 62.8447 5.50338 63.2393C6.45556 63.6339 7.47613 63.8371 8.50681 63.8371H40.7563C41.787 63.8371 42.8075 63.6339 43.7597 63.2393C44.7119 62.8447 45.577 62.2663 46.3057 61.5372C47.0344 60.808 47.6123 59.9424 48.0064 58.9898C48.4006 58.0373 48.6033 57.0163 48.6029 55.9854V15.1869L41.3862 15.184Z" fill="#E0F8EA"/>
<path d="M48.6043 15.184H41.3876C39.7932 15.1832 38.2643 14.5493 37.1369 13.4216C36.0095 12.2939 35.3758 10.7646 35.375 9.16979V0.822266L48.6043 15.184Z" fill="#00C650"/>
<path d="M54.2953 50.5806H17.8352C15.249 50.5806 13.1523 52.6778 13.1523 55.2648V66.1381C13.1523 68.7251 15.249 70.8223 17.8352 70.8223H54.2953C56.8816 70.8223 58.9781 68.7251 58.9781 66.1381V55.2648C58.9781 52.6778 56.8816 50.5806 54.2953 50.5806Z" fill="#00C650"/>
<path d="M25.2171 63.0557V65.179H23.0215V63.0557H25.2171Z" fill="white"/>
<path d="M31.7354 56.4082V62.3991C31.7354 63.3188 31.4856 64.0256 30.986 64.5195C30.7072 64.7767 30.3794 64.9751 30.0222 65.1029C29.665 65.2307 29.2858 65.2852 28.9071 65.2632C28.4923 65.2855 28.0772 65.2253 27.6858 65.0861C27.2944 64.947 26.9345 64.7316 26.6268 64.4524C26.065 63.9099 25.7832 63.1321 25.7812 62.1191H27.8777C27.8777 62.9387 28.1897 63.347 28.8079 63.347C29.3473 63.347 29.6156 63.032 29.6156 62.4049V56.414L31.7354 56.4082Z" fill="white"/>
<path d="M35.2527 62.1016V65.1787H33.1328V56.4082H36.5677C37.6077 56.4082 38.4008 56.6658 38.947 57.1811C39.2235 57.4521 39.4394 57.7785 39.5806 58.139C39.7218 58.4994 39.7852 58.8857 39.7664 59.2724C39.7744 59.782 39.6487 60.2848 39.4019 60.7307C39.148 61.1655 38.7704 61.5148 38.3172 61.7341C37.7713 61.9933 37.1717 62.1192 36.5677 62.1016H35.2527ZM37.6086 59.2724C37.6086 58.4946 37.1829 58.1057 36.3315 58.1057H35.2527V60.3895H36.3315C37.1829 60.3973 37.6086 60.0249 37.6086 59.2724Z" fill="white"/>
<path d="M47.6286 57.1143C48.3346 57.6454 48.8096 58.4275 48.9553 59.2989H46.7101C46.5582 58.9937 46.3185 58.7408 46.0219 58.5727C45.688 58.3742 45.3052 58.2732 44.9168 58.281C44.6153 58.2687 44.3148 58.323 44.0366 58.4399C43.7585 58.5569 43.5094 58.7336 43.3072 58.9577C42.8796 59.4679 42.6618 60.1216 42.6979 60.7864C42.6979 61.6206 42.9107 62.2613 43.3364 62.7085C43.5758 62.9407 43.8611 63.1204 44.1739 63.2359C44.4867 63.3514 44.8202 63.4003 45.153 63.3794C45.6288 63.388 46.0945 63.2416 46.4798 62.9623C46.8732 62.6684 47.1574 62.2517 47.2875 61.7781H44.6077V60.2527H49.0603V62.3498C48.8902 62.8718 48.6209 63.3561 48.2671 63.776C47.8841 64.2285 47.4076 64.5927 46.8704 64.8435C46.2631 65.1242 45.6003 65.2638 44.9314 65.2519C44.1178 65.2732 43.3131 65.079 42.5987 64.6889C41.9452 64.3213 41.4132 63.7709 41.0679 63.1052C40.6969 62.3844 40.5114 61.5824 40.5284 60.7719C40.5138 59.9662 40.6992 59.1695 41.0679 58.4531C41.4126 57.7889 41.9423 57.2388 42.5929 56.8693C43.2968 56.4823 44.0904 56.2881 44.8935 56.3064C45.8696 56.2639 46.8321 56.5482 47.6286 57.1143Z" fill="white"/>
<path d="M31.0727 43.5251H18.1933C16.9325 43.5236 15.7237 43.0219 14.8321 42.1301C13.9406 41.2383 13.439 40.0292 13.4375 38.768V25.885C13.439 24.6239 13.9406 23.4148 14.8321 22.523C15.7237 21.6312 16.9325 21.1295 18.1933 21.1279H31.0727C32.3332 21.1295 33.5417 21.6313 34.4328 22.5231C35.3238 23.415 35.8248 24.6241 35.8256 25.885V38.768C35.8248 40.0289 35.3238 41.238 34.4328 42.1299C33.5417 43.0218 32.3332 43.5236 31.0727 43.5251ZM18.1933 23.2308C17.4898 23.2316 16.8153 23.5115 16.3178 24.0091C15.8204 24.5067 15.5406 25.1814 15.5398 25.885V38.768C15.5406 39.4717 15.8204 40.1463 16.3178 40.6439C16.8153 41.1415 17.4898 41.4214 18.1933 41.4222H31.0727C31.7759 41.4214 32.4501 41.1414 32.9471 40.6437C33.444 40.1461 33.7232 39.4714 33.7232 38.768V25.885C33.7232 25.1816 33.444 24.507 32.9471 24.0093C32.4501 23.5116 31.7759 23.2316 31.0727 23.2308H18.1933Z" fill="#00C650"/>
<path d="M34.7759 36.3183V38.7683C34.7751 39.7504 34.3847 40.6922 33.6904 41.3867C32.9961 42.0812 32.0546 42.4717 31.0727 42.4725H18.1934C17.2112 42.4725 16.2693 42.0822 15.5749 41.3875C14.8804 40.6928 14.4902 39.7507 14.4902 38.7683V34.6558C16.5518 34.2124 19.6921 34.0724 23.5032 35.5949L25.865 33.3433L27.4745 37.4266C27.4745 37.4266 27.9061 35.9245 29.2999 36.1374C30.6937 36.3503 32.9506 37.1058 33.9157 36.4612C34.1758 36.3111 34.4813 36.2604 34.7759 36.3183Z" fill="#00C650"/>
<path d="M30.2657 28.5165C31.0564 28.5165 31.6974 27.8754 31.6974 27.0844C31.6974 26.2935 31.0564 25.6523 30.2657 25.6523C29.4749 25.6523 28.834 26.2935 28.834 27.0844C28.834 27.8754 29.4749 28.5165 30.2657 28.5165Z" fill="#00C650"/>
</svg>
