<svg width="60" height="71" viewBox="0 0 60 71" fill="none" xmlns="http://www.w3.org/2000/svg">
<path d="M41.6693 14.7565C40.075 14.7542 38.5466 14.1194 37.4195 12.9915C36.2924 11.8635 35.6586 10.3345 35.6571 8.7397V0.392578H8.79154C6.71059 0.392578 4.71487 1.21945 3.24342 2.69131C1.77197 4.16317 0.945313 6.15946 0.945312 8.24098V55.553C0.948403 57.6325 1.77642 59.6258 3.24754 61.0951C4.71866 62.5645 6.71261 63.3897 8.79154 63.3897H41.0395C42.0701 63.3901 43.0907 63.1874 44.043 62.7931C44.9953 62.3989 45.8606 61.8209 46.5895 61.092C47.3184 60.3632 47.8966 59.4979 48.2911 58.5455C48.6856 57.5931 48.8886 56.5722 48.8886 55.5413V14.7448L41.6693 14.7565Z" fill="#F4E8FF"/>
<path d="M48.8898 14.7565H41.6704C40.0761 14.7542 38.5478 14.1194 37.4207 12.9915C36.2936 11.8635 35.6597 10.3345 35.6582 8.7397V0.392578L48.8898 14.7565Z" fill="#A140FF"/>
<path d="M54.5765 50.1519H18.1182C15.532 50.1519 13.4355 52.2489 13.4355 54.8358V65.7087C13.4355 68.2955 15.532 70.3926 18.1182 70.3926H54.5765C57.1626 70.3926 59.2591 68.2955 59.2591 65.7087V54.8358C59.2591 52.2489 57.1626 50.1519 54.5765 50.1519Z" fill="#A140FF"/>
<path d="M22.8743 62.6255V64.7458H20.6816V62.6255H22.8743Z" fill="white"/>
<path d="M33.8385 56.0371V64.7459H31.7188V59.3065L29.8323 64.7517H27.9983L26.1002 59.2919V64.7517H23.9805V56.0429H26.5726L28.9401 62.1093L31.2727 56.0429L33.8385 56.0371Z" fill="white"/>
<path d="M42.6397 62.6309C42.2746 63.2933 41.723 63.8338 41.0535 64.1854C40.3007 64.5732 39.4625 64.7658 38.616 64.7454H35.3008V55.9754H38.6131C39.46 55.9533 40.2992 56.1407 41.0564 56.5208C41.7227 56.8668 42.2723 57.4013 42.6368 58.0578C43.0139 58.7589 43.2037 59.5455 43.1878 60.3415C43.2037 61.1389 43.015 61.9272 42.6397 62.6309ZM40.3567 62.1905C40.5941 61.9475 40.778 61.6574 40.8966 61.3389C41.0151 61.0204 41.0656 60.6806 41.0448 60.3415C41.0656 60.0023 41.0151 59.6625 40.8966 59.344C40.778 59.0255 40.5941 58.7354 40.3567 58.4923C39.8256 58.0285 39.1331 57.7927 38.4294 57.8361H37.4205V62.8467H38.4264C39.1302 62.8902 39.8226 62.6544 40.3537 62.1905H40.3567Z" fill="white"/>
<path d="M50.9082 60.9983C51.2153 61.3818 51.3792 61.8603 51.3718 62.3515C51.3877 62.681 51.3285 63.0097 51.1987 63.3128C51.0688 63.616 50.8718 63.8857 50.6225 64.1015C50.121 64.5244 49.4066 64.7344 48.4707 64.7344H44.3887V55.9644H48.3686C49.2609 55.9644 49.9509 56.1588 50.4388 56.5477C50.6836 56.747 50.8776 57.0017 51.0049 57.2907C51.1321 57.5797 51.1889 57.8948 51.1707 58.2101C51.1876 58.6858 51.0392 59.1527 50.7508 59.5313C50.4715 59.8798 50.0817 60.1226 49.6457 60.2196C50.1445 60.3239 50.5911 60.5993 50.9082 60.9983ZM46.5113 59.5604H47.8875C48.6243 59.5604 48.9926 59.2464 48.9926 58.6184C48.9926 57.9884 48.6165 57.6764 47.8642 57.6764H46.4997L46.5113 59.5604ZM49.2025 62.0541C49.21 61.9157 49.186 61.7775 49.1325 61.6497C49.079 61.5219 48.9973 61.4079 48.8935 61.3162C48.6435 61.1247 48.3331 61.0294 48.0188 61.0479H46.5171V63.0224H48.0304C48.8118 63.0224 49.2025 62.6996 49.2025 62.0541Z" fill="white"/>
<path d="M24.9137 20.2046C24.2066 20.2046 23.5065 20.3439 22.8532 20.6147C22.2 20.8854 21.6065 21.2823 21.1067 21.7825C20.6069 22.2828 20.2104 22.8767 19.9401 23.5302C19.6698 24.1837 19.5309 24.8841 19.5313 25.5914C19.531 26.6885 19.866 27.7594 20.4914 28.6607C21.1167 29.562 22.0025 30.2506 23.0301 30.6341V32.3578L23.6133 32.9411V34.8077L23.0622 35.1285V36.508L23.6133 36.8288V37.7621L22.9572 38.1413V39.2787L23.6133 39.6608V40.9557L23.0097 41.3057V42.3148L24.6192 43.5835H26.3686L27.1442 42.3936V30.4883C28.0855 30.0605 28.8838 29.3707 29.4437 28.5014C30.0037 27.632 30.3016 26.6198 30.3019 25.5856C30.3004 24.1574 29.7319 22.7883 28.7215 21.7792C27.7111 20.7702 26.3415 20.2038 24.9137 20.2046ZM25.0507 24.5794C24.6888 24.5794 24.3417 24.4356 24.0858 24.1796C23.8299 23.9236 23.6862 23.5764 23.6862 23.2144C23.6869 22.8529 23.831 22.5065 24.0869 22.2511C24.3427 21.9958 24.6893 21.8524 25.0507 21.8524C25.2298 21.852 25.4072 21.887 25.5727 21.9553C25.7382 22.0235 25.8887 22.1238 26.0154 22.2503C26.1422 22.3768 26.2427 22.5271 26.3114 22.6925C26.38 22.858 26.4153 23.0353 26.4153 23.2144C26.4122 23.5741 26.267 23.918 26.0113 24.171C25.7557 24.424 25.4103 24.5656 25.0507 24.5648V24.5794Z" fill="#A140FF"/>
</svg>
