<svg width="60" height="71" viewBox="0 0 60 71" fill="none" xmlns="http://www.w3.org/2000/svg">
<path d="M41.5736 15.0434C39.9795 15.0418 38.4511 14.4077 37.3238 13.2801C36.1966 12.1526 35.5626 10.6238 35.5611 9.02917V0.681641H8.69719C7.66652 0.681258 6.64584 0.88399 5.69351 1.27826C4.74118 1.67252 3.87583 2.2506 3.14689 2.97947C2.41796 3.70833 1.83972 4.5737 1.44521 5.52615C1.0507 6.4786 0.847656 7.49946 0.847656 8.53042V55.8448C0.850747 57.9249 1.6792 59.9187 3.15102 61.3882C4.62284 62.8577 6.61766 63.6826 8.69719 63.6819H40.9467C43.0278 63.6819 45.0236 62.8549 46.4951 61.383C47.9666 59.9111 48.7933 57.9147 48.7933 55.8331V15.0434H41.5736Z" fill="#E0ECF5"/>
<path d="M48.7947 15.0434H41.5751C39.9809 15.0418 38.4525 14.4077 37.3253 13.2801C36.198 12.1526 35.564 10.6238 35.5625 9.02917V0.681641L48.7947 15.0434Z" fill="#005FAD"/>
<path d="M54.4867 50.4399H18.0266C15.4404 50.4399 13.3438 52.5371 13.3438 55.1241V65.9975C13.3438 68.5845 15.4404 70.6817 18.0266 70.6817H54.4867C57.073 70.6817 59.1696 68.5845 59.1696 65.9975V55.1241C59.1696 52.5371 57.073 50.4399 54.4867 50.4399Z" fill="#005FAD"/>
<path d="M25.1479 62.915V65.0355H22.9668V62.915H25.1479Z" fill="white"/>
<path d="M36.1134 56.3262V65.0354H33.9906V59.5987L32.107 65.0441H30.2583L28.363 59.587V65.0441H26.2402V56.3349H28.8324L31.2031 62.4016L33.5357 56.3349L36.1134 56.3262Z" fill="white"/>
<path d="M39.696 56.2646V65.0351H37.5762V56.2646H39.696Z" fill="white"/>
<path d="M48.4936 62.9209C48.1285 63.5841 47.577 64.1256 46.9073 64.4784C46.1538 64.8643 45.3159 65.0557 44.4697 65.0355H41.1602V56.265H44.4697C45.3167 56.2423 46.1562 56.4297 46.9132 56.8105C47.581 57.1557 48.1311 57.6917 48.4936 58.3505C48.8732 59.0497 49.0641 59.8358 49.0476 60.6313C49.0634 61.4295 48.8726 62.2183 48.4936 62.9209ZM46.2133 62.4805C46.4504 62.2371 46.634 61.9469 46.7525 61.6285C46.871 61.3101 46.9217 60.9705 46.9015 60.6313C46.9216 60.2922 46.8708 59.9526 46.7523 59.6342C46.6338 59.3158 46.4502 59.0256 46.2133 58.7821C45.681 58.3184 44.9877 58.0826 44.283 58.1259H43.28V63.1367H44.283C44.9877 63.18 45.681 62.9442 46.2133 62.4805Z" fill="white"/>
<path d="M35.9058 39.1587H32.7129V26.2495C32.7129 25.817 32.5412 25.4023 32.2355 25.0966C31.9298 24.7908 31.5152 24.619 31.0829 24.619H22.9185C22.4859 24.619 22.071 24.7907 21.7649 25.0964C21.4588 25.4021 21.2864 25.8168 21.2856 26.2495V39.1587H18.0781V25.1586C18.0789 24.1667 18.4734 23.2156 19.1749 22.5144C19.8764 21.8133 20.8275 21.4194 21.8192 21.4194H32.1443C33.1357 21.4194 34.0865 21.8134 34.7876 22.5146C35.4886 23.2158 35.8825 24.1669 35.8825 25.1586L35.9058 39.1587Z" fill="#005FAD"/>
<path d="M32.1207 42.9447C34.211 42.9447 35.9055 41.2498 35.9055 39.1589C35.9055 37.068 34.211 35.373 32.1207 35.373C30.0305 35.373 28.3359 37.068 28.3359 39.1589C28.3359 41.2498 30.0305 42.9447 32.1207 42.9447Z" fill="#005FAD"/>
<path d="M17.5192 42.9447C19.6095 42.9447 21.304 41.2498 21.304 39.1589C21.304 37.068 19.6095 35.373 17.5192 35.373C15.4289 35.373 13.7344 37.068 13.7344 39.1589C13.7344 41.2498 15.4289 42.9447 17.5192 42.9447Z" fill="#005FAD"/>
</svg>
