<svg width="59" height="71" viewBox="0 0 59 71" fill="none" xmlns="http://www.w3.org/2000/svg">
<path d="M41.3862 14.6137C39.792 14.6121 38.2636 13.978 37.1364 12.8504C36.0091 11.7229 35.3751 10.1941 35.3736 8.59948V0.251953H8.50681C6.42576 0.251953 4.42992 1.07888 2.9584 2.55081C1.48687 4.02274 0.660156 6.0191 0.660156 8.10072V55.4151C0.663247 57.4947 1.49134 59.488 2.96253 60.9574C4.43371 62.4268 6.42778 63.2522 8.50681 63.2522H40.7563C41.7868 63.2525 42.8073 63.0498 43.7595 62.6555C44.7117 62.2612 45.5768 61.6831 46.3055 60.9542C47.0342 60.2253 47.6122 59.3599 48.0064 58.4074C48.4006 57.455 48.6033 56.4342 48.6029 55.4034V14.6137H41.3862Z" fill="#E0EEFF"/>
<path d="M48.6043 14.6137H41.3876C39.7934 14.6121 38.265 13.978 37.1378 12.8504C36.0105 11.7229 35.3765 10.1941 35.375 8.59948V0.251953L48.6043 14.6137Z" fill="#0072FF"/>
<path d="M54.2953 50.0103H17.8352C15.249 50.0103 13.1523 52.1075 13.1523 54.6945V65.5678C13.1523 68.1548 15.249 70.252 17.8352 70.252H54.2953C56.8816 70.252 58.9781 68.1548 58.9781 65.5678V54.6945C58.9781 52.1075 56.8816 50.0103 54.2953 50.0103Z" fill="#0072FF"/>
<path d="M22.0658 62.4854V64.6058H19.873V62.4854H22.0658Z" fill="white"/>
<path d="M33.0285 55.8989V64.6052H30.9087V59.1685L29.0221 64.614H27.188L25.2898 59.1569V64.614H23.1699V55.9077H25.7622L28.1298 61.9714L30.4625 55.9077L33.0285 55.8989Z" fill="white"/>
<path d="M40.9127 56.2754C41.5798 56.6544 42.1312 57.208 42.5076 57.8767C42.9021 58.5829 43.1033 59.3807 43.0908 60.1896C43.1059 61.0053 42.9047 61.8104 42.5076 62.5229C42.1299 63.1934 41.5764 63.748 40.9068 64.1271C40.2252 64.5165 39.4524 64.7178 38.6675 64.7104C37.8826 64.717 37.1101 64.5157 36.4281 64.1271C35.7593 63.748 35.2068 63.1933 34.8302 62.5229C34.4318 61.8109 34.2305 61.0054 34.247 60.1896C34.2319 59.3804 34.4332 58.5819 34.8302 57.8767C35.2086 57.2085 35.7608 56.6552 36.4281 56.2754C37.1101 55.8868 37.8826 55.6856 38.6675 55.6921C39.4543 55.6847 40.2289 55.886 40.9127 56.2754ZM37.0054 58.3492C36.5739 58.862 36.3548 59.5204 36.3931 60.1896C36.3579 60.8575 36.5767 61.5139 37.0054 62.0271C37.215 62.2549 37.4718 62.434 37.7579 62.5519C38.044 62.6698 38.3525 62.7237 38.6616 62.7096C38.9698 62.7228 39.2771 62.6686 39.5622 62.5507C39.8472 62.4328 40.1031 62.2541 40.312 62.0271C40.746 61.5164 40.9682 60.859 40.9331 60.1896C40.9673 59.5223 40.7474 58.8667 40.3178 58.355C40.1084 58.1271 39.8516 57.9478 39.5654 57.8299C39.2793 57.712 38.9708 57.6583 38.6616 57.6725C38.353 57.6581 38.0449 57.7112 37.7589 57.8281C37.4729 57.9449 37.2157 58.1228 37.0054 58.3492Z" fill="white"/>
<path d="M45.914 55.835L48.063 62.4354L50.2091 55.835H52.4776L49.4276 64.6054H46.6868L43.6484 55.835H45.914Z" fill="white"/>
<path d="M23.4567 20.5552C20.4871 20.5552 17.6391 21.7352 15.5393 23.8356C13.4394 25.936 12.2598 28.7848 12.2598 31.7552C12.2598 34.7257 13.4394 37.5744 15.5393 39.6748C17.6391 41.7753 20.4871 42.9552 23.4567 42.9552C26.4261 42.9537 29.2733 41.7727 31.3725 39.6719C33.4716 37.5711 34.6507 34.7225 34.6507 31.7523C34.6492 28.7831 33.4693 25.936 31.3704 23.8365C29.2714 21.7369 26.4251 20.5567 23.4567 20.5552ZM23.4567 22.7369C24.0507 22.7369 24.6202 22.9729 25.0402 23.3929C25.4602 23.813 25.6961 24.3828 25.6961 24.9769C25.6961 25.571 25.4602 26.1407 25.0402 26.5608C24.6202 26.9809 24.0507 27.2169 23.4567 27.2169C22.8628 27.2169 22.2932 26.9809 21.8732 26.5608C21.4533 26.1407 21.2173 25.571 21.2173 24.9769C21.2173 24.3828 21.4533 23.813 21.8732 23.3929C22.2932 22.9729 22.8628 22.7369 23.4567 22.7369ZM15.648 27.246C15.9451 26.7317 16.4341 26.3564 17.0077 26.2027C17.5813 26.049 18.1925 26.1295 18.7068 26.4264C18.9616 26.5733 19.1851 26.769 19.3644 27.0022C19.5436 27.2355 19.6751 27.5018 19.7515 27.7859C19.8278 28.07 19.8475 28.3664 19.8093 28.6581C19.7712 28.9498 19.6759 29.2311 19.529 29.486C19.2314 30.0006 18.7418 30.3759 18.1677 30.5296C17.5937 30.6833 16.9821 30.6027 16.4673 30.3056C15.9531 30.0085 15.578 29.5193 15.4243 28.9456C15.2706 28.3718 15.3512 27.7605 15.648 27.246ZM18.7068 37.0869C18.452 37.2338 18.1706 37.3291 17.879 37.3673C17.5874 37.4055 17.2911 37.3858 17.0071 37.3094C16.7231 37.233 16.4568 37.1014 16.2236 36.9221C15.9904 36.7428 15.7949 36.5193 15.648 36.2644C15.3512 35.75 15.2706 35.1387 15.4243 34.5649C15.578 33.9911 15.9531 33.5019 16.4673 33.2048C16.9821 32.9077 17.5937 32.8271 18.1677 32.9808C18.7418 33.1345 19.2314 33.5098 19.529 34.0244C19.8258 34.5396 19.906 35.1516 19.7518 35.7259C19.5976 36.3002 19.2217 36.7897 18.7068 37.0869ZM23.4567 40.7765C22.8628 40.7765 22.2932 40.5405 21.8732 40.1204C21.4533 39.7003 21.2173 39.1306 21.2173 38.5365C21.2173 37.9424 21.4533 37.3726 21.8732 36.9526C22.2932 36.5325 22.8628 36.2965 23.4567 36.2965C23.7509 36.2961 24.0423 36.3538 24.3141 36.4662C24.586 36.5786 24.833 36.7436 25.041 36.9517C25.2491 37.1598 25.414 37.4069 25.5264 37.6788C25.6388 37.9508 25.6965 38.2422 25.6961 38.5365C25.6961 39.1306 25.4602 39.7003 25.0402 40.1204C24.6202 40.5405 24.0507 40.7765 23.4567 40.7765ZM31.2654 36.2644C31.1188 36.5196 30.9234 36.7434 30.6903 36.9229C30.4571 37.1024 30.1908 37.2342 29.9067 37.3106C29.6225 37.387 29.3261 37.4066 29.0344 37.3682C28.7427 37.3298 28.4614 37.2342 28.2066 37.0869C27.6922 36.7892 27.317 36.2995 27.1634 35.7253C27.0097 35.151 27.0903 34.5393 27.3873 34.0244C27.6843 33.51 28.1734 33.1347 28.747 32.981C29.3206 32.8274 29.9318 32.9078 30.4461 33.2048C30.701 33.3516 30.9244 33.5473 31.1036 33.7806C31.2828 34.014 31.4142 34.2804 31.4903 34.5646C31.5664 34.8488 31.5857 35.1452 31.5471 35.4369C31.5086 35.7286 31.4128 36.0098 31.2654 36.2644ZM30.4461 30.294C29.9318 30.5909 29.3206 30.6714 28.747 30.5177C28.1734 30.364 27.6843 29.9887 27.3873 29.4744C27.0904 28.9599 27.0099 28.3486 27.1636 27.7749C27.3172 27.2011 27.6924 26.7119 28.2066 26.4148C28.7209 26.1178 29.3321 26.0373 29.9057 26.191C30.4793 26.3447 30.9684 26.72 31.2654 27.2344C31.4128 27.489 31.5086 27.7702 31.5471 28.0619C31.5857 28.3536 31.5664 28.65 31.4903 28.9342C31.4142 29.2184 31.2828 29.4848 31.1036 29.7181C30.9244 29.9515 30.701 30.1471 30.4461 30.294Z" fill="#0072FF"/>
<path d="M33.9905 40.6424C33.8366 40.6419 33.6832 40.6253 33.5327 40.5928C32.2877 40.3012 31.7832 38.977 31.7832 38.9216C31.7657 38.8739 31.7579 38.8233 31.7602 38.7725C31.7624 38.7218 31.7747 38.6721 31.7965 38.6262C31.8182 38.5803 31.8488 38.5392 31.8866 38.5052C31.9244 38.4713 31.9685 38.4453 32.0165 38.4287C32.0638 38.4115 32.114 38.4039 32.1642 38.4062C32.2145 38.4085 32.2638 38.4207 32.3093 38.4421C32.3548 38.4635 32.3956 38.4937 32.4295 38.5309C32.4633 38.5682 32.4894 38.6117 32.5063 38.6591C32.5063 38.6766 32.8825 39.6595 33.7106 39.8432C34.4163 39.9978 35.329 39.5516 36.3524 38.5191C36.3882 38.4832 36.4307 38.4547 36.4774 38.4353C36.5242 38.4158 36.5744 38.4058 36.625 38.4058C36.6757 38.4058 36.7259 38.4158 36.7727 38.4353C36.8194 38.4547 36.8619 38.4832 36.8977 38.5191C36.9692 38.5912 37.0094 38.6887 37.0094 38.7903C37.0094 38.892 36.9692 38.9895 36.8977 39.0616C35.8392 40.1145 34.8682 40.6424 33.9905 40.6424Z" fill="#0072FF"/>
</svg>
