<svg width="59" height="71" viewBox="0 0 59 71" fill="none" xmlns="http://www.w3.org/2000/svg">
<path d="M41.1224 15.0434C39.5283 15.0418 37.9999 14.4077 36.8727 13.2801C35.7454 12.1526 35.1115 10.6238 35.1099 9.02917V0.681641H8.24308C6.16203 0.681641 4.16623 1.50856 2.69471 2.98049C1.22318 4.45242 0.396484 6.44879 0.396484 8.53042V55.8448C0.399575 57.9244 1.22763 59.9177 2.69882 61.3871C4.17001 62.8565 6.16405 63.6819 8.24308 63.6819H40.4955C42.5751 63.6819 44.5696 62.8561 46.0408 61.3861C47.5121 59.9161 48.3398 57.9219 48.3421 55.8418V15.0434H41.1224Z" fill="#FFE8EA"/>
<path d="M48.3435 15.0434H41.1239C39.5297 15.0418 38.0013 14.4077 36.8741 13.2801C35.7468 12.1526 35.1129 10.6238 35.1113 9.02917V0.681641L48.3435 15.0434Z" fill="#FF3E4C"/>
<path d="M54.0316 50.4399H17.5716C14.9853 50.4399 12.8887 52.5371 12.8887 55.1241V65.9975C12.8887 68.5845 14.9853 70.6817 17.5716 70.6817H54.0316C56.6179 70.6817 58.7145 68.5845 58.7145 65.9975V55.1241C58.7145 52.5371 56.6179 50.4399 54.0316 50.4399Z" fill="#FF3E4C"/>
<path d="M23.3324 62.915V65.0355H21.1367V62.915H23.3324Z" fill="white"/>
<path d="M34.296 56.3262V65.0354H32.1762V59.5987L30.2896 65.0441H28.4555L26.5573 59.587V65.0441H24.4316V56.3349H27.0239L29.3915 62.4016L31.7242 56.3349L34.296 56.3262Z" fill="white"/>
<path d="M37.8796 61.958V65.0351H35.7598V56.2646H39.1947C40.2356 56.2646 41.0317 56.5242 41.5769 57.0405C41.8526 57.3113 42.0679 57.6373 42.2086 57.9972C42.3493 58.3572 42.4123 58.7428 42.3934 59.1288C42.4038 59.6387 42.278 60.1422 42.0289 60.5872C41.7743 61.0222 41.397 61.3722 40.9442 61.5934C40.3976 61.8502 39.7983 61.9751 39.1947 61.958H37.8796ZM40.2356 59.1288C40.2356 58.3627 39.8099 57.9787 38.9585 57.9767H37.8796V60.2605H38.9585C39.8099 60.2605 40.2356 59.8833 40.2356 59.1288Z" fill="white"/>
<path d="M48.0241 56.1976C48.4361 56.3847 48.784 56.689 49.0242 57.0726C49.2533 57.4483 49.3716 57.881 49.3654 58.321C49.3884 58.8178 49.2322 59.3064 48.9251 59.6976C48.6452 60.0366 48.2569 60.2684 47.8258 60.3539V60.4181C48.961 60.7797 49.5277 61.4865 49.5258 62.5385C49.534 63.0099 49.4141 63.4746 49.1788 63.8831C48.9399 64.2828 48.5878 64.6026 48.167 64.8018C47.6687 65.0328 47.1239 65.1456 46.5749 65.1314C45.566 65.1314 44.7641 64.8835 44.1751 64.3877C43.5861 63.8918 43.2625 63.1335 43.2129 62.1156H45.2832C45.2807 62.4502 45.3951 62.7752 45.6068 63.0343C45.7188 63.1514 45.8553 63.2422 46.0066 63.3002C46.1578 63.3582 46.3201 63.3819 46.4816 63.3697C46.6146 63.3769 46.7476 63.3562 46.8721 63.309C46.9966 63.2618 47.1099 63.1891 47.2047 63.0956C47.2946 63.002 47.3646 62.8913 47.4107 62.77C47.4568 62.6487 47.478 62.5194 47.473 62.3897C47.473 61.6684 46.952 61.3086 45.9101 61.3106H45.5135V59.5868H45.8984C46.8315 59.6004 47.298 59.265 47.298 58.5806C47.3067 58.4554 47.2896 58.3298 47.248 58.2114C47.2064 58.0931 47.1411 57.9844 47.056 57.8922C46.9699 57.8096 46.8677 57.7456 46.7559 57.7039C46.6441 57.6623 46.5249 57.644 46.4058 57.6501C46.2738 57.6422 46.1417 57.6644 46.0195 57.7149C45.8972 57.7654 45.7881 57.843 45.7001 57.9418C45.5168 58.174 45.4144 58.4598 45.4085 58.7556H43.3354C43.3304 58.3592 43.4052 57.9658 43.5555 57.599C43.7058 57.2322 43.9285 56.8994 44.2101 56.6206C44.7467 56.1247 45.4989 55.8768 46.467 55.8768C47.0036 55.8653 47.5358 55.975 48.0241 56.1976Z" fill="white"/>
<path d="M35.4536 39.1587H32.2607V26.2495C32.2607 25.817 32.089 25.4023 31.7833 25.0966C31.4777 24.7908 31.0631 24.619 30.6308 24.619H22.4663C22.2523 24.619 22.0403 24.6612 21.8426 24.7431C21.6448 24.8251 21.4651 24.9452 21.3138 25.0966C21.1624 25.248 21.0424 25.4277 20.9604 25.6255C20.8785 25.8233 20.8364 26.0353 20.8364 26.2495V39.1587H17.6289V25.1586C17.6289 24.6673 17.7257 24.1809 17.9137 23.727C18.1018 23.2732 18.3774 22.8608 18.7248 22.5136C19.0722 22.1663 19.4847 21.891 19.9386 21.7032C20.3924 21.5155 20.8788 21.4191 21.37 21.4194H31.7213C32.7127 21.4194 33.6635 21.8134 34.3646 22.5146C35.0656 23.2158 35.4595 24.1669 35.4595 25.1586L35.4536 39.1587Z" fill="#FF3E4C"/>
<path d="M31.6696 42.9447C33.7598 42.9447 35.4544 41.2498 35.4544 39.1589C35.4544 37.068 33.7598 35.373 31.6696 35.373C29.5793 35.373 27.8848 37.068 27.8848 39.1589C27.8848 41.2498 29.5793 42.9447 31.6696 42.9447Z" fill="#FF3E4C"/>
<path d="M17.068 42.9447C19.1583 42.9447 20.8528 41.2498 20.8528 39.1589C20.8528 37.068 19.1583 35.373 17.068 35.373C14.9777 35.373 13.2832 37.068 13.2832 39.1589C13.2832 41.2498 14.9777 42.9447 17.068 42.9447Z" fill="#FF3E4C"/>
</svg>
