<svg width="59" height="71" viewBox="0 0 59 71" fill="none" xmlns="http://www.w3.org/2000/svg">
<path d="M40.8373 14.6137C39.2431 14.6121 37.7147 13.978 36.5875 12.8504C35.4602 11.7229 34.8263 10.1941 34.8248 8.59948V0.251953H7.95791C5.87736 0.251953 3.88201 1.07848 2.41057 2.54978C0.939125 4.02108 0.112101 6.0167 0.111328 8.09782V55.4121C0.113646 57.4922 0.941357 59.4864 2.41263 60.9564C3.8839 62.4264 5.87837 63.2522 7.95791 63.2522H40.2075C41.2381 63.2525 42.2588 63.0498 43.2111 62.6555C44.1634 62.2613 45.0288 61.6832 45.7577 60.9543C46.4867 60.2255 47.0649 59.3601 47.4594 58.4076C47.8539 57.4552 48.057 56.4343 48.057 55.4034V14.6137H40.8373Z" fill="#F4E8FF"/>
<path d="M48.0584 14.6137H40.8387C39.2445 14.6121 37.7161 13.978 36.5889 12.8504C35.4616 11.7229 34.8277 10.1941 34.8262 8.59948V0.251953L48.0584 14.6137Z" fill="#A140FF"/>
<path d="M53.7464 50.0103H17.2863C14.7001 50.0103 12.6035 52.1075 12.6035 54.6945V65.5678C12.6035 68.1548 14.7001 70.252 17.2863 70.252H53.7464C56.3327 70.252 58.4293 68.1548 58.4293 65.5678V54.6945C58.4293 52.1075 56.3327 50.0103 53.7464 50.0103Z" fill="#A140FF"/>
<path d="M23.0277 62.4854V64.6058H20.832V62.4854H23.0277Z" fill="white"/>
<path d="M33.9914 55.8989V64.6052H31.8715V59.1685L29.985 64.614H28.1509L26.2527 59.1569V64.614H24.1328V55.9077H26.7251L29.0927 61.9714L31.4254 55.9077L33.9914 55.8989Z" fill="white"/>
<path d="M37.5749 61.5312V64.6054H35.4551V55.835H38.8929C39.9339 55.835 40.7299 56.0945 41.2751 56.6108C41.5511 56.882 41.7665 57.2086 41.9072 57.569C42.0479 57.9294 42.1108 58.3156 42.0916 58.7021C42.1017 59.2119 41.9759 59.7153 41.7271 60.1604C41.4724 60.5945 41.095 60.9436 40.6424 61.1637C40.0965 61.4229 39.4969 61.5489 38.8929 61.5312H37.5749ZM39.931 58.7021C39.931 57.9243 39.5052 57.5354 38.6538 57.5354H37.5749V59.8191H38.6538C39.5052 59.8269 39.931 59.4546 39.931 58.7021Z" fill="white"/>
<path d="M42.9453 62.992V61.2099L46.9517 55.7148H49.2319V61.137H50.2875V62.9832H49.2319V64.5961H47.0859V62.9832L42.9453 62.992ZM47.2608 58.1794L45.1031 61.1457H47.2608V58.1794Z" fill="white"/>
<path d="M34.9387 38.7256V24.8102C34.938 24.7426 34.9312 24.6752 34.9183 24.6089C34.9152 24.5891 34.9103 24.5695 34.9037 24.5506C34.8932 24.505 34.8796 24.4601 34.8629 24.4164C34.8554 24.3964 34.8466 24.3769 34.8367 24.3581C34.8188 24.3155 34.7974 24.2745 34.7725 24.2356L34.7434 24.1889C34.7066 24.1361 34.6657 24.0863 34.6209 24.0401L34.6005 24.0226C34.5608 23.9852 34.5189 23.9502 34.4751 23.9176L34.4226 23.8856L34.306 23.8214L34.2448 23.7951C34.1991 23.7775 34.1524 23.7629 34.1048 23.7514H34.0581C33.992 23.7374 33.9245 23.7305 33.8569 23.731H14.2157C13.9457 23.7557 13.6947 23.8803 13.5118 24.0805C13.329 24.2807 13.2275 24.5419 13.2271 24.8131C13.2271 24.8306 13.2271 24.8451 13.2271 24.8626V38.7752C13.2201 38.9543 13.277 39.13 13.3875 39.271C13.4832 39.4327 13.6193 39.5666 13.7823 39.6597C13.9454 39.7527 14.1299 39.8017 14.3177 39.8019H33.854C34.1397 39.8004 34.4134 39.6868 34.6163 39.4855C34.8191 39.2842 34.9349 39.0114 34.9387 38.7256ZM14.3993 26.3501V24.2385H16.1167V26.3501H14.3993ZM17.2977 26.3501V24.2385H19.0152V26.3501H17.2977ZM20.196 26.3501V24.2385H21.9135V26.3501H20.196ZM23.0945 26.3501V24.2385H24.8119V26.3501H23.0945ZM25.9928 26.3501V24.2385H27.7102V26.3501H25.9928ZM28.8912 26.3501V24.2385H30.6087V26.3501H28.8912ZM31.7895 26.3501V24.2385H33.507V26.3501H31.7895ZM14.0027 36.5906V26.9218H34.1894V36.5906H14.0027ZM14.3964 39.271V37.1593H16.1138V39.271H14.3964ZM17.2948 39.271V37.1593H19.0123V39.271H17.2948ZM20.1932 39.271V37.1593H21.9106V39.271H20.1932ZM23.0916 39.271V37.1593H24.809V39.271H23.0916ZM25.9899 39.271V37.1593H27.7073V39.271H25.9899ZM28.8883 39.271V37.1593H30.6058V39.271H28.8883ZM31.7866 39.271V37.1593H33.5041V39.271H31.7866Z" fill="#A140FF"/>
<path d="M26.4185 31.0409L23.628 29.428C23.4836 29.3453 23.3202 29.3019 23.1538 29.3022C22.9875 29.3026 22.8241 29.3466 22.68 29.4298C22.536 29.5131 22.4164 29.6327 22.333 29.7767C22.2497 29.9207 22.2055 30.0841 22.2051 30.2505V33.4763C22.2055 33.6427 22.2497 33.8061 22.333 33.9501C22.4164 34.0941 22.536 34.2137 22.68 34.2969C22.8241 34.3802 22.9875 34.4242 23.1538 34.4245C23.3202 34.4248 23.4836 34.3815 23.628 34.2988L26.4185 32.6859C26.5626 32.6023 26.6821 32.4823 26.7653 32.338C26.8484 32.1936 26.8922 32.03 26.8922 31.8634C26.8922 31.6968 26.8484 31.5331 26.7653 31.3888C26.6821 31.2444 26.5626 31.1245 26.4185 31.0409Z" fill="#A140FF"/>
</svg>
