<svg width="59" height="71" viewBox="0 0 59 71" fill="none" xmlns="http://www.w3.org/2000/svg">
<path d="M40.933 14.6137C39.3385 14.6121 37.8098 13.9781 36.6821 12.8506C35.5544 11.7232 34.9198 10.1943 34.9175 8.59948V0.251953H8.05361C5.97256 0.251953 3.97672 1.07888 2.5052 2.55081C1.03368 4.02274 0.207031 6.0191 0.207031 8.10072V55.4151C0.210122 57.4947 1.03814 59.488 2.50933 60.9574C3.98052 62.4268 5.97458 63.2522 8.05361 63.2522H40.3032C42.3842 63.2522 44.38 62.4252 45.8515 60.9533C47.323 59.4814 48.1497 57.485 48.1497 55.4034V14.6137H40.933Z" fill="#E0F8EA"/>
<path d="M48.1502 14.6137H40.9334C39.339 14.6121 37.8103 13.9781 36.6826 12.8506C35.5549 11.7232 34.9203 10.1943 34.918 8.59948V0.251953L48.1502 14.6137Z" fill="#00C650"/>
<path d="M53.8422 50.0103H17.3821C14.7958 50.0103 12.6992 52.1075 12.6992 54.6945V65.5678C12.6992 68.1548 14.7958 70.252 17.3821 70.252H53.8422C56.4285 70.252 58.5251 68.1548 58.5251 65.5678V54.6945C58.5251 52.1075 56.4285 50.0103 53.8422 50.0103Z" fill="#00C650"/>
<path d="M19.1761 62.4854V64.6058H16.9805V62.4854H19.1761Z" fill="white"/>
<path d="M30.1427 55.8989V64.6052H28.02V59.1685L26.1363 64.614H24.2993L22.404 59.1569V64.614H20.2812V55.9077H22.8735L25.2441 61.9714L27.5768 55.9077L30.1427 55.8989Z" fill="white"/>
<path d="M33.7253 61.5312V64.6054H31.6055V55.835H35.0404C36.0804 55.835 36.8735 56.0936 37.4197 56.6108C37.6966 56.8814 37.9129 57.2078 38.0541 57.5683C38.1954 57.9289 38.2584 58.3153 38.2391 58.7021C38.247 59.2117 38.1214 59.7145 37.8746 60.1604C37.6199 60.5945 37.2425 60.9436 36.7899 61.1637C36.244 61.4229 35.6444 61.5489 35.0404 61.5312H33.7253ZM36.0813 58.7021C36.0813 57.9243 35.6556 57.5354 34.8042 57.5354H33.7253V59.8191H34.8042C35.6556 59.8269 36.0813 59.4546 36.0813 58.7021Z" fill="white"/>
<path d="M41.402 57.5237V59.3583H44.3646V60.9596H41.402V62.9079H44.7378V64.6054H39.2793V55.835H44.7378V57.5237H41.402Z" fill="white"/>
<path d="M52.7642 56.5443C53.4709 57.0748 53.946 57.8572 54.0909 58.7289H51.8603C51.7131 58.4155 51.4754 58.1534 51.1779 57.9764C50.844 57.7778 50.4613 57.6768 50.0729 57.6848C49.7712 57.6727 49.4706 57.7267 49.1921 57.8431C48.9135 57.9595 48.6638 58.1354 48.4604 58.3585C48.0357 58.8713 47.8191 59.5251 47.8539 60.1902C47.8539 61.0244 48.0667 61.6651 48.4924 62.1123C48.7318 62.3445 49.0171 62.5241 49.3299 62.6396C49.6427 62.7551 49.9762 62.804 50.309 62.7831C50.7848 62.7918 51.2505 62.6454 51.6357 62.366C52.0239 62.0796 52.3076 61.674 52.4434 61.211H49.7638V59.6856H54.193V61.7944C54.0216 62.3159 53.7524 62.7999 53.3999 63.2206C53.0162 63.6725 52.5399 64.0366 52.0031 64.2881C51.3959 64.5688 50.733 64.7084 50.0641 64.6965C49.2503 64.7169 48.4455 64.5217 47.7314 64.1306C47.078 63.7642 46.5459 63.2147 46.2006 62.5498C45.8323 61.8332 45.6469 61.0366 45.6611 60.231C45.645 59.4206 45.8304 58.6188 46.2006 57.8977C46.5463 57.235 47.0758 56.6861 47.7256 56.3168C48.4295 55.9298 49.2231 55.7356 50.0262 55.7539C51.0013 55.7056 51.9648 55.9837 52.7642 56.5443Z" fill="white"/>
<path d="M35.0353 38.7256V24.8102C35.0346 24.7426 35.0278 24.6752 35.0149 24.6089C35.0166 24.5895 35.0166 24.57 35.0149 24.5506C35.0149 24.5039 34.9887 24.4602 34.9741 24.4164L34.9478 24.3581C34.929 24.3154 34.9066 24.2744 34.8808 24.2356L34.8545 24.1889C34.8169 24.1368 34.776 24.0871 34.7321 24.0402L34.7116 24.0227C34.6719 23.9853 34.6301 23.9502 34.5863 23.9177L34.5338 23.8856C34.4959 23.8622 34.455 23.8418 34.4142 23.8214L34.3559 23.7951C34.3093 23.7775 34.2615 23.7629 34.213 23.7514H34.1664C34.1013 23.7373 34.0347 23.7304 33.9681 23.731H14.3268C14.0569 23.7557 13.8059 23.8804 13.623 24.0805C13.4402 24.2807 13.3386 24.5419 13.3383 24.8131C13.3383 24.8306 13.3383 24.8452 13.3383 24.8627V38.7694C13.3325 38.9483 13.3892 39.1236 13.4987 39.2652C13.595 39.4269 13.7317 39.5607 13.8952 39.6538C14.0587 39.7468 14.2436 39.7959 14.4317 39.796H33.9681C34.2497 39.7901 34.5182 39.6753 34.7171 39.4757C34.9161 39.2762 35.0301 39.0074 35.0353 38.7256ZM14.4814 26.3502V24.2385H16.1988V26.3502H14.4814ZM17.3797 26.3502V24.2385H19.0971V26.3502H17.3797ZM20.2781 26.3502V24.2385H21.9956V26.3502H20.2781ZM23.1764 26.3502V24.2385H24.8939V26.3502H23.1764ZM26.0749 26.3502V24.2385H27.7923V26.3502H26.0749ZM28.9732 26.3502V24.2385H30.6906V26.3502H28.9732ZM31.8716 26.3502V24.2385H33.5891V26.3502H31.8716ZM14.0848 36.5906V26.9218H34.2684V36.5906H14.0848ZM14.4784 39.271V37.1594H16.1959V39.271H14.4784ZM17.3768 39.271V37.1594H19.0942V39.271H17.3768ZM20.2752 39.271V37.1594H21.9926V39.271H20.2752ZM23.1736 39.271V37.1594H24.891V39.271H23.1736ZM26.0719 39.271V37.1594H27.7894V39.271H26.0719ZM28.9703 39.271V37.1594H30.6877V39.271H28.9703ZM31.8687 39.271V37.1594H33.5861V39.271H31.8687Z" fill="#00C650"/>
<path d="M26.5152 31.0406L23.7247 29.4277C23.5802 29.3443 23.4164 29.3003 23.2496 29.3003C23.0828 29.3003 22.919 29.3441 22.7745 29.4274C22.63 29.5108 22.51 29.6307 22.4265 29.7751C22.343 29.9195 22.299 30.0833 22.2988 30.2502V33.476C22.299 33.6428 22.343 33.8067 22.4265 33.9511C22.51 34.0955 22.63 34.2154 22.7745 34.2988C22.919 34.3821 23.0828 34.426 23.2496 34.4259C23.4164 34.4259 23.5802 34.3819 23.7247 34.2985L26.5152 32.6856C26.6592 32.602 26.7788 32.4821 26.8619 32.3377C26.945 32.1934 26.9888 32.0297 26.9888 31.8631C26.9888 31.6965 26.945 31.5329 26.8619 31.3885C26.7788 31.2442 26.6592 31.1242 26.5152 31.0406Z" fill="#00C650"/>
</svg>
