<svg width="59" height="71" viewBox="0 0 59 71" fill="none" xmlns="http://www.w3.org/2000/svg">
<path d="M41.1205 15.3268C39.5264 15.3253 37.998 14.6911 36.8709 13.5637C35.7437 12.4362 35.1098 10.9074 35.1082 9.31289V0.962891H8.2427C6.16175 0.962891 4.16605 1.7898 2.6946 3.26166C1.22314 4.73351 0.396484 6.72974 0.396484 8.81126V56.1233C0.399575 58.2028 1.22759 60.1961 2.69871 61.6654C4.16982 63.1347 6.16377 63.96 8.2427 63.96H40.4936C42.5725 63.96 44.5665 63.1347 46.0376 61.6654C47.5087 60.1961 48.3367 58.2028 48.3398 56.1233V15.3268H41.1205Z" fill="#FFE8EA"/>
<path d="M48.3409 15.3268H41.1216C39.5275 15.3253 37.9992 14.6911 36.872 13.5637C35.7448 12.4362 35.1109 10.9074 35.1094 9.31289V0.962891L48.3409 15.3268Z" fill="#FF3E4C"/>
<path d="M38.4747 44.9565H8.37269C8.08271 44.9565 7.80459 44.8412 7.59954 44.6361C7.39449 44.431 7.2793 44.1528 7.2793 43.8628C7.28007 43.5732 7.3956 43.2957 7.60057 43.0913C7.80554 42.8868 8.08321 42.772 8.37269 42.772H38.4747C38.7639 42.772 39.0413 42.8868 39.2458 43.0914C39.4503 43.296 39.5652 43.5735 39.5652 43.8628C39.5655 44.0062 39.5376 44.1484 39.483 44.2811C39.4284 44.4138 39.3481 44.5343 39.2468 44.6359C39.1455 44.7375 39.0252 44.8181 38.8927 44.8731C38.7602 44.9281 38.6181 44.9565 38.4747 44.9565Z" fill="#FF3E4C"/>
<path d="M38.4747 32.6366H8.37269C8.08321 32.6366 7.80554 32.5218 7.60057 32.3173C7.3956 32.1128 7.28007 31.8354 7.2793 31.5458C7.2793 31.2558 7.39449 30.9775 7.59954 30.7724C7.80459 30.5673 8.08271 30.4521 8.37269 30.4521H38.4747C38.6181 30.4521 38.7602 30.4805 38.8927 30.5355C39.0252 30.5905 39.1455 30.671 39.2468 30.7726C39.3481 30.8742 39.4284 30.9948 39.483 31.1275C39.5376 31.2602 39.5655 31.4024 39.5652 31.5458C39.5652 31.8351 39.4503 32.1126 39.2458 32.3171C39.0413 32.5217 38.7639 32.6366 38.4747 32.6366Z" fill="#FF3E4C"/>
<path d="M38.4747 38.7968H8.37269C8.08271 38.7968 7.80459 38.6815 7.59954 38.4764C7.39449 38.2713 7.2793 37.9932 7.2793 37.7031C7.28007 37.4135 7.3956 37.1361 7.60057 36.9316C7.80554 36.7271 8.08321 36.6123 8.37269 36.6123H38.4747C38.7639 36.6123 39.0413 36.7272 39.2458 36.9318C39.4503 37.1364 39.5652 37.4138 39.5652 37.7031C39.5655 37.8466 39.5376 37.9887 39.483 38.1214C39.4284 38.2541 39.3481 38.3747 39.2468 38.4763C39.1455 38.5779 39.0252 38.6585 38.8927 38.7135C38.7602 38.7685 38.6181 38.7968 38.4747 38.7968Z" fill="#FF3E4C"/>
<path d="M26.6018 26.477H8.37269C8.08321 26.477 7.80554 26.3622 7.60057 26.1577C7.3956 25.9532 7.28007 25.6757 7.2793 25.3862C7.2793 25.0961 7.39449 24.8179 7.59954 24.6128C7.80459 24.4077 8.08271 24.2925 8.37269 24.2925H26.6018C26.8913 24.2933 27.1687 24.4088 27.3731 24.6138C27.5775 24.8189 27.6923 25.0966 27.6923 25.3862C27.6915 25.6752 27.5764 25.9522 27.3721 26.1566C27.1677 26.361 26.8908 26.4762 26.6018 26.477Z" fill="#FF3E4C"/>
<path d="M26.6018 20.3173H8.37269C8.08321 20.3173 7.80554 20.2024 7.60057 19.9979C7.3956 19.7935 7.28007 19.5161 7.2793 19.2265C7.2793 18.9364 7.39449 18.6582 7.59954 18.4531C7.80459 18.248 8.08271 18.1328 8.37269 18.1328H26.6018C26.8913 18.1336 27.1687 18.2491 27.3731 18.4542C27.5775 18.6592 27.6923 18.937 27.6923 19.2265C27.6915 19.5156 27.5764 19.7926 27.3721 19.9969C27.1677 20.2013 26.8908 20.3165 26.6018 20.3173Z" fill="#FF3E4C"/>
<path d="M54.0276 50.7222H17.5694C14.9832 50.7222 12.8867 52.8192 12.8867 55.4061V66.279C12.8867 68.8658 14.9832 70.9629 17.5694 70.9629H54.0276C56.6138 70.9629 58.7103 68.8658 58.7103 66.279V55.4061C58.7103 52.8192 56.6138 50.7222 54.0276 50.7222Z" fill="#FF3E4C"/>
<path d="M24.8489 63.1958V65.3161H22.6562V63.1958H24.8489Z" fill="white"/>
<path d="M28.0729 62.239V65.3159H25.9531V56.5459H29.3879C30.4288 56.5459 31.2248 56.8054 31.77 57.3217C32.0459 57.5929 32.2613 57.9194 32.402 58.2798C32.5427 58.6402 32.6056 59.0264 32.5864 59.4128C32.597 59.9227 32.4712 60.4262 32.2219 60.8711C31.9674 61.306 31.5901 61.6562 31.1373 61.8773C30.5912 62.1355 29.9916 62.2605 29.3879 62.2419L28.0729 62.239ZM30.4288 59.4128C30.4288 58.6351 30.0031 58.2462 29.1517 58.2462H28.0729V60.5299H29.1517C30.0031 60.5376 30.4288 60.1653 30.4288 59.4128Z" fill="white"/>
<path d="M40.9639 63.202C40.5989 63.8652 40.0474 64.4067 39.3778 64.7595C38.6243 65.1453 37.7864 65.3368 36.9402 65.3165H33.6309V56.5466H36.9402C37.7871 56.5252 38.6262 56.7125 39.3836 57.0919C40.0514 57.4371 40.6014 57.9732 40.9639 58.6319C41.3433 59.3311 41.5342 60.1172 41.5179 60.9126C41.5337 61.7108 41.3429 62.4994 40.9639 63.202ZM38.6838 62.7616C38.9208 62.5183 39.1045 62.2282 39.223 61.9097C39.3414 61.5913 39.3922 61.2517 39.3719 60.9126C39.3923 60.5739 39.3416 60.2346 39.2231 59.9167C39.1046 59.5987 38.9209 59.3091 38.6838 59.0664C38.1535 58.6009 37.4607 58.364 36.7565 58.4073H35.7506V63.4179H36.7565C37.4602 63.4606 38.1524 63.2249 38.6838 62.7616Z" fill="white"/>
<path d="M48.4346 56.5459V58.2346H44.8395V60.1565H47.6152V61.7694H44.8395V65.3159H42.7168V56.5459H48.4346Z" fill="white"/>
<path d="M37.9421 18.1328H32.7871C31.8886 18.1328 31.1602 18.8614 31.1602 19.7602V24.9167C31.1602 25.8155 31.8886 26.5441 32.7871 26.5441H37.9421C38.8407 26.5441 39.5691 25.8155 39.5691 24.9167V19.7602C39.5691 18.8614 38.8407 18.1328 37.9421 18.1328Z" fill="#FF3E4C"/>
</svg>
