<svg width="59" height="71" viewBox="0 0 59 71" fill="none" xmlns="http://www.w3.org/2000/svg">
<path d="M41.1224 14.6137C39.5283 14.6121 37.9999 13.978 36.8726 12.8504C35.7454 11.7229 35.1115 10.1941 35.1099 8.59948V0.251953H8.24308C6.16203 0.251953 4.16623 1.07888 2.69471 2.55081C1.22318 4.02274 0.396484 6.0191 0.396484 8.10072V55.4151C0.399575 57.4947 1.22763 59.488 2.69882 60.9574C4.17001 62.4268 6.16405 63.2522 8.24308 63.2522H40.4955C42.5751 63.2522 44.5696 62.4264 46.0408 60.9564C47.5121 59.4864 48.3398 57.4922 48.3421 55.4121V14.6137H41.1224Z" fill="#E0ECF5"/>
<path d="M48.3435 14.6137H41.1238C39.5297 14.6121 38.0013 13.978 36.8741 12.8504C35.7468 11.7229 35.1129 10.1941 35.1113 8.59948V0.251953L48.3435 14.6137Z" fill="#005FAD"/>
<path d="M54.0316 50.0103H17.5716C14.9853 50.0103 12.8887 52.1075 12.8887 54.6945V65.5678C12.8887 68.1548 14.9853 70.252 17.5716 70.252H54.0316C56.6179 70.252 58.7145 68.1548 58.7145 65.5678V54.6945C58.7145 52.1075 56.6179 50.0103 54.0316 50.0103Z" fill="#005FAD"/>
<path d="M23.4496 62.4854V64.6058H21.2539V62.4854H23.4496Z" fill="white"/>
<path d="M26.6735 61.5312V64.6054H24.5508V55.835H27.9857C29.0296 55.835 29.8236 56.0936 30.3679 56.6108C30.6442 56.8819 30.8601 57.2083 31.0013 57.5687C31.1425 57.9292 31.2059 58.3154 31.1873 58.7021C31.1965 59.2122 31.0697 59.7155 30.8199 60.1604C30.5667 60.5958 30.1889 60.9452 29.7352 61.1637C29.1897 61.424 28.5898 61.55 27.9857 61.5312H26.6735ZM29.0296 58.7021C29.0296 57.9243 28.6039 57.5354 27.7524 57.5354H26.6735V59.8191H27.7524C28.6039 59.8269 29.0296 59.4546 29.0296 58.7021Z" fill="white"/>
<path d="M40.0178 64.6054H37.8979L34.3464 59.2212V64.6054H32.2266V55.835H34.3464L37.895 61.2687V55.835H40.0149L40.0178 64.6054Z" fill="white"/>
<path d="M48.3005 56.5442C49.0081 57.0738 49.4835 57.8566 49.6272 58.7288H47.382C47.2348 58.4164 46.9984 58.1546 46.7026 57.9763C46.3685 57.7781 45.9858 57.6771 45.5975 57.6846C45.2958 57.6721 44.9951 57.726 44.7165 57.8424C44.4379 57.9588 44.1882 58.135 43.985 58.3584C43.559 58.8705 43.3424 59.5248 43.3785 60.1901C43.3785 61.0242 43.5914 61.6649 44.0171 62.1122C44.2564 62.3445 44.5416 62.5242 44.8545 62.6398C45.1673 62.7553 45.5009 62.8041 45.8337 62.783C46.3094 62.7912 46.7749 62.6449 47.1604 62.3659C47.5531 62.0719 47.8363 61.6551 47.9652 61.1817H45.2884V59.6563H49.7409V61.7942C49.5685 62.3159 49.2984 62.7999 48.9449 63.2205C48.5632 63.6732 48.0876 64.0375 47.5511 64.288C46.9429 64.5689 46.279 64.7085 45.6092 64.6963C44.7953 64.7169 43.9905 64.5217 43.2765 64.1305C42.6231 63.764 42.091 63.2146 41.7456 62.5497C41.376 61.8336 41.1907 61.0366 41.2062 60.2309C41.1887 59.4203 41.3741 58.6182 41.7456 57.8976C42.0905 57.2342 42.6202 56.6851 43.2706 56.3167C43.9743 55.929 44.7681 55.7348 45.5713 55.7538C46.5436 55.7061 47.504 55.9843 48.3005 56.5442Z" fill="white"/>
<path d="M16.3472 19.7124H12.3379V23.7228H16.3472V19.7124Z" fill="#005FAD"/>
<path d="M20.3589 23.7222H16.3496V27.7326H20.3589V23.7222Z" fill="#005FAD"/>
<path d="M24.3687 19.7124H20.3594V23.7228H24.3687V19.7124Z" fill="#005FAD"/>
<path d="M28.3785 23.7222H24.3691V27.7326H28.3785V23.7222Z" fill="#005FAD"/>
<path d="M32.3921 19.7124H28.3828V23.7228H32.3921V19.7124Z" fill="#005FAD"/>
<path d="M36.4019 23.7222H32.3926V27.7326H36.4019V23.7222Z" fill="#005FAD"/>
<path d="M16.3472 27.7275H12.3379V31.738H16.3472V27.7275Z" fill="#005FAD"/>
<path d="M20.3589 31.7373H16.3496V35.7477H20.3589V31.7373Z" fill="#005FAD"/>
<path d="M24.3687 27.7275H20.3594V31.738H24.3687V27.7275Z" fill="#005FAD"/>
<path d="M28.3785 31.7373H24.3691V35.7477H28.3785V31.7373Z" fill="#005FAD"/>
<path d="M32.3921 27.7275H28.3828V31.738H32.3921V27.7275Z" fill="#005FAD"/>
<path d="M36.4019 31.7373H32.3926V35.7477H36.4019V31.7373Z" fill="#005FAD"/>
<path d="M16.3472 35.7803H12.3379V39.7907H16.3472V35.7803Z" fill="#005FAD"/>
<path d="M20.3589 39.7905H16.3496V43.801H20.3589V39.7905Z" fill="#005FAD"/>
<path d="M24.3687 35.7803H20.3594V39.7907H24.3687V35.7803Z" fill="#005FAD"/>
<path d="M28.3785 39.7905H24.3691V43.801H28.3785V39.7905Z" fill="#005FAD"/>
<path d="M32.3921 35.7803H28.3828V39.7907H32.3921V35.7803Z" fill="#005FAD"/>
<path d="M36.4019 39.7905H32.3926V43.801H36.4019V39.7905Z" fill="#005FAD"/>
</svg>
