<svg width="59" height="71" viewBox="0 0 59 71" fill="none" xmlns="http://www.w3.org/2000/svg">
<path d="M40.8353 15.3268C39.2412 15.3253 37.7129 14.6911 36.5857 13.5637C35.4585 12.4362 34.8246 10.9074 34.8231 9.31289V0.962891H7.95753C5.87658 0.962891 3.88091 1.7898 2.40946 3.26166C0.938005 4.73351 0.111328 6.72974 0.111328 8.81126V56.1233C0.111328 58.2048 0.938005 60.2011 2.40946 61.673C3.88091 63.1448 5.87658 63.9717 7.95753 63.9717H40.2055C41.2361 63.9721 42.2567 63.7693 43.209 63.3751C44.1613 62.9808 45.0266 62.4028 45.7555 61.674C46.4844 60.9452 47.0626 60.0799 47.4571 59.1275C47.8516 58.1751 48.0546 57.1542 48.0546 56.1233V15.3268H40.8353Z" fill="#FFE8EA"/>
<path d="M48.0558 15.3268H40.8364C39.2423 15.3253 37.714 14.6911 36.5868 13.5637C35.4596 12.4362 34.8258 10.9074 34.8242 9.31289V0.962891L48.0558 15.3268Z" fill="#FF3E4C"/>
<path d="M53.7424 50.7222H17.2842C14.698 50.7222 12.6016 52.8192 12.6016 55.4061V66.279C12.6016 68.8658 14.698 70.9629 17.2842 70.9629H53.7424C56.3286 70.9629 58.4251 68.8658 58.4251 66.279V55.4061C58.4251 52.8192 56.3286 50.7222 53.7424 50.7222Z" fill="#FF3E4C"/>
<path d="M25.4182 63.1958V65.3161H23.2227V63.1958H25.4182Z" fill="white"/>
<path d="M28.6451 62.239V65.3159H26.5254V56.5459H29.9601C31.002 56.5459 31.7951 56.8045 32.3393 57.3217C32.6156 57.5927 32.8315 57.9192 32.9727 58.2796C33.1139 58.64 33.1773 59.0262 33.1587 59.4128C33.1679 59.9225 33.0421 60.4256 32.7942 60.8711C32.5393 61.3068 32.1608 61.6571 31.7066 61.8773C31.1609 62.1366 30.5611 62.2616 29.9572 62.2419L28.6451 62.239ZM31.001 59.4128C31.001 58.6351 30.5753 58.2462 29.7239 58.2462H28.6451V60.5299H29.7239C30.5753 60.5376 31.001 60.1653 31.001 59.4128Z" fill="white"/>
<path d="M36.3238 62.239V65.3159H34.2012V56.5459H37.6359C38.6797 56.5459 39.4738 56.8045 40.0181 57.3217C40.2944 57.5927 40.5102 57.9192 40.6514 58.2796C40.7926 58.64 40.856 59.0262 40.8374 59.4128C40.847 59.9229 40.7201 60.4264 40.47 60.8711C40.217 61.3073 39.8392 61.6578 39.3853 61.8773C38.8396 62.1366 38.2398 62.2616 37.6359 62.2419L36.3238 62.239ZM38.6798 59.4128C38.6798 58.6351 38.254 58.2462 37.4026 58.2462H36.3238V60.5299H37.4026C38.254 60.5376 38.6798 60.1653 38.6798 59.4128Z" fill="white"/>
<path d="M48.1771 56.5459V58.2346H45.7949V65.3159H43.6635V58.2346H41.3047V56.5459H48.1771Z" fill="white"/>
<path d="M21.8888 25.3832H9.15004C8.86056 25.3832 8.58287 25.2684 8.3779 25.0639C8.17293 24.8595 8.05741 24.582 8.05664 24.2924C8.05664 24.0024 8.17185 23.7242 8.3769 23.5191C8.58195 23.314 8.86005 23.1987 9.15004 23.1987H21.8772C22.1672 23.1987 22.4453 23.314 22.6504 23.5191C22.8554 23.7242 22.9706 24.0024 22.9706 24.2924C22.9698 24.58 22.8559 24.8557 22.6534 25.0598C22.451 25.2639 22.1763 25.3801 21.8888 25.3832Z" fill="#FF3E4C"/>
<path d="M21.8888 31.9076H9.15004C8.86056 31.9076 8.58287 31.7928 8.3779 31.5883C8.17293 31.3838 8.05741 31.1064 8.05664 30.8168C8.05664 30.5268 8.17185 30.2485 8.3769 30.0434C8.58195 29.8383 8.86005 29.7231 9.15004 29.7231H21.8772C22.1672 29.7231 22.4453 29.8383 22.6504 30.0434C22.8554 30.2485 22.9706 30.5268 22.9706 30.8168C22.9698 31.1044 22.8559 31.3801 22.6534 31.5842C22.451 31.7884 22.1763 31.9046 21.8888 31.9076Z" fill="#FF3E4C"/>
<path d="M21.8888 38.4316H9.15004C8.86005 38.4316 8.58195 38.3163 8.3769 38.1112C8.17185 37.9061 8.05664 37.6279 8.05664 37.3379C8.05895 37.0493 8.17516 36.7734 8.37996 36.5701C8.58476 36.3669 8.86156 36.2529 9.15004 36.2529H21.8772C22.1666 36.2529 22.4443 36.3677 22.6493 36.5722C22.8543 36.7767 22.9698 37.0541 22.9706 37.3437C22.969 37.6308 22.8548 37.9057 22.6524 38.1092C22.4501 38.3127 22.1758 38.4285 21.8888 38.4316Z" fill="#FF3E4C"/>
<path d="M21.8888 44.9565H9.15004C8.86005 44.9565 8.58195 44.8412 8.3769 44.6361C8.17185 44.431 8.05664 44.1528 8.05664 43.8628C8.05741 43.5732 8.17293 43.2957 8.3779 43.0913C8.58287 42.8868 8.86056 42.772 9.15004 42.772H21.8772C22.1666 42.772 22.4443 42.8868 22.6493 43.0913C22.8543 43.2957 22.9698 43.5732 22.9706 43.8628C22.9706 44.1508 22.857 44.4272 22.6545 44.632C22.452 44.8368 22.1768 44.9534 21.8888 44.9565Z" fill="#FF3E4C"/>
<path d="M34.298 35.3777V25.6831C31.9368 25.8078 29.7134 26.8338 28.086 28.5495C26.4586 30.2653 25.5512 32.5401 25.5508 34.9052C25.5504 36.1179 25.7889 37.3188 26.2527 38.4392C26.7164 39.5597 27.3964 40.5778 28.2537 41.4353C29.1109 42.2928 30.1288 42.973 31.2489 43.4369C32.3691 43.9008 33.5696 44.1393 34.782 44.1389C37.1463 44.1392 39.4206 43.2316 41.1355 41.6036C42.8505 39.9755 43.8753 37.7511 43.9986 35.3893L34.298 35.3777Z" fill="#FF3E4C"/>
<path d="M36.0664 24.9458V33.6954H44.8136C44.6968 31.4127 43.7377 29.2545 42.1219 27.6383C40.5061 26.022 38.3485 25.0627 36.0664 24.9458Z" fill="#FF3E4C"/>
</svg>
