<svg width="17" height="13" viewBox="0 0 17 13" fill="none" xmlns="http://www.w3.org/2000/svg">
<path d="M8.25 1.40186C3.6566 1.40186 1.428 5.54079 1.03253 6.36013C1.01113 6.40364 1 6.45148 1 6.49997C1 6.54845 1.01113 6.59629 1.03253 6.6398C1.42727 7.45914 3.65587 11.5981 8.25 11.5981C12.8441 11.5981 15.072 7.45914 15.4675 6.6398C15.4889 6.59629 15.5 6.54845 15.5 6.49997C15.5 6.45148 15.4889 6.40364 15.4675 6.36013C15.0727 5.54079 12.8441 1.40186 8.25 1.40186Z" stroke="#2D3A47" stroke-width="1.8" stroke-linecap="round" stroke-linejoin="round"/>
<path d="M8.24936 8.68475C9.45605 8.68475 10.4343 7.70654 10.4343 6.49985C10.4343 5.29316 9.45605 4.31494 8.24936 4.31494C7.04267 4.31494 6.06445 5.29316 6.06445 6.49985C6.06445 7.70654 7.04267 8.68475 8.24936 8.68475Z" stroke="#2D3A47" stroke-width="1.8" stroke-linecap="round" stroke-linejoin="round"/>
</svg>
