<svg width="60" height="71" viewBox="0 0 60 71" fill="none" xmlns="http://www.w3.org/2000/svg">
<path d="M41.6713 15.184C40.0771 15.1824 38.5487 14.5483 37.4215 13.4208C36.2942 12.2932 35.6603 10.7644 35.6587 9.16979V0.822266H8.79192C6.71087 0.822266 4.71505 1.64918 3.24353 3.12111C1.77201 4.59304 0.945313 6.58943 0.945312 8.67105V55.9824C0.947631 58.0625 1.77535 60.0567 3.24662 61.5267C4.71789 62.9968 6.71238 63.8225 8.79192 63.8225H41.0414C42.0723 63.8225 43.093 63.6194 44.0453 63.2248C44.9977 62.8302 45.863 62.2519 46.5919 61.5228C47.3208 60.7937 47.899 59.9281 48.2934 58.9755C48.6879 58.0229 48.891 57.0019 48.891 55.9708V15.1723L41.6713 15.184Z" fill="#E0ECF5"/>
<path d="M48.8924 15.184H41.6727C40.0785 15.1824 38.5501 14.5483 37.4229 13.4208C36.2957 12.2932 35.6617 10.7644 35.6602 9.16979V0.822266L48.8924 15.184Z" fill="#005FAD"/>
<path d="M54.5804 50.5806H18.1204C15.5341 50.5806 13.4375 52.6778 13.4375 55.2648V66.1381C13.4375 68.7251 15.5341 70.8223 18.1204 70.8223H54.5804C57.1667 70.8223 59.2633 68.7251 59.2633 66.1381V55.2648C59.2633 52.6778 57.1667 50.5806 54.5804 50.5806Z" fill="#005FAD"/>
<path d="M29.555 63.0557V65.179H27.3594V63.0557H29.555Z" fill="white"/>
<path d="M32.781 62.1016V65.1787H30.6582V56.4082H34.096C35.136 56.4082 35.9291 56.6658 36.4754 57.1811C36.7512 57.4525 36.9667 57.779 37.1079 58.1394C37.2491 58.4997 37.3128 58.8858 37.2947 59.2724C37.3039 59.7825 37.1771 60.2859 36.9273 60.7307C36.675 61.1668 36.2969 61.5165 35.8426 61.7341C35.2971 61.9943 34.6972 62.1203 34.0931 62.1016H32.781ZM35.137 59.2724C35.137 58.4946 34.7113 58.1057 33.8598 58.1057H32.781V60.3895H33.8598C34.7113 60.3973 35.137 60.0249 35.137 59.2724Z" fill="white"/>
<path d="M44.2826 63.9864C44.0315 64.3906 43.669 64.7137 43.2387 64.9168C42.7179 65.1627 42.1464 65.2816 41.5708 65.2639C40.7042 65.2993 39.8502 65.047 39.1419 64.5464C38.828 64.3115 38.5712 64.0088 38.3904 63.6609C38.2097 63.3129 38.1098 62.9287 38.098 62.5368H40.3549C40.3734 62.8322 40.5001 63.1105 40.7106 63.3185C40.9197 63.5138 41.1974 63.6186 41.4833 63.6101C41.7198 63.6239 41.9522 63.5443 42.1306 63.3885C42.2075 63.3124 42.2678 63.2214 42.308 63.1211C42.3481 63.0207 42.3671 62.9132 42.3639 62.8051C42.3676 62.702 42.3504 62.5993 42.3133 62.5031C42.2762 62.4068 42.22 62.3191 42.1481 62.2451C41.9939 62.0894 41.8106 61.9656 41.6087 61.8805C41.3929 61.7852 41.0955 61.6715 40.7164 61.5393C40.2515 61.3866 39.7976 61.2024 39.3577 60.988C38.995 60.8006 38.6836 60.5272 38.4508 60.1918C38.1841 59.7859 38.0525 59.3061 38.0747 58.8209C38.0624 58.3404 38.2011 57.8681 38.4712 57.4705C38.7469 57.0812 39.127 56.7779 39.5676 56.5955C40.0776 56.3896 40.6244 56.2903 41.1742 56.3038C42.0088 56.2577 42.8334 56.5031 43.5069 56.998C43.7931 57.2311 44.0273 57.5215 44.1945 57.8505C44.3617 58.1795 44.4583 58.5399 44.4779 58.9085H42.1861C42.1576 58.6506 42.046 58.409 41.8682 58.2201C41.7767 58.1334 41.6685 58.0661 41.5502 58.0225C41.4319 57.9789 41.306 57.9598 41.1801 57.9664C40.9621 57.9552 40.7479 58.0259 40.5794 58.1647C40.4997 58.2384 40.4376 58.3291 40.3977 58.4301C40.3579 58.5311 40.3412 58.6397 40.3491 58.748C40.3466 58.8447 40.3633 58.9409 40.3984 59.031C40.4334 59.1212 40.486 59.2034 40.5532 59.273C40.6999 59.4247 40.8754 59.5456 41.0693 59.6289C41.2763 59.7193 41.5737 59.836 41.9615 59.976C42.4341 60.128 42.8942 60.3161 43.3378 60.5389C43.7035 60.7343 44.0182 61.0131 44.2563 61.3526C44.5278 61.7632 44.6625 62.2492 44.6412 62.741C44.6363 63.1809 44.5124 63.6113 44.2826 63.9864Z" fill="white"/>
<path d="M15.5428 38.9756C15.5428 38.9756 13.6416 34.9418 16.0997 31.0043C16.0997 31.0043 16.8258 33.1218 17.4235 32.9818C17.4235 32.9818 16.6625 29.9455 17.2223 29.0472C17.2223 29.0472 19.6483 25.5705 22.328 23.6893C22.328 23.6893 22.4126 25.7572 23.0424 25.9263C23.0424 25.9263 22.9433 24.6488 23.8326 22.718C23.8326 22.718 28.1481 19.393 35.3503 19.6963C35.3503 19.6963 32.5073 24.0976 30.9094 27.0697C30.0652 28.6733 29.1367 30.231 28.1277 31.7364C28.1277 31.7364 26.0108 32.9759 24.6286 32.8593C24.6286 32.8593 25.795 33.7751 27.0605 33.3201C27.0605 33.3201 23.8384 39.1535 17.5868 39.8914C17.5868 39.8914 16.4205 42.2918 16.1872 44.3918C16.1872 44.3918 15.0208 45.0977 14.4727 44.9752C14.4727 44.9752 17.4964 33.3551 27.804 24.9405C27.8186 24.9405 21.876 26.5126 15.5428 38.9756Z" fill="#005FAD"/>
</svg>
