<svg width="59" height="71" viewBox="0 0 59 71" fill="none" xmlns="http://www.w3.org/2000/svg">
<path d="M41.3842 14.7565C39.7896 14.755 38.2608 14.1205 37.1335 12.9923C36.0063 11.8642 35.3727 10.3347 35.3719 8.7397V0.392578H8.50643C6.42548 0.392578 4.42974 1.21945 2.95829 2.69131C1.48683 4.16317 0.660156 6.15946 0.660156 8.24098V55.553C0.660156 57.6345 1.48683 59.6308 2.95829 61.1026C4.42974 62.5745 6.42548 63.4014 8.50643 63.4014H40.7543C42.8353 63.4014 44.831 62.5745 46.3025 61.1026C47.7739 59.6308 48.6006 57.6345 48.6006 55.553V14.7565H41.3842Z" fill="#E0ECF5"/>
<path d="M48.6017 14.7565H41.3853C39.7907 14.755 38.2619 14.1205 37.1347 12.9923C36.0074 11.8642 35.3738 10.3347 35.373 8.7397V0.392578L48.6017 14.7565Z" fill="#005FAD"/>
<path d="M54.2913 50.1519H17.8331C15.2469 50.1519 13.1504 52.2489 13.1504 54.8358V65.7087C13.1504 68.2955 15.2469 70.3926 17.8331 70.3926H54.2913C56.8775 70.3926 58.9739 68.2955 58.9739 65.7087V54.8358C58.9739 52.2489 56.8775 50.1519 54.2913 50.1519Z" fill="#005FAD"/>
<path d="M25.0627 62.6255V64.7458H22.8672V62.6255H25.0627Z" fill="white"/>
<path d="M28.2867 61.6687V64.7456H26.1641V55.9756H29.6017C30.6426 55.9756 31.4358 56.2323 31.981 56.7514C32.257 57.022 32.4727 57.348 32.6139 57.7078C32.7551 58.0677 32.8186 58.4535 32.8003 58.8396C32.8082 59.3492 32.6826 59.852 32.4358 60.2979C32.1809 60.7336 31.8024 61.0838 31.3482 61.3041C30.8019 61.5616 30.2025 61.6866 29.5988 61.6687H28.2867ZM30.6427 58.8396C30.6427 58.0716 30.2169 57.6828 29.3655 57.673H28.2867V59.9537H29.3655C30.2169 59.9635 30.6427 59.5921 30.6427 58.8396Z" fill="white"/>
<path d="M39.79 63.5564C39.5373 63.9592 39.1753 64.2819 38.7462 64.4868C38.2251 64.7313 37.6539 64.8501 37.0785 64.8338C36.2116 64.8682 35.3577 64.6149 34.6496 64.1135C34.3355 63.8789 34.0784 63.5763 33.8976 63.2283C33.7169 62.8803 33.6171 62.4959 33.6058 62.104H35.8655C35.8796 62.3999 36.0057 62.6793 36.2183 62.8856C36.4282 63.0814 36.707 63.1862 36.9939 63.1773C37.2298 63.1895 37.461 63.1089 37.6383 62.9527C37.716 62.8772 37.7772 62.7864 37.8178 62.6859C37.8585 62.5855 37.8778 62.4777 37.8744 62.3694C37.8775 62.2666 37.8597 62.1642 37.8221 62.0685C37.7845 61.9727 37.7279 61.8856 37.6558 61.8123C37.5009 61.6567 37.3178 61.5319 37.1163 61.4448C36.9006 61.3515 36.6031 61.2378 36.2241 61.1036C35.7594 60.9504 35.3055 60.7662 34.8654 60.5524C34.5043 60.3651 34.1941 60.0929 33.9615 59.7591C33.6929 59.354 33.5602 58.8739 33.5825 58.3883C33.5702 57.9069 33.7088 57.4336 33.979 57.035C34.2554 56.6465 34.6353 56.3434 35.0753 56.1601C35.5854 55.9544 36.1321 55.8552 36.6819 55.8684C37.5164 55.8217 38.3411 56.0672 39.0145 56.5625C39.3006 56.7958 39.5349 57.0862 39.7026 57.4151C39.8703 57.744 39.9676 58.1043 39.9883 58.4729H37.6936C37.6673 58.2145 37.5555 57.9722 37.3759 57.7846C37.2843 57.6979 37.1761 57.6306 37.0578 57.587C36.9395 57.5434 36.8136 57.5243 36.6877 57.5308C36.4698 57.5197 36.2555 57.5904 36.0871 57.7292C36.0074 57.8029 35.9453 57.8936 35.9054 57.9945C35.8655 58.0955 35.8489 58.2042 35.8567 58.3125C35.8535 58.5083 35.9267 58.6977 36.0609 58.8404C36.2078 58.9911 36.3832 59.111 36.577 59.1933C36.784 59.2837 37.0813 59.4004 37.4691 59.5403C37.9418 59.6931 38.4019 59.8823 38.8453 60.1061C39.2115 60.2996 39.5264 60.5775 39.7638 60.9169C40.0353 61.3275 40.17 61.8134 40.1487 62.3052C40.1453 62.7472 40.0213 63.1798 39.79 63.5564Z" fill="white"/>
<path d="M48.6445 62.631C48.2791 63.2941 47.7264 63.8348 47.0555 64.1855C46.3038 64.5736 45.4665 64.7662 44.6208 64.7455H41.3086V55.9754H44.6208C45.4668 55.953 46.3053 56.1404 47.0613 56.5208C47.7289 56.8659 48.2797 57.4007 48.6445 58.0578C49.0216 58.7589 49.2114 59.5455 49.1956 60.3415C49.2106 61.1392 49.0209 61.9275 48.6445 62.631ZM46.3615 62.1906C46.599 61.9476 46.7829 61.6575 46.9014 61.339C47.02 61.0205 47.0704 60.6807 47.0496 60.3415C47.0704 60.0023 47.02 59.6625 46.9014 59.344C46.7829 59.0256 46.599 58.7354 46.3615 58.4924C45.8304 58.0285 45.138 57.7928 44.4342 57.8362H43.4283V62.8468H44.4342C45.1419 62.8933 45.8391 62.6574 46.3732 62.1906H46.3615Z" fill="white"/>
<path d="M15.2527 38.544C15.2527 38.544 13.3545 34.5104 15.8125 30.5731C15.8125 30.5731 16.5385 32.6905 17.1362 32.5534C17.1362 32.5534 16.3752 29.5173 16.9351 28.619C16.9351 28.619 19.3609 25.1396 22.0376 23.2584C22.0376 23.2584 22.125 25.3262 22.7548 25.4954C22.7548 25.4954 22.6557 24.2179 23.545 22.2872C23.545 22.2872 27.8603 18.9623 35.0621 19.2657C35.0621 19.2657 32.2193 23.6696 30.6215 26.6387C29.7767 28.2418 28.8482 29.7995 27.8399 31.3051C27.8399 31.3051 25.723 32.5417 24.341 32.4251C24.341 32.4251 25.5073 33.3409 26.7727 32.8888C26.7727 32.8888 23.5508 38.7218 17.2995 39.4568C17.2995 39.4568 16.1332 41.8571 15.9 43.96C15.9 43.96 14.7337 44.6658 14.1855 44.5433C14.1855 44.5433 17.2091 32.9267 27.5162 24.5096C27.5308 24.5096 21.5886 26.0816 15.2527 38.544Z" fill="#005FAD"/>
</svg>
