<svg width="60" height="71" viewBox="0 0 60 71" fill="none" xmlns="http://www.w3.org/2000/svg">
<path d="M41.4915 15.3268C39.8971 15.3253 38.3685 14.6913 37.2409 13.5639C36.1132 12.4365 35.4787 10.9077 35.4763 9.31289V0.962891H8.60206C6.52111 0.962891 4.52541 1.7898 3.05395 3.26166C1.5825 4.73351 0.755859 6.72974 0.755859 8.81126V56.1233C0.75895 58.2028 1.58696 60.1961 3.05808 61.6654C4.5292 63.1347 6.52313 63.96 8.60206 63.96H40.85C42.931 63.96 44.9267 63.1331 46.3981 61.6613C47.8696 60.1894 48.6962 58.1932 48.6962 56.1117V15.3151L41.4915 15.3268Z" fill="#FFE8EA"/>
<path d="M48.6965 15.3268H41.4917C39.8974 15.3253 38.3687 14.6913 37.2411 13.5639C36.1134 12.4365 35.4789 10.9077 35.4766 9.31289V0.962891L48.6965 15.3268Z" fill="#FF3E4C"/>
<path d="M54.387 50.7222H17.9287C15.3426 50.7222 13.2461 52.8192 13.2461 55.4061V66.279C13.2461 68.8658 15.3426 70.9629 17.9287 70.9629H54.387C56.9732 70.9629 59.0697 68.8658 59.0697 66.279V55.4061C59.0697 52.8192 56.9732 50.7222 54.387 50.7222Z" fill="#FF3E4C"/>
<path d="M26.7164 62.239V65.3159H24.5938V56.5459H28.0314C29.0733 56.5459 29.8663 56.8045 30.4106 57.3217C30.6869 57.5927 30.9027 57.9192 31.0439 58.2796C31.1851 58.64 31.2485 59.0262 31.2299 59.4128C31.2395 59.9229 31.1127 60.4264 30.8626 60.8711C30.6095 61.3073 30.2318 61.6578 29.7779 61.8773C29.2321 62.1366 28.6323 62.2616 28.0285 62.2419L26.7164 62.239ZM29.0723 59.4128C29.0723 58.6351 28.6466 58.2462 27.7952 58.2462H26.7164V60.5299H27.7952C28.6466 60.5376 29.0723 60.1653 29.0723 59.4128Z" fill="white"/>
<path d="M34.331 56.5459V61.606C34.2989 62.0817 34.4374 62.5533 34.7217 62.936C34.8642 63.0927 35.0401 63.2152 35.2365 63.2945C35.4329 63.3738 35.6446 63.4078 35.8559 63.3939C36.0677 63.408 36.2799 63.3741 36.4767 63.2949C36.6736 63.2156 36.8501 63.0929 36.993 62.936C37.2773 62.5533 37.4158 62.0817 37.3837 61.606V56.5459H39.5035V61.606C39.5281 62.3335 39.3612 63.0547 39.0195 63.6972C38.7152 64.2444 38.2555 64.6889 37.6986 64.9747C37.1115 65.2676 36.4624 65.4147 35.8063 65.4034C35.161 65.4169 34.5222 65.2717 33.9461 64.9805C33.4035 64.6953 32.9625 64.2491 32.6836 63.7031C32.3583 63.0532 32.1999 62.3325 32.2229 61.606V56.5459H34.331Z" fill="white"/>
<path d="M47.4355 61.5715C47.7424 61.954 47.9063 62.4315 47.8992 62.9219C47.9146 63.2512 47.8552 63.5798 47.7254 63.8829C47.5956 64.186 47.3988 64.4557 47.1498 64.6718C46.6483 65.0937 45.9311 65.3047 44.998 65.3047H40.916V56.5347H44.896C45.7882 56.5347 46.4783 56.7291 46.9662 57.118C47.211 57.3174 47.405 57.572 47.5322 57.861C47.6594 58.15 47.7163 58.4651 47.698 58.7804C47.7149 59.2561 47.5666 59.723 47.2782 60.1016C46.9998 60.4512 46.6095 60.6942 46.1731 60.7898C46.6716 60.8965 47.1177 61.1728 47.4355 61.5715ZM43.0387 60.1308H44.4266C45.1642 60.1308 45.5316 59.8186 45.5316 59.1887C45.5316 58.5587 45.1555 58.2466 44.4032 58.2466H43.0387V60.1308ZM45.7299 62.6244C45.7363 62.4861 45.7119 62.3482 45.6584 62.2206C45.605 62.093 45.5238 61.9789 45.4208 61.8865C45.1705 61.696 44.86 61.6018 44.5461 61.6211H43.0445V63.5927H44.5578C45.3372 63.5927 45.7279 63.2699 45.7299 62.6244Z" fill="white"/>
<path d="M21.4592 25.3832H8.72916C8.43994 25.3832 8.16255 25.2683 7.95805 25.0637C7.75354 24.8592 7.63868 24.5817 7.63868 24.2924C7.63829 24.1489 7.66619 24.0068 7.72082 23.8741C7.77545 23.7414 7.85572 23.6208 7.95701 23.5192C8.05831 23.4176 8.17866 23.337 8.31116 23.282C8.44365 23.227 8.58571 23.1987 8.72916 23.1987H21.4592C21.7472 23.2026 22.022 23.3199 22.224 23.5252C22.426 23.7305 22.5388 24.0073 22.538 24.2954C22.5365 24.5819 22.4227 24.8564 22.2209 25.0599C22.0192 25.2633 21.7457 25.3794 21.4592 25.3832Z" fill="#FF3E4C"/>
<path d="M21.4592 31.9076H8.72916C8.43994 31.9076 8.16255 31.7927 7.95805 31.5881C7.75354 31.3836 7.63868 31.1061 7.63868 30.8168C7.63829 30.6734 7.66619 30.5312 7.72082 30.3985C7.77545 30.2658 7.85572 30.1452 7.95701 30.0436C8.05831 29.942 8.17866 29.8615 8.31116 29.8065C8.44365 29.7515 8.58571 29.7231 8.72916 29.7231H21.4592C21.7487 29.7239 22.0261 29.8395 22.2305 30.0445C22.4349 30.2495 22.5497 30.5273 22.5497 30.8168C22.5489 31.1059 22.4338 31.3829 22.2295 31.5873C22.0251 31.7917 21.7482 31.9069 21.4592 31.9076Z" fill="#FF3E4C"/>
<path d="M21.4592 38.4316H8.72916C8.58571 38.4316 8.44365 38.4032 8.31116 38.3482C8.17866 38.2932 8.05831 38.2127 7.95701 38.1111C7.85572 38.0095 7.77545 37.8889 7.72082 37.7562C7.66619 37.6235 7.63829 37.4813 7.63868 37.3379C7.63868 37.0486 7.75354 36.7711 7.95805 36.5666C8.16255 36.362 8.43994 36.2471 8.72916 36.2471H21.4592C21.7482 36.2478 22.0251 36.363 22.2295 36.5674C22.4338 36.7718 22.5489 37.0488 22.5497 37.3379C22.5497 37.6274 22.4349 37.9052 22.2305 38.1102C22.0261 38.3152 21.7487 38.4308 21.4592 38.4316Z" fill="#FF3E4C"/>
<path d="M21.4592 44.9565H8.72916C8.58571 44.9565 8.44365 44.9281 8.31116 44.8731C8.17866 44.8181 8.05831 44.7375 7.95701 44.6359C7.85572 44.5343 7.77545 44.4138 7.72082 44.2811C7.66619 44.1484 7.63829 44.0062 7.63868 43.8628C7.63868 43.5735 7.75354 43.296 7.95805 43.0914C8.16255 42.8868 8.43994 42.772 8.72916 42.772H21.4592C21.7482 42.7727 22.0251 42.8879 22.2295 43.0923C22.4338 43.2966 22.5489 43.5737 22.5497 43.8628C22.5497 44.1523 22.4349 44.43 22.2305 44.635C22.0261 44.8401 21.7487 44.9557 21.4592 44.9565Z" fill="#FF3E4C"/>
<path d="M38.8299 25.3832H26.4206C26.1313 25.3832 25.854 25.2683 25.6495 25.0637C25.445 24.8592 25.3301 24.5817 25.3301 24.2924C25.3297 24.1489 25.3576 24.0068 25.4123 23.8741C25.4669 23.7414 25.5472 23.6208 25.6485 23.5192C25.7498 23.4176 25.8701 23.337 26.0026 23.282C26.1351 23.227 26.2771 23.1987 26.4206 23.1987H38.8299C39.1199 23.1987 39.398 23.314 39.6031 23.5191C39.8081 23.7242 39.9233 24.0024 39.9233 24.2924C39.9225 24.582 39.807 24.8595 39.602 25.0639C39.3971 25.2684 39.1194 25.3832 38.8299 25.3832Z" fill="#FF3E4C"/>
<path d="M38.8299 31.9076H26.4206C26.1313 31.9076 25.854 31.7927 25.6495 31.5881C25.445 31.3836 25.3301 31.1061 25.3301 30.8168C25.3297 30.6734 25.3576 30.5312 25.4123 30.3985C25.4669 30.2658 25.5472 30.1452 25.6485 30.0436C25.7498 29.942 25.8701 29.8615 26.0026 29.8065C26.1351 29.7515 26.2771 29.7231 26.4206 29.7231H38.8299C39.1199 29.7231 39.398 29.8383 39.6031 30.0434C39.8081 30.2485 39.9233 30.5268 39.9233 30.8168C39.9225 31.1064 39.807 31.3838 39.602 31.5883C39.3971 31.7928 39.1194 31.9076 38.8299 31.9076Z" fill="#FF3E4C"/>
<path d="M38.8299 38.4316H26.4206C26.2771 38.4316 26.1351 38.4032 26.0026 38.3482C25.8701 38.2932 25.7498 38.2127 25.6485 38.1111C25.5472 38.0095 25.4669 37.8889 25.4123 37.7562C25.3576 37.6235 25.3297 37.4813 25.3301 37.3379C25.3301 37.0486 25.445 36.7711 25.6495 36.5666C25.854 36.362 26.1313 36.2471 26.4206 36.2471H38.8299C39.1194 36.2471 39.3971 36.3619 39.602 36.5664C39.807 36.7708 39.9225 37.0483 39.9233 37.3379C39.9233 37.6279 39.8081 37.9061 39.6031 38.1112C39.398 38.3163 39.1199 38.4316 38.8299 38.4316Z" fill="#FF3E4C"/>
<path d="M38.8299 44.9565H26.4206C26.2771 44.9565 26.1351 44.9281 26.0026 44.8731C25.8701 44.8181 25.7498 44.7375 25.6485 44.6359C25.5472 44.5343 25.4669 44.4138 25.4123 44.2811C25.3576 44.1484 25.3297 44.0062 25.3301 43.8628C25.3301 43.5735 25.445 43.296 25.6495 43.0914C25.854 42.8868 26.1313 42.772 26.4206 42.772H38.8299C39.1194 42.772 39.3971 42.8868 39.602 43.0913C39.807 43.2957 39.9225 43.5732 39.9233 43.8628C39.9233 44.1528 39.8081 44.431 39.6031 44.6361C39.398 44.8412 39.1199 44.9565 38.8299 44.9565Z" fill="#FF3E4C"/>
</svg>
