<svg width="60" height="71" viewBox="0 0 60 71" fill="none" xmlns="http://www.w3.org/2000/svg">
<path d="M41.5716 14.7565C39.9773 14.7542 38.449 14.1194 37.3219 12.9915C36.1948 11.8635 35.5609 10.3345 35.5594 8.7397V0.392579H8.69681C7.66618 0.392196 6.64556 0.594918 5.69327 0.989165C4.74099 1.38341 3.87568 1.96145 3.14678 2.69027C2.41788 3.4191 1.83967 4.28443 1.44518 5.23683C1.05069 6.18923 0.847656 7.21007 0.847656 8.24098V55.553C0.847656 56.5839 1.05069 57.6047 1.44518 58.5571C1.83967 59.5095 2.41788 60.3748 3.14678 61.1037C3.87568 61.8325 4.74099 62.4106 5.69327 62.8048C6.64556 63.1991 7.66618 63.4018 8.69681 63.4014H40.9448C43.0257 63.4014 45.0214 62.5745 46.4929 61.1026C47.9643 59.6308 48.791 57.6345 48.791 55.553V14.7565H41.5716Z" fill="#F4E8FF"/>
<path d="M48.7921 14.7565H41.5728C39.9785 14.7542 38.4501 14.1194 37.323 12.9915C36.196 11.8635 35.5621 10.3345 35.5605 8.7397V0.392578L48.7921 14.7565Z" fill="#A140FF"/>
<path d="M54.4827 50.1519H18.0245C15.4383 50.1519 13.3418 52.2489 13.3418 54.8358V65.7087C13.3418 68.2955 15.4383 70.3926 18.0245 70.3926H54.4827C57.0689 70.3926 59.1654 68.2955 59.1654 65.7087V54.8358C59.1654 52.2489 57.0689 50.1519 54.4827 50.1519Z" fill="#A140FF"/>
<path d="M24.7307 62.6255V64.7458H22.5352V62.6255H24.7307Z" fill="white"/>
<path d="M30.3359 64.7461L28.4377 61.4329H27.9537V64.7461H25.834V55.9761H29.4553C30.0583 55.9596 30.6569 56.0824 31.2048 56.3348C31.6544 56.5487 32.0301 56.8919 32.2836 57.3206C32.5277 57.7588 32.6514 58.2539 32.6422 58.7555C32.6593 59.3418 32.4728 59.9158 32.1145 60.3801C31.7241 60.8516 31.1837 61.1748 30.5837 61.2958L32.6685 64.7461H30.3359ZM27.9537 59.9834H29.2687C29.6046 60.0086 29.9375 59.9043 30.1989 59.6917C30.3024 59.5822 30.3818 59.4521 30.4321 59.31C30.4823 59.1678 30.5022 59.0167 30.4904 58.8664C30.5001 58.7171 30.4792 58.5675 30.4291 58.4265C30.379 58.2856 30.3006 58.1564 30.1989 58.0468C29.941 57.8319 29.609 57.7271 29.2746 57.7552H27.9596L27.9537 59.9834Z" fill="white"/>
<path d="M39.1546 63.1447H35.8685L35.3204 64.7459H33.0898L36.2971 56.0371H38.7376L41.9449 64.7459H39.6881L39.1546 63.1447ZM38.6093 61.5319L37.5159 58.3061L36.4138 61.5319H38.6093Z" fill="white"/>
<path d="M47.2773 64.7461L45.3792 61.4329H44.8951V64.7461H42.7754V55.9761H46.3967C46.9997 55.9596 47.5983 56.0824 48.1462 56.3348C48.5958 56.5487 48.9715 56.8919 49.225 57.3206C49.4691 57.7588 49.5929 58.2539 49.5836 58.7555C49.6007 59.3418 49.4142 59.9158 49.0559 60.3801C48.6655 60.8516 48.1251 61.1748 47.5251 61.2958L49.6099 64.7461H47.2773ZM44.8951 59.9834H46.2101C46.546 60.008 46.8786 59.9038 47.1403 59.6917C47.2438 59.5822 47.3232 59.4521 47.3735 59.31C47.4237 59.1678 47.4436 59.0167 47.4318 58.8664C47.4415 58.7171 47.4206 58.5675 47.3705 58.4265C47.3204 58.2856 47.242 58.1564 47.1403 58.0468C46.8824 57.8319 46.5504 57.7271 46.216 57.7552H44.901L44.8951 59.9834Z" fill="white"/>
<path d="M28.5384 44.3861H10.3092C10.0197 44.3854 9.7424 44.2698 9.53798 44.0648C9.33356 43.8598 9.21875 43.582 9.21875 43.2924C9.21875 43.0032 9.33365 42.7257 9.53816 42.5212C9.74266 42.3166 10.02 42.2017 10.3092 42.2017H28.5384C28.6818 42.2013 28.8239 42.2292 28.9566 42.2839C29.0892 42.3385 29.2098 42.4188 29.3113 42.5201C29.4129 42.6215 29.4935 42.7418 29.5485 42.8744C29.6035 43.0069 29.6318 43.149 29.6318 43.2924C29.6318 43.5825 29.5166 43.8607 29.3115 44.0658C29.1065 44.2709 28.8284 44.3861 28.5384 44.3861Z" fill="#A140FF"/>
<path d="M28.5384 37.9433H10.3092C10.0197 37.9425 9.7424 37.8269 9.53798 37.6219C9.33356 37.4169 9.21875 37.1391 9.21875 36.8496C9.21952 36.5605 9.33467 36.2835 9.53901 36.0791C9.74335 35.8747 10.0203 35.7596 10.3092 35.7588H28.5384C28.8279 35.7588 29.1055 35.8736 29.3105 36.0781C29.5155 36.2826 29.631 36.56 29.6318 36.8496C29.6318 37.1396 29.5166 37.4178 29.3115 37.6229C29.1065 37.828 28.8284 37.9433 28.5384 37.9433Z" fill="#A140FF"/>
<path d="M28.5384 31.4999H10.3092C10.02 31.4999 9.74266 31.385 9.53816 31.1804C9.33365 30.9759 9.21875 30.6984 9.21875 30.4091C9.21875 30.1196 9.33356 29.8418 9.53798 29.6368C9.7424 29.4318 10.0197 29.3162 10.3092 29.3154H28.5384C28.8284 29.3154 29.1065 29.4306 29.3115 29.6357C29.5166 29.8409 29.6318 30.1191 29.6318 30.4091C29.6318 30.5526 29.6035 30.6947 29.5485 30.8272C29.4935 30.9597 29.4129 31.0801 29.3113 31.1814C29.2098 31.2828 29.0892 31.3631 28.9566 31.4177C28.8239 31.4724 28.6818 31.5003 28.5384 31.4999Z" fill="#A140FF"/>
<path d="M28.5384 25.0575H10.3092C10.02 25.0575 9.74266 24.9426 9.53816 24.7381C9.33365 24.5335 9.21875 24.2561 9.21875 23.9668C9.21875 23.6775 9.33365 23.4 9.53816 23.1955C9.74266 22.9909 10.02 22.876 10.3092 22.876H28.5384C28.6818 22.8756 28.8239 22.9035 28.9566 22.9582C29.0892 23.0128 29.2098 23.0931 29.3113 23.1944C29.4129 23.2958 29.4935 23.4162 29.5485 23.5487C29.6035 23.6812 29.6318 23.8233 29.6318 23.9668C29.6318 24.1103 29.6035 24.2523 29.5485 24.3849C29.4935 24.5174 29.4129 24.6378 29.3113 24.7391C29.2098 24.8404 29.0892 24.9207 28.9566 24.9754C28.8239 25.03 28.6818 25.0579 28.5384 25.0575Z" fill="#A140FF"/>
<path d="M36.7137 44.8758C35.7327 44.875 34.792 44.4848 34.0982 43.7909C33.4045 43.097 33.0144 42.156 33.0137 41.1747V37.4736H40.4109V41.1747C40.4101 42.1555 40.0204 43.0961 39.3273 43.7899C38.6342 44.4837 37.6943 44.8743 36.7137 44.8758ZM34.906 39.3665V41.1747C34.9067 41.654 35.0975 42.1136 35.4363 42.4525C35.7752 42.7914 36.2345 42.9822 36.7137 42.983C37.193 42.9822 37.6523 42.7914 37.9912 42.4525C38.33 42.1136 38.5207 41.654 38.5215 41.1747V39.3665H34.906Z" fill="#A140FF"/>
<path d="M33.0138 37.4761H36.7227V33.7662H33.0138V37.4761Z" fill="#A140FF"/>
<path d="M36.7111 33.7695H40.4199V30.0597H36.7111V33.7695Z" fill="#A140FF"/>
<path d="M33.0138 30.062H36.7227V26.3522H33.0138V30.062Z" fill="#A140FF"/>
<path d="M36.7111 26.356H40.4199V22.6461H36.7111V26.356Z" fill="#A140FF"/>
</svg>
