<svg width="60" height="71" viewBox="0 0 60 71" fill="none" xmlns="http://www.w3.org/2000/svg">
<path d="M41.6713 14.6137C40.0771 14.6121 38.5487 13.978 37.4215 12.8504C36.2942 11.7229 35.6603 10.1941 35.6587 8.59948V0.251953H8.79192C6.71137 0.251953 4.716 1.07848 3.24456 2.54978C1.77312 4.02108 0.946086 6.0167 0.945312 8.09782V55.4121C0.947631 57.4922 1.77535 59.4864 3.24662 60.9564C4.71789 62.4264 6.71238 63.2522 8.79192 63.2522H41.0414C42.0721 63.2525 43.0928 63.0498 44.0451 62.6555C44.9974 62.2613 45.8628 61.6832 46.5917 60.9543C47.3206 60.2255 47.8989 59.3601 48.2934 58.4076C48.6879 57.4552 48.891 56.4343 48.891 55.4034V14.6137H41.6713Z" fill="#FFE8EA"/>
<path d="M48.8924 14.6137H41.6727C40.0785 14.6121 38.5501 13.978 37.4229 12.8504C36.2957 11.7229 35.6617 10.1941 35.6602 8.59948V0.251953L48.8924 14.6137Z" fill="#FF3E4C"/>
<path d="M54.5804 50.0103H18.1204C15.5341 50.0103 13.4375 52.1075 13.4375 54.6945V65.5678C13.4375 68.1548 15.5341 70.252 18.1204 70.252H54.5804C57.1667 70.252 59.2633 68.1548 59.2633 65.5678V54.6945C59.2633 52.1075 57.1667 50.0103 54.5804 50.0103Z" fill="#FF3E4C"/>
<path d="M22.1439 62.4854V64.6058H19.9512V62.4854H22.1439Z" fill="white"/>
<path d="M27.7521 64.6055L25.8539 61.295H25.3698V64.6055H23.25V55.835H26.8715C27.4749 55.8181 28.0738 55.9419 28.621 56.1967C29.0713 56.4097 29.4472 56.7532 29.6999 57.1825C29.9441 57.6197 30.0678 58.1139 30.0586 58.6146C30.075 59.2003 29.8897 59.7739 29.5337 60.2392C29.1411 60.7102 28.6004 61.0341 28 61.158L30.1052 64.6055H27.7521ZM25.3698 59.8425H26.6849C27.0208 59.8678 27.3537 59.7634 27.6151 59.5509C27.7187 59.4419 27.7982 59.3124 27.8485 59.1707C27.8987 59.029 27.9185 58.8783 27.9066 58.7284C27.9165 58.5791 27.8957 58.4294 27.8456 58.2884C27.7954 58.1475 27.717 58.0183 27.6151 57.9088C27.3575 57.6933 27.0253 57.5884 26.6907 57.6171H25.3757L25.3698 59.8425Z" fill="white"/>
<path d="M36.5679 63.0069H33.2817L32.7277 64.6052H30.4941L33.7016 55.8989H36.1451L39.3526 64.6052H37.1015L36.5679 63.0069ZM36.0226 61.394L34.9321 58.1681L33.827 61.394H36.0226Z" fill="white"/>
<path d="M52.107 55.835L50.0134 64.6054H47.3891L45.9866 58.74L44.5724 64.6054H41.9481L39.8516 55.835H42.158L43.2865 62.1875L44.8231 55.835H47.1558L48.6925 62.1875L49.8326 55.835H52.107Z" fill="white"/>
<path d="M19.9977 36.3195H12.9179C12.3641 34.8605 12.0815 33.3126 12.084 31.7519C12.0819 30.1923 12.3645 28.6454 12.9179 27.1873C13.1384 26.61 13.4005 26.0495 13.7023 25.5103L14.6791 27.1873L17.3588 31.7869L18.5252 33.8111L19.9977 36.3195Z" fill="#FF3E4C"/>
<path d="M34.8629 39.872C32.8969 42.2836 30.1218 43.8985 27.0542 44.4161C26.4074 44.5235 25.7533 44.5821 25.0977 44.5911L26.1299 42.8411L28.7542 38.3611L29.9438 36.3194L31.4018 33.8228L32.8305 36.3194L33.9969 38.3611L34.8629 39.872Z" fill="#FF3E4C"/>
<path d="M37.752 31.7525C37.7547 33.3125 37.471 34.8597 36.9152 36.3171C36.6948 36.8973 36.4327 37.4607 36.1308 38.003L35.1686 36.3171L32.5851 31.805L31.4188 29.7634L29.9375 27.1763H36.9064C37.4667 28.6369 37.7533 30.1881 37.752 31.7525Z" fill="#FF3E4C"/>
<path d="M35.9352 25.1632H23.4902L24.9744 22.5733L26.1408 20.5316L26.9718 19.0732C30.1199 19.5812 32.9655 21.2451 34.9525 23.7399C35.3118 24.1916 35.6401 24.6671 35.9352 25.1632Z" fill="#FF3E4C"/>
<path d="M24.7292 18.9185L23.8049 20.5314L21.1544 25.1631L19.988 27.2047L18.5301 29.7743L17.0313 27.2047L15.865 25.1631L14.9902 23.6522C16.9962 21.1819 19.8493 19.5464 22.9943 19.0643C23.5687 18.9768 24.1483 18.9281 24.7292 18.9185Z" fill="#FF3E4C"/>
<path d="M26.4056 38.3496L24.9477 40.8171L23.7813 42.8238L22.8453 44.428C19.7825 43.9267 17.0051 42.332 15.0279 39.9392C14.6139 39.4379 14.2377 38.9066 13.9023 38.3496H26.4056Z" fill="#FF3E4C"/>
</svg>
