<svg width="59" height="71" viewBox="0 0 59 71" fill="none" xmlns="http://www.w3.org/2000/svg">
<path d="M40.933 15.0434C39.3386 15.0418 37.8098 14.4078 36.6821 13.2803C35.5544 12.1529 34.9198 10.624 34.9175 9.02917V0.681641H8.05361C5.97256 0.681641 3.97673 1.50856 2.5052 2.98049C1.03368 4.45242 0.207031 6.44879 0.207031 8.53042V55.8448C0.210122 57.9244 1.03814 59.9177 2.50933 61.3871C3.98052 62.8565 5.97458 63.6819 8.05361 63.6819H40.3032C42.3842 63.6819 44.38 62.8549 45.8515 61.383C47.323 59.9111 48.1498 57.9147 48.1498 55.8331V15.0434H40.933Z" fill="#FFF3E1"/>
<path d="M48.1502 15.0434H40.9334C39.339 15.0418 37.8103 14.4078 36.6826 13.2803C35.5549 12.1529 34.9203 10.624 34.918 9.02917V0.681641L48.1502 15.0434Z" fill="#FF9908"/>
<path d="M53.8422 50.4399H17.3821C14.7958 50.4399 12.6992 52.5371 12.6992 55.1241V65.9975C12.6992 68.5845 14.7958 70.6817 17.3821 70.6817H53.8422C56.4285 70.6817 58.5251 68.5845 58.5251 65.9975V55.1241C58.5251 52.5371 56.4285 50.4399 53.8422 50.4399Z" fill="#FF9908"/>
<path d="M25.2562 62.915V65.0355H23.0605V62.915H25.2562Z" fill="white"/>
<path d="M30.8654 65.0352L28.9671 61.7218H28.4831V65.0352H26.3633V56.2647H29.9906C30.5936 56.2479 31.1924 56.3707 31.7401 56.6234C32.1898 56.8373 32.5655 57.1806 32.819 57.6093C33.0631 58.0476 33.1869 58.5427 33.1776 59.0443C33.1941 59.63 33.0088 60.2036 32.6528 60.6689C32.2602 61.1399 31.7195 61.4638 31.1191 61.5876L33.2039 65.0352H30.8654ZM28.4831 60.2722H29.7982C30.1341 60.2975 30.4669 60.1931 30.7283 59.9805C30.8319 59.871 30.9113 59.7409 30.9615 59.5987C31.0118 59.4566 31.0317 59.3055 31.0199 59.1551C31.0302 59.0063 31.0097 58.8568 30.9595 58.7163C30.9093 58.5758 30.8306 58.4471 30.7283 58.3385C30.6011 58.2312 30.4539 58.1502 30.2953 58.1001C30.1366 58.0501 29.9697 58.0319 29.804 58.0468H28.489L28.4831 60.2722Z" fill="white"/>
<path d="M40.1947 63.8455C39.942 64.2484 39.5799 64.5711 39.1508 64.7759C38.6296 65.0204 38.0584 65.1393 37.4829 65.123C36.6158 65.1589 35.7614 64.9055 35.054 64.4026C34.7399 64.168 34.4828 63.8654 34.302 63.5174C34.1213 63.1694 34.0215 62.785 34.0101 62.393H36.267C36.2842 62.6888 36.411 62.9675 36.6228 63.1747C36.8318 63.37 37.1095 63.4748 37.3954 63.4663C37.6323 63.479 37.8647 63.3984 38.0428 63.2418C38.1196 63.1657 38.1799 63.0747 38.2201 62.9744C38.2602 62.874 38.2793 62.7665 38.276 62.6584C38.2793 62.5558 38.2619 62.4536 38.2248 62.3579C38.1878 62.2622 38.1318 62.1749 38.0603 62.1013C37.9054 61.9457 37.7224 61.821 37.5209 61.7338C37.3051 61.6405 37.0077 61.5267 36.6286 61.3926C36.1639 61.2394 35.71 61.0552 35.2698 60.8413C34.9087 60.654 34.5985 60.3818 34.3659 60.048C34.0972 59.6429 33.9645 59.1628 33.9868 58.6772C33.9745 58.1957 34.1132 57.7225 34.3834 57.3238C34.6598 56.9353 35.0397 56.6322 35.4798 56.4488C35.9898 56.2429 36.5366 56.1436 37.0864 56.1571C37.9208 56.112 38.7451 56.3572 39.4191 56.8513C39.705 57.0848 39.9391 57.3753 40.1068 57.7041C40.2744 58.033 40.3719 58.3932 40.393 58.7617H38.0982C38.0697 58.5039 37.9581 58.2623 37.7803 58.0734C37.6888 57.9867 37.5806 57.9194 37.4623 57.8758C37.3441 57.8322 37.2181 57.8131 37.0922 57.8196C36.8743 57.8085 36.66 57.8792 36.4916 58.018C36.412 58.0918 36.35 58.1825 36.3102 58.2835C36.2703 58.3844 36.2536 58.493 36.2612 58.6013C36.2579 58.7972 36.3312 58.9865 36.4653 59.1292C36.6122 59.28 36.7877 59.3999 36.9814 59.4822C37.1884 59.5726 37.4859 59.6892 37.8737 59.8292C38.3464 59.982 38.8065 60.1712 39.25 60.3951C39.6158 60.5891 39.9305 60.8669 40.1684 61.2059C40.4405 61.6173 40.5753 62.1044 40.5533 62.5972C40.5482 63.038 40.4243 63.4692 40.1947 63.8455Z" fill="white"/>
<path d="M47.6701 63.8456C47.4178 64.2477 47.057 64.5702 46.6292 64.776C46.108 65.0205 45.5368 65.1394 44.9613 65.1231C44.0933 65.159 43.238 64.9056 42.5295 64.4026C42.2162 64.1674 41.9599 63.8646 41.7797 63.5167C41.5994 63.1688 41.4999 62.7847 41.4885 62.393H43.7454C43.7615 62.6885 43.8873 62.9673 44.0982 63.1747C44.3085 63.37 44.5871 63.4747 44.8739 63.4664C45.1098 63.4793 45.3414 63.3986 45.5183 63.2418C45.596 63.1664 45.6572 63.0755 45.6979 62.9751C45.7385 62.8746 45.7578 62.7668 45.7545 62.6585C45.7571 62.556 45.7393 62.4539 45.7023 62.3583C45.6652 62.2627 45.6097 62.1754 45.5387 62.1014C45.3835 61.9461 45.2005 61.8215 44.9992 61.7339C44.7834 61.6406 44.486 61.5268 44.104 61.3926C43.64 61.24 43.187 61.0558 42.7482 60.8414C42.3862 60.6542 42.075 60.382 41.8413 60.048C41.575 59.642 41.4434 59.1623 41.4652 58.6772C41.4529 58.1957 41.5916 57.7225 41.8617 57.3239C42.1375 56.9347 42.5175 56.6314 42.9581 56.4489C43.4681 56.2429 44.0149 56.1436 44.5648 56.1572C45.3992 56.1118 46.2235 56.3571 46.8975 56.8514C47.1838 57.0844 47.4184 57.3747 47.5861 57.7037C47.7538 58.0327 47.851 58.3931 47.8714 58.7618H45.5766C45.551 58.5037 45.4402 58.2615 45.2617 58.0735C45.1702 57.9867 45.0619 57.9195 44.9436 57.8759C44.8253 57.8323 44.6994 57.8131 44.5735 57.8197C44.3556 57.8086 44.1413 57.8793 43.9728 58.018C43.8933 58.0919 43.8313 58.1826 43.7914 58.2835C43.7516 58.3845 43.7348 58.4931 43.7425 58.6014C43.738 58.7974 43.8114 58.9873 43.9466 59.1293C44.0936 59.28 44.2689 59.4 44.4627 59.4822C44.6668 59.5726 44.9642 59.6893 45.3549 59.8293C45.8276 59.9821 46.2878 60.1713 46.7312 60.3951C47.0971 60.5891 47.4118 60.867 47.6498 61.206C47.9219 61.6174 48.0566 62.1044 48.0346 62.5972C48.0289 63.0388 47.9029 63.4704 47.6701 63.8456Z" fill="white"/>
<path d="M17.0788 41.4011C18.2464 41.4011 19.1929 40.4543 19.1929 39.2865C19.1929 38.1186 18.2464 37.1719 17.0788 37.1719C15.9113 37.1719 14.9648 38.1186 14.9648 39.2865C14.9648 40.4543 15.9113 41.4011 17.0788 41.4011Z" fill="#FF9908"/>
<path d="M14.9648 28.9731V31.7294C17.5291 31.7325 19.9874 32.7528 21.8006 34.5664C23.6137 36.3801 24.6337 38.8391 24.6368 41.404H27.3923C27.3885 38.1083 26.0779 34.9487 23.7481 32.6183C21.4184 30.2879 18.2596 28.977 14.9648 28.9731Z" fill="#FF9908"/>
<path d="M33.3931 41.4012H30.6377C30.633 37.2448 28.9803 33.2599 26.0421 30.3209C23.1039 27.3818 19.1201 25.7287 14.9648 25.724V22.9678C19.8507 22.9732 24.5349 24.917 27.9897 28.3728C31.4445 31.8285 33.3877 36.514 33.3931 41.4012Z" fill="#FF9908"/>
</svg>
