<svg width="60" height="71" viewBox="0 0 60 71" fill="none" xmlns="http://www.w3.org/2000/svg">
<path d="M41.5736 15.184C39.9795 15.1824 38.4511 14.5483 37.3238 13.4208C36.1966 12.2932 35.5626 10.7644 35.5611 9.16979V0.822266H8.69719C6.61537 0.822266 4.61879 1.64948 3.14672 3.12196C1.67464 4.59444 0.847656 6.59157 0.847656 8.67397V55.9854C0.847656 58.0678 1.67464 60.0649 3.14672 61.5373C4.61879 63.0098 6.61537 63.8371 8.69719 63.8371H40.9467C41.9774 63.8371 42.998 63.6339 43.9501 63.2393C44.9023 62.8447 45.7674 62.2663 46.4961 61.5372C47.2248 60.808 47.8027 59.9424 48.1968 58.9898C48.591 58.0373 48.7937 57.0163 48.7933 55.9854V15.1869L41.5736 15.184Z" fill="#FFF3E1"/>
<path d="M48.7947 15.184H41.5751C39.9809 15.1824 38.4525 14.5483 37.3253 13.4208C36.198 12.2932 35.564 10.7644 35.5625 9.16979V0.822266L48.7947 15.184Z" fill="#FF9908"/>
<path d="M54.4867 50.5806H18.0266C15.4403 50.5806 13.3438 52.6778 13.3438 55.2648V66.1381C13.3438 68.7251 15.4403 70.8223 18.0266 70.8223H54.4867C57.073 70.8223 59.1696 68.7251 59.1696 66.1381V55.2648C59.1696 52.6778 57.073 50.5806 54.4867 50.5806Z" fill="#FF9908"/>
<path d="M24.1742 63.0557V65.179H21.9785V63.0557H24.1742Z" fill="white"/>
<path d="M31.224 63.9855C30.9733 64.389 30.612 64.712 30.1831 64.9159C29.6612 65.1615 29.0888 65.2804 28.5123 65.263C27.6457 65.2984 26.7917 65.0462 26.0834 64.5455C25.7694 64.3109 25.5127 64.0082 25.3324 63.6602C25.1521 63.3121 25.053 62.9278 25.0424 62.5359H27.2993C27.3154 62.8313 27.4412 63.1101 27.6521 63.3176C27.862 63.5134 28.1408 63.6182 28.4277 63.6093C28.6633 63.6226 28.8946 63.543 29.0721 63.3876C29.1499 63.3121 29.2111 63.2213 29.2518 63.1208C29.2924 63.0204 29.3117 62.9126 29.3083 62.8043C29.3115 62.701 29.2937 62.5982 29.2561 62.5019C29.2185 62.4057 29.1619 62.318 29.0896 62.2442C28.9359 62.088 28.7525 61.964 28.5502 61.8797C28.3344 61.7844 28.037 61.6707 27.6579 61.5384C27.1932 61.3852 26.7393 61.201 26.2992 60.9872C25.9373 60.7996 25.6269 60.5263 25.3952 60.1909C25.1262 59.786 24.9934 59.3057 25.0162 58.8201C25.0039 58.3395 25.1426 57.8672 25.4127 57.4696C25.6888 57.0796 26.0701 56.7761 26.512 56.5946C27.021 56.3887 27.5668 56.2894 28.1157 56.303C28.9503 56.2563 29.7751 56.5018 30.4484 56.9971C30.7294 57.2255 30.9606 57.5089 31.1281 57.8299C31.2956 58.1509 31.3957 58.5027 31.4223 58.8638H29.1275C29.1012 58.6054 28.9893 58.3631 28.8097 58.1755C28.7183 58.0886 28.6101 58.0213 28.4918 57.9777C28.3735 57.934 28.2475 57.915 28.1216 57.9217C27.9036 57.9106 27.6894 57.9813 27.5209 58.1201C27.4417 58.1941 27.38 58.2849 27.3401 58.3858C27.3003 58.4867 27.2833 58.5952 27.2905 58.7034C27.2886 58.8003 27.3059 58.8965 27.3414 58.9867C27.377 59.0768 27.4301 59.159 27.4976 59.2284C27.6427 59.3807 27.8173 59.5017 28.0108 59.5842C28.2178 59.6747 28.5152 59.7913 28.903 59.9313C29.3757 60.0828 29.8359 60.271 30.2793 60.4942C30.645 60.6897 30.9596 60.9685 31.1978 61.308C31.4693 61.7186 31.604 62.2045 31.5827 62.6963C31.5873 63.1513 31.4629 63.5983 31.224 63.9855Z" fill="white"/>
<path d="M34.3945 56.4082L36.5377 63.0057L38.6838 56.4082H40.9552L37.9023 65.1787H35.1614L32.123 56.4082H34.3945Z" fill="white"/>
<path d="M48.5925 57.1144C49.2993 57.6451 49.7753 58.4272 49.9221 59.2989H47.6769C47.5303 58.9859 47.2924 58.7246 46.9946 58.5494C46.6606 58.3509 46.2778 58.2499 45.8894 58.2577C45.5875 58.2454 45.2866 58.2996 45.0079 58.4165C44.7293 58.5335 44.4797 58.7103 44.277 58.9344C43.8504 59.445 43.6336 60.0987 43.6705 60.7631C43.6705 61.5973 43.8833 62.238 44.309 62.6852C44.5484 62.9174 44.8337 63.097 45.1465 63.2126C45.4593 63.3281 45.7928 63.377 46.1256 63.3561C46.6014 63.3647 47.0671 63.2183 47.4523 62.939C47.8457 62.6451 48.13 62.2284 48.26 61.7548H45.5804V60.2294H50.0329V62.3265C49.8616 62.848 49.5925 63.3321 49.2398 63.7527C48.8561 64.2046 48.3798 64.5687 47.8431 64.8202C47.2358 65.1009 46.5729 65.2404 45.904 65.2285C45.0904 65.2499 44.2857 65.0557 43.5713 64.6656C42.9178 64.298 42.3858 63.7476 42.0405 63.0819C41.6695 62.3611 41.4841 61.5591 41.5011 60.7485C41.4865 59.9429 41.6718 59.1462 42.0405 58.4298C42.3852 57.7656 42.9149 57.2155 43.5655 56.846C44.2692 56.4583 45.063 56.2641 45.8661 56.2831C46.8422 56.2479 47.802 56.5406 48.5925 57.1144Z" fill="white"/>
<path d="M36.7199 38.0771H35.9939C35.99 35.1336 34.8191 32.3119 32.7381 30.2308C30.6571 28.1498 27.8358 26.9793 24.8932 26.9762C21.9508 26.9793 19.1298 28.1499 17.0492 30.231C14.9687 32.3122 13.7985 35.1339 13.7954 38.0771H13.0664C13.0703 34.941 14.3176 31.9346 16.5348 29.7173C18.752 27.5 21.758 26.2531 24.8932 26.25C28.0284 26.2531 31.0343 27.5 33.2515 29.7173C35.4687 31.9346 36.7161 34.941 36.7199 38.0771Z" fill="#FF9908"/>
<path d="M41.6982 26.25H8.08984V26.9762H41.6982V26.25Z" fill="#FF9908"/>
<path d="M14.5935 36.9165H12.2695V39.2411H14.5935V36.9165Z" fill="#FF9908"/>
<path d="M37.5193 36.9165H35.1953V39.2411H37.5193V36.9165Z" fill="#FF9908"/>
<path d="M26.0544 25.4131H23.7305V27.7377H26.0544V25.4131Z" fill="#FF9908"/>
<path d="M8.0521 27.7406C8.69465 27.7406 9.21555 27.2196 9.21555 26.5768C9.21555 25.9341 8.69465 25.4131 8.0521 25.4131C7.40956 25.4131 6.88867 25.9341 6.88867 26.5768C6.88867 27.2196 7.40956 27.7406 8.0521 27.7406Z" fill="#FF9908"/>
<path d="M41.5873 27.7406C42.2298 27.7406 42.7507 27.2196 42.7507 26.5768C42.7507 25.9341 42.2298 25.4131 41.5873 25.4131C40.9447 25.4131 40.4238 25.9341 40.4238 26.5768C40.4238 27.2196 40.9447 27.7406 41.5873 27.7406Z" fill="#FF9908"/>
</svg>
