<svg width="59" height="71" viewBox="0 0 59 71" fill="none" xmlns="http://www.w3.org/2000/svg">
<path d="M40.8373 15.184C39.2431 15.1824 37.7147 14.5483 36.5875 13.4208C35.4602 12.2932 34.8263 10.7644 34.8248 9.16979V0.822266H7.95791C6.92723 0.822266 5.90666 1.02536 4.95448 1.41998C4.00229 1.81461 3.13716 2.393 2.4085 3.12214C1.67984 3.85127 1.1019 4.71687 0.707744 5.66946C0.313586 6.62205 0.110946 7.64301 0.111329 8.67397V55.9854C0.110946 57.0163 0.313586 58.0373 0.707744 58.9898C1.1019 59.9424 1.67984 60.808 2.4085 61.5372C3.13716 62.2663 4.00229 62.8447 4.95448 63.2393C5.90666 63.6339 6.92723 63.8371 7.95791 63.8371H40.2075C42.2893 63.8371 44.2859 63.0098 45.7579 61.5373C47.23 60.0649 48.0569 58.0678 48.0569 55.9854V15.1869L40.8373 15.184Z" fill="#F4E8FF"/>
<path d="M48.0584 15.184H40.8387C39.2445 15.1824 37.7161 14.5483 36.5889 13.4208C35.4616 12.2932 34.8277 10.7644 34.8262 9.16979V0.822266L48.0584 15.184Z" fill="#A140FF"/>
<path d="M53.7464 50.5806H17.2863C14.7001 50.5806 12.6035 52.6778 12.6035 55.2648V66.1381C12.6035 68.7251 14.7001 70.8223 17.2863 70.8223H53.7464C56.3327 70.8223 58.4293 68.7251 58.4293 66.1381V55.2648C58.4293 52.6778 56.3327 50.5806 53.7464 50.5806Z" fill="#A140FF"/>
<path d="M24.4964 63.0557V65.179H22.3008V63.0557H24.4964Z" fill="white"/>
<path d="M31.8952 56.4082V58.0941H29.5159V65.1787H27.3814V58.0941H25.0254V56.4082H31.8952Z" fill="white"/>
<path d="M34.9157 56.4082V65.1787H32.793V56.4082H34.9157Z" fill="white"/>
<path d="M42.0999 56.4082V58.0941H38.5046V60.0161H41.2834V61.6291H38.5046V65.1787H36.3848V56.4082H42.0999Z" fill="white"/>
<path d="M48.9026 56.4082V58.0941H45.3073V60.0161H48.0862V61.6291H45.3073V65.1787H43.1875V56.4082H48.9026Z" fill="white"/>
<path d="M30.5268 43.5251H17.6444C16.3836 43.5236 15.1749 43.0219 14.2833 42.1301C13.3918 41.2383 12.8902 40.0292 12.8887 38.768V25.885C12.8902 24.6239 13.3918 23.4148 14.2833 22.523C15.1749 21.6312 16.3836 21.1295 17.6444 21.1279H30.5268C31.7868 21.1302 32.9945 21.6324 33.885 22.5242C34.7754 23.416 35.276 24.6246 35.2767 25.885V38.768C35.276 40.0284 34.7754 41.2371 33.885 42.1289C32.9945 43.0206 31.7868 43.5228 30.5268 43.5251ZM17.6444 23.2308C16.9409 23.2316 16.2665 23.5115 15.769 24.0091C15.2716 24.5067 14.9918 25.1814 14.991 25.885V38.768C14.9918 39.4717 15.2716 40.1463 15.769 40.6439C16.2665 41.1415 16.9409 41.4214 17.6444 41.4221H30.5268C31.2298 41.4206 31.9035 41.1404 32.4003 40.6429C32.8971 40.1454 33.1765 39.4712 33.1772 38.768V25.885C33.1765 25.1819 32.8971 24.5076 32.4003 24.0101C31.9035 23.5126 31.2298 23.2324 30.5268 23.2308H17.6444Z" fill="#A140FF"/>
<path d="M34.2271 36.3183V38.7683C34.2271 39.7502 33.8373 40.6919 33.1435 41.3865C32.4497 42.0811 31.5085 42.4717 30.5269 42.4725H17.6445C16.6624 42.4725 15.7205 42.0822 15.026 41.3875C14.3316 40.6928 13.9414 39.7507 13.9414 38.7683V34.6558C16.0029 34.2124 19.1434 34.0724 22.9573 35.5949L25.3162 33.3433L26.9258 37.4266C26.9258 37.4266 27.3573 35.9245 28.7511 36.1374C30.1449 36.3503 32.4018 37.1058 33.367 36.4612C33.627 36.3111 33.9326 36.2604 34.2271 36.3183Z" fill="#A140FF"/>
<path d="M29.7188 28.5165C30.5095 28.5165 31.1505 27.8754 31.1505 27.0844C31.1505 26.2935 30.5095 25.6523 29.7188 25.6523C28.9281 25.6523 28.2871 26.2935 28.2871 27.0844C28.2871 27.8754 28.9281 28.5165 29.7188 28.5165Z" fill="#A140FF"/>
</svg>
