<svg width="59" height="71" viewBox="0 0 59 71" fill="none" xmlns="http://www.w3.org/2000/svg">
<path d="M40.931 15.3268C39.3366 15.3253 37.808 14.6913 36.6803 13.5639C35.5527 12.4365 34.9181 10.9077 34.9158 9.31289V0.962891H8.05323C5.97228 0.962891 3.97654 1.7898 2.50509 3.26166C1.03364 4.73351 0.207031 6.72974 0.207031 8.81126V56.1233C0.207031 58.2048 1.03364 60.2011 2.50509 61.673C3.97654 63.1448 5.97228 63.9717 8.05323 63.9717H40.3012C42.3822 63.9717 44.3778 63.1448 45.8493 61.673C47.3207 60.2011 48.1474 58.2048 48.1474 56.1233V15.3268H40.931Z" fill="#E0EEFF"/>
<path d="M48.1476 15.3268H40.9312C39.3369 15.3253 37.8082 14.6913 36.6805 13.5639C35.5529 12.4365 34.9183 10.9077 34.916 9.31289V0.962891L48.1476 15.3268Z" fill="#0072FF"/>
<path d="M38.2852 25.3832H8.18032C7.89135 25.3824 7.61444 25.2673 7.4101 25.0629C7.20577 24.8585 7.09061 24.5815 7.08984 24.2924C7.08984 24.0029 7.20461 23.7251 7.40904 23.5201C7.61346 23.3151 7.89084 23.1995 8.18032 23.1987H38.2852C38.5747 23.1995 38.8521 23.3151 39.0565 23.5201C39.2609 23.7251 39.3757 24.0029 39.3757 24.2924C39.3749 24.5815 39.2598 24.8585 39.0554 25.0629C38.8511 25.2673 38.5742 25.3824 38.2852 25.3832Z" fill="#0072FF"/>
<path d="M38.2852 31.9076H8.18032C7.89135 31.9069 7.61444 31.7917 7.4101 31.5873C7.20577 31.3829 7.09061 31.1059 7.08984 30.8168C7.08984 30.5273 7.20461 30.2495 7.40904 30.0445C7.61346 29.8395 7.89084 29.7239 8.18032 29.7231H38.2852C38.5747 29.7239 38.8521 29.8395 39.0565 30.0445C39.2609 30.2495 39.3757 30.5273 39.3757 30.8168C39.3749 31.1059 39.2598 31.3829 39.0554 31.5873C38.8511 31.7917 38.5742 31.9069 38.2852 31.9076Z" fill="#0072FF"/>
<path d="M38.2852 38.4316H8.18032C7.89084 38.4308 7.61346 38.3152 7.40904 38.1102C7.20461 37.9052 7.08984 37.6274 7.08984 37.3379C7.09061 37.0488 7.20577 36.7718 7.4101 36.5674C7.61444 36.363 7.89135 36.2478 8.18032 36.2471H38.2852C38.5742 36.2478 38.8511 36.363 39.0554 36.5674C39.2598 36.7718 39.3749 37.0488 39.3757 37.3379C39.3757 37.6274 39.2609 37.9052 39.0565 38.1102C38.8521 38.3152 38.5747 38.4308 38.2852 38.4316Z" fill="#0072FF"/>
<path d="M38.2852 44.953H8.18032C7.89111 44.953 7.61375 44.8381 7.40925 44.6335C7.20474 44.429 7.08984 44.1515 7.08984 43.8623C7.08984 43.5727 7.20461 43.2949 7.40904 43.0899C7.61346 42.8849 7.89084 42.7693 8.18032 42.7686H38.2852C38.5747 42.7693 38.8521 42.8849 39.0565 43.0899C39.2609 43.2949 39.3757 43.5727 39.3757 43.8623C39.3757 44.1515 39.2608 44.429 39.0563 44.6335C38.8518 44.8381 38.5744 44.953 38.2852 44.953Z" fill="#0072FF"/>
<path d="M53.8382 50.7222H17.3799C14.7938 50.7222 12.6973 52.8192 12.6973 55.4061V66.279C12.6973 68.8658 14.7938 70.9629 17.3799 70.9629H53.8382C56.4244 70.9629 58.5209 68.8658 58.5209 66.279V55.4061C58.5209 52.8192 56.4244 50.7222 53.8382 50.7222Z" fill="#0072FF"/>
<path d="M25.1545 63.1958V65.3161H22.959V63.1958H25.1545Z" fill="white"/>
<path d="M32.556 56.5459V58.2346H30.1738V65.3159H28.0424V58.2346H25.6836V56.5459H32.556Z" fill="white"/>
<path d="M38.7704 65.3159L36.9218 62.586L35.3327 65.3159H32.9039L35.7059 60.8011L32.8164 56.5459H35.3327L37.1317 59.1882L38.6829 56.5459H41.1L38.3359 60.9615L41.2866 65.3159H38.7704Z" fill="white"/>
<path d="M48.4046 56.5459V58.2346H46.0253V65.3159H43.891V58.2346H41.5352V56.5459H48.4046Z" fill="white"/>
</svg>
