<svg width="59" height="71" viewBox="0 0 59 71" fill="none" xmlns="http://www.w3.org/2000/svg">
<path d="M41.0268 15.0434C39.4326 15.0418 37.9042 14.4077 36.777 13.2801C35.6497 12.1526 35.0158 10.6238 35.0142 9.02917V0.681641H8.15032C7.11964 0.681258 6.09897 0.88399 5.14664 1.27826C4.19431 1.67252 3.32899 2.2506 2.60005 2.97947C1.87112 3.70833 1.29288 4.5737 0.898371 5.52615C0.50386 6.4786 0.300781 7.49946 0.300781 8.53042V55.8448C0.303872 57.9249 1.13233 59.9187 2.60415 61.3882C4.07597 62.8577 6.07078 63.6826 8.15032 63.6819H40.3998C41.4303 63.6819 42.4506 63.4789 43.4026 63.0844C44.3546 62.69 45.2196 62.1118 45.9482 61.383C46.6769 60.6542 47.2548 59.7889 47.6492 58.8367C48.0435 57.8844 48.2465 56.8638 48.2465 55.8331V15.0434H41.0268Z" fill="#E0F8EA"/>
<path d="M48.2478 15.0434H41.0281C39.434 15.0418 37.9056 14.4077 36.7784 13.2801C35.6511 12.1526 35.0172 10.6238 35.0156 9.02917V0.681641L48.2478 15.0434Z" fill="#00C650"/>
<path d="M53.9398 50.4399H17.4797C14.8935 50.4399 12.7969 52.5371 12.7969 55.1241V65.9975C12.7969 68.5845 14.8935 70.6817 17.4797 70.6817H53.9398C56.5261 70.6817 58.6227 68.5845 58.6227 65.9975V55.1241C58.6227 52.5371 56.5261 50.4399 53.9398 50.4399Z" fill="#00C650"/>
<path d="M21.1058 62.915V65.0355H18.9102V62.915H21.1058Z" fill="white"/>
<path d="M34.1285 56.2646L32.032 65.0351H29.4077L28.0081 59.1667L26.5939 65.0351H23.9696L21.873 56.2646H24.1795L25.308 62.6172L26.8475 56.2646H29.1802L30.7198 62.6172L31.8599 56.2646H34.1285Z" fill="white"/>
<path d="M40.6764 63.4341H37.3872L36.842 65.0354H34.6113L37.8188 56.3262H40.2623L43.4697 65.0354H41.2129L40.6764 63.4341ZM40.1282 61.8212L39.0376 58.5983L37.9354 61.8212H40.1282Z" fill="white"/>
<path d="M45.9326 56.2646L48.0787 62.8651L50.2248 56.2646H52.4933L49.4433 65.0351H46.7024L43.6641 56.2646H45.9326Z" fill="white"/>
<path d="M35.3579 39.1587H32.1504V26.2495C32.1504 25.817 31.9787 25.4023 31.673 25.0966C31.3674 24.7908 30.9528 24.619 30.5205 24.619H22.356C21.9237 24.619 21.5091 24.7908 21.2035 25.0966C20.8978 25.4023 20.7261 25.817 20.7261 26.2495V39.1587H17.5332V25.1586C17.5332 24.1669 17.927 23.2158 18.6281 22.5146C19.3291 21.8134 20.2799 21.4194 21.2713 21.4194H31.5964C32.5879 21.4194 33.5387 21.8134 34.2397 22.5146C34.9407 23.2158 35.3346 24.1669 35.3346 25.1586L35.3579 39.1587Z" fill="#00C650"/>
<path d="M31.5739 42.9447C33.6641 42.9447 35.3587 41.2498 35.3587 39.1589C35.3587 37.068 33.6641 35.373 31.5739 35.373C29.4836 35.373 27.7891 37.068 27.7891 39.1589C27.7891 41.2498 29.4836 42.9447 31.5739 42.9447Z" fill="#00C650"/>
<path d="M16.9762 42.9447C19.0665 42.9447 20.761 41.2498 20.761 39.1589C20.761 37.068 19.0665 35.373 16.9762 35.373C14.8859 35.373 13.1914 37.068 13.1914 39.1589C13.1914 41.2498 14.8859 42.9447 16.9762 42.9447Z" fill="#00C650"/>
</svg>
