<svg width="60" height="71" viewBox="0 0 60 71" fill="none" xmlns="http://www.w3.org/2000/svg">
<path d="M41.6713 15.0434C40.0771 15.0418 38.5487 14.4077 37.4215 13.2801C36.2943 12.1526 35.6603 10.6238 35.6588 9.02917V0.681641H8.79192C6.71138 0.68164 4.716 1.50817 3.24456 2.97947C1.77312 4.45077 0.946086 6.44638 0.945312 8.5275V55.8418C0.947631 57.9219 1.77535 59.9161 3.24662 61.3861C4.71789 62.8561 6.71239 63.6819 8.79192 63.6819H41.0415C42.0721 63.6823 43.0928 63.4795 44.0451 63.0853C44.9975 62.691 45.8628 62.1129 46.5917 61.384C47.3207 60.6552 47.8989 59.7898 48.2934 58.8374C48.6879 57.8849 48.891 56.8641 48.891 55.8331V15.0434H41.6713Z" fill="#FFF3E1"/>
<path d="M48.8924 15.0434H41.6727C40.0785 15.0418 38.5501 14.4077 37.4229 13.2801C36.2957 12.1526 35.6617 10.6238 35.6602 9.02917V0.681641L48.8924 15.0434Z" fill="#FF9908"/>
<path d="M54.5804 50.4399H18.1204C15.5341 50.4399 13.4375 52.5371 13.4375 55.1241V65.9975C13.4375 68.5845 15.5341 70.6817 18.1204 70.6817H54.5804C57.1667 70.6817 59.2633 68.5845 59.2633 65.9975V55.1241C59.2633 52.5371 57.1667 50.4399 54.5804 50.4399Z" fill="#FF9908"/>
<path d="M20.4828 62.915V65.0355H18.2871V62.915H20.4828Z" fill="white"/>
<path d="M33.5035 56.2646L31.4069 65.0351H28.7827L27.383 59.1667L25.9688 65.0351H23.3446L21.248 56.2646H23.5545L24.6829 62.6172L26.2225 56.2646H28.5552L30.0948 62.6172L31.2349 56.2646H33.5035Z" fill="white"/>
<path d="M44.4796 56.3262V65.0354H42.351V59.5987L40.4644 65.0441H38.6304L36.7321 59.587V65.0441H34.6094V56.3349H37.2016L39.5722 62.4016L41.8903 56.3349L44.4796 56.3262Z" fill="white"/>
<path d="M51.3901 63.4341H48.0894L47.5412 65.0354H45.3105L48.518 56.3262H50.9615L54.169 65.0354H51.9121L51.3901 63.4341ZM50.8449 61.8212L49.7514 58.5983L48.6492 61.8212H50.8449Z" fill="white"/>
<path d="M35.2505 39.1587H32.0576V26.2495C32.0576 25.817 31.8859 25.4023 31.5802 25.0966C31.2745 24.7908 30.8599 24.619 30.4276 24.619H22.2632C21.8309 24.619 21.4163 24.7908 21.1107 25.0966C20.805 25.4023 20.6332 25.817 20.6332 26.2495V39.1587H17.4258V25.1586C17.4266 24.1667 17.821 23.2156 18.5225 22.5144C19.224 21.8133 20.1752 21.4194 21.1668 21.4194H31.4919C32.4834 21.4194 33.4342 21.8134 34.1352 22.5146C34.8363 23.2158 35.2301 24.1669 35.2301 25.1586L35.2505 39.1587Z" fill="#FF9908"/>
<path d="M31.4664 42.9447C33.5567 42.9447 35.2512 41.2498 35.2512 39.1589C35.2512 37.068 33.5567 35.373 31.4664 35.373C29.3762 35.373 27.6816 37.068 27.6816 39.1589C27.6816 41.2498 29.3762 42.9447 31.4664 42.9447Z" fill="#FF9908"/>
<path d="M16.8649 42.9447C18.9552 42.9447 20.6497 41.2498 20.6497 39.1589C20.6497 37.068 18.9552 35.373 16.8649 35.373C14.7746 35.373 13.0801 37.068 13.0801 39.1589C13.0801 41.2498 14.7746 42.9447 16.8649 42.9447Z" fill="#FF9908"/>
</svg>
