<svg width="59" height="71" viewBox="0 0 59 71" fill="none" xmlns="http://www.w3.org/2000/svg">
<path d="M41.3862 15.0434C39.792 15.0418 38.2636 14.4077 37.1364 13.2801C36.0091 12.1526 35.3752 10.6238 35.3736 9.02917V0.681641H8.50681C6.42576 0.681641 4.42992 1.50856 2.9584 2.98049C1.48687 4.45242 0.660156 6.44879 0.660156 8.53042V55.8448C0.663247 57.9244 1.49134 59.9177 2.96253 61.3871C4.43372 62.8565 6.42778 63.6819 8.50681 63.6819H40.7563C42.8373 63.6819 44.8332 62.8549 46.3047 61.383C47.7762 59.9111 48.603 57.9147 48.603 55.8331V15.0434H41.3862Z" fill="#F4E8FF"/>
<path d="M48.6043 15.0434H41.3876C39.7934 15.0418 38.265 14.4077 37.1378 13.2801C36.0105 12.1526 35.3765 10.6238 35.375 9.02917V0.681641L48.6043 15.0434Z" fill="#A140FF"/>
<path d="M54.2953 50.4399H17.8352C15.249 50.4399 13.1523 52.5371 13.1523 55.1241V65.9975C13.1523 68.5845 15.249 70.6817 17.8352 70.6817H54.2953C56.8816 70.6817 58.9781 68.5845 58.9781 65.9975V55.1241C58.9781 52.5371 56.8816 50.4399 54.2953 50.4399Z" fill="#A140FF"/>
<path d="M24.2328 62.915V65.0355H22.0371V62.915H24.2328Z" fill="white"/>
<path d="M30.6545 65.0351L28.8058 62.3051L27.2196 65.0351H24.7877L27.5928 60.5201L24.7031 56.2646H27.2196L29.0186 58.9072L30.567 56.2646H32.9872L30.22 60.6805L33.1737 65.0351H30.6545Z" fill="white"/>
<path d="M43.8517 56.3262V65.0354H41.729V59.5987L39.8453 65.0441H38.0083L36.113 59.587V65.0441H33.9902V56.3349H36.5824L38.9531 62.4016L41.2712 56.3349L43.8517 56.3262Z" fill="white"/>
<path d="M47.4352 63.4105H50.2636V65.0351H45.3066V56.2646H47.4294L47.4352 63.4105Z" fill="white"/>
<path d="M12.471 33.9872C12.4669 33.8618 12.505 33.7386 12.5789 33.6372C12.6674 33.5235 12.7737 33.425 12.8938 33.3455C13.0757 33.2514 13.2637 33.1695 13.4566 33.1005L14.0193 32.8672L16.2704 31.9193C16.5834 31.7734 17.1665 31.5304 18.0199 31.1901L19.09 30.7526L19.4749 30.6155L19.542 30.5864C19.5602 30.5825 19.5791 30.5825 19.5974 30.5864C19.6405 30.5673 19.6873 30.5573 19.7345 30.5572C19.8248 30.5522 19.9152 30.5654 20.0003 30.5959C20.0854 30.6265 20.1636 30.6738 20.2302 30.7351C20.2866 30.7883 20.3315 30.8525 20.3621 30.9237C20.3927 30.995 20.4083 31.0717 20.408 31.1493V31.8901C20.4052 32.0276 20.3627 32.1613 20.2855 32.2751C20.2044 32.4021 20.0834 32.4986 19.9415 32.5493L15.3432 34.4305L19.9415 36.3118C20.0784 36.3684 20.1973 36.4611 20.2855 36.5801C20.3657 36.6891 20.4086 36.8211 20.408 36.9564V37.6972C20.4081 37.7756 20.3923 37.8532 20.3618 37.9253C20.3312 37.9975 20.2865 38.0628 20.2302 38.1172C20.1647 38.1804 20.0868 38.2294 20.0015 38.261C19.9162 38.2926 19.8253 38.3062 19.7345 38.301C19.6876 38.3005 19.6411 38.2916 19.5974 38.2747L19.4749 38.2339L19.09 38.0968L18.0287 37.6651L16.2791 36.9389L14.0281 35.991L13.4654 35.7576C13.2846 35.6847 13.095 35.603 12.9025 35.5097C12.7831 35.454 12.6809 35.3672 12.6065 35.2585C12.5321 35.1497 12.4883 35.0229 12.4798 34.8914L12.471 33.9872Z" fill="#A140FF"/>
<path d="M26.2087 39.0946C26.0628 39.0982 25.9185 39.0631 25.7905 38.9929C25.6625 38.9227 25.5553 38.82 25.4798 38.695C25.4171 38.605 25.3671 38.5069 25.331 38.4033L25.2348 38.1437L23.1354 33.5033L22.9837 33.1591C22.8088 32.7858 22.4706 32.045 21.969 30.9366C21.3178 29.5269 20.9922 28.754 20.9922 28.6179C20.9923 28.5359 21.011 28.4549 21.0469 28.3812C21.0827 28.3074 21.1348 28.2428 21.1993 28.192C21.3448 28.069 21.5308 28.0045 21.7212 28.0112H22.4035C22.5473 28.0087 22.6891 28.0444 22.8146 28.1146C22.9401 28.1848 23.0447 28.287 23.1179 28.4108L23.2695 28.7025L23.3657 28.962L23.9139 30.1696L25.4652 33.6025L25.6693 34.04L26.6315 36.1546C27.0004 36.9131 27.3256 37.6922 27.6054 38.4879C27.6049 38.5694 27.586 38.6498 27.5502 38.723C27.5143 38.7962 27.4624 38.8604 27.3983 38.9108C27.253 39.0341 27.0669 39.0986 26.8765 39.0917L26.2087 39.0946Z" fill="#A140FF"/>
<path d="M28.7488 38.3061C28.6557 38.3122 28.5623 38.299 28.4745 38.2674C28.3867 38.2358 28.3064 38.1864 28.2385 38.1224C28.1263 38.0112 28.0624 37.8603 28.0606 37.7024V36.9615C28.0593 36.827 28.1001 36.6955 28.1773 36.5853C28.2645 36.4629 28.3864 36.3694 28.5272 36.3169L33.1401 34.4357L28.5272 32.5574C28.3871 32.496 28.2684 32.3945 28.186 32.2657C28.1065 32.155 28.0627 32.0227 28.0606 31.8865V31.134C28.0596 31.0571 28.0747 30.9808 28.1048 30.91C28.1349 30.8392 28.1795 30.7754 28.2356 30.7228C28.3726 30.5994 28.553 30.5355 28.7371 30.5448C28.7797 30.5441 28.8218 30.5541 28.8595 30.574C28.8846 30.5696 28.9103 30.5696 28.9354 30.574L28.9966 30.6032C28.9792 30.6032 29.1016 30.6382 29.3669 30.7403L30.4517 31.1778C30.3953 31.1525 30.9785 31.3955 32.2012 31.9069C32.8679 32.1811 33.6319 32.5058 34.493 32.8811L34.7117 32.9628L35.0266 33.0882C35.2123 33.1541 35.3917 33.2361 35.5631 33.3332C35.6856 33.3891 35.7902 33.4778 35.8654 33.5895C35.9405 33.7012 35.9833 33.8316 35.9889 33.9661V34.8703C35.9863 34.9943 35.9455 35.1144 35.8722 35.2144C35.7908 35.3277 35.6852 35.4213 35.5631 35.4886C35.3969 35.5703 35.2016 35.6578 34.9799 35.7511L34.3968 35.9845L29.3173 38.1107C29.1716 38.1836 29.0841 38.2303 29.0579 38.2478L29.0024 38.2886L28.7488 38.3061Z" fill="#A140FF"/>
</svg>
