<svg width="59" height="71" viewBox="0 0 59 71" fill="none" xmlns="http://www.w3.org/2000/svg">
<path d="M41.3842 15.3268C39.7901 15.3253 38.2618 14.6911 37.1346 13.5637C36.0074 12.4362 35.3735 10.9074 35.3719 9.31289V0.962891H8.50643C6.42548 0.962891 4.42974 1.7898 2.95829 3.26166C1.48683 4.73351 0.660156 6.72974 0.660156 8.81126V56.1233C0.660156 58.2048 1.48683 60.2011 2.95829 61.673C4.42974 63.1448 6.42548 63.9717 8.50643 63.9717H40.7543C42.8353 63.9717 44.831 63.1448 46.3025 61.673C47.7739 60.2011 48.6006 58.2048 48.6006 56.1233V15.3268H41.3842Z" fill="#E0F8EA"/>
<path d="M48.6017 15.3268H41.3853C39.7912 15.3253 38.2629 14.6911 37.1357 13.5637C36.0085 12.4362 35.3746 10.9074 35.373 9.31289V0.962891L48.6017 15.3268Z" fill="#00C650"/>
<path d="M54.2913 50.7222H17.8331C15.2469 50.7222 13.1504 52.8192 13.1504 55.4061V66.279C13.1504 68.8658 15.2469 70.9629 17.8331 70.9629H54.2913C56.8775 70.9629 58.974 68.8658 58.974 66.279V55.4061C58.974 52.8192 56.8775 50.7222 54.2913 50.7222Z" fill="#00C650"/>
<path d="M26.1526 63.1958V65.3161H23.957V63.1958H26.1526Z" fill="white"/>
<path d="M32.576 65.3159L30.7304 62.586L29.1413 65.3159H26.7125L29.5145 60.8011L26.625 56.5459H29.1413L30.9403 59.1882L32.4915 56.5459H34.9086L32.1445 60.9615L35.0952 65.3159H32.576Z" fill="white"/>
<path d="M41.8605 64.1266C41.6089 64.5293 41.2478 64.852 40.8196 65.0569C40.2983 65.3011 39.7271 65.42 39.1518 65.404C38.2837 65.4403 37.4283 65.1869 36.7201 64.6836C36.4068 64.4484 36.1505 64.1457 35.9703 63.7978C35.7901 63.4499 35.6906 63.0658 35.6792 62.6742H37.9359C37.952 62.9696 38.0778 63.2483 38.2887 63.4558C38.4986 63.6515 38.7774 63.7564 39.0643 63.7474C39.1812 63.7543 39.2983 63.738 39.4089 63.6994C39.5195 63.6609 39.6214 63.6009 39.7087 63.5228C39.7865 63.4474 39.8476 63.3565 39.8883 63.2561C39.929 63.1557 39.9482 63.0478 39.9448 62.9395C39.9477 62.8367 39.9299 62.7344 39.8923 62.6387C39.8547 62.543 39.7982 62.4559 39.7262 62.3825C39.5718 62.2262 39.3887 62.1014 39.1868 62.015C38.9749 61.9217 38.6775 61.8079 38.2946 61.6737C37.8299 61.5205 37.376 61.3364 36.9359 61.1225C36.5742 60.9361 36.2637 60.6637 36.032 60.3292C35.763 59.9243 35.6301 59.4441 35.6529 58.9585C35.6424 58.4773 35.7809 58.0046 36.0495 57.6052C36.3253 57.2149 36.7066 56.9114 37.1487 56.7302C37.6583 56.5229 38.2053 56.4236 38.7553 56.4386C39.5902 56.3925 40.415 56.639 41.0878 57.1357C41.3742 57.3687 41.6088 57.6589 41.7765 57.9879C41.9442 58.3169 42.0413 58.6772 42.0617 59.0459H39.767C39.7414 58.7879 39.6306 58.5457 39.4521 58.3577C39.3609 58.2703 39.2529 58.2024 39.1345 58.1583C39.0162 58.1142 38.8901 58.0946 38.764 58.101C38.5454 58.091 38.3306 58.1617 38.1604 58.2994C38.0819 58.3738 38.0208 58.4647 37.9815 58.5655C37.9422 58.6663 37.9256 58.7747 37.933 58.8827C37.9285 59.0787 38.0019 59.2685 38.1371 59.4105C38.2822 59.5621 38.4568 59.6822 38.6503 59.7635C38.8573 59.8539 39.1547 59.9705 39.5425 60.1105C40.0156 60.2647 40.4766 60.4538 40.9216 60.6763C41.2851 60.8725 41.5984 61.1499 41.8371 61.4871C42.1092 61.8985 42.244 62.3855 42.222 62.8783C42.2181 63.3197 42.0931 63.7515 41.8605 64.1266Z" fill="white"/>
<path d="M45.5133 63.6914H48.3532V65.3159H43.3965V56.5459H45.5191L45.5133 63.6914Z" fill="white"/>
<path d="M35.325 44.9555H13.9468C12.0953 44.9555 10.5879 43.1122 10.5879 40.8432V25.3301C10.5879 23.064 12.0953 21.2207 13.9468 21.2207H35.3337C37.1823 21.2207 38.6897 23.064 38.6897 25.3301V40.8432C38.681 43.1122 37.1735 44.9555 35.325 44.9555ZM13.9468 23.3206C13.04 23.3206 12.3053 24.2218 12.3053 25.3301V40.8432C12.3053 41.9514 13.04 42.8526 13.9468 42.8526H35.3337C36.2376 42.8526 36.9723 41.9514 36.9723 40.8432V25.3301C36.9723 24.2218 36.2376 23.3206 35.3337 23.3206H13.9468Z" fill="#00C650"/>
<path d="M37.8239 35.6143H11.4395V37.7171H37.8239V35.6143Z" fill="#00C650"/>
<path d="M37.8239 28.4048H11.4395V30.5076H37.8239V28.4048Z" fill="#00C650"/>
<path d="M31.0671 22.2715H28.9648V43.9034H31.0671V22.2715Z" fill="#00C650"/>
<path d="M20.2975 22.2715H18.1953V43.9034H20.2975V22.2715Z" fill="#00C650"/>
</svg>
