<svg width="59" height="71" viewBox="0 0 59 71" fill="none" xmlns="http://www.w3.org/2000/svg">
<path d="M41.1205 14.7565C39.5261 14.7542 37.9978 14.1194 36.8707 12.9915C35.7436 11.8635 35.1098 10.3345 35.1082 8.7397V0.392578H8.2427C6.16175 0.392578 4.16605 1.21945 2.6946 2.69131C1.22314 4.16317 0.396484 6.15946 0.396484 8.24098V55.553C0.399575 57.6325 1.22759 59.6258 2.69871 61.0951C4.16982 62.5645 6.16377 63.3897 8.2427 63.3897H40.4936C42.5725 63.3897 44.5665 62.5645 46.0376 61.0951C47.5087 59.6258 48.3367 57.6325 48.3398 55.553V14.7565H41.1205Z" fill="#FFE8EA"/>
<path d="M48.3409 14.7565H41.1216C39.5273 14.7542 37.9989 14.1194 36.8718 12.9915C35.7447 11.8635 35.1109 10.3345 35.1094 8.7397V0.392578L48.3409 14.7565Z" fill="#FF3E4C"/>
<path d="M54.0276 50.1519H17.5694C14.9832 50.1519 12.8867 52.2489 12.8867 54.8358V65.7087C12.8867 68.2955 14.9832 70.3926 17.5694 70.3926H54.0276C56.6138 70.3926 58.7103 68.2955 58.7103 65.7087V54.8358C58.7103 52.2489 56.6138 50.1519 54.0276 50.1519Z" fill="#FF3E4C"/>
<path d="M27.3225 62.6255V64.7458H25.127V62.6255H27.3225Z" fill="white"/>
<path d="M30.6215 63.0336H34.4907V64.7456H28.2656V63.1328L32.0736 57.6759H28.3152V55.9756H34.4674V57.5884L30.6215 63.0336Z" fill="white"/>
<path d="M37.9118 55.9756V64.7456H35.8008V55.9756H37.9118Z" fill="white"/>
<path d="M41.4986 61.6687V64.7456H39.3789V55.9756H42.802C43.8429 55.9756 44.6389 56.2323 45.1841 56.7514C45.4602 57.022 45.6759 57.348 45.8171 57.7078C45.9583 58.0677 46.0218 58.4535 46.0034 58.8396C46.0126 59.3497 45.8858 59.8531 45.636 60.2979C45.3815 60.7329 45.0042 61.0829 44.5514 61.3041C44.0049 61.5611 43.4056 61.686 42.802 61.6687H41.4986ZM43.8545 58.8396C43.8545 58.0716 43.4288 57.6828 42.5775 57.673H41.4986V59.9537H42.5775C43.4288 59.9635 43.8545 59.5921 43.8545 58.8396Z" fill="white"/>
<path d="M24.3632 44.8758C23.3826 44.8743 22.4427 44.4837 21.7496 43.7899C21.0565 43.0961 20.6668 42.1555 20.666 41.1747V37.4736H28.0632V41.1747C28.0624 42.156 27.6724 43.097 26.9786 43.7909C26.2849 44.4848 25.3442 44.875 24.3632 44.8758ZM22.5583 39.3665V41.1747C22.5583 41.6538 22.7484 42.1133 23.0868 42.4523C23.4251 42.7913 23.8842 42.9822 24.3632 42.983C24.8424 42.9822 25.3017 42.7914 25.6406 42.4525C25.9794 42.1136 26.1701 41.654 26.1709 41.1747V39.3665H22.5583Z" fill="#FF3E4C"/>
<path d="M20.6623 37.4761H24.3711V33.7662H20.6623V37.4761Z" fill="#FF3E4C"/>
<path d="M24.3635 33.7695H28.0723V30.0597H24.3635V33.7695Z" fill="#FF3E4C"/>
<path d="M20.6623 30.062H24.3711V26.3522H20.6623V30.062Z" fill="#FF3E4C"/>
<path d="M24.3635 26.356H28.0723V22.6461H24.3635V26.356Z" fill="#FF3E4C"/>
</svg>
