<svg width="168" height="32" viewBox="0 0 168 32" fill="none" xmlns="http://www.w3.org/2000/svg">
    <path d="M21.8197 22.4534C23.3695 22.4534 24.6258 21.1971 24.6258 19.6474C24.6258 18.0976 23.3695 16.8413 21.8197 16.8413C20.27 16.8413 19.0137 18.0976 19.0137 19.6474C19.0137 21.1971 20.27 22.4534 21.8197 22.4534Z" fill="url(#paint0_linear_4256_13983)"/>
    <path d="M21.8334 29.3664C23.3832 29.3602 24.6344 28.0988 24.6282 26.5491C24.622 24.9994 23.3606 23.7481 21.8109 23.7544C20.2612 23.7606 19.0099 25.0219 19.0161 26.5717C19.0224 28.1214 20.2837 29.3726 21.8334 29.3664Z" fill="url(#paint1_linear_4256_13983)"/>
    <path d="M22.3987 0.00847803C22.3379 0.0140072 22.2798 0.0195363 22.219 0.0250655C21.8817 0.0637696 21.5417 0.110767 21.2044 0.16053L20.798 0.221351L20.6432 0.246232L20.61 0.251761C16.9165 1.00096 14.1602 2.65971 12.1808 5.322C11.9458 5.63993 11.7274 5.96338 11.5311 6.28131C10.0161 8.74455 9.4494 11.4428 8.94625 13.8231L8.80525 14.4893C8.38504 16.4826 7.951 18.5422 6.98616 20.1125C6.87834 20.2839 6.75947 20.4636 6.62953 20.6378C6.1402 21.2902 5.54029 21.8459 4.84638 22.2772C4.07506 22.7554 3.21251 23.0734 2.33338 23.289C1.84957 23.4079 1.39065 23.4328 0.967673 23.7258C0.613807 23.9718 0.337349 24.3285 0.193591 24.7376C0.171474 24.804 0.152122 24.8703 0.135535 24.9395C0.0995953 25.0915 0.0830078 25.2491 0.0830078 25.4039C0.0830078 26.5291 0.998083 27.4414 2.12327 27.4414C2.19515 27.4414 2.26426 27.4386 2.33061 27.4303L2.36931 27.4248L2.48543 27.4055L2.54072 27.3972L2.61536 27.3833C5.81951 26.7337 8.19152 25.321 9.86962 23.0651C10.0714 22.7914 10.2567 22.5177 10.4225 22.2468C11.7578 20.0738 12.2665 17.6631 12.7586 15.327L12.8996 14.6607C13.353 12.5044 13.823 10.2761 14.9675 8.4128C15.103 8.19163 15.255 7.9677 15.4181 7.74654C16.77 5.93021 18.719 4.78291 21.3786 4.23828C21.5196 4.21617 21.6578 4.19682 21.796 4.17746C22.5148 4.07241 23.2861 4.089 23.8777 3.61072C24.345 3.23198 24.6214 2.65418 24.6214 2.05427V1.99345C24.6214 1.38524 24.3394 0.804677 23.8612 0.425929C23.6483 0.25729 23.4022 0.132884 23.1424 0.061005C22.8991 -0.00534486 22.6447 -0.0136386 22.3932 0.00571345L22.3987 0.00847803Z" fill="url(#paint2_linear_4256_13983)"/>
    <path d="M22.3987 0.00847803C22.3379 0.0140072 22.2798 0.0195363 22.219 0.0250655C21.8817 0.0637696 21.5417 0.110767 21.2044 0.16053L20.798 0.221351L20.6432 0.246232L20.61 0.251761C16.9165 1.00096 14.1602 2.65971 12.1808 5.322C11.9458 5.63993 11.7274 5.96338 11.5311 6.28131C10.0161 8.74455 9.4494 11.4428 8.94625 13.8231L8.80525 14.4893C8.38504 16.4826 7.951 18.5422 6.98616 20.1125C6.87834 20.2839 6.75947 20.4636 6.62953 20.6378C6.1402 21.2902 5.54029 21.8459 4.84638 22.2772C4.07506 22.7554 3.21251 23.0734 2.33338 23.289C1.84957 23.4079 1.39065 23.4328 0.967673 23.7258C0.613807 23.9718 0.337349 24.3285 0.193591 24.7376C0.171474 24.804 0.152122 24.8703 0.135535 24.9395C0.0995953 25.0915 0.0830078 25.2491 0.0830078 25.4039C0.0830078 26.5291 0.998083 27.4414 2.12327 27.4414C2.19515 27.4414 2.26426 27.4386 2.33061 27.4303L2.36931 27.4248L2.48543 27.4055L2.54072 27.3972L2.61536 27.3833C5.81951 26.7337 8.19152 25.321 9.86962 23.0651C10.0714 22.7914 10.2567 22.5177 10.4225 22.2468C11.7578 20.0738 12.2665 17.6631 12.7586 15.327L12.8996 14.6607C13.353 12.5044 13.823 10.2761 14.9675 8.4128C15.103 8.19163 15.255 7.9677 15.4181 7.74654C16.77 5.93021 18.719 4.78291 21.3786 4.23828C21.5196 4.21617 21.6578 4.19682 21.796 4.17746C22.5148 4.07241 23.2861 4.089 23.8777 3.61072C24.345 3.23198 24.6214 2.65418 24.6214 2.05427V1.99345C24.6214 1.38524 24.3394 0.804677 23.8612 0.425929C23.6483 0.25729 23.4022 0.132884 23.1424 0.061005C22.8991 -0.00534486 22.6447 -0.0136386 22.3932 0.00571345L22.3987 0.00847803Z" fill="url(#paint3_linear_4256_13983)"/>
    <path d="M21.8622 6.27585L22.0557 6.24268C22.0972 6.23715 23.0952 6.09063 23.2086 6.0768C23.2721 6.06851 23.3357 6.06298 23.4021 6.05745C23.438 6.05745 23.4712 6.05469 23.5044 6.05469C23.7891 6.05469 24.0158 6.12933 24.2149 6.28691C24.4747 6.49426 24.6295 6.81495 24.6295 7.14946V7.24069C24.6295 7.35404 24.613 7.46462 24.5798 7.57244C24.4775 7.90143 24.2232 8.16683 23.9025 8.28294C23.7532 8.33546 23.5956 8.35482 23.4435 8.37417C23.3938 8.3797 23.344 8.38523 23.297 8.39352L22.6335 8.48752L22.299 8.53728C20.4771 8.92432 20.2615 9.63758 19.4073 10.7849C19.2911 10.9452 19.1971 11.0862 19.117 11.2134C18.2655 12.5984 17.8729 14.4562 17.461 16.4246L17.32 17.0909C16.7975 19.5735 16.2031 22.3878 14.5692 25.0473C14.3564 25.3957 14.1159 25.7495 13.856 26.0979C11.6775 29.0283 7.82644 30.8502 3.8095 31.6657L3.56069 31.71L3.13771 31.7708C2.58479 31.8482 1.99594 31.9284 1.40708 31.992C1.36285 31.9975 1.31862 32.0003 1.27438 32.0003C0.619178 32.0003 0.0883789 31.4943 0.0883789 30.8695V30.8391C0.0883789 30.7562 0.0966726 30.676 0.11326 30.5959C0.212785 30.1452 0.586003 29.7914 1.04492 29.7195C1.21356 29.6918 1.38497 29.6752 1.55637 29.6587C1.67525 29.6476 1.79689 29.6338 1.91577 29.62C2.21158 29.5813 2.50739 29.5398 2.8032 29.4956L3.35888 29.4098C6.79801 28.7132 10.1984 27.1788 12.0203 24.7239C12.2387 24.4281 12.4405 24.1295 12.6202 23.8392C14.044 21.5225 14.5941 18.9155 15.0779 16.6154L15.2189 15.9491C15.6778 13.7762 16.1091 11.7276 17.1679 10.008C17.2868 9.81451 17.4223 9.61546 17.5716 9.41365" fill="url(#paint4_linear_4256_13983)"/>
    <path d="M1.27145 32.0001C0.616248 32.0001 0.0854492 31.4942 0.0854492 30.8694V30.839C0.0854492 30.756 0.093743 30.6759 0.11033 30.5957C0.209855 30.1451 0.583073 29.7912 1.04199 29.7193C1.21063 29.6917 1.38204 29.6751 1.55344 29.6585C1.67232 29.6474 1.79396 29.6336 1.91284 29.6198C2.20865 29.5811 2.50446 29.5396 2.80027 29.4954L3.35595 29.4097C6.79508 28.713 10.1955 27.1787 12.0174 24.7237C12.2358 24.4279 12.4376 24.1293 12.6173 23.8391C14.041 21.5223 14.5912 18.9153 15.075 16.6152L15.216 15.949C15.6749 13.776 16.1062 11.7274 17.165 10.0079C17.2839 9.81436 17.4194 9.61531 17.5686 9.41349C18.7795 7.78516 19.3988 7.0636 21.8648 6.28122L22.0583 6.24805C22.0998 6.24252 23.0978 6.096 23.2112 6.08218C23.2747 6.07388 23.3383 6.06835 23.4047 6.06282C23.4406 6.06282 23.4738 6.06006 23.507 6.06006C23.7917 6.06006 24.0184 6.1347 24.2175 6.29228C24.4773 6.49963 24.6321 6.82032 24.6321 7.15483V7.24606C24.6321 7.35941 24.6156 7.46999 24.5824 7.57781C24.4801 7.9068 24.2258 8.1722 23.9051 8.28831C23.7558 8.34084 23.5982 8.36019 23.4461 8.37954C23.3964 8.38507 23.3466 8.3906 23.2996 8.39889L22.6361 8.49289L22.3016 8.54265C20.4051 9.21997 20.2641 9.64295 19.4099 10.7903C19.2937 10.9506 19.1997 11.0916 19.1196 11.2188C18.2681 12.6038 17.8755 14.4616 17.4636 16.43L17.3226 17.0963C16.8001 19.5788 16.2057 22.3932 14.5718 25.0527C14.359 25.4011 14.1185 25.7549 13.8586 26.1033C11.6801 29.0337 7.82903 30.8556 3.8121 31.6711L3.56329 31.7154L3.14031 31.7762C2.58739 31.8536 1.99854 31.9338 1.40968 31.9973C1.36545 32.0029 1.32122 32.0056 1.27698 32.0056L1.27145 32.0001Z" fill="url(#paint5_linear_4256_13983)"/>
    <path d="M35.6572 24.4308C34.3662 24.0382 33.3433 23.5157 32.5913 22.866L33.7469 20.2756C34.4823 20.8562 35.3835 21.3317 36.4534 21.6994C37.5206 22.0671 38.596 22.2523 39.6742 22.2523C41.0067 22.2523 42.0047 22.0394 42.6627 21.6109C43.3206 21.1824 43.6496 20.6184 43.6496 19.919C43.6496 19.4048 43.4644 18.9818 43.0967 18.65C42.729 18.3155 42.2618 18.0557 41.6978 17.8677C41.1339 17.6797 40.3653 17.4668 39.3894 17.2263C38.0209 16.9028 36.9151 16.5766 36.0664 16.2504C35.2204 15.9269 34.4933 15.4155 33.8851 14.7243C33.2769 14.0304 32.9756 13.096 32.9756 11.9155C32.9756 10.923 33.2437 10.0218 33.7828 9.20901C34.3219 8.39622 35.1347 7.75207 36.2184 7.27104C37.3049 6.79276 38.6347 6.55225 40.2077 6.55225C41.3025 6.55225 42.3779 6.69047 43.4395 6.9614C44.5011 7.2351 45.4162 7.62767 46.1847 8.14188L45.1342 10.7323C44.3463 10.2706 43.528 9.9195 42.671 9.68175C41.8167 9.44123 40.9873 9.32235 40.1828 9.32235C38.8669 9.32235 37.8882 9.54629 37.2469 9.98862C36.6055 10.4337 36.2848 11.0226 36.2848 11.7579C36.2848 12.2722 36.4672 12.6896 36.8377 13.0158C37.2054 13.3421 37.6726 13.5964 38.2366 13.7844C38.8006 13.9724 39.5719 14.1852 40.545 14.4258C41.8775 14.7326 42.9723 15.0533 43.8293 15.3878C44.6836 15.7224 45.4162 16.231 46.0216 16.9139C46.6298 17.5995 46.9312 18.5229 46.9312 19.684C46.9312 20.6765 46.663 21.575 46.1239 22.3767C45.5848 23.1812 44.7693 23.8226 43.6745 24.3008C42.5797 24.7791 41.2444 25.0196 39.6714 25.0196C38.2863 25.0196 36.9483 24.8233 35.6572 24.4308Z" fill="white"/>
    <path d="M39.6716 25.1581C38.2782 25.1581 36.9153 24.9563 35.6159 24.5609C34.3111 24.1628 33.2633 23.6265 32.5003 22.9685L32.4229 22.9022L33.6918 20.0547L33.8328 20.1652C34.5516 20.7347 35.4473 21.2047 36.4978 21.5669C37.5456 21.929 38.6127 22.1115 39.6716 22.1115C40.9737 22.1115 41.9524 21.9042 42.5854 21.4922C43.2075 21.0886 43.5088 20.5716 43.5088 19.9137C43.5088 19.4382 43.3429 19.0539 43.0029 18.747C42.6518 18.4291 42.1984 18.1747 41.6538 17.9923C41.0926 17.8071 40.3213 17.5914 39.3564 17.3537C37.9907 17.0302 36.8683 16.7012 36.0168 16.375C35.1543 16.0432 34.4023 15.518 33.783 14.8102C33.1555 14.0942 32.8375 13.1183 32.8375 11.9102C32.8375 10.8956 33.1168 9.95841 33.6697 9.12627C34.2198 8.29413 35.0603 7.62787 36.1661 7.13854C37.2664 6.65474 38.6266 6.40869 40.2107 6.40869C41.311 6.40869 42.4085 6.54692 43.4784 6.82338C44.5511 7.09984 45.4882 7.50346 46.2651 8.02321L46.3591 8.08679L45.2035 10.9315L45.0653 10.8514C44.294 10.398 43.4756 10.0496 42.6352 9.81465C41.7948 9.57966 40.9709 9.46079 40.183 9.46079C38.9003 9.46079 37.9382 9.67642 37.3244 10.1022C36.7162 10.5224 36.4204 11.0642 36.4204 11.7582C36.4204 12.2337 36.5863 12.6124 36.9263 12.911C37.2775 13.2234 37.7336 13.4722 38.2755 13.6519C38.8311 13.8371 39.6052 14.0528 40.5728 14.2905C41.9026 14.5974 43.014 14.9236 43.8737 15.2581C44.7446 15.5982 45.4993 16.1234 46.1213 16.8229C46.7489 17.5306 47.0668 18.4927 47.0668 19.6842C47.0668 20.6988 46.7876 21.6305 46.2347 22.4543C45.6845 23.2754 44.8386 23.9417 43.7245 24.4282C42.6159 24.912 41.2502 25.1581 39.666 25.1581H39.6716ZM32.7601 22.8275C33.4872 23.4302 34.4742 23.9251 35.6989 24.2983C36.9706 24.6853 38.3086 24.8816 39.6743 24.8816C41.2197 24.8816 42.5467 24.6439 43.6222 24.1739C44.6865 23.7094 45.491 23.0791 46.0135 22.2995C46.5333 21.5226 46.7987 20.6407 46.7987 19.6842C46.7987 18.5618 46.5029 17.6605 45.9223 17.0053C45.3307 16.3418 44.6119 15.8387 43.7825 15.5152C42.9338 15.1862 41.8362 14.8628 40.5175 14.5587C39.5389 14.3182 38.7593 14.1025 38.1953 13.9145C37.6175 13.721 37.1309 13.4528 36.7494 13.1183C36.3513 12.7672 36.1523 12.3111 36.1523 11.7582C36.1523 10.9785 36.4951 10.3455 37.1752 9.87547C37.8359 9.41655 38.8505 9.18433 40.1913 9.18433C41.0041 9.18433 41.8528 9.30597 42.7181 9.54925C43.5309 9.77595 44.3216 10.1077 45.0736 10.5362L46.0218 8.19737C45.2892 7.72463 44.4128 7.35694 43.4121 7.09707C42.367 6.82891 41.2916 6.69068 40.2134 6.69068C38.668 6.69068 37.3438 6.92843 36.2794 7.39841C35.2234 7.86286 34.4244 8.49871 33.9019 9.28385C33.3822 10.069 33.1168 10.9537 33.1168 11.913C33.1168 13.052 33.4126 13.9671 33.9931 14.6305C34.582 15.3023 35.298 15.8055 36.1191 16.1179C36.9568 16.4413 38.0709 16.7648 39.4228 17.0883C40.3959 17.326 41.1755 17.5444 41.7422 17.7324C42.3228 17.9259 42.8094 18.1996 43.1909 18.5424C43.5862 18.9018 43.788 19.3635 43.788 19.9137C43.788 20.6629 43.4342 21.2711 42.7375 21.7217C42.0602 22.1613 41.029 22.3852 39.6743 22.3852C38.5851 22.3852 37.4876 22.1972 36.4094 21.8267C35.3975 21.4784 34.5212 21.0278 33.8024 20.4887L32.7629 22.8248L32.7601 22.8275Z" fill="white"/>
    <path d="M62.3165 11.078L55.9027 25.8795C55.3028 27.3669 54.5757 28.4146 53.7215 29.0228C52.8672 29.6283 51.8305 29.9324 50.6168 29.9324C49.934 29.9324 49.2567 29.8218 48.5904 29.5979C47.9241 29.3767 47.3768 29.0671 46.9482 28.6745L48.231 26.3136C48.5379 26.6038 48.9028 26.8361 49.3203 27.0075C49.7405 27.1789 50.1634 27.2646 50.5892 27.2646C51.1532 27.2646 51.6204 27.118 51.9881 26.8278C52.3558 26.5375 52.693 26.0482 53.0027 25.3653L53.2321 24.8262L47.2551 11.0752H50.5892L54.8992 21.2074L59.234 11.0752H62.3138L62.3165 11.078Z" fill="white"/>
    <path d="M50.6167 30.0705C49.9228 30.0705 49.2261 29.9544 48.546 29.7305C47.8632 29.5038 47.2937 29.1831 46.8541 28.7767L46.7739 28.7048L48.1949 26.0923L48.3249 26.2167C48.6207 26.4959 48.9718 26.7198 49.3726 26.8829C49.7735 27.0461 50.1826 27.129 50.589 27.129C51.1171 27.129 51.5594 26.9908 51.9022 26.7226C52.2506 26.4461 52.5768 25.9734 52.8753 25.3127L53.0827 24.8316L47.0449 10.9424H50.683L54.9018 20.8617L59.1454 10.9424H62.5265L56.0297 25.9375C55.4243 27.4386 54.6751 28.5168 53.8015 29.1388C52.9251 29.7609 51.8552 30.076 50.6167 30.076V30.0705ZM47.1223 28.644C47.5231 28.9896 48.029 29.266 48.6345 29.4651C49.2842 29.6807 49.9532 29.7913 50.6167 29.7913C51.7944 29.7913 52.8118 29.4927 53.6411 28.9066C54.4705 28.3178 55.1865 27.281 55.7726 25.8241L62.1035 11.2105H59.3279L54.9018 21.5584L50.5006 11.2105H47.4678L53.384 24.8233L53.1297 25.4177C52.8118 26.1199 52.4579 26.6314 52.0764 26.9327C51.6838 27.2423 51.1862 27.3999 50.5918 27.3999C50.1495 27.3999 49.7044 27.3115 49.2703 27.1345C48.8971 26.9825 48.5598 26.7807 48.2696 26.5346L47.1223 28.644Z" fill="white"/>
    <path d="M85.8266 12.4242C86.8356 13.425 87.3415 14.9261 87.3415 16.9277V24.7791H84.1346V17.3396C84.1346 16.1425 83.8692 15.2413 83.3384 14.6331C82.8076 14.0249 82.0474 13.7235 81.0549 13.7235C79.9767 13.7235 79.1142 14.0774 78.4645 14.7879C77.8148 15.4984 77.4886 16.5102 77.4886 17.8289V24.7819H74.2817V17.3424C74.2817 16.1453 74.0163 15.2441 73.4855 14.6358C72.9547 14.0276 72.1944 13.7263 71.2019 13.7263C70.1072 13.7263 69.2391 14.0774 68.5977 14.7768C67.9563 15.479 67.6356 16.4964 67.6356 17.8289V24.7819H64.4287V11.0778H67.4808V12.8223C67.995 12.2058 68.6364 11.7358 69.405 11.4123C70.1735 11.0861 71.0305 10.9258 71.9705 10.9258C72.9961 10.9258 73.9084 11.1193 74.7019 11.5036C75.4981 11.8879 76.1256 12.4574 76.5873 13.2093C77.1513 12.4905 77.8784 11.9321 78.7686 11.5285C79.6588 11.1276 80.6402 10.9258 81.7184 10.9258C83.4462 10.9258 84.8147 11.4262 85.8238 12.4269L85.8266 12.4242Z" fill="white"/>
    <path d="M87.4769 24.9144H83.9935V17.3367C83.9935 16.1811 83.7364 15.2992 83.2333 14.7214C82.7329 14.1492 82.0003 13.8589 81.0548 13.8589C80.0236 13.8589 79.1859 14.2017 78.5667 14.879C77.9446 15.5591 77.6295 16.5488 77.6295 17.8261V24.9172H74.1461V17.3395C74.1461 16.1839 73.889 15.302 73.3858 14.7242C72.8855 14.1519 72.1528 13.8616 71.2073 13.8616C70.1596 13.8616 69.3164 14.2017 68.7054 14.868C68.0917 15.5397 67.7793 16.535 67.7793 17.8288V24.92H64.2959V10.9395H67.6245V12.46C68.1055 11.9596 68.6888 11.5643 69.3578 11.2823C70.1402 10.9505 71.0221 10.7847 71.9759 10.7847C73.0181 10.7847 73.9581 10.9837 74.7681 11.3763C75.5256 11.744 76.1421 12.2775 76.6066 12.9714C77.165 12.3107 77.8728 11.7827 78.7159 11.4012C79.62 10.992 80.6318 10.7874 81.7238 10.7874C83.4793 10.7874 84.8948 11.3072 85.926 12.3273C86.9572 13.3502 87.4797 14.8984 87.4797 16.9276V24.9172L87.4769 24.9144ZM84.27 24.638H87.2004V16.9248C87.2004 14.9702 86.7056 13.4912 85.7269 12.5208C84.7483 11.5505 83.4019 11.0611 81.7183 11.0611C80.665 11.0611 79.6918 11.2602 78.8238 11.6527C77.9584 12.0426 77.2424 12.5955 76.695 13.2921L76.5734 13.4497L76.4683 13.2811C76.0232 12.554 75.4067 11.9983 74.641 11.6279C73.8696 11.2546 72.9711 11.0639 71.9704 11.0639C71.0525 11.0639 70.2066 11.2242 69.4601 11.5394C68.7137 11.8546 68.0834 12.3162 67.5885 12.9106L67.3452 13.2037V11.2159H64.5696V24.638H67.5V17.8233C67.5 16.4603 67.8346 15.4015 68.4981 14.6772C69.1643 13.9501 70.0739 13.5797 71.2046 13.5797C72.233 13.5797 73.0347 13.9031 73.5932 14.5362C74.1433 15.1665 74.4226 16.1092 74.4226 17.334V24.6352H77.353V17.8205C77.353 16.4742 77.693 15.4209 78.3648 14.6883C79.0394 13.9529 79.9462 13.5797 81.0575 13.5797C82.086 13.5797 82.8905 13.9031 83.4461 14.5362C83.9963 15.1665 84.2755 16.1092 84.2755 17.334V24.6352L84.27 24.638Z" fill="white"/>
    <path d="M100.736 11.7939C101.786 12.3744 102.613 13.1955 103.213 14.2571C103.81 15.3187 104.111 16.5406 104.111 17.9257C104.111 19.3107 103.813 20.5382 103.213 21.6081C102.613 22.678 101.789 23.5019 100.736 24.0852C99.6851 24.6657 98.4908 24.956 97.1583 24.956C95.3115 24.956 93.8491 24.3395 92.7709 23.1093V29.7526H89.564V11.0778H92.6161V12.8748C93.1469 12.2251 93.7993 11.7386 94.5789 11.4123C95.3585 11.0861 96.2155 10.9258 97.1583 10.9258C98.4908 10.9258 99.6851 11.2161 100.736 11.7966V11.7939ZM99.71 21.0303C100.47 20.2424 100.852 19.2085 100.852 17.9257C100.852 16.6429 100.47 15.609 99.71 14.8211C98.9497 14.0359 97.9793 13.6406 96.7989 13.6406C96.0303 13.6406 95.3364 13.8175 94.7199 14.1659C94.1034 14.517 93.6168 15.0174 93.2574 15.667C92.898 16.3167 92.7184 17.0687 92.7184 17.9257C92.7184 18.7827 92.898 19.5347 93.2574 20.1844C93.6168 20.834 94.1034 21.3344 94.7199 21.6855C95.3364 22.0366 96.0275 22.2108 96.7989 22.2108C97.9793 22.2108 98.9497 21.8182 99.71 21.0303Z" fill="white"/>
    <path d="M92.9092 29.8908H89.4258V10.9396H92.7543V12.5072C93.252 11.9791 93.8463 11.57 94.5264 11.2852C95.3171 10.9535 96.2045 10.7876 97.1583 10.7876C98.5102 10.7876 99.7349 11.0862 100.805 11.6778C101.875 12.2694 102.726 13.1154 103.334 14.1936C103.943 15.2717 104.249 16.5269 104.249 17.9285C104.249 19.3301 103.943 20.5936 103.334 21.6773C102.726 22.7638 101.875 23.6152 100.805 24.2069C99.7377 24.7957 98.5102 25.0971 97.1583 25.0971C95.4139 25.0971 93.9846 24.5469 92.9092 23.4632V29.8936V29.8908ZM89.7022 29.6144H92.6327V22.7389L92.876 23.0153C93.921 24.2096 95.3613 24.8151 97.1583 24.8151C98.4632 24.8151 99.6437 24.5276 100.669 23.9608C101.692 23.3941 102.508 22.5813 103.091 21.539C103.674 20.4968 103.97 19.2804 103.97 17.9257C103.97 16.5711 103.674 15.3602 103.091 14.3263C102.508 13.2923 101.692 12.4823 100.669 11.9155C99.6437 11.3488 98.4604 11.0613 97.1583 11.0613C96.2405 11.0613 95.3917 11.2216 94.6342 11.5368C93.8823 11.852 93.2381 12.3302 92.7267 12.9578L92.4806 13.2591V11.2133H89.705V29.6144H89.7022ZM96.7989 22.3491C96.0082 22.3491 95.2867 22.1666 94.6536 21.8044C94.0177 21.4423 93.5091 20.9198 93.1386 20.2508C92.7682 19.5817 92.5829 18.8021 92.5829 17.9257C92.5829 17.0494 92.7709 16.2698 93.1386 15.6007C93.5091 14.9317 94.0177 14.4092 94.6536 14.047C95.2867 13.6849 96.011 13.5024 96.8017 13.5024C98.0153 13.5024 99.0272 13.9143 99.8123 14.7244C100.595 15.5344 100.993 16.6126 100.993 17.9257C100.993 19.2389 100.595 20.3171 99.8123 21.1271C99.0272 21.9371 98.0153 22.3491 96.8017 22.3491H96.7989ZM96.7989 13.7816C96.058 13.7816 95.3807 13.953 94.7891 14.2903C94.1974 14.6276 93.7247 15.1142 93.3791 15.739C93.0336 16.3665 92.8566 17.1019 92.8566 17.9285C92.8566 18.7551 93.0308 19.4933 93.3791 20.1181C93.7247 20.7428 94.1974 21.2294 94.7891 21.5667C95.3807 21.904 96.058 22.0754 96.7989 22.0754C97.9352 22.0754 98.8806 21.6939 99.6105 20.9364C100.343 20.1789 100.714 19.167 100.714 17.9285C100.714 16.69 100.343 15.6781 99.6105 14.9206C98.8806 14.1659 97.9324 13.7816 96.7989 13.7816Z" fill="white"/>
    <path d="M118.263 12.4352C119.306 13.4443 119.828 14.9399 119.828 16.9249V24.7763H116.621V17.3368C116.621 16.1398 116.339 15.2385 115.775 14.6303C115.211 14.0221 114.407 13.7208 113.364 13.7208C112.184 13.7208 111.252 14.0746 110.569 14.7851C109.884 15.4956 109.544 16.5158 109.544 17.851V24.7763H106.337V5.74219H109.544V12.6675C110.075 12.1035 110.727 11.6722 111.507 11.3709C112.286 11.0723 113.152 10.923 114.111 10.923C115.839 10.923 117.224 11.4289 118.266 12.438L118.263 12.4352Z" fill="white"/>
    <path d="M119.966 24.9146H116.483V17.3369C116.483 16.1813 116.209 15.3021 115.673 14.7243C115.139 14.1493 114.36 13.859 113.362 13.859C112.225 13.859 111.319 14.2018 110.666 14.8819C110.011 15.562 109.679 16.56 109.679 17.8511V24.9174H106.196V5.604H109.679V12.3358C110.177 11.8741 110.771 11.5064 111.454 11.2437C112.245 10.9396 113.138 10.7848 114.108 10.7848C115.864 10.7848 117.296 11.3073 118.36 12.3385C119.427 13.3697 119.966 14.9151 119.966 16.9277V24.9174V24.9146ZM116.759 24.6381H119.69V16.925C119.69 14.9897 119.178 13.5135 118.166 12.5348C117.155 11.5561 115.789 11.0613 114.108 11.0613C113.174 11.0613 112.314 11.2106 111.554 11.5008C110.799 11.7911 110.155 12.2141 109.643 12.7615L109.405 13.0158V5.88046H106.475V24.6381H109.405V17.8483C109.405 16.4826 109.765 15.421 110.47 14.6884C111.178 13.953 112.153 13.5826 113.364 13.5826C114.443 13.5826 115.288 13.9033 115.877 14.5364C116.463 15.1667 116.762 16.1094 116.762 17.3369V24.6381H116.759Z" fill="white"/>
    <path d="M125.592 24.0579C124.481 23.4607 123.613 22.6258 122.988 21.5559C122.363 20.486 122.051 19.2779 122.051 17.926C122.051 16.5741 122.363 15.3688 122.988 14.3099C123.613 13.2484 124.481 12.419 125.592 11.8218C126.704 11.2247 127.953 10.9233 129.338 10.9233C130.723 10.9233 131.998 11.2219 133.109 11.8218C134.22 12.4217 135.089 13.2511 135.713 14.3099C136.338 15.3715 136.651 16.5769 136.651 17.926C136.651 19.2751 136.338 20.4888 135.713 21.5559C135.089 22.6258 134.22 23.4579 133.109 24.0579C131.998 24.6578 130.74 24.9563 129.338 24.9563C127.937 24.9563 126.704 24.6578 125.592 24.0579ZM132.263 21.0306C133.032 20.2427 133.419 19.2088 133.419 17.926C133.419 16.6433 133.034 15.6093 132.263 14.8214C131.495 14.0363 130.519 13.6409 129.338 13.6409C128.158 13.6409 127.187 14.0335 126.427 14.8214C125.667 15.6093 125.285 16.6433 125.285 17.926C125.285 19.2088 125.667 20.2427 126.427 21.0306C127.187 21.8185 128.158 22.2111 129.338 22.2111C130.519 22.2111 131.492 21.8185 132.263 21.0306Z" fill="white"/>
    <path d="M129.335 25.0944C127.934 25.0944 126.651 24.7876 125.526 24.1794C124.398 23.5712 123.502 22.7141 122.869 21.6249C122.236 20.5384 121.913 19.2944 121.913 17.9259C121.913 16.5574 122.233 15.3161 122.869 14.2379C123.502 13.1598 124.398 12.3055 125.526 11.6973C126.654 11.0919 127.934 10.7822 129.335 10.7822C130.737 10.7822 132.045 11.0891 133.173 11.6973C134.301 12.3055 135.196 13.1598 135.829 14.2379C136.463 15.3161 136.786 16.5547 136.786 17.9259C136.786 19.2971 136.465 20.5412 135.829 21.6249C135.194 22.7114 134.301 23.5712 133.173 24.1794C132.045 24.7848 130.754 25.0944 129.335 25.0944ZM129.335 11.0614C127.981 11.0614 126.742 11.3573 125.656 11.9433C124.572 12.5267 123.712 13.3478 123.104 14.3817C122.496 15.4157 122.186 16.61 122.186 17.9287C122.186 19.2474 122.496 20.4472 123.104 21.4894C123.712 22.5317 124.569 23.3555 125.653 23.9389C126.74 24.5249 127.975 24.8208 129.333 24.8208C130.69 24.8208 131.954 24.5249 133.037 23.9389C134.121 23.3555 134.978 22.5317 135.586 21.4894C136.194 20.4472 136.504 19.2501 136.504 17.9287C136.504 16.6072 136.194 15.4157 135.586 14.3817C134.978 13.3478 134.121 12.5294 133.034 11.9433C131.948 11.3573 130.701 11.0614 129.33 11.0614H129.335ZM129.335 22.3492C128.122 22.3492 127.11 21.9373 126.325 21.1273C125.542 20.3173 125.144 19.2418 125.144 17.9259C125.144 16.61 125.542 15.5373 126.325 14.7245C127.11 13.9145 128.122 13.5026 129.335 13.5026C130.549 13.5026 131.567 13.9145 132.36 14.7245C133.153 15.5345 133.554 16.61 133.554 17.9259C133.554 19.2418 133.153 20.3173 132.36 21.1273C131.567 21.9373 130.549 22.3492 129.335 22.3492ZM129.335 13.7818C128.199 13.7818 127.254 14.1633 126.524 14.9208C125.791 15.6783 125.421 16.6901 125.421 17.9287C125.421 19.1672 125.791 20.1818 126.524 20.9365C127.254 21.6913 128.199 22.0755 129.335 22.0755C130.472 22.0755 131.423 21.694 132.161 20.9365C132.902 20.179 133.275 19.1672 133.275 17.9287C133.275 16.6901 132.899 15.6783 132.161 14.9208C131.423 14.1661 130.472 13.7818 129.335 13.7818Z" fill="white"/>
    <path d="M150.927 12.4351C151.969 13.4441 152.492 14.9398 152.492 16.9248V24.7762H149.285V17.3367C149.285 16.1396 149.003 15.2384 148.439 14.6302C147.875 14.0219 147.07 13.7206 146.028 13.7206C144.848 13.7206 143.916 14.0745 143.233 14.785C142.547 15.4955 142.207 16.5156 142.207 17.8509V24.7762H139V11.0777H142.053V12.847C142.583 12.2139 143.25 11.7356 144.054 11.4094C144.859 11.0832 145.765 10.9229 146.774 10.9229C148.502 10.9229 149.887 11.4288 150.93 12.4378L150.927 12.4351Z" fill="white"/>
    <path d="M152.63 24.9144H149.146V17.3367C149.146 16.1811 148.873 15.302 148.336 14.7242C147.803 14.1492 147.023 13.8589 146.025 13.8589C144.889 13.8589 143.982 14.2017 143.33 14.8818C142.674 15.5619 142.343 16.5599 142.343 17.8509V24.9172H138.859V10.9395H142.188V12.4876C142.688 11.9707 143.297 11.567 143.999 11.2823C144.814 10.9533 145.749 10.7847 146.769 10.7847C148.524 10.7847 149.956 11.3072 151.021 12.3384C152.088 13.3695 152.627 14.9149 152.627 16.9276V24.9172L152.63 24.9144ZM149.423 24.638H152.353V16.9248C152.353 14.9896 151.842 13.5133 150.83 12.5346C149.818 11.556 148.452 11.0611 146.769 11.0611C145.782 11.0611 144.883 11.2215 144.101 11.5394C143.321 11.8546 142.666 12.3245 142.155 12.9355L141.911 13.2258V11.2132H139.136V24.6352H142.066V17.8454C142.066 16.4797 142.426 15.4181 143.131 14.6855C143.838 13.9501 144.812 13.5797 146.025 13.5797C147.103 13.5797 147.949 13.9003 148.538 14.5334C149.124 15.1638 149.423 16.1065 149.423 17.334V24.6352V24.638Z" fill="white"/>
    <path d="M165.579 12.3718C166.649 13.3394 167.183 14.7963 167.183 16.7454V24.7737H164.156V23.1067C163.763 23.7066 163.202 24.1627 162.475 24.4779C161.748 24.7931 160.871 24.9534 159.846 24.9534C158.82 24.9534 157.921 24.7765 157.153 24.4281C156.384 24.077 155.79 23.5905 155.37 22.9657C154.95 22.3409 154.742 21.6359 154.742 20.848C154.742 19.6178 155.198 18.6281 156.116 17.8844C157.031 17.1407 158.472 16.7675 160.44 16.7675H163.981V16.5629C163.981 15.6064 163.694 14.871 163.122 14.3568C162.549 13.8426 161.698 13.5882 160.57 13.5882C159.801 13.5882 159.044 13.7071 158.3 13.9476C157.557 14.1881 156.929 14.5199 156.415 14.9484L155.157 12.6151C155.876 12.0677 156.738 11.6503 157.747 11.3572C158.756 11.0669 159.826 10.9204 160.954 10.9204C162.972 10.9204 164.515 11.4042 165.585 12.369L165.579 12.3718ZM162.654 22.07C163.279 21.7023 163.719 21.177 163.976 20.4914V18.9017H160.667C158.82 18.9017 157.897 19.51 157.897 20.7236C157.897 21.3042 158.129 21.7659 158.59 22.1087C159.052 22.4515 159.694 22.6229 160.515 22.6229C161.336 22.6229 162.032 22.4404 162.657 22.07H162.654Z" fill="white"/>
    <path d="M159.845 25.0943C158.806 25.0943 157.88 24.9118 157.095 24.5552C156.304 24.1958 155.685 23.6871 155.254 23.043C154.819 22.3988 154.601 21.6607 154.601 20.8507C154.601 19.5817 155.079 18.5478 156.025 17.7792C156.962 17.0189 158.444 16.6319 160.434 16.6319H163.838V16.5656C163.838 15.6532 163.564 14.9455 163.025 14.4617C162.48 13.9751 161.654 13.7263 160.564 13.7263C159.812 13.7263 159.063 13.8452 158.336 14.0774C157.612 14.3097 156.992 14.6386 156.498 15.0533L156.368 15.1612L154.974 12.5735L155.068 12.5016C155.798 11.9459 156.683 11.5147 157.706 11.2216C158.723 10.9286 159.815 10.7793 160.951 10.7793C162.994 10.7793 164.584 11.2797 165.673 12.2639C166.768 13.2536 167.321 14.7603 167.321 16.7397V24.9063H164.017V23.5185C163.633 23.9746 163.135 24.3368 162.53 24.6022C161.789 24.9256 160.885 25.0888 159.845 25.0888V25.0943ZM160.434 16.9111C158.51 16.9111 157.084 17.2761 156.199 17.9948C155.323 18.7081 154.878 19.6674 154.878 20.8507C154.878 21.6054 155.082 22.291 155.483 22.8909C155.887 23.4908 156.464 23.9663 157.208 24.3036C157.957 24.6437 158.845 24.8178 159.845 24.8178C160.846 24.8178 161.712 24.663 162.419 24.3534C163.119 24.0493 163.663 23.6042 164.039 23.0319L164.294 22.6449V24.6381H167.044V16.748C167.044 14.8488 166.519 13.4112 165.488 12.4767C164.449 11.5396 162.922 11.064 160.949 11.064C159.837 11.064 158.773 11.2078 157.78 11.4953C156.838 11.7663 156.014 12.1588 155.328 12.6592L156.451 14.7437C156.951 14.3567 157.556 14.047 158.25 13.8231C159.005 13.5798 159.782 13.4582 160.564 13.4582C161.723 13.4582 162.613 13.7291 163.21 14.2627C163.81 14.8018 164.117 15.5758 164.117 16.5711V16.9139H160.437L160.434 16.9111ZM160.512 22.761C159.663 22.761 158.988 22.5785 158.505 22.2191C158.007 21.8514 157.755 21.3483 157.755 20.7235C157.755 19.4241 158.734 18.7634 160.664 18.7634H164.111L164.103 20.541C163.838 21.2515 163.37 21.8072 162.723 22.1887C162.079 22.5675 161.336 22.7582 160.512 22.7582V22.761ZM160.667 19.0399C158.894 19.0399 158.035 19.59 158.035 20.7235C158.035 21.2626 158.242 21.68 158.671 21.998C159.105 22.3214 159.727 22.4845 160.512 22.4845C161.297 22.4845 161.983 22.3048 162.582 21.951C163.169 21.6054 163.591 21.1078 163.835 20.4664V19.0399H160.664H160.667Z" fill="white"/>
    <defs>
        <linearGradient id="paint0_linear_4256_13983" x1="13.8937" y1="32.1764" x2="29.1486" y2="8.05824" gradientUnits="userSpaceOnUse">
            <stop stop-color="#0177FF"/>
            <stop offset="0.18" stop-color="#0177FF"/>
            <stop offset="0.73" stop-color="#00B4FF"/>
            <stop offset="1" stop-color="#00C7FF"/>
        </linearGradient>
        <linearGradient id="paint1_linear_4256_13983" x1="17.0184" y1="34.1533" x2="32.2733" y2="10.0323" gradientUnits="userSpaceOnUse">
            <stop stop-color="#0177FF"/>
            <stop offset="0.18" stop-color="#0177FF"/>
            <stop offset="0.73" stop-color="#00B4FF"/>
            <stop offset="1" stop-color="#00C7FF"/>
        </linearGradient>
        <linearGradient id="paint2_linear_4256_13983" x1="4.80491" y1="25.4481" x2="20.0599" y2="1.32718" gradientUnits="userSpaceOnUse">
            <stop stop-color="#0177FF"/>
            <stop offset="0.18" stop-color="#0177FF"/>
            <stop offset="0.73" stop-color="#00B4FF"/>
            <stop offset="1" stop-color="#00C7FF"/>
        </linearGradient>
        <linearGradient id="paint3_linear_4256_13983" x1="4.80491" y1="25.4481" x2="20.0599" y2="1.32718" gradientUnits="userSpaceOnUse">
            <stop offset="0.02" stop-color="#0176FF"/>
            <stop offset="0.085" stop-color="#0177FF"/>
            <stop offset="0.18" stop-color="#0177FF"/>
            <stop offset="0.73" stop-color="#00B4FF"/>
            <stop offset="1" stop-color="#00C7FF"/>
        </linearGradient>
        <linearGradient id="paint4_linear_4256_13983" x1="7.42834" y1="27.6184" x2="22.7247" y2="3.43663" gradientUnits="userSpaceOnUse">
            <stop stop-color="#0177FF"/>
            <stop offset="0.18" stop-color="#0177FF"/>
            <stop offset="0.265" stop-color="#0177FF"/>
            <stop offset="0.73" stop-color="#00B4FF"/>
            <stop offset="1" stop-color="#00C7FF"/>
        </linearGradient>
        <linearGradient id="paint5_linear_4256_13983" x1="7.42817" y1="27.6182" x2="22.7246" y2="3.43647" gradientUnits="userSpaceOnUse">
            <stop stop-color="#0177FF"/>
            <stop offset="0.18" stop-color="#0176FF"/>
            <stop offset="0.73" stop-color="#00B4FF"/>
            <stop offset="1" stop-color="#00C7FF"/>
        </linearGradient>
    </defs>
</svg>
