<svg width="63" height="12" viewBox="0 0 63 12" fill="none" xmlns="http://www.w3.org/2000/svg">
    <path d="M8.15041 8.41997C8.73156 8.41997 9.20268 7.94885 9.20268 7.3677C9.20268 6.78655 8.73156 6.31543 8.15041 6.31543C7.56926 6.31543 7.09814 6.78655 7.09814 7.3677C7.09814 7.94885 7.56926 8.41997 8.15041 8.41997Z" fill="url(#paint0_linear_4256_13926)"/>
    <path d="M8.15543 11.0124C8.73658 11.0101 9.2058 10.5371 9.20347 9.95592C9.20114 9.37477 8.72813 8.90555 8.14699 8.90789C7.56584 8.91022 7.09662 9.38322 7.09895 9.96437C7.10128 10.5455 7.57429 11.0147 8.15543 11.0124Z" fill="url(#paint1_linear_4256_13926)"/>
    <path d="M8.3674 0.00299616C8.34459 0.00506959 8.32282 0.00714303 8.30002 0.00921646C8.17354 0.0237305 8.04602 0.0413547 7.91954 0.0600156L7.76714 0.0828234L7.70909 0.0921538L7.69665 0.0942273C6.31159 0.375178 5.27799 0.997208 4.5357 1.99557C4.44758 2.11479 4.36568 2.23608 4.29207 2.35531C3.72395 3.27902 3.51142 4.29086 3.32274 5.18347L3.26987 5.43332C3.11228 6.18079 2.94952 6.95315 2.58771 7.542C2.54727 7.60628 2.5027 7.67367 2.45397 7.73898C2.27047 7.98364 2.0455 8.19203 1.78529 8.35375C1.49604 8.5331 1.17259 8.65233 0.842911 8.73319C0.661486 8.77777 0.489391 8.7871 0.330773 8.89699C0.198073 8.98926 0.0944014 9.123 0.0404921 9.27643C0.0321984 9.30131 0.0249414 9.32619 0.0187211 9.35211C0.00524374 9.40913 -0.000976562 9.46822 -0.000976562 9.52628C-0.000976562 9.94822 0.342177 10.2903 0.764121 10.2903C0.791075 10.2903 0.816993 10.2893 0.841874 10.2862L0.856388 10.2841L0.899931 10.2769L0.920665 10.2738L0.948656 10.2686C2.15021 10.0249 3.03971 9.49518 3.669 8.64922C3.74468 8.54658 3.81414 8.44395 3.87634 8.34235C4.37708 7.52749 4.56783 6.62347 4.75237 5.74745L4.80524 5.4976C4.97526 4.68896 5.15151 3.85336 5.58071 3.15462C5.63151 3.07168 5.68853 2.9877 5.74969 2.90477C6.25665 2.22364 6.98753 1.79341 7.98485 1.58917C8.03773 1.58088 8.08956 1.57362 8.1414 1.56637C8.41094 1.52697 8.70019 1.53319 8.92205 1.35384C9.09725 1.21181 9.20092 0.995134 9.20092 0.770167V0.747359C9.20092 0.519281 9.09518 0.301571 8.91583 0.15954C8.836 0.0963007 8.74373 0.0496484 8.64628 0.0226938C8.55505 -0.00218743 8.45967 -0.00529758 8.36533 0.00195944L8.3674 0.00299616Z" fill="url(#paint2_linear_4256_13926)"/>
    <path d="M8.3674 0.00299616C8.34459 0.00506959 8.32282 0.00714303 8.30002 0.00921646C8.17354 0.0237305 8.04602 0.0413547 7.91954 0.0600156L7.76714 0.0828234L7.70909 0.0921538L7.69665 0.0942273C6.31159 0.375178 5.27799 0.997208 4.5357 1.99557C4.44758 2.11479 4.36568 2.23608 4.29207 2.35531C3.72395 3.27902 3.51142 4.29086 3.32274 5.18347L3.26987 5.43332C3.11228 6.18079 2.94952 6.95315 2.58771 7.542C2.54727 7.60628 2.5027 7.67367 2.45397 7.73898C2.27047 7.98364 2.0455 8.19203 1.78529 8.35375C1.49604 8.5331 1.17259 8.65233 0.842911 8.73319C0.661486 8.77777 0.489391 8.7871 0.330773 8.89699C0.198073 8.98926 0.0944014 9.123 0.0404921 9.27643C0.0321984 9.30131 0.0249414 9.32619 0.0187211 9.35211C0.00524374 9.40913 -0.000976562 9.46822 -0.000976562 9.52628C-0.000976562 9.94822 0.342177 10.2903 0.764121 10.2903C0.791075 10.2903 0.816993 10.2893 0.841874 10.2862L0.856388 10.2841L0.899931 10.2769L0.920665 10.2738L0.948656 10.2686C2.15021 10.0249 3.03971 9.49518 3.669 8.64922C3.74468 8.54658 3.81414 8.44395 3.87634 8.34235C4.37708 7.52749 4.56783 6.62347 4.75237 5.74745L4.80524 5.4976C4.97526 4.68896 5.15151 3.85336 5.58071 3.15462C5.63151 3.07168 5.68853 2.9877 5.74969 2.90477C6.25665 2.22364 6.98753 1.79341 7.98485 1.58917C8.03773 1.58088 8.08956 1.57362 8.1414 1.56637C8.41094 1.52697 8.70019 1.53319 8.92205 1.35384C9.09725 1.21181 9.20092 0.995134 9.20092 0.770167V0.747359C9.20092 0.519281 9.09518 0.301571 8.91583 0.15954C8.836 0.0963007 8.74373 0.0496484 8.64628 0.0226938C8.55505 -0.00218743 8.45967 -0.00529758 8.36533 0.00195944L8.3674 0.00299616Z" fill="url(#paint3_linear_4256_13926)"/>
    <path d="M8.16616 2.35345L8.23873 2.341C8.25428 2.33893 8.62854 2.28399 8.67104 2.2788C8.69489 2.27569 8.71873 2.27362 8.74361 2.27154C8.75709 2.27154 8.76953 2.27051 8.78197 2.27051C8.88875 2.27051 8.97376 2.2985 9.04841 2.35759C9.14586 2.43535 9.20391 2.55561 9.20391 2.68105V2.71526C9.20391 2.75776 9.19769 2.79923 9.18525 2.83967C9.14689 2.96303 9.05152 3.06256 8.93126 3.1061C8.87527 3.1258 8.81618 3.13306 8.75916 3.14031C8.7405 3.14239 8.72184 3.14446 8.70422 3.14757L8.4554 3.18282L8.32996 3.20148C7.64676 3.34662 7.5659 3.61409 7.24556 4.04433C7.20201 4.10446 7.16676 4.15733 7.1367 4.20502C6.81739 4.72442 6.67018 5.42109 6.51571 6.15923L6.46283 6.40908C6.26689 7.34005 6.044 8.39543 5.4313 9.39275C5.35147 9.52338 5.26128 9.65608 5.16383 9.78671C4.34689 10.8856 2.90275 11.5688 1.3964 11.8747L1.30309 11.8912L1.14448 11.9141C0.937132 11.9431 0.716311 11.9731 0.495491 11.997C0.478903 11.9991 0.462316 12.0001 0.445728 12.0001C0.200026 12.0001 0.000976562 11.8104 0.000976562 11.5761V11.5647C0.000976562 11.5336 0.00408671 11.5035 0.010307 11.4734C0.0476288 11.3045 0.187586 11.1718 0.359681 11.1448C0.42292 11.1344 0.487197 11.1282 0.551473 11.122C0.596052 11.1179 0.641668 11.1127 0.686247 11.1075C0.797175 11.093 0.908104 11.0774 1.01903 11.0608L1.22741 11.0287C2.51709 10.7674 3.79225 10.1921 4.47545 9.27146C4.55735 9.16053 4.63303 9.04856 4.70042 8.93971C5.23432 8.07094 5.44063 7.09332 5.62206 6.23077L5.67493 5.98092C5.84702 5.16606 6.00875 4.39785 6.40582 3.75301C6.45039 3.68044 6.50119 3.6058 6.55718 3.53012" fill="url(#paint4_linear_4256_13926)"/>
    <path d="M0.444752 12C0.19905 12 0 11.8103 0 11.576V11.5646C0 11.5335 0.00311015 11.5034 0.00933045 11.4733C0.0466523 11.3043 0.186609 11.1716 0.358704 11.1447C0.421944 11.1343 0.48622 11.1281 0.550497 11.1219C0.595076 11.1177 0.640691 11.1125 0.68527 11.1074C0.796199 11.0928 0.907127 11.0773 1.01806 11.0607L1.22644 11.0286C2.51611 10.7673 3.79127 10.1919 4.47447 9.27134C4.55637 9.16041 4.63205 9.04844 4.69944 8.93959C5.23335 8.07082 5.43965 7.0932 5.62108 6.23065L5.67395 5.9808C5.84605 5.16594 6.00777 4.39773 6.40484 3.75289C6.44942 3.68032 6.50022 3.60568 6.5562 3.53C7.01028 2.91937 7.2425 2.64879 8.16726 2.3554L8.23983 2.34296C8.25538 2.34088 8.62963 2.28594 8.67214 2.28075C8.69598 2.27764 8.71983 2.27557 8.74471 2.2735C8.75819 2.2735 8.77063 2.27246 8.78307 2.27246C8.88985 2.27246 8.97486 2.30045 9.0495 2.35955C9.14695 2.4373 9.20501 2.55756 9.20501 2.683V2.71721C9.20501 2.75972 9.19879 2.80119 9.18635 2.84162C9.14799 2.96499 9.05261 3.06451 8.93235 3.10805C8.87637 3.12775 8.81728 3.13501 8.76026 3.14227C8.7416 3.14434 8.72294 3.14641 8.70531 3.14952L8.4565 3.18477L8.33106 3.20343C7.61987 3.45743 7.567 3.61605 7.24665 4.04628C7.20311 4.10641 7.16786 4.15929 7.1378 4.20698C6.81849 4.72637 6.67127 5.42304 6.5168 6.16119L6.46393 6.41104C6.26799 7.34201 6.0451 8.39739 5.4324 9.39471C5.35257 9.52533 5.26238 9.65803 5.16492 9.78866C4.34799 10.8876 2.90384 11.5708 1.39749 11.8766L1.30419 11.8932L1.14557 11.916C0.938229 11.945 0.717408 11.9751 0.496587 11.9989C0.48 12.001 0.463412 12.0021 0.446825 12.0021L0.444752 12Z" fill="url(#paint5_linear_4256_13926)"/>
    <path d="M13.3397 9.16099C12.8555 9.01378 12.4719 8.81784 12.1899 8.57421L12.6233 7.60281C12.8991 7.82052 13.237 7.99883 13.6382 8.13672C14.0384 8.2746 14.4417 8.34406 14.846 8.34406C15.3457 8.34406 15.72 8.26423 15.9667 8.10354C16.2134 7.94285 16.3368 7.73136 16.3368 7.46907C16.3368 7.27624 16.2673 7.11762 16.1295 6.99322C15.9916 6.86777 15.8164 6.77032 15.6049 6.69983C15.3934 6.62933 15.1052 6.5495 14.7392 6.45931C14.2261 6.33801 13.8114 6.21568 13.4931 6.09335C13.1759 5.97205 12.9032 5.78026 12.6751 5.52108C12.447 5.26086 12.334 4.91045 12.334 4.46777C12.334 4.09559 12.4346 3.75762 12.6368 3.45283C12.8389 3.14803 13.1437 2.90648 13.5501 2.72609C13.9575 2.54674 14.4562 2.45654 15.0461 2.45654C15.4566 2.45654 15.8599 2.50838 16.258 2.60998C16.6561 2.71261 16.9993 2.85983 17.2875 3.05266L16.8935 4.02406C16.5981 3.85093 16.2912 3.71926 15.9698 3.63011C15.6495 3.53991 15.3384 3.49533 15.0368 3.49533C14.5433 3.49533 14.1763 3.57931 13.9358 3.74518C13.6953 3.91209 13.575 4.13291 13.575 4.40868C13.575 4.60151 13.6434 4.75805 13.7823 4.88039C13.9202 5.00272 14.0954 5.0981 14.3069 5.16859C14.5184 5.23909 14.8077 5.31892 15.1726 5.40911C15.6723 5.52419 16.0828 5.64445 16.4042 5.76989C16.7245 5.89533 16.9993 6.08609 17.2263 6.34216C17.4544 6.59926 17.5674 6.94553 17.5674 7.38095C17.5674 7.75313 17.4668 8.09006 17.2647 8.39071C17.0625 8.6924 16.7567 8.93291 16.3461 9.11227C15.9356 9.29162 15.4349 9.38181 14.845 9.38181C14.3256 9.38181 13.8238 9.30821 13.3397 9.16099Z" fill="#2D3A47"/>
    <path d="M14.8447 9.43385C14.3222 9.43385 13.8111 9.35817 13.3239 9.20992C12.8345 9.06063 12.4416 8.85951 12.1555 8.61277L12.1265 8.58789L12.6023 7.52007L12.6552 7.56154C12.9247 7.7751 13.2606 7.95134 13.6546 8.08715C14.0475 8.22296 14.4477 8.29139 14.8447 8.29139C15.333 8.29139 15.7 8.21363 15.9374 8.05916C16.1707 7.9078 16.2837 7.71393 16.2837 7.46719C16.2837 7.28888 16.2215 7.14478 16.094 7.0297C15.9623 6.91048 15.7923 6.8151 15.5881 6.74668C15.3776 6.67722 15.0884 6.59635 14.7266 6.50719C14.2144 6.3859 13.7935 6.26253 13.4742 6.1402C13.1507 6.01579 12.8688 5.81881 12.6365 5.55342C12.4012 5.28491 12.282 4.91894 12.282 4.4659C12.282 4.08542 12.3867 3.73398 12.594 3.42192C12.8003 3.10987 13.1155 2.86002 13.5302 2.67653C13.9428 2.4951 14.4529 2.40283 15.0469 2.40283C15.4595 2.40283 15.8711 2.45467 16.2723 2.55834C16.6745 2.66201 17.026 2.81337 17.3173 3.00827L17.3526 3.03212L16.9192 4.0989L16.8674 4.06884C16.5781 3.89881 16.2713 3.76819 15.9561 3.68007C15.6409 3.59195 15.332 3.54737 15.0365 3.54737C14.5555 3.54737 14.1947 3.62823 13.9646 3.78789C13.7365 3.94547 13.6256 4.14866 13.6256 4.40888C13.6256 4.58719 13.6878 4.72923 13.8153 4.84119C13.9469 4.95834 14.118 5.05164 14.3212 5.11903C14.5296 5.18849 14.8199 5.26935 15.1827 5.35851C15.6814 5.47359 16.0981 5.59592 16.4205 5.72136C16.7471 5.84888 17.0301 6.04586 17.2634 6.30815C17.4987 6.57354 17.618 6.93432 17.618 7.38115C17.618 7.76162 17.5132 8.111 17.3059 8.41994C17.0996 8.72784 16.7824 8.97769 16.3646 9.16015C15.9488 9.34158 15.4367 9.43385 14.8427 9.43385H14.8447ZM12.2529 8.55989C12.5256 8.7859 12.8957 8.97147 13.355 9.11143C13.8319 9.25657 14.3336 9.33018 14.8458 9.33018C15.4253 9.33018 15.9229 9.24102 16.3262 9.06478C16.7253 8.89061 17.027 8.65424 17.223 8.36188C17.4179 8.07056 17.5174 7.73985 17.5174 7.38115C17.5174 6.96024 17.4065 6.62227 17.1888 6.37657C16.9669 6.12776 16.6974 5.93907 16.3863 5.81778C16.0681 5.69441 15.6565 5.57311 15.162 5.45907C14.795 5.36888 14.5026 5.28802 14.2911 5.21752C14.0745 5.14495 13.892 5.04439 13.7489 4.91894C13.5996 4.78728 13.525 4.61622 13.525 4.40888C13.525 4.11653 13.6535 3.87912 13.9086 3.70288C14.1564 3.53078 14.5368 3.4437 15.0396 3.4437C15.3444 3.4437 15.6627 3.48931 15.9872 3.58054C16.292 3.66555 16.5885 3.78996 16.8705 3.95065L17.2261 3.07359C16.9513 2.89631 16.6227 2.75843 16.2474 2.66097C15.8555 2.56041 15.4523 2.50858 15.0479 2.50858C14.4684 2.50858 13.9718 2.59773 13.5727 2.77398C13.1767 2.94815 12.877 3.18659 12.6811 3.48102C12.4862 3.77545 12.3867 4.10719 12.3867 4.46694C12.3867 4.89406 12.4976 5.23722 12.7153 5.48603C12.9361 5.73795 13.2047 5.92663 13.5126 6.04378C13.8267 6.16508 14.2445 6.28637 14.7514 6.40767C15.1164 6.49683 15.4087 6.57873 15.6212 6.64923C15.8389 6.7218 16.0214 6.82443 16.1645 6.95298C16.3127 7.08776 16.3884 7.26089 16.3884 7.46719C16.3884 7.74815 16.2557 7.97622 15.9945 8.14521C15.7405 8.31005 15.3538 8.39402 14.8458 8.39402C14.4373 8.39402 14.0257 8.32352 13.6214 8.1846C13.242 8.05398 12.9133 7.88499 12.6438 7.68283L12.254 8.55886L12.2529 8.55989Z" fill="#2D3A47"/>
    <path d="M23.3368 4.15387L20.9317 9.70445C20.7067 10.2622 20.434 10.6551 20.1137 10.8832C19.7933 11.1102 19.4046 11.2243 18.9495 11.2243C18.6934 11.2243 18.4394 11.1828 18.1895 11.0988C17.9397 11.0159 17.7344 10.8998 17.5737 10.7526L18.0548 9.86722C18.1698 9.97607 18.3067 10.0632 18.4632 10.1274C18.6208 10.1917 18.7794 10.2238 18.9391 10.2238C19.1506 10.2238 19.3258 10.1689 19.4637 10.06C19.6016 9.95119 19.728 9.76769 19.8441 9.51162L19.9302 9.30946L17.6888 4.15283H18.9391L20.5553 7.9524L22.1809 4.15283H23.3358L23.3368 4.15387Z" fill="#2D3A47"/>
    <path d="M18.9493 11.2761C18.6891 11.2761 18.4279 11.2325 18.1728 11.1486C17.9168 11.0635 17.7032 10.9433 17.5384 10.7909L17.5083 10.7639L18.0412 9.78424L18.0899 9.83089C18.2008 9.9356 18.3325 10.0196 18.4828 10.0807C18.6331 10.1419 18.7866 10.173 18.939 10.173C19.137 10.173 19.3029 10.1212 19.4314 10.0206C19.562 9.91694 19.6844 9.73966 19.7963 9.49188L19.8741 9.31149L17.6099 4.10303H18.9742L20.5562 7.82277L22.1476 4.10303H23.4155L20.9792 9.72618C20.7522 10.2891 20.4712 10.6934 20.1436 10.9267C19.815 11.16 19.4138 11.2781 18.9493 11.2781V11.2761ZM17.6389 10.7411C17.7893 10.8707 17.979 10.9744 18.206 11.049C18.4496 11.1299 18.7005 11.1714 18.9493 11.1714C19.391 11.1714 19.7725 11.0594 20.0835 10.8396C20.3945 10.6188 20.663 10.23 20.8828 9.68368L23.2569 4.20359H22.216L20.5562 8.08402L18.9058 4.20359H17.7685L19.9871 9.30838L19.8917 9.53128C19.7725 9.7946 19.6398 9.9864 19.4967 10.0994C19.3495 10.2155 19.1629 10.2746 18.94 10.2746C18.7741 10.2746 18.6072 10.2414 18.4445 10.1751C18.3045 10.1181 18.178 10.0424 18.0692 9.95011L17.6389 10.7411Z" fill="#2D3A47"/>
    <path d="M32.1526 4.65858C32.531 5.03387 32.7207 5.59681 32.7207 6.34739V9.29167H31.5181V6.50186C31.5181 6.05296 31.4186 5.715 31.2196 5.48692C31.0205 5.25884 30.7354 5.14584 30.3632 5.14584C29.9589 5.14584 29.6355 5.27854 29.3918 5.54497C29.1482 5.81141 29.0259 6.19085 29.0259 6.68536V9.29271H27.8233V6.5029C27.8233 6.054 27.7238 5.71603 27.5247 5.48795C27.3257 5.25988 27.0406 5.14687 26.6684 5.14687C26.2578 5.14687 25.9323 5.27854 25.6918 5.54083C25.4513 5.80415 25.331 6.18566 25.331 6.68536V9.29271H24.1284V4.1537H25.273V4.80787C25.4658 4.57668 25.7063 4.40044 25.9945 4.27914C26.2827 4.15681 26.6041 4.09668 26.9566 4.09668C27.3412 4.09668 27.6833 4.16925 27.9809 4.31335C28.2794 4.45746 28.5148 4.67102 28.6879 4.95301C28.8994 4.68346 29.172 4.47404 29.5059 4.32268C29.8397 4.17236 30.2077 4.09668 30.612 4.09668C31.26 4.09668 31.7732 4.28433 32.1516 4.65962L32.1526 4.65858Z" fill="#2D3A47"/>
    <path d="M32.7715 9.34261H31.4652V6.50096C31.4652 6.06762 31.3688 5.7369 31.1801 5.52023C30.9925 5.30563 30.7178 5.19677 30.3632 5.19677C29.9765 5.19677 29.6624 5.32533 29.4301 5.57932C29.1969 5.83436 29.0787 6.2055 29.0787 6.68446V9.34364H27.7724V6.502C27.7724 6.06865 27.676 5.73794 27.4873 5.52127C27.2997 5.30667 27.025 5.19781 26.6704 5.19781C26.2775 5.19781 25.9613 5.32533 25.7322 5.57518C25.502 5.8271 25.3849 6.20032 25.3849 6.6855V9.34468H24.0786V4.102H25.3268V4.6722C25.5072 4.48455 25.726 4.3363 25.9768 4.23055C26.2702 4.10615 26.6009 4.04395 26.9586 4.04395C27.3495 4.04395 27.7019 4.11859 28.0057 4.2658C28.2898 4.40369 28.5209 4.60377 28.6951 4.86399C28.9045 4.61621 29.1699 4.4182 29.4861 4.27513C29.8251 4.1217 30.2046 4.04498 30.6141 4.04498C31.2724 4.04498 31.8032 4.23989 32.1899 4.62243C32.5766 5.00602 32.7725 5.58658 32.7725 6.34753V9.34364L32.7715 9.34261ZM31.5689 9.23893H32.6678V6.34649C32.6678 5.61354 32.4822 5.05889 32.1152 4.695C31.7482 4.33112 31.2434 4.14762 30.612 4.14762C30.217 4.14762 29.8521 4.22226 29.5266 4.36947C29.2021 4.51565 28.9336 4.723 28.7283 4.98425L28.6827 5.04334L28.6433 4.9801C28.4764 4.70744 28.2452 4.49906 27.958 4.36014C27.6688 4.22019 27.3318 4.14865 26.9565 4.14865C26.6123 4.14865 26.2951 4.20878 26.0152 4.32697C25.7353 4.44516 25.4989 4.61829 25.3133 4.84118L25.2221 4.95107V4.20567H24.1812V9.23893H25.2802V6.68343C25.2802 6.17233 25.4056 5.77526 25.6544 5.50364C25.9043 5.23099 26.2454 5.09207 26.6694 5.09207C27.055 5.09207 27.3557 5.21336 27.5651 5.45077C27.7714 5.68714 27.8761 6.04066 27.8761 6.49993V9.2379H28.975V6.68239C28.975 6.17751 29.1025 5.78252 29.3545 5.50779C29.6074 5.23202 29.9475 5.09207 30.3642 5.09207C30.7499 5.09207 31.0516 5.21336 31.26 5.45077C31.4663 5.68714 31.571 6.04066 31.571 6.49993V9.2379L31.5689 9.23893Z" fill="#2D3A47"/>
    <path d="M37.7436 4.42221C38.1375 4.63992 38.4475 4.94782 38.6725 5.34592C38.8964 5.74402 39.0094 6.20225 39.0094 6.72165C39.0094 7.24104 38.8974 7.70135 38.6725 8.10256C38.4475 8.50376 38.1386 8.81271 37.7436 9.03145C37.3496 9.24916 36.9018 9.35802 36.4021 9.35802C35.7095 9.35802 35.1611 9.12683 34.7568 8.66549V11.1567H33.5542V4.1537H34.6987V4.82757C34.8978 4.58394 35.1424 4.40147 35.4348 4.27914C35.7272 4.15681 36.0485 4.09668 36.4021 4.09668C36.9018 4.09668 37.3496 4.20553 37.7436 4.42325V4.42221ZM37.3589 7.88588C37.644 7.59042 37.7871 7.20268 37.7871 6.72165C37.7871 6.24061 37.644 5.85288 37.3589 5.55741C37.0739 5.26299 36.71 5.11474 36.2673 5.11474C35.9791 5.11474 35.7189 5.18109 35.4877 5.31171C35.2565 5.44338 35.074 5.63102 34.9393 5.87465C34.8045 6.11828 34.7371 6.40026 34.7371 6.72165C34.7371 7.04303 34.8045 7.32502 34.9393 7.56865C35.074 7.81227 35.2565 7.99992 35.4877 8.13158C35.7189 8.26325 35.978 8.32856 36.2673 8.32856C36.71 8.32856 37.0739 8.18134 37.3589 7.88588Z" fill="#2D3A47"/>
    <path d="M34.8087 11.2086H33.5024V4.10194H34.7506V4.68976C34.9373 4.49175 35.1602 4.33831 35.4152 4.23153C35.7117 4.10712 36.0445 4.04492 36.4021 4.04492C36.9091 4.04492 37.3684 4.15689 37.7696 4.37874C38.1708 4.6006 38.4901 4.91784 38.7182 5.32216C38.9462 5.72648 39.0613 6.19715 39.0613 6.72276C39.0613 7.24838 38.9462 7.72216 38.7182 8.12855C38.4901 8.53598 38.1708 8.85529 37.7696 9.07715C37.3694 9.29797 36.9091 9.41097 36.4021 9.41097C35.748 9.41097 35.212 9.20466 34.8087 8.79827V11.2097V11.2086ZM33.6061 11.105H34.705V8.52665L34.7963 8.63032C35.1881 9.07818 35.7283 9.30522 36.4021 9.30522C36.8915 9.30522 37.3341 9.19741 37.7188 8.98488C38.1024 8.77235 38.4082 8.46756 38.6269 8.07671C38.8457 7.68587 38.9566 7.22972 38.9566 6.72173C38.9566 6.21373 38.8457 5.75965 38.6269 5.37192C38.4082 4.98419 38.1024 4.68043 37.7188 4.4679C37.3341 4.25538 36.8904 4.14756 36.4021 4.14756C36.0579 4.14756 35.7397 4.20769 35.4556 4.32587C35.1736 4.44406 34.9321 4.62341 34.7403 4.85874L34.648 4.97175V4.20458H33.6072V11.105H33.6061ZM36.2674 8.38047C35.9709 8.38047 35.7003 8.31205 35.4629 8.17624C35.2244 8.04043 35.0337 7.84449 34.8948 7.5936C34.7558 7.34272 34.6864 7.05036 34.6864 6.72173C34.6864 6.39309 34.7569 6.10073 34.8948 5.84985C35.0337 5.59896 35.2244 5.40302 35.4629 5.26721C35.7003 5.1314 35.9719 5.06298 36.2684 5.06298C36.7235 5.06298 37.103 5.21745 37.3974 5.52121C37.6908 5.82497 37.8401 6.22928 37.8401 6.72173C37.8401 7.21417 37.6908 7.61849 37.3974 7.92224C37.103 8.226 36.7235 8.38047 36.2684 8.38047H36.2674ZM36.2674 5.16769C35.9895 5.16769 35.7355 5.23196 35.5137 5.35844C35.2918 5.48492 35.1145 5.66738 34.9849 5.90168C34.8554 6.13702 34.789 6.41278 34.789 6.72276C34.789 7.03274 34.8543 7.30954 34.9849 7.54384C35.1145 7.77814 35.2918 7.9606 35.5137 8.08708C35.7355 8.21356 35.9895 8.27784 36.2674 8.27784C36.6935 8.27784 37.048 8.13477 37.3217 7.85071C37.5964 7.56665 37.7354 7.18721 37.7354 6.72276C37.7354 6.25831 37.5964 5.87887 37.3217 5.59481C37.048 5.31179 36.6924 5.16769 36.2674 5.16769Z" fill="#2D3A47"/>
    <path d="M44.3166 4.66272C44.7075 5.04113 44.9034 5.60199 44.9034 6.34635V9.29063H43.7008V6.50082C43.7008 6.05192 43.5951 5.71395 43.3836 5.48588C43.1721 5.2578 42.8704 5.1448 42.4796 5.1448C42.0369 5.1448 41.6875 5.2775 41.4315 5.54393C41.1743 5.81037 41.0468 6.19292 41.0468 6.69365V9.29063H39.8442V2.15283H41.0468V4.74981C41.2459 4.53832 41.4905 4.37659 41.7829 4.26359C42.0753 4.15162 42.3997 4.09564 42.7595 4.09564C43.4074 4.09564 43.9268 4.28536 44.3177 4.66376L44.3166 4.66272Z" fill="#2D3A47"/>
    <path d="M44.9554 9.34254H43.6491V6.5009C43.6491 6.06755 43.5465 5.73788 43.3454 5.5212C43.1453 5.30557 42.8529 5.19671 42.4787 5.19671C42.0526 5.19671 41.7125 5.32526 41.4679 5.5803C41.2222 5.83533 41.0978 6.20958 41.0978 6.69373V9.34358H39.7915V2.10107H41.0978V4.62548C41.2844 4.45235 41.5073 4.31447 41.7633 4.21598C42.0598 4.10194 42.3947 4.04388 42.7586 4.04388C43.4169 4.04388 43.9539 4.23982 44.3531 4.62652C44.7532 5.01321 44.9554 5.59274 44.9554 6.34747V9.34358V9.34254ZM43.7528 9.23887H44.8517V6.34643C44.8517 5.62073 44.6599 5.06712 44.2805 4.70012C43.901 4.33313 43.3889 4.14755 42.7586 4.14755C42.4082 4.14755 42.0858 4.20354 41.8007 4.31239C41.5176 4.42125 41.2761 4.57986 41.0843 4.78513L40.9951 4.88051V2.20475H39.8962V9.23887H40.9951V6.69269C40.9951 6.18056 41.1299 5.78246 41.3943 5.50773C41.6597 5.23196 42.0256 5.09304 42.4797 5.09304C42.884 5.09304 43.2013 5.2133 43.4221 5.45071C43.6419 5.68708 43.7538 6.0406 43.7538 6.5009V9.23887H43.7528Z" fill="#2D3A47"/>
    <path d="M47.0649 9.02115C46.6481 8.79721 46.3226 8.48413 46.0883 8.08292C45.854 7.68171 45.7368 7.22866 45.7368 6.72171C45.7368 6.21475 45.854 5.76274 46.0883 5.36568C46.3226 4.96758 46.6481 4.65657 47.0649 4.43264C47.4816 4.20871 47.9502 4.0957 48.4696 4.0957C48.989 4.0957 49.4669 4.20767 49.8837 4.43264C50.3004 4.6576 50.626 4.96862 50.8603 5.36568C51.0946 5.76378 51.2117 6.21579 51.2117 6.72171C51.2117 7.22762 51.0946 7.68274 50.8603 8.08292C50.626 8.48413 50.3004 8.79618 49.8837 9.02115C49.4669 9.24611 48.9952 9.35808 48.4696 9.35808C47.944 9.35808 47.4816 9.24611 47.0649 9.02115ZM49.5664 7.88594C49.8547 7.59048 49.9998 7.20274 49.9998 6.72171C49.9998 6.24067 49.8557 5.85294 49.5664 5.55747C49.2782 5.26305 48.9123 5.1148 48.4696 5.1148C48.0269 5.1148 47.663 5.26201 47.3779 5.55747C47.0928 5.85294 46.9498 6.24067 46.9498 6.72171C46.9498 7.20274 47.0928 7.59048 47.3779 7.88594C47.663 8.18141 48.0269 8.32862 48.4696 8.32862C48.9123 8.32862 49.2772 8.18141 49.5664 7.88594Z" fill="#2D3A47"/>
    <path d="M48.4686 9.41005C47.943 9.41005 47.462 9.29498 47.04 9.0669C46.6171 8.83882 46.2812 8.51744 46.0438 8.10897C45.8064 7.70154 45.6851 7.23502 45.6851 6.72185C45.6851 6.20867 45.8053 5.74318 46.0438 5.33887C46.2812 4.93455 46.6171 4.6142 47.04 4.38612C47.463 4.15908 47.943 4.04297 48.4686 4.04297C48.9943 4.04297 49.4846 4.15804 49.9076 4.38612C50.3306 4.6142 50.6665 4.93455 50.9039 5.33887C51.1413 5.74318 51.2626 6.20763 51.2626 6.72185C51.2626 7.23606 51.1423 7.70258 50.9039 8.10897C50.6654 8.5164 50.3306 8.83882 49.9076 9.0669C49.4846 9.29394 49.0005 9.41005 48.4686 9.41005ZM48.4686 4.14768C47.9606 4.14768 47.4962 4.25861 47.0888 4.47839C46.6824 4.69714 46.36 5.00504 46.1319 5.39277C45.9038 5.78051 45.7877 6.22837 45.7877 6.72288C45.7877 7.2174 45.9038 7.66733 46.1319 8.05817C46.36 8.44902 46.6813 8.75796 47.0877 8.9767C47.4952 9.19649 47.9586 9.30742 48.4676 9.30742C48.9766 9.30742 49.4504 9.19649 49.8568 8.9767C50.2632 8.75796 50.5846 8.44902 50.8127 8.05817C51.0407 7.66733 51.1569 7.21843 51.1569 6.72288C51.1569 6.22733 51.0407 5.78051 50.8127 5.39277C50.5846 5.00504 50.2632 4.69817 49.8558 4.47839C49.4483 4.25861 48.9808 4.14768 48.4666 4.14768H48.4686ZM48.4686 8.38059C48.0135 8.38059 47.6341 8.22612 47.3397 7.92236C47.0463 7.61861 46.897 7.21532 46.897 6.72185C46.897 6.22837 47.0463 5.82612 47.3397 5.52133C47.6341 5.21757 48.0135 5.0631 48.4686 5.0631C48.9238 5.0631 49.3053 5.21757 49.6028 5.52133C49.9003 5.82509 50.0507 6.22837 50.0507 6.72185C50.0507 7.21532 49.9003 7.61861 49.6028 7.92236C49.3053 8.22612 48.9238 8.38059 48.4686 8.38059ZM48.4686 5.16781C48.0426 5.16781 47.688 5.31087 47.4143 5.59493C47.1396 5.87899 47.0006 6.25843 47.0006 6.72288C47.0006 7.18733 47.1396 7.56781 47.4143 7.85083C47.688 8.13385 48.0426 8.27796 48.4686 8.27796C48.8947 8.27796 49.2514 8.13489 49.5282 7.85083C49.806 7.56677 49.946 7.18733 49.946 6.72288C49.946 6.25843 49.805 5.87899 49.5282 5.59493C49.2514 5.31191 48.8947 5.16781 48.4686 5.16781Z" fill="#2D3A47"/>
    <path d="M56.5652 4.66279C56.956 5.04119 57.152 5.60205 57.152 6.34642V9.29069H55.9494V6.50089C55.9494 6.05199 55.8436 5.71402 55.6321 5.48594C55.4206 5.25786 55.119 5.14486 54.7281 5.14486C54.2854 5.14486 53.9361 5.27756 53.68 5.544C53.4229 5.81043 53.2954 6.19298 53.2954 6.69372V9.29069H52.0928V4.15376H53.2373V4.81726C53.4364 4.57985 53.6862 4.4005 53.9879 4.27817C54.2896 4.15583 54.6296 4.0957 55.008 4.0957C55.656 4.0957 56.1754 4.28542 56.5662 4.66382L56.5652 4.66279Z" fill="#2D3A47"/>
    <path d="M57.2039 9.34261H55.8977V6.50096C55.8977 6.06762 55.795 5.73794 55.5939 5.52127C55.3938 5.30563 55.1015 5.19677 54.7272 5.19677C54.3011 5.19677 53.9611 5.32533 53.7164 5.58036C53.4707 5.83539 53.3463 6.20965 53.3463 6.69379V9.34364H52.04V4.102H53.2882V4.68256C53.4759 4.4887 53.704 4.33734 53.9673 4.23055C54.2731 4.10719 54.6235 4.04395 55.0061 4.04395C55.6644 4.04395 56.2014 4.23989 56.6006 4.62658C57.0007 5.01328 57.2029 5.5928 57.2029 6.34753V9.34364L57.2039 9.34261ZM56.0013 9.23893H57.1003V6.34649C57.1003 5.62079 56.9085 5.06719 56.529 4.70019C56.1496 4.33319 55.6374 4.14762 55.0061 4.14762C54.636 4.14762 54.299 4.20775 54.0057 4.32697C53.7133 4.44516 53.4676 4.6214 53.2758 4.85051L53.1846 4.95937V4.20464H52.1437V9.2379H53.2426V6.69172C53.2426 6.17958 53.3774 5.78148 53.6418 5.50675C53.9072 5.23099 54.2721 5.09207 54.7272 5.09207C55.1315 5.09207 55.4488 5.21233 55.6696 5.44973C55.8894 5.68611 56.0013 6.03963 56.0013 6.49993V9.2379V9.23893Z" fill="#2D3A47"/>
    <path d="M62.06 4.639C62.4612 5.00185 62.6613 5.5482 62.6613 6.27909V9.28972H61.5261V8.66458C61.3789 8.88954 61.1685 9.0606 60.8958 9.17879C60.6231 9.29697 60.2945 9.3571 59.9099 9.3571C59.5253 9.3571 59.1883 9.29075 58.9001 9.16013C58.6119 9.02846 58.389 8.846 58.2314 8.6117C58.0738 8.3774 57.9961 8.11304 57.9961 7.81758C57.9961 7.35624 58.1672 6.98509 58.5113 6.70622C58.8545 6.42734 59.3946 6.28738 60.1328 6.28738H61.4608V6.21067C61.4608 5.85196 61.353 5.5762 61.1384 5.38337C60.9238 5.19054 60.6045 5.09516 60.1815 5.09516C59.8933 5.09516 59.6092 5.13974 59.3303 5.22993C59.0515 5.32013 58.8161 5.44453 58.6233 5.60522L58.1516 4.73023C58.4211 4.52496 58.7446 4.36842 59.123 4.25853C59.5014 4.14967 59.9026 4.09473 60.3256 4.09473C61.0824 4.09473 61.6609 4.27615 62.0621 4.63797L62.06 4.639ZM60.9632 8.27581C61.1975 8.13792 61.3623 7.94095 61.4587 7.68384V7.08773H60.2178C59.5253 7.08773 59.179 7.31581 59.179 7.77093C59.179 7.98864 59.2661 8.16177 59.4392 8.29032C59.6123 8.41887 59.8529 8.48315 60.1608 8.48315C60.4687 8.48315 60.7299 8.41473 60.9642 8.27581H60.9632Z" fill="#2D3A47"/>
    <path d="M59.91 9.41011C59.5202 9.41011 59.1729 9.34169 58.8785 9.20795C58.582 9.07318 58.3498 8.88242 58.188 8.64087C58.0253 8.39931 57.9434 8.12251 57.9434 7.81875C57.9434 7.3429 58.1227 6.95517 58.4773 6.66696C58.8287 6.38186 59.3844 6.23672 60.1308 6.23672H61.407V6.21184C61.407 5.86972 61.3044 5.60432 61.1022 5.4229C60.898 5.24044 60.588 5.14713 60.1796 5.14713C59.8976 5.14713 59.6166 5.19171 59.344 5.2788C59.0723 5.36588 58.8401 5.48925 58.6546 5.64476L58.6058 5.68519L58.0833 4.71482L58.1186 4.68787C58.3923 4.47949 58.724 4.31776 59.1076 4.20787C59.4891 4.09797 59.8986 4.04199 60.3247 4.04199C61.0908 4.04199 61.6869 4.22964 62.0954 4.59871C62.506 4.96985 62.7133 5.53486 62.7133 6.27715V9.33962H61.4744V8.81918C61.3303 8.99024 61.1437 9.12605 60.9167 9.22558C60.6388 9.34687 60.2998 9.40804 59.91 9.40804V9.41011ZM60.1308 6.34143C59.4093 6.34143 58.8743 6.47828 58.5426 6.74782C58.2139 7.0153 58.047 7.37504 58.047 7.81875C58.047 8.10178 58.1237 8.35888 58.2741 8.58385C58.4254 8.80882 58.6421 8.98713 58.921 9.11361C59.2019 9.24113 59.5347 9.30644 59.91 9.30644C60.2853 9.30644 60.6098 9.24838 60.8752 9.13227C61.1375 9.01823 61.3417 8.85132 61.4827 8.63672L61.5781 8.49158V9.23906H62.6096V6.28026C62.6096 5.56804 62.4126 5.02895 62.026 4.67854C61.6361 4.32709 61.0639 4.14877 60.3237 4.14877C59.9069 4.14877 59.5078 4.20268 59.1356 4.3105C58.7821 4.4121 58.4731 4.55931 58.216 4.74696L58.6369 5.52864C58.8246 5.3835 59.0516 5.26739 59.3118 5.18342C59.5949 5.09219 59.8862 5.04657 60.1796 5.04657C60.6139 5.04657 60.9478 5.14817 61.1717 5.34826C61.3967 5.55042 61.5117 5.8407 61.5117 6.21391V6.34247H60.1319L60.1308 6.34143ZM60.1599 8.53512C59.8416 8.53512 59.5886 8.4667 59.4072 8.33193C59.2206 8.19404 59.1263 8.00536 59.1263 7.77106C59.1263 7.28381 59.4933 7.03603 60.2169 7.03603H61.5097L61.5066 7.70264C61.407 7.96908 61.2318 8.17746 60.9892 8.32052C60.7477 8.46255 60.4688 8.53409 60.1599 8.53409V8.53512ZM60.2179 7.1397C59.5534 7.1397 59.231 7.34601 59.231 7.77106C59.231 7.97322 59.3087 8.12977 59.4694 8.24899C59.6322 8.37029 59.8654 8.43145 60.1599 8.43145C60.4543 8.43145 60.7114 8.36407 60.9364 8.23137C61.1562 8.10178 61.3148 7.91517 61.406 7.67465V7.1397H60.2169H60.2179Z" fill="#2D3A47"/>
    <defs>
        <linearGradient id="paint0_linear_4256_13926" x1="5.17814" y1="12.0661" x2="10.8988" y2="3.02178" gradientUnits="userSpaceOnUse">
            <stop stop-color="#0177FF"/>
            <stop offset="0.18" stop-color="#0177FF"/>
            <stop offset="0.73" stop-color="#00B4FF"/>
            <stop offset="1" stop-color="#00C7FF"/>
        </linearGradient>
        <linearGradient id="paint1_linear_4256_13926" x1="6.34978" y1="12.8075" x2="12.0704" y2="3.76212" gradientUnits="userSpaceOnUse">
            <stop stop-color="#0177FF"/>
            <stop offset="0.18" stop-color="#0177FF"/>
            <stop offset="0.73" stop-color="#00B4FF"/>
            <stop offset="1" stop-color="#00C7FF"/>
        </linearGradient>
        <linearGradient id="paint2_linear_4256_13926" x1="1.76974" y1="9.54287" x2="7.49034" y2="0.497511" gradientUnits="userSpaceOnUse">
            <stop stop-color="#0177FF"/>
            <stop offset="0.18" stop-color="#0177FF"/>
            <stop offset="0.73" stop-color="#00B4FF"/>
            <stop offset="1" stop-color="#00C7FF"/>
        </linearGradient>
        <linearGradient id="paint3_linear_4256_13926" x1="1.76974" y1="9.54287" x2="7.49034" y2="0.497511" gradientUnits="userSpaceOnUse">
            <stop offset="0.02" stop-color="#0176FF"/>
            <stop offset="0.085" stop-color="#0177FF"/>
            <stop offset="0.18" stop-color="#0177FF"/>
            <stop offset="0.73" stop-color="#00B4FF"/>
            <stop offset="1" stop-color="#00C7FF"/>
        </linearGradient>
        <linearGradient id="paint4_linear_4256_13926" x1="2.75346" y1="10.3569" x2="8.48962" y2="1.28874" gradientUnits="userSpaceOnUse">
            <stop stop-color="#0177FF"/>
            <stop offset="0.18" stop-color="#0177FF"/>
            <stop offset="0.265" stop-color="#0177FF"/>
            <stop offset="0.73" stop-color="#00B4FF"/>
            <stop offset="1" stop-color="#00C7FF"/>
        </linearGradient>
        <linearGradient id="paint5_linear_4256_13926" x1="2.75352" y1="10.3568" x2="8.48968" y2="1.28862" gradientUnits="userSpaceOnUse">
            <stop stop-color="#0177FF"/>
            <stop offset="0.18" stop-color="#0176FF"/>
            <stop offset="0.73" stop-color="#00B4FF"/>
            <stop offset="1" stop-color="#00C7FF"/>
        </linearGradient>
    </defs>
</svg>
