<svg width="5348" height="5348" viewBox="0 0 5348 5348" fill="none" xmlns="http://www.w3.org/2000/svg">
<path d="M2432.13 4697.58C2003.22 4701.34 1752.58 4494.4 1525.84 4169.01C1299.09 3843.63 1353.22 3753.83 1343.74 3135.74C1334.26 2517.66 1014.71 1608.86 1480.32 1202.21C1945.93 795.554 2856.16 856.467 3578.67 1183.8C4301.18 1511.13 4947.14 2155.25 4948.37 2773.41C4949.6 3391.56 4108.79 3750.08 3584.57 4150.95" stroke="#F4FBFF" stroke-opacity="0.2" stroke-width="4"/>
<path d="M2439.45 4636.25C2023.54 4639.9 1780.5 4439.22 1560.62 4123.7C1340.74 3808.18 1393.24 3721.1 1384.04 3121.74C1374.85 2522.39 1064.98 1641.13 1516.48 1246.8C1967.99 852.467 2850.63 911.534 3551.25 1228.95C4251.86 1546.36 4878.25 2170.96 4879.44 2770.38C4880.63 3369.81 4065.3 3717.46 3556.97 4106.19" stroke="#F4FBFF" stroke-opacity="0.2" stroke-width="4"/>
<path d="M2446.77 4574.92C2043.86 4578.45 1808.41 4384.05 1595.4 4078.39C1382.4 3772.72 1433.25 3688.36 1424.34 3107.74C1415.43 2527.11 1115.25 1673.4 1552.65 1291.39C1990.04 909.378 2845.1 966.599 3523.82 1274.09C4202.54 1581.59 4809.35 2186.67 4810.51 2767.36C4811.66 3348.05 4021.81 3684.84 3529.37 4061.42" stroke="#F4FBFF" stroke-opacity="0.2" stroke-width="4"/>
<path d="M2454.1 4513.59C2064.18 4517.01 1836.33 4328.88 1630.2 4033.07C1424.06 3737.27 1473.27 3655.63 1464.65 3093.74C1456.03 2531.84 1165.54 1705.67 1588.82 1335.98C2012.1 966.292 2839.58 1021.67 3496.41 1319.24C4153.24 1616.82 4740.47 2202.38 4741.59 2764.34C4742.7 3326.3 3978.33 3652.23 3501.77 4016.65" stroke="#F4FBFF" stroke-opacity="0.2" stroke-width="4"/>
<path d="M2461.42 4452.26C2084.5 4455.57 1864.24 4273.7 1664.98 3987.76C1465.72 3701.82 1513.29 3622.9 1504.96 3079.74C1496.62 2536.57 1215.81 1737.93 1624.98 1380.57C2034.16 1023.21 2834.06 1076.74 3468.99 1364.39C4103.92 1652.05 4671.58 2218.09 4672.66 2761.32C4673.74 3304.55 3934.85 3619.61 3474.17 3971.89" stroke="#F4FBFF" stroke-opacity="0.2" stroke-width="4"/>
<path d="M2468.74 4390.93C2104.82 4394.12 1892.16 4218.53 1699.77 3942.45C1507.38 3666.36 1553.31 3590.17 1545.26 3065.73C1537.22 2541.3 1266.08 1770.2 1661.15 1425.16C2056.21 1080.12 2828.53 1131.8 3441.57 1409.54C4054.6 1687.27 4602.69 2233.8 4603.73 2758.29C4604.78 3282.79 3891.36 3586.99 3446.57 3927.12" stroke="#F4FBFF" stroke-opacity="0.2" stroke-width="4"/>
<path d="M2476.06 4329.6C2125.14 4332.68 1920.07 4163.36 1734.55 3897.13C1549.03 3630.91 1593.32 3557.44 1585.56 3051.73C1577.8 2546.03 1316.36 1802.47 1697.31 1469.75C2078.26 1137.03 2823 1186.87 3414.14 1454.69C4005.29 1722.5 4533.8 2249.51 4534.8 2755.27C4535.81 3261.04 3847.87 3554.37 3418.97 3882.36" stroke="#F4FBFF" stroke-opacity="0.2" stroke-width="4"/>
<path d="M2483.39 4268.27C2145.47 4271.23 1947.99 4108.18 1769.34 3851.82C1590.69 3595.46 1633.34 3524.71 1625.87 3037.73C1618.4 2550.76 1366.64 1834.73 1733.48 1514.34C2100.33 1193.94 2817.48 1241.94 3386.73 1499.84C3955.98 1757.73 4464.91 2265.22 4465.88 2752.25C4466.85 3239.29 3804.39 3521.75 3391.37 3837.59" stroke="#F4FBFF" stroke-opacity="0.2" stroke-width="4"/>
<path d="M2490.71 4206.94C2165.78 4209.79 1975.9 4053.01 1804.12 3806.51C1632.35 3560.01 1673.36 3491.97 1666.17 3023.73C1658.99 2555.48 1416.91 1867 1769.64 1558.93C2122.38 1250.86 2811.95 1297 3359.3 1544.98C3906.66 1792.96 4396.02 2280.93 4396.95 2749.23C4397.88 3217.53 3760.9 3489.14 3363.77 3792.83" stroke="#F4FBFF" stroke-opacity="0.2" stroke-width="4"/>
<path d="M2498.03 4145.61C2186.1 4148.34 2003.82 3997.84 1838.91 3761.19C1674 3524.55 1713.37 3459.24 1706.48 3009.73C1699.58 2560.21 1467.18 1899.27 1805.81 1603.52C2144.43 1307.77 2806.42 1352.07 3331.88 1590.13C3857.34 1828.19 4327.13 2296.64 4328.02 2746.21C4328.92 3195.78 3717.42 3456.52 3336.17 3748.06" stroke="#F4FBFF" stroke-opacity="0.2" stroke-width="4"/>
<path d="M2505.36 4084.28C2206.42 4086.9 2031.73 3942.66 1873.7 3715.88C1715.66 3489.1 1753.39 3426.51 1746.78 2995.72C1740.17 2564.94 1517.46 1931.54 1841.98 1648.11C2166.49 1364.68 2800.89 1407.14 3304.46 1635.28C3808.03 1863.42 4258.24 2312.35 4259.1 2743.19C4259.96 3174.02 3673.94 3423.9 3308.57 3703.29" stroke="#F4FBFF" stroke-opacity="0.2" stroke-width="4"/>
<path d="M2512.68 4022.95C2226.75 4025.46 2059.65 3887.49 1908.49 3670.57C1757.32 3453.65 1793.41 3393.78 1787.09 2981.72C1780.77 2569.67 1567.74 1963.8 1878.14 1692.7C2188.55 1421.6 2795.37 1462.2 3277.04 1680.43C3758.72 1898.65 4189.36 2328.06 4190.17 2740.16C4190.99 3152.27 3630.45 3391.28 3280.98 3658.53" stroke="#F4FBFF" stroke-opacity="0.2" stroke-width="4"/>
<path d="M2520 3961.61C2247.06 3964.01 2087.57 3832.32 1943.27 3625.25C1798.98 3418.19 1833.43 3361.05 1827.39 2967.72C1821.36 2574.39 1618.01 1996.07 1914.31 1737.29C2210.6 1478.51 2789.84 1517.27 3249.62 1725.57C3709.4 1933.88 4120.46 2343.77 4121.25 2737.14C4122.03 3130.51 3586.97 3358.66 3253.38 3613.76" stroke="#F4FBFF" stroke-opacity="0.2" stroke-width="4"/>
<path d="M2527.32 3900.29C2267.38 3902.57 2115.48 3777.14 1978.06 3579.94C1840.63 3382.74 1873.44 3328.31 1867.7 2953.72C1861.95 2579.12 1668.28 2028.34 1950.47 1781.88C2232.66 1535.42 2784.31 1572.34 3222.2 1770.72C3660.08 1969.1 4051.57 2359.48 4052.32 2734.12C4053.06 3108.76 3543.48 3326.04 3225.77 3569" stroke="#F4FBFF" stroke-opacity="0.2" stroke-width="4"/>
<path d="M2534.65 3838.95C2287.7 3841.12 2143.39 3721.97 2012.84 3534.63C1882.29 3347.29 1913.46 3295.58 1908 2939.71C1902.54 2583.85 1718.56 2060.6 1986.64 1826.47C2254.72 1592.33 2778.79 1627.4 3194.78 1815.87C3610.77 2004.33 3982.68 2375.19 3983.39 2731.1C3984.1 3087 3500 3293.42 3198.17 3524.23" stroke="#F4FBFF" stroke-opacity="0.2" stroke-width="4"/>
<path d="M2541.97 3777.62C2308.02 3779.68 2171.31 3666.8 2047.63 3489.31C1923.95 3311.83 1953.47 3262.85 1948.3 2925.71C1943.13 2588.58 1768.83 2092.87 2022.8 1871.06C2276.77 1649.25 2773.26 1682.47 3167.35 1861.02C3561.45 2039.56 3913.79 2390.9 3914.46 2728.07C3915.13 3065.25 3456.51 3260.81 3170.57 3479.46" stroke="#F4FBFF" stroke-opacity="0.2" stroke-width="4"/>
<path d="M2549.29 3716.3C2328.34 3718.23 2199.22 3611.62 2082.41 3444C1965.6 3276.38 1993.49 3230.12 1988.61 2911.71C1983.72 2593.31 1819.1 2125.14 2058.96 1915.65C2298.82 1706.16 2767.73 1737.54 3139.93 1906.17C3512.13 2074.79 3844.9 2406.61 3845.53 2725.05C3846.17 3043.5 3413.02 3228.19 3142.97 3434.7" stroke="#F4FBFF" stroke-opacity="0.2" stroke-width="4"/>
<path d="M2556.62 3654.96C2348.66 3656.79 2227.14 3556.45 2117.2 3398.69C2007.26 3240.93 2033.51 3197.39 2028.91 2897.71C2024.32 2598.03 1869.38 2157.4 2095.13 1960.24C2320.88 1763.07 2762.21 1792.61 3112.52 1951.31C3462.82 2110.02 3776.01 2422.32 3776.61 2722.03C3777.21 3021.74 3369.54 3195.57 3115.38 3389.93" stroke="#F4FBFF" stroke-opacity="0.2" stroke-width="4"/>
<path d="M2563.94 3593.63C2368.98 3595.34 2255.05 3501.28 2151.99 3353.37C2048.92 3205.47 2073.52 3164.65 2069.21 2883.71C2064.9 2602.76 1919.66 2189.67 2131.3 2004.83C2342.94 1819.98 2756.68 1847.67 3085.09 1996.46C3413.51 2145.25 3707.12 2438.03 3707.68 2719.01C3708.24 2999.99 3326.05 3162.95 3087.77 3345.16" stroke="#F4FBFF" stroke-opacity="0.2" stroke-width="4"/>
<path d="M2571.26 3532.3C2389.3 3533.9 2282.97 3446.1 2186.77 3308.06C2090.58 3170.02 2113.54 3131.92 2109.52 2869.71C2105.5 2607.49 1969.93 2221.94 2167.46 2049.42C2365 1876.9 2751.15 1902.74 3057.67 2041.61C3364.19 2180.48 3638.23 2453.74 3638.76 2715.99C3639.28 2978.24 3282.57 3130.33 3060.18 3300.4" stroke="#F4FBFF" stroke-opacity="0.2" stroke-width="4"/>
<path d="M2578.58 3470.97C2409.62 3472.45 2310.89 3390.93 2221.56 3262.75C2132.24 3134.57 2153.56 3099.19 2149.83 2855.7C2146.09 2612.22 2020.21 2254.21 2203.63 2094.01C2387.05 1933.81 2745.63 1957.81 3030.25 2086.76C3314.88 2215.7 3569.35 2469.45 3569.83 2712.96C3570.31 2956.48 3239.09 3097.72 3032.58 3255.63" stroke="#F4FBFF" stroke-opacity="0.2" stroke-width="4"/>
<path d="M2585.9 3409.64C2429.94 3411.01 2338.8 3335.76 2256.34 3217.44C2173.89 3099.12 2193.58 3066.46 2190.13 2841.7C2186.68 2616.94 2070.48 2286.47 2239.79 2138.6C2409.11 1990.72 2740.1 2012.87 3002.83 2131.9C3265.56 2250.93 3500.45 2485.16 3500.9 2709.94C3501.35 2934.73 3195.6 3065.1 3004.97 3210.87" stroke="#F4FBFF" stroke-opacity="0.2" stroke-width="4"/>
<path d="M2593.23 3348.31C2450.26 3349.57 2366.71 3280.58 2291.13 3172.12C2215.55 3063.66 2233.59 3033.73 2230.43 2827.7C2227.27 2621.67 2120.76 2318.74 2275.96 2183.19C2431.16 2047.64 2734.57 2067.94 2975.41 2177.05C3216.25 2286.16 3431.56 2500.87 3431.97 2706.92C3432.38 2912.97 3152.11 3032.48 2977.38 3166.1" stroke="#F4FBFF" stroke-opacity="0.2" stroke-width="4"/>
<path d="M2600.55 3286.98C2470.58 3288.12 2394.63 3225.41 2325.92 3126.81C2257.21 3028.21 2273.61 3001 2270.74 2813.7C2267.86 2626.4 2171.03 2351.01 2312.13 2227.78C2453.22 2104.55 2729.05 2123.01 2947.99 2222.2C3166.93 2321.39 3362.68 2516.58 3363.05 2703.9C3363.42 2891.22 3108.63 2999.86 2949.78 3121.34" stroke="#F4FBFF" stroke-opacity="0.2" stroke-width="4"/>
<path d="M2607.87 3225.65C2490.9 3226.68 2422.54 3170.24 2360.7 3081.5C2298.86 2992.76 2313.63 2968.26 2311.04 2799.7C2308.46 2631.13 2221.31 2383.27 2348.29 2272.37C2475.28 2161.46 2723.52 2178.07 2920.57 2267.35C3117.62 2356.62 3293.79 2532.29 3294.12 2700.88C3294.46 2869.46 3065.14 2967.24 2922.18 3076.57" stroke="#F4FBFF" stroke-opacity="0.2" stroke-width="4"/>
<path d="M2615.2 3164.32C2511.22 3165.23 2450.46 3115.06 2395.49 3036.18C2340.52 2957.3 2353.64 2935.53 2351.34 2785.69C2349.05 2635.86 2271.58 2415.54 2384.46 2316.96C2497.33 2218.38 2717.99 2233.14 2893.15 2312.5C3068.3 2391.85 3224.9 2548 3225.19 2697.85C3225.49 2847.71 3021.66 2934.62 2894.58 3031.81" stroke="#F4FBFF" stroke-opacity="0.2" stroke-width="4"/>
<path d="M2622.52 3102.99C2531.54 3103.79 2478.38 3059.89 2430.28 2990.87C2382.18 2921.85 2393.66 2902.8 2391.65 2771.69C2389.64 2640.58 2321.86 2447.81 2420.62 2361.55C2519.39 2275.29 2712.47 2288.21 2865.73 2357.64C3018.99 2427.08 3156.01 2563.71 3156.27 2694.83C3156.53 2825.96 2978.18 2902.01 2866.98 2987.04" stroke="#F4FBFF" stroke-opacity="0.2" stroke-width="4"/>
<path d="M2629.84 3041.66C2551.86 3042.34 2506.29 3004.72 2465.06 2945.56C2423.84 2886.4 2433.68 2870.07 2431.95 2757.69C2430.23 2645.31 2372.13 2480.08 2456.79 2406.14C2541.44 2332.2 2706.94 2343.28 2838.3 2402.79C2969.67 2462.31 3087.12 2579.42 3087.34 2691.81C3087.56 2804.2 2934.69 2869.39 2839.38 2942.27" stroke="#F4FBFF" stroke-opacity="0.2" stroke-width="4"/>
<path d="M2637.17 2980.33C2572.18 2980.9 2534.2 2949.54 2499.85 2900.24C2465.49 2850.94 2473.69 2837.34 2472.26 2743.69C2470.82 2650.04 2422.4 2512.34 2492.95 2450.73C2563.5 2389.11 2701.41 2398.34 2810.88 2447.94C2920.35 2497.53 3018.23 2595.13 3018.41 2688.79C3018.6 2782.45 2891.2 2836.77 2811.78 2897.51" stroke="#F4FBFF" stroke-opacity="0.2" stroke-width="4"/>
<path d="M2644.49 2919C2592.5 2919.45 2562.12 2894.37 2534.63 2854.93C2507.15 2815.49 2513.71 2804.6 2512.56 2729.68C2511.41 2654.77 2472.68 2544.61 2529.12 2495.32C2585.55 2446.03 2695.89 2453.41 2783.46 2493.09C2871.04 2532.76 2949.34 2610.84 2949.49 2685.76C2949.64 2760.69 2847.72 2804.15 2784.18 2852.74" stroke="#F4FBFF" stroke-opacity="0.2" stroke-width="4"/>
<path d="M2651.81 2857.67C2612.82 2858.01 2590.03 2839.2 2569.42 2809.62C2548.81 2780.04 2553.73 2771.87 2552.87 2715.68C2552 2659.49 2522.95 2576.88 2565.28 2539.91C2607.61 2502.94 2690.36 2508.48 2756.04 2538.23C2821.72 2567.99 2880.45 2626.55 2880.56 2682.74C2880.67 2738.94 2804.23 2771.53 2756.58 2807.98" stroke="#F4FBFF" stroke-opacity="0.2" stroke-width="4"/>
<path d="M2659.13 2796.34C2633.14 2796.57 2617.95 2784.02 2604.21 2764.3C2590.46 2744.58 2593.75 2739.14 2593.17 2701.68C2592.6 2664.22 2573.23 2609.14 2601.45 2584.5C2629.67 2559.85 2684.83 2563.54 2728.62 2583.38C2772.41 2603.22 2811.56 2642.26 2811.63 2679.72C2811.71 2717.19 2760.75 2738.91 2728.98 2763.21" stroke="#F4FBFF" stroke-opacity="0.2" stroke-width="4"/>
<path d="M2666.46 2735.01C2653.46 2735.12 2645.86 2728.85 2638.99 2718.99C2632.12 2709.13 2633.76 2706.41 2633.47 2687.68C2633.19 2668.95 2623.5 2641.41 2637.61 2629.09C2651.72 2616.76 2679.31 2618.61 2701.2 2628.53C2723.09 2638.45 2742.67 2657.97 2742.71 2676.7C2742.74 2695.43 2717.26 2706.3 2701.38 2718.44" stroke="#F4FBFF" stroke-opacity="0.2" stroke-width="4"/>
</svg>
