<svg width="1000" height="1000" viewBox="0 0 1000 1000" fill="none" xmlns="http://www.w3.org/2000/svg">
<g clip-path="url(#clip0_4791_13203)">
<rect width="1000" height="1000" fill="white"/>
<g opacity="0.55" filter="url(#filter0_f_4791_13203)">
<ellipse cx="36.8761" cy="1007.5" rx="874.5" ry="865.5" transform="rotate(71.2283 36.8761 1007.5)" fill="url(#paint0_radial_4791_13203)"/>
</g>
<path d="M-3014.06 2159.35C-3066.58 1733.66 -2889.48 1461.11 -2592 1198.83C-2294.52 936.543 -2199.14 980.111 -1586.15 900.39C-973.153 820.67 -106.599 399.831 350.374 816.168C807.348 1232.5 850.358 2143.76 607.327 2898.81C364.295 3653.86 -202.172 4368.88 -816.178 4440.41C-1430.18 4511.94 -1882.01 3717.37 -2339.9 3242.15" stroke="#F4FBFF" stroke-opacity="0.2" stroke-width="4"/>
<path d="M-2952.29 2159.65C-3003.22 1746.86 -2831.49 1482.57 -2543.02 1228.23C-2254.56 973.897 -2162.07 1016.14 -1567.65 938.84C-973.233 861.535 -132.938 453.449 310.188 857.169C753.314 1260.89 795.021 2144.53 559.354 2876.7C323.687 3608.87 -225.615 4302.23 -821.014 4371.59C-1416.41 4440.95 -1854.55 3670.45 -2298.56 3209.63" stroke="#F4FBFF" stroke-opacity="0.2" stroke-width="4"/>
<path d="M-2890.53 2159.95C-2939.87 1760.06 -2773.5 1504.03 -2494.05 1257.64C-2214.6 1011.25 -2125 1052.18 -1549.16 977.29C-973.315 902.401 -159.279 507.068 269.999 898.172C699.278 1289.28 739.681 2145.3 511.379 2854.59C283.076 3563.88 -249.06 4235.57 -825.853 4302.77C-1402.65 4369.96 -1827.09 3623.54 -2257.23 3177.12" stroke="#F4FBFF" stroke-opacity="0.2" stroke-width="4"/>
<path d="M-2828.76 2160.25C-2876.51 1773.26 -2715.51 1525.49 -2445.07 1287.05C-2174.64 1048.61 -2087.93 1088.21 -1530.66 1015.74C-973.394 943.266 -185.618 560.686 229.813 939.174C645.244 1317.66 684.344 2146.07 463.406 2832.48C242.468 3518.89 -272.503 4168.92 -830.689 4233.94C-1388.88 4298.97 -1799.63 3576.63 -2215.89 3144.61" stroke="#F4FBFF" stroke-opacity="0.2" stroke-width="4"/>
<path d="M-2767 2160.55C-2813.15 1786.46 -2657.52 1546.95 -2396.1 1316.45C-2134.67 1085.96 -2050.86 1124.25 -1512.17 1054.19C-973.474 984.133 -211.957 614.305 189.626 980.177C591.209 1346.05 629.006 2146.85 415.433 2810.38C201.859 3473.9 -295.945 4102.26 -835.526 4165.12C-1375.11 4227.98 -1772.16 3529.72 -2174.55 3112.1" stroke="#F4FBFF" stroke-opacity="0.2" stroke-width="4"/>
<path d="M-2705.23 2160.85C-2749.8 1799.66 -2599.53 1568.4 -2347.12 1345.86C-2094.71 1123.32 -2013.79 1160.28 -1493.67 1092.64C-973.555 1025 -238.298 667.923 149.438 1021.18C537.173 1374.43 573.667 2147.62 367.458 2788.27C161.249 3428.92 -319.39 4035.6 -840.364 4096.3C-1361.34 4156.99 -1744.71 3482.8 -2133.22 3079.59" stroke="#F4FBFF" stroke-opacity="0.2" stroke-width="4"/>
<path d="M-2643.47 2161.15C-2686.44 1812.86 -2541.54 1589.86 -2298.15 1375.27C-2054.75 1160.67 -1976.72 1196.32 -1475.18 1131.09C-973.635 1065.86 -264.637 721.542 109.251 1062.18C483.139 1402.82 518.329 2148.39 319.485 2766.16C120.641 3383.93 -342.833 3968.95 -845.201 4027.47C-1347.57 4086 -1717.24 3435.89 -2091.88 3047.07" stroke="#F4FBFF" stroke-opacity="0.2" stroke-width="4"/>
<path d="M-2581.7 2161.45C-2623.08 1826.06 -2483.55 1611.32 -2249.17 1404.67C-2014.79 1198.02 -1939.65 1232.35 -1456.68 1169.54C-973.715 1106.73 -290.975 775.16 69.0647 1103.18C429.105 1431.21 462.992 2149.16 271.512 2744.05C80.0325 3338.94 -366.275 3902.29 -850.037 3958.65C-1333.8 4015.01 -1689.78 3388.98 -2050.55 3014.56" stroke="#F4FBFF" stroke-opacity="0.2" stroke-width="4"/>
<path d="M-2519.94 2161.75C-2559.73 1839.26 -2425.56 1632.78 -2200.2 1434.08C-1974.83 1235.38 -1902.58 1268.39 -1438.19 1207.99C-973.796 1147.6 -317.316 828.779 28.8762 1144.19C375.069 1459.59 407.652 2149.93 223.537 2721.94C39.422 3293.95 -389.72 3835.64 -854.876 3889.83C-1320.03 3944.02 -1662.32 3342.06 -2009.21 2982.05" stroke="#F4FBFF" stroke-opacity="0.2" stroke-width="4"/>
<path d="M-2458.17 2162.05C-2496.37 1852.46 -2367.57 1654.24 -2151.22 1463.49C-1934.87 1272.73 -1865.5 1304.42 -1419.69 1246.44C-973.876 1188.46 -343.655 882.398 -11.3103 1185.19C321.034 1487.98 352.314 2150.71 175.564 2699.83C-1.18632 3248.96 -413.163 3768.98 -859.712 3821C-1306.26 3873.02 -1634.86 3295.15 -1967.87 2949.54" stroke="#F4FBFF" stroke-opacity="0.2" stroke-width="4"/>
<path d="M-2396.41 2162.35C-2433.01 1865.66 -2309.58 1675.7 -2102.25 1492.89C-1894.91 1310.09 -1828.44 1340.45 -1401.2 1284.89C-973.958 1229.33 -369.996 936.017 -51.4988 1226.19C266.998 1516.37 296.975 2151.48 127.589 2677.73C-41.7966 3203.98 -436.607 3702.33 -864.55 3752.18C-1292.49 3802.03 -1607.4 3248.24 -1926.54 2917.03" stroke="#F4FBFF" stroke-opacity="0.2" stroke-width="4"/>
<path d="M-2334.64 2162.65C-2369.65 1878.86 -2251.59 1697.15 -2053.27 1522.3C-1854.95 1347.44 -1791.36 1376.49 -1382.7 1323.34C-974.037 1270.19 -396.335 989.634 -91.6854 1267.19C212.964 1544.75 241.637 2152.25 79.6162 2655.62C-82.405 3158.99 -460.05 3635.67 -869.387 3683.36C-1278.72 3731.04 -1579.94 3201.33 -1885.2 2884.51" stroke="#F4FBFF" stroke-opacity="0.2" stroke-width="4"/>
<path d="M-2272.87 2162.95C-2306.3 1892.06 -2193.6 1718.61 -2004.29 1551.71C-1814.99 1384.8 -1754.29 1412.52 -1364.2 1361.79C-974.117 1311.06 -422.673 1043.25 -131.872 1308.19C158.93 1573.14 186.3 2153.02 31.6431 2633.51C-123.013 3114 -483.493 3569.01 -874.223 3614.53C-1264.95 3660.05 -1552.48 3154.41 -1843.86 2852" stroke="#F4FBFF" stroke-opacity="0.2" stroke-width="4"/>
<path d="M-2211.11 2163.25C-2242.94 1905.26 -2135.61 1740.07 -1955.32 1581.11C-1775.02 1422.15 -1717.22 1448.56 -1345.71 1400.24C-974.196 1351.93 -449.012 1096.87 -172.058 1349.2C104.895 1601.52 130.962 2153.8 -16.3298 2611.4C-163.622 3069.01 -506.935 3502.36 -879.06 3545.71C-1251.18 3589.06 -1525.02 3107.5 -1802.53 2819.49" stroke="#F4FBFF" stroke-opacity="0.2" stroke-width="4"/>
<path d="M-2149.34 2163.55C-2179.58 1918.45 -2077.62 1761.53 -1906.34 1610.52C-1735.06 1459.51 -1680.15 1484.59 -1327.21 1438.69C-974.278 1392.79 -475.353 1150.49 -212.247 1390.2C50.8593 1629.91 75.6227 2154.57 -64.3047 2589.29C-204.232 3024.02 -530.38 3435.7 -883.898 3476.89C-1237.42 3518.07 -1497.56 3060.59 -1761.19 2786.98" stroke="#F4FBFF" stroke-opacity="0.2" stroke-width="4"/>
<path d="M-2087.58 2163.85C-2116.23 1931.65 -2019.63 1782.99 -1857.37 1639.93C-1695.1 1496.86 -1643.08 1520.63 -1308.72 1477.14C-974.358 1433.66 -501.692 1204.11 -252.434 1431.2C-3.17501 1658.29 20.2851 2155.34 -112.278 2567.19C-244.84 2979.03 -553.823 3369.05 -888.735 3408.06C-1223.65 3447.08 -1470.1 3013.67 -1719.86 2754.46" stroke="#F4FBFF" stroke-opacity="0.2" stroke-width="4"/>
<path d="M-2025.81 2164.15C-2052.87 1944.85 -1961.64 1804.45 -1808.39 1669.33C-1655.14 1534.22 -1606.01 1556.66 -1290.22 1515.59C-974.437 1474.52 -528.031 1257.73 -292.62 1472.2C-57.2091 1686.68 -35.0524 2156.11 -160.251 2545.08C-285.449 2934.04 -577.265 3302.39 -893.571 3339.24C-1209.88 3376.09 -1442.64 2966.76 -1678.52 2721.95" stroke="#F4FBFF" stroke-opacity="0.2" stroke-width="4"/>
<path d="M-1964.05 2164.45C-1989.51 1958.05 -1903.65 1825.91 -1759.41 1698.74C-1615.18 1571.57 -1568.94 1592.69 -1271.73 1554.04C-974.519 1515.39 -554.372 1311.35 -332.808 1513.21C-111.245 1715.07 -90.3919 2156.89 -208.225 2522.97C-326.059 2889.06 -600.71 3235.74 -898.41 3270.42C-1196.11 3305.1 -1415.18 2919.85 -1637.18 2689.44" stroke="#F4FBFF" stroke-opacity="0.2" stroke-width="4"/>
<path d="M-1902.28 2164.75C-1926.16 1971.25 -1845.66 1847.36 -1710.44 1728.14C-1575.22 1608.92 -1531.87 1628.73 -1253.23 1592.49C-974.598 1556.25 -580.71 1364.96 -372.995 1554.21C-165.28 1743.45 -145.73 2157.66 -256.199 2500.86C-366.667 2844.07 -624.153 3169.08 -903.246 3201.59C-1182.34 3234.11 -1387.71 2872.94 -1595.85 2656.93" stroke="#F4FBFF" stroke-opacity="0.2" stroke-width="4"/>
</g>
<defs>
<filter id="filter0_f_4791_13203" x="-1129.8" y="-166.309" width="2333.35" height="2347.62" filterUnits="userSpaceOnUse" color-interpolation-filters="sRGB">
<feFlood flood-opacity="0" result="BackgroundImageFix"/>
<feBlend mode="normal" in="SourceGraphic" in2="BackgroundImageFix" result="shape"/>
<feGaussianBlur stdDeviation="150" result="effect1_foregroundBlur_4791_13203"/>
</filter>
<radialGradient id="paint0_radial_4791_13203" cx="0" cy="0" r="1" gradientUnits="userSpaceOnUse" gradientTransform="translate(36.8761 1007.5) rotate(90) scale(865.5 874.5)">
<stop offset="0.38" stop-color="#0177FF"/>
<stop offset="1" stop-color="white" stop-opacity="0"/>
</radialGradient>
<clipPath id="clip0_4791_13203">
<rect width="1000" height="1000" fill="white"/>
</clipPath>
</defs>
</svg>
