<svg width="685" height="835" viewBox="0 0 685 835" fill="none" xmlns="http://www.w3.org/2000/svg">
<g clip-path="url(#clip0_4904_59108)">
<g opacity="0.55" filter="url(#filter0_f_4904_59108)">
<ellipse cx="757.177" cy="922.243" rx="779.152" ry="771.133" transform="rotate(-26.0943 757.177 922.243)" fill="url(#paint0_radial_4904_59108)"/>
</g>
<path d="M849.857 3359.01C510.185 3320.6 331.869 3132.7 183.883 2853.41C35.8971 2574.12 87.3872 2508.3 139.523 2018.41C191.659 1528.52 26.5507 778.735 434.137 501.952C841.723 225.17 1555.94 361.185 2095.94 689.855C2635.94 1018.52 3084.81 1590.42 3026.14 2079.57C2967.46 2568.71 2267.7 2771.21 1814.31 3037.76" stroke="#F2FBFF" stroke-opacity="0.2" stroke-width="4"/>
<path d="M861.567 3311.2C532.188 3273.95 359.276 3091.75 215.774 2820.92C72.2724 2550.09 122.202 2486.26 172.758 2011.22C223.315 1536.18 63.2093 809.112 458.444 540.717C853.679 272.322 1546.25 404.215 2069.89 722.925C2593.52 1041.63 3028.79 1596.2 2971.9 2070.52C2915 2544.85 2236.44 2741.21 1796.79 2999.69" stroke="#F2FBFF" stroke-opacity="0.2" stroke-width="4"/>
<path d="M873.279 3263.38C554.193 3227.31 386.684 3050.79 247.667 2788.43C108.65 2526.06 157.019 2464.23 205.995 2004.03C254.972 1543.84 99.8698 839.49 482.754 579.482C865.637 319.475 1536.56 447.247 2043.84 755.997C2551.11 1064.75 2972.78 1601.98 2917.66 2061.48C2862.55 2520.99 2205.19 2711.21 1779.28 2961.61" stroke="#F2FBFF" stroke-opacity="0.2" stroke-width="4"/>
<path d="M884.988 3215.57C576.196 3180.66 414.091 3009.84 279.558 2755.93C145.025 2502.03 191.834 2442.2 239.231 1996.85C286.627 1551.49 136.528 869.867 507.061 618.247C877.594 366.627 1526.88 490.277 2017.79 789.067C2508.7 1087.86 2916.76 1607.76 2863.42 2052.44C2810.09 2497.12 2173.94 2681.21 1761.76 2923.53" stroke="#F2FBFF" stroke-opacity="0.2" stroke-width="4"/>
<path d="M896.7 3167.76C598.201 3134.01 441.499 2968.88 311.451 2723.44C181.402 2478.01 226.651 2420.16 272.468 1989.66C318.284 1559.15 173.189 900.246 531.371 657.013C889.552 413.78 1517.19 533.308 1991.74 822.139C2466.28 1110.97 2860.75 1613.54 2809.19 2043.4C2757.63 2473.26 2142.68 2651.21 1744.25 2885.45" stroke="#F2FBFF" stroke-opacity="0.2" stroke-width="4"/>
<path d="M908.41 3119.95C620.204 3087.36 468.906 2927.93 343.342 2690.95C217.778 2453.98 261.466 2398.13 305.703 1982.47C349.94 1566.81 209.848 930.623 555.678 695.777C901.509 460.932 1507.51 576.338 1965.69 855.21C2423.87 1134.08 2804.73 1619.32 2754.95 2034.36C2705.17 2449.39 2111.43 2621.21 1726.73 2847.37" stroke="#F2FBFF" stroke-opacity="0.2" stroke-width="4"/>
<path d="M920.121 3072.14C642.208 3040.71 496.313 2886.97 375.234 2658.46C254.154 2429.95 296.282 2376.1 338.939 1975.28C381.596 1574.46 246.507 961.001 579.986 734.543C913.466 508.084 1497.82 619.37 1939.64 888.281C2381.46 1157.19 2748.72 1625.11 2700.71 2025.32C2652.71 2425.53 2080.17 2591.21 1709.22 2809.3" stroke="#F2FBFF" stroke-opacity="0.2" stroke-width="4"/>
<path d="M931.832 3024.32C664.212 2994.06 523.721 2846.02 407.126 2625.97C290.53 2405.92 331.098 2354.06 372.175 1968.09C413.252 1582.12 283.167 991.378 604.295 773.307C925.423 555.236 1488.14 662.4 1913.59 921.352C2339.05 1180.3 2692.7 1630.89 2646.48 2016.28C2600.25 2401.66 2048.92 2561.21 1691.7 2771.22" stroke="#F2FBFF" stroke-opacity="0.2" stroke-width="4"/>
<path d="M943.543 2976.51C686.216 2947.41 551.128 2805.06 439.018 2593.48C326.907 2381.9 365.914 2332.03 405.411 1960.91C444.909 1589.78 319.826 1021.76 628.604 812.073C937.381 602.389 1478.45 705.431 1887.54 954.423C2296.63 1203.42 2636.69 1636.67 2592.24 2007.23C2547.79 2377.8 2017.67 2531.21 1674.19 2733.14" stroke="#F2FBFF" stroke-opacity="0.2" stroke-width="4"/>
<path d="M955.254 2928.7C708.22 2900.76 578.536 2764.11 470.91 2560.99C363.283 2357.87 400.731 2310 438.648 1953.72C476.565 1597.43 356.486 1052.13 652.912 850.837C949.338 649.541 1468.77 748.461 1861.49 987.494C2254.22 1226.53 2580.67 1642.45 2538 1998.19C2495.33 2353.94 1986.41 2501.21 1656.67 2695.06" stroke="#F2FBFF" stroke-opacity="0.2" stroke-width="4"/>
<path d="M966.965 2880.89C730.224 2854.12 605.943 2723.15 502.801 2528.5C399.66 2333.84 435.546 2287.96 471.884 1946.53C508.221 1605.09 393.145 1082.51 677.22 889.603C961.295 696.694 1459.08 791.493 1835.44 1020.57C2211.81 1249.64 2524.66 1648.23 2483.77 1989.15C2442.87 2330.07 1955.16 2471.21 1639.16 2656.99" stroke="#F2FBFF" stroke-opacity="0.2" stroke-width="4"/>
<path d="M978.674 2833.07C752.227 2807.47 633.35 2682.2 534.692 2496.01C436.035 2309.81 470.361 2265.93 505.119 1939.34C539.876 1612.75 429.804 1112.89 701.528 928.368C973.252 743.846 1449.39 834.523 1809.39 1053.64C2169.39 1272.75 2468.64 1654.01 2429.53 1980.11C2390.41 2306.21 1923.9 2441.21 1621.64 2618.91" stroke="#F2FBFF" stroke-opacity="0.2" stroke-width="4"/>
<path d="M990.386 2785.26C774.231 2760.82 660.757 2641.24 566.584 2463.51C472.411 2285.78 505.178 2243.9 538.355 1932.15C571.533 1620.41 466.464 1143.27 725.836 967.132C985.209 790.998 1439.71 877.553 1783.34 1086.71C2126.98 1295.86 2412.63 1659.79 2375.29 1971.07C2337.95 2282.34 1892.65 2411.21 1604.13 2580.83" stroke="#F2FBFF" stroke-opacity="0.2" stroke-width="4"/>
<path d="M1002.1 2737.45C796.235 2714.17 688.165 2600.29 598.476 2431.02C508.788 2261.76 539.994 2221.86 571.591 1924.96C603.189 1628.06 503.123 1173.64 750.145 1005.9C997.167 838.151 1430.02 920.584 1757.3 1119.78C2084.57 1318.97 2356.61 1665.57 2321.05 1962.03C2285.49 2258.48 1861.4 2381.21 1586.61 2542.75" stroke="#F2FBFF" stroke-opacity="0.2" stroke-width="4"/>
<path d="M1013.81 2689.63C818.239 2667.52 715.572 2559.34 630.368 2398.53C545.164 2237.73 574.81 2199.83 604.827 1917.77C634.845 1635.72 539.783 1204.02 774.453 1044.66C1009.12 885.303 1420.34 963.615 1731.25 1152.85C2042.16 1342.08 2300.6 1671.36 2266.82 1952.99C2233.04 2234.62 1830.14 2351.21 1569.1 2504.68" stroke="#F2FBFF" stroke-opacity="0.2" stroke-width="4"/>
<path d="M1025.52 2641.82C840.243 2620.87 742.979 2518.38 662.26 2366.04C581.54 2213.7 609.626 2177.8 638.064 1910.59C666.501 1643.38 576.442 1234.4 798.762 1083.43C1021.08 932.455 1410.65 1006.65 1705.2 1185.92C1999.74 1365.19 2244.58 1677.14 2212.58 1943.94C2180.58 2210.75 1798.89 2321.21 1551.58 2466.6" stroke="#F2FBFF" stroke-opacity="0.2" stroke-width="4"/>
<path d="M1037.23 2594.01C862.247 2574.22 770.387 2477.43 694.152 2333.55C617.917 2189.67 644.442 2155.76 671.3 1903.4C698.158 1651.03 613.102 1264.78 823.07 1122.19C1033.04 979.608 1400.97 1049.68 1679.15 1218.99C1957.33 1388.31 2188.57 1682.92 2158.34 1934.9C2128.12 2186.89 1767.63 2291.21 1534.07 2428.52" stroke="#F2FBFF" stroke-opacity="0.2" stroke-width="4"/>
<path d="M1048.94 2546.2C884.251 2527.58 797.795 2436.47 726.044 2301.06C654.293 2165.64 679.258 2133.73 704.536 1896.21C729.814 1658.69 649.761 1295.16 847.379 1160.96C1045 1026.76 1391.28 1092.71 1653.1 1252.06C1914.92 1411.42 2132.55 1688.7 2104.11 1925.86C2075.66 2163.02 1736.38 2261.21 1516.55 2390.44" stroke="#F2FBFF" stroke-opacity="0.2" stroke-width="4"/>
<path d="M1060.65 2498.39C906.255 2480.93 825.202 2395.52 757.936 2268.57C690.669 2141.62 714.074 2111.7 737.772 1889.02C761.47 1666.35 686.421 1325.53 871.687 1199.72C1056.95 1073.91 1381.6 1135.74 1627.05 1285.13C1872.5 1434.53 2076.54 1694.48 2049.87 1916.82C2023.2 2139.16 1705.12 2231.2 1499.04 2352.36" stroke="#F2FBFF" stroke-opacity="0.2" stroke-width="4"/>
</g>
<defs>
<filter id="filter0_f_4904_59108" x="-320.607" y="-150.62" width="2155.57" height="2145.73" filterUnits="userSpaceOnUse" color-interpolation-filters="sRGB">
<feFlood flood-opacity="0" result="BackgroundImageFix"/>
<feBlend mode="normal" in="SourceGraphic" in2="BackgroundImageFix" result="shape"/>
<feGaussianBlur stdDeviation="150" result="effect1_foregroundBlur_4904_59108"/>
</filter>
<radialGradient id="paint0_radial_4904_59108" cx="0" cy="0" r="1" gradientUnits="userSpaceOnUse" gradientTransform="translate(757.177 922.243) rotate(90) scale(771.133 779.152)">
<stop offset="0.38" stop-color="#0177FF"/>
<stop offset="1" stop-color="white" stop-opacity="0"/>
</radialGradient>
<clipPath id="clip0_4904_59108">
<rect width="685" height="835" fill="white" transform="translate(685 835) rotate(-180)"/>
</clipPath>
</defs>
</svg>
