<svg width="196" height="151" viewBox="0 0 196 151" fill="none" xmlns="http://www.w3.org/2000/svg">
<g clip-path="url(#clip0_4729_13459)">
<path d="M131.178 42.7359C135.361 31.4885 145.245 21.77 157.189 20.614C150.008 31.5104 146.913 44.5955 148.451 57.5543C149.062 62.5498 150.262 68.0424 147.569 72.2942C145.894 74.9397 142.941 76.5684 139.897 77.3034C136.853 78.0384 133.681 77.9814 130.55 77.9203L129.849 78.2664C127.647 66.4701 126.995 53.9833 131.178 42.7359Z" fill="#CFD6DC"/>
<path d="M157.247 20.8591C149.105 26.5476 142.962 34.657 139.69 44.0356C139.002 46.0491 138.479 48.1516 138.448 50.2897C138.435 52.3741 138.98 54.424 140.027 56.2264C140.969 57.9267 142.13 59.5567 142.642 61.4564C143.182 63.4588 142.742 65.4844 141.639 67.2144C140.288 69.3311 138.258 70.8364 136.221 72.2394C133.96 73.7972 131.587 75.3795 130.203 77.8267C130.035 78.1232 129.585 77.8458 129.753 77.5497C132.16 73.2919 137.212 71.7453 140.302 68.1287C141.745 66.4411 142.687 64.3087 142.241 62.0616C141.851 60.0965 140.656 58.4146 139.687 56.7013C138.669 54.9023 138.005 53.0354 137.927 50.954C137.848 48.8249 138.29 46.6975 138.924 44.6752C140.396 40.1002 142.578 35.785 145.391 31.8878C148.576 27.4222 152.502 23.5344 156.998 20.3925C157.276 20.1982 157.524 20.666 157.247 20.8591Z" fill="white"/>
<path d="M140.566 40.9537C139.067 40.1913 137.888 38.9208 137.239 37.3692C136.59 35.8176 136.514 34.086 137.024 32.4834C137.129 32.1595 137.637 32.3064 137.533 32.6308C137.055 34.1222 137.126 35.7352 137.733 37.1788C138.34 38.6225 139.443 39.8015 140.843 40.5032C141.147 40.6561 140.869 41.1057 140.566 40.9537Z" fill="white"/>
<path d="M139.436 55.4273C142.714 54.3919 145.481 52.1589 147.186 49.1736C147.355 48.8777 147.805 49.1551 147.637 49.4507C145.857 52.5539 142.972 54.8718 139.558 55.9418C139.233 56.0435 139.112 55.5285 139.436 55.4273Z" fill="white"/>
<path d="M148.938 28.0228C149.456 28.4387 150.07 28.7192 150.724 28.8393C151.378 28.9594 152.051 28.9152 152.683 28.7107C153.007 28.6049 153.128 29.12 152.806 29.2252C152.106 29.4478 151.363 29.4957 150.64 29.3647C149.917 29.2336 149.238 28.9276 148.661 28.4733C148.603 28.4351 148.562 28.3762 148.546 28.3086C148.529 28.2411 148.54 28.1699 148.574 28.1096C148.611 28.0501 148.67 28.0076 148.738 27.9914C148.806 27.9751 148.878 27.9864 148.938 28.0228Z" fill="white"/>
<path d="M185.979 49.2837C185.779 49.3556 185.578 49.4274 185.377 49.5036C182.687 50.4833 180.081 51.68 177.585 53.0817C177.391 53.187 177.195 53.2967 177.004 53.4074C171.026 56.8486 165.74 61.3696 161.413 66.7406C159.694 68.8795 158.139 71.146 156.763 73.5207C154.863 76.8004 153.064 80.5075 150.274 82.8976C149.985 83.1503 149.682 83.3848 149.364 83.5999L130.326 79.0947C130.287 79.0628 130.248 79.0351 130.21 79.0031L129.441 78.858C129.504 78.7306 129.571 78.5997 129.634 78.4723C129.67 78.3982 129.71 78.3252 129.746 78.2511C129.771 78.202 129.796 78.153 129.816 78.1073C129.825 78.0909 129.833 78.0746 129.841 78.0626C129.861 78.0168 129.884 77.9765 129.903 77.9351C130.278 77.2028 130.659 76.4719 131.046 75.7423C131.047 75.738 131.047 75.738 131.052 75.7346C134.013 70.1831 137.463 64.8299 141.615 60.1706C141.74 60.0305 141.866 59.8859 142 59.7478C143.883 57.658 145.935 55.7256 148.133 53.97C149.34 53.0126 150.594 52.1168 151.892 51.2862C155.248 49.1465 158.92 47.548 162.774 46.5495C170.455 44.56 178.688 45.0493 185.464 48.9785C185.638 49.0791 185.807 49.1788 185.979 49.2837Z" fill="#CFD6DC"/>
<path d="M185.879 49.5153C175.953 49.1548 166.166 51.9312 157.907 57.45C156.145 58.6431 154.461 60.0068 153.15 61.6958C151.884 63.3519 151.085 65.3168 150.836 67.3862C150.565 69.311 150.51 71.3114 149.775 73.1367C149.001 75.0608 147.43 76.413 145.507 77.1299C143.155 78.007 140.627 77.9865 138.157 77.8806C135.413 77.763 132.566 77.5973 129.987 78.7183C129.675 78.8541 129.483 78.3614 129.794 78.2258C134.28 76.2756 139.245 78.0824 143.89 77.0555C146.057 76.5763 148.094 75.441 149.091 73.3783C149.962 71.5746 150.021 69.5119 150.278 67.5606C150.549 65.5117 151.143 63.6208 152.334 61.9123C153.552 60.1646 155.186 58.7322 156.91 57.4993C160.84 54.7327 165.18 52.6011 169.772 51.1828C175.004 49.5349 180.479 48.7942 185.961 48.9927C186.3 49.0051 186.216 49.5276 185.879 49.5153Z" fill="white"/>
<path d="M160.462 55.5165C159.724 54.0052 159.548 52.2809 159.964 50.6514C160.38 49.0219 161.362 47.5934 162.734 46.621C163.012 46.4252 163.329 46.8485 163.051 47.0446C161.771 47.9477 160.857 49.2785 160.472 50.7966C160.088 52.3148 160.259 53.9203 160.954 55.3235C161.105 55.6287 160.612 55.8199 160.462 55.5165Z" fill="white"/>
<path d="M150.845 66.3921C154.086 67.5392 157.641 67.4225 160.799 66.0655C161.112 65.9308 161.305 66.4234 160.992 66.5579C157.703 67.9639 154.004 68.0778 150.634 66.8768C150.313 66.7621 150.526 66.2781 150.845 66.3921Z" fill="white"/>
<path d="M174.932 50.2324C175.096 50.8766 175.417 51.4701 175.866 51.9596C176.316 52.4491 176.88 52.8192 177.509 53.0367C177.831 53.1473 177.617 53.6312 177.297 53.5214C176.604 53.2778 175.981 52.8683 175.483 52.3286C174.985 51.7889 174.627 51.1355 174.44 50.4253C174.416 50.3599 174.419 50.288 174.447 50.2244C174.475 50.1607 174.526 50.1101 174.589 50.0827C174.655 50.0574 174.727 50.059 174.791 50.0871C174.856 50.1151 174.906 50.1673 174.932 50.2324Z" fill="white"/>
<path d="M20.865 145.832C9.96563 140.811 1.02124 130.222 0.770508 118.224C11.0935 126.208 23.9075 130.282 36.9455 129.727C41.9729 129.495 47.5404 128.713 51.5767 131.719C54.0881 133.59 55.4892 136.658 55.9922 139.748C56.4952 142.839 56.1989 145.998 55.9015 149.115L56.1937 149.84C44.2647 151.145 31.7643 150.852 20.865 145.832Z" fill="#CFD6DC"/>
<path d="M1.01975 118.185C6.07709 126.734 13.6995 133.472 22.8043 137.442C24.76 138.281 26.817 138.961 28.9467 139.153C31.0241 139.323 33.1093 138.935 34.9857 138.027C36.7522 137.216 38.4653 136.182 40.3982 135.814C42.4356 135.427 44.4222 136.019 46.0639 137.25C48.0726 138.756 49.4203 140.894 50.6655 143.031C52.0481 145.403 53.4466 147.889 55.7824 149.454C56.0654 149.643 55.7547 150.072 55.4721 149.882C51.4083 147.16 50.2477 142.006 46.8748 138.651C45.3009 137.086 43.2457 135.985 40.9713 136.26C38.9825 136.5 37.2151 137.565 35.4335 138.402C33.5628 139.281 31.651 139.803 29.5697 139.723C27.4407 139.641 25.3528 139.039 23.3841 138.254C18.9333 136.441 14.7953 133.939 11.1216 130.84C6.90928 127.327 3.32899 123.119 0.53565 118.398C0.36287 118.106 0.848111 117.895 1.01975 118.185Z" fill="white"/>
<path d="M19.7977 136.336C18.9242 137.773 17.5683 138.853 15.9722 139.383C14.376 139.913 12.6435 139.858 11.0841 139.228C10.769 139.1 10.9538 138.604 11.2694 138.733C12.7204 139.322 14.3343 139.373 15.8196 138.876C17.3049 138.38 18.5639 137.369 19.3693 136.026C19.5447 135.734 19.972 136.046 19.7977 136.336Z" fill="white"/>
<path d="M34.1437 138.556C33.3588 135.209 31.3412 132.281 28.4932 130.355C28.2109 130.165 28.5214 129.737 28.8034 129.927C31.7634 131.936 33.8568 134.988 34.6659 138.473C34.7428 138.805 34.2202 138.887 34.1437 138.556Z" fill="white"/>
<path d="M7.5351 127.011C7.98894 126.526 8.31504 125.935 8.48414 125.292C8.65323 124.649 8.66002 123.975 8.50389 123.328C8.42282 122.997 8.94561 122.916 9.02615 123.245C9.19532 123.96 9.18692 124.705 9.00167 125.415C8.81642 126.126 8.45996 126.781 7.96344 127.322C7.92091 127.377 7.85906 127.413 7.79047 127.424C7.72188 127.435 7.65168 127.42 7.59415 127.381C7.53764 127.339 7.49974 127.277 7.48869 127.208C7.47763 127.139 7.49431 127.068 7.5351 127.011Z" fill="white"/>
<path d="M31.5328 91.6818C31.5893 91.8871 31.6458 92.0923 31.7064 92.2992C32.4803 95.0552 33.4768 97.7438 34.686 100.338C34.7764 100.54 34.8709 100.744 34.9668 100.943C37.9469 107.163 42.0558 112.776 47.0847 117.496C49.0876 119.372 51.2303 121.093 53.4943 122.645C56.6211 124.787 60.1818 126.861 62.3544 129.824C62.5845 130.13 62.7954 130.451 62.9859 130.783L57.0559 149.428C57.0212 149.463 56.9906 149.5 56.9558 149.536L56.7531 150.291C56.6307 150.219 56.5054 150.142 56.383 150.07C56.3119 150.029 56.2421 149.984 56.1709 149.942C56.1239 149.913 56.0769 149.884 56.0329 149.861C56.0172 149.851 56.0016 149.841 55.9901 149.833C55.946 149.81 55.9076 149.783 55.8677 149.761C55.1658 149.332 54.4658 148.897 53.7675 148.456C53.7632 148.455 53.7632 148.455 53.7603 148.449C48.4481 145.078 43.3708 141.234 39.0384 136.741C38.9081 136.606 38.7735 136.469 38.6459 136.326C36.7043 134.29 34.9323 132.098 33.3477 129.774C32.4841 128.498 31.6856 127.179 30.9554 125.823C29.0753 122.314 27.7587 118.532 27.0539 114.614C25.6502 106.804 26.7598 98.6325 31.1895 92.172C31.3029 92.0068 31.4151 91.8456 31.5328 91.6818Z" fill="#CFD6DC"/>
<path d="M31.7565 91.799C30.6475 101.67 32.6768 111.639 37.5562 120.29C38.6129 122.137 39.8455 123.919 41.4307 125.354C42.9865 126.741 44.8854 127.687 46.9301 128.092C48.8289 128.507 50.8194 128.713 52.5841 129.583C54.4442 130.501 55.6739 132.169 56.2435 134.141C56.9405 136.553 56.7292 139.071 56.437 141.527C56.1125 144.254 55.7323 147.081 56.6554 149.736C56.7672 150.058 56.2615 150.213 56.1498 149.891C54.5438 145.272 56.7204 140.457 56.0472 135.748C55.7331 133.55 54.7548 131.434 52.7733 130.284C51.0406 129.279 48.9881 129.065 47.0619 128.661C45.0393 128.236 43.1986 127.501 41.5849 126.185C39.9342 124.837 38.6293 123.1 37.5301 121.288C35.0681 117.161 33.2704 112.672 32.2029 107.986C30.9548 102.644 30.6297 97.1288 31.2415 91.6778C31.2795 91.3404 31.7942 91.4638 31.7565 91.799Z" fill="white"/>
<path d="M35.8211 117.597C34.2584 118.219 32.5257 118.264 30.9323 117.726C29.3389 117.188 27.9887 116.102 27.1227 114.66C26.9484 114.368 27.3945 114.083 27.5689 114.376C28.3729 115.72 29.6307 116.732 31.1155 117.23C32.6003 117.728 34.2142 117.679 35.6659 117.091C35.9815 116.964 36.1349 117.47 35.8211 117.597Z" fill="white"/>
<path d="M45.9393 128.007C47.3277 124.862 47.4798 121.31 46.3652 118.057C46.2545 117.735 46.7602 117.58 46.8708 117.902C48.0244 121.289 47.8586 124.986 46.4065 128.255C46.2679 128.567 45.8014 128.317 45.9393 128.007Z" fill="white"/>
<path d="M31.6445 102.769C32.2993 102.655 32.9153 102.379 33.4374 101.968C33.9594 101.556 34.3711 101.022 34.6354 100.412C34.77 100.099 35.2364 100.349 35.1027 100.66C34.8075 101.332 34.3521 101.922 33.7764 102.378C33.2006 102.834 32.522 103.142 31.7997 103.275C31.7327 103.293 31.6612 103.285 31.5999 103.253C31.5385 103.22 31.4918 103.165 31.4693 103.1C31.4491 103.033 31.4562 102.96 31.489 102.898C31.5218 102.836 31.5777 102.79 31.6445 102.769Z" fill="white"/>
<path d="M45.9613 79.531C36.3303 70.05 32.2626 60.1589 34.5072 51.68C37.3878 40.7991 50.1848 33.2759 69.6169 31.0394L69.6887 31.6636C50.5271 33.8688 37.9253 41.2231 35.1145 51.8407C32.93 60.0923 36.9386 69.7673 46.402 79.0835L45.9613 79.531Z" fill="#CFD6DC"/>
<path d="M138.884 113.186C126.864 113.186 113.802 111.4 100.828 107.965C84.7833 103.717 70.0723 97.306 58.2852 89.424L58.6342 88.902C70.3646 96.7458 85.0105 103.128 100.988 107.358C115.428 111.18 129.975 112.952 143.053 112.484L143.075 113.112C141.694 113.161 140.297 113.186 138.884 113.186Z" fill="#F0F0F0"/>
<path d="M166.46 109.236L166.259 108.641C177.009 105.006 183.733 99.1509 185.703 91.7077C188.208 82.2457 182.766 71.2656 170.38 60.7901C157.931 50.2613 139.978 41.5251 119.829 36.191L119.99 35.5837C140.227 40.9413 158.267 49.7227 170.786 60.3105C183.368 70.9514 188.881 82.1589 186.311 91.8684C184.284 99.525 177.419 105.53 166.46 109.236Z" fill="#CFD6DC"/>
<path d="M67.7464 113.448C44.1276 102.973 25.9275 89.3829 16.499 75.1808L17.0223 74.8333C26.3855 88.9371 44.4901 102.447 68.0009 112.874L67.7464 113.448Z" fill="#CFD6DC"/>
<path d="M150.789 131.596C148.353 131.596 145.875 131.542 143.355 131.433L143.382 130.805C162.184 131.619 178.773 129.369 191.359 124.297L191.594 124.88C180.614 129.304 166.621 131.596 150.789 131.596Z" fill="#CFD6DC"/>
<path d="M137.085 31.6027C133.181 30.3317 129.166 29.1483 125.15 28.0853C102.043 21.968 79.3288 19.7961 59.4616 21.8055L59.3984 21.1804C79.3397 19.1644 102.132 21.3416 125.311 27.478C129.338 28.5441 133.365 29.7309 137.279 31.0056L137.085 31.6027Z" fill="#CFD6DC"/>
<path d="M31.2006 80.4733C21.5695 70.9922 17.5018 61.1011 19.7465 52.6222C22.6271 41.7414 35.424 34.2182 54.8562 31.9817L54.9279 32.6058C35.7663 34.8111 23.1646 42.1654 20.3537 52.783C18.1692 61.0346 22.1779 70.7096 31.6413 80.0258L31.2006 80.4733Z" fill="#CFD6DC"/>
<path d="M124.123 114.128C112.103 114.128 99.0413 112.342 86.067 108.907C70.0226 104.66 55.3116 98.2483 43.5244 90.3662L43.8735 89.8442C55.6039 97.6881 70.2497 104.07 86.2277 108.3C100.667 112.123 115.214 113.894 128.292 113.426L128.315 114.054C126.933 114.104 125.536 114.128 124.123 114.128Z" fill="#F0F0F0"/>
<path d="M151.699 110.178L151.498 109.583C162.248 105.948 168.972 100.093 170.943 92.65C173.448 83.188 168.006 72.2079 155.619 61.7323C143.17 51.2036 125.217 42.4674 105.068 37.1333L105.229 36.526C125.466 41.8835 143.506 50.665 156.025 61.2528C168.607 71.8936 174.12 83.1011 171.55 92.8107C169.523 100.467 162.659 106.473 151.699 110.178Z" fill="#CFD6DC"/>
<path d="M52.9856 114.391C29.3668 103.915 11.1667 90.3251 1.73828 76.1229L2.26152 75.7754C11.6248 89.8793 29.7293 103.389 53.2402 113.816L52.9856 114.391Z" fill="#CFD6DC"/>
<path d="M136.027 132.538C133.591 132.538 131.113 132.484 128.594 132.375L128.621 131.747C147.422 132.561 164.011 130.311 176.597 125.24L176.832 125.822C165.853 130.246 151.859 132.538 136.027 132.538Z" fill="#CFD6DC"/>
<path d="M122.323 32.5449C118.419 31.2739 114.404 30.0905 110.389 29.0274C87.2816 22.9102 64.5671 20.7382 44.6999 22.7476L44.6367 22.1226C64.578 20.1066 87.3702 22.2837 110.549 28.4201C114.576 29.4863 118.603 30.673 122.518 31.9477L122.323 32.5449Z" fill="#CFD6DC"/>
<path d="M59.9227 79.1853C58.632 79.1868 57.3947 79.7001 56.482 80.6127C55.5694 81.5254 55.0561 82.7627 55.0546 84.0534C53.2038 97.6807 52.5857 111.447 53.2078 125.186C53.2448 126.063 53.2857 126.865 53.3332 127.639C53.4023 128.918 53.49 130.267 53.5938 131.651C53.6534 132.468 53.7163 133.286 53.7852 134.103C53.9005 135.432 54.0272 136.783 54.162 138.117C54.2466 138.932 54.3345 139.751 54.4285 140.567C54.609 142.17 54.8133 143.813 55.0533 145.589C55.0508 146.883 55.5625 148.125 56.4756 149.042C57.3888 149.959 58.6287 150.476 59.9227 150.479H141.58C142.871 150.477 144.108 149.964 145.021 149.051C145.933 148.138 146.447 146.901 146.448 145.61L146.452 145.577C146.816 143.92 147.154 142.231 147.459 140.557C147.622 139.675 147.762 138.873 147.889 138.107C148.118 136.712 148.322 135.362 148.494 134.095C148.612 133.243 148.719 132.419 148.811 131.644C148.963 130.375 149.101 129.064 149.231 127.634C149.303 126.858 149.369 126.055 149.432 125.182V125.181C150.431 111.411 149.427 97.5691 146.452 84.0871L146.448 84.0534C146.447 82.7627 145.933 81.5253 145.021 80.6127C144.108 79.7001 142.871 79.1867 141.58 79.1853L59.9227 79.1853Z" fill="#2D3A47"/>
<path d="M103.921 100.026C86.2278 100.026 67.4795 98.418 42.9421 95.2015H42.9395C41.6674 95.1998 40.4408 94.7286 39.4947 93.8782C38.5486 93.0279 37.9497 91.8583 37.8128 90.5936C37.7904 90.4034 37.7796 90.2121 37.7804 90.0207V75.2595C37.7798 75.228 37.7813 75.1964 37.7847 75.165C37.8123 73.8088 38.3695 72.5171 39.3371 71.5664C40.3047 70.6156 41.606 70.0812 42.9625 70.0774C85.6523 64.273 111.585 64.2736 158.558 70.0786H158.561C159.916 70.0875 161.215 70.6264 162.179 71.58C163.142 72.5336 163.695 73.8263 163.718 75.1819C163.721 75.2077 163.722 75.2336 163.721 75.2595V90.0207C163.722 90.2126 163.711 90.4045 163.689 90.5951C163.55 91.863 162.947 93.0349 161.997 93.8854C161.046 94.7359 159.815 95.2051 158.539 95.2028C138.244 98.4176 121.61 100.026 103.921 100.026Z" fill="#01B6FF"/>
<path d="M106.76 110.278H96.0247C94.6583 110.276 93.3484 109.733 92.3823 108.767C91.4161 107.801 90.8727 106.491 90.8711 105.124V66.1231C90.8727 64.7567 91.4161 63.4468 92.3823 62.4807C93.3484 61.5145 94.6583 60.971 96.0247 60.9695H106.76C108.126 60.971 109.436 61.5145 110.402 62.4806C111.369 63.4468 111.912 64.7567 111.914 66.1231V105.124C111.912 106.491 111.369 107.801 110.402 108.767C109.436 109.733 108.126 110.276 106.76 110.278Z" fill="#2D3A47"/>
<path d="M131.132 53.5065C131.054 52.7753 130.917 52.0516 130.723 51.3426C130.513 50.6321 130.247 49.9395 129.927 49.2711C128.782 46.8136 126.85 44.8079 124.438 43.5711C121.443 42.0971 118.018 41.9764 114.798 42.6867C112.092 43.2929 109.551 44.4827 107.352 46.173C106.212 47.0319 105.17 48.0143 104.246 49.1021C103.292 50.2467 101.518 53.3914 101.39 53.6825C100.386 51.4047 98.9467 49.3454 97.1521 47.6208C95.066 45.6407 92.5759 44.1358 89.8529 43.2095C88.4052 42.7218 86.9024 42.4163 85.3792 42.3002C83.7674 42.1662 82.1446 42.3078 80.5803 42.7189C77.7705 43.5058 75.3401 45.2824 73.7376 47.7208C72.2106 49.9872 71.4607 52.688 71.6005 55.4172C71.6778 56.7951 71.975 58.1518 72.4807 59.4359C72.7518 60.1311 73.0733 60.8054 73.4426 61.4537C73.8248 62.094 74.2521 62.7063 74.7213 63.2859C76.5625 65.5453 79.0425 67.1967 81.8371 68.0243C84.8208 68.9464 87.9857 68.9765 91.0537 68.5436C94.2044 68.099 97.237 67.0791 100.204 65.9622C100.6 65.8132 100.994 65.6598 101.389 65.508C104.027 66.5228 106.688 67.5016 109.449 68.1228C112.556 68.8731 115.78 69.0024 118.937 68.5033C121.879 68.0204 124.615 66.6841 126.804 64.6602C128.83 62.7536 130.248 60.2914 130.88 57.5822C131.192 56.2473 131.277 54.8695 131.132 53.5065ZM90.2344 65.5095C88.5316 65.7277 86.8085 65.7378 85.1032 65.5395C83.881 65.3624 82.6836 65.0437 81.535 64.5898C78.8279 63.4624 76.6698 61.3197 75.523 58.6207C75.1803 57.7698 74.9361 56.8824 74.7954 55.976C74.7053 55.1695 74.705 54.3555 74.7947 53.549C74.9283 52.7005 75.1572 51.8697 75.477 51.0725C75.8229 50.2971 76.2524 49.5618 76.7579 48.8796C77.2481 48.2692 77.802 47.7129 78.4102 47.22C78.9867 46.7935 79.6072 46.43 80.2611 46.1355C81.0415 45.8306 81.8533 45.6135 82.6817 45.4879C83.8038 45.3637 84.9366 45.3726 86.0566 45.5143C87.3893 45.7201 88.6937 46.0796 89.9436 46.5858C91.2731 47.1628 92.5295 47.8953 93.6866 48.768C94.7572 49.6162 95.7276 50.5837 96.579 51.6518C97.4221 52.773 98.129 53.9904 98.6851 55.2784C99.2255 56.6221 99.6051 58.025 99.816 59.4579L99.8184 59.4788C99.7361 60.1988 99.6949 60.9228 99.6951 61.6474C99.6956 61.9266 99.7078 62.2053 99.7219 62.484C99.5893 62.6117 99.4787 62.7605 99.3947 62.9244C97.207 63.7827 94.9645 64.4939 92.682 65.0532C91.873 65.24 91.0571 65.3921 90.2344 65.5095ZM127.99 55.9759C127.849 56.8825 127.605 57.77 127.262 58.6209C126.121 61.3237 123.961 63.4681 121.25 64.5898C120.102 65.0437 118.904 65.3624 117.682 65.5395C115.974 65.7381 114.248 65.7277 112.542 65.5084C109.512 65.0751 106.589 64.1187 103.73 63.0513C103.612 63.0074 103.495 62.961 103.378 62.9167C103.298 62.7553 103.192 62.6082 103.064 62.4811C103.115 61.4699 103.083 60.4562 102.971 59.45C103.182 58.0199 103.561 56.6196 104.1 55.2784C104.656 53.9905 105.363 52.7731 106.206 51.6519C107.058 50.5838 108.028 49.6163 109.099 48.768C110.256 47.8953 111.512 47.1628 112.842 46.5858C114.092 46.0796 115.396 45.7201 116.729 45.5143C117.849 45.3726 118.982 45.3637 120.104 45.4879C120.932 45.6135 121.744 45.8306 122.524 46.1355C123.178 46.43 123.799 46.7936 124.375 47.2201C124.984 47.713 125.537 48.2693 126.028 48.8797C126.533 49.5619 126.963 50.2972 127.308 51.0725C127.628 51.8697 127.857 52.7005 127.991 53.549C128.08 54.3555 128.08 55.1694 127.99 55.9759Z" fill="#2D3A47"/>
<path d="M68.7164 112.005C69.7572 112.005 70.6008 111.162 70.6008 110.121C70.6008 109.08 69.7572 108.237 68.7164 108.237C67.6757 108.237 66.832 109.08 66.832 110.121C66.832 111.162 67.6757 112.005 68.7164 112.005Z" fill="#01B6FF"/>
<path d="M82.2213 107.294C83.262 107.294 84.1057 106.451 84.1057 105.41C84.1057 104.369 83.262 103.526 82.2213 103.526C81.1806 103.526 80.3369 104.369 80.3369 105.41C80.3369 106.451 81.1806 107.294 82.2213 107.294Z" fill="#01B6FF"/>
<path d="M76.2535 122.055C77.2943 122.055 78.1379 121.212 78.1379 120.171C78.1379 119.13 77.2943 118.287 76.2535 118.287C75.2128 118.287 74.3691 119.13 74.3691 120.171C74.3691 121.212 75.2128 122.055 76.2535 122.055Z" fill="#01B6FF"/>
<path d="M132.158 112.005C133.199 112.005 134.042 111.162 134.042 110.121C134.042 109.08 133.199 108.237 132.158 108.237C131.117 108.237 130.273 109.08 130.273 110.121C130.273 111.162 131.117 112.005 132.158 112.005Z" fill="#01B6FF"/>
<path d="M118.653 107.294C119.694 107.294 120.537 106.451 120.537 105.41C120.537 104.369 119.694 103.526 118.653 103.526C117.612 103.526 116.769 104.369 116.769 105.41C116.769 106.451 117.612 107.294 118.653 107.294Z" fill="#01B6FF"/>
<path d="M124.621 122.055C125.661 122.055 126.505 121.212 126.505 120.171C126.505 119.13 125.661 118.287 124.621 118.287C123.58 118.287 122.736 119.13 122.736 120.171C122.736 121.212 123.58 122.055 124.621 122.055Z" fill="#01B6FF"/>
<path d="M133.728 144.982C134.769 144.982 135.613 144.139 135.613 143.098C135.613 142.057 134.769 141.214 133.728 141.214C132.687 141.214 131.844 142.057 131.844 143.098C131.844 144.139 132.687 144.982 133.728 144.982Z" fill="#01B6FF"/>
<path d="M138.439 131.478C139.48 131.478 140.323 130.634 140.323 129.593C140.323 128.552 139.48 127.709 138.439 127.709C137.398 127.709 136.555 128.552 136.555 129.593C136.555 130.634 137.398 131.478 138.439 131.478Z" fill="#01B6FF"/>
<path d="M123.678 137.445C124.719 137.445 125.563 136.601 125.563 135.56C125.563 134.52 124.719 133.676 123.678 133.676C122.638 133.676 121.794 134.52 121.794 135.56C121.794 136.601 122.638 137.445 123.678 137.445Z" fill="#01B6FF"/>
<path d="M79.7086 144.982C80.7493 144.982 81.593 144.139 81.593 143.098C81.593 142.057 80.7493 141.214 79.7086 141.214C78.6679 141.214 77.8242 142.057 77.8242 143.098C77.8242 144.139 78.6679 144.982 79.7086 144.982Z" fill="#01B6FF"/>
<path d="M84.4196 131.478C85.4603 131.478 86.304 130.634 86.304 129.593C86.304 128.552 85.4603 127.709 84.4196 127.709C83.3788 127.709 82.5352 128.552 82.5352 129.593C82.5352 130.634 83.3788 131.478 84.4196 131.478Z" fill="#01B6FF"/>
<path d="M69.6588 137.445C70.6995 137.445 71.5432 136.601 71.5432 135.56C71.5432 134.52 70.6995 133.676 69.6588 133.676C68.6181 133.676 67.7744 134.52 67.7744 135.56C67.7744 136.601 68.6181 137.445 69.6588 137.445Z" fill="#01B6FF"/>
<path d="M123.801 11.8933C124.515 12.1911 125.293 12.3002 126.061 12.21C126.829 12.1198 127.561 11.8333 128.186 11.3782C129.78 10.1896 130.377 8.11486 130.877 6.19117L132.356 0.5L129.859 2.01577C128.063 3.10562 126.227 4.23157 124.931 5.88614C123.635 7.54071 122.979 9.85932 123.833 11.7793" fill="#349AFF"/>
<path d="M57.0288 60.5072C57.5107 59.9025 57.8288 59.1839 57.9523 58.4206C58.0759 57.6573 58.0008 56.8751 57.7343 56.1492C57.0276 54.291 55.1959 53.1482 53.4828 52.1401L48.4141 49.1597L49.1881 51.9759C49.7445 54.0013 50.3244 56.0761 51.5607 57.7757C52.797 59.4753 54.8474 60.741 56.928 60.4454" fill="#349AFF"/>
<path d="M176.06 148.132C176.542 147.527 176.86 146.809 176.984 146.045C177.107 145.282 177.032 144.5 176.766 143.774C176.059 141.916 174.227 140.773 172.514 139.765L167.445 136.784L168.219 139.601C168.776 141.626 169.356 143.701 170.592 145.4C171.828 147.1 173.879 148.366 175.959 148.07" fill="#349AFF"/>
<path d="M80.3368 36.9433C81.7244 36.9433 82.8493 35.8184 82.8493 34.4308C82.8493 33.0431 81.7244 31.9182 80.3368 31.9182C78.9491 31.9182 77.8242 33.0431 77.8242 34.4308C77.8242 35.8184 78.9491 36.9433 80.3368 36.9433Z" fill="#FD6584"/>
<path d="M13.4403 111.063C14.8279 111.063 15.9528 109.938 15.9528 108.551C15.9528 107.163 14.8279 106.038 13.4403 106.038C12.0526 106.038 10.9277 107.163 10.9277 108.551C10.9277 109.938 12.0526 111.063 13.4403 111.063Z" fill="#FD6584"/>
<path d="M186.178 90.6488C187.565 90.6488 188.69 89.5239 188.69 88.1363C188.69 86.7487 187.565 85.6238 186.178 85.6238C184.79 85.6238 183.665 86.7487 183.665 88.1363C183.665 89.5239 184.79 90.6488 186.178 90.6488Z" fill="#FD6584"/>
<path d="M10.9286 47.9357C12.3162 47.9357 13.4411 46.8108 13.4411 45.4232C13.4411 44.0355 12.3162 42.9106 10.9286 42.9106C9.54092 42.9106 8.41602 44.0355 8.41602 45.4232C8.41602 46.8108 9.54092 47.9357 10.9286 47.9357Z" fill="#28A826"/>
<path d="M166.391 119.543C167.779 119.543 168.904 118.418 168.904 117.03C168.904 115.643 167.779 114.518 166.391 114.518C165.004 114.518 163.879 115.643 163.879 117.03C163.879 118.418 165.004 119.543 166.391 119.543Z" fill="#28A826"/>
<path d="M171.416 43.2247C172.803 43.2247 173.928 42.0998 173.928 40.7121C173.928 39.3245 172.803 38.1996 171.416 38.1996C170.028 38.1996 168.903 39.3245 168.903 40.7121C168.903 42.0998 170.028 43.2247 171.416 43.2247Z" fill="#E6E6E6"/>
<path d="M61.2506 83.1854C61.0334 83.529 60.5068 83.4791 60.2111 83.2643C59.8006 82.9661 59.9335 82.3918 60.2162 82.0525C61.1146 80.9739 62.6005 82.1126 62.8009 83.1837C62.8755 83.706 62.795 84.2386 62.5697 84.7156C62.3443 85.1925 61.9838 85.5929 61.533 85.8669C60.508 86.4743 59.1765 86.1697 58.2952 85.4427C56.4567 83.9261 56.9573 80.8897 58.9994 79.7925C60.3026 79.0923 61.9501 79.3996 63.234 79.9862C64.6791 80.6464 65.9218 81.6584 67.2582 82.502C70.1905 84.3375 73.5076 85.4702 76.9502 85.8115C77.5528 85.8729 77.5485 84.9303 76.9502 84.8693C75.0424 84.6721 73.1696 84.2211 71.3812 83.5283C69.6117 82.8111 67.9323 81.8893 66.3771 80.7817C64.8035 79.7031 63.1596 78.6554 61.2122 78.4771C60.4264 78.3854 59.6302 78.5033 58.9048 78.819C58.1793 79.1347 57.5503 79.6368 57.0818 80.2744C56.6651 80.8449 56.3862 81.5042 56.2669 82.2005C56.1476 82.8969 56.1911 83.6114 56.3942 84.2881C56.6389 84.9957 57.0667 85.6259 57.6341 86.1144C58.2015 86.6029 58.8883 86.9324 59.6244 87.0692C60.333 87.2031 61.0658 87.1125 61.7205 86.81C62.3751 86.5076 62.9191 86.0083 63.2765 85.3819C63.9932 84.1423 63.9699 82.4771 62.8873 81.4493C62.577 81.1339 62.1885 80.9065 61.7615 80.7904C61.3345 80.6742 60.8844 80.6736 60.4571 80.7884C60.0633 80.9214 59.7169 81.1662 59.4601 81.493C59.2034 81.8198 59.0474 82.2143 59.0114 82.6283C58.9069 84.2374 61.1911 85.0421 62.0642 83.661C62.3891 83.147 61.5741 82.6737 61.2506 83.1854Z" fill="#3F3D56"/>
<path d="M141.823 83.1853C142.04 83.5289 142.567 83.479 142.862 83.2642C143.273 82.966 143.14 82.3917 142.857 82.0523C141.959 80.9738 140.473 82.1125 140.272 83.1836C140.198 83.7058 140.278 84.2385 140.504 84.7154C140.729 85.1924 141.09 85.5927 141.54 85.8668C142.565 86.4742 143.897 86.1696 144.778 85.4426C146.617 83.926 146.116 80.8896 144.074 79.7924C142.771 79.0922 141.123 79.3995 139.839 79.9861C138.394 80.6463 137.152 81.6583 135.815 82.5019C132.883 84.3374 129.566 85.4701 126.123 85.8113C125.521 85.8728 125.525 84.9302 126.123 84.8691C128.031 84.6719 129.904 84.221 131.692 83.5282C133.462 82.811 135.141 81.8892 136.696 80.7816C138.27 79.703 139.914 78.6553 141.861 78.477C142.647 78.3852 143.443 78.5032 144.169 78.8189C144.894 79.1345 145.523 79.6367 145.992 80.2743C146.408 80.8448 146.687 81.504 146.807 82.2004C146.926 82.8968 146.882 83.6113 146.679 84.288C146.435 84.9956 146.007 85.6257 145.439 86.1143C144.872 86.6028 144.185 86.9322 143.449 87.0691C142.74 87.203 142.008 87.1124 141.353 86.8099C140.698 86.5074 140.154 86.0082 139.797 85.3818C139.08 84.1421 139.104 82.477 140.186 81.4492C140.496 81.1338 140.885 80.9064 141.312 80.7902C141.739 80.6741 142.189 80.6734 142.616 80.7882C143.01 80.9213 143.357 81.1661 143.613 81.4929C143.87 81.8197 144.026 82.2142 144.062 82.6282C144.167 84.2373 141.882 85.042 141.009 83.6609C140.684 83.1469 141.499 82.6736 141.823 83.1853Z" fill="#3F3D56"/>
<path d="M28.4614 11.9204L27.2168 13.4818L22.8154 10.8782L24.0597 9.31677L28.4614 11.9204Z" fill="#EBC91A"/>
<path d="M33.0545 18.6289L34.1536 20.2693L29.5298 22.5692L28.4307 20.9291L33.0545 18.6289Z" fill="#EBC91A"/>
<path d="M37.841 11.4976L40.0375 11.5754L39.8189 16.1713L37.6221 16.0938L37.841 11.4976Z" fill="#EBC91A"/>
<path d="M183.925 108.025L182.681 109.586L178.279 106.983L179.524 105.421L183.925 108.025Z" fill="#EBC91A"/>
<path d="M188.517 114.733L189.617 116.374L184.993 118.674L183.894 117.033L188.517 114.733Z" fill="#EBC91A"/>
<path d="M193.304 107.602L195.5 107.68L195.282 112.276L193.085 112.198L193.304 107.602Z" fill="#EBC91A"/>
</g>
<defs>
<clipPath id="clip0_4729_13459">
<rect width="195.001" height="150" fill="white" transform="translate(0.499023 0.5)"/>
</clipPath>
</defs>
</svg>
