<svg width="415" height="269" viewBox="0 0 415 269" fill="none" xmlns="http://www.w3.org/2000/svg">
<g clip-path="url(#clip0_2_36899)">
<path d="M378.524 268.205L366.671 232.445C366.671 232.445 379.708 245.479 379.708 256.173L377.368 231.442C377.368 231.442 384.054 240.466 383.385 254.168C382.717 267.871 378.524 268.205 378.524 268.205Z" fill="#E6E6E6"/>
<path d="M123.986 235.643L112.418 200.743C112.418 200.743 125.142 213.464 125.142 223.901L122.858 199.765C122.858 199.765 129.383 208.571 128.731 221.944C128.078 235.317 123.986 235.643 123.986 235.643Z" fill="#E6E6E6"/>
<path d="M304.539 251.748C304.559 274.706 259.013 267.645 203.254 267.693C147.494 267.741 102.637 274.881 102.617 251.923C102.597 228.965 148.127 223.932 203.886 223.884C259.645 223.836 304.52 228.79 304.539 251.748Z" fill="#E6E6E6"/>
<path d="M415 267.68H0V268.73H415V267.68Z" fill="#3F3D56"/>
<path d="M265.461 220.744H258.172L254.702 192.634H265.461V220.744Z" fill="#A0616A"/>
<path d="M252.155 218.661H267.024V227.511H244.113V226.701C244.113 224.569 244.96 222.524 246.468 221.016C247.976 219.508 250.022 218.661 252.155 218.661Z" fill="#2F2E41"/>
<path d="M319.044 262.232H311.754L308.285 234.122H319.044V262.232Z" fill="#A0616A"/>
<path d="M305.737 260.15H320.606V269H297.695V268.19C297.695 266.058 298.542 264.013 300.051 262.505C301.559 260.997 303.604 260.15 305.737 260.15Z" fill="#2F2E41"/>
<path d="M352.668 178.723C353.172 178.111 353.536 177.397 353.734 176.63C353.933 175.864 353.96 175.063 353.815 174.284C353.67 173.505 353.356 172.768 352.895 172.124C352.434 171.48 351.837 170.944 351.147 170.555L334.216 101.604L323.391 106.26L343.529 172.931C342.953 174.133 342.837 175.505 343.205 176.787C343.573 178.069 344.399 179.171 345.525 179.885C346.652 180.599 348.001 180.875 349.318 180.661C350.634 180.446 351.827 179.757 352.668 178.723Z" fill="#A0616A"/>
<path d="M339.463 39.3691C338.859 38.7376 338.124 38.2462 337.309 37.9296C336.494 37.613 335.62 37.4788 334.748 37.5365C333.876 37.5942 333.027 37.8424 332.261 38.2636C331.495 38.6848 330.831 39.2687 330.315 39.9743L304.109 42.9821L308.096 53.0872L331.928 48.628C333.171 49.4156 334.66 49.72 336.113 49.4834C337.565 49.2469 338.881 48.4859 339.809 47.3446C340.738 46.2033 341.216 44.761 341.152 43.2911C341.088 41.8212 340.488 40.4257 339.463 39.3691Z" fill="#A0616A"/>
<path d="M296.278 171.572L307.714 257.372L321.946 254.443C321.946 254.443 319.853 191.957 326.969 184.424C334.086 176.891 317.816 163.694 317.816 163.694L296.278 171.572Z" fill="#2F2E41"/>
<path d="M301.006 147.938L295.753 155.816C295.753 155.816 255.304 139.011 255.304 165.794C255.304 192.578 252.989 210.755 252.152 212.01C251.315 213.266 261.837 216.523 266.861 215.686C266.861 215.686 273.058 172.507 272.639 169.996C272.639 169.996 312.318 189.445 319.853 187.771C327.388 186.097 329.168 180.171 330.424 176.823C331.68 173.475 329.899 146.888 329.899 146.888L304.783 139.226L301.006 147.938Z" fill="#2F2E41"/>
<path d="M301.715 100.641L300.218 98.8444C300.218 98.8444 283.448 61.1219 290.036 50.9428C296.624 40.7638 325.373 39.2668 326.271 39.8656C327.17 40.4644 324.125 48.2384 326.222 51.831C326.222 51.831 303.951 56.658 302.454 57.2568C300.957 57.8556 313.993 79.9832 313.993 79.9832L312.496 93.4555L301.715 100.641Z" fill="#CCCCCC"/>
<path d="M331.063 82.0791C331.063 82.0791 315.49 83.8754 314.891 83.8754C314.293 83.8754 313.993 79.9834 313.993 79.9834L300.218 98.8446C300.218 98.8446 293.431 153.563 295.228 152.665C297.025 151.767 330.164 156.925 330.464 154.53C330.763 152.135 330.164 140.16 331.063 139.561C331.961 138.962 346.635 101.838 346.635 101.838C346.635 101.838 345.137 94.0545 340.046 91.36C334.956 88.6655 331.063 82.0791 331.063 82.0791Z" fill="#CCCCCC"/>
<path d="M341.843 96.749L346.635 101.839C346.635 101.839 353.754 160.322 349.861 162.118C345.968 163.915 338.304 163.694 338.304 163.694L330.763 135.968L341.843 96.749Z" fill="#CCCCCC"/>
<path d="M316.099 78.3755C323.711 78.3755 329.882 72.2059 329.882 64.5954C329.882 56.985 323.711 50.8154 316.099 50.8154C308.486 50.8154 302.315 56.985 302.315 64.5954C302.315 72.2059 308.486 78.3755 316.099 78.3755Z" fill="#A0616A"/>
<path d="M312.864 66.7456C312.678 63.8863 309.07 63.7883 306.204 63.7612C303.338 63.7341 299.911 63.8364 298.29 61.4738C297.218 59.9125 297.423 57.7449 298.308 56.0709C299.193 54.3969 300.65 53.1095 302.082 51.8709C305.781 48.6731 309.594 45.5008 314.035 43.454C318.476 41.4073 323.68 40.5803 328.285 42.2233C333.943 44.2416 341.591 54.6311 342.252 60.6002C342.912 66.5693 340.526 72.6543 336.504 77.1148C332.481 81.5753 323.275 79.7756 317.482 81.3625C321.004 76.3787 318.682 67.3231 313.04 64.9958L312.864 66.7456Z" fill="#2F2E41"/>
<path d="M190.018 244.992C208.293 244.992 223.108 230.182 223.108 211.912C223.108 193.642 208.293 178.831 190.018 178.831C171.744 178.831 156.929 193.642 156.929 211.912C156.929 230.182 171.744 244.992 190.018 244.992Z" fill="#F57B20"/>
<path d="M167.921 176.481C163.335 176.481 158.847 175.152 155.001 172.656C151.154 170.159 148.114 166.601 146.249 162.413L93.742 44.2001C92.0027 40.2843 91.0829 36.0542 91.0389 31.7699C90.995 27.4856 91.828 23.2376 93.4867 19.287C95.1453 15.3363 97.5946 11.7666 100.684 8.79708C103.773 5.8276 107.438 3.52115 111.451 2.01949C115.465 0.517827 119.744 -0.147314 124.024 0.0649551C128.305 0.277224 132.496 1.36242 136.342 3.25383C140.187 5.14524 143.605 7.80291 146.386 11.0635C149.166 14.324 151.25 18.1186 152.509 22.214L190.53 145.847C191.619 149.386 191.862 153.131 191.24 156.78C190.619 160.43 189.149 163.883 186.951 166.862C184.752 169.842 181.885 172.264 178.58 173.934C175.275 175.604 171.624 176.477 167.921 176.481H167.921Z" fill="#F57B20"/>
</g>
<defs>
<clipPath id="clip0_2_36899">
<rect width="415" height="269" fill="white"/>
</clipPath>
</defs>
</svg>
