<svg width="259" height="271" viewBox="0 0 259 271" fill="none" xmlns="http://www.w3.org/2000/svg">
<g clip-path="url(#clip0_6649_16858)">
<path d="M100.19 271C155.523 271 200.38 263.076 200.38 253.301C200.38 243.527 155.523 235.603 100.19 235.603C44.8566 235.603 0 243.527 0 253.301C0 263.076 44.8566 271 100.19 271Z" fill="#3F3D56"/>
<path d="M161.083 195.821C215.16 195.821 258.999 151.985 258.999 97.9107C258.999 43.8361 215.16 0 161.083 0C107.005 0 63.166 43.8361 63.166 97.9107C63.166 151.985 107.005 195.821 161.083 195.821Z" fill="#3F3D56"/>
<path opacity="0.05" d="M161.083 178.739C205.726 178.739 241.917 142.551 241.917 97.9107C241.917 53.2704 205.726 17.0823 161.083 17.0823C116.44 17.0823 80.25 53.2704 80.25 97.9107C80.25 142.551 116.44 178.739 161.083 178.739Z" fill="black"/>
<path opacity="0.05" d="M161.084 164.157C197.673 164.157 227.334 134.497 227.334 97.9108C227.334 61.3241 197.673 31.6648 161.084 31.6648C124.495 31.6648 94.834 61.3241 94.834 97.9108C94.834 134.497 124.495 164.157 161.084 164.157Z" fill="black"/>
<path opacity="0.05" d="M161.084 145.408C187.317 145.408 208.584 124.143 208.584 97.9107C208.584 71.6788 187.317 50.4136 161.084 50.4136C134.85 50.4136 113.584 71.6788 113.584 97.9107C113.584 124.143 134.85 145.408 161.084 145.408Z" fill="black"/>
<path d="M64.0342 106.673C64.0342 106.673 56.336 128.341 59.7574 136.039C63.1788 143.736 68.5961 151.149 68.5961 151.149C68.5961 151.149 66.6003 108.099 64.0342 106.673Z" fill="#D0CDE1"/>
<path opacity="0.1" d="M64.0342 106.673C64.0342 106.673 56.336 128.341 59.7574 136.039C63.1788 143.736 68.5961 151.149 68.5961 151.149C68.5961 151.149 66.6003 108.099 64.0342 106.673Z" fill="black"/>
<path d="M69.451 156.851C69.451 156.851 68.8808 162.268 68.5957 162.553C68.3105 162.838 68.8808 163.408 68.5957 164.264C68.3105 165.119 68.0254 166.259 68.5957 166.544C69.1659 166.829 65.4593 191.918 65.4593 191.918C65.4593 191.918 56.3356 203.893 60.0421 222.709L61.1826 241.811C61.1826 241.811 70.0213 242.381 70.0213 239.245C70.0213 239.245 69.451 235.539 69.451 233.828C69.451 232.118 70.8766 232.118 70.0213 231.262C69.1659 230.407 69.1659 229.837 69.1659 229.837C69.1659 229.837 70.5915 228.697 70.3064 228.411C70.0213 228.126 72.8724 207.884 72.8724 207.884C72.8724 207.884 76.0087 204.748 76.0087 203.037V201.327C76.0087 201.327 77.4343 197.62 77.4343 197.335C77.4343 197.05 85.1325 179.659 85.1325 179.659L88.2689 192.204L91.6903 210.165C91.6903 210.165 93.401 226.416 96.8224 232.688C96.8224 232.688 102.81 253.215 102.81 252.645C102.81 252.075 112.789 250.649 112.504 248.083C112.219 245.518 106.516 209.595 106.516 209.595L107.942 156.281L69.451 156.851Z" fill="#2F2E41"/>
<path d="M61.7521 240.386C61.7521 240.386 54.0539 255.496 59.186 256.066C64.3182 256.637 66.314 256.637 68.595 254.356C69.842 253.109 72.3672 251.436 74.4004 250.175C75.6051 249.441 76.5782 248.381 77.2083 247.119C77.8384 245.856 78.0998 244.441 77.9627 243.037C77.8123 241.642 77.2911 240.493 76.0081 240.386C72.5866 240.101 68.595 236.965 68.595 236.965L61.7521 240.386Z" fill="#2F2E41"/>
<path d="M104.236 251.505C104.236 251.505 96.5383 266.615 101.67 267.185C106.803 267.756 108.798 267.756 111.079 265.475C112.326 264.228 114.852 262.555 116.885 261.294C118.089 260.559 119.063 259.5 119.693 258.237C120.323 256.975 120.584 255.56 120.447 254.156C120.297 252.761 119.775 251.612 118.492 251.505C115.071 251.22 111.079 248.083 111.079 248.083L104.236 251.505Z" fill="#2F2E41"/>
<path d="M96.0986 81.9453C102.718 81.9453 108.084 76.5796 108.084 69.9607C108.084 63.3418 102.718 57.9761 96.0986 57.9761C89.4793 57.9761 84.1133 63.3418 84.1133 69.9607C84.1133 76.5796 89.4793 81.9453 96.0986 81.9453Z" fill="#FFB8B8"/>
<path d="M88.394 73.8984C88.394 73.8984 79.8331 89.6496 79.1482 89.6496C78.4633 89.6496 94.5579 94.7859 94.5579 94.7859C94.5579 94.7859 99.0096 79.7195 99.6945 78.3499L88.394 73.8984Z" fill="#FFB8B8"/>
<path d="M101.528 91.135C101.528 91.135 84.4204 81.7266 82.7097 82.0117C80.999 82.2968 62.7514 98.2625 63.0365 104.82C63.3216 111.377 65.6026 122.211 65.6026 122.211C65.6026 122.211 66.4579 152.432 68.1686 152.717C69.8794 153.002 67.8835 158.134 68.4538 158.134C69.024 158.134 108.37 158.134 108.655 157.279C108.941 156.423 101.528 91.135 101.528 91.135Z" fill="#D0CDE1"/>
<path d="M111.079 158.847C111.079 158.847 116.497 175.383 111.935 174.812C107.373 174.242 105.377 160.557 105.377 160.557L111.079 158.847Z" fill="#FFB8B8"/>
<path d="M96.538 90.1371C96.538 90.1371 85.9886 92.4179 87.6994 106.673C89.4101 120.928 92.5464 135.183 92.5464 135.183L103.096 158.276L104.236 162.553L111.934 160.557L106.232 127.485C106.232 127.485 104.236 92.1328 101.67 90.9924C100.052 90.3026 98.2925 90.0093 96.538 90.1371Z" fill="#D0CDE1"/>
<path opacity="0.1" d="M90.123 134.756L103.239 158.134L92.1885 133.5L90.123 134.756Z" fill="black"/>
<path d="M108.033 66.4319L108.072 65.5161L109.894 65.9696C109.875 65.6755 109.792 65.3893 109.651 65.1305C109.51 64.8718 109.314 64.6467 109.078 64.4708L111.019 64.3623C109.39 62.0483 107.309 60.0883 104.902 58.6007C102.495 57.1132 99.8115 56.1289 97.0133 55.7074C92.8154 55.099 88.1412 55.9794 85.2626 59.0946C83.8664 60.6057 82.9891 62.5273 82.365 64.4876C81.2156 68.0982 80.9814 72.4023 83.3781 75.3372C85.8141 78.32 90.0689 78.9043 93.9024 79.2735C95.2513 79.4034 96.6648 79.5242 97.9148 79.0009C98.0539 77.5673 97.8704 76.1207 97.3776 74.7672C97.1725 74.3483 97.0744 73.8849 97.0922 73.4187C97.2626 72.2784 98.7839 71.9911 99.9267 72.1451C101.069 72.2992 102.444 72.5349 103.194 71.6599C103.712 71.0571 103.681 70.1793 103.75 69.388C103.936 67.2338 108.013 66.8835 108.033 66.4319Z" fill="#2F2E41"/>
<path d="M181.543 255.737C189.256 255.737 195.508 249.485 195.508 241.773C195.508 234.061 189.256 227.809 181.543 227.809C173.83 227.809 167.578 234.061 167.578 241.773C167.578 249.485 173.83 255.737 181.543 255.737Z" fill="#F57B20"/>
<path d="M17.5372 250.866C25.2498 250.866 31.502 244.614 31.502 236.902C31.502 229.19 25.2498 222.938 17.5372 222.938C9.82456 222.938 3.57227 229.19 3.57227 236.902C3.57227 244.614 9.82456 250.866 17.5372 250.866Z" fill="#F57B20"/>
<path d="M17.5365 228.458C23.0967 228.458 27.6042 223.951 27.6042 218.391C27.6042 212.831 23.0967 208.324 17.5365 208.324C11.9762 208.324 7.46875 212.831 7.46875 218.391C7.46875 223.951 11.9762 228.458 17.5365 228.458Z" fill="#F57B20"/>
<path d="M17.5374 209.948C21.4834 209.948 24.6822 206.749 24.6822 202.804C24.6822 198.858 21.4834 195.659 17.5374 195.659C13.5914 195.659 10.3926 198.858 10.3926 202.804C10.3926 206.749 13.5914 209.948 17.5374 209.948Z" fill="#F57B20"/>
</g>
<defs>
<clipPath id="clip0_6649_16858">
<rect width="259" height="271" fill="white"/>
</clipPath>
</defs>
</svg>
