<svg width="2443" height="514" viewBox="0 0 2443 514" fill="none" xmlns="http://www.w3.org/2000/svg">
<g clip-path="url(#clip0_4549_4756)">
<rect width="2443" height="514" fill="#F8FCFF"/>
<g clip-path="url(#clip1_4549_4756)">
<rect width="2443" height="848" fill="#F8FCFF"/>
<g opacity="0.75" filter="url(#filter0_f_4549_4756)">
<ellipse cx="2070" cy="698.5" rx="993" ry="632.5" fill="url(#paint0_radial_4549_4756)"/>
</g>
<g opacity="0.75" filter="url(#filter1_f_4549_4756)">
<ellipse cx="1203.5" cy="757" rx="1112.5" ry="569" fill="url(#paint1_radial_4549_4756)"/>
</g>
<g opacity="0.75" filter="url(#filter2_f_4549_4756)">
<ellipse cx="2954.5" cy="687" rx="1112.5" ry="569" fill="url(#paint2_radial_4549_4756)"/>
</g>
<g opacity="0.75" filter="url(#filter3_f_4549_4756)">
<ellipse cx="153" cy="768.5" rx="993" ry="632.5" fill="url(#paint3_radial_4549_4756)"/>
</g>
<g opacity="0.25">
<path d="M-2812.39 2141.87C-3638.26 1042.04 -1495.23 -69.3155 -693.304 -964.836C108.618 -1860.36 264.197 -2055.54 1036.83 -2156.62C1809.46 -2257.71 2481.52 -2017.7 3015.33 -1450.05C3549.15 -882.401 3545.89 -632.821 3599.12 568.096C3652.35 1769.01 4606.58 3986.48 3270.85 4314.35" stroke="#F8FCFF" stroke-width="4"/>
<path d="M-2727.16 2111.76C-3533.36 1038.12 -1441.36 -46.779 -658.527 -920.977C124.301 -1795.18 276.176 -1985.71 1030.41 -2084.39C1784.65 -2183.07 2440.71 -1948.77 2961.81 -1394.64C3482.91 -840.506 3479.73 -596.868 3531.7 575.456C3583.66 1747.78 4515.17 3912.45 3211.24 4232.51" stroke="#F8FCFF" stroke-width="4"/>
<path d="M-2641.94 2081.65C-3428.47 1034.2 -1387.49 -24.2404 -623.754 -877.117C139.981 -1729.99 288.152 -1915.88 1023.99 -2012.15C1759.83 -2108.43 2399.89 -1879.85 2908.28 -1339.23C3416.67 -798.608 3413.57 -560.912 3464.27 582.818C3514.97 1726.55 4423.76 3838.42 3151.63 4150.68" stroke="#F8FCFF" stroke-width="4"/>
<path d="M-2556.7 2051.54C-3323.58 1030.27 -1333.62 -1.70379 -588.978 -833.258C155.664 -1664.81 300.131 -1846.05 1017.58 -1939.92C1735.02 -2033.78 2359.08 -1810.92 2854.76 -1283.82C3350.44 -756.712 3347.42 -524.959 3396.85 590.178C3446.28 1705.31 4332.35 3764.39 3092.02 4068.84" stroke="#F8FCFF" stroke-width="4"/>
<path d="M-2471.48 2021.43C-3218.69 1026.35 -1279.75 20.8327 -554.205 -789.4C171.343 -1599.63 312.106 -1776.22 1011.15 -1867.68C1710.2 -1959.14 2318.26 -1741.99 2801.23 -1228.4C3284.2 -714.816 3281.26 -489.006 3329.42 597.538C3377.58 1684.08 4240.93 3690.36 3032.41 3987.01" stroke="#F8FCFF" stroke-width="4"/>
<path d="M-2386.25 1991.32C-3113.79 1022.42 -1225.88 43.3696 -519.428 -745.541C187.027 -1534.45 324.085 -1706.4 1004.74 -1795.45C1685.39 -1884.5 2277.44 -1673.07 2747.71 -1172.99C3217.97 -672.92 3215.1 -453.052 3262 604.898C3308.89 1662.85 4149.52 3616.33 2972.8 3905.17" stroke="#F8FCFF" stroke-width="4"/>
<path d="M-2301.02 1961.21C-3008.9 1018.5 -1172.02 65.908 -484.655 -701.681C202.706 -1469.27 336.06 -1636.57 998.317 -1723.21C1660.57 -1809.86 2236.63 -1604.14 2694.18 -1117.58C3151.73 -631.023 3148.94 -417.097 3194.57 612.26C3240.2 1641.62 4058.1 3542.3 2913.19 3823.34" stroke="#F8FCFF" stroke-width="4"/>
<path d="M-2215.79 1931.1C-2904.01 1014.58 -1118.15 88.4448 -449.878 -657.822C218.39 -1404.09 348.04 -1566.74 991.9 -1650.98C1635.76 -1735.22 2195.81 -1535.21 2640.65 -1062.17C3085.5 -589.127 3082.78 -381.143 3127.14 619.621C3171.5 1620.38 3966.69 3468.27 2853.58 3741.5" stroke="#F8FCFF" stroke-width="4"/>
<path d="M-2130.56 1900.99C-2799.12 1010.65 -1064.28 110.981 -415.106 -613.964C234.069 -1338.91 360.015 -1496.91 985.48 -1578.74C1610.94 -1660.58 2154.99 -1466.28 2587.13 -1006.76C3019.26 -547.231 3016.62 -345.19 3059.72 626.981C3102.81 1599.15 3875.28 3394.24 2793.97 3659.66" stroke="#F8FCFF" stroke-width="4"/>
<path d="M-2045.33 1870.88C-2694.22 1006.73 -1010.41 133.52 -380.329 -570.103C249.753 -1273.73 371.994 -1427.08 979.062 -1506.51C1586.13 -1585.93 2114.18 -1397.35 2533.6 -951.344C2953.02 -505.333 2950.47 -309.235 2992.29 634.343C3034.12 1577.92 3783.87 3320.22 2734.36 3577.83" stroke="#F8FCFF" stroke-width="4"/>
<path d="M-1960.1 1840.77C-2589.33 1002.81 -956.544 156.057 -345.556 -526.245C265.432 -1208.55 383.969 -1357.26 972.642 -1434.27C1561.31 -1511.29 2073.36 -1328.43 2480.07 -895.932C2886.79 -463.437 2884.31 -273.281 2924.86 641.703C2965.42 1556.69 3692.45 3246.19 2674.75 3495.99" stroke="#F8FCFF" stroke-width="4"/>
<path d="M-1874.87 1810.66C-2484.44 998.882 -902.674 178.593 -310.779 -482.386C281.116 -1143.37 395.948 -1287.43 966.225 -1362.04C1536.5 -1436.65 2032.55 -1259.5 2426.55 -840.521C2820.55 -421.542 2818.15 -237.328 2857.44 649.063C2896.73 1535.45 3601.04 3172.16 2615.14 3414.16" stroke="#F8FCFF" stroke-width="4"/>
<path d="M-1789.64 1780.55C-2379.54 994.957 -848.804 201.13 -276.002 -438.528C296.799 -1078.19 407.927 -1217.6 959.808 -1289.8C1511.69 -1362.01 1991.73 -1190.57 2373.03 -785.11C2754.32 -379.646 2751.99 -201.374 2790.02 656.423C2828.04 1514.22 3509.63 3098.13 2555.54 3332.32" stroke="#F8FCFF" stroke-width="4"/>
<path d="M-1704.41 1750.44C-2274.65 991.035 -794.937 223.668 -241.23 -394.667C312.478 -1013 419.902 -1147.77 953.387 -1217.57C1486.87 -1287.37 1950.91 -1121.65 2319.5 -729.697C2688.08 -337.748 2685.83 -165.419 2722.59 663.786C2759.34 1492.99 3418.22 3024.1 2495.92 3250.48" stroke="#F8FCFF" stroke-width="4"/>
<path d="M-1619.18 1720.33C-2169.76 987.111 -741.067 246.205 -206.453 -350.809C328.162 -947.822 431.882 -1077.94 946.97 -1145.33C1462.06 -1212.72 1910.1 -1052.72 2265.97 -674.285C2621.85 -295.852 2619.68 -129.466 2655.16 671.146C2690.65 1471.76 3326.8 2950.07 2436.32 3168.65" stroke="#F8FCFF" stroke-width="4"/>
<path d="M-1533.95 1690.22C-2064.87 983.187 -687.201 268.742 -171.68 -306.95C343.841 -882.642 443.857 -1008.12 940.549 -1073.1C1437.24 -1138.08 1869.28 -983.792 2212.45 -618.874C2555.61 -253.956 2553.52 -93.5121 2587.74 678.506C2621.96 1450.52 3235.39 2876.04 2376.7 3086.81" stroke="#F8FCFF" stroke-width="4"/>
<path d="M-1448.72 1660.11C-1959.97 979.264 -633.331 291.28 -136.903 -263.09C359.525 -817.459 455.836 -938.286 934.133 -1000.86C1412.43 -1063.44 1828.47 -914.863 2158.92 -563.461C2489.38 -212.059 2487.36 -57.5568 2520.31 685.868C2553.27 1429.29 3143.98 2802.01 2317.1 3004.98" stroke="#F8FCFF" stroke-width="4"/>
<path d="M-1363.49 1630C-1855.08 975.34 -579.465 313.817 -102.13 -219.231C375.204 -752.279 467.811 -868.458 927.712 -928.629C1387.61 -988.799 1787.65 -845.937 2105.39 -508.05C2423.14 -170.163 2421.2 -21.6033 2452.89 693.228C2484.57 1408.06 3052.56 2727.98 2257.49 2923.14" stroke="#F8FCFF" stroke-width="4"/>
<path d="M-1278.26 1599.89C-1750.18 971.416 -525.595 336.353 -67.3537 -175.372C390.887 -687.098 479.79 -798.63 921.295 -856.394C1362.8 -914.158 1746.83 -777.01 2051.87 -452.638C2356.9 -128.267 2355.04 14.3501 2385.46 700.588C2415.88 1386.83 2961.15 2653.95 2197.88 2841.31" stroke="#F8FCFF" stroke-width="4"/>
<path d="M-1193.03 1569.78C-1645.29 967.491 -471.728 358.89 -32.5806 -131.514C406.567 -621.918 491.765 -728.803 914.874 -784.16C1337.98 -839.517 1706.02 -708.083 1998.34 -397.227C2290.67 -86.3713 2288.88 50.3035 2318.03 707.948C2347.18 1365.59 2869.74 2579.92 2138.27 2759.47" stroke="#F8FCFF" stroke-width="4"/>
<path d="M-1107.8 1539.67C-1540.4 963.569 -417.858 381.429 2.19632 -87.6534C422.251 -556.735 503.745 -658.973 908.457 -711.923C1313.17 -764.873 1665.2 -639.154 1944.82 -341.814C2224.43 -44.4734 2222.73 86.2589 2250.61 715.311C2278.49 1344.36 2778.33 2505.89 2078.66 2677.63" stroke="#F8FCFF" stroke-width="4"/>
<path d="M-1022.58 1509.56C-1435.51 959.644 -363.992 403.965 36.9691 -43.7949C437.93 -491.555 515.72 -589.146 902.036 -639.689C1288.35 -690.232 1624.38 -570.227 1891.29 -286.403C2158.19 -2.5776 2156.57 122.212 2183.18 722.671C2209.8 1323.13 2686.91 2431.86 2019.05 2595.8" stroke="#F8FCFF" stroke-width="4"/>
<path d="M-937.344 1479.45C-1330.61 955.72 -310.122 426.502 71.7458 0.0636683C453.613 -426.375 527.699 -519.318 895.619 -567.454C1263.54 -615.591 1583.57 -501.301 1837.76 -230.991C2091.96 39.3182 2090.41 158.166 2115.76 730.031C2141.11 1301.9 2595.5 2357.83 1959.44 2513.96" stroke="#F8FCFF" stroke-width="4"/>
<path d="M-852.117 1449.34C-1225.72 951.796 -256.256 449.038 106.519 43.9222C469.293 -361.194 539.674 -449.49 889.199 -495.22C1238.72 -540.95 1542.75 -432.374 1784.24 -175.58C2025.72 81.214 2024.25 194.119 2048.33 737.391C2072.41 1280.66 2504.09 2283.8 1899.83 2432.13" stroke="#F8FCFF" stroke-width="4"/>
<path d="M-766.886 1419.23C-1120.83 947.874 -202.385 471.577 141.296 87.7827C484.976 -296.012 551.653 -379.661 882.782 -422.984C1213.91 -466.306 1501.94 -363.445 1730.71 -120.167C1959.49 123.112 1958.09 230.075 1980.91 744.753C2003.72 1259.43 2412.68 2209.78 1840.22 2350.29" stroke="#F8FCFF" stroke-width="4"/>
<path d="M-681.655 1389.12C-1015.93 943.949 -148.515 494.114 176.072 131.641C500.66 -230.831 563.632 -309.833 876.365 -350.749C1189.1 -391.665 1461.12 -294.519 1677.19 -64.7555C1893.25 165.008 1891.94 266.028 1913.48 752.113C1935.03 1238.2 2321.26 2135.75 1780.61 2268.45" stroke="#F8FCFF" stroke-width="4"/>
<path d="M-596.427 1359.01C-911.042 940.025 -94.6489 516.65 210.845 175.5C516.339 -165.651 575.607 -240.006 869.944 -278.515C1164.28 -317.024 1420.3 -225.592 1623.66 -9.34417C1827.02 206.903 1825.78 301.981 1846.06 759.474C1866.33 1216.97 2229.85 2061.72 1721 2186.62" stroke="#F8FCFF" stroke-width="4"/>
<path d="M-511.196 1328.9C-806.148 936.101 -40.7788 539.187 245.622 219.358C532.022 -100.47 587.587 -170.178 863.527 -206.28C1139.47 -242.383 1379.49 -156.665 1570.14 46.0671C1760.78 248.799 1759.62 337.935 1778.63 766.834C1797.64 1195.73 2138.44 1987.69 1661.39 2104.78" stroke="#F8FCFF" stroke-width="4"/>
<path d="M-425.969 1298.79C-701.257 932.179 13.0875 561.726 280.395 263.219C547.702 -35.288 599.562 -100.348 857.106 -134.044C1114.65 -167.739 1338.67 -87.7363 1516.61 101.48C1694.54 290.697 1693.46 373.89 1711.2 774.196C1728.95 1174.5 2047.02 1913.66 1601.78 2022.95" stroke="#F8FCFF" stroke-width="4"/>
<path d="M-340.737 1268.68C-596.362 928.254 66.9576 584.262 315.171 307.077C563.385 29.8924 611.541 -30.5208 850.689 -61.8095C1089.84 -93.0982 1297.86 -18.8095 1463.08 156.892C1628.31 332.593 1627.3 409.844 1643.78 781.556C1660.26 1153.27 1955.61 1839.63 1542.17 1941.11" stroke="#F8FCFF" stroke-width="4"/>
<path d="M-255.51 1238.57C-491.471 924.33 120.824 606.799 349.944 350.936C579.065 95.0729 623.516 39.3068 844.269 10.425C1065.02 -18.4569 1257.04 50.1172 1409.56 212.303C1562.07 374.489 1561.14 445.797 1576.35 788.916C1591.56 1132.04 1864.2 1765.6 1482.56 1859.27" stroke="#F8FCFF" stroke-width="4"/>
<path d="M-170.279 1208.46C-386.577 920.407 174.694 629.337 384.721 394.796C594.748 160.255 635.495 109.136 837.852 82.6614C1040.21 56.1863 1216.22 119.046 1356.03 267.716C1495.84 416.386 1494.99 481.753 1508.93 796.278C1522.87 1110.8 1772.79 1691.57 1422.95 1777.44" stroke="#F8FCFF" stroke-width="4"/>
<path d="M-85.0513 1178.35C-281.686 916.483 228.56 651.874 419.494 438.655C610.428 225.436 647.471 178.964 831.431 154.896C1015.39 130.828 1175.41 187.973 1302.5 323.127C1429.6 458.282 1428.83 517.706 1441.5 803.639C1454.17 1089.57 1681.37 1617.54 1363.34 1695.6" stroke="#F8FCFF" stroke-width="4"/>
<path d="M0.180024 1148.24C-176.791 912.559 282.43 674.411 454.271 482.513C626.111 290.616 659.45 248.792 825.014 227.13C990.578 205.469 1134.59 256.899 1248.98 378.539C1363.37 500.178 1362.67 553.659 1374.08 810.999C1385.48 1068.34 1589.96 1543.51 1303.73 1613.77" stroke="#F8FCFF" stroke-width="4"/>
<path d="M85.4075 1118.13C-71.9002 908.635 336.297 696.947 489.044 526.372C641.791 355.797 671.425 318.619 818.593 299.365C965.761 280.11 1093.77 325.826 1195.45 433.95C1297.13 542.074 1296.51 589.613 1306.65 818.359C1316.79 1047.1 1498.55 1469.48 1244.12 1531.93" stroke="#F8FCFF" stroke-width="4"/>
<path d="M170.639 1088.02C32.9945 904.712 390.167 719.486 523.82 570.232C657.474 420.979 683.404 388.449 812.176 371.601C940.948 354.753 1052.96 394.755 1141.93 489.363C1230.9 583.972 1230.35 625.568 1239.22 825.721C1248.1 1025.87 1407.13 1395.45 1184.51 1450.1" stroke="#F8FCFF" stroke-width="4"/>
<path d="M255.87 1057.91C137.889 900.788 444.037 742.022 558.597 614.091C673.157 486.159 695.383 458.276 805.759 443.836C916.135 429.395 1012.14 463.682 1088.4 544.774C1164.66 625.867 1164.2 661.522 1171.8 833.081C1179.41 1004.64 1315.72 1321.42 1124.9 1368.26" stroke="#F8FCFF" stroke-width="4"/>
<path d="M341.097 1027.8C242.78 896.864 497.903 764.559 593.37 657.949C688.837 551.34 707.358 528.104 799.338 516.07C891.319 504.036 971.326 532.608 1034.87 600.186C1098.42 667.763 1098.04 697.475 1104.37 840.441C1110.71 983.408 1224.31 1247.39 1065.29 1286.42" stroke="#F8FCFF" stroke-width="4"/>
<path d="M426.329 997.685C347.675 892.939 551.773 787.096 628.147 701.808C704.52 616.52 719.337 597.932 792.922 588.304C866.506 578.677 930.511 601.535 981.351 655.597C1032.19 709.659 1031.88 733.428 1036.95 847.802C1042.02 962.175 1132.9 1173.36 1005.69 1204.59" stroke="#F8FCFF" stroke-width="4"/>
</g>
</g>
</g>
<defs>
<filter id="filter0_f_4549_4756" x="902.096" y="-108.9" width="2335.8" height="1614.8" filterUnits="userSpaceOnUse" color-interpolation-filters="sRGB">
<feFlood flood-opacity="0" result="BackgroundImageFix"/>
<feBlend mode="normal" in="SourceGraphic" in2="BackgroundImageFix" result="shape"/>
<feGaussianBlur stdDeviation="87.45" result="effect1_foregroundBlur_4549_4756"/>
</filter>
<filter id="filter1_f_4549_4756" x="-83.9" y="13.1" width="2574.8" height="1487.8" filterUnits="userSpaceOnUse" color-interpolation-filters="sRGB">
<feFlood flood-opacity="0" result="BackgroundImageFix"/>
<feBlend mode="normal" in="SourceGraphic" in2="BackgroundImageFix" result="shape"/>
<feGaussianBlur stdDeviation="87.45" result="effect1_foregroundBlur_4549_4756"/>
</filter>
<filter id="filter2_f_4549_4756" x="1667.1" y="-56.9" width="2574.8" height="1487.8" filterUnits="userSpaceOnUse" color-interpolation-filters="sRGB">
<feFlood flood-opacity="0" result="BackgroundImageFix"/>
<feBlend mode="normal" in="SourceGraphic" in2="BackgroundImageFix" result="shape"/>
<feGaussianBlur stdDeviation="87.45" result="effect1_foregroundBlur_4549_4756"/>
</filter>
<filter id="filter3_f_4549_4756" x="-1014.9" y="-38.9" width="2335.8" height="1614.8" filterUnits="userSpaceOnUse" color-interpolation-filters="sRGB">
<feFlood flood-opacity="0" result="BackgroundImageFix"/>
<feBlend mode="normal" in="SourceGraphic" in2="BackgroundImageFix" result="shape"/>
<feGaussianBlur stdDeviation="87.45" result="effect1_foregroundBlur_4549_4756"/>
</filter>
<radialGradient id="paint0_radial_4549_4756" cx="0" cy="0" r="1" gradientUnits="userSpaceOnUse" gradientTransform="translate(2070 698.5) rotate(90) scale(632.5 993)">
<stop stop-color="#01C8FF"/>
<stop offset="0.52" stop-color="#0177FF"/>
<stop offset="1" stop-color="white" stop-opacity="0"/>
</radialGradient>
<radialGradient id="paint1_radial_4549_4756" cx="0" cy="0" r="1" gradientUnits="userSpaceOnUse" gradientTransform="translate(1203.5 757) rotate(90) scale(569 1112.5)">
<stop stop-color="#0177FF"/>
<stop offset="0.495" stop-color="#01C8FF"/>
<stop offset="1" stop-color="white" stop-opacity="0"/>
</radialGradient>
<radialGradient id="paint2_radial_4549_4756" cx="0" cy="0" r="1" gradientUnits="userSpaceOnUse" gradientTransform="translate(2954.5 687) rotate(90) scale(569 1112.5)">
<stop stop-color="#0177FF"/>
<stop offset="0.495" stop-color="#01C8FF"/>
<stop offset="1" stop-color="white" stop-opacity="0"/>
</radialGradient>
<radialGradient id="paint3_radial_4549_4756" cx="0" cy="0" r="1" gradientUnits="userSpaceOnUse" gradientTransform="translate(153 768.5) rotate(90) scale(632.5 993)">
<stop stop-color="#01C8FF"/>
<stop offset="0.52" stop-color="#0177FF"/>
<stop offset="1" stop-color="white" stop-opacity="0"/>
</radialGradient>
<clipPath id="clip0_4549_4756">
<rect width="2443" height="514" fill="white"/>
</clipPath>
<clipPath id="clip1_4549_4756">
<rect width="2443" height="848" fill="white"/>
</clipPath>
</defs>
</svg>
