<svg width="2539" height="322" viewBox="0 0 2539 322" fill="none" xmlns="http://www.w3.org/2000/svg">
<g clip-path="url(#clip0_4549_4702)">
<g clip-path="url(#clip1_4549_4702)">
<rect width="2566" height="848" transform="translate(-27)" fill="url(#paint0_linear_4549_4702)"/>
<g opacity="0.75" filter="url(#filter0_f_4549_4702)">
<ellipse cx="2043" cy="698.5" rx="993" ry="632.5" fill="url(#paint1_radial_4549_4702)"/>
</g>
<g opacity="0.75" filter="url(#filter1_f_4549_4702)">
<ellipse cx="1176.5" cy="687" rx="1112.5" ry="569" fill="url(#paint2_radial_4549_4702)"/>
</g>
<g opacity="0.75" filter="url(#filter2_f_4549_4702)">
<ellipse cx="2927.5" cy="687" rx="1112.5" ry="569" fill="url(#paint3_radial_4549_4702)"/>
</g>
<g opacity="0.75" filter="url(#filter3_f_4549_4702)">
<ellipse cx="126" cy="698.5" rx="993" ry="632.5" fill="url(#paint4_radial_4549_4702)"/>
</g>
<g opacity="0.25">
<path d="M-2778.39 2141.87C-3604.26 1042.04 -1461.23 -69.3155 -659.304 -964.836C142.618 -1860.36 298.197 -2055.54 1070.83 -2156.62C1843.46 -2257.71 2515.52 -2017.7 3049.33 -1450.05C3583.15 -882.401 3579.89 -632.821 3633.12 568.096C3686.35 1769.01 4640.58 3986.48 3304.85 4314.35" stroke="#F8FCFF" stroke-width="4"/>
<path d="M-2693.16 2111.76C-3499.36 1038.12 -1407.36 -46.779 -624.527 -920.977C158.301 -1795.18 310.176 -1985.71 1064.41 -2084.39C1818.65 -2183.07 2474.71 -1948.77 2995.81 -1394.64C3516.91 -840.506 3513.73 -596.868 3565.7 575.456C3617.66 1747.78 4549.17 3912.45 3245.24 4232.51" stroke="#F8FCFF" stroke-width="4"/>
<path d="M-2607.94 2081.65C-3394.47 1034.2 -1353.49 -24.2404 -589.754 -877.117C173.981 -1729.99 322.152 -1915.88 1057.99 -2012.15C1793.83 -2108.43 2433.89 -1879.85 2942.28 -1339.23C3450.67 -798.608 3447.57 -560.912 3498.27 582.818C3548.97 1726.55 4457.76 3838.42 3185.63 4150.68" stroke="#F8FCFF" stroke-width="4"/>
<path d="M-2522.7 2051.54C-3289.58 1030.27 -1299.62 -1.70379 -554.978 -833.258C189.664 -1664.81 334.131 -1846.05 1051.58 -1939.92C1769.02 -2033.78 2393.08 -1810.92 2888.76 -1283.82C3384.44 -756.712 3381.42 -524.959 3430.85 590.178C3480.28 1705.31 4366.35 3764.39 3126.02 4068.84" stroke="#F8FCFF" stroke-width="4"/>
<path d="M-2437.48 2021.43C-3184.69 1026.35 -1245.75 20.8327 -520.205 -789.4C205.343 -1599.63 346.106 -1776.22 1045.15 -1867.68C1744.2 -1959.14 2352.26 -1741.99 2835.23 -1228.4C3318.2 -714.816 3315.26 -489.006 3363.42 597.538C3411.58 1684.08 4274.93 3690.36 3066.41 3987.01" stroke="#F8FCFF" stroke-width="4"/>
<path d="M-2352.25 1991.32C-3079.79 1022.42 -1191.88 43.3696 -485.428 -745.541C221.027 -1534.45 358.085 -1706.4 1038.74 -1795.45C1719.39 -1884.5 2311.44 -1673.07 2781.71 -1172.99C3251.97 -672.92 3249.1 -453.052 3296 604.898C3342.89 1662.85 4183.52 3616.33 3006.8 3905.17" stroke="#F8FCFF" stroke-width="4"/>
<path d="M-2267.02 1961.21C-2974.9 1018.5 -1138.02 65.908 -450.655 -701.681C236.706 -1469.27 370.06 -1636.57 1032.32 -1723.21C1694.57 -1809.86 2270.63 -1604.14 2728.18 -1117.58C3185.73 -631.023 3182.94 -417.097 3228.57 612.26C3274.2 1641.62 4092.1 3542.3 2947.19 3823.34" stroke="#F8FCFF" stroke-width="4"/>
<path d="M-2181.79 1931.1C-2870.01 1014.58 -1084.15 88.4448 -415.878 -657.822C252.39 -1404.09 382.04 -1566.74 1025.9 -1650.98C1669.76 -1735.22 2229.81 -1535.21 2674.65 -1062.17C3119.5 -589.127 3116.78 -381.143 3161.14 619.621C3205.5 1620.38 4000.69 3468.27 2887.58 3741.5" stroke="#F8FCFF" stroke-width="4"/>
<path d="M-2096.56 1900.99C-2765.12 1010.65 -1030.28 110.981 -381.106 -613.964C268.069 -1338.91 394.015 -1496.91 1019.48 -1578.74C1644.94 -1660.58 2188.99 -1466.28 2621.13 -1006.76C3053.26 -547.231 3050.62 -345.19 3093.72 626.981C3136.81 1599.15 3909.28 3394.24 2827.97 3659.66" stroke="#F8FCFF" stroke-width="4"/>
<path d="M-2011.33 1870.88C-2660.22 1006.73 -976.41 133.52 -346.329 -570.103C283.753 -1273.73 405.994 -1427.08 1013.06 -1506.51C1620.13 -1585.93 2148.18 -1397.35 2567.6 -951.344C2987.02 -505.333 2984.47 -309.235 3026.29 634.343C3068.12 1577.92 3817.87 3320.22 2768.36 3577.83" stroke="#F8FCFF" stroke-width="4"/>
<path d="M-1926.1 1840.77C-2555.33 1002.81 -922.544 156.057 -311.556 -526.245C299.432 -1208.55 417.969 -1357.26 1006.64 -1434.27C1595.31 -1511.29 2107.36 -1328.43 2514.07 -895.932C2920.79 -463.437 2918.31 -273.281 2958.86 641.703C2999.42 1556.69 3726.45 3246.19 2708.75 3495.99" stroke="#F8FCFF" stroke-width="4"/>
<path d="M-1840.87 1810.66C-2450.44 998.882 -868.674 178.593 -276.779 -482.386C315.116 -1143.37 429.948 -1287.43 1000.22 -1362.04C1570.5 -1436.65 2066.55 -1259.5 2460.55 -840.521C2854.55 -421.542 2852.15 -237.328 2891.44 649.063C2930.73 1535.45 3635.04 3172.16 2649.14 3414.16" stroke="#F8FCFF" stroke-width="4"/>
<path d="M-1755.64 1780.55C-2345.54 994.957 -814.804 201.13 -242.002 -438.528C330.799 -1078.19 441.927 -1217.6 993.808 -1289.8C1545.69 -1362.01 2025.73 -1190.57 2407.03 -785.11C2788.32 -379.646 2785.99 -201.374 2824.02 656.423C2862.04 1514.22 3543.63 3098.13 2589.54 3332.32" stroke="#F8FCFF" stroke-width="4"/>
<path d="M-1670.41 1750.44C-2240.65 991.035 -760.937 223.668 -207.23 -394.667C346.478 -1013 453.902 -1147.77 987.387 -1217.57C1520.87 -1287.37 1984.91 -1121.65 2353.5 -729.697C2722.08 -337.748 2719.83 -165.419 2756.59 663.786C2793.34 1492.99 3452.22 3024.1 2529.92 3250.48" stroke="#F8FCFF" stroke-width="4"/>
<path d="M-1585.18 1720.33C-2135.76 987.111 -707.067 246.205 -172.453 -350.809C362.162 -947.822 465.882 -1077.94 980.97 -1145.33C1496.06 -1212.72 1944.1 -1052.72 2299.97 -674.285C2655.85 -295.852 2653.68 -129.466 2689.16 671.146C2724.65 1471.76 3360.8 2950.07 2470.32 3168.65" stroke="#F8FCFF" stroke-width="4"/>
<path d="M-1499.95 1690.22C-2030.87 983.187 -653.201 268.742 -137.68 -306.95C377.841 -882.642 477.857 -1008.12 974.549 -1073.1C1471.24 -1138.08 1903.28 -983.792 2246.45 -618.874C2589.61 -253.956 2587.52 -93.5121 2621.74 678.506C2655.96 1450.52 3269.39 2876.04 2410.7 3086.81" stroke="#F8FCFF" stroke-width="4"/>
<path d="M-1414.72 1660.11C-1925.97 979.264 -599.331 291.28 -102.903 -263.09C393.525 -817.459 489.836 -938.286 968.133 -1000.86C1446.43 -1063.44 1862.47 -914.863 2192.92 -563.461C2523.38 -212.059 2521.36 -57.5568 2554.31 685.868C2587.27 1429.29 3177.98 2802.01 2351.1 3004.98" stroke="#F8FCFF" stroke-width="4"/>
<path d="M-1329.49 1630C-1821.08 975.34 -545.465 313.817 -68.1304 -219.231C409.204 -752.279 501.811 -868.458 961.712 -928.629C1421.61 -988.799 1821.65 -845.937 2139.39 -508.05C2457.14 -170.163 2455.2 -21.6033 2486.89 693.228C2518.57 1408.06 3086.56 2727.98 2291.49 2923.14" stroke="#F8FCFF" stroke-width="4"/>
<path d="M-1244.26 1599.89C-1716.18 971.416 -491.595 336.353 -33.3537 -175.372C424.887 -687.098 513.79 -798.63 955.295 -856.394C1396.8 -914.158 1780.83 -777.01 2085.87 -452.638C2390.9 -128.267 2389.04 14.3501 2419.46 700.588C2449.88 1386.83 2995.15 2653.95 2231.88 2841.31" stroke="#F8FCFF" stroke-width="4"/>
<path d="M-1159.03 1569.78C-1611.29 967.491 -437.728 358.89 1.41939 -131.514C440.567 -621.918 525.765 -728.803 948.874 -784.16C1371.98 -839.517 1740.02 -708.083 2032.34 -397.227C2324.67 -86.3713 2322.88 50.3035 2352.03 707.948C2381.18 1365.59 2903.74 2579.92 2172.27 2759.47" stroke="#F8FCFF" stroke-width="4"/>
<path d="M-1073.8 1539.67C-1506.4 963.569 -383.858 381.429 36.1963 -87.6534C456.251 -556.735 537.745 -658.973 942.457 -711.923C1347.17 -764.873 1699.2 -639.154 1978.82 -341.814C2258.43 -44.4734 2256.73 86.2589 2284.61 715.311C2312.49 1344.36 2812.33 2505.89 2112.66 2677.63" stroke="#F8FCFF" stroke-width="4"/>
<path d="M-988.576 1509.56C-1401.51 959.644 -329.992 403.965 70.9691 -43.7949C471.93 -491.555 549.72 -589.146 936.036 -639.689C1322.35 -690.232 1658.38 -570.227 1925.29 -286.403C2192.19 -2.5776 2190.57 122.212 2217.18 722.671C2243.8 1323.13 2720.91 2431.86 2053.05 2595.8" stroke="#F8FCFF" stroke-width="4"/>
<path d="M-903.344 1479.45C-1296.61 955.72 -276.122 426.502 105.746 0.0636683C487.613 -426.375 561.699 -519.318 929.619 -567.454C1297.54 -615.591 1617.57 -501.301 1871.76 -230.991C2125.96 39.3182 2124.41 158.166 2149.76 730.031C2175.11 1301.9 2629.5 2357.83 1993.44 2513.96" stroke="#F8FCFF" stroke-width="4"/>
<path d="M-818.117 1449.34C-1191.72 951.796 -222.256 449.038 140.519 43.9222C503.293 -361.194 573.674 -449.49 923.199 -495.22C1272.72 -540.95 1576.75 -432.374 1818.24 -175.58C2059.72 81.214 2058.25 194.119 2082.33 737.391C2106.41 1280.66 2538.09 2283.8 1933.83 2432.13" stroke="#F8FCFF" stroke-width="4"/>
<path d="M-732.886 1419.23C-1086.83 947.874 -168.385 471.577 175.296 87.7827C518.976 -296.012 585.653 -379.661 916.782 -422.984C1247.91 -466.306 1535.94 -363.445 1764.71 -120.167C1993.49 123.112 1992.09 230.075 2014.91 744.753C2037.72 1259.43 2446.68 2209.78 1874.22 2350.29" stroke="#F8FCFF" stroke-width="4"/>
<path d="M-647.655 1389.12C-981.933 943.949 -114.515 494.114 210.072 131.641C534.66 -230.831 597.632 -309.833 910.365 -350.749C1223.1 -391.665 1495.12 -294.519 1711.19 -64.7555C1927.25 165.008 1925.94 266.028 1947.48 752.113C1969.03 1238.2 2355.26 2135.75 1814.61 2268.45" stroke="#F8FCFF" stroke-width="4"/>
<path d="M-562.427 1359.01C-877.042 940.025 -60.6489 516.65 244.845 175.5C550.339 -165.651 609.607 -240.006 903.944 -278.515C1198.28 -317.024 1454.3 -225.592 1657.66 -9.34417C1861.02 206.903 1859.78 301.981 1880.06 759.474C1900.33 1216.97 2263.85 2061.72 1755 2186.62" stroke="#F8FCFF" stroke-width="4"/>
<path d="M-477.196 1328.9C-772.148 936.101 -6.77876 539.187 279.622 219.358C566.022 -100.47 621.587 -170.178 897.527 -206.28C1173.47 -242.383 1413.49 -156.665 1604.14 46.0671C1794.78 248.799 1793.62 337.935 1812.63 766.834C1831.64 1195.73 2172.44 1987.69 1695.39 2104.78" stroke="#F8FCFF" stroke-width="4"/>
<path d="M-391.969 1298.79C-667.257 932.179 47.0875 561.726 314.395 263.219C581.702 -35.288 633.562 -100.348 891.106 -134.044C1148.65 -167.739 1372.67 -87.7363 1550.61 101.48C1728.54 290.697 1727.46 373.89 1745.2 774.196C1762.95 1174.5 2081.02 1913.66 1635.78 2022.95" stroke="#F8FCFF" stroke-width="4"/>
<path d="M-306.737 1268.68C-562.362 928.254 100.958 584.262 349.171 307.077C597.385 29.8924 645.541 -30.5208 884.689 -61.8095C1123.84 -93.0982 1331.86 -18.8095 1497.08 156.892C1662.31 332.593 1661.3 409.844 1677.78 781.556C1694.26 1153.27 1989.61 1839.63 1576.17 1941.11" stroke="#F8FCFF" stroke-width="4"/>
<path d="M-221.51 1238.57C-457.471 924.33 154.824 606.799 383.944 350.936C613.065 95.0729 657.516 39.3068 878.269 10.425C1099.02 -18.4569 1291.04 50.1172 1443.56 212.303C1596.07 374.489 1595.14 445.797 1610.35 788.916C1625.56 1132.04 1898.2 1765.6 1516.56 1859.27" stroke="#F8FCFF" stroke-width="4"/>
<path d="M-136.279 1208.46C-352.577 920.407 208.694 629.337 418.721 394.796C628.748 160.255 669.495 109.136 871.852 82.6614C1074.21 56.1863 1250.22 119.046 1390.03 267.716C1529.84 416.386 1528.99 481.753 1542.93 796.278C1556.87 1110.8 1806.79 1691.57 1456.95 1777.44" stroke="#F8FCFF" stroke-width="4"/>
<path d="M-51.0513 1178.35C-247.686 916.483 262.56 651.874 453.494 438.655C644.428 225.436 681.471 178.964 865.431 154.896C1049.39 130.828 1209.41 187.973 1336.5 323.127C1463.6 458.282 1462.83 517.706 1475.5 803.639C1488.17 1089.57 1715.37 1617.54 1397.34 1695.6" stroke="#F8FCFF" stroke-width="4"/>
<path d="M34.18 1148.24C-142.791 912.559 316.43 674.411 488.271 482.513C660.111 290.616 693.45 248.792 859.014 227.13C1024.58 205.469 1168.59 256.899 1282.98 378.539C1397.37 500.178 1396.67 553.659 1408.08 810.999C1419.48 1068.34 1623.96 1543.51 1337.73 1613.77" stroke="#F8FCFF" stroke-width="4"/>
<path d="M119.408 1118.13C-37.9002 908.635 370.297 696.947 523.044 526.372C675.791 355.797 705.425 318.619 852.593 299.365C999.761 280.11 1127.77 325.826 1229.45 433.95C1331.13 542.074 1330.51 589.613 1340.65 818.359C1350.79 1047.1 1532.55 1469.48 1278.12 1531.93" stroke="#F8FCFF" stroke-width="4"/>
<path d="M204.639 1088.02C66.9945 904.712 424.167 719.486 557.82 570.232C691.474 420.979 717.404 388.449 846.176 371.601C974.948 354.753 1086.96 394.755 1175.93 489.363C1264.9 583.972 1264.35 625.568 1273.22 825.721C1282.1 1025.87 1441.13 1395.45 1218.51 1450.1" stroke="#F8FCFF" stroke-width="4"/>
</g>
</g>
</g>
<defs>
<filter id="filter0_f_4549_4702" x="875.096" y="-108.9" width="2335.8" height="1614.8" filterUnits="userSpaceOnUse" color-interpolation-filters="sRGB">
<feFlood flood-opacity="0" result="BackgroundImageFix"/>
<feBlend mode="normal" in="SourceGraphic" in2="BackgroundImageFix" result="shape"/>
<feGaussianBlur stdDeviation="87.45" result="effect1_foregroundBlur_4549_4702"/>
</filter>
<filter id="filter1_f_4549_4702" x="-110.9" y="-56.9" width="2574.8" height="1487.8" filterUnits="userSpaceOnUse" color-interpolation-filters="sRGB">
<feFlood flood-opacity="0" result="BackgroundImageFix"/>
<feBlend mode="normal" in="SourceGraphic" in2="BackgroundImageFix" result="shape"/>
<feGaussianBlur stdDeviation="87.45" result="effect1_foregroundBlur_4549_4702"/>
</filter>
<filter id="filter2_f_4549_4702" x="1640.1" y="-56.9" width="2574.8" height="1487.8" filterUnits="userSpaceOnUse" color-interpolation-filters="sRGB">
<feFlood flood-opacity="0" result="BackgroundImageFix"/>
<feBlend mode="normal" in="SourceGraphic" in2="BackgroundImageFix" result="shape"/>
<feGaussianBlur stdDeviation="87.45" result="effect1_foregroundBlur_4549_4702"/>
</filter>
<filter id="filter3_f_4549_4702" x="-1041.9" y="-108.9" width="2335.8" height="1614.8" filterUnits="userSpaceOnUse" color-interpolation-filters="sRGB">
<feFlood flood-opacity="0" result="BackgroundImageFix"/>
<feBlend mode="normal" in="SourceGraphic" in2="BackgroundImageFix" result="shape"/>
<feGaussianBlur stdDeviation="87.45" result="effect1_foregroundBlur_4549_4702"/>
</filter>
<linearGradient id="paint0_linear_4549_4702" x1="1283" y1="0" x2="1283" y2="372.5" gradientUnits="userSpaceOnUse">
<stop stop-color="#FBFBFB"/>
<stop offset="1" stop-color="#F8FCFF"/>
</linearGradient>
<radialGradient id="paint1_radial_4549_4702" cx="0" cy="0" r="1" gradientUnits="userSpaceOnUse" gradientTransform="translate(2043 698.5) rotate(90) scale(632.5 993)">
<stop stop-color="#01C8FF"/>
<stop offset="0.52" stop-color="#0177FF"/>
<stop offset="1" stop-color="white" stop-opacity="0"/>
</radialGradient>
<radialGradient id="paint2_radial_4549_4702" cx="0" cy="0" r="1" gradientUnits="userSpaceOnUse" gradientTransform="translate(1176.5 687) rotate(90) scale(569 1112.5)">
<stop stop-color="#0177FF"/>
<stop offset="0.495" stop-color="#01C8FF"/>
<stop offset="1" stop-color="white" stop-opacity="0"/>
</radialGradient>
<radialGradient id="paint3_radial_4549_4702" cx="0" cy="0" r="1" gradientUnits="userSpaceOnUse" gradientTransform="translate(2927.5 687) rotate(90) scale(569 1112.5)">
<stop stop-color="#0177FF"/>
<stop offset="0.495" stop-color="#01C8FF"/>
<stop offset="1" stop-color="white" stop-opacity="0"/>
</radialGradient>
<radialGradient id="paint4_radial_4549_4702" cx="0" cy="0" r="1" gradientUnits="userSpaceOnUse" gradientTransform="translate(126 698.5) rotate(90) scale(632.5 993)">
<stop stop-color="#01C8FF"/>
<stop offset="0.52" stop-color="#0177FF"/>
<stop offset="1" stop-color="white" stop-opacity="0"/>
</radialGradient>
<clipPath id="clip0_4549_4702">
<rect width="2566" height="322" fill="white" transform="translate(-27)"/>
</clipPath>
<clipPath id="clip1_4549_4702">
<rect width="2566" height="848" fill="white" transform="translate(-27)"/>
</clipPath>
</defs>
</svg>
