<svg width="229" height="74" viewBox="0 0 229 74" fill="none" xmlns="http://www.w3.org/2000/svg">
<path d="M159.016 40.001C158.582 44.6271 156.4 49.0975 153.286 52.7947C153.156 52.9494 153.024 53.1026 152.891 53.2543C152.591 53.5958 152.284 53.9308 151.968 54.2594C151.582 54.6643 151.185 55.0598 150.777 55.446C150.445 55.7639 150.104 56.0749 149.757 56.3792C149.488 56.6165 149.216 56.8492 148.942 57.0772C145.638 59.8359 141.842 62.1124 137.931 64.1033C130.299 67.9874 121.933 70.9297 113.232 71.3582C104.531 71.7855 95.4488 69.4832 89.0683 64.0002C80.4691 56.6112 78.0692 44.2867 81.5604 33.9274C83.8825 27.0355 88.622 20.8008 95.0723 16.7288C101.467 12.6923 109.534 10.8753 117.168 12.063C123.263 8.64069 131.241 8.57519 137.867 11.1084C141.403 12.4603 144.575 14.4706 147.359 16.8996C148.634 18.0143 149.826 19.2064 150.929 20.4679C151.042 20.5957 151.154 20.7246 151.264 20.8545C151.726 21.3947 152.174 21.9459 152.606 22.5082C153.227 23.3147 153.816 24.139 154.374 24.9813C154.527 25.2132 154.68 25.4463 154.828 25.6814C154.928 25.8393 155.029 25.9982 155.128 26.1582C155.131 26.1615 155.132 26.1651 155.133 26.1689C156.68 28.6828 157.944 31.3652 158.603 34.169C158.719 34.6651 158.817 35.1634 158.893 35.666V35.667C158.959 36.0933 159.009 36.5218 159.043 36.9524C159.122 37.9676 159.113 38.9871 159.016 40.001Z" fill="#2D3A47"/>
<path opacity="0.3" d="M136.311 46.9939L119.057 33.7129L135.819 47.5258C135.851 47.5764 135.896 47.619 135.95 47.6502C136.004 47.6815 136.065 47.7004 136.129 47.7054C136.192 47.7104 136.256 47.7014 136.315 47.6792C136.373 47.6569 136.426 47.622 136.467 47.5773C136.508 47.5326 136.537 47.4795 136.552 47.4223C136.567 47.3652 136.566 47.3056 136.551 47.2486C136.536 47.1915 136.506 47.1387 136.464 47.0944C136.423 47.0501 136.37 47.0156 136.311 46.9939Z" fill="#F0F0F0"/>
<path d="M96.7426 40.2354C102.455 40.2354 107.086 35.9565 107.086 30.6782C107.086 25.4 102.455 21.1211 96.7426 21.1211C91.0299 21.1211 86.3989 25.4 86.3989 30.6782C86.3989 35.9565 91.0299 40.2354 96.7426 40.2354Z" fill="#F2F2F2"/>
<path d="M105.924 30.0345C105.924 31.1767 105.68 32.3078 105.207 33.3632C104.734 34.4185 104.041 35.3774 103.167 36.1851C102.292 36.9929 101.255 37.6335 100.112 38.0706C98.9701 38.5077 97.7459 38.7326 96.5097 38.7326C95.4078 38.732 94.3144 38.5539 93.2787 38.2064C91.6593 37.6613 90.2328 36.7161 89.1545 35.4738C88.0762 34.2316 87.3874 32.7397 87.1631 31.1608C86.9388 29.5819 87.1877 27.9764 87.8825 26.5191C88.5774 25.0618 89.6916 23.8085 91.104 22.8958C92.5163 21.983 94.1726 21.4458 95.8925 21.3425C97.6123 21.2393 99.3299 21.574 100.858 22.3101C102.387 23.0463 103.667 24.1558 104.56 25.5178C105.453 26.8797 105.925 28.442 105.924 30.0345Z" fill="white"/>
<path d="M94.8831 29.8204C96.4877 29.8204 97.7886 28.6184 97.7886 27.1358C97.7886 25.6531 96.4877 24.4512 94.8831 24.4512C93.2784 24.4512 91.9775 25.6531 91.9775 27.1358C91.9775 28.6184 93.2784 29.8204 94.8831 29.8204Z" fill="#E4E4E4"/>
<path d="M105.556 27.6203C104.927 27.9002 104.209 27.9611 103.535 27.7917C102.86 27.6224 102.275 27.2342 101.885 26.6982C101.495 26.1623 101.328 25.5145 101.413 24.8737C101.498 24.2329 101.83 23.6418 102.349 23.209C103.89 24.3345 105.011 25.8768 105.556 27.6203Z" fill="#F2F2F2"/>
<path d="M99.6475 33.8997C100.225 33.8997 100.694 33.467 100.694 32.9333C100.694 32.3995 100.225 31.9668 99.6475 31.9668C99.0699 31.9668 98.6016 32.3995 98.6016 32.9333C98.6016 33.467 99.0699 33.8997 99.6475 33.8997Z" fill="#E4E4E4"/>
<path d="M95.348 38.4098C95.348 38.4947 95.3358 38.5791 95.312 38.6611C94.618 38.5809 93.936 38.4281 93.2793 38.2058C93.3338 37.9726 93.4798 37.7663 93.6891 37.6265C93.8983 37.4868 94.1562 37.4235 94.4129 37.4488C94.6696 37.4741 94.9072 37.5863 95.0798 37.7637C95.2525 37.9411 95.348 38.1712 95.348 38.4098Z" fill="#F2F2F2"/>
<path d="M89.1882 29.6053C89.1881 30.0956 88.9864 30.5676 88.6239 30.9256C88.2614 31.2837 87.7651 31.5011 87.2357 31.5339C86.996 30.2574 87.0659 28.9477 87.4402 27.6992C87.9286 27.7744 88.3722 28.0073 88.6923 28.3563C89.0123 28.7053 89.188 29.1478 89.1882 29.6053Z" fill="#F2F2F2"/>
<path d="M140.776 26.5334C141.013 26.5334 141.206 26.3554 141.206 26.1359C141.206 25.9163 141.013 25.7383 140.776 25.7383C140.538 25.7383 140.345 25.9163 140.345 26.1359C140.345 26.3554 140.538 26.5334 140.776 26.5334Z" fill="#6C63FF"/>
<path d="M136.806 16.863C136.945 16.863 137.057 16.759 137.057 16.6307C137.057 16.5024 136.945 16.3984 136.806 16.3984C136.667 16.3984 136.555 16.5024 136.555 16.6307C136.555 16.759 136.667 16.863 136.806 16.863Z" fill="#F0F0F0"/>
<path d="M96.4775 62.3923C96.6163 62.3923 96.7289 62.2883 96.7289 62.16C96.7289 62.0317 96.6163 61.9277 96.4775 61.9277C96.3386 61.9277 96.2261 62.0317 96.2261 62.16C96.2261 62.2883 96.3386 62.3923 96.4775 62.3923Z" fill="#F0F0F0"/>
<path d="M138.233 39.5896C138.372 39.5896 138.484 39.4856 138.484 39.3573C138.484 39.229 138.372 39.125 138.233 39.125C138.094 39.125 137.981 39.229 137.981 39.3573C137.981 39.4856 138.094 39.5896 138.233 39.5896Z" fill="#F0F0F0"/>
<path d="M105.793 41.7834C106.031 41.7834 106.223 41.6054 106.223 41.3859C106.223 41.1663 106.031 40.9883 105.793 40.9883C105.555 40.9883 105.363 41.1663 105.363 41.3859C105.363 41.6054 105.555 41.7834 105.793 41.7834Z" fill="#6C63FF"/>
<path d="M101.359 50.7946C101.498 50.7946 101.61 50.6906 101.61 50.5624C101.61 50.4341 101.498 50.3301 101.359 50.3301C101.22 50.3301 101.107 50.4341 101.107 50.5624C101.107 50.6906 101.22 50.7946 101.359 50.7946Z" fill="#F0F0F0"/>
<path d="M126.927 14.4997C127.066 14.4997 127.179 14.3957 127.179 14.2674C127.179 14.1392 127.066 14.0352 126.927 14.0352C126.788 14.0352 126.676 14.1392 126.676 14.2674C126.676 14.3957 126.788 14.4997 126.927 14.4997Z" fill="#F0F0F0"/>
<path d="M111.934 64.0017C112.073 64.0017 112.186 63.8977 112.186 63.7694C112.186 63.6411 112.073 63.5371 111.934 63.5371C111.796 63.5371 111.683 63.6411 111.683 63.7694C111.683 63.8977 111.796 64.0017 111.934 64.0017Z" fill="#F0F0F0"/>
<path d="M108.216 16.6462C108.355 16.6462 108.467 16.5422 108.467 16.4139C108.467 16.2856 108.355 16.1816 108.216 16.1816C108.077 16.1816 107.964 16.2856 107.964 16.4139C107.964 16.5422 108.077 16.6462 108.216 16.6462Z" fill="#F0F0F0"/>
<path d="M114.724 27.9235C114.863 27.9235 114.975 27.8195 114.975 27.6913C114.975 27.563 114.863 27.459 114.724 27.459C114.585 27.459 114.473 27.563 114.473 27.6913C114.473 27.8195 114.585 27.9235 114.724 27.9235Z" fill="#F0F0F0"/>
<path d="M104.762 55.5896C104.9 55.5896 105.013 55.4856 105.013 55.3573C105.013 55.229 104.9 55.125 104.762 55.125C104.623 55.125 104.51 55.229 104.51 55.3573C104.51 55.4856 104.623 55.5896 104.762 55.5896Z" fill="#F0F0F0"/>
<path d="M134.165 57.0915C134.304 57.0915 134.417 56.9875 134.417 56.8592C134.417 56.7309 134.304 56.627 134.165 56.627C134.027 56.627 133.914 56.7309 133.914 56.8592C133.914 56.9875 134.027 57.0915 134.165 57.0915Z" fill="#F0F0F0"/>
<path d="M121.149 43.5622C121.288 43.5622 121.4 43.4582 121.4 43.3299C121.4 43.2017 121.288 43.0977 121.149 43.0977C121.01 43.0977 120.897 43.2017 120.897 43.3299C120.897 43.4582 121.01 43.5622 121.149 43.5622Z" fill="#F0F0F0"/>
<path d="M127.773 27.8845C127.912 27.8845 128.025 27.7805 128.025 27.6522C128.025 27.5239 127.912 27.4199 127.773 27.4199C127.635 27.4199 127.522 27.5239 127.522 27.6522C127.522 27.7805 127.635 27.8845 127.773 27.8845Z" fill="#F0F0F0"/>
<path d="M139.817 35.636C140.093 35.636 140.316 35.4298 140.316 35.1754C140.316 34.921 140.093 34.7148 139.817 34.7148C139.542 34.7148 139.319 34.921 139.319 35.1754C139.319 35.4298 139.542 35.636 139.817 35.636Z" fill="#FF6584"/>
<path d="M119.595 20.3879C119.87 20.3879 120.094 20.1817 120.094 19.9274C120.094 19.673 119.87 19.4668 119.595 19.4668C119.32 19.4668 119.097 19.673 119.097 19.9274C119.097 20.1817 119.32 20.3879 119.595 20.3879Z" fill="#FF6584"/>
<path d="M119.595 52.0656C119.87 52.0656 120.094 51.8594 120.094 51.6051C120.094 51.3507 119.87 51.1445 119.595 51.1445C119.32 51.1445 119.097 51.3507 119.097 51.6051C119.097 51.8594 119.32 52.0656 119.595 52.0656Z" fill="#FF6584"/>
<path d="M150.65 54.2598C150.456 54.2599 150.267 54.3185 150.112 54.4266C149.957 54.5347 149.845 54.6865 149.791 54.859C149.768 54.9329 149.756 55.0096 149.756 55.0866V56.3795C150.104 56.0756 150.444 55.7646 150.777 55.4464C151.185 55.0598 151.582 54.6642 151.968 54.2598H150.65Z" fill="#6C63FF"/>
<path d="M163.088 60.748L163.073 60.9976C165.68 61.1503 168.078 61.2268 170.267 61.2268C173.599 61.2268 176.443 61.0497 178.765 60.6947C180.799 60.3836 182.408 59.9356 183.572 59.3464C184.735 58.7578 185.486 58.0105 185.735 57.0873C185.992 56.138 185.675 55.1604 185.017 54.2106C184.359 53.2599 183.336 52.3032 182.106 51.3723C179.644 49.5091 176.301 47.7093 173.219 46.2357L173.008 46.1346L172.893 46.339L172.66 46.7553L172.53 46.988L172.771 47.103C176.999 49.1248 180.172 51.0177 182.202 52.6977C183.218 53.5382 183.936 54.316 184.36 55.0196C184.783 55.7224 184.9 56.3272 184.76 56.8434C184.592 57.4684 184.024 58.0473 182.987 58.5472C181.956 59.0447 180.502 59.4425 178.648 59.7283C174.941 60.2994 169.687 60.4152 163.134 60.0306C149.719 59.2434 132.326 56.5045 114.161 52.3165C95.9961 48.1282 79.2501 42.9959 67.0075 37.8674C61.0278 35.3624 56.4499 32.9799 53.4695 30.8676C51.9781 29.8106 50.8998 28.8303 50.2443 27.9464C49.5867 27.0595 49.3823 26.3091 49.5501 25.6878L49.5501 25.6878C49.6823 25.1983 50.0624 24.7346 50.7336 24.312C51.4045 23.8896 52.3447 23.5226 53.5509 23.2213C55.9622 22.6191 59.3855 22.2918 63.712 22.2754L63.9622 22.2744L63.9611 22.0243L63.9589 21.5555L63.9578 21.3057L63.708 21.3066C60.5462 21.3186 57.0209 21.501 54.1712 22.0883C52.7471 22.3817 51.4772 22.7791 50.5022 23.3161C49.5291 23.852 48.8177 24.5455 48.5751 25.4439L48.5751 25.4439C48.3249 26.3702 48.6095 27.3625 49.3404 28.392C50.0706 29.4209 51.266 30.5167 52.9039 31.6747C56 33.8637 60.613 36.2454 66.6048 38.7555C78.9087 43.9096 95.7146 49.0596 113.926 53.2584C132.138 57.4573 149.591 60.2066 163.073 60.9976L163.088 60.748Z" fill="#FEF2E9" stroke="#FEF2E9" stroke-width="0.5"/>
<path d="M61.3577 33.7411C61.3577 35.5355 59.9031 36.9901 58.1088 36.9901C56.3145 36.9901 54.8599 35.5355 54.8599 33.7411C54.8599 31.9468 56.3145 30.4922 58.1088 30.4922C59.9031 30.4922 61.3577 31.9468 61.3577 33.7411Z" fill="#2D3A47" stroke="#2D3A47"/>
<path d="M56.6091 48.3471L56.4925 48.1394L56.2793 48.2459C53.3733 49.6991 50.2191 51.4744 47.8935 53.3132C46.7314 54.232 45.7636 55.1764 45.1387 56.1147C44.5142 57.0524 44.2128 58.0149 44.4473 58.9486C44.688 59.9071 45.4505 60.682 46.6431 61.2901C47.8363 61.8985 49.4928 62.3579 51.591 62.6728L51.6281 62.4256L51.591 62.6728C55.5567 63.2678 61.0186 63.3484 67.8174 62.9177L67.8016 62.6682L67.8174 62.9177C73.021 62.5879 78.7968 61.9729 84.9777 61.0998C95.3817 59.6305 106.932 57.4306 118.798 54.6354C137.714 50.1799 155.192 44.7404 168.013 39.3165C174.257 36.6752 179.071 34.1742 182.312 31.8811C184.027 30.668 185.281 29.5225 186.054 28.45C186.826 27.3773 187.137 26.3472 186.896 25.3875C186.649 24.4053 185.865 23.6582 184.78 23.0899C183.692 22.5205 182.265 22.1103 180.659 21.8175C177.444 21.2317 173.448 21.1059 169.858 21.16L169.613 21.1637L169.612 21.4087L169.609 21.8969L169.608 22.152L169.863 22.1481C174.789 22.0739 178.679 22.3627 181.409 22.9781C182.775 23.286 183.837 23.6727 184.59 24.127C185.343 24.5816 185.764 25.0883 185.9 25.6297C186.063 26.2806 185.836 27.0681 185.137 27.9975C184.441 28.9233 183.306 29.9506 181.744 31.0587C178.621 33.2733 173.841 35.776 167.609 38.4122C154.85 43.8098 137.433 49.2313 118.565 53.6755C99.6971 58.1201 81.6544 61.0512 67.7609 61.9315C60.9752 62.3614 55.5418 62.2645 51.7168 61.6862C49.803 61.3968 48.3065 60.989 47.2481 60.4753C46.1849 59.9594 45.6073 59.359 45.4435 58.7066C45.3154 58.1962 45.4293 57.5991 45.8307 56.9076C46.2325 56.2155 46.9104 55.4507 47.8676 54.6244C49.7811 52.9725 52.7671 51.1109 56.744 49.1223L56.9786 49.0049L56.8501 48.7762L56.6091 48.3471Z" fill="#FEF2E9" stroke="#FEF2E9" stroke-width="0.5"/>
<path d="M176.909 38.6928C179.637 38.3077 181.535 35.7845 181.15 33.0571C180.765 30.3298 178.242 28.4311 175.514 28.8163C172.787 29.2014 170.888 31.7246 171.274 34.452C171.659 37.1793 174.182 39.078 176.909 38.6928Z" fill="#2D3A47"/>
<path d="M108.815 7.50284C109.937 7.50284 110.847 6.6623 110.847 5.62544C110.847 4.58859 109.937 3.74805 108.815 3.74805C107.692 3.74805 106.783 4.58859 106.783 5.62544C106.783 6.6623 107.692 7.50284 108.815 7.50284Z" fill="#2D3A47"/>
<path d="M69.8238 54.3595C71.6354 54.3595 73.1041 52.8908 73.1041 51.0792C73.1041 49.2675 71.6354 47.7988 69.8238 47.7988C68.0121 47.7988 66.5435 49.2675 66.5435 51.0792C66.5435 52.8908 68.0121 54.3595 69.8238 54.3595Z" fill="#E6E6E6"/>
<path d="M85.1057 16.5466C85.7926 16.5466 86.3495 16.032 86.3495 15.3973C86.3495 14.7626 85.7926 14.248 85.1057 14.248C84.4187 14.248 83.8618 14.7626 83.8618 15.3973C83.8618 16.032 84.4187 16.5466 85.1057 16.5466Z" fill="#3865A3"/>
<path d="M79.9714 69.779C80.6583 69.779 81.2152 69.2644 81.2152 68.6297C81.2152 67.995 80.6583 67.4805 79.9714 67.4805C79.2844 67.4805 78.7275 67.995 78.7275 68.6297C78.7275 69.2644 79.2844 69.779 79.9714 69.779Z" fill="#3865A3"/>
<path d="M1.24384 54.7829C1.93079 54.7829 2.48767 54.2683 2.48767 53.6336C2.48767 52.9989 1.93079 52.4844 1.24384 52.4844C0.556884 52.4844 0 52.9989 0 53.6336C0 54.2683 0.556884 54.7829 1.24384 54.7829Z" fill="#334150"/>
<path d="M226.18 26.6657C226.867 26.6657 227.424 26.1511 227.424 25.5164C227.424 24.8817 226.867 24.3672 226.18 24.3672C225.493 24.3672 224.936 24.8817 224.936 25.5164C224.936 26.1511 225.493 26.6657 226.18 26.6657Z" fill="#3865A3"/>
<path d="M74.3483 3.236C75.0353 3.236 75.5922 2.72146 75.5922 2.08675C75.5922 1.45204 75.0353 0.9375 74.3483 0.9375C73.6614 0.9375 73.1045 1.45204 73.1045 2.08675C73.1045 2.72146 73.6614 3.236 74.3483 3.236Z" fill="#3865A3"/>
<path d="M145.308 69.8935C146.43 69.8935 147.34 69.0529 147.34 68.0161C147.34 66.9792 146.43 66.1387 145.308 66.1387C144.186 66.1387 143.276 66.9792 143.276 68.0161C143.276 69.0529 144.186 69.8935 145.308 69.8935Z" fill="#3865A3"/>
<path d="M11.247 73.1103C12.2823 73.1103 13.1215 72.2697 13.1215 71.2329C13.1215 70.196 12.2823 69.3555 11.247 69.3555C10.2118 69.3555 9.37256 70.196 9.37256 71.2329C9.37256 72.2697 10.2118 73.1103 11.247 73.1103Z" fill="#E6E6E6"/>
<path d="M11.4045 30.9345C12.5266 30.9345 13.4364 30.0939 13.4364 29.0571C13.4364 28.0202 12.5266 27.1797 11.4045 27.1797C10.2823 27.1797 9.37256 28.0202 9.37256 29.0571C9.37256 30.0939 10.2823 30.9345 11.4045 30.9345Z" fill="#E6E6E6"/>
<path d="M17.0275 11.2528C18.1497 11.2528 19.0594 10.4123 19.0594 9.37544C19.0594 8.33859 18.1497 7.49805 17.0275 7.49805C15.9053 7.49805 14.9956 8.33859 14.9956 9.37544C14.9956 10.4123 15.9053 11.2528 17.0275 11.2528Z" fill="#3865A3"/>
<path d="M220.407 3.7548C221.53 3.7548 222.439 2.91426 222.439 1.8774C222.439 0.840538 221.53 0 220.407 0C219.285 0 218.375 0.840538 218.375 1.8774C218.375 2.91426 219.285 3.7548 220.407 3.7548Z" fill="#2D3A47"/>
<path d="M226.968 58.1142C228.09 58.1142 229 57.2736 229 56.2368C229 55.1999 228.09 54.3594 226.968 54.3594C225.846 54.3594 224.936 55.1999 224.936 56.2368C224.936 57.2736 225.846 58.1142 226.968 58.1142Z" fill="#E6E6E6"/>
<path d="M159.33 9.37287C161.4 9.37287 163.079 7.69441 163.079 5.62393C163.079 3.55345 161.4 1.875 159.33 1.875C157.26 1.875 155.581 3.55345 155.581 5.62393C155.581 7.69441 157.26 9.37287 159.33 9.37287Z" fill="#3865A3"/>
<path d="M30.9286 49.6737C32.9991 49.6737 34.6776 47.9952 34.6776 45.9247C34.6776 43.8542 32.9991 42.1758 30.9286 42.1758C28.8582 42.1758 27.1797 43.8542 27.1797 45.9247C27.1797 47.9952 28.8582 49.6737 30.9286 49.6737Z" fill="#3865A3"/>
<path d="M203.38 72.1678C205.45 72.1678 207.129 70.4893 207.129 68.4189C207.129 66.3484 205.45 64.6699 203.38 64.6699C201.309 64.6699 199.631 66.3484 199.631 68.4189C199.631 70.4893 201.309 72.1678 203.38 72.1678Z" fill="#E6E6E6"/>
<path d="M208.534 43.112C209.829 43.112 210.878 42.0629 210.878 40.7689C210.878 39.4748 209.829 38.4258 208.534 38.4258C207.24 38.4258 206.191 39.4748 206.191 40.7689C206.191 42.0629 207.24 43.112 208.534 43.112Z" fill="#2D3A47"/>
<path d="M199.631 14.9965C201.184 14.9965 202.443 13.7376 202.443 12.1847C202.443 10.6319 201.184 9.37305 199.631 9.37305C198.078 9.37305 196.819 10.6319 196.819 12.1847C196.819 13.7376 198.078 14.9965 199.631 14.9965Z" fill="#E6E6E6"/>
<path d="M44.9875 11.2465C46.5403 11.2465 47.7992 9.9876 47.7992 8.43474C47.7992 6.88189 46.5403 5.62305 44.9875 5.62305C43.4346 5.62305 42.1758 6.88189 42.1758 8.43474C42.1758 9.9876 43.4346 11.2465 44.9875 11.2465Z" fill="#E6E6E6"/>
</svg>
