<svg width="652" height="524" viewBox="0 0 652 524" fill="none" xmlns="http://www.w3.org/2000/svg">
<path opacity="0.75" d="M264.204 96.9582C232.346 103.958 200.532 100.957 169.928 96.5925C139.324 92.228 108.796 86.5287 76.9239 88.2466C56.4216 89.3493 33.5891 94.6308 19.2736 109.982C5.49372 124.747 3.34662 144.671 3.31983 162.657C3.28412 176.186 4.18582 190.185 11.5601 200.963C16.6845 208.438 24.5721 213.795 30.5135 220.696C51.1855 244.665 44.9004 282.408 31.3348 314.497C24.9694 329.552 17.1845 344.358 12.8501 359.767C8.51573 375.176 7.9399 391.688 15.698 404.253C23.3669 416.644 38.2359 423.69 53.7611 427.329C85.249 434.723 120.33 430.132 154.273 423.91C229.391 410.138 303.736 388.594 377.92 367.103C405.368 359.146 432.937 351.154 459.38 339.685C474.066 333.301 489.02 325.356 498.506 312.988C510.558 297.318 510.862 275.884 499.247 263.075C479.758 241.601 435.646 246.366 420.572 221.816C412.278 208.299 415.889 189.941 422.491 173.725C436.646 138.949 464.005 104.59 460.461 69.9182C458.014 46.1225 439.351 26.4301 414.336 21.2996C388.115 15.9252 354.44 26.1167 339.344 50.0633C323.823 74.7353 292.335 90.7829 264.204 96.9582Z" fill="#FFD7B9"/>
<path d="M324.331 67.6836H56.168V193.854H324.331V67.6836Z" fill="#565661"/>
<path d="M319.092 76.9629H62.3477V184.574H319.092V76.9629Z" fill="#DFE6F5"/>
<path d="M80.4231 128.909C76.7309 129.357 73.1198 130.32 69.6953 131.77L76.7913 125.029C77.3039 124.481 77.9229 124.043 78.6104 123.741C79.7587 123.302 81.0811 123.637 82.2552 123.251C84.1453 122.606 85.0871 120.338 86.9707 119.687C88.2609 119.249 89.6672 119.687 91.0219 119.591C93.7248 119.41 95.8665 117.206 97.2405 114.867C98.6146 112.528 99.537 109.905 101.298 107.843C103.795 104.911 107.665 103.493 110.452 100.825C111.69 99.6395 112.69 98.2475 113.877 97.0038C116.219 94.6588 119.185 93.035 122.424 92.3255C125.663 91.6161 129.037 91.8509 132.146 93.002C132.987 93.4265 133.908 93.6702 134.849 93.7173C135.591 93.6282 136.308 93.3938 136.959 93.0277L145.693 88.8455C150.584 90.4124 155.197 92.7393 159.362 95.7407C160.01 96.3103 160.798 96.6954 161.646 96.8556C163.981 97.0425 164.975 94.0459 166.465 92.2416C168.503 89.767 172.309 89.3804 175.309 90.521C178.309 91.6616 180.65 94.0202 182.779 96.3852C183.753 97.4742 184.779 98.6277 186.172 99.0595C187.328 99.3312 188.534 99.3024 189.675 98.9757C196.417 97.4439 202.343 93.4519 206.292 87.7822C206.892 86.9058 207.634 85.8876 208.699 85.9005C209.213 85.9493 209.706 86.129 210.131 86.4225C213.903 88.6099 217.411 91.2218 220.588 94.207C223 96.4754 225.258 98.9821 228.154 100.593C231.051 102.204 234.831 102.733 237.599 100.922C237.147 102.72 238.889 104.447 240.701 104.827C242.514 105.207 244.391 104.685 246.236 104.447C248.784 104.131 251.37 104.344 253.832 105.072C256.294 105.801 258.579 107.029 260.544 108.681C264.679 109.137 268.623 110.664 271.987 113.109C275.35 115.555 278.017 118.835 279.723 122.626C281.09 125.777 282.903 129.998 286.303 129.476C287.444 129.302 288.541 128.541 289.663 128.831C290.419 129.107 291.087 129.578 291.599 130.198C294.515 133.033 298.495 134.406 302.165 136.146C305.836 137.886 309.552 140.373 310.842 144.22C307.661 144.665 304.52 143.382 301.352 142.848C298.185 142.313 294.321 142.88 292.805 145.715C292.199 146.862 291.999 148.325 290.934 149.066C290.206 149.474 289.374 149.66 288.541 149.601C281.311 149.693 274.169 148.016 267.737 144.716C263.376 151.052 256.919 155.65 249.5 157.701C249.294 154.905 246.378 152.868 243.566 152.83C240.753 152.791 238.134 154.286 235.966 156.052C233.856 157.795 232.022 159.848 230.528 162.141C229.283 164.075 228.251 166.156 226.561 167.683C224.871 169.211 222.226 170.01 220.284 168.811C219.207 168.167 218.517 166.974 217.459 166.266C215.053 164.661 211.376 165.834 209.26 163.855C207.731 162.425 207.705 159.899 206.241 158.404C204.389 156.516 201.08 157.147 199.009 158.777C196.939 160.408 195.558 162.779 193.655 164.609C188.72 169.359 181.166 169.765 174.303 169.894C174.303 168.366 175.257 167.039 175.928 165.673C177.831 161.806 177.309 157.134 175.561 153.21C173.812 149.285 170.974 146.005 168.194 142.783C165.059 146.121 166.497 151.94 163.678 155.568C162.536 157.044 160.807 157.978 159.614 159.435C158.124 161.226 156.963 164.036 154.64 163.862C153.505 163.778 152.589 162.927 151.821 162.09C148.86 158.868 146.132 154.795 141.829 153.957C140.145 153.629 138.404 153.854 136.668 153.706C133.889 153.375 131.314 152.083 129.389 150.053C127.463 148.024 126.31 145.386 126.128 142.596C122.489 143.582 118.593 144.426 114.955 145.412C113.942 145.689 112.839 145.966 111.858 145.586C110.568 145.077 109.923 143.621 108.859 142.725C107.291 141.436 104.988 141.488 103.014 141.913C101.04 142.338 99.0339 143.06 97.0083 142.835C96.5896 140.99 96.485 139.088 96.6987 137.209L89.4737 136.564C88.5216 136.535 87.5806 136.352 86.6869 136.023C86.012 135.71 85.3896 135.295 84.842 134.792C83.062 133.081 81.5699 131.095 80.4231 128.909Z" fill="#F57B20"/>
<path d="M98.2209 124.315C99.1111 123.393 99.8723 122.323 100.937 121.615C101.879 121.057 102.889 120.624 103.943 120.326C111.684 117.6 117.728 111.645 123.908 106.258C129.353 101.509 135.075 97.0881 140.79 92.6738L142.964 94.2591L137.745 96.3857C137.242 96.5919 136.662 96.9012 136.636 97.4425C136.659 97.7872 136.805 98.112 137.049 98.3576C138.39 100.085 139.9 101.928 142.035 102.411C143.054 102.643 144.287 102.611 144.919 103.442C145.171 103.854 145.346 104.308 145.435 104.782C146.261 107.592 148.809 109.519 151.312 111.046C156.256 114.052 161.616 116.314 167.219 117.761C162.983 117.632 158.8 116.787 154.847 115.261C153.666 114.83 152.535 114.275 151.473 113.604C149.221 112.135 147.531 109.951 145.345 108.391C143.158 106.832 140.035 106 137.836 107.54C137.236 107.966 136.655 108.572 135.9 108.533C135.146 108.494 134.61 107.772 133.965 107.328C132.32 106.155 130.024 106.935 128.263 107.927C122.996 110.923 118.779 115.465 116.187 120.938C124.061 121.462 131.87 119.206 138.249 114.565C142.056 119.889 147.586 123.738 153.905 125.462C152.976 126.589 151.447 126.957 150.086 127.485C148.23 128.221 146.554 129.344 145.169 130.78C143.783 132.216 142.722 133.931 142.055 135.811C141.002 134.387 140.243 132.768 139.823 131.049C137.73 132.222 135.705 133.513 133.759 134.915C135.61 133.724 137.132 132.086 138.184 130.153C134.836 129.339 131.309 129.717 128.211 131.223C125.953 132.331 123.863 134.058 121.347 134.194C121.512 132.843 121.196 131.477 120.454 130.335C119.712 129.194 118.592 128.349 117.29 127.949C115.516 127.453 113.226 127.659 112.271 126.08C112.053 125.628 111.861 125.163 111.697 124.688C110.961 123.045 109.013 122.22 107.213 122.272C105.414 122.323 103.717 123.058 102.053 123.786C99.6788 124.83 97.3242 125.977 94.9116 126.918C96.0018 125.99 97.221 125.32 98.2209 124.315Z" fill="white"/>
<path d="M139.693 146.914C142.898 147.287 146.143 146.772 149.073 145.425C150.673 144.684 152.202 143.692 153.937 143.395C155.672 143.099 157.769 143.788 158.343 145.457C160.427 143.962 160.807 140.991 162.478 139.045C164.936 136.178 169.703 136.358 172.799 138.53C175.896 140.701 177.625 144.329 178.915 147.848C179.889 150.529 180.76 153.396 182.785 155.388C184.811 157.379 188.533 158.023 190.423 155.884C189.166 154.206 188.404 152.211 188.224 150.123C188.044 148.036 188.453 145.939 189.404 144.072C189.843 143.24 190.404 142.403 190.372 141.494C190.301 139.471 187.791 138.672 186.178 137.434C182.689 134.766 183.147 129.199 180.321 125.835C178.824 124.05 176.289 122.477 176.721 120.19C185.314 121.894 193.46 125.356 200.648 130.359C201.81 131.255 203.069 132.018 204.402 132.633C206.183 133.349 208.15 133.432 209.963 134.051C215.994 136.1 219.484 143.64 225.832 144.162C228.993 144.42 231.954 142.796 234.908 141.629C247.468 136.674 261.641 139.799 274.626 143.505C270.111 141.024 263.731 141.391 260.867 137.112C259.886 135.649 259.454 133.768 258.093 132.646C255.422 130.442 251.519 132.562 248.068 132.891C246.424 133.027 244.772 132.73 243.279 132.03C241.785 131.33 240.5 130.252 239.553 128.902C238.624 127.542 238.037 125.919 236.818 124.823C235.031 123.225 232.392 123.16 229.993 123.186L218.736 123.289C216.846 123.289 214.717 123.218 213.453 121.814C213.039 121.204 212.582 120.625 212.085 120.08C211.343 119.436 210.311 119.352 209.35 119.217C206.211 118.78 203.177 117.777 200.396 116.259C199.848 116.027 199.394 115.619 199.106 115.099C198.383 113.391 201.003 112.444 202.467 111.303C204.854 109.434 204.325 105.755 203.564 102.829C205.543 102.405 207.364 101.436 208.821 100.032C206.112 97.5385 203.138 94.136 204.305 90.6497C204.563 89.8828 204.705 88.6391 203.899 88.6584C202.815 91.0117 201.007 92.9577 198.738 94.2133C198.014 94.5089 197.375 94.9807 196.88 95.5859C196.061 96.8747 196.913 98.8402 195.893 99.9873C195.525 100.352 195.07 100.618 194.571 100.761C191.171 101.978 186.985 102.23 184.94 105.207C184.25 106.419 183.731 107.72 183.398 109.074C182.223 112.448 180.218 115.473 177.569 117.872C174.919 120.271 171.709 121.968 168.232 122.806C167.058 123.077 165.774 123.289 164.949 124.166C164.304 124.81 164.084 125.732 163.549 126.453C162.478 127.903 160.536 128.296 158.853 128.941C154.034 130.777 151.073 134.979 148.383 139.135C147.247 140.888 146.415 141.417 144.551 142.235C143.414 142.665 142.369 143.308 141.474 144.13C141.3 144.323 139.545 146.894 139.693 146.914Z" fill="white"/>
<path d="M224.865 111.014C222.733 112.124 220.482 112.989 218.156 113.592C219.263 113.908 220.326 114.365 221.317 114.952C220.983 116.288 220.2 117.469 219.098 118.296C221.678 118.38 224.123 119.327 226.606 120.004C230.728 121.119 234.993 121.486 239.263 121.853L233.457 117.62C232.606 116.975 231.69 116.292 231.477 115.261C231.392 114.308 231.638 113.354 232.173 112.561C233.644 109.783 235.431 107.244 237.121 104.615C235.044 105.331 232.315 104.738 230.445 105.608C229.277 106.149 229.071 107.296 228.374 108.256C227.434 109.435 226.233 110.379 224.865 111.014Z" fill="white"/>
<path d="M259.996 117.495C259.389 118.986 258.515 120.353 257.416 121.529C258.45 122.473 259.741 123.089 261.125 123.302C261.834 123.36 262.538 123.461 263.234 123.604C264.042 123.879 264.799 124.286 265.473 124.809C269.989 127.935 274.846 131.537 276.104 136.879C276.92 136.423 277.876 136.284 278.789 136.49C279.701 136.696 280.505 137.232 281.045 137.994C281.6 138.838 281.884 139.985 282.806 140.398C283.729 140.81 284.742 140.269 285.471 139.644C286.2 139.019 286.922 138.252 287.87 138.033C288.462 137.936 289.067 137.956 289.651 138.091L298.237 139.476C297.047 138.276 295.603 137.356 294.012 136.784C292.42 136.212 290.721 136.003 289.038 136.171C286.961 136.396 284.793 137.182 282.865 136.396C280.936 135.61 279.942 133.535 278.42 132.13C276.485 130.339 273.691 129.655 271.763 127.845C270.156 126.324 269.305 124.171 267.847 122.509C266.266 120.698 264.015 119.525 262.628 117.566C262.067 116.774 261.622 115.839 260.796 115.337C259.345 114.46 256.364 114.537 254.713 114.383C255.106 116.323 258.138 117.85 259.996 117.495Z" fill="white"/>
<path d="M110.819 100.897C112.277 100.997 113.739 101.023 115.199 100.974C115.341 100.98 115.482 100.947 115.606 100.878C115.733 100.757 115.813 100.595 115.832 100.42L116.354 98.1132C116.376 97.9088 116.467 97.718 116.612 97.5719C116.746 97.4974 116.897 97.4583 117.051 97.4583C117.204 97.4583 117.355 97.4974 117.49 97.5719C118.997 98.137 120.413 98.9232 121.689 99.9047C121.139 98.2421 120.648 96.5602 120.218 94.8589L124.173 94.1629C121.173 93.4476 119.657 93.8085 117.722 95.9286C116.586 97.1466 112.561 101.007 110.819 100.897Z" fill="white"/>
<path d="M190.249 57.0245C192.233 57.0245 193.842 55.4175 193.842 53.4351C193.842 51.4527 192.233 49.8457 190.249 49.8457C188.264 49.8457 186.656 51.4527 186.656 53.4351C186.656 55.4175 188.264 57.0245 190.249 57.0245Z" fill="#565661"/>
<path d="M167.219 71.157L190.249 53.4355L213.517 71.157" stroke="#565661" stroke-miterlimit="10"/>
<path d="M193.933 118.695L194.216 118.876L194.81 118.811L193.933 118.695Z" fill="url(#paint0_linear_8783_18664)"/>
<path d="M194.842 118.81L199.816 119.454C198.225 118.879 196.527 118.659 194.842 118.81Z" fill="url(#paint1_linear_8783_18664)"/>
<path d="M390.555 297.23H207.718V339.523H390.555V297.23Z" fill="#565661"/>
<path opacity="0.1" d="M390.555 297.23H207.718V339.523H390.555V297.23Z" fill="black"/>
<path d="M229.593 340.916L230.877 453.824L213.292 498.173L211.931 340.916H229.593Z" fill="#BCBEC9"/>
<path d="M209.647 305.35L387.659 306.419V337.918H209.647V305.35Z" fill="#565661"/>
<path d="M372.428 340.916L387.659 343.062V496.459L372.428 449.539V340.916Z" fill="#BCBEC9"/>
<path d="M479.235 298.926H393.445V481.038H479.235V298.926Z" fill="#EFEFF0"/>
<path d="M472.371 303.984H400.309V443.971H472.371V303.984Z" fill="#565661"/>
<path opacity="0.1" d="M472.371 303.984H400.309V443.971H472.371V303.984Z" fill="black"/>
<path d="M472.371 306.852H400.309V337.919H472.371V306.852Z" fill="#565661"/>
<path d="M472.371 340.916H400.309V406.904H472.371V340.916Z" fill="#565661"/>
<path d="M472.371 410.977H400.309V476.965H472.371V410.977Z" fill="#565661"/>
<path d="M403.315 492.894C405.88 492.894 407.96 490.24 407.96 486.966C407.96 483.691 405.88 481.037 403.315 481.037C400.75 481.037 398.67 483.691 398.67 486.966C398.67 490.24 400.75 492.894 403.315 492.894Z" fill="#565661"/>
<path d="M467.727 493.178C470.292 493.178 472.371 490.523 472.371 487.249C472.371 483.975 470.292 481.32 467.727 481.32C465.162 481.32 463.082 483.975 463.082 487.249C463.082 490.523 465.162 493.178 467.727 493.178Z" fill="#565661"/>
<path d="M207.073 498.172H213.292L211.582 300.504H202.138L207.073 498.172Z" fill="#EFEFF0"/>
<path d="M387.659 298.926V496.458H393.445V300.505L387.659 298.926Z" fill="#EFEFF0"/>
<path d="M211.885 335.984V343.06H387.659V337.918L211.885 335.984Z" fill="#EFEFF0"/>
<path d="M223.8 285.645H446.639L479.022 296.355V302.567L201.067 300.427V294.106L223.8 285.645Z" fill="#EFEFF0"/>
<path d="M201.067 294.105L479.022 296.354V302.567L201.067 300.427V294.105Z" fill="#BCBEC9"/>
<path d="M274.627 351.665L273.337 351.472C273.337 351.414 273.337 351.362 273.337 351.31C273.298 351.008 273.253 350.711 273.208 350.408C273.736 350.827 274.24 351.246 274.704 351.665H274.627Z" fill="url(#paint2_linear_8783_18664)"/>
<path d="M246.591 451.169C247.43 450.976 248.281 450.815 249.133 450.699C254.981 449.867 260.945 450.744 266.305 453.225C265.763 457.207 265.228 461.325 266.376 465.172C267.176 467.879 268.782 470.328 269.124 473.15C269.986 473.298 270.789 473.683 271.444 474.261C272.099 474.839 272.58 475.588 272.833 476.424C273.081 477.163 273.205 477.938 273.201 478.718C273.194 479.682 273.073 480.643 272.84 481.579C272.761 482.327 272.394 483.015 271.816 483.496C271.237 483.978 270.494 484.215 269.743 484.157C264.75 484.724 259.854 482.758 255.21 480.832L246.178 477.081C245.12 476.643 244.056 476.198 243.043 475.657C241.122 474.62 239.417 473.227 238.018 471.552C237.73 471.257 237.527 470.889 237.431 470.489C237.263 469.355 238.592 468.678 239.437 467.911C239.685 467.677 239.901 467.413 240.082 467.125C241.082 465.617 241.179 463.535 241.779 461.757C243.198 457.536 247.585 454.817 249.133 450.699C249.217 450.473 249.294 450.248 249.359 450.016" fill="#A26565"/>
<path opacity="0.1" d="M273.201 478.716C273.194 479.681 273.073 480.641 272.84 481.577C272.761 482.325 272.394 483.013 271.816 483.494C271.237 483.976 270.494 484.213 269.743 484.155C264.75 484.722 259.854 482.757 255.21 480.83L246.178 477.079C245.12 476.641 244.056 476.196 243.043 475.655C241.122 474.618 239.417 473.225 238.018 471.55C237.73 471.255 237.527 470.888 237.431 470.487C237.263 469.353 238.592 468.676 239.437 467.909C239.685 467.676 239.901 467.411 240.082 467.123C242.572 467.658 245.662 469.224 247.565 469.83C249.471 470.348 251.302 471.113 253.01 472.104C255.384 473.625 257.093 475.971 259.106 477.904C261.119 479.837 263.718 481.597 266.524 481.358C268.008 481.135 269.438 480.641 270.743 479.902L273.201 478.716Z" fill="black"/>
<path d="M262.628 387.139C262.796 387.724 262.781 388.346 262.585 388.922C262.389 389.497 262.021 390 261.531 390.361C260.686 390.883 259.596 390.812 258.758 391.379C257.719 392.108 257.571 393.551 257.39 394.801C256.745 399.099 254.61 402.998 252.784 406.948C250.958 410.899 249.417 415.21 250.088 419.502C250.546 422.414 251.978 425.52 250.636 428.143C250.307 428.788 249.817 429.361 249.442 429.986C247.604 433.054 248.649 436.939 248.578 440.51C248.605 440.906 248.518 441.302 248.326 441.65C248.044 441.979 247.697 442.247 247.307 442.436C246.652 442.917 246.114 443.54 245.734 444.257C245.353 444.975 245.139 445.768 245.108 446.58C245.053 448.203 245.249 449.824 245.688 451.387C245.759 452.018 246.038 452.608 246.482 453.063C246.995 453.402 247.602 453.573 248.217 453.553C252.27 453.881 256.245 454.846 259.996 456.414C262.441 457.432 264.815 458.708 267.415 459.198C267.666 459.276 267.931 459.302 268.192 459.274C268.454 459.246 268.708 459.165 268.937 459.036C269.264 458.742 269.49 458.352 269.582 457.922C270.582 454.635 271.595 451.245 271.253 447.83C271.105 446.361 270.711 444.924 270.608 443.455C270.156 437.655 274.085 432.422 275.33 426.7C275.891 424.122 275.891 421.454 276.291 418.851C277.375 411.717 281.31 405.318 282.826 398.262C283.037 396.946 283.365 395.652 283.806 394.395C284.935 391.663 287.548 389.446 287.606 386.488C287.642 385.837 287.47 385.192 287.116 384.645C286.507 383.978 285.699 383.526 284.813 383.356C281.291 382.395 277.706 381.68 274.085 381.217C272.433 380.893 270.747 380.776 269.066 380.869C266.883 381.125 264.785 381.865 262.925 383.034C260.486 384.555 262.086 384.922 262.628 387.139Z" fill="#454B69"/>
<path opacity="0.05" d="M262.628 387.139C262.796 387.724 262.781 388.346 262.585 388.922C262.389 389.497 262.021 390 261.531 390.361C260.686 390.883 259.596 390.812 258.758 391.379C257.719 392.108 257.571 393.551 257.39 394.801C256.745 399.099 254.61 402.998 252.784 406.948C250.958 410.899 249.417 415.21 250.088 419.502C250.546 422.414 251.978 425.52 250.636 428.143C250.307 428.788 249.817 429.361 249.442 429.986C247.604 433.054 248.649 436.939 248.578 440.51C248.605 440.906 248.518 441.302 248.326 441.65C248.044 441.979 247.697 442.247 247.307 442.436C246.652 442.917 246.114 443.54 245.734 444.257C245.353 444.975 245.139 445.768 245.108 446.58C245.053 448.203 245.249 449.824 245.688 451.387C245.759 452.018 246.038 452.608 246.482 453.063C246.995 453.402 247.602 453.573 248.217 453.553C252.27 453.881 256.245 454.846 259.996 456.414C262.441 457.432 264.815 458.708 267.415 459.198C267.666 459.276 267.931 459.302 268.192 459.274C268.454 459.246 268.708 459.165 268.937 459.036C269.264 458.742 269.49 458.352 269.582 457.922C270.582 454.635 271.595 451.245 271.253 447.83C271.105 446.361 270.711 444.924 270.608 443.455C270.156 437.655 274.085 432.422 275.33 426.7C275.891 424.122 275.891 421.454 276.291 418.851C277.375 411.717 281.31 405.318 282.826 398.262C283.037 396.946 283.365 395.652 283.806 394.395C284.935 391.663 287.548 389.446 287.606 386.488C287.642 385.837 287.47 385.192 287.116 384.645C286.507 383.978 285.699 383.526 284.813 383.356C281.291 382.395 277.706 381.68 274.085 381.217C272.433 380.893 270.747 380.776 269.066 380.869C266.883 381.125 264.785 381.865 262.925 383.034C260.486 384.555 262.086 384.922 262.628 387.139Z" fill="black"/>
<path d="M250.004 484.26H244.501L240.901 410.384L240.65 406.182L245.327 404.539L245.643 409.005L250.004 484.26Z" fill="#565661"/>
<path opacity="0.1" d="M245.643 409.005L240.901 410.384L240.65 406.182L245.327 404.539L245.643 409.005Z" fill="black"/>
<path d="M319.047 499.885L309.971 500.981L268.156 406.181L256.88 405.356L237.076 411.13L233.225 523.999H224.149L227.722 407.005L205.989 407.56L167.207 504.003H158.956L199.745 391.288L201.319 386.945L262.105 384.863L277.259 393.35L277.452 393.84L319.047 499.885Z" fill="#565661"/>
<path opacity="0.1" d="M277.452 393.84C264.389 397.771 250.829 402.063 250.829 402.063C250.829 402.063 238.463 406.374 233.225 402.063C232.564 401.548 231.826 401.141 231.038 400.858C231.718 401.343 232.451 401.747 233.225 402.063L199.745 391.282L201.312 386.945L262.105 384.863L277.258 393.35L277.452 393.84Z" fill="black"/>
<path d="M215.62 375.133L240.372 369.617C240.372 369.617 299.514 380.611 303.913 385.006C303.913 385.006 256.603 394.621 251.377 397.894C246.152 401.168 215.065 404.809 215.62 375.133Z" fill="white"/>
<path d="M204.977 313.34C203.041 319.468 197.758 324.991 191.326 325.255C190.858 325.31 190.385 325.224 189.965 325.01C189.159 324.507 189.14 323.328 189.469 322.432C189.798 321.537 190.372 320.731 190.462 319.79C190.481 319.598 190.468 319.404 190.423 319.217C190.256 318.45 189.63 317.767 188.894 317.928C189.395 317.528 189.729 316.955 189.83 316.323C189.932 315.69 189.793 315.043 189.443 314.506C189.151 314.177 188.888 313.823 188.656 313.449C188.12 312.354 188.953 311.123 189.301 309.95C190.017 307.372 188.198 304.795 188.049 302.108C187.92 299.704 189.14 297.442 189.443 295.058C189.927 291.191 188.004 287.486 187.778 283.626C187.624 280.932 188.288 278.264 189.03 275.667C189.675 273.347 190.404 271.002 190.449 268.579C190.449 266.819 190.146 265.079 190.062 263.327C189.928 261.724 190.22 260.115 190.907 258.661C191.354 257.806 192.114 257.157 193.029 256.85C195.145 256.141 196.532 257.243 196.842 259.247C197.358 262.656 197.061 266.136 197.739 269.558C198.365 272.758 199.314 275.887 200.571 278.896C201.712 281.615 203.099 284.244 203.977 287.06C204.637 289.382 205.11 291.752 205.389 294.149C206.254 300.587 206.931 307.211 204.977 313.34Z" fill="#F57B20"/>
<path d="M351.901 469.315C351.085 470.464 350.035 471.428 348.82 472.143C347.605 472.858 346.252 473.309 344.85 473.465C342.051 473.813 339.141 473.111 336.426 473.877C336.005 473.947 335.608 474.119 335.271 474.378C334.933 474.638 334.665 474.978 334.49 475.366C334.423 475.89 334.382 476.417 334.368 476.945C334.052 478.665 331.787 479.052 330.026 479.039L322.763 478.994C321.253 478.994 319.582 478.91 318.499 477.866C317.983 477.296 317.693 476.559 317.681 475.791C317.669 475.023 317.937 474.276 318.434 473.691C318.793 473.567 319.089 473.307 319.256 472.966C319.423 472.625 319.448 472.232 319.324 471.873C319.201 471.514 318.94 471.219 318.599 471.052C318.258 470.885 317.865 470.861 317.505 470.984C317.373 470.037 317.419 469.073 317.641 468.142C317.641 465.448 318.286 460.938 320.182 458.83C322.511 456.208 326.549 452.818 330.065 452.116C331.254 451.891 332.479 451.947 333.642 452.281C334.804 452.614 335.873 453.215 336.761 454.036C338.425 455.582 339.638 458.005 341.922 458.276C343.167 458.431 344.367 457.844 345.599 457.632C346.999 457.452 348.421 457.709 349.669 458.367C350.918 459.026 351.932 460.054 352.572 461.311C352.885 461.949 353.102 462.628 353.217 463.328C353.551 465.418 353.081 467.557 351.901 469.315Z" fill="#A26565"/>
<path opacity="0.1" d="M351.901 469.315C351.085 470.464 350.035 471.427 348.82 472.143C347.605 472.858 346.252 473.308 344.851 473.465C342.051 473.813 339.142 473.11 336.426 473.877C336.005 473.946 335.608 474.118 335.271 474.378C334.933 474.638 334.665 474.977 334.49 475.366C334.423 475.89 334.382 476.416 334.368 476.944C334.052 478.665 331.788 479.052 330.026 479.039L322.763 478.994C321.253 478.994 319.583 478.91 318.499 477.866C317.983 477.296 317.693 476.558 317.681 475.79C317.669 475.022 317.937 474.276 318.434 473.69C322.627 473.516 326.749 473.69 330.93 472.827C332.626 472.485 334.297 472.034 336.013 471.796C339.729 471.267 343.683 471.718 347.096 470.146C349.94 468.857 351.979 466.234 353.185 463.309C353.534 465.401 353.075 467.547 351.901 469.315Z" fill="black"/>
<path d="M332.736 459.128C330.155 461.125 327.13 462.685 323.879 462.852C320.627 463.02 317.176 461.563 315.583 458.741C313.254 454.597 315.318 448.836 312.467 445.034C311.577 443.842 310.293 442.998 309.351 441.844C308.41 440.691 307.868 438.957 308.706 437.733C307.693 438.12 306.623 437.14 306.326 436.096C306.029 435.052 306.216 433.931 306.036 432.874C305.565 430.071 302.81 428.273 301.488 425.785C300.165 423.298 300.346 420.069 300.198 417.125C299.868 409.949 297.194 403.08 292.586 397.567C291.708 396.523 290.586 395.459 289.218 395.511C289.457 393.152 287.883 390.897 285.844 389.711C283.806 388.525 281.38 388.126 279.019 387.894C255.196 385.548 230.373 394.396 207.628 386.953C201.299 384.884 195.197 381.424 191.326 375.998C189.819 373.933 188.74 371.587 188.154 369.099C187.568 366.611 187.486 364.031 187.914 361.511V361.421C188.81 356.846 191.229 355.718 195.235 353.63C199.86 351.188 204.694 349.163 209.679 347.579C219.355 344.557 229.773 343.468 239.759 345.685C244.423 346.729 248.92 348.456 253.59 349.467C255.429 349.867 257.28 350.15 259.144 350.389C262.041 350.75 264.95 350.988 267.866 351.323C277.189 352.396 286.371 354.459 295.256 357.477C298.565 358.599 301.875 359.881 304.72 361.911C306.975 363.545 308.882 365.612 310.328 367.991C311.775 370.37 312.732 373.013 313.144 375.766C313.415 377.661 313.422 379.632 313.835 381.469C314.226 383.013 314.744 384.521 315.383 385.98C320.895 399.594 325.399 413.594 328.859 427.867C329.055 428.927 329.419 429.95 329.936 430.896C330.762 432.23 332.181 433.125 333.013 434.459C334.948 437.604 333.084 441.993 334.8 445.266C335.394 446.4 336.38 447.296 336.974 448.43C338.896 452.103 336.039 456.569 332.736 459.128Z" fill="#454B69"/>
<path opacity="0.1" d="M299.772 385.083C300.689 384.358 301.48 383.487 302.114 382.505C302.75 381.519 303.002 380.334 302.823 379.174C303.075 380.641 302.979 382.147 302.543 383.57C302.108 384.993 301.344 386.295 300.314 387.371C298.695 389.027 295.657 390.651 293.289 390.084C293.625 388.189 298.269 386.372 299.772 385.083Z" fill="black"/>
<path opacity="0.1" d="M259.467 352.967C259.272 353.657 258.908 354.289 258.408 354.804C257.908 355.319 257.288 355.702 256.603 355.918C255.227 356.338 253.787 356.506 252.352 356.414H251.061C234.134 356.04 217.027 352.29 200.493 355.866C198.5 356.277 196.545 356.852 194.648 357.587C192.232 358.539 189.969 359.841 187.933 361.453V361.363C188.83 356.788 191.249 355.66 195.255 353.572C199.875 351.151 204.702 349.145 209.679 347.579C219.355 344.557 229.773 343.468 239.759 345.685C244.423 346.729 248.92 348.456 253.59 349.467C255.429 349.867 257.28 350.15 259.144 350.389C259.506 351.197 259.618 352.094 259.467 352.967Z" fill="black"/>
<path d="M259.467 352.045C259.274 352.737 258.911 353.37 258.411 353.886C257.91 354.403 257.289 354.787 256.603 355.003C255.228 355.424 253.787 355.59 252.352 355.492H251.062C234.135 355.119 217.027 351.368 200.493 354.945C198.502 355.356 196.547 355.929 194.649 356.659C192.118 357.667 189.757 359.058 187.65 360.783C187.155 359.425 186.663 358.066 186.172 356.704C185.579 355.08 187.463 354.719 187.824 353.263C188.062 352.277 187.656 351.155 187.45 350.105C187.397 349.848 187.362 349.587 187.346 349.325C187.23 346.999 188.062 345.659 189.972 344.402C195.636 340.664 202.545 338.099 209.008 336.173C212.445 335.087 215.995 334.4 219.588 334.123C224.671 333.827 229.748 334.768 234.696 335.96C240.779 337.462 246.798 339.446 252.191 342.623C254.842 344.183 257.416 346.122 258.829 348.861C259.398 349.819 259.623 350.942 259.467 352.045Z" fill="#A26565"/>
<path opacity="0.1" d="M204.977 313.34C203.041 319.469 197.758 324.991 191.326 325.256C190.859 325.31 190.385 325.225 189.965 325.011C189.159 324.508 189.14 323.329 189.469 322.433C189.798 321.537 190.372 320.732 190.462 319.791C190.481 319.599 190.468 319.405 190.423 319.218C193.836 314.41 197.145 309.551 198.455 303.861C198.72 302.881 198.801 301.861 198.693 300.852C198.519 299.692 197.932 298.641 197.61 297.52C197.042 295.535 197.306 293.434 197.468 291.379C198.145 282.316 196.631 273.224 193.055 264.868C192.184 262.857 191.191 260.821 190.888 258.675C191.334 257.82 192.095 257.171 193.01 256.864C195.126 256.155 196.513 257.257 196.823 259.261C197.339 262.67 197.042 266.15 197.719 269.572C198.346 272.772 199.294 275.9 200.551 278.909C201.693 281.629 203.08 284.258 203.957 287.074C204.618 289.395 205.09 291.766 205.37 294.163C206.254 300.588 206.931 307.212 204.977 313.34Z" fill="black"/>
<path opacity="0.1" d="M259.467 352.045C259.274 352.737 258.911 353.37 258.41 353.887C257.91 354.403 257.289 354.787 256.603 355.003C255.228 355.424 253.787 355.59 252.352 355.493H251.062C245.551 351.837 238.927 350.239 232.354 350.982C230.251 351.233 228.148 351.723 226.045 351.53C221.794 351.143 218.349 348.088 214.562 346.136C210.254 344.01 205.407 343.22 200.645 343.865C195.883 344.51 191.423 346.562 187.837 349.757L187.469 350.08C187.416 349.822 187.381 349.562 187.366 349.3C187.249 346.973 188.082 345.633 189.991 344.377C195.655 340.639 202.564 338.074 209.028 336.147C212.464 335.062 216.014 334.374 219.607 334.098C224.69 333.802 229.767 334.742 234.715 335.935C240.798 337.436 246.817 339.421 252.21 342.598C254.861 344.157 257.435 346.097 258.848 348.836C259.416 349.803 259.634 350.936 259.467 352.045Z" fill="black"/>
<path d="M273.936 281.455L273.846 281.687C272.401 285.431 269.743 288.595 268.04 292.243C265.892 296.863 265.363 302.044 264.885 307.122C264.473 311.472 264.066 315.848 264.395 320.21C265.221 330.959 270.478 341.154 271.885 351.696C272.231 354.131 272.32 356.596 272.149 359.049C272.033 360.602 271.749 362.271 270.717 363.418C269.685 364.565 267.679 365.017 266.569 363.915C267.066 362.967 267.569 362.026 268.072 361.079C265.124 358.791 260.686 360.435 257.241 359.004C255.725 358.36 254.512 357.2 253.242 356.162C250.341 353.806 246.999 352.054 243.411 351.007C239.822 349.96 236.061 349.64 232.347 350.066C230.244 350.324 228.141 350.814 226.038 350.62C221.787 350.227 218.342 347.179 214.556 345.227C210.247 343.102 205.401 342.311 200.64 342.955C195.878 343.599 191.418 345.649 187.83 348.842C186.927 349.679 185.714 350.659 184.604 350.131C184.176 349.868 183.829 349.491 183.605 349.041C179.379 341.83 182.489 332.532 187.004 325.507C191.52 318.483 197.5 312.007 199.358 303.887C199.626 302.908 199.707 301.887 199.596 300.878C199.422 299.718 198.835 298.667 198.512 297.546C197.945 295.561 198.209 293.461 198.371 291.405C199.047 282.342 197.534 273.25 193.958 264.894C192.926 262.49 191.7 260.054 191.7 257.444C191.7 253.333 194.648 249.924 197.087 246.618C199.893 242.816 202.248 238.608 205.802 235.483C209.169 232.512 214.046 230.695 218.213 232.202C225.295 230.492 232.584 229.789 239.863 230.115C242.378 230.231 244.978 230.495 247.184 231.713C249.545 233.002 251.242 235.296 253.564 236.668C255.261 237.68 257.215 238.157 259.06 238.866C264.158 240.858 268.364 244.623 270.904 249.466C273.484 254.461 274.13 260.202 274.697 265.796C275.252 271.022 275.768 276.5 273.936 281.455Z" fill="#F57B20"/>
<path opacity="0.1" d="M264.395 320.209C265.221 330.958 270.479 341.153 271.885 351.695C269.072 349.298 265.17 346.927 264.634 344.162C264.054 341.172 262.196 337.254 261.886 334.232C261.576 331.209 263.699 327.517 261.473 325.442C260.389 324.43 263.273 324.714 262.215 323.676C259.835 321.363 259.248 317.799 259.099 314.493C258.848 308.642 259.59 302.726 258.512 296.972C257.867 293.421 256.519 290.038 255.442 286.59C254.19 282.575 253.287 278.464 252.384 274.346C251.495 270.685 250.849 266.97 250.449 263.224C250.171 260.001 250.3 256.586 251.739 253.648C253.177 250.709 256.087 248.325 259.351 248.37C270.266 248.512 268.382 263.294 270.782 270.125C271.743 272.845 273.04 275.474 273.562 278.309C273.753 279.421 273.856 280.546 273.872 281.673C272.427 285.417 269.769 288.581 268.066 292.229C265.918 296.849 265.389 302.03 264.911 307.108C264.473 311.471 264.066 315.847 264.395 320.209Z" fill="black"/>
<path d="M271.491 269.959C272.452 272.678 273.749 275.308 274.272 278.143C275.142 282.892 273.794 287.938 275.259 292.539C275.64 293.522 275.959 294.527 276.213 295.549C276.465 297.012 276.175 298.507 276.175 299.995C276.175 302.393 276.929 304.712 277.6 307.013C279.869 314.829 281.37 322.847 282.084 330.953C282.19 333.132 282.534 335.293 283.109 337.397C283.38 338.11 283.613 338.837 283.806 339.575C283.979 340.56 284.02 341.563 283.929 342.559C283.754 345.717 283.4 348.887 283.754 352.032C284.109 355.177 285.257 358.366 287.625 360.474C285.509 360.931 283.271 361.389 281.206 360.712C278.303 359.765 276.562 356.846 275.084 354.191C273.214 350.801 266.105 347.746 265.369 343.938C264.795 340.954 262.937 337.036 262.628 334.008C262.318 330.979 264.434 327.299 262.208 325.224C261.131 324.212 264.015 324.49 262.95 323.458C260.576 321.145 259.989 317.581 259.841 314.269C259.589 308.424 260.325 302.508 259.254 296.754C258.609 293.203 257.261 289.82 256.183 286.366C254.932 282.358 254.029 278.246 253.126 274.122C252.234 270.461 251.588 266.746 251.19 262.999C250.913 259.777 251.036 256.355 252.481 253.417C253.926 250.478 256.835 248.1 260.093 248.139C270.962 248.339 269.092 263.128 271.491 269.959Z" fill="#F57B20"/>
<path opacity="0.1" d="M240.385 272.479C241.404 273.671 242.714 274.979 244.256 274.747C244.139 274.932 243.953 275.064 243.74 275.115C243.527 275.166 243.302 275.131 243.114 275.018C242.744 274.773 242.447 274.432 242.256 274.032L240.05 270.313C239.759 269.83 237.76 267.014 237.269 268.638C237.076 269.327 239.888 271.899 240.385 272.479Z" fill="black"/>
<path opacity="0.1" d="M239.199 281.751C239.135 280.536 238.622 279.388 237.76 278.529C236.985 277.826 236.08 277.281 235.096 276.924C232.677 275.932 229.813 275.133 227.187 275.262C228.142 276.654 231.206 277.485 232.741 278.271C234.917 279.392 237.07 280.552 239.199 281.751Z" fill="black"/>
<path opacity="0.1" d="M246.069 308.147C245.623 311.446 242.92 313.947 240.185 315.88C237.45 317.813 234.38 319.476 232.593 322.273C231.354 324.206 230.799 326.448 229.748 328.465C228.587 330.689 226.851 332.558 225.464 334.645C224.077 336.733 222.994 339.227 223.419 341.702C223.426 341.816 223.455 341.927 223.506 342.029C223.557 342.131 223.629 342.221 223.716 342.295C223.849 342.351 223.994 342.372 224.138 342.356C224.281 342.34 224.418 342.288 224.535 342.204C227.348 340.735 228.458 337.378 229.638 334.471C230.877 331.538 232.273 328.673 233.818 325.888C234.515 324.599 235.283 323.194 236.579 322.479C237.467 322.109 238.376 321.793 239.302 321.532C240.614 320.93 241.766 320.027 242.662 318.896C246.184 314.699 248.023 309.347 247.823 303.875C247.784 302.721 247.72 297.166 245.985 298.88C244.249 300.595 246.365 305.904 246.069 308.147Z" fill="black"/>
<path d="M250.319 181.602C255.867 184.019 260.641 189.335 260.467 195.361C260.318 201.689 255.016 207.65 256.841 213.713C257.899 217.232 261.086 219.591 263.608 222.265C273.214 232.421 273.194 250.149 263.557 260.285C259.867 264.152 255.125 266.904 251.223 270.596C237.463 283.549 236.876 305.955 244.243 323.348C238.598 324.567 232.845 325.215 227.071 325.281C224.368 325.313 221.058 324.824 220.078 322.304C219.175 319.978 220.723 316.833 218.942 315.112C218.104 314.307 216.846 314.197 215.717 314.01C208.453 312.837 202.493 307.044 199.77 300.22C197.048 293.395 197.19 285.714 198.751 278.535C199.861 273.348 201.596 267.638 199.022 262.998C195.797 257.16 186.52 254.698 186.662 248.022C186.778 242.551 193.236 239.89 196.9 235.823C203.66 228.335 200.441 216.716 200.428 206.625C200.428 197.745 203.538 188.581 210.156 182.666C220 173.792 238.959 176.672 250.319 181.602Z" fill="#A26565"/>
<g opacity="0.1">
<path opacity="0.1" d="M200.08 256.382C197.248 251.279 189.81 248.752 188.082 243.732C187.217 244.904 186.73 246.311 186.688 247.766C186.546 254.443 195.81 256.904 199.048 262.749C200.111 264.818 200.559 267.148 200.338 269.464C201.357 264.979 202.254 260.3 200.08 256.382Z" fill="black"/>
<path opacity="0.1" d="M257.583 205.453C258.744 202.07 260.428 198.655 260.512 195.143C260.524 194.762 260.513 194.381 260.48 194.002C259.183 197.862 257.196 201.645 257.583 205.453Z" fill="black"/>
<path opacity="0.1" d="M201.19 223.478C203.409 216.473 201.493 207.786 201.486 200.015C201.486 199.074 201.525 198.126 201.596 197.186C200.832 200.189 200.446 203.276 200.448 206.375C200.461 211.923 201.435 217.942 201.19 223.478Z" fill="black"/>
<path opacity="0.1" d="M264.634 253.695C260.944 257.561 256.203 260.313 252.3 264.005C245.333 270.559 241.753 279.536 240.856 289.054C242.52 281.965 245.881 275.437 251.268 270.366C255.138 266.693 259.912 263.954 263.602 260.055C267.991 255.277 270.54 249.097 270.794 242.617C269.68 246.758 267.565 250.562 264.634 253.695Z" fill="black"/>
<path opacity="0.1" d="M228.148 318.67C225.445 318.67 222.136 318.206 221.155 315.686C220.252 313.366 221.8 310.222 220.02 308.495C219.181 307.689 217.917 307.58 216.795 307.393C209.537 306.226 203.577 300.427 200.854 293.609C198.848 288.569 198.416 283.072 198.919 277.646C198.868 277.859 198.822 278.072 198.777 278.291C197.242 285.47 197.081 293.158 199.796 299.982C202.512 306.806 208.479 312.6 215.737 313.766C216.885 313.953 218.149 314.069 218.962 314.868C220.762 316.595 219.194 319.74 220.097 322.06C221.078 324.579 224.387 325.075 227.09 325.043C232.865 324.977 238.618 324.329 244.262 323.11C243.466 321.23 242.771 319.309 242.179 317.355C237.546 318.178 232.853 318.618 228.148 318.67Z" fill="black"/>
</g>
<path opacity="0.1" d="M249.274 290.567C250.868 291.766 252.597 287.197 251.61 286.057C251.345 286.353 249.029 290.4 249.274 290.567Z" fill="black"/>
<path opacity="0.1" d="M256.067 373.271C257.945 372.627 259.938 371.983 261.164 370.436C262.176 369.192 263.009 364.256 260.867 366.621C259.048 368.638 258.19 371.325 256.067 373.271Z" fill="black"/>
<path opacity="0.1" d="M275.181 368.096C274.956 369.617 274.536 371.196 273.459 372.291C273.259 372.498 272.814 372.626 272.756 372.349C273.959 371.709 275.077 370.921 276.085 370.004C278.265 367.845 278.562 362.528 275.239 361.117C275.207 363.45 275.536 365.751 275.181 368.096Z" fill="black"/>
<path d="M298.127 358.513C298.127 358.513 279.819 351.328 273.201 352.069C266.582 352.81 280.697 363.231 280.697 363.231L289.134 368.914C289.134 368.914 294.295 366.981 294.637 366.833C294.979 366.685 298.127 358.513 298.127 358.513Z" fill="#454B69"/>
<path d="M172.161 281.428C172.161 281.428 185.914 273.463 204.067 283.362C222.219 293.26 225.245 351.509 225.245 351.509C225.245 351.509 217.82 410.859 246.449 397.662C246.449 397.662 298.701 381.454 303.933 385.025C303.933 385.025 308.887 385.025 298.985 387.222C289.083 389.419 250.848 401.509 250.848 401.509C250.848 401.509 238.482 405.826 233.244 401.509C228.006 397.191 213.162 402.063 211.234 372.381C209.957 353.677 207.662 335.056 204.357 316.601L199.254 301.489L172.161 281.428Z" fill="#565661"/>
<path d="M170.51 373.207C170.51 373.207 176.561 313.031 166.639 291.321C158.008 272.401 191.385 281.248 200.093 283.826C201.441 284.229 202.617 285.067 203.435 286.21C208.596 293.46 227.11 322.517 221.652 361.394C221.652 361.394 219.452 396.019 233.206 401.509L190.83 387.873C187.392 386.765 183.902 385.844 180.379 385.044C175.89 384.026 168.574 381.133 170.51 373.207Z" fill="white"/>
<path d="M430.208 265.551C430.208 265.551 427.247 279.328 440.427 280.959L441.246 279.431C441.246 279.431 431.028 269.836 430.208 265.551Z" fill="#F57B20"/>
<path d="M445.433 279.321L442.368 279.966L442.065 280.037C442.065 280.037 433.886 273.406 433.989 258.604C435.076 260.782 436.372 262.849 437.859 264.777C441.136 269.088 444.82 274.778 445.433 279.321Z" fill="#F57B20"/>
<path d="M446.471 280.747C446.229 280.903 445.955 281.003 445.67 281.04C445.384 281.076 445.094 281.049 444.82 280.959C436.95 279.123 439.614 253.514 439.614 253.514C440.046 253.713 440.523 256.968 442.33 261.176C445.51 268.567 449.006 278.891 446.471 280.747Z" fill="#F57B20"/>
<path d="M463.921 265.551C463.921 265.551 464.43 279.328 451.251 280.959L450.438 279.431C450.438 279.431 463.102 269.836 463.921 265.551Z" fill="#F57B20"/>
<path d="M460.141 258.609C460.244 273.412 449.652 280.043 449.652 280.043L449.348 279.972L446.284 279.327C446.891 274.784 450.58 269.068 453.812 264.789C455.636 262.457 457.765 260.378 460.141 258.609Z" fill="#F57B20"/>
<path d="M449.264 279.398C448.79 279.973 448.189 280.432 447.51 280.739C447.303 280.832 447.086 280.903 446.865 280.952C444.929 281.403 444.284 280.011 444.362 277.639C444.542 273.418 447.2 266.104 449.58 260.633C451.296 256.689 454.096 253.699 454.522 253.506C454.522 253.512 454.406 273.451 449.264 279.398Z" fill="#F57B20"/>
<path d="M447.071 244.529C447.071 244.529 438.285 275.655 445.845 280.346C453.406 285.037 449.006 247.281 447.071 244.529Z" fill="#F57B20"/>
<path opacity="0.1" d="M430.208 265.551C430.208 265.551 427.247 279.328 440.427 280.959L441.246 279.431C441.246 279.431 431.028 269.836 430.208 265.551Z" fill="black"/>
<path opacity="0.1" d="M445.433 279.321L442.368 279.966L442.065 280.037C442.065 280.037 433.886 273.406 433.989 258.604C435.076 260.782 436.372 262.849 437.859 264.777C441.136 269.088 444.82 274.778 445.433 279.321Z" fill="black"/>
<path opacity="0.1" d="M446.471 280.747C446.229 280.903 445.955 281.003 445.67 281.04C445.384 281.076 445.094 281.049 444.82 280.959C436.95 279.123 439.614 253.514 439.614 253.514C440.046 253.713 440.523 256.968 442.33 261.176C445.51 268.567 449.006 278.891 446.471 280.747Z" fill="black"/>
<path opacity="0.1" d="M463.921 265.551C463.921 265.551 464.43 279.328 451.251 280.959L450.438 279.431C450.438 279.431 463.102 269.836 463.921 265.551Z" fill="black"/>
<path opacity="0.1" d="M460.141 258.609C460.244 273.412 449.652 280.043 449.652 280.043L449.348 279.972L446.284 279.327C446.891 274.784 450.58 269.068 453.812 264.789C455.636 262.457 457.765 260.378 460.141 258.609Z" fill="black"/>
<path opacity="0.1" d="M449.264 279.398C448.79 279.973 448.189 280.432 447.51 280.739C447.303 280.832 447.086 280.903 446.865 280.952C444.929 281.403 444.284 280.011 444.362 277.639C444.542 273.418 447.2 266.104 449.58 260.633C451.296 256.689 454.096 253.699 454.522 253.506C454.522 253.512 454.406 273.451 449.264 279.398Z" fill="black"/>
<path opacity="0.1" d="M447.071 244.529C447.071 244.529 438.285 275.655 445.845 280.346C453.406 285.037 449.006 247.281 447.071 244.529Z" fill="black"/>
<path d="M430.209 265.551C430.209 265.551 428.473 279.328 441.653 280.959L442.472 279.431C442.472 279.431 431.028 269.836 430.209 265.551Z" fill="#F57B20"/>
<path d="M446.658 279.321L443.594 279.966L443.291 280.037C443.291 280.037 433.885 273.406 433.989 258.604C433.989 258.604 436.401 261.181 439.117 264.777C442.362 269.088 446.045 274.778 446.658 279.321Z" fill="#F57B20"/>
<path opacity="0.1" d="M446.658 279.322L443.594 279.966C440.691 277.421 439.536 270.77 439.117 264.777C442.362 269.088 446.045 274.779 446.658 279.322Z" fill="black"/>
<path d="M447.716 280.747C447.474 280.903 447.2 281.003 446.915 281.04C446.629 281.076 446.338 281.049 446.065 280.959C438.195 279.123 439.614 253.514 439.614 253.514C440.046 253.713 441.749 256.968 443.555 261.176C446.736 268.567 450.219 278.891 447.716 280.747Z" fill="#F57B20"/>
<path d="M463.921 265.551C463.921 265.551 465.656 279.328 452.477 280.959L451.664 279.431C451.664 279.431 463.101 269.836 463.921 265.551Z" fill="#F57B20"/>
<path d="M460.141 258.609C460.244 273.431 450.845 280.043 450.845 280.043L450.542 279.972L447.478 279.327C448.084 274.784 451.774 269.068 455.006 264.789C457.734 261.187 460.141 258.609 460.141 258.609Z" fill="#F57B20"/>
<path opacity="0.1" d="M455.006 264.783C454.612 270.37 453.593 276.524 451.135 279.405C450.961 279.607 450.774 279.796 450.574 279.972L447.51 279.328C448.084 274.778 451.774 269.088 455.006 264.783Z" fill="black"/>
<path d="M450.49 279.398C450.015 279.973 449.415 280.432 448.736 280.739C448.529 280.832 448.312 280.903 448.09 280.952C446.155 281.403 445.478 280.011 445.587 277.639C445.768 273.418 448.426 266.104 450.806 260.633C452.522 256.689 454.109 253.699 454.522 253.506C454.522 253.512 455.631 273.451 450.49 279.398Z" fill="#F57B20"/>
<path opacity="0.1" d="M447.716 280.747C447.27 280.745 446.835 280.606 446.471 280.347C442.768 278.047 442.697 269.392 443.575 261.176C446.736 268.567 450.219 278.891 447.716 280.747Z" fill="black"/>
<path opacity="0.1" d="M450.49 279.4C450.064 280.315 449.49 280.805 448.735 280.741C448.359 280.688 448 280.551 447.684 280.341C446.722 279.681 445.991 278.737 445.594 277.641C445.774 273.42 448.432 266.106 450.812 260.635C451.658 268.239 451.941 276.288 450.49 279.4Z" fill="black"/>
<path d="M447.071 244.529C447.071 244.529 439.511 275.655 447.071 280.346C454.631 285.037 449.006 247.281 447.071 244.529Z" fill="#F57B20"/>
<path d="M458.921 281.881L458.392 284.633L456.47 294.737H438.175L436.253 284.633L435.724 281.881H458.921Z" fill="#565661"/>
<path opacity="0.1" d="M458.921 281.881L458.392 284.633H436.253L435.724 281.881H458.921Z" fill="black"/>
<path d="M462.798 278.818H431.337V284.025H462.798V278.818Z" fill="#565661"/>
<path d="M356.585 288.814L339.341 290.199L314.77 288.601L315.196 288.563L337.954 286.372C343.167 284.438 339.554 273.193 339.554 273.193L356.972 274.083L358.359 274.154C364.558 288.601 356.585 288.814 356.585 288.814Z" fill="#D1D9EC"/>
<path opacity="0.1" d="M356.585 288.813L339.341 290.199L314.77 288.601L315.196 288.562L340.032 289.451L356.675 287.647C361.397 286.403 358.694 278.213 356.991 274.082L358.378 274.153C364.558 288.601 356.585 288.813 356.585 288.813Z" fill="black"/>
<path d="M386.755 186.482L381.485 262.001L380.795 271.918C380.718 273.01 380.227 274.031 379.423 274.775C378.619 275.518 377.562 275.928 376.466 275.92H374.866L295.521 275.437C295.211 275.435 294.905 275.368 294.623 275.241C294.341 275.115 294.088 274.93 293.881 274.7C293.674 274.471 293.517 274.2 293.421 273.906C293.324 273.613 293.29 273.302 293.321 272.994L294.005 266.299L299.585 211.485C299.674 210.618 300.008 209.794 300.548 209.109C301.088 208.424 301.813 207.907 302.636 207.618L378.26 181.462C380.84 180.572 383.42 180.888 385.091 182.248C385.696 182.762 386.164 183.418 386.455 184.156C386.745 184.895 386.848 185.694 386.755 186.482Z" fill="#4C4C56"/>
<path d="M381.485 262L380.795 271.918C380.718 273.009 380.227 274.031 379.423 274.774C378.619 275.517 377.562 275.927 376.466 275.919H374.866L295.521 275.436C295.211 275.434 294.905 275.367 294.623 275.241C294.341 275.114 294.088 274.93 293.881 274.7C293.674 274.47 293.517 274.2 293.421 273.906C293.324 273.612 293.29 273.301 293.321 272.994L294.005 266.298L381.485 262Z" fill="#DFE6F5"/>
<path d="M328.291 272.349C328.879 272.349 329.356 271.397 329.356 270.222C329.356 269.048 328.879 268.096 328.291 268.096C327.704 268.096 327.227 269.048 327.227 270.222C327.227 271.397 327.704 272.349 328.291 272.349Z" fill="white"/>
<path d="M367.132 291.301C367.132 291.301 388.833 283.117 394.684 289.071C394.684 289.071 395.638 290.875 391.703 291.301L375.802 292.59C375.802 292.59 369.261 293.215 367.132 291.301Z" fill="#D1D9EC"/>
<path d="M367.725 289.175C371.989 287.435 384.82 282.93 393.032 287.886C393.032 287.886 383.943 286.881 378.956 289.761C373.97 292.642 367.145 291.275 367.145 291.275L367.048 291.095C366.956 290.926 366.901 290.74 366.886 290.549C366.871 290.358 366.896 290.166 366.96 289.985C367.024 289.804 367.125 289.638 367.257 289.499C367.388 289.359 367.548 289.249 367.725 289.175Z" fill="#DFE6F5"/>
<path d="M386.756 186.481L380.795 271.931C380.718 273.023 380.228 274.044 379.424 274.788C378.619 275.531 377.562 275.94 376.467 275.933H374.867C375.966 274.884 376.901 273.676 377.641 272.35C377.641 272.35 383.492 186.501 383.917 184.374C384.107 183.578 384.516 182.85 385.098 182.273C385.698 182.786 386.162 183.438 386.451 184.171C386.74 184.905 386.845 185.698 386.756 186.481Z" fill="#DFE6F5"/>
<path opacity="0.1" d="M386.756 186.481L380.795 271.931C380.718 273.023 380.228 274.044 379.424 274.788C378.619 275.531 377.562 275.94 376.467 275.933H374.867C375.966 274.884 376.901 273.676 377.641 272.35C377.641 272.35 383.492 186.501 383.917 184.374C384.107 183.578 384.516 182.85 385.098 182.273C385.698 182.786 386.162 183.438 386.451 184.171C386.74 184.905 386.845 185.698 386.756 186.481Z" fill="black"/>
<path opacity="0.1" d="M96.0985 480.553C130.814 480.553 158.956 476.038 158.956 470.468C158.956 464.898 130.814 460.383 96.0985 460.383C61.3834 460.383 33.2412 464.898 33.2412 470.468C33.2412 476.038 61.3834 480.553 96.0985 480.553Z" fill="#F57B20"/>
<path d="M98.1179 277.266H94.0732V368.238H98.1179V277.266Z" fill="#535461"/>
<path d="M123.54 367.961L123.289 372.059L122.928 377.859L122.779 380.269L122.424 386.069L122.27 388.479L121.908 394.279L117.831 460.054C117.654 462.884 116.404 465.54 114.336 467.482C112.267 469.424 109.536 470.505 106.697 470.506H85.4932C82.656 470.505 79.926 469.423 77.8596 467.481C75.7932 465.539 74.5459 462.883 74.3719 460.054L70.282 394.233L69.9272 388.434L69.7789 386.024L69.4112 380.224L69.2628 377.814L68.908 372.014L68.65 367.916C68.6053 367.13 68.7212 366.343 68.9904 365.604C69.2597 364.865 69.6768 364.188 70.2163 363.614C70.7558 363.041 71.4064 362.583 72.1286 362.269C72.8508 361.955 73.6294 361.791 74.417 361.787H117.78C118.571 361.792 119.353 361.958 120.077 362.275C120.802 362.592 121.454 363.054 121.994 363.632C122.533 364.21 122.949 364.892 123.215 365.637C123.481 366.381 123.591 367.172 123.54 367.961Z" fill="#565661"/>
<path d="M123.289 372.061L122.928 377.841H69.2695L68.9082 372.061H123.289Z" fill="#9D9CB5"/>
<path d="M122.78 380.256L122.425 386.043H69.7792L69.418 380.256H122.78Z" fill="#9D9CB5"/>
<path d="M122.27 388.453L121.908 394.234H70.282L69.9272 388.453H122.27Z" fill="#9D9CB5"/>
<path d="M62.7281 311.363C86.2866 328.389 96.0984 355.016 96.0984 355.016C96.0984 355.016 67.7146 354.043 44.1495 337.017C20.5845 319.992 10.7856 293.371 10.7856 293.371C10.7856 293.371 39.1759 294.344 62.7281 311.363Z" fill="#F57B20"/>
<path d="M10.7856 293.371C10.7856 293.371 40.2468 309.688 49.6973 323.22C59.1478 336.753 96.0919 355.003 96.0919 355.003" stroke="#535461" stroke-width="2" stroke-miterlimit="10"/>
<path d="M77.9327 277.067C90.7571 286.327 96.0984 300.826 96.0984 300.826C96.0984 300.826 80.6163 300.291 67.8242 291.031C55.0321 281.771 49.6973 267.271 49.6973 267.271C49.6973 267.271 65.1148 267.8 77.9327 277.067Z" fill="#F57B20"/>
<path d="M49.6973 267.271C49.6973 267.271 65.7341 276.164 70.8755 283.524C76.0168 290.883 96.1306 300.826 96.1306 300.826" stroke="#535461" stroke-width="2" stroke-miterlimit="10"/>
<path d="M114.729 300.085C100.014 316.253 96.8857 337.397 96.8857 337.397C96.8857 337.397 117.651 332.306 132.366 316.131C147.08 299.956 150.209 278.832 150.209 278.832C150.209 278.832 129.456 283.91 114.729 300.085Z" fill="#F57B20"/>
<path d="M150.222 278.826C150.222 278.826 131.037 295.401 126.16 306.82C121.283 318.239 96.8857 337.397 96.8857 337.397" stroke="#535461" stroke-width="2" stroke-miterlimit="10"/>
<defs>
<linearGradient id="paint0_linear_8783_18664" x1="193.933" y1="118.786" x2="194.81" y2="118.786" gradientUnits="userSpaceOnUse">
<stop stop-color="#808080" stop-opacity="0.25"/>
<stop offset="0.54" stop-color="#808080" stop-opacity="0.12"/>
<stop offset="1" stop-color="#808080" stop-opacity="0.1"/>
</linearGradient>
<linearGradient id="paint1_linear_8783_18664" x1="194.81" y1="119.126" x2="199.784" y2="119.126" gradientUnits="userSpaceOnUse">
<stop stop-color="#808080" stop-opacity="0.25"/>
<stop offset="0.54" stop-color="#808080" stop-opacity="0.12"/>
<stop offset="1" stop-color="#808080" stop-opacity="0.1"/>
</linearGradient>
<linearGradient id="paint2_linear_8783_18664" x1="273.162" y1="351.04" x2="274.659" y2="351.04" gradientUnits="userSpaceOnUse">
<stop stop-color="#808080" stop-opacity="0.25"/>
<stop offset="0.54" stop-color="#808080" stop-opacity="0.12"/>
<stop offset="1" stop-color="#808080" stop-opacity="0.1"/>
</linearGradient>
</defs>
</svg>
