<svg width="115" height="22" viewBox="0 0 115 22" fill="none" xmlns="http://www.w3.org/2000/svg">
<path d="M14.9448 15.4374C16.0102 15.4374 16.874 14.5737 16.874 13.5083C16.874 12.4428 16.0102 11.5791 14.9448 11.5791C13.8794 11.5791 13.0156 12.4428 13.0156 13.5083C13.0156 14.5737 13.8794 15.4374 14.9448 15.4374Z" fill="url(#paint0_linear_4015_19801)"/>
<path d="M14.9526 20.1903C16.018 20.1861 16.8782 19.3189 16.874 18.2534C16.8696 17.188 16.0025 16.3277 14.937 16.332C13.8716 16.3363 13.0114 17.2035 13.0156 18.2689C13.02 19.3343 13.8871 20.1946 14.9526 20.1903Z" fill="url(#paint1_linear_4015_19801)"/>
<path d="M15.342 0.00622536C15.3002 0.0100266 15.2603 0.0138279 15.2185 0.0176293C14.9866 0.0442383 14.7529 0.0765493 14.5209 0.110761L14.2415 0.152575L14.1351 0.169681L14.1123 0.173482C11.5731 0.688558 9.67809 1.82895 8.31724 3.65927C8.15569 3.87785 8.00554 4.10022 7.87056 4.3188C6.82903 6.01227 6.4394 7.86731 6.09348 9.5038L5.99654 9.96179C5.70764 11.3322 5.40925 12.7482 4.74591 13.8277C4.67179 13.9456 4.59007 14.0691 4.50073 14.1889C4.16432 14.6374 3.75188 15.0194 3.27481 15.316C2.74454 15.6448 2.15153 15.8634 1.54713 16.0116C1.21451 16.0933 0.89901 16.1104 0.60821 16.3119C0.364921 16.481 0.174857 16.7262 0.0760297 17.0075C0.0608182 17.0532 0.0475161 17.0987 0.0361122 17.1463C0.0114039 17.2508 0 17.3591 0 17.4656C0 18.2391 0.629117 18.8664 1.40268 18.8664C1.4521 18.8664 1.49961 18.8645 1.54523 18.8587L1.57183 18.855L1.65166 18.8416L1.68967 18.836L1.74099 18.8265C3.94384 18.3798 5.5746 17.4086 6.7283 15.8576C6.86704 15.6695 6.99439 15.4813 7.10842 15.2951C8.02644 13.8011 8.37617 12.1438 8.71449 10.5377L8.81137 10.0796C9.12314 8.59716 9.44623 7.06523 10.2331 5.7842C10.3262 5.63214 10.4307 5.47819 10.5429 5.32614C11.4723 4.07741 12.8122 3.28864 14.6407 2.91422C14.7376 2.89901 14.8327 2.8857 14.9277 2.8724C15.4218 2.80018 15.9521 2.81158 16.3589 2.48277C16.6801 2.22238 16.8701 1.82515 16.8701 1.4127V1.37089C16.8701 0.952744 16.6763 0.553612 16.3475 0.293223C16.2011 0.177284 16.0319 0.0917548 15.8533 0.0423376C15.6861 -0.00327788 15.5112 -0.00897979 15.3382 0.00432471L15.342 0.00622536Z" fill="url(#paint2_linear_4015_19801)"/>
<path d="M15.342 0.00622536C15.3002 0.0100266 15.2603 0.0138279 15.2185 0.0176293C14.9866 0.0442383 14.7529 0.0765493 14.5209 0.110761L14.2415 0.152575L14.1351 0.169681L14.1123 0.173482C11.5731 0.688558 9.67809 1.82895 8.31724 3.65927C8.15569 3.87785 8.00554 4.10022 7.87056 4.3188C6.82903 6.01227 6.4394 7.86731 6.09348 9.5038L5.99654 9.96179C5.70764 11.3322 5.40925 12.7482 4.74591 13.8277C4.67179 13.9456 4.59007 14.0691 4.50073 14.1889C4.16432 14.6374 3.75188 15.0194 3.27481 15.316C2.74454 15.6448 2.15153 15.8634 1.54713 16.0116C1.21451 16.0933 0.89901 16.1104 0.60821 16.3119C0.364921 16.481 0.174857 16.7262 0.0760297 17.0075C0.0608182 17.0532 0.0475161 17.0987 0.0361122 17.1463C0.0114039 17.2508 0 17.3591 0 17.4656C0 18.2391 0.629117 18.8664 1.40268 18.8664C1.4521 18.8664 1.49961 18.8645 1.54523 18.8587L1.57183 18.855L1.65166 18.8416L1.68967 18.836L1.74099 18.8265C3.94384 18.3798 5.5746 17.4086 6.7283 15.8576C6.86704 15.6695 6.99439 15.4813 7.10842 15.2951C8.02644 13.8011 8.37617 12.1438 8.71449 10.5377L8.81137 10.0796C9.12314 8.59716 9.44623 7.06523 10.2331 5.7842C10.3262 5.63214 10.4307 5.47819 10.5429 5.32614C11.4723 4.07741 12.8122 3.28864 14.6407 2.91422C14.7376 2.89901 14.8327 2.8857 14.9277 2.8724C15.4218 2.80018 15.9521 2.81158 16.3589 2.48277C16.6801 2.22238 16.8701 1.82515 16.8701 1.4127V1.37089C16.8701 0.952744 16.6763 0.553612 16.3475 0.293223C16.2011 0.177284 16.0319 0.0917548 15.8533 0.0423376C15.6861 -0.00327788 15.5112 -0.00897979 15.3382 0.00432471L15.342 0.00622536Z" fill="url(#paint3_linear_4015_19801)"/>
<path d="M14.9734 4.31514L15.1065 4.29233C15.1349 4.28853 15.8211 4.1878 15.899 4.17829C15.9427 4.17259 15.9865 4.16879 16.0321 4.16499C16.0568 4.16499 16.0796 4.16309 16.1024 4.16309C16.2982 4.16309 16.454 4.2144 16.5909 4.32274C16.7695 4.46529 16.876 4.68577 16.876 4.91575V4.97847C16.876 5.05639 16.8645 5.13241 16.8417 5.20655C16.7714 5.43272 16.5966 5.61518 16.3761 5.69501C16.2734 5.73112 16.1651 5.74443 16.0606 5.75773C16.0264 5.76154 15.9921 5.76533 15.9599 5.77103L15.5037 5.83566L15.2737 5.86987C14.0212 6.13596 13.8729 6.62632 13.2856 7.41509C13.2058 7.52533 13.1412 7.62226 13.0861 7.7097C12.5007 8.66189 12.2308 9.93915 11.9476 11.2924L11.8506 11.7505C11.4914 13.4573 11.0828 15.3921 9.95951 17.2205C9.81313 17.46 9.64782 17.7033 9.46915 17.9427C7.97142 19.9575 5.32382 21.21 2.56218 21.7707L2.39112 21.8011L2.10032 21.8429C1.72019 21.8961 1.31536 21.9512 0.910518 21.995C0.880103 21.9988 0.849695 22.0006 0.819288 22.0006C0.36883 22.0006 0.00390625 21.6529 0.00390625 21.2233V21.2024C0.00390625 21.1454 0.00960819 21.0902 0.021012 21.0352C0.0894383 20.7254 0.346021 20.482 0.661533 20.4326C0.777473 20.4137 0.895314 20.4022 1.01315 20.3908C1.09488 20.3833 1.17851 20.3737 1.26023 20.3642C1.46361 20.3376 1.66697 20.3091 1.87035 20.2787L2.25238 20.2197C4.61678 19.7408 6.95458 18.686 8.20713 16.9982C8.35728 16.7948 8.49604 16.5895 8.61955 16.3899C9.5984 14.7972 9.97664 13.0049 10.3092 11.4236L10.4062 10.9655C10.7217 9.47157 11.0182 8.06325 11.7461 6.88101C11.8279 6.74797 11.921 6.61112 12.0236 6.47237" fill="url(#paint4_linear_4015_19801)"/>
<path d="M0.81733 22.0008C0.36688 22.0008 0.00195312 21.653 0.00195312 21.2234V21.2025C0.00195312 21.1455 0.00765506 21.0904 0.0190589 21.0352C0.0874797 20.7254 0.34407 20.4822 0.659574 20.4327C0.775514 20.4137 0.893355 20.4023 1.0112 20.3909C1.09293 20.3833 1.17655 20.3738 1.25828 20.3643C1.46165 20.3377 1.66502 20.3092 1.86839 20.2788L2.25042 20.2199C4.61483 19.7409 6.95262 18.686 8.20514 16.9982C8.35529 16.7949 8.49405 16.5897 8.61756 16.3901C9.59641 14.7973 9.97465 13.005 10.3072 11.4237L10.4042 10.9656C10.7197 9.47172 11.0162 8.06333 11.7442 6.88112C11.8259 6.74808 11.919 6.61123 12.0217 6.47248C12.8541 5.353 13.2799 4.85693 14.9752 4.31904L15.1083 4.29624C15.1368 4.29244 15.823 4.1917 15.9009 4.1822C15.9446 4.1765 15.9883 4.1727 16.0339 4.16889C16.0586 4.16889 16.0815 4.16699 16.1042 4.16699C16.3 4.16699 16.4558 4.21831 16.5927 4.32665C16.7714 4.4692 16.8778 4.68967 16.8778 4.91965V4.98237C16.8778 5.0603 16.8664 5.13633 16.8436 5.21045C16.7733 5.43663 16.5984 5.61909 16.3779 5.69891C16.2753 5.73503 16.1669 5.74834 16.0624 5.76164C16.0282 5.76544 15.994 5.76924 15.9617 5.77494L15.5055 5.83957L15.2755 5.87378C13.9717 6.33944 13.8748 6.63024 13.2875 7.419C13.2076 7.52924 13.143 7.62618 13.0879 7.7136C12.5025 8.66581 12.2326 9.94307 11.9495 11.2963L11.8525 11.7544C11.4933 13.4612 11.0846 15.396 9.96137 17.2244C9.81499 17.4639 9.64968 17.7072 9.47101 17.9467C7.97328 19.9614 5.32567 21.2139 2.56403 21.7746L2.39297 21.805L2.10217 21.8468C1.72204 21.9001 1.3172 21.9551 0.912362 21.9989C0.881955 22.0027 0.85154 22.0046 0.821133 22.0046L0.81733 22.0008Z" fill="url(#paint5_linear_4015_19801)"/>
<path d="M24.4574 16.7964C23.5698 16.5265 22.8666 16.1672 22.3496 15.7206L23.1441 13.9397C23.6497 14.3388 24.2693 14.6657 25.0049 14.9185C25.7385 15.1713 26.4778 15.2986 27.2191 15.2986C28.1352 15.2986 28.8214 15.1523 29.2737 14.8577C29.7261 14.5631 29.9523 14.1754 29.9523 13.6945C29.9523 13.341 29.8249 13.0502 29.5721 12.8221C29.3193 12.5922 28.9981 12.4135 28.6103 12.2842C28.2227 12.155 27.6943 12.0086 27.0234 11.8433C26.0825 11.6209 25.3223 11.3966 24.7387 11.1724C24.1571 10.9499 23.6573 10.5983 23.2391 10.1232C22.821 9.64613 22.6138 9.00373 22.6138 8.19216C22.6138 7.50981 22.7982 6.89019 23.1688 6.3314C23.5394 5.77262 24.0982 5.32977 24.8433 4.99905C25.5902 4.67024 26.5045 4.50488 27.5859 4.50488C28.3386 4.50488 29.0779 4.59992 29.8078 4.78618C30.5376 4.97434 31.1667 5.24423 31.6951 5.59776L30.9729 7.37866C30.4312 7.06125 29.8686 6.81987 29.2794 6.65641C28.6921 6.49106 28.1219 6.40933 27.5688 6.40933C26.6641 6.40933 25.9913 6.56328 25.5503 6.86738C25.1094 7.17339 24.8889 7.57823 24.8889 8.08381C24.8889 8.4373 25.0144 8.72433 25.269 8.94857C25.5219 9.17289 25.8431 9.34771 26.2307 9.47696C26.6185 9.60621 27.1488 9.75259 27.8178 9.9179C28.7339 10.1289 29.4866 10.3493 30.0758 10.5793C30.6631 10.8093 31.1667 11.159 31.583 11.6285C32.0012 12.0998 32.2083 12.7347 32.2083 13.533C32.2083 14.2153 32.024 14.833 31.6533 15.3842C31.2827 15.9373 30.722 16.3782 29.9693 16.707C29.2167 17.0358 28.2986 17.2012 27.2172 17.2012C26.265 17.2012 25.3451 17.0663 24.4574 16.7964Z" fill="#2D3A47"/>
<path d="M27.2159 17.2964C26.258 17.2964 25.321 17.1577 24.4277 16.8859C23.5306 16.6122 22.8102 16.2435 22.2856 15.7912L22.2324 15.7455L23.1048 13.7878L23.2018 13.8639C23.6959 14.2554 24.3117 14.5785 25.034 14.8275C25.7543 15.0765 26.488 15.2019 27.2159 15.2019C28.1111 15.2019 28.7839 15.0594 29.2192 14.7762C29.6468 14.4987 29.854 14.1433 29.854 13.6909C29.854 13.364 29.74 13.0998 29.5062 12.8888C29.2648 12.6703 28.9531 12.4954 28.5787 12.37C28.1928 12.2426 27.6626 12.0944 26.9993 11.9309C26.0603 11.7085 25.2887 11.4824 24.7033 11.2581C24.1103 11.03 23.5933 10.6688 23.1676 10.1823C22.7361 9.69008 22.5176 9.01916 22.5176 8.18851C22.5176 7.491 22.7095 6.84669 23.0896 6.27458C23.4679 5.70249 24.0456 5.24443 24.8059 4.90802C25.5624 4.57541 26.4975 4.40625 27.5865 4.40625C28.343 4.40625 29.0976 4.50128 29.8331 4.69135C30.5706 4.88141 31.2149 5.15891 31.749 5.51623L31.8136 5.55995L31.0191 7.51571L30.9241 7.4606C30.3938 7.14889 29.8312 6.9094 29.2534 6.74785C28.6756 6.58629 28.1093 6.50457 27.5675 6.50457C26.6856 6.50457 26.0242 6.65282 25.6023 6.94551C25.1841 7.23441 24.9808 7.60694 24.9808 8.08401C24.9808 8.41094 25.0948 8.67133 25.3286 8.87656C25.57 9.09137 25.8836 9.26242 26.2561 9.38593C26.6382 9.5133 27.1703 9.66156 27.8355 9.82499C28.7498 10.036 29.5138 10.2603 30.1049 10.4903C30.7036 10.724 31.2225 11.0851 31.6501 11.566C32.0816 12.0526 32.3002 12.714 32.3002 13.5332C32.3002 14.2307 32.1082 14.8712 31.7281 15.4376C31.3499 16.0021 30.7683 16.4602 30.0023 16.7947C29.2401 17.1273 28.3012 17.2964 27.2121 17.2964H27.2159ZM22.4643 15.6942C22.9642 16.1085 23.6427 16.4487 24.4847 16.7053C25.359 16.9715 26.2789 17.1064 27.2179 17.1064C28.2803 17.1064 29.1926 16.9429 29.932 16.6198C30.6637 16.3005 31.2168 15.8671 31.576 15.3312C31.9333 14.7971 32.1158 14.1908 32.1158 13.5332C32.1158 12.7615 31.9124 12.1419 31.5133 11.6915C31.1065 11.2353 30.6124 10.8894 30.0422 10.667C29.4587 10.4408 28.7041 10.2184 27.7976 10.0094C27.1247 9.84401 26.5887 9.69574 26.201 9.56649C25.8037 9.43347 25.4693 9.24914 25.2069 9.01916C24.9332 8.77771 24.7964 8.46413 24.7964 8.08401C24.7964 7.54802 25.0321 7.11278 25.4997 6.78967C25.9539 6.47416 26.6514 6.3145 27.5732 6.3145C28.132 6.3145 28.7155 6.39813 29.3105 6.56538C29.8693 6.72124 30.4128 6.94932 30.9298 7.24392L31.5817 5.63597C31.0781 5.31096 30.4755 5.05817 29.7875 4.87951C29.0691 4.69515 28.3297 4.60012 27.5885 4.60012C26.526 4.60012 25.6156 4.76358 24.8838 5.08669C24.1578 5.40599 23.6085 5.84314 23.2493 6.38293C22.892 6.92271 22.7095 7.53092 22.7095 8.19047C22.7095 8.97351 22.9129 9.60263 23.312 10.0587C23.7168 10.5207 24.2091 10.8665 24.7736 11.0813C25.3495 11.3037 26.1154 11.5261 27.0448 11.7484C27.7139 11.9119 28.2499 12.0621 28.6395 12.1913C29.0387 12.3243 29.3732 12.5125 29.6354 12.7482C29.9072 12.9953 30.046 13.3127 30.046 13.6909C30.046 14.206 29.8027 14.6241 29.3237 14.9339C28.8581 15.2361 28.1492 15.3901 27.2179 15.3901C26.469 15.3901 25.7144 15.2609 24.9732 15.0061C24.2776 14.7667 23.675 14.4569 23.1809 14.0862L22.4662 15.6923L22.4643 15.6942Z" fill="#2D3A47"/>
<path d="M42.7864 7.61616L38.3769 17.7922C37.9645 18.8147 37.4646 19.5351 36.8773 19.9532C36.29 20.3695 35.5773 20.5786 34.7429 20.5786C34.2735 20.5786 33.8078 20.5025 33.3497 20.3486C32.8916 20.1966 32.5153 19.9837 32.2207 19.7138L33.1027 18.0906C33.3136 18.2902 33.5645 18.4499 33.8515 18.5677C34.1404 18.6855 34.4312 18.7444 34.7239 18.7444C35.1116 18.7444 35.4329 18.6437 35.6856 18.4441C35.9384 18.2446 36.1703 17.9082 36.3832 17.4387L36.5409 17.0681L32.4317 7.61426H34.7239L37.687 14.5801L40.6672 7.61426H42.7846L42.7864 7.61616Z" fill="#2D3A47"/>
<path d="M34.7434 20.674C34.2664 20.674 33.7874 20.5942 33.3199 20.4402C32.8504 20.2844 32.4589 20.0639 32.1566 19.7845L32.1016 19.7351L33.0785 17.939L33.1679 18.0245C33.3712 18.2164 33.6126 18.3704 33.8882 18.4826C34.1637 18.5947 34.445 18.6517 34.7244 18.6517C35.0875 18.6517 35.3916 18.5567 35.6272 18.3723C35.8667 18.1823 36.091 17.8573 36.2963 17.403L36.4389 17.0723L32.2879 7.52344H34.7891L37.6895 14.3429L40.6069 7.52344H42.9315L38.4649 17.8325C38.0487 18.8646 37.5336 19.6058 36.933 20.0335C36.3305 20.4612 35.5949 20.6779 34.7434 20.6779V20.674ZM32.341 19.6933C32.6166 19.9309 32.9644 20.1209 33.3807 20.2578C33.8274 20.406 34.2873 20.482 34.7434 20.482C35.5531 20.482 36.2526 20.2767 36.8228 19.8738C37.393 19.469 37.8852 18.7562 38.2882 17.7546L42.6407 7.7078H40.7324L37.6895 14.8219L34.6636 7.7078H32.5786L36.646 17.0666L36.4712 17.4752C36.2526 17.958 36.0093 18.3096 35.747 18.5168C35.4771 18.7297 35.135 18.838 34.7263 18.838C34.4222 18.838 34.1162 18.7772 33.8179 18.6555C33.5613 18.551 33.3294 18.4122 33.1298 18.2431L32.341 19.6933Z" fill="#2D3A47"/>
<path d="M58.9473 8.54189C59.6411 9.22994 59.9889 10.262 59.9889 11.638V17.0359H57.7842V11.9212C57.7842 11.0982 57.6017 10.4786 57.2368 10.0605C56.8719 9.64236 56.3491 9.43517 55.6668 9.43517C54.9256 9.43517 54.3326 9.67843 53.8859 10.1669C53.4392 10.6554 53.215 11.3511 53.215 12.2576V17.0377H51.0102V11.9231C51.0102 11.1002 50.8278 10.4806 50.4629 10.0624C50.0979 9.64425 49.5753 9.43706 48.8929 9.43706C48.1402 9.43706 47.5435 9.67843 47.1025 10.1593C46.6616 10.6421 46.4411 11.3415 46.4411 12.2576V17.0377H44.2363V7.61626H46.3347V8.81556C46.6882 8.39174 47.1291 8.06858 47.6575 7.84624C48.1859 7.62195 48.7751 7.51172 49.4213 7.51172C50.1264 7.51172 50.7537 7.64476 51.2991 7.90892C51.8465 8.17316 52.278 8.56468 52.5954 9.08168C52.9831 8.58746 53.483 8.20356 54.095 7.92605C54.707 7.65047 55.3818 7.51172 56.123 7.51172C57.3109 7.51172 58.2517 7.85574 58.9455 8.54378L58.9473 8.54189Z" fill="#2D3A47"/>
<path d="M60.0834 17.1293H57.6886V11.9196C57.6886 11.1251 57.5118 10.5188 57.1659 10.1216C56.8219 9.72817 56.3182 9.52859 55.6682 9.52859C54.9592 9.52859 54.3833 9.76423 53.9576 10.2299C53.53 10.6974 53.3133 11.3779 53.3133 12.256V17.1312H50.9185V11.9215C50.9185 11.127 50.7417 10.5207 50.3958 10.1235C50.0518 9.73005 49.5481 9.53048 48.8981 9.53048C48.1777 9.53048 47.5981 9.76423 47.178 10.2223C46.7561 10.6841 46.5413 11.3684 46.5413 12.2579V17.1331H44.1465V7.52148H46.4349V8.5668C46.7656 8.22282 47.1666 7.95104 47.6266 7.75716C48.1645 7.52908 48.7707 7.41504 49.4265 7.41504C50.143 7.41504 50.7892 7.55189 51.3461 7.82178C51.8669 8.07455 52.2907 8.4414 52.61 8.91849C52.9939 8.46419 53.4805 8.10119 54.0602 7.83888C54.6817 7.55759 55.3774 7.41694 56.1282 7.41694C57.3351 7.41694 58.3082 7.77427 59.0172 8.47558C59.7261 9.17887 60.0853 10.2432 60.0853 11.6383V17.1312L60.0834 17.1293ZM57.8786 16.9392H59.8933V11.6364C59.8933 10.2926 59.5531 9.27575 58.8803 8.60868C58.2075 7.94153 57.2818 7.6051 56.1244 7.6051C55.4002 7.6051 54.7312 7.74195 54.1344 8.01185C53.5395 8.27986 53.0472 8.65999 52.6709 9.13896L52.5873 9.24723L52.515 9.13134C52.209 8.63147 51.7852 8.24945 51.2587 7.99472C50.7284 7.73816 50.1107 7.607 49.4226 7.607C48.7916 7.607 48.21 7.71725 47.6969 7.93391C47.1837 8.15061 46.7503 8.46804 46.4101 8.87661L46.2429 9.07814V7.71154H44.3347V16.9392H46.3493V12.2541C46.3493 11.317 46.5793 10.5892 47.0355 10.0912C47.4935 9.59129 48.1188 9.33657 48.8962 9.33657C49.6032 9.33657 50.1545 9.559 50.5384 9.99421C50.9166 10.4275 51.1085 11.0757 51.1085 11.9177V16.9373H53.1232V12.2522C53.1232 11.3265 53.357 10.6024 53.8189 10.0988C54.2826 9.59318 54.9061 9.33657 55.6701 9.33657C56.3771 9.33657 56.9302 9.559 57.3122 9.99421C57.6905 10.4275 57.8824 11.0757 57.8824 11.9177V16.9373L57.8786 16.9392Z" fill="#2D3A47"/>
<path d="M69.2 8.10851C69.9223 8.50765 70.4906 9.07219 70.903 9.80196C71.3135 10.5318 71.5207 11.3719 71.5207 12.3242C71.5207 13.2764 71.3155 14.1202 70.903 14.8558C70.4906 15.5913 69.9242 16.1578 69.2 16.5588C68.4778 16.9579 67.6567 17.1575 66.7406 17.1575C65.471 17.1575 64.4656 16.7337 63.7242 15.8879V20.4551H61.5195V7.61625H63.6179V8.85164C63.9827 8.40504 64.4313 8.07048 64.9673 7.84623C65.5033 7.62195 66.0925 7.51172 66.7406 7.51172C67.6567 7.51172 68.4778 7.71128 69.2 8.11039V8.10851ZM68.4949 14.4586C69.0176 13.9169 69.2799 13.2061 69.2799 12.3242C69.2799 11.4423 69.0176 10.7314 68.4949 10.1897C67.9722 9.64992 67.3051 9.37814 66.4935 9.37814C65.9652 9.37814 65.4881 9.49977 65.0642 9.73926C64.6404 9.98063 64.3059 10.3247 64.0588 10.7713C63.8117 11.218 63.6882 11.735 63.6882 12.3242C63.6882 12.9134 63.8117 13.4303 64.0588 13.877C64.3059 14.3237 64.6404 14.6677 65.0642 14.909C65.4881 15.1504 65.9632 15.2701 66.4935 15.2701C67.3051 15.2701 67.9722 15.0002 68.4949 14.4586Z" fill="#2D3A47"/>
<path d="M63.8187 20.5505H61.4238V7.52153H63.7122V8.59922C64.0543 8.23614 64.463 7.95485 64.9306 7.75911C65.4741 7.53103 66.0842 7.41699 66.74 7.41699C67.6694 7.41699 68.5114 7.62227 69.2469 8.02902C69.9825 8.43571 70.5678 9.01737 70.986 9.75862C71.4041 10.4999 71.6151 11.3627 71.6151 12.3263C71.6151 13.29 71.4041 14.1586 70.986 14.9036C70.5678 15.6506 69.9825 16.236 69.2469 16.6427C68.5133 17.0476 67.6694 17.2547 66.74 17.2547C65.5407 17.2547 64.558 16.8765 63.8187 16.1315V20.5524V20.5505ZM61.6139 20.3604H63.6286V15.6335L63.7958 15.8235C64.5143 16.6446 65.5045 17.0609 66.74 17.0609C67.637 17.0609 68.4487 16.8632 69.1538 16.4736C69.857 16.0839 70.4177 15.5251 70.8188 14.8086C71.2198 14.0921 71.4231 13.2558 71.4231 12.3244C71.4231 11.3931 71.2198 10.5607 70.8188 9.84984C70.4177 9.139 69.857 8.58209 69.1538 8.19245C68.4487 7.80283 67.6351 7.60516 66.74 7.60516C66.109 7.60516 65.5254 7.7154 65.0046 7.93207C64.4876 8.14877 64.0448 8.47759 63.6932 8.90902L63.524 9.11614V7.70969H61.6158V20.3604H61.6139ZM66.4929 15.3655C65.9493 15.3655 65.4532 15.2401 65.0179 14.9911C64.5808 14.7421 64.2311 14.3829 63.9764 13.9229C63.7217 13.4629 63.5944 12.927 63.5944 12.3244C63.5944 11.722 63.7236 11.1859 63.9764 10.726C64.2311 10.266 64.5808 9.90688 65.0179 9.65789C65.4532 9.4089 65.9512 9.28342 66.4948 9.28342C67.3292 9.28342 68.0248 9.56659 68.5646 10.1235C69.1025 10.6804 69.3761 11.4217 69.3761 12.3244C69.3761 13.2273 69.1025 13.9686 68.5646 14.5254C68.0248 15.0823 67.3292 15.3655 66.4948 15.3655H66.4929ZM66.4929 9.47537C65.9835 9.47537 65.5178 9.59322 65.1111 9.82509C64.7043 10.057 64.3794 10.3915 64.1418 10.8211C63.9042 11.2525 63.7825 11.7581 63.7825 12.3263C63.7825 12.8946 63.9023 13.4021 64.1418 13.8317C64.3794 14.2612 64.7043 14.5957 65.1111 14.8277C65.5178 15.0595 65.9835 15.1774 66.4929 15.1774C67.274 15.1774 67.924 14.915 68.4258 14.3943C68.9295 13.8735 69.1842 13.1779 69.1842 12.3263C69.1842 11.4749 68.9295 10.7793 68.4258 10.2585C67.924 9.7396 67.2721 9.47537 66.4929 9.47537Z" fill="#2D3A47"/>
<path d="M81.2499 8.54969C81.9664 9.24348 82.3263 10.2717 82.3263 11.6364V17.0342H80.1208V11.9195C80.1208 11.0966 79.9275 10.477 79.5394 10.0588C79.152 9.64066 78.5989 9.43354 77.8823 9.43354C77.0707 9.43354 76.4301 9.6768 75.9607 10.1653C75.4893 10.6538 75.2555 11.3551 75.2555 12.2731V17.0342H73.0508V3.94824H75.2555V8.70935C75.6205 8.3216 76.069 8.02515 76.605 7.81796C77.141 7.6127 77.7358 7.51006 78.3954 7.51006C79.5834 7.51006 80.5357 7.85787 81.2522 8.55158L81.2499 8.54969Z" fill="#2D3A47"/>
<path d="M82.4204 17.1286H80.0256V11.9189C80.0256 11.1244 79.837 10.52 79.4685 10.1228C79.1016 9.72747 78.5657 9.5279 77.8798 9.5279C77.0985 9.5279 76.475 9.76353 76.0265 10.2311C75.5761 10.6987 75.348 11.3848 75.348 12.2724V17.1305H72.9531V3.85254H75.348V8.48062C75.6901 8.16319 76.0987 7.91042 76.5682 7.72986C77.1118 7.52079 77.7257 7.41435 78.3929 7.41435C79.5997 7.41435 80.5842 7.77358 81.3157 8.4825C82.0496 9.19145 82.4204 10.2539 82.4204 11.6376V17.1305V17.1286ZM80.2157 16.9385H82.2303V11.6357C82.2303 10.3052 81.8783 9.2903 81.1829 8.61749C80.4876 7.9446 79.5486 7.60442 78.3929 7.60442C77.7504 7.60442 77.1593 7.70705 76.6366 7.90665C76.1177 8.10622 75.6749 8.39702 75.3232 8.77329L75.1598 8.94819V4.0426H73.1451V16.9385H75.1598V12.2705C75.1598 11.3316 75.4069 10.6017 75.8915 10.0981C76.3781 9.59248 77.0491 9.33783 77.8814 9.33783C78.6231 9.33783 79.2045 9.5583 79.6092 9.99351C80.0122 10.4269 80.2173 11.075 80.2173 11.9189V16.9385H80.2157Z" fill="#2D3A47"/>
<path d="M86.2884 16.5397C85.5239 16.1292 84.9276 15.5552 84.4978 14.8196C84.068 14.0841 83.8535 13.2536 83.8535 12.3241C83.8535 11.3947 84.068 10.566 84.4978 9.83806C84.9276 9.10821 85.5239 8.53801 86.2884 8.12748C87.0522 7.71693 87.9109 7.50977 88.8632 7.50977C89.8155 7.50977 90.6916 7.71503 91.4561 8.12748C92.2198 8.5399 92.8169 9.11009 93.2467 9.83806C93.6757 10.5679 93.891 11.3966 93.891 12.3241C93.891 13.2516 93.6757 14.086 93.2467 14.8196C92.8169 15.5552 92.2198 16.1273 91.4561 16.5397C90.6916 16.9522 89.8273 17.1575 88.8632 17.1575C87.8999 17.1575 87.0522 16.9522 86.2884 16.5397ZM90.8747 14.4585C91.4027 13.9169 91.669 13.206 91.669 12.3241C91.669 11.4422 91.4042 10.7313 90.8747 10.1897C90.3459 9.64988 89.6749 9.3781 88.8632 9.3781C88.0516 9.3781 87.3845 9.64799 86.862 10.1897C86.3395 10.7313 86.0771 11.4422 86.0771 12.3241C86.0771 13.206 86.3395 13.9169 86.862 14.4585C87.3845 15.0002 88.0516 15.2701 88.8632 15.2701C89.6749 15.2701 90.3443 15.0002 90.8747 14.4585Z" fill="#2D3A47"/>
<path d="M88.863 17.2528C87.8989 17.2528 87.0173 17.0418 86.2434 16.6236C85.4679 16.2055 84.8527 15.6163 84.4174 14.8674C83.9821 14.1204 83.7598 13.2652 83.7598 12.3244C83.7598 11.3836 83.9798 10.5301 84.4174 9.78887C84.8527 9.04763 85.4679 8.46031 86.2434 8.04223C87.0189 7.62596 87.8989 7.41309 88.863 7.41309C89.8263 7.41309 90.7251 7.62406 91.5006 8.04223C92.2761 8.46031 92.8921 9.04763 93.3274 9.78887C93.7627 10.5301 93.9851 11.3817 93.9851 12.3244C93.9851 13.2671 93.7643 14.1224 93.3274 14.8674C92.8906 15.6144 92.2761 16.2055 91.5006 16.6236C90.7251 17.0398 89.8381 17.2528 88.863 17.2528ZM88.863 7.60505C87.9311 7.60505 87.0802 7.80842 86.333 8.21139C85.5881 8.61242 84.9965 9.17688 84.5785 9.88772C84.1605 10.5986 83.9476 11.4196 83.9476 12.3263C83.9476 13.2329 84.1605 14.0577 84.5785 14.7743C84.9965 15.4908 85.5858 16.0572 86.3314 16.4583C87.0778 16.8612 87.928 17.0646 88.8606 17.0646C89.794 17.0646 90.6631 16.8612 91.4079 16.4583C92.1528 16.0572 92.742 15.4908 93.16 14.7743C93.578 14.0577 93.791 13.2348 93.791 12.3263C93.791 11.4177 93.578 10.5986 93.16 9.88772C92.742 9.17688 92.1528 8.61431 91.4056 8.21139C90.6591 7.80842 89.8019 7.60505 88.859 7.60505H88.863ZM88.863 15.3654C88.0286 15.3654 87.3324 15.0822 86.7926 14.5253C86.2552 13.9684 85.981 13.229 85.981 12.3244C85.981 11.4196 86.2552 10.6822 86.7926 10.1234C87.3324 9.56652 88.0286 9.28335 88.863 9.28335C89.6974 9.28335 90.3967 9.56652 90.942 10.1234C91.4873 10.6803 91.763 11.4196 91.763 12.3244C91.763 13.229 91.4873 13.9684 90.942 14.5253C90.3967 15.0822 89.6974 15.3654 88.863 15.3654ZM88.863 9.4753C88.082 9.4753 87.4314 9.73757 86.9301 10.2583C86.4265 10.7791 86.1711 11.4748 86.1711 12.3263C86.1711 13.1777 86.4265 13.8753 86.9301 14.3942C87.4314 14.9131 88.082 15.1772 88.863 15.1772C89.644 15.1772 90.2977 14.915 90.8053 14.3942C91.3144 13.8734 91.5713 13.1777 91.5713 12.3263C91.5713 11.4748 91.3128 10.7791 90.8053 10.2583C90.2977 9.73945 89.644 9.4753 88.863 9.4753Z" fill="#2D3A47"/>
<path d="M103.705 8.54941C104.421 9.24319 104.781 10.2714 104.781 11.6361V17.0339H102.577V11.9193C102.577 11.0963 102.382 10.4767 101.994 10.0585C101.607 9.64037 101.054 9.43326 100.337 9.43326C99.5256 9.43326 98.8852 9.67651 98.4154 10.165C97.9439 10.6535 97.7106 11.3548 97.7106 12.2728V17.0339H95.5059V7.6162H97.6037V8.83258C97.9691 8.39737 98.4271 8.06855 98.9803 7.84428C99.5334 7.62 100.157 7.50977 100.85 7.50977C102.038 7.50977 102.991 7.85759 103.707 8.55129L103.705 8.54941Z" fill="#2D3A47"/>
<path d="M104.875 17.1293H102.48V11.9196C102.48 11.1251 102.292 10.5207 101.923 10.1235C101.556 9.72817 101.021 9.5286 100.335 9.5286C99.5536 9.5286 98.9298 9.76423 98.4811 10.2318C98.0309 10.6994 97.8031 11.3855 97.8031 12.2731V17.1312H95.4082V7.52148H97.6962V8.58582C98.0403 8.23044 98.4583 7.95292 98.9416 7.75716C99.5018 7.53098 100.144 7.41504 100.846 7.41504C102.053 7.41504 103.037 7.77427 103.769 8.4832C104.503 9.19215 104.873 10.2546 104.873 11.6383V17.1312L104.875 17.1293ZM102.671 16.9392H104.685V11.6364C104.685 10.3059 104.333 9.291 103.638 8.61819C102.942 7.9453 102.003 7.6051 100.846 7.6051C100.167 7.6051 99.5497 7.71535 99.0115 7.93391C98.4756 8.15061 98.0254 8.47369 97.6734 8.89374L97.5061 9.09331V7.70964H95.5983V16.9373H97.6129V12.2693C97.6129 11.3304 97.8596 10.6005 98.3444 10.0968C98.8308 9.5913 99.5002 9.33657 100.335 9.33657C101.076 9.33657 101.658 9.55704 102.062 9.99232C102.465 10.4256 102.671 11.0738 102.671 11.9177V16.9373V16.9392Z" fill="#2D3A47"/>
<path d="M113.779 8.50568C114.514 9.17086 114.881 10.1725 114.881 11.5124V17.0319H112.8V15.8859C112.531 16.2983 112.144 16.6119 111.644 16.8286C111.145 17.0453 110.542 17.1555 109.837 17.1555C109.132 17.1555 108.514 17.0338 107.986 16.7944C107.457 16.553 107.049 16.2185 106.759 15.7889C106.471 15.3594 106.328 14.8748 106.328 14.333C106.328 13.4873 106.642 12.8068 107.273 12.2956C107.902 11.7843 108.893 11.5277 110.246 11.5277H112.681V11.387C112.681 10.7294 112.483 10.2238 112.089 9.87031C111.696 9.51681 111.111 9.34191 110.335 9.34191C109.806 9.34191 109.286 9.42363 108.775 9.58902C108.263 9.75441 107.832 9.98243 107.478 10.2771L106.613 8.67288C107.108 8.2966 107.701 8.00958 108.395 7.80811C109.088 7.60855 109.824 7.50781 110.599 7.50781C111.987 7.50781 113.047 7.84042 113.783 8.50371L113.779 8.50568ZM111.768 15.1731C112.197 14.9203 112.5 14.5592 112.677 14.0879V12.995H110.401C109.132 12.995 108.497 13.4131 108.497 14.2475C108.497 14.6467 108.657 14.964 108.974 15.1997C109.292 15.4354 109.733 15.5532 110.297 15.5532C110.862 15.5532 111.34 15.4278 111.77 15.1731H111.768Z" fill="#2D3A47"/>
<path d="M109.836 17.2527C109.122 17.2527 108.485 17.1272 107.945 16.882C107.401 16.635 106.976 16.2853 106.679 15.8424C106.381 15.3995 106.23 14.892 106.23 14.3352C106.23 13.4628 106.56 12.7519 107.209 12.2236C107.854 11.7009 108.873 11.4348 110.241 11.4348H112.581V11.3892C112.581 10.7619 112.393 10.2754 112.022 9.94283C111.647 9.60827 111.079 9.43722 110.33 9.43722C109.813 9.43722 109.299 9.51894 108.798 9.67859C108.301 9.83825 107.875 10.0645 107.535 10.3495L107.445 10.4237L106.487 8.64467L106.552 8.59525C107.054 8.21324 107.662 7.91671 108.365 7.71524C109.065 7.51377 109.816 7.41113 110.597 7.41113C112.001 7.41113 113.094 7.75515 113.842 8.43174C114.595 9.11225 114.975 10.1481 114.975 11.5089V17.1235H112.704V16.1693C112.44 16.483 112.098 16.7319 111.682 16.9144C111.173 17.1368 110.551 17.2489 109.836 17.2489V17.2527ZM110.241 11.6268C108.918 11.6268 107.938 11.8777 107.329 12.3718C106.727 12.8622 106.421 13.5217 106.421 14.3352C106.421 14.8541 106.561 15.3254 106.837 15.7379C107.114 16.1503 107.512 16.4772 108.023 16.7091C108.538 16.9429 109.148 17.0627 109.836 17.0627C110.524 17.0627 111.119 16.9562 111.606 16.7433C112.086 16.5343 112.461 16.2282 112.72 15.8348L112.894 15.5687V16.9391H114.785V11.5147C114.785 10.2089 114.425 9.22052 113.715 8.57812C113.001 7.93384 111.951 7.6069 110.594 7.6069C109.831 7.6069 109.099 7.70574 108.416 7.90343C107.768 8.08964 107.202 8.35954 106.73 8.7036L107.503 10.1367C107.846 9.87054 108.262 9.65769 108.739 9.50377C109.259 9.33649 109.792 9.25289 110.33 9.25289C111.127 9.25289 111.739 9.43911 112.149 9.80596C112.562 10.1766 112.772 10.7087 112.772 11.393V11.6287H110.243L110.241 11.6268ZM110.294 15.6485C109.71 15.6485 109.247 15.5231 108.914 15.276C108.572 15.0233 108.399 14.6773 108.399 14.2478C108.399 13.3545 109.072 12.9002 110.399 12.9002H112.769L112.763 14.1224C112.581 14.6108 112.259 14.9929 111.815 15.2551C111.372 15.5155 110.861 15.6466 110.294 15.6466V15.6485ZM110.401 13.0902C109.182 13.0902 108.592 13.4685 108.592 14.2478C108.592 14.6184 108.734 14.9054 109.028 15.124C109.327 15.3463 109.754 15.4585 110.294 15.4585C110.834 15.4585 111.305 15.335 111.718 15.0916C112.121 14.8541 112.412 14.5119 112.579 14.071V13.0902H110.399H110.401Z" fill="#2D3A47"/>
<defs>
<linearGradient id="paint0_linear_4015_19801" x1="9.49562" y1="22.1221" x2="19.9834" y2="5.54077" gradientUnits="userSpaceOnUse">
<stop stop-color="#0177FF"/>
<stop offset="0.18" stop-color="#0177FF"/>
<stop offset="0.73" stop-color="#00B4FF"/>
<stop offset="1" stop-color="#00C7FF"/>
</linearGradient>
<linearGradient id="paint1_linear_4015_19801" x1="11.6422" y1="23.4813" x2="22.1299" y2="6.89811" gradientUnits="userSpaceOnUse">
<stop stop-color="#0177FF"/>
<stop offset="0.18" stop-color="#0177FF"/>
<stop offset="0.73" stop-color="#00B4FF"/>
<stop offset="1" stop-color="#00C7FF"/>
</linearGradient>
<linearGradient id="paint2_linear_4015_19801" x1="3.24631" y1="17.496" x2="13.7341" y2="0.912837" gradientUnits="userSpaceOnUse">
<stop stop-color="#0177FF"/>
<stop offset="0.18" stop-color="#0177FF"/>
<stop offset="0.73" stop-color="#00B4FF"/>
<stop offset="1" stop-color="#00C7FF"/>
</linearGradient>
<linearGradient id="paint3_linear_4015_19801" x1="3.24631" y1="17.496" x2="13.7341" y2="0.912837" gradientUnits="userSpaceOnUse">
<stop offset="0.02" stop-color="#0176FF"/>
<stop offset="0.085" stop-color="#0177FF"/>
<stop offset="0.18" stop-color="#0177FF"/>
<stop offset="0.73" stop-color="#00B4FF"/>
<stop offset="1" stop-color="#00C7FF"/>
</linearGradient>
<linearGradient id="paint4_linear_4015_19801" x1="5.05012" y1="18.9881" x2="15.5664" y2="2.36317" gradientUnits="userSpaceOnUse">
<stop stop-color="#0177FF"/>
<stop offset="0.18" stop-color="#0177FF"/>
<stop offset="0.265" stop-color="#0177FF"/>
<stop offset="0.73" stop-color="#00B4FF"/>
<stop offset="1" stop-color="#00C7FF"/>
</linearGradient>
<linearGradient id="paint5_linear_4015_19801" x1="5.05007" y1="18.9882" x2="15.5663" y2="2.36328" gradientUnits="userSpaceOnUse">
<stop stop-color="#0177FF"/>
<stop offset="0.18" stop-color="#0176FF"/>
<stop offset="0.73" stop-color="#00B4FF"/>
<stop offset="1" stop-color="#00C7FF"/>
</linearGradient>
</defs>
</svg>
