<svg width="685" height="835" viewBox="0 0 685 835" fill="none" xmlns="http://www.w3.org/2000/svg">
<g clip-path="url(#clip0_4904_59144)">
<g opacity="0.55" filter="url(#filter0_f_4904_59144)">
<ellipse cx="-215.662" cy="-306.053" rx="1124.5" ry="1040.5" transform="rotate(-97.3226 -215.662 -306.053)" fill="url(#paint0_radial_4904_59144)"/>
</g>
<path d="M-698.386 -2593.46C-339.58 -2634.94 -111.215 -2484.04 107.725 -2231.84C326.665 -1979.65 289.36 -1899.61 352.527 -1382.91C415.693 -866.2 764.468 -133.77 410.923 248.346C57.3788 630.461 -710.246 660.785 -1344.49 451.249C-1978.73 241.713 -2577.17 -239.922 -2633.44 -757.427C-2689.7 -1274.93 -2017.68 -1650.26 -1614.54 -2032.77" stroke="#F4FBFF" stroke-opacity="0.2" stroke-width="4"/>
<path d="M-699.037 -2541.45C-351.104 -2581.67 -129.66 -2435.35 82.6458 -2190.79C294.951 -1946.24 258.777 -1868.63 320.03 -1367.58C381.282 -866.531 719.488 -156.297 376.656 214.24C33.8252 584.776 -710.538 614.181 -1325.56 410.995C-1940.58 207.809 -2520.89 -259.232 -2575.45 -761.054C-2630.01 -1262.88 -1978.35 -1626.84 -1587.43 -1997.75" stroke="#F4FBFF" stroke-opacity="0.2" stroke-width="4"/>
<path d="M-699.689 -2489.45C-362.629 -2528.41 -148.105 -2386.66 57.5666 -2149.74C263.238 -1912.83 228.194 -1837.65 287.532 -1352.25C346.87 -866.864 674.507 -178.824 342.389 180.133C10.2717 539.09 -710.83 567.577 -1306.63 370.74C-1902.44 173.903 -2464.61 -278.543 -2517.46 -764.683C-2570.32 -1250.82 -1939.03 -1603.41 -1560.32 -1962.73" stroke="#F4FBFF" stroke-opacity="0.2" stroke-width="4"/>
<path d="M-700.341 -2437.44C-374.154 -2475.14 -166.549 -2337.96 32.4872 -2108.69C231.524 -1879.42 197.611 -1806.66 255.034 -1336.93C312.458 -867.195 629.526 -201.35 308.122 146.027C-13.282 493.405 -711.122 520.972 -1287.71 330.485C-1864.29 139.998 -2408.33 -297.853 -2459.48 -768.311C-2510.62 -1238.77 -1899.7 -1579.98 -1533.21 -1927.72" stroke="#F4FBFF" stroke-opacity="0.2" stroke-width="4"/>
<path d="M-700.994 -2385.43C-385.679 -2421.87 -184.995 -2289.27 7.40697 -2067.64C199.809 -1846.01 167.026 -1775.68 222.536 -1321.6C278.046 -867.528 584.545 -223.877 273.854 111.921C-36.8366 447.72 -711.416 474.368 -1268.78 290.23C-1826.14 106.093 -2352.05 -317.163 -2401.49 -771.939C-2450.93 -1226.72 -1860.37 -1556.55 -1506.1 -1892.7" stroke="#F4FBFF" stroke-opacity="0.2" stroke-width="4"/>
<path d="M-701.644 -2333.42C-397.203 -2368.61 -203.439 -2240.58 -17.6714 -2026.59C168.096 -1812.6 136.444 -1744.69 190.039 -1306.28C243.635 -867.859 539.565 -246.404 239.588 77.8153C-60.3892 402.035 -711.707 427.764 -1249.85 249.976C-1788 72.1879 -2295.77 -336.473 -2343.51 -775.567C-2391.24 -1214.66 -1821.05 -1533.13 -1478.99 -1857.68" stroke="#F4FBFF" stroke-opacity="0.2" stroke-width="4"/>
<path d="M-702.297 -2281.41C-408.728 -2315.34 -221.884 -2191.88 -42.7515 -1985.54C136.381 -1779.19 105.86 -1713.71 157.541 -1290.95C209.223 -868.192 494.584 -268.931 205.32 43.7091C-83.9438 356.349 -712 381.16 -1230.93 209.721C-1749.85 38.2827 -2239.49 -355.783 -2285.52 -779.196C-2331.55 -1202.61 -1781.72 -1509.7 -1451.88 -1822.66" stroke="#F4FBFF" stroke-opacity="0.2" stroke-width="4"/>
<path d="M-702.948 -2229.4C-420.253 -2262.07 -240.329 -2143.19 -67.8307 -1944.49C104.668 -1745.78 75.2762 -1682.73 125.044 -1275.63C174.811 -868.523 449.603 -291.458 171.053 9.60312C-107.497 310.664 -712.292 334.556 -1212 169.467C-1711.7 4.37782 -2183.21 -375.093 -2227.53 -782.823C-2271.86 -1190.55 -1742.39 -1486.27 -1424.77 -1787.64" stroke="#F4FBFF" stroke-opacity="0.2" stroke-width="4"/>
<path d="M-703.6 -2177.39C-431.777 -2208.81 -258.774 -2094.5 -92.9101 -1903.44C72.9537 -1712.38 44.6928 -1651.74 92.5461 -1260.3C140.399 -868.856 404.623 -313.985 136.786 -24.5034C-131.051 264.978 -712.585 287.951 -1193.07 129.211C-1673.56 -29.5279 -2126.92 -394.403 -2169.55 -786.452C-2212.17 -1178.5 -1703.07 -1462.84 -1397.66 -1752.62" stroke="#F4FBFF" stroke-opacity="0.2" stroke-width="4"/>
<path d="M-704.252 -2125.38C-443.302 -2155.54 -277.219 -2045.8 -117.989 -1862.38C41.2398 -1678.97 14.1093 -1620.76 60.0484 -1244.97C105.988 -869.187 359.642 -336.511 102.519 -58.6089C-154.605 219.293 -712.877 241.347 -1174.14 88.9574C-1635.41 -63.4324 -2070.64 -413.713 -2111.56 -790.08C-2152.48 -1166.45 -1663.74 -1439.42 -1370.55 -1717.6" stroke="#F4FBFF" stroke-opacity="0.2" stroke-width="4"/>
<path d="M-704.905 -2073.37C-454.828 -2102.28 -295.664 -1997.11 -143.07 -1821.33C9.52495 -1645.56 -16.4751 -1589.78 27.5499 -1229.65C71.575 -869.519 314.66 -359.038 68.2505 -92.7152C-178.159 173.608 -713.17 194.743 -1155.22 48.7024C-1597.26 -97.3377 -2014.36 -433.023 -2053.58 -793.708C-2092.79 -1154.39 -1624.41 -1415.99 -1343.44 -1682.58" stroke="#F4FBFF" stroke-opacity="0.2" stroke-width="4"/>
<path d="M-705.556 -2021.36C-466.352 -2049.01 -314.109 -1948.41 -168.149 -1780.28C-22.1887 -1612.15 -47.0584 -1558.79 -4.94751 -1214.32C37.1634 -869.851 269.68 -381.565 33.9835 -126.821C-201.713 127.923 -713.463 148.139 -1136.29 8.44798C-1559.12 -131.243 -1958.08 -452.333 -1995.59 -797.336C-2033.1 -1142.34 -1585.09 -1392.56 -1316.33 -1647.57" stroke="#F4FBFF" stroke-opacity="0.2" stroke-width="4"/>
<path d="M-706.207 -1969.35C-477.876 -1995.74 -332.553 -1899.72 -193.227 -1739.23C-53.9016 -1578.74 -77.6408 -1527.81 -37.444 -1199C2.75278 -870.183 224.7 -404.091 -0.282617 -160.927C-225.266 82.2379 -713.754 101.535 -1117.36 -31.8062C-1520.97 -165.147 -1901.8 -471.643 -1937.6 -800.964C-1973.41 -1130.28 -1545.76 -1369.13 -1289.22 -1612.55" stroke="#F4FBFF" stroke-opacity="0.2" stroke-width="4"/>
<path d="M-706.86 -1917.34C-489.401 -1942.48 -350.998 -1851.03 -218.307 -1698.18C-85.6163 -1545.33 -108.225 -1496.83 -69.9426 -1183.67C-31.66 -870.515 179.719 -426.618 -34.5507 -195.033C-248.82 36.5521 -714.047 54.9302 -1098.44 -72.0613C-1482.82 -199.053 -1845.52 -490.953 -1879.62 -804.592C-1913.72 -1118.23 -1506.43 -1345.71 -1262.11 -1577.53" stroke="#F4FBFF" stroke-opacity="0.2" stroke-width="4"/>
<path d="M-707.511 -1865.33C-500.926 -1889.21 -369.443 -1802.33 -243.387 -1657.13C-117.33 -1511.92 -138.809 -1465.84 -102.44 -1168.34C-66.0715 -870.846 134.738 -449.145 -68.8178 -229.139C-272.374 -9.13268 -714.339 8.32653 -1079.51 -112.315C-1444.68 -232.957 -1789.24 -510.263 -1821.63 -808.22C-1854.02 -1106.18 -1467.1 -1322.28 -1235 -1542.51" stroke="#F4FBFF" stroke-opacity="0.2" stroke-width="4"/>
<path d="M-708.164 -1813.32C-512.451 -1835.95 -387.889 -1753.64 -268.467 -1616.08C-149.045 -1478.51 -169.393 -1434.86 -134.938 -1153.02C-100.484 -871.179 89.7567 -471.672 -103.086 -263.245C-295.928 -54.8186 -714.633 -38.2783 -1060.58 -152.571C-1406.53 -266.863 -1732.96 -529.573 -1763.65 -811.848C-1794.33 -1094.12 -1427.78 -1298.85 -1207.89 -1507.49" stroke="#F4FBFF" stroke-opacity="0.2" stroke-width="4"/>
<path d="M-708.815 -1761.31C-523.975 -1782.68 -406.333 -1704.95 -293.545 -1575.02C-180.758 -1445.1 -199.975 -1403.87 -167.435 -1137.69C-134.895 -871.511 44.777 -494.198 -137.352 -297.351C-319.481 -100.503 -714.924 -84.8821 -1041.65 -192.825C-1368.39 -300.768 -1676.68 -548.883 -1705.66 -815.476C-1734.64 -1082.07 -1388.45 -1275.42 -1180.77 -1472.47" stroke="#F4FBFF" stroke-opacity="0.2" stroke-width="4"/>
<path d="M-709.467 -1709.3C-535.5 -1729.41 -424.778 -1656.25 -318.625 -1533.97C-212.472 -1411.7 -230.56 -1372.89 -199.933 -1122.37C-169.307 -871.843 -0.204474 -516.726 -171.62 -331.457C-343.036 -146.189 -715.217 -131.487 -1022.73 -233.08C-1330.24 -334.673 -1620.39 -568.193 -1647.67 -819.105C-1674.95 -1070.02 -1349.12 -1252 -1153.66 -1437.45" stroke="#F4FBFF" stroke-opacity="0.2" stroke-width="4"/>
<path d="M-710.119 -1657.29C-547.025 -1676.15 -443.223 -1607.56 -343.705 -1492.92C-244.186 -1378.29 -261.143 -1341.91 -232.431 -1107.04C-203.719 -872.174 -45.185 -539.252 -205.887 -365.563C-366.589 -191.874 -715.509 -178.09 -1003.8 -273.334C-1292.09 -368.578 -1564.11 -587.503 -1589.69 -822.732C-1615.26 -1057.96 -1309.8 -1228.57 -1126.55 -1402.43" stroke="#F4FBFF" stroke-opacity="0.2" stroke-width="4"/>
<path d="M-710.771 -1605.29C-558.551 -1622.88 -461.669 -1558.87 -368.785 -1451.87C-275.901 -1344.88 -291.727 -1310.92 -264.929 -1091.72C-238.132 -872.507 -90.1666 -561.779 -240.155 -399.669C-390.144 -237.56 -715.803 -224.695 -984.875 -313.589C-1253.95 -402.483 -1507.83 -606.813 -1531.7 -826.361C-1555.57 -1045.91 -1270.47 -1205.14 -1099.44 -1367.42" stroke="#F4FBFF" stroke-opacity="0.2" stroke-width="4"/>
<path d="M-711.422 -1553.28C-570.074 -1569.61 -480.112 -1510.17 -393.863 -1410.82C-307.614 -1311.47 -322.31 -1279.94 -297.426 -1076.39C-272.542 -872.838 -135.146 -584.306 -274.421 -433.775C-413.696 -283.245 -716.094 -271.299 -965.947 -353.843C-1215.8 -436.388 -1451.55 -626.123 -1473.71 -829.988C-1495.88 -1033.85 -1231.14 -1181.71 -1072.33 -1332.4" stroke="#F4FBFF" stroke-opacity="0.2" stroke-width="4"/>
</g>
<defs>
<filter id="filter0_f_4904_59144" x="-1557.71" y="-1729.35" width="2684.09" height="2846.59" filterUnits="userSpaceOnUse" color-interpolation-filters="sRGB">
<feFlood flood-opacity="0" result="BackgroundImageFix"/>
<feBlend mode="normal" in="SourceGraphic" in2="BackgroundImageFix" result="shape"/>
<feGaussianBlur stdDeviation="150" result="effect1_foregroundBlur_4904_59144"/>
</filter>
<radialGradient id="paint0_radial_4904_59144" cx="0" cy="0" r="1" gradientUnits="userSpaceOnUse" gradientTransform="translate(-215.662 -306.053) rotate(90) scale(1040.5 1124.5)">
<stop offset="0.36" stop-color="#01C8FF"/>
<stop offset="1" stop-color="white" stop-opacity="0"/>
</radialGradient>
<clipPath id="clip0_4904_59144">
<rect width="685" height="835" fill="white"/>
</clipPath>
</defs>
</svg>
