<svg width="1000" height="1000" viewBox="0 0 1000 1000" fill="none" xmlns="http://www.w3.org/2000/svg">
<g clip-path="url(#clip0_4791_13275)">
<rect width="1000" height="1000" fill="white"/>
<path d="M-2149.34 2163.55C-2179.58 1918.45 -2077.62 1761.53 -1906.34 1610.52C-1735.06 1459.51 -1680.15 1484.59 -1327.21 1438.69C-974.278 1392.79 -475.353 1150.49 -212.247 1390.2C50.8593 1629.91 75.6227 2154.57 -64.3047 2589.29C-204.232 3024.02 -530.38 3435.7 -883.898 3476.89C-1237.42 3518.07 -1497.56 3060.59 -1761.19 2786.98" stroke="#F4FBFF" stroke-opacity="0.2" stroke-width="4"/>
<path d="M-2087.58 2163.85C-2116.23 1931.65 -2019.63 1782.99 -1857.37 1639.93C-1695.1 1496.86 -1643.08 1520.63 -1308.72 1477.14C-974.36 1433.66 -501.694 1204.11 -252.435 1431.2C-3.17696 1658.29 20.2831 2155.34 -112.28 2567.19C-244.842 2979.03 -553.825 3369.05 -888.737 3408.06C-1223.65 3447.08 -1470.1 3013.67 -1719.86 2754.46" stroke="#F4FBFF" stroke-opacity="0.2" stroke-width="4"/>
<path d="M-2025.81 2164.15C-2052.87 1944.85 -1961.64 1804.45 -1808.39 1669.33C-1655.14 1534.22 -1606.01 1556.66 -1290.22 1515.59C-974.439 1474.52 -528.033 1257.73 -292.622 1472.2C-57.2111 1686.68 -35.0544 2156.11 -160.253 2545.08C-285.451 2934.04 -577.267 3302.39 -893.573 3339.24C-1209.88 3376.09 -1442.64 2966.76 -1678.52 2721.95" stroke="#F4FBFF" stroke-opacity="0.2" stroke-width="4"/>
<path d="M-1964.05 2164.45C-1989.51 1958.05 -1903.65 1825.91 -1759.41 1698.74C-1615.18 1571.57 -1568.94 1592.69 -1271.73 1554.04C-974.519 1515.39 -554.372 1311.35 -332.808 1513.21C-111.245 1715.07 -90.3919 2156.89 -208.225 2522.97C-326.059 2889.06 -600.71 3235.74 -898.41 3270.42C-1196.11 3305.1 -1415.18 2919.85 -1637.18 2689.44" stroke="#F4FBFF" stroke-opacity="0.2" stroke-width="4"/>
<path d="M-1902.28 2164.75C-1926.16 1971.25 -1845.66 1847.36 -1710.44 1728.14C-1575.22 1608.92 -1531.87 1628.73 -1253.23 1592.49C-974.598 1556.25 -580.71 1364.96 -372.995 1554.21C-165.28 1743.45 -145.73 2157.66 -256.199 2500.86C-366.667 2844.07 -624.153 3169.08 -903.246 3201.59C-1182.34 3234.11 -1387.71 2872.94 -1595.85 2656.93" stroke="#F4FBFF" stroke-opacity="0.2" stroke-width="4"/>
<g opacity="0.55" filter="url(#filter0_f_4791_13275)">
<ellipse cx="982.5" cy="-135.589" rx="1124.5" ry="1040.5" fill="url(#paint0_radial_4791_13275)"/>
</g>
<path d="M790.099 -2673.55C1067.51 -3000.69 1387.94 -3055.19 1782.41 -3014.22C2176.89 -2973.25 2209.49 -2873.6 2683.57 -2476.9C3157.65 -2080.21 4054.4 -1728.27 4057.99 -1110.09C4061.58 -491.906 3420.7 157.326 2700.81 490.37C1980.91 823.413 1071.24 891.512 602.498 488.522C133.757 85.5323 411.769 -785.217 450.853 -1443.98" stroke="#F2FBFF" stroke-opacity="0.2" stroke-width="4"/>
<path d="M831.742 -2627.93C1100.74 -2945.15 1411.47 -2998.01 1793.99 -2958.28C2176.51 -2918.55 2208.13 -2821.92 2667.84 -2437.24C3127.55 -2052.57 3997.13 -1711.3 4000.61 -1111.85C4004.09 -512.398 3382.63 117.16 2684.55 440.111C1986.47 763.063 1104.36 829.098 649.826 438.32C195.289 47.5418 464.876 -796.821 502.776 -1435.62" stroke="#F2FBFF" stroke-opacity="0.2" stroke-width="4"/>
<path d="M873.382 -2582.32C1133.98 -2889.62 1434.99 -2940.83 1805.56 -2902.34C2176.12 -2863.85 2206.75 -2770.24 2652.1 -2397.58C3097.45 -2024.93 3939.85 -1694.32 3943.22 -1113.61C3946.6 -532.89 3344.56 76.9941 2668.29 389.853C1992.03 702.713 1137.48 766.684 697.15 388.118C256.818 9.55155 517.981 -808.425 554.696 -1427.27" stroke="#F2FBFF" stroke-opacity="0.2" stroke-width="4"/>
<path d="M915.024 -2536.7C1167.21 -2834.09 1458.52 -2883.64 1817.13 -2846.4C2175.74 -2809.15 2205.38 -2718.56 2636.37 -2357.93C3067.35 -1997.29 3882.57 -1677.35 3885.84 -1115.37C3889.1 -553.383 3306.48 36.8277 2652.03 339.595C1997.58 642.362 1170.61 704.27 744.478 337.915C318.35 -28.4392 571.088 -820.03 606.619 -1418.91" stroke="#F2FBFF" stroke-opacity="0.2" stroke-width="4"/>
<path d="M956.665 -2491.08C1200.45 -2778.56 1482.04 -2826.46 1828.7 -2790.46C2175.36 -2754.45 2204.01 -2666.88 2620.63 -2318.27C3037.24 -1969.66 3825.3 -1660.38 3828.45 -1117.13C3831.61 -573.875 3268.41 -3.3379 2635.77 289.337C2003.14 582.012 1203.73 641.856 791.803 287.713C379.879 -66.4293 624.193 -831.633 658.54 -1410.55" stroke="#F2FBFF" stroke-opacity="0.2" stroke-width="4"/>
<path d="M998.307 -2445.46C1233.68 -2723.03 1505.57 -2769.28 1840.27 -2734.52C2174.98 -2699.75 2202.64 -2615.2 2604.89 -2278.61C3007.14 -1942.02 3768.02 -1643.4 3771.07 -1118.89C3774.11 -594.367 3230.34 -43.5041 2619.52 239.078C2008.7 521.661 1236.85 579.442 839.131 237.511C441.411 -104.42 677.3 -843.238 710.462 -1402.19" stroke="#F2FBFF" stroke-opacity="0.2" stroke-width="4"/>
<path d="M1039.95 -2399.84C1266.92 -2667.5 1529.09 -2712.09 1851.84 -2678.57C2174.59 -2645.05 2201.27 -2563.52 2589.15 -2238.95C2977.04 -1914.38 3710.74 -1626.43 3713.68 -1120.64C3716.62 -614.859 3192.26 -83.6698 2603.26 188.821C2014.25 461.311 1269.97 517.028 886.456 187.309C502.941 -142.41 730.405 -854.841 762.383 -1393.83" stroke="#F2FBFF" stroke-opacity="0.2" stroke-width="4"/>
<path d="M1081.59 -2354.22C1300.15 -2611.97 1552.62 -2654.91 1863.41 -2622.63C2174.21 -2590.35 2199.9 -2511.84 2573.42 -2199.29C2946.94 -1886.74 3653.47 -1609.46 3656.3 -1122.4C3659.12 -635.352 3154.19 -123.836 2587 138.562C2019.81 400.96 1303.09 454.614 933.784 137.106C564.473 -180.401 783.513 -866.446 814.306 -1385.47" stroke="#F2FBFF" stroke-opacity="0.2" stroke-width="4"/>
<path d="M1123.23 -2308.61C1333.39 -2556.44 1576.14 -2597.73 1874.98 -2566.69C2173.83 -2535.65 2198.53 -2460.16 2557.68 -2159.63C2916.83 -1859.1 3596.19 -1592.48 3598.91 -1124.16C3601.63 -655.844 3116.11 -164.002 2570.74 88.3039C2025.36 340.61 1336.22 392.2 981.109 86.9045C626.002 -218.391 836.617 -878.05 866.226 -1377.11" stroke="#F2FBFF" stroke-opacity="0.2" stroke-width="4"/>
<path d="M1164.87 -2262.99C1366.62 -2500.9 1599.67 -2540.54 1886.56 -2510.75C2173.45 -2480.95 2197.16 -2408.48 2541.95 -2119.97C2886.73 -1831.46 3538.91 -1575.51 3541.52 -1125.92C3544.14 -676.336 3078.04 -204.168 2554.48 38.046C2030.92 280.26 1369.34 329.786 1028.44 36.7026C687.534 -256.381 889.725 -889.653 918.149 -1368.76" stroke="#F2FBFF" stroke-opacity="0.2" stroke-width="4"/>
<path d="M1206.51 -2217.37C1399.86 -2445.37 1623.19 -2483.36 1898.13 -2454.81C2173.06 -2426.25 2195.79 -2356.8 2526.21 -2080.31C2856.63 -1803.83 3481.63 -1558.54 3484.14 -1127.68C3486.64 -696.828 3039.97 -244.334 2538.22 -12.2123C2036.48 219.909 1402.46 267.372 1075.76 -13.4998C749.063 -294.372 942.83 -901.258 970.07 -1360.4" stroke="#F2FBFF" stroke-opacity="0.2" stroke-width="4"/>
<path d="M1248.16 -2171.75C1433.1 -2389.84 1646.72 -2426.18 1909.7 -2398.87C2172.68 -2371.55 2194.42 -2305.12 2510.47 -2040.65C2826.53 -1776.19 3424.36 -1541.56 3426.75 -1129.44C3429.15 -717.321 3001.89 -284.5 2521.96 -62.4709C2042.03 159.558 1435.58 204.958 1123.09 -63.7024C810.595 -332.363 995.937 -912.862 1021.99 -1352.04" stroke="#F2FBFF" stroke-opacity="0.2" stroke-width="4"/>
<path d="M1289.8 -2126.13C1466.33 -2334.31 1670.24 -2369 1921.27 -2342.92C2172.3 -2316.85 2193.05 -2253.44 2494.74 -2000.99C2796.42 -1748.55 3367.08 -1524.59 3369.37 -1131.2C3371.65 -737.813 2963.82 -324.666 2505.7 -112.729C2047.59 99.2082 1468.7 142.544 1170.42 -113.904C872.125 -370.353 1049.04 -924.466 1073.91 -1343.68" stroke="#F2FBFF" stroke-opacity="0.2" stroke-width="4"/>
<path d="M1331.44 -2080.52C1499.57 -2278.78 1693.77 -2311.81 1932.84 -2286.98C2171.92 -2262.15 2191.68 -2201.75 2479 -1961.33C2766.32 -1720.91 3309.81 -1507.62 3311.98 -1132.96C3314.16 -758.305 2925.75 -364.831 2489.45 -162.987C2053.15 38.8578 1501.83 80.13 1217.74 -164.106C933.656 -408.343 1102.15 -936.07 1125.84 -1335.32" stroke="#F2FBFF" stroke-opacity="0.2" stroke-width="4"/>
</g>
<defs>
<filter id="filter0_f_4791_13275" x="-442" y="-1476.09" width="2849" height="2681" filterUnits="userSpaceOnUse" color-interpolation-filters="sRGB">
<feFlood flood-opacity="0" result="BackgroundImageFix"/>
<feBlend mode="normal" in="SourceGraphic" in2="BackgroundImageFix" result="shape"/>
<feGaussianBlur stdDeviation="150" result="effect1_foregroundBlur_4791_13275"/>
</filter>
<radialGradient id="paint0_radial_4791_13275" cx="0" cy="0" r="1" gradientUnits="userSpaceOnUse" gradientTransform="translate(982.5 -135.589) rotate(90) scale(1040.5 1124.5)">
<stop offset="0.36" stop-color="#01C8FF"/>
<stop offset="1" stop-color="white" stop-opacity="0"/>
</radialGradient>
<clipPath id="clip0_4791_13275">
<rect width="1000" height="1000" fill="white"/>
</clipPath>
</defs>
</svg>
