<svg width="13" height="17" viewBox="0 0 13 17" fill="none" xmlns="http://www.w3.org/2000/svg">
<path d="M3.16851 5.11511V5.11512H3.16925C3.65894 5.11512 3.99527 5.09151 4.25966 5.01097C4.52707 4.92951 4.71796 4.7908 4.91949 4.56842C5.12024 4.3469 5.23342 4.15345 5.25517 3.90699C5.27659 3.66422 5.20849 3.37655 5.0656 2.96829C4.82921 2.29289 4.7818 1.74407 4.90474 1.34409C5.02627 0.948731 5.31623 0.692031 5.77586 0.600053C5.9518 0.566222 6.06692 0.55 6.18263 0.55C6.29828 0.55 6.41668 0.566203 6.5991 0.599961C7.05699 0.704941 7.35187 0.990925 7.47743 1.40839C7.60404 1.82931 7.55956 2.3885 7.3238 3.03531C7.16006 3.46522 7.08838 3.79069 7.12044 4.06143C7.15293 4.33572 7.29085 4.54678 7.52816 4.7493C7.65817 4.8647 7.86283 4.96241 8.08497 5.03129C8.3082 5.10051 8.55456 5.14231 8.77112 5.14231C9.18499 5.14231 10.1014 4.99147 11.269 4.76065L11.2694 4.76058C11.3343 4.74725 11.3948 4.73468 11.4511 4.72296C11.626 4.6866 11.7613 4.65845 11.8689 4.6416C12.0129 4.61906 12.0958 4.61899 12.1512 4.63951C12.2016 4.65816 12.237 4.69707 12.2749 4.78175C12.3026 4.84356 12.3287 4.92274 12.3627 5.02571C12.3765 5.06733 12.3915 5.11285 12.4085 5.16267C12.6238 5.80862 12.7186 6.55072 12.7322 7.40413C12.7322 7.75302 12.7126 8.02367 12.6663 8.22404C12.6199 8.42517 12.5485 8.54671 12.4523 8.60937C12.357 8.67151 12.2248 8.68366 12.0372 8.63635C11.8498 8.58907 11.6154 8.48448 11.3241 8.32525L11.3234 8.32486C10.7716 8.03518 10.1578 7.94848 9.69127 8.13214C9.28315 8.28705 8.90854 8.65368 8.63657 9.10296C8.36416 9.55294 8.19084 10.0921 8.19084 10.599C8.19084 10.9275 8.21808 11.1664 8.30675 11.3828C8.39543 11.5991 8.54359 11.7882 8.77633 12.021C9.01721 12.2687 9.24687 12.4399 9.50125 12.5469C9.75572 12.654 10.0315 12.6954 10.3624 12.6885C10.6299 12.6885 10.8356 12.6679 11.0357 12.6082C11.2356 12.5486 11.4269 12.4508 11.6664 12.3003C11.9321 12.1368 12.1296 12.0436 12.2715 12.0288C12.3404 12.0216 12.392 12.0334 12.4319 12.0609C12.4725 12.0888 12.5075 12.1374 12.5343 12.2161C12.5886 12.3758 12.6022 12.6396 12.5768 13.0347C12.5514 13.4278 12.4879 13.9436 12.3928 14.6029L12.3927 14.603C12.3383 14.9839 12.2873 15.358 12.2499 15.6541C12.2127 15.9481 12.1883 16.1697 12.1883 16.2417V16.45H6.22852H0.26875V10.395V4.36901L0.686883 4.56646L0.687049 4.56653C1.53728 4.96422 2.23783 5.10142 3.16851 5.11511Z" fill="#3D57E3" stroke="#D0DDFF" stroke-width="0.1"/>
</svg>
