<svg width="31" height="30" viewBox="0 0 31 30" fill="none" xmlns="http://www.w3.org/2000/svg">
<rect x="0.5" width="30" height="30" rx="15" fill="#CFF1FF"/>
<path fill-rule="evenodd" clip-rule="evenodd" d="M8.5 10.0821C8.5 9.5299 8.71936 9.00031 9.10984 8.60984C9.50031 8.21936 10.0299 8 10.5821 8H14.8657C15.4176 8.0003 15.9468 8.21973 16.3371 8.61006L21.8893 14.1623C22.2797 14.5528 22.499 15.0823 22.499 15.6344C22.499 16.1865 22.2797 16.716 21.8893 17.1064L17.6071 21.39C17.4138 21.5834 17.1843 21.7368 16.9316 21.8415C16.679 21.9461 16.4082 22 16.1347 22C15.8613 22 15.5905 21.9461 15.3379 21.8415C15.0852 21.7368 14.8557 21.5834 14.6623 21.39L9.11006 15.8378C8.71956 15.4474 8.50012 14.9179 8.5 14.3657V10.0821ZM11.9702 10.7761C11.7861 10.7761 11.6096 10.8493 11.4794 10.9794C11.3493 11.1096 11.2761 11.2861 11.2761 11.4702C11.2761 11.6543 11.3493 11.8308 11.4794 11.9609C11.6096 12.0911 11.7861 12.1642 11.9702 12.1642C12.1543 12.1642 12.3315 12.0911 12.4616 11.9609C12.5918 11.8308 12.6649 11.6543 12.6649 11.4702C12.6649 11.2861 12.5918 11.1096 12.4616 10.9794C12.3315 10.8493 12.1543 10.7761 11.9702 10.7761Z" fill="#0090CE"/>
</svg>
