<svg version="1.1" viewBox="0 0 24 24" xmlns="http://www.w3.org/2000/svg">
 <path d="m4.0911 20.929c-0.23-0.071753-0.3868-0.20155-0.5473-0.45305-0.08674-0.13595-0.11059-0.23677-0.10999-0.46528 9.571e-4 -0.3606 0.12334-0.59955 0.41062-0.80159l0.20122-0.14153 1.8999-0.0302v-3.3812l-0.91893-0.016491c-0.74148-0.013278-0.94588-0.031269-1.0585-0.092844-0.37403-0.20454-0.53465-0.46485-0.5349-0.86687-2.035e-4 -0.33973 0.078816-0.52516 0.31378-0.73634 0.24174-0.21727 0.41944-0.25007 1.3548-0.25007h0.84374v-3.3965h-0.88589c-0.79209 0-0.90507-0.0097-1.0671-0.09242-0.40328-0.20573-0.55954-0.45762-0.55954-0.90198 0-0.26829 0.016491-0.32261 0.15122-0.49816 0.32206-0.41966 0.45507-0.45895 1.5587-0.46048l0.80261-0.00107v-3.3912l-0.94997-0.01435-0.94998-0.014242-0.2012-0.14153c-0.28117-0.19777-0.40964-0.44246-0.4106-0.782-0.0010709-0.5039 0.29693-0.86704 0.78181-0.95164 0.34133-0.059541 5.6947-0.06543 6.304-0.00642 1.2237 0.11747 2.1435 0.96856 2.401 2.2217 0.03512 0.17085 0.05066 2.2304 0.05066 6.7075 0 5.4733-0.01069 6.5153-0.06801 6.8163-0.20839 1.0892-1.0769 1.9523-2.1587 2.1452-0.51682 0.0922-6.357 0.08974-6.6535-0.0033zm6.4676-1.9507c0.19305-0.08064 0.29321-0.18711 0.38681-0.41117 0.05889-0.14101 0.07154-0.41406 0.07154-1.5453v-1.3741h-3.1174v3.3965h1.2506c0.97399 0 1.2855-0.01457 1.4084-0.06596zm0.45839-6.983v-1.6983h-3.1174v3.3965h3.1174zm-7.49e-4 -5.0599c-7.49e-4 -1.3701-0.003263-1.4124-0.10487-1.5936-0.068626-0.12262-0.17485-0.22182-0.3115-0.29079-0.19971-0.10077-0.25373-0.10473-1.4538-0.10473h-1.2464v3.3965h3.1174z" stroke-width=".046528" fill="currentColor"/>
 <path d="m16.85 15.604c-0.2469-0.05975-0.4767-0.23306-0.61031-0.46033-0.12664-0.21544-0.12765-0.22392-0.14248-1.2057l-0.01488-0.98872h-1.844l-0.22135-0.15122c-0.66323-0.45307-0.55794-1.4136 0.18778-1.7129 0.08427-0.03384 0.46105-0.06157 0.95361-0.07003 0.44784-0.0075 0.8389-0.01542 0.86903-0.01702 0.03972-0.0021 0.05889-0.26929 0.06982-0.96836 0.01628-1.0468 0.02934-1.1067 0.30052-1.3779 0.20217-0.20217 0.3878-0.28059 0.66831-0.28233 0.29095-0.00215 0.52235 0.091238 0.70709 0.28439 0.24315 0.25419 0.27001 0.39436 0.27001 1.4092 0 0.85494 0.0064 0.93241 0.08138 0.93652 0.04476 0.0021 0.44784 0.0085 0.89567 0.01434 0.8898 0.0108 1.0328 0.0438 1.2619 0.29139 0.23449 0.25339 0.28519 0.37462 0.28519 0.68186 0 0.41357-0.14578 0.6646-0.50017 0.86131-0.11249 0.06243-0.3203 0.08202-1.0702 0.10077l-0.93056 0.02323-0.02323 1.0004c-0.01884 0.81222-0.0378 1.0266-0.10024 1.1399-0.21043 0.38144-0.6779 0.59156-1.0928 0.49118z" stroke-width=".046528" fill="currentColor"/>
</svg>
