<svg xmlns="http://www.w3.org/2000/svg" viewBox="0 0 24 24">
  <path fill="currentColor" d="M3.75 18.68c-.77-.52-.74-.23-.75-6.67 0-6.45-.04-6.16.75-6.7.35-.23.4-.23 3.62-.23 3.04 0 3.3.01 3.52.2.31.25.34.86.05 1.18-.18.2-.33.21-3.24.24l-3.04.03-.03 5.3-.03 5.3h14.7v-.63c0-.83.26-1.19.85-1.19.62 0 .85.36.85 1.32 0 .9-.27 1.55-.8 1.87-.34.22-.48.22-8.22.22H4.1z"/>
  <path fill="currentColor" d="M5.73 15.08c-.36-.29-.39-.92-.05-1.23.21-.2.46-.2 5.5-.2h5.26l.2.25c.3.37.27.91-.07 1.18-.28.22-.38.22-5.42.22-5.03 0-5.14 0-5.42-.22zm-.04-3.33c-.3-.31-.3-.85-.02-1.13.2-.2.35-.22 2.23-.22h2l.22.28c.3.38.28.74-.04 1.06-.26.26-.28.26-2.22.26-1.9 0-1.96 0-2.18-.25zm14.01 2.38c-.1-.06-.3-.31-.44-.56a4.6 4.6 0 0 0-1.86-1.65 2.81 2.81 0 0 0-1.52-.27 3.4 3.4 0 0 0-2.4.82c-.58.45-.91.48-1.27.12-.52-.52-.28-1.13.7-1.76.29-.19.53-.36.53-.38l-.3-.6c-.25-.49-.29-.68-.29-1.52 0-.72.05-1.06.2-1.35.3-.62.86-1.2 1.47-1.53.51-.29.66-.32 1.53-.32.83 0 1.03.04 1.5.3a3.48 3.48 0 0 1 1.56 1.74c.35.98.2 2.26-.36 3.05l-.24.33.31.22c1.18.83 2.27 2.25 2.14 2.78-.14.55-.79.85-1.25.58zm-2.73-4.48c1.09-.78.78-2.5-.5-2.86-.85-.23-1.7.27-1.97 1.14-.11.38-.1.51.05.93.18.48.65.93 1.07 1.05a2 2 0 0 0 1.35-.26z"/>
</svg>
