<svg width="18" height="16" viewBox="0 0 18 16" fill="none" xmlns="http://www.w3.org/2000/svg">
<path d="M8.27184 2.69328C8.34403 2.56343 8.44963 2.45525 8.57768 2.37993C8.70574 2.3046 8.85161 2.26489 9.00018 2.26489C9.14874 2.26489 9.29461 2.3046 9.42267 2.37993C9.55072 2.45525 9.65632 2.56343 9.72851 2.69328L15.2293 12.5941C15.2999 12.721 15.3361 12.864 15.3343 13.0092C15.3326 13.1543 15.2929 13.2965 15.2193 13.4216C15.1458 13.5467 15.0408 13.6504 14.9148 13.7225C14.7888 13.7945 14.6462 13.8325 14.501 13.8324H3.49934C3.3542 13.8325 3.21157 13.7945 3.08557 13.7225C2.95958 13.6504 2.85459 13.5467 2.78101 13.4216C2.70742 13.2965 2.66779 13.1543 2.66604 13.0092C2.66428 12.864 2.70047 12.721 2.77101 12.5941L8.27101 2.69328H8.27184ZM11.186 1.88328C10.2335 0.169115 7.76768 0.169115 6.81518 1.88328L1.31434 11.7849C0.38851 13.4516 1.59351 15.4991 3.49934 15.4991H14.501C16.4068 15.4991 17.6118 13.4516 16.686 11.7849L11.186 1.88328ZM9.00018 4.66578C9.22119 4.66578 9.43315 4.75358 9.58943 4.90986C9.74571 5.06614 9.83351 5.2781 9.83351 5.49911V8.83245C9.83351 9.05346 9.74571 9.26542 9.58943 9.4217C9.43315 9.57798 9.22119 9.66578 9.00018 9.66578C8.77916 9.66578 8.5672 9.57798 8.41092 9.4217C8.25464 9.26542 8.16684 9.05346 8.16684 8.83245V5.49911C8.16684 5.2781 8.25464 5.06614 8.41092 4.90986C8.5672 4.75358 8.77916 4.66578 9.00018 4.66578ZM8.16684 11.3324C8.16684 11.1114 8.25464 10.8995 8.41092 10.7432C8.5672 10.5869 8.77916 10.4991 9.00018 10.4991H9.00851C9.22952 10.4991 9.44148 10.5869 9.59776 10.7432C9.75404 10.8995 9.84184 11.1114 9.84184 11.3324C9.84184 11.5535 9.75404 11.7654 9.59776 11.9217C9.44148 12.078 9.22952 12.1658 9.00851 12.1658H9.00018C8.77916 12.1658 8.5672 12.078 8.41092 11.9217C8.25464 11.7654 8.16684 11.5535 8.16684 11.3324Z" fill="#E03B24"/>
</svg>
