<svg width="36" height="36" viewBox="0 0 36 36" fill="none" xmlns="http://www.w3.org/2000/svg">
<path d="M32.141 28.2832C31.5683 28.2858 31.0036 28.4176 30.489 28.6689L24.9608 23.1406H20.5703V25.7119H23.895L28.6711 30.488C28.4197 31.0027 28.2874 31.5673 28.2841 32.1401C28.2841 32.9029 28.5103 33.6486 28.9341 34.2828C29.3579 34.9171 29.9603 35.4115 30.665 35.7034C31.3698 35.9953 32.1453 36.0717 32.8935 35.9229C33.6416 35.774 34.3289 35.4067 34.8683 34.8673C35.4077 34.3279 35.775 33.6407 35.9238 32.8925C36.0726 32.1443 35.9963 31.3688 35.7043 30.6641C35.4124 29.9593 34.9181 29.357 34.2838 28.9332C33.6495 28.5094 32.9038 28.2832 32.141 28.2832ZM32.141 33.4257C31.8867 33.4257 31.6382 33.3503 31.4268 33.209C31.2153 33.0678 31.0506 32.867 30.9532 32.6321C30.8559 32.3971 30.8305 32.1386 30.8801 31.8892C30.9297 31.6399 31.0521 31.4108 31.2319 31.231C31.4117 31.0512 31.6408 30.9287 31.8902 30.8791C32.1396 30.8295 32.3981 30.855 32.633 30.9523C32.8679 31.0496 33.0687 31.2144 33.21 31.4258C33.3513 31.6372 33.4267 31.8858 33.4267 32.1401C33.4267 32.481 33.2912 32.808 33.0501 33.0491C32.809 33.2902 32.482 33.4257 32.141 33.4257Z" fill="white"/>
<path d="M32.141 14.1426C31.3459 14.1449 30.5711 14.3934 29.9229 14.8538C29.2746 15.3142 28.7848 15.9639 28.5207 16.7139H20.5703V19.2851H28.5207C28.7575 19.95 29.1726 20.537 29.7205 20.982C30.2684 21.427 30.928 21.7128 31.6274 21.8082C32.3267 21.9036 33.0388 21.805 33.6859 21.523C34.333 21.2411 34.8901 20.7867 35.2964 20.2096C35.7027 19.6325 35.9426 18.9547 35.9898 18.2505C36.0369 17.5462 35.8897 16.8426 35.564 16.2164C35.2383 15.5902 34.7468 15.0656 34.1431 14.6998C33.5394 14.3341 32.8468 14.1413 32.141 14.1426ZM32.141 19.2851C31.8867 19.2851 31.6382 19.2097 31.4268 19.0685C31.2153 18.9272 31.0506 18.7264 30.9532 18.4915C30.8559 18.2566 30.8305 17.9981 30.8801 17.7487C30.9297 17.4993 31.0521 17.2702 31.2319 17.0904C31.4117 16.9106 31.6408 16.7882 31.8902 16.7386C32.1396 16.6889 32.3981 16.7144 32.633 16.8117C32.8679 16.909 33.0687 17.0738 33.21 17.2852C33.3513 17.4966 33.4267 17.7452 33.4267 17.9995C33.4267 18.3405 33.2912 18.6675 33.0501 18.9086C32.809 19.1497 32.482 19.2851 32.141 19.2851Z" fill="white"/>
<path d="M32.141 1.61705e-06C31.1184 0.00102269 30.138 0.407702 29.4149 1.13079C28.6918 1.85388 28.2851 2.8343 28.2841 3.8569C28.2885 4.47279 28.442 5.07845 28.7315 5.62208L23.9078 10.2851H20.5703V12.8563H24.9466L30.6034 7.38983C31.1289 7.61897 31.6988 7.72805 32.2718 7.70913C32.8447 7.69021 33.4063 7.54377 33.9155 7.28046C34.4247 7.01715 34.8688 6.64361 35.2154 6.18702C35.5621 5.73043 35.8025 5.20229 35.9193 4.64104C36.0361 4.0798 36.0263 3.49957 35.8905 2.94261C35.7548 2.38565 35.4965 1.86597 35.1346 1.4214C34.7727 0.976832 34.3162 0.618563 33.7983 0.372677C33.2805 0.126791 32.7143 -0.000523376 32.141 1.61705e-06ZM32.141 5.14254C31.8867 5.14254 31.6382 5.06714 31.4268 4.92587C31.2153 4.7846 31.0506 4.58381 30.9532 4.34889C30.8559 4.11398 30.8305 3.85548 30.8801 3.60609C30.9297 3.3567 31.0521 3.12762 31.2319 2.94782C31.4117 2.76802 31.6408 2.64558 31.8902 2.59597C32.1396 2.54637 32.3981 2.57183 32.633 2.66913C32.8679 2.76644 33.0687 2.93122 33.21 3.14264C33.3513 3.35407 33.4267 3.60263 33.4267 3.8569C33.4267 4.19788 33.2912 4.52488 33.0501 4.76598C32.809 5.00709 32.482 5.14254 32.141 5.14254Z" fill="white"/>
<path d="M20.5701 5.14158H23.1414V2.57031H20.5701C19.8375 2.57276 19.1139 2.73268 18.4485 3.03923C17.783 3.34578 17.1912 3.7918 16.7132 4.34706C16.2352 3.7918 15.6435 3.34578 14.978 3.03923C14.3126 2.73268 13.589 2.57276 12.8563 2.57031H11.5707C8.50301 2.57372 5.56193 3.79386 3.39274 5.96305C1.22355 8.13224 0.00340288 11.0733 0 14.141V21.8548C0.00340288 24.9225 1.22355 27.8636 3.39274 30.0328C5.56193 32.202 8.50301 33.4221 11.5707 33.4255H12.8563C13.589 33.4231 14.3126 33.2632 14.978 32.9566C15.6435 32.6501 16.2352 32.204 16.7132 31.6488C17.1912 32.204 17.783 32.6501 18.4485 32.9566C19.1139 33.2632 19.8375 33.4231 20.5701 33.4255H23.1414V30.8543H20.5701C19.8884 30.8536 19.2348 30.5825 18.7527 30.1004C18.2707 29.6183 17.9996 28.9647 17.9989 28.283V7.71285C17.9996 7.03112 18.2707 6.3775 18.7527 5.89544C19.2348 5.41338 19.8884 5.14226 20.5701 5.14158ZM12.8563 30.8543H11.5707C9.40884 30.8504 7.3205 30.069 5.68711 28.6527C4.05371 27.2365 2.98428 25.28 2.67412 23.1405H5.14254V20.5692H2.57127V15.4267H6.42817C7.45077 15.4256 8.4312 15.019 9.15428 14.2959C9.87737 13.5728 10.2841 12.5924 10.2851 11.5698V8.99848H7.7138V11.5698C7.7138 11.9107 7.57835 12.2377 7.33725 12.4788C7.09615 12.7199 6.76914 12.8554 6.42817 12.8554H2.67412C2.98428 10.7159 4.05371 8.75933 5.68711 7.3431C7.3205 5.92686 9.40884 5.14545 11.5707 5.14158H12.8563C13.5381 5.14226 14.1917 5.41338 14.6737 5.89544C15.1558 6.3775 15.4269 7.03112 15.4276 7.71285V12.8554H12.8563V15.4267H15.4276V20.5692H12.8563C11.8337 20.5702 10.8533 20.9769 10.1302 21.7C9.40714 22.4231 9.00046 23.4035 8.99944 24.4261V26.9974H11.5707V24.4261C11.5707 24.0851 11.7062 23.7581 11.9473 23.517C12.1884 23.2759 12.5154 23.1405 12.8563 23.1405H15.4276V28.283C15.4269 28.9647 15.1558 29.6183 14.6737 30.1004C14.1917 30.5825 13.5381 30.8536 12.8563 30.8543Z" fill="white"/>
</svg>
