<svg width="9" height="15" viewBox="0 0 9 15" fill="none" xmlns="http://www.w3.org/2000/svg">
<path d="M8.60085 12.7013L3.29751 7.493L8.60085 2.2847C8.7274 2.16042 8.82778 2.01289 8.89626 1.85051C8.96475 1.68813 9 1.5141 9 1.33835C9 1.16259 8.96475 0.988559 8.89626 0.826183C8.82778 0.663808 8.7274 0.516269 8.60085 0.391992C8.47431 0.267715 8.32408 0.169133 8.15874 0.101875C7.9934 0.034617 7.81619 -2.61894e-09 7.63723 0C7.45827 2.61894e-09 7.28106 0.034617 7.11572 0.101875C6.95038 0.169133 6.80015 0.267715 6.67361 0.391992L0.399801 6.55336C-0.133266 7.07688 -0.133266 7.92256 0.399801 8.44607L6.67361 14.6074C6.80006 14.7319 6.95026 14.8306 7.11561 14.898C7.28096 14.9653 7.45822 15 7.63723 15C7.81624 15 7.9935 14.9653 8.15885 14.898C8.3242 14.8306 8.4744 14.7319 8.60085 14.6074C9.12025 14.0839 9.13392 13.2248 8.60085 12.7013Z" fill="#2D3A47"/>
</svg>
