<svg width="70" height="70" viewBox="0 0 70 70" fill="currentColor" xmlns="http://www.w3.org/2000/svg">
<g clip-path="url(#clip0_14142_33897)">
<path d="M35 0C15.6719 0 0 15.6719 0 35C0 54.3281 15.6719 70 35 70C54.3281 70 70 54.3281 70 35C70 15.6719 54.3281 0 35 0ZM35 64.0625C18.9531 64.0625 5.9375 51.0469 5.9375 35C5.9375 18.9531 18.9531 5.9375 35 5.9375C51.0469 5.9375 64.0625 18.9531 64.0625 35C64.0625 51.0469 51.0469 64.0625 35 64.0625Z" fill="currentColor"/>
<path d="M31.25 48.75C31.25 49.7446 31.6451 50.6984 32.3483 51.4016C33.0516 52.1049 34.0054 52.5 35 52.5C35.9946 52.5 36.9484 52.1049 37.6516 51.4016C38.3549 50.6984 38.75 49.7446 38.75 48.75C38.75 47.7554 38.3549 46.8016 37.6516 46.0984C36.9484 45.3951 35.9946 45 35 45C34.0054 45 33.0516 45.3951 32.3483 46.0984C31.6451 46.8016 31.25 47.7554 31.25 48.75V48.75ZM33.125 40H36.875C37.2188 40 37.5 39.7188 37.5 39.375V18.125C37.5 17.7812 37.2188 17.5 36.875 17.5H33.125C32.7812 17.5 32.5 17.7812 32.5 18.125V39.375C32.5 39.7188 32.7812 40 33.125 40Z" fill="currentColor"/>
</g>
<defs>
<clipPath id="clip0_14142_33897">
<rect width="70" height="70" fill="currentColor"/>
</clipPath>
</defs>
</svg>
