<svg xmlns="http://www.w3.org/2000/svg" viewBox="0 0 24 24">
  <path fill="currentColor" d="M5.25 20.29a2.83 2.83 0 0 1-2.15-3.54c.06-.19 1.36-2.59 2.9-5.34l3.24-5.84c.54-.97.95-1.42 1.55-1.72.37-.18.48-.2 1.19-.2.72 0 .81.02 1.2.2.83.4.84.43 4.38 6.8 2.94 5.3 3.27 5.93 3.37 6.4.1.46.1.57 0 1.03a2.76 2.76 0 0 1-2.28 2.21c-.52.08-12.9.08-13.4 0zm13.41-1.9a.99.99 0 0 0 .5-.93c-.04-.3-6.25-11.5-6.53-11.8-.35-.36-1-.32-1.37.1-.15.16-5.7 10.09-6.22 11.14-.23.44-.27.58-.23.8.05.27.34.65.57.75.08.03 3.04.06 6.59.06 5.83 0 6.47 0 6.7-.11z"/>
  <path fill="currentColor" d="M11.6 13.66a.98.98 0 0 1-.36-.34c-.14-.22-.15-.35-.15-2.35 0-1.7.02-2.15.1-2.31a.9.9 0 0 1 1.5-.12l.18.23v2.2c0 2.15 0 2.2-.16 2.4-.16.2-.52.4-.75.39a1.5 1.5 0 0 1-.35-.1zm.17 2.89c-.82-.21-.9-1.38-.13-1.7.35-.15.7-.07 1 .22.2.2.23.29.23.59 0 .41-.18.69-.54.84-.24.1-.32.1-.56.05z"/>
</svg>