<svg width="20" height="22" viewBox="0 0 20 22" fill="none" xmlns="http://www.w3.org/2000/svg">
<path d="M9.89977 0C10.1915 0 10.4713 0.115892 10.6776 0.322183C10.8839 0.528472 10.9998 0.808262 10.9998 1.1V2.2605C13.3912 2.5322 15.0313 3.6861 16.0719 5.1315C17.228 6.7353 17.5998 8.624 17.5998 9.9V13.8446L19.4775 15.7223C19.6313 15.8761 19.736 16.0721 19.7784 16.2855C19.8208 16.4988 19.799 16.7199 19.7158 16.9209C19.6326 17.1219 19.4916 17.2937 19.3108 17.4145C19.1299 17.5354 18.9173 17.6 18.6998 17.6H14.2998C14.2998 18.326 14.0908 19.3908 13.4319 20.306C12.7334 21.2751 11.5784 22 9.89977 22C8.22117 22 7.06617 21.2762 6.36657 20.306C5.81031 19.5126 5.50804 18.569 5.49977 17.6H1.09977C0.88224 17.6 0.669612 17.5354 0.488761 17.4145C0.30791 17.2937 0.166957 17.1219 0.0837199 16.9209C0.000482846 16.7199 -0.0213005 16.4988 0.0211238 16.2855C0.0635481 16.0721 0.168275 15.8761 0.322066 15.7223L2.19977 13.8446V9.9C2.19977 6.9014 3.47357 4.9214 5.13237 3.7268C6.31927 2.8732 7.66347 2.4464 8.79977 2.2825V1.1C8.79977 0.808262 8.91566 0.528472 9.12195 0.322183C9.32824 0.115892 9.60803 0 9.89977 0ZM7.69977 17.6C7.69977 17.974 7.82077 18.5592 8.15297 19.019C8.44337 19.4238 8.93837 19.8 9.89977 19.8C10.8612 19.8 11.3562 19.4238 11.6466 19.019C11.9788 18.5592 12.0998 17.974 12.0998 17.6H7.69977ZM6.41717 5.5132C5.32597 6.2986 4.39977 7.6186 4.39977 9.9V14.3C4.3997 14.5917 4.28377 14.8715 4.07747 15.0777L3.75517 15.4H16.0444L15.7221 15.0777C15.5158 14.8715 15.3998 14.5917 15.3998 14.3V9.9C15.3998 8.976 15.1138 7.5658 14.2877 6.4174C13.5012 5.3262 12.1801 4.4 9.89977 4.4C8.97577 4.4 7.56557 4.686 6.41717 5.5132Z" fill="#2D3A47"/>
</svg>
