<svg xmlns="http://www.w3.org/2000/svg" fill="none" viewBox="0 0 24 24">
  <path fill="currentColor" d="M10.05 3.93c-.49.5-.77 1.15-.8 1.84H4.6a.65.65 0 0 0-.65.66l.01.1v.01a.65.65 0 0 0 .64.54h.48l1.36 11.81a2.25 2.25 0 0 0 2.22 1.99h6.7a2.23 2.23 0 0 0 2.21-1.99l1.36-11.81h.48a.65.65 0 0 0 .65-.65.65.65 0 0 0-.65-.66h-4.64A2.78 2.78 0 0 0 12 3.12c-.74 0-1.44.3-1.96.81zm.5 1.84A1.47 1.47 0 0 1 12 4.42a1.46 1.46 0 0 1 1.46 1.35zm-1.89 13.8a.94.94 0 0 1-.93-.83L6.39 7.08h11.23l-1.34 11.66a.94.94 0 0 1-.93.84zM10.42 9.5h-.12v.01c-.3.05-.53.28-.53.58v6.51l.01.08v.02c.06.28.33.47.64.47.34 0 .65-.24.65-.58v-6.6l-.01-.01c-.06-.28-.33-.48-.64-.48Zm3.17 0h-.12v.01c-.29.05-.53.28-.53.58v6.51l.01.08v.02c.06.28.34.47.64.47.35 0 .65-.24.65-.58V9.97a.66.66 0 0 0-.65-.48Z"/>
</svg>