<svg version="1.1" viewBox="0 0 24 24" xmlns="http://www.w3.org/2000/svg">
 <path d="m11.216 20.986c-0.9082-0.11-1.8068-0.325-2.4883-0.59551-4.9785-1.976-7.1631-7.7612-4.7287-12.522 1.079-2.11 2.9645-3.7117 5.2431-4.4537 0.93667-0.30502 1.6641-0.41425 2.7587-0.41425 1.1244 0 1.8203 0.10786 2.8301 0.43881 1.3372 0.43821 2.4914 1.1528 3.5246 2.1824 2.1111 2.1035 3.0435 5.1289 2.4867 8.0693-0.31758 1.6771-1.1561 3.2957-2.347 4.5302-1.4039 1.4553-3.009 2.3025-5.0675 2.6744-0.41131 0.07427-1.8565 0.13333-2.2118 0.09027zm1.855-1.8375c0.93337-0.12892 2.1393-0.60374 2.9764-1.1719 0.44863-0.3045 1.0368-0.81311 1.3082-1.1312 0.08944-0.10482 0.17519-0.20132 0.19059-0.21442 0.01541-0.01307 0.14581-0.18465 0.28982-0.38121 0.59234-0.80849 1.0169-1.7609 1.2373-2.7753 0.09101-0.41883 0.1062-0.6318 0.1062-1.4894 0-1.1553-0.07414-1.6129-0.40421-2.4931-0.38691-1.0319-0.89938-1.8265-1.6814-2.6068-0.55531-0.55415-0.8977-0.81868-1.5318-1.1835-1.8864-1.0853-4.3021-1.2371-6.3028-0.39607-2.2479 0.945-3.8238 2.8558-4.3517 5.2765-0.12291 0.56351-0.1267 2.2282-0.00675 2.7849 0.36972 1.7102 1.2789 3.2111 2.5805 4.2598 0.90094 0.72594 2.0032 1.2387 3.1875 1.4828 0.64679 0.13331 1.6058 0.14882 2.402 0.03877z" fill="currentColor" stroke-width=".047607"/>
 <path d="m6.6968 12.813c-0.29628-0.11835-0.53421-0.47401-0.53421-0.7985 0-0.5389 0.4214-0.94404 0.93736-0.90118 0.30083 0.025 0.64682 0.24659 0.7435 0.47622 0.03645 0.08644 0.06615 0.27672 0.06615 0.42277 0 0.49069-0.37349 0.85773-0.86615 0.8512-0.1253-0.0011-0.28132-0.02434-0.3467-0.05049z" fill="currentColor" stroke-width=".047607"/>
 <path d="m8.2989 9.3398c-0.63001-0.11558-0.89816-0.92788-0.47328-1.4337 0.53939-0.64219 1.5346-0.26021 1.5346 0.58901 0 0.56721-0.4822 0.95099-1.0614 0.84473z" fill="currentColor" stroke-width=".047607"/>
 <path d="m11.678 13.294c-0.26551-0.0665-0.41531-0.15735-0.63861-0.38751-0.2463-0.25387-0.34695-0.52675-0.34634-0.93898 6.08e-4 -0.4128 0.14248-0.72168 0.46481-1.012 0.38516-0.34692 3.1438-2.3757 4.2899-3.1548 0.06559-0.044518 0.2093-0.079907 0.32472-0.079907 0.1655 0 0.23505 0.027951 0.34615 0.13928 0.20401 0.20439 0.19458 0.47429-0.02768 0.79077-0.09169 0.13056-0.20388 0.29098-0.24938 0.35649-0.13475 0.19405-1.0548 1.4737-1.3191 1.8346-0.13434 0.18345-0.47846 0.65406-0.76473 1.0458-0.6425 0.87922-0.96355 1.2323-1.2106 1.3312-0.24466 0.09804-0.64062 0.13228-0.86916 0.07506z" fill="currentColor" stroke-width=".047607"/>
 <path d="m11.532 7.7672c-0.51928-0.3299-0.54567-1.0805-0.0513-1.4583 0.15949-0.12188 0.21835-0.13742 0.52019-0.13742 0.30205 0 0.36065 0.015553 0.52067 0.13778 0.51765 0.39554 0.44706 1.2214-0.12825 1.5003-0.3037 0.14728-0.58446 0.13344-0.86134-0.04249z" fill="currentColor" stroke-width=".047607"/>
 <path d="m16.53 12.768c-0.47251-0.2499-0.60709-0.91903-0.26364-1.3108 0.40913-0.46681 1.0407-0.46373 1.3989 0.0068 0.13619 0.17889 0.20349 0.55935 0.1422 0.80398-0.04229 0.16895-0.30731 0.45773-0.49028 0.53432-0.2205 0.0923-0.5773 0.07675-0.7872-0.03426z" fill="currentColor" stroke-width=".047607"/>
</svg>
