<svg xmlns="http://www.w3.org/2000/svg" viewBox="0 0 24 24">
  <path fill="currentColor" d="M3.67 20.9a.99.99 0 0 1-.55-.52C3 20.16 3 19.95 3 15.94v-4.21l.15-.3c.17-.37.4-.6.74-.75.22-.1.53-.11 3.43-.12l3.23-.02c.02 0 .04-1.46.04-3.24 0-3 .01-3.24.12-3.47.12-.28.37-.55.65-.7.16-.09.6-.1 4.33-.11 4.14-.02 4.15-.02 4.46.11.35.16.68.5.78.84.05.18.07 2.34.07 8.21 0 6.63-.01 8-.08 8.17-.11.25-.38.5-.65.58-.15.05-2.41.07-8.3.07-7.06 0-8.11-.01-8.3-.1zm2.44-1.56c.05-.06.07-.72.07-2.6V14.2l.21-.22.21-.23 2.15-.02c1.88-.02 2.18 0 2.36.08.44.21.43.14.46 3l.03 2.57 3.77.02c2.07 0 3.82 0 3.9-.02l.14-.03-.02-7.36-.01-7.37H12.2l-.01 3.79-.02 3.78H4.65v3.57c0 1.96.02 3.59.04 3.61a4.4 4.4 0 0 0 1.42-.03zm3.8-2 .01-2.03H7.78v2c0 1.11.01 2.04.04 2.06a7 7 0 0 0 1.05.03l1.02-.02z"/>
  <path fill="currentColor" d="M13.4 16.02a1.09 1.09 0 0 1-.54-.89c0-.26.2-.65.43-.81a1.04 1.04 0 0 1 1.54.43.98.98 0 0 1-.46 1.29.97.97 0 0 1-.96-.02zm-.02-3.79c-.9-.5-.52-1.88.52-1.88a1.01 1.01 0 1 1-.52 1.88zm-.04-3.8c-.59-.4-.63-1.14-.1-1.62a.87.87 0 0 1 .79-.24 1 1 0 0 1 .77 1.45c-.2.39-.47.55-.9.55-.26 0-.4-.03-.56-.14zm3.8.01a.98.98 0 0 1-.47-.8.97.97 0 0 1 1.07-1.07c.36.03.58.16.8.48.12.17.14.27.12.58-.03.43-.18.7-.5.84-.3.15-.77.13-1.02-.03z"/>
  <path d="M17.23 12.29c-.67-.3-.76-1.29-.16-1.74.3-.24.82-.27 1.11-.07.65.44.67 1.27.05 1.73-.2.15-.74.2-1 .07z"/>
  <path fill="currentColor" d="M17.2 16.03c-.74-.37-.72-1.41.03-1.8.42-.23 1.1-.02 1.33.4.16.3.15.79-.02 1.05-.16.24-.6.49-.88.49-.1 0-.3-.07-.46-.14z"/>
</svg>
