<svg xmlns="http://www.w3.org/2000/svg" width="36" height="36" viewBox="0 0 36 36" fill="none">
    <path d="M32.4 18H34M28.4 7.6L30 6M18 3.6V2M7.6 7.6L6 6M3.6 18H2M14.8 34H21.2M26 18C25.9996 16.5578 25.6093 15.1425 24.8705 13.9039C24.1316 12.6653 23.0717 11.6495 21.8028 10.9639C20.534 10.2784 19.1034 9.94855 17.6624 10.0094C16.2215 10.0703 14.8238 10.5195 13.6173 11.3096C12.4107 12.0997 11.4402 13.2013 10.8084 14.4978C10.1767 15.7943 9.9071 17.2374 10.0283 18.6745C10.1495 20.1117 10.6569 21.4893 11.4969 22.6617C12.3369 23.834 13.4782 24.7575 14.8 25.3344V29.2H21.2V25.3344C22.6269 24.7114 23.841 23.6857 24.6936 22.3829C25.5462 21.0802 26.0002 19.557 26 18Z" stroke="black" stroke-width="3.5" stroke-linecap="round" stroke-linejoin="round"/>
</svg>