<svg xmlns="http://www.w3.org/2000/svg" viewBox="0 0 24 24">
  <path fill="currentColor" d="M16.83 15.08v3.25zm0 6.5v-3.25zm0-3.25H20zm0 0h-3.16z"/>
  <path d="M5.13 20.69c-.9-.2-1.61-.8-1.94-1.65-.2-.5-.18.12-.19-6.45 0-4.05 0-5.92.02-6.06.12-.96.78-1.82 1.67-2.17a2.9 2.9 0 0 1 1.28-.18l.65-.02.01-.62c.01-.58.02-.62.07-.73a.85.85 0 0 1 1.54.02l.07.14.01 1.2h5.56l.01-1.24.08-.15a.85.85 0 0 1 1.56.16c.03.1.04.25.04.68v.55h.54c.6 0 .84.03 1.14.11a2.7 2.7 0 0 1 1.9 2.12c.04.2.04.57.04 2.59v2.94l-.05.14a.89.89 0 0 1-.43.45.62.62 0 0 1-.37.08.68.68 0 0 1-.33-.05 1.01 1.01 0 0 1-.44-.45l-.07-.14-.01-2.37H4.69v4.25c0 2.8 0 4.3.02 4.38a1 1 0 0 0 .54.73l.18.09 6.77.02.14.06c.44.21.63.73.41 1.16a1 1 0 0 1-.45.4c-.13.06-.15.06-3.55.06-3.21 0-3.43 0-3.62-.05z"/>
  <path d="M17.28 21.66a.88.88 0 0 1-.62-.5l-.06-.13-.01-2.15h-2.1l-.14-.08a.98.98 0 0 1-.4-.41c-.05-.1-.06-.16-.06-.35 0-.23 0-.25.08-.39.1-.18.22-.3.4-.38l.14-.06 2.08-.02v-1.07l.01-1.08.06-.13c.09-.18.2-.3.39-.4a.64.64 0 0 1 .35-.09.7.7 0 0 1 .34.04c.2.08.41.3.48.48.05.14.06.17.06 1.2v1.06h.99c.84 0 1.01 0 1.12.03a.84.84 0 0 1 .1 1.59c-.1.05-.14.05-1.16.06l-1.04.01-.03 2.17-.06.13a.87.87 0 0 1-.92.47z"/>
</svg>