<svg width="21" height="23" viewBox="0 0 21 23" fill="none" xmlns="http://www.w3.org/2000/svg">
<path d="M16.8337 15.0742V18.3221V15.0742ZM16.8337 21.5699V18.3221V21.5699ZM16.8337 18.3221H20.0003H16.8337ZM16.8337 18.3221H13.667H16.8337Z" fill="#2D3A47"/>
<path d="M16.8337 18.3221H13.667M16.8337 15.0742V18.3221V15.0742ZM16.8337 21.5699V18.3221V21.5699ZM16.8337 18.3221H20.0003H16.8337Z" stroke="#2D3A47" stroke-width="2" stroke-linecap="round" stroke-linejoin="round"/>
<path d="M17.3889 6.99455H1.5V5.3293C1.5 4.88363 1.67274 4.45867 1.97633 4.1473C2.2795 3.83635 2.68796 3.66406 3.11111 3.66406H15.7778C16.2009 3.66406 16.6094 3.83635 16.9126 4.1473C17.2162 4.45867 17.3889 4.88363 17.3889 5.3293V6.99455Z" fill="#2D3A47" stroke="#2D3A47"/>
<path d="M13.6667 3.16524H15.7778C16.3377 3.16524 16.8746 3.39337 17.2706 3.79943C17.6665 4.20549 17.8889 4.75623 17.8889 5.33048V7.49573H1V5.33048C1 4.75623 1.22242 4.20549 1.61833 3.79943C2.01424 3.39337 2.55121 3.16524 3.11111 3.16524H5.22222H13.6667ZM17.8889 8.03704V11.0142V8.03704Z" fill="#2D3A47"/>
<path d="M13.6667 3.16524H15.7778C16.3377 3.16524 16.8746 3.39337 17.2706 3.79943C17.6665 4.20549 17.8889 4.75623 17.8889 5.33048V7.49573H1V5.33048C1 4.75623 1.22242 4.20549 1.61833 3.79943C2.01424 3.39337 2.55121 3.16524 3.11111 3.16524H5.22222M13.6667 3.16524H5.22222M13.6667 3.16524V1M5.22222 3.16524V1M1 8.03704V18.3219C1 18.8962 1.22242 19.4469 1.61833 19.853C2.01424 20.2591 2.55121 20.4872 3.11111 20.4872H10.5M17.8889 8.03704V11.0142" stroke="#2D3A47" stroke-width="2" stroke-linecap="round" stroke-linejoin="round"/>
</svg>
