<svg xmlns="http://www.w3.org/2000/svg" width="22" height="21" viewBox="0 0 22 21" fill="none">
  <path d="M1.99976 1.5H3.99978L4.49979 4.50004M4.49979 4.50004L5.99981 13.5002H17L20 4.50004H4.49979Z" stroke="#2D3A47" stroke-width="2.3" stroke-linecap="round" stroke-linejoin="round"/>
  <path d="M6.99983 19.5C7.55212 19.5 7.99984 19.0523 7.99984 18.5C7.99984 17.9477 7.55212 17.5 6.99983 17.5C6.44754 17.5 5.99982 17.9477 5.99982 18.5C5.99982 19.0523 6.44754 19.5 6.99983 19.5Z" stroke="#2D3A47" stroke-width="2.3" stroke-linecap="round" stroke-linejoin="round"/>
  <path d="M16 19.5C16.5522 19.5 17 19.0523 17 18.5C17 17.9477 16.5522 17.5 16 17.5C15.4477 17.5 14.9999 17.9477 14.9999 18.5C14.9999 19.0523 15.4477 19.5 16 19.5Z" stroke="#2D3A47" stroke-width="2.3" stroke-linecap="round" stroke-linejoin="round"/>
</svg>