<svg width="16" height="17" viewBox="0 0 16 17" fill="none" xmlns="http://www.w3.org/2000/svg">
<path opacity="0.5" d="M9.44096 3.68265L11.3765 1.74714C11.5348 1.5889 11.7494 1.5 11.9733 1.5C12.1971 1.5 12.4117 1.5889 12.57 1.74714L14.7529 3.92997C14.9111 4.08826 15 4.30292 15 4.52675C15 4.75057 14.9111 4.96523 14.7529 5.12352L12.8173 7.05904M9.44096 3.68265L1.24732 11.8763C1.08901 12.0346 1.00005 12.2492 1 12.4731V14.6559C1 14.8798 1.08893 15.0945 1.24723 15.2528C1.40553 15.4111 1.62023 15.5 1.8441 15.5H4.02693C4.25078 15.5 4.46544 15.411 4.62371 15.2527L12.8173 7.05904M9.44096 3.68265L12.8173 7.05904" stroke="#2D3A47" stroke-width="2" stroke-linecap="round" stroke-linejoin="round"/>
</svg>
