<svg width="22" height="22" viewBox="0 0 22 22" fill="none" xmlns="http://www.w3.org/2000/svg">
<path d="M10.9992 0C9.10302 0.000547398 7.2392 0.491127 5.58849 1.42415C3.93778 2.35718 2.55622 3.70098 1.57782 5.3252C0.599421 6.94943 0.0573928 8.79894 0.00431264 10.6943C-0.0487675 12.5897 0.388903 14.4667 1.27487 16.1431L0.44993 19.0302C0.350121 19.3795 0.345529 19.7491 0.436632 20.1007C0.527735 20.4524 0.711217 20.7733 0.968064 21.0301C1.22491 21.287 1.54578 21.4705 1.89741 21.5616C2.24904 21.6528 2.61865 21.6482 2.96793 21.5484L5.85532 20.7235C7.33155 21.5044 8.96621 21.9388 10.6353 21.994C12.3045 22.0492 13.9642 21.7235 15.4888 21.0418C17.0134 20.3601 18.3627 19.3402 19.4345 18.0595C20.5063 16.7788 21.2724 15.2708 21.6747 13.6499C22.077 12.0291 22.105 10.3379 21.7565 8.70463C21.408 7.07136 20.6922 5.53887 19.6634 4.22338C18.6345 2.90789 17.3197 1.84393 15.8185 1.11217C14.3173 0.380416 12.6692 7.86333e-05 10.9992 0ZM10.9992 19.5541C9.46298 19.5553 7.95491 19.1421 6.63381 18.3581C6.49066 18.273 6.33162 18.218 6.16645 18.1966C6.00128 18.1751 5.83347 18.1877 5.67332 18.2334L3.00164 18.9967L3.76486 16.325C3.8106 16.1649 3.82313 15.9971 3.80168 15.8319C3.78023 15.6668 3.72524 15.5078 3.6401 15.3646C2.67665 13.7412 2.27718 11.8447 2.5039 9.9705C2.73063 8.09634 3.57082 6.34978 4.8936 5.0029C6.21639 3.65601 7.94749 2.78442 9.81725 2.52389C11.687 2.26336 13.5904 2.62853 15.231 3.56251C16.8716 4.49649 18.1573 5.94684 18.8877 7.68763C19.6181 9.42842 19.7523 11.3619 19.2693 13.1869C18.7864 15.0119 17.7134 16.6259 16.2176 17.7776C14.7217 18.9293 12.887 19.5539 10.9992 19.5541ZM15.4803 8.9623C15.4803 9.28643 15.3516 9.59728 15.1224 9.82648C14.8932 10.0557 14.5823 10.1844 14.2582 10.1844H7.74015C7.41602 10.1844 7.10517 10.0557 6.87597 9.82648C6.64678 9.59728 6.51802 9.28643 6.51802 8.9623C6.51802 8.63817 6.64678 8.32732 6.87597 8.09812C7.10517 7.86893 7.41602 7.74017 7.74015 7.74017H14.2582C14.5823 7.74017 14.8932 7.86893 15.1224 8.09812C15.3516 8.32732 15.4803 8.63817 15.4803 8.9623ZM15.4803 13.0361C15.4803 13.3602 15.3516 13.6711 15.1224 13.9002C14.8932 14.1294 14.5823 14.2582 14.2582 14.2582H7.74015C7.41602 14.2582 7.10517 14.1294 6.87597 13.9002C6.64678 13.6711 6.51802 13.3602 6.51802 13.0361C6.51802 12.7119 6.64678 12.4011 6.87597 12.1719C7.10517 11.9427 7.41602 11.8139 7.74015 11.8139H14.2582C14.5823 11.8139 14.8932 11.9427 15.1224 12.1719C15.3516 12.4011 15.4803 12.7119 15.4803 13.0361Z" fill="#2D3A47"/>
</svg>
