<svg xmlns="http://www.w3.org/2000/svg" width="16" height="17" viewBox="0 0 16 17" fill="none">
    <path d="M7.2 12.0249H8.8V7.2249H7.2V12.0249ZM8 5.6249C8.22667 5.6249 8.4168 5.5481 8.5704 5.3945C8.72347 5.24144 8.8 5.05157 8.8 4.8249C8.8 4.59824 8.72347 4.4081 8.5704 4.2545C8.4168 4.10144 8.22667 4.0249 8 4.0249C7.77333 4.0249 7.58347 4.10144 7.4304 4.2545C7.2768 4.4081 7.2 4.59824 7.2 4.8249C7.2 5.05157 7.2768 5.24144 7.4304 5.3945C7.58347 5.5481 7.77333 5.6249 8 5.6249ZM8 16.0249C6.89333 16.0249 5.85333 15.8148 4.88 15.3945C3.90667 14.9748 3.06 14.4049 2.34 13.6849C1.62 12.9649 1.05013 12.1182 0.6304 11.1449C0.210133 10.1716 0 9.13157 0 8.0249C0 6.91824 0.210133 5.87824 0.6304 4.9049C1.05013 3.93157 1.62 3.0849 2.34 2.3649C3.06 1.6449 3.90667 1.07477 4.88 0.654502C5.85333 0.234769 6.89333 0.0249023 8 0.0249023C9.10667 0.0249023 10.1467 0.234769 11.12 0.654502C12.0933 1.07477 12.94 1.6449 13.66 2.3649C14.38 3.0849 14.9499 3.93157 15.3696 4.9049C15.7899 5.87824 16 6.91824 16 8.0249C16 9.13157 15.7899 10.1716 15.3696 11.1449C14.9499 12.1182 14.38 12.9649 13.66 13.6849C12.94 14.4049 12.0933 14.9748 11.12 15.3945C10.1467 15.8148 9.10667 16.0249 8 16.0249ZM8 14.4249C9.78667 14.4249 11.3 13.8049 12.54 12.5649C13.78 11.3249 14.4 9.81157 14.4 8.0249C14.4 6.23824 13.78 4.7249 12.54 3.4849C11.3 2.2449 9.78667 1.6249 8 1.6249C6.21333 1.6249 4.7 2.2449 3.46 3.4849C2.22 4.7249 1.6 6.23824 1.6 8.0249C1.6 9.81157 2.22 11.3249 3.46 12.5649C4.7 13.8049 6.21333 14.4249 8 14.4249Z" fill="#2D3A47"/>
</svg>