<svg width="22" height="22" viewBox="0 0 22 22" fill="none" xmlns="http://www.w3.org/2000/svg">
<path d="M5.9915 11.9787C5.9915 11.4494 5.78123 10.9418 5.40696 10.5675C5.03268 10.1933 4.52505 9.983 3.99575 9.983C3.46644 9.983 2.95882 9.77273 2.58454 9.39846C2.21027 9.02418 2 8.51655 2 7.98725V3.99575C2 3.46644 2.21027 2.95882 2.58454 2.58454C2.95882 2.21027 3.46644 2 3.99575 2H10.9809C11.5102 2 12.0178 2.21027 12.3921 2.58454C12.7664 2.95882 12.9766 3.46644 12.9766 3.99575V6.98937M10.9809 9.983H17.966C18.4953 9.983 19.0029 10.1933 19.3772 10.5675C19.7515 10.9418 19.9617 11.4494 19.9617 11.9787V15.9702C19.9617 16.4996 19.7515 17.0072 19.3772 17.3815C19.0029 17.7557 18.4953 17.966 17.966 17.966H17.3274C16.9674 17.966 16.6222 18.109 16.3677 18.3635C16.1132 18.618 15.9702 18.9632 15.9702 19.3231C15.9699 19.4571 15.9299 19.5879 15.8554 19.6992C15.7808 19.8105 15.6749 19.8972 15.5511 19.9484C15.4274 19.9997 15.2912 20.0131 15.1598 19.9871C15.0284 19.961 14.9076 19.8966 14.8127 19.8021L13.5614 18.5508C13.1872 18.1764 12.6796 17.9661 12.1504 17.966H10.9809C10.4516 17.966 9.94394 17.7557 9.56966 17.3815C9.19539 17.0072 8.98512 16.4996 8.98512 15.9702V11.9787C8.98512 11.4494 9.19539 10.9418 9.56966 10.5675C9.94394 10.1933 10.4516 9.983 10.9809 9.983Z" stroke="#2D3A47" stroke-width="2.5" stroke-linecap="round" stroke-linejoin="round"/>
</svg>
