<svg width="19" height="18" viewBox="0 0 19 18" fill="none" xmlns="http://www.w3.org/2000/svg">
<path fill-rule="evenodd" clip-rule="evenodd" d="M9.5 18C14.4707 18 18.5 13.9707 18.5 9C18.5 4.0293 14.4707 0 9.5 0C4.5293 0 0.5 4.0293 0.5 9C0.5 10.44 0.8384 11.8008 1.4387 13.0077C1.5989 13.3281 1.652 13.6944 1.5593 14.0409L1.0238 16.0443C0.970763 16.2426 0.970811 16.4513 1.02394 16.6495C1.07707 16.8478 1.18141 17.0285 1.32648 17.1737C1.47156 17.3189 1.65227 17.4233 1.85047 17.4766C2.04868 17.5298 2.2574 17.53 2.4557 17.4771L4.4591 16.9407C4.80686 16.8532 5.17462 16.8957 5.4932 17.0604C6.73783 17.6802 8.10959 18.0018 9.5 18ZM5.9 10.125C5.72098 10.125 5.54929 10.1961 5.4227 10.3227C5.29611 10.4493 5.225 10.621 5.225 10.8C5.225 10.979 5.29611 11.1507 5.4227 11.2773C5.54929 11.4039 5.72098 11.475 5.9 11.475H10.85C11.029 11.475 11.2007 11.4039 11.3273 11.2773C11.4539 11.1507 11.525 10.979 11.525 10.8C11.525 10.621 11.4539 10.4493 11.3273 10.3227C11.2007 10.1961 11.029 10.125 10.85 10.125H5.9ZM5.225 7.65C5.225 7.47098 5.29611 7.29929 5.4227 7.1727C5.54929 7.04611 5.72098 6.975 5.9 6.975H13.1C13.279 6.975 13.4507 7.04611 13.5773 7.1727C13.7039 7.29929 13.775 7.47098 13.775 7.65C13.775 7.82902 13.7039 8.00071 13.5773 8.12729C13.4507 8.25388 13.279 8.325 13.1 8.325H5.9C5.72098 8.325 5.54929 8.25388 5.4227 8.12729C5.29611 8.00071 5.225 7.82902 5.225 7.65Z" fill="#ED7115"/>
</svg>
