<svg width="20" height="23" viewBox="0 0 20 23" fill="none" xmlns="http://www.w3.org/2000/svg">
<path d="M5.33398 3.1V15.7C5.33398 16.257 5.56237 16.7911 5.96889 17.1849C6.3754 17.5787 6.92676 17.8 7.50167 17.8H16.1724C16.7473 17.8 17.2987 17.5787 17.7052 17.1849C18.1117 16.7911 18.3401 16.257 18.3401 15.7V6.5041C18.3401 6.22434 18.2823 5.9474 18.1703 5.68956C18.0582 5.43171 17.8941 5.19815 17.6876 5.0026L14.0947 1.5985C13.6897 1.21489 13.1459 1.00007 12.5795 1H7.50167C6.92676 1 6.3754 1.22125 5.96889 1.61508C5.56237 2.0089 5.33398 2.54305 5.33398 3.1V3.1Z" stroke="black" stroke-width="2" stroke-linecap="round" stroke-linejoin="round"/>
<path d="M14.0061 17.8V19.9C14.0061 20.457 13.7777 20.9911 13.3712 21.3849C12.9647 21.7787 12.4133 22 11.8384 22H3.16769C2.59278 22 2.04142 21.7787 1.6349 21.3849C1.22838 20.9911 1 20.457 1 19.9V8.35C1 7.79305 1.22838 7.2589 1.6349 6.86508C2.04142 6.47125 2.59278 6.25 3.16769 6.25H5.33537" stroke="black" stroke-width="2" stroke-linecap="round" stroke-linejoin="round"/>
</svg>
