<svg xmlns="http://www.w3.org/2000/svg" width="24" height="24" fill="currentColor" viewBox="0 0 24 24">
  <path d="M0 0h24v24H0z" fill="none"/>
  <path d="M4.13 20.1A1.48 1.48 0 0 1 3.05 19C3 18.83 3 18.76 3 14.97c0-4.28 0-4.02.15-4.35.19-.39.55-.67.98-.78.17-.05.34-.05 7.87-.05 8.48 0 7.84 0 8.16.15.31.15.55.39.7.68.15.31.14.02.14 4.34 0 4.4.01 4.04-.17 4.4-.16.31-.47.57-.84.7l-.16.07h-7.77c-7.53 0-7.78 0-7.93-.04zm15.39-5.14v-3.7H4.48v7.42h15.04zM6 7.56v-.73h12.01v1.46h-12ZM7.51 4.6v-.73h9v1.46h-9Z"/>
  <path d="m9.5 16.76-1.23-1.2.51-.5c.28-.28.52-.5.53-.5.01 0 .34.3.72.69l.7.7 1.99-1.96 1.99-1.96s.25.22.53.5l.52.5-2.5 2.47a218.22 218.22 0 0 1-2.52 2.47c-.02 0-.58-.54-1.25-1.2z"/>
</svg>