<svg width="18" height="20" viewBox="0 0 18 20" fill="none" xmlns="http://www.w3.org/2000/svg">
<path d="M16.6092 7.1546H16.1284V4.83704C16.128 4.82232 16.1265 4.80764 16.1241 4.79311C16.1248 4.70001 16.0915 4.60985 16.0305 4.53946L12.1707 0.134618L12.1679 0.131784C12.1448 0.10684 12.1186 0.0849361 12.0899 0.0666004L12.0644 0.0510129C12.0398 0.0373938 12.0139 0.0264662 11.987 0.0184211L11.9658 0.0113361C11.9363 0.0039966 11.9061 0.000191164 11.8757 0H2.38805C1.95469 0 1.60291 0.352133 1.60291 0.784328V7.15389H1.12203C0.502149 7.15389 0 7.65552 0 8.27476V14.1044C0 14.723 0.502859 15.2253 1.12203 15.2253H1.60291V19.2157C1.60291 19.6479 1.95469 20 2.38805 20H15.3432C15.7759 20 16.1284 19.6479 16.1284 19.2157V15.2253H16.6092C17.2284 15.2253 17.7313 14.7237 17.7313 14.1044V8.27476C17.7313 7.65623 17.2291 7.1546 16.6092 7.1546ZM2.38805 0.784328H11.4828V4.79736C11.4828 5.01417 11.6587 5.18917 11.8757 5.18917H15.3439V7.15389H2.38805V0.784328ZM8.26206 11.5311C7.30883 11.191 6.67972 10.6639 6.67972 9.83137C6.67972 8.85433 7.50529 8.11535 8.84932 8.11535C9.50467 8.11535 9.97206 8.24288 10.3125 8.40371L10.0231 9.44027C9.65226 9.25983 9.24482 9.16698 8.8323 9.16891C8.27057 9.16891 7.99822 9.43177 7.99822 9.72085C7.99822 10.0864 8.31242 10.2473 9.06139 10.5278C10.0742 10.9019 10.5416 11.4284 10.5416 12.2361C10.5416 13.1968 9.81036 14.0123 8.23653 14.0123C7.58118 14.0123 6.93505 13.8338 6.61163 13.6552L6.87548 12.5932C7.32084 12.8203 7.81241 12.9425 8.31242 12.9503C8.90819 12.9503 9.22309 12.703 9.22309 12.3296C9.22309 11.9725 8.95145 11.7692 8.26206 11.5311ZM1.50574 11.14C1.50574 9.19371 2.90084 8.11464 4.63566 8.11464C5.30803 8.11464 5.81798 8.24997 6.04778 8.3612L5.77543 9.38926C5.43091 9.24474 5.06036 9.1724 4.68673 9.1767C3.66612 9.1767 2.86679 9.79666 2.86679 11.0713C2.86679 12.2099 3.54696 12.9326 4.69524 12.9326C5.09526 12.9326 5.52081 12.8567 5.78394 12.7455L5.97189 13.7651C5.74209 13.8749 5.19739 14.0116 4.50871 14.0116C2.52635 14.0123 1.50574 12.7717 1.50574 11.14ZM15.3432 19.0045H2.38805V15.226H15.3432V19.0045ZM14.2949 13.9273H12.7807L10.9437 8.19966H12.3644L13.0616 10.6221C13.2566 11.31 13.4353 11.9562 13.5715 12.6697H13.597C13.7421 11.9888 13.915 11.3142 14.1155 10.6476L14.8475 8.20037H16.2248L14.2949 13.9273Z" fill="#2D3A47"/>
</svg>
