<svg xmlns="http://www.w3.org/2000/svg" viewBox="0 0 24 24">
  <path fill="currentColor" d="M6.17 19.9a3.98 3.98 0 0 1-3.02-2.64L3 16.79v-8.4l.15-.46c.08-.26.24-.62.35-.82.25-.4.97-1.1 1.35-1.3.99-.53 1.46-.62 3.32-.62 1.63 0 1.77.03 2.04.4.19.25.17.66-.03.88-.29.31-.44.34-1.9.34-1.84 0-2.26.12-2.9.8-.22.23-.32.4-.42.73-.13.42-.13.52-.11 4.41.01 3.67.02 4 .13 4.23.29.64.73 1.04 1.4 1.27.39.13.44.13 5.1.11l4.7-.02.36-.16c.47-.22.76-.45.98-.77.3-.44.37-.85.37-2.14 0-1.04.01-1.17.12-1.35.16-.26.43-.4.78-.4.33 0 .55.1.78.35.15.16.16.18.17 1.41.02 1 0 1.35-.08 1.72a3.7 3.7 0 0 1-2.18 2.6c-.87.4-.87.4-6.16.39-3.69 0-4.86-.03-5.15-.09z"/>
  <path fill="currentColor" d="M12.38 11.85a.67.67 0 0 1-.28-.76c.04-.1.2-.3.36-.45l4.51-4c.71-.63 1.3-1.17 1.3-1.2 0-.04-1-.06-2.47-.06h-2.46l-.21-.21c-.37-.37-.26-.86.23-1.06.21-.08.68-.1 3.6-.1 2.91 0 3.39.02 3.6.1.46.18.44.03.44 3.52 0 3.43.01 3.3-.37 3.5-.1.05-.3.1-.44.1-.2 0-.3-.05-.48-.22l-.23-.21-.04-2.18-.03-2.19-1 .9c-4 3.55-5.08 4.5-5.2 4.56-.2.11-.6.1-.83-.04z"/>
</svg>
