<svg width="61" height="72" viewBox="0 0 61 72" fill="none" xmlns="http://www.w3.org/2000/svg">
<path d="M19.0039 11.6276C19.1109 8.73795 20.3057 5.98881 22.3578 3.93672C24.5102 1.78426 27.4296 0.57501 30.4736 0.575L19.0039 11.6276ZM19.0039 11.6276H3.21053H3.19596L3.18143 11.6286L2.8808 11.6493L2.86639 11.6502L2.85209 11.6522C2.22114 11.7388 1.64289 12.051 1.22428 12.531C0.805671 13.0109 0.575027 13.6263 0.575 14.2631L0.574999 14.2777L0.575997 14.2923L0.596629 14.5929L0.597617 14.6073L0.59958 14.6216C0.686195 15.2525 0.998357 15.8308 1.47833 16.2494C1.95831 16.668 2.57363 16.8987 3.21051 16.8987H3.21053H5.93692L9.50397 60.8748C9.73697 63.749 11.0433 66.4302 13.1632 68.3851C15.2831 70.3399 18.0612 71.4252 20.9448 71.425H40.0025C42.8862 71.4252 45.6642 70.3399 47.7841 68.3851C49.904 66.4302 51.2104 63.749 51.4434 60.8748L55.0075 16.8987H57.7368H57.7514L57.7659 16.8977L58.0666 16.8771L58.081 16.8761L58.0954 16.8741C58.7569 16.7831 59.3592 16.4443 59.7806 15.9263C60.202 15.4084 60.4111 14.7497 60.3656 14.0835C60.32 13.4173 60.0233 12.7932 59.5354 12.3374C59.0475 11.8815 58.4047 11.6278 57.737 11.6276H57.7368H41.9408L41.9364 11.4525L41.9366 11.4525L41.936 11.4405C41.7793 8.50641 40.5033 5.74416 38.3708 3.72275C36.2384 1.70135 33.4119 0.574746 30.4737 0.575L19.0039 11.6276ZM49.719 16.8987L46.1899 60.4494C46.0637 62.0037 45.3572 63.4535 44.2107 64.5105C43.0643 65.5675 41.562 66.1542 40.0026 66.1539H20.9448C19.3854 66.1542 17.8831 65.5675 16.7366 64.5105C15.5902 63.4535 14.8836 62.0037 14.7575 60.4494L11.2255 16.8987H49.719ZM26.456 29.4071L26.455 29.3927L26.4531 29.3784C26.3664 28.7475 26.0543 28.1692 25.5743 27.7506C25.0943 27.332 24.479 27.1013 23.8421 27.1013C23.1431 27.1013 22.4728 27.379 21.9785 27.8732C21.4843 28.3675 21.2066 29.0379 21.2066 29.7368V53.3158V53.3304L21.2076 53.3449L21.2282 53.6455L21.2292 53.66L21.2312 53.6743C21.3222 54.3359 21.6609 54.9382 22.1789 55.3596C22.6969 55.781 23.3555 55.99 24.0217 55.9445C24.6879 55.899 25.312 55.6023 25.7679 55.1144C26.2238 54.6264 26.4774 53.9837 26.4776 53.3159V53.3158V29.7368V29.7223L26.4766 29.7077L26.456 29.4071ZM39.7192 29.4071L39.7182 29.3927L39.7162 29.3784C39.6296 28.7475 39.3174 28.1692 38.8375 27.7506C38.3575 27.332 37.7422 27.1013 37.1053 27.1013C36.4063 27.1013 35.7359 27.379 35.2417 27.8732C34.7474 28.3675 34.4697 29.0379 34.4697 29.7368V53.3158V53.3304L34.4707 53.3449L34.4914 53.6455L34.4924 53.66L34.4943 53.6743C34.5854 54.3359 34.9241 54.9382 35.4421 55.3596C35.9601 55.781 36.6187 55.99 37.2849 55.9445C37.9511 55.899 38.5752 55.6023 39.031 55.1144C39.4869 54.6264 39.7406 53.9837 39.7408 53.3159V53.3158V29.7368V29.7223L39.7398 29.7077L39.7192 29.4071ZM24.2811 11.6276L24.2814 11.6203C24.3907 10.0541 25.0896 8.58749 26.2373 7.51595C27.3868 6.4427 28.9009 5.84586 30.4736 5.84605H30.4737C32.0464 5.84586 33.5605 6.4427 34.7101 7.51595C35.8578 8.58748 36.5566 10.0541 36.666 11.6203L36.6662 11.6276H24.2811Z" fill="black" stroke="black" stroke-width="0.85"/>
</svg>
