<svg width="73" height="70" viewBox="0 0 73 70" fill="none" xmlns="http://www.w3.org/2000/svg">
<path d="M47.1063 13.4724C50.5608 13.4724 53.3872 16.2988 53.3872 19.7533C53.3852 21.238 52.8574 22.674 51.8973 23.8065C50.9373 24.9391 49.607 25.6949 48.1427 25.9399L40.8883 18.6855C41.4222 15.7335 43.9973 13.4724 47.1063 13.4724ZM47.1063 7.19157C40.166 7.19157 34.5446 12.8129 34.5446 19.7533C34.5446 20.3185 34.6389 20.8524 34.7017 21.3863L45.4733 32.1579C46.0072 32.2207 46.541 32.3149 47.1063 32.3149C54.0467 32.3149 59.668 26.6936 59.668 19.7533C59.668 12.8129 54.0467 7.19157 47.1063 7.19157ZM52.4136 39.0982L70.7537 57.4383H72.2297V51.1575C72.2297 44.437 61.0498 40.166 52.4136 39.0982ZM40.8569 45.2849L46.7295 51.1575H28.2638C28.515 50.4038 31.0274 47.9856 37.4024 46.227L40.8569 45.2849ZM4.42799 0L0 4.42799L12.5617 16.9897V26.0341H3.14042V32.3149H12.5617V41.7362H18.8425V32.3149H27.8869L35.7694 40.1974C28.8605 42.0816 21.983 45.8188 21.983 51.1575V57.4383H53.0103L65.572 70L70 65.572L4.42799 0ZM18.8425 26.0341V23.2705L21.6061 26.0341H18.8425Z" fill="#E03B24"/>
</svg>
