<svg width="15" height="20" viewBox="0 0 15 20" fill="none" xmlns="http://www.w3.org/2000/svg">
<path d="M7.49921 6.24888C7.33345 6.24888 7.17448 6.31473 7.05727 6.43194C6.94006 6.54915 6.87421 6.70812 6.87421 6.87388L6.87421 11.6151L5.44171 10.1814C5.32435 10.064 5.16518 9.99809 4.99921 9.99809C4.83324 9.99809 4.67407 10.064 4.55671 10.1814C4.43935 10.2987 4.37342 10.4579 4.37342 10.6239C4.37342 10.7899 4.43935 10.949 4.55671 11.0664L7.05671 13.5664C7.11477 13.6246 7.18374 13.6708 7.25967 13.7023C7.3356 13.7338 7.417 13.75 7.49921 13.75C7.58142 13.75 7.66282 13.7338 7.73875 13.7023C7.81468 13.6708 7.88365 13.6246 7.94171 13.5664L10.4417 11.0664C10.5591 10.949 10.625 10.7899 10.625 10.6239C10.625 10.4579 10.5591 10.2987 10.4417 10.1814C10.3244 10.064 10.1652 9.99809 9.99921 9.99809C9.83324 9.99809 9.67407 10.064 9.55671 10.1814L8.12421 11.6151L8.12421 6.87388C8.12421 6.70812 8.05836 6.54915 7.94115 6.43194C7.82394 6.31473 7.66497 6.24888 7.49921 6.24888Z" fill="#2D3A47"/>
<path d="M2.5 0C1.83696 0 1.20107 0.263392 0.732233 0.732233C0.263392 1.20107 0 1.83696 0 2.5V17.5C0 18.163 0.263392 18.7989 0.732233 19.2678C1.20107 19.7366 1.83696 20 2.5 20H12.5C13.163 20 13.7989 19.7366 14.2678 19.2678C14.7366 18.7989 15 18.163 15 17.5V2.5C15 1.83696 14.7366 1.20107 14.2678 0.732233C13.7989 0.263392 13.163 0 12.5 0L2.5 0ZM2.5 1.25H12.5C12.8315 1.25 13.1495 1.3817 13.3839 1.61612C13.6183 1.85054 13.75 2.16848 13.75 2.5V17.5C13.75 17.8315 13.6183 18.1495 13.3839 18.3839C13.1495 18.6183 12.8315 18.75 12.5 18.75H2.5C2.16848 18.75 1.85054 18.6183 1.61612 18.3839C1.3817 18.1495 1.25 17.8315 1.25 17.5V2.5C1.25 2.16848 1.3817 1.85054 1.61612 1.61612C1.85054 1.3817 2.16848 1.25 2.5 1.25Z" fill="#2D3A47"/>
</svg>
