<svg width="55" height="51" viewBox="0 0 55 51" fill="none" xmlns="http://www.w3.org/2000/svg">
<path d="M9.79507 18.1719C7.39119 18.7768 5.29093 20.2387 3.88888 22.2829C2.48683 24.3271 1.87951 26.8129 2.18102 29.2733C2.48252 31.7337 3.6721 33.9994 5.52625 35.6446C7.38041 37.2898 9.77151 38.2013 12.2503 38.2078H14.792M27.5003 25.4995V48.3745V25.4995ZM27.5003 25.4995L21.1462 30.5828L27.5003 25.4995ZM27.5003 25.4995L33.8545 30.5828L27.5003 25.4995Z" stroke="#F57B20" stroke-width="4" stroke-linecap="round" stroke-linejoin="round"/>
<path d="M37.234 13.1423C36.3653 9.70239 34.2211 6.72144 31.236 4.8038C28.251 2.88615 24.6484 2.17529 21.1586 2.81531C17.6689 3.45534 14.5531 5.39836 12.4428 8.2505C10.3325 11.1026 9.38565 14.6505 9.7942 18.1748C9.7942 18.1748 10.1831 20.4166 10.9786 21.6874" stroke="#F57B20" stroke-width="4" stroke-linecap="round" stroke-linejoin="round"/>
<path d="M40.2077 38.2077C42.0022 38.2065 43.7761 37.8252 45.4127 37.089C47.0492 36.3528 48.5113 35.2783 49.7027 33.9363C50.894 32.5944 51.7877 31.0153 52.3248 29.303C52.8619 27.5908 53.0303 25.7842 52.8189 24.0022C52.6074 22.2201 52.021 20.5031 51.0982 18.9641C50.1754 17.425 48.937 16.0989 47.4647 15.0729C45.9924 14.0469 44.3196 13.3444 42.5562 13.0115C40.7928 12.6787 38.9789 12.7231 37.2339 13.1418L33.8535 14.0618" stroke="#F57B20" stroke-width="4" stroke-linecap="round" stroke-linejoin="round"/>
</svg>
