<svg width="15" height="14" viewBox="0 0 15 14" fill="none" xmlns="http://www.w3.org/2000/svg">
<path d="M10.9 0.441096C11.1825 0.158662 11.5656 0 11.9651 0C12.3646 0 12.7477 0.158662 13.0302 0.441096L14.2249 1.63579C14.5074 1.9183 14.666 2.30143 14.666 2.70091C14.666 3.10039 14.5074 3.48352 14.2249 3.76604L8.19874 9.79222C7.91627 10.0748 7.53314 10.2336 7.13361 10.2336H5.93892C5.53936 10.2336 5.15617 10.0749 4.87363 9.79238C4.5911 9.50985 4.43238 9.12665 4.43238 8.72709V7.5324C4.43246 7.13287 4.59124 6.74974 4.8738 6.46728L10.9 0.441096ZM10.7704 2.70091L11.9651 3.8956L13.1598 2.70091L13.6924 3.23348L11.9651 1.50622L10.7704 2.70091ZM10.9 4.96073L9.70528 3.76604L5.93892 7.5324V8.72709H7.13361L10.9 4.96073ZM0.666016 3.45419C0.666016 2.85485 0.904103 2.28005 1.3279 1.85625C1.7517 1.43246 2.32649 1.19437 2.92583 1.19437H5.18565C5.38543 1.19437 5.57703 1.27373 5.71829 1.415C5.85956 1.55626 5.93892 1.74786 5.93892 1.94764C5.93892 2.14742 5.85956 2.33902 5.71829 2.48028C5.57703 2.62155 5.38543 2.70091 5.18565 2.70091H2.92583C2.72605 2.70091 2.53445 2.78028 2.39319 2.92154C2.25192 3.06281 2.17256 3.25441 2.17256 3.45419V11.7402C2.17256 11.94 2.25192 12.1316 2.39319 12.2728C2.53445 12.4141 2.72605 12.4935 2.92583 12.4935H11.2118C11.4116 12.4935 11.6032 12.4141 11.7445 12.2728C11.8857 12.1316 11.9651 11.94 11.9651 11.7402V9.48036C11.9651 9.28059 12.0445 9.08899 12.1857 8.94772C12.327 8.80646 12.5186 8.72709 12.7184 8.72709C12.9182 8.72709 13.1098 8.80646 13.251 8.94772C13.3923 9.08899 13.4716 9.28059 13.4716 9.48036V11.7402C13.4716 12.3395 13.2336 12.9143 12.8098 13.3381C12.386 13.7619 11.8112 14 11.2118 14H2.92583C2.32649 14 1.7517 13.7619 1.3279 13.3381C0.904103 12.9143 0.666016 12.3395 0.666016 11.7402V3.45419Z" fill="#2D3A47"/>
</svg>
