<svg width="14" height="14" viewBox="0 0 14 14" fill="none" xmlns="http://www.w3.org/2000/svg">
<path d="M10.234 0.441096C10.5165 0.158662 10.8996 0 11.2991 0C11.6986 0 12.0817 0.158662 12.3642 0.441096L13.5589 1.63579C13.8413 1.9183 14 2.30143 14 2.70091C14 3.10039 13.8413 3.48352 13.5589 3.76604L7.53272 9.79222C7.25026 10.0748 6.86713 10.2336 6.4676 10.2336H5.27291C4.87335 10.2336 4.49015 10.0749 4.20762 9.79238C3.92509 9.50985 3.76636 9.12665 3.76636 8.72709V7.5324C3.76645 7.13287 3.92523 6.74974 4.20778 6.46728L10.234 0.441096ZM10.1044 2.70091L11.2991 3.8956L12.4938 2.70091L13.0263 3.23348L11.2991 1.50622L10.1044 2.70091ZM10.234 4.96073L9.03927 3.76604L5.27291 7.5324V8.72709H6.4676L10.234 4.96073ZM0 3.45419C0 2.85485 0.238087 2.28005 0.661885 1.85625C1.08568 1.43246 1.66048 1.19437 2.25982 1.19437H4.51963C4.71941 1.19437 4.91101 1.27373 5.05228 1.415C5.19354 1.55626 5.27291 1.74786 5.27291 1.94764C5.27291 2.14742 5.19354 2.33902 5.05228 2.48028C4.91101 2.62155 4.71941 2.70091 4.51963 2.70091H2.25982C2.06004 2.70091 1.86844 2.78028 1.72717 2.92154C1.58591 3.06281 1.50654 3.25441 1.50654 3.45419V11.7402C1.50654 11.94 1.58591 12.1316 1.72717 12.2728C1.86844 12.4141 2.06004 12.4935 2.25982 12.4935H10.5458C10.7456 12.4935 10.9372 12.4141 11.0785 12.2728C11.2197 12.1316 11.2991 11.94 11.2991 11.7402V9.48036C11.2991 9.28059 11.3784 9.08899 11.5197 8.94772C11.661 8.80646 11.8526 8.72709 12.0524 8.72709C12.2521 8.72709 12.4437 8.80646 12.585 8.94772C12.7263 9.08899 12.8056 9.28059 12.8056 9.48036V11.7402C12.8056 12.3395 12.5675 12.9143 12.1437 13.3381C11.7199 13.7619 11.1452 14 10.5458 14H2.25982C1.66048 14 1.08568 13.7619 0.661885 13.3381C0.238087 12.9143 0 12.3395 0 11.7402V3.45419Z" fill="#2D3A47"/>
</svg>
