<svg width="10" height="10" viewBox="0 0 10 10" fill="none" xmlns="http://www.w3.org/2000/svg">
<path d="M6.94447 0.299315C7.13618 0.107664 7.39616 0 7.66724 0C7.93831 0 8.19829 0.107664 8.39 0.299315L9.20069 1.11C9.39234 1.30171 9.5 1.56169 9.5 1.83276C9.5 2.10384 9.39234 2.36382 9.20069 2.55553L5.11149 6.64472C4.91982 6.83645 4.65984 6.9442 4.38873 6.94425H3.57804C3.30691 6.94425 3.04689 6.83655 2.85517 6.64483C2.66345 6.45311 2.55575 6.19309 2.55575 5.92196V5.11127C2.5558 4.84017 2.66355 4.58018 2.85528 4.38851L6.94447 0.299315ZM6.85655 1.83276L7.66724 2.64345L8.47792 1.83276L8.8393 2.19415L7.66724 1.02208L6.85655 1.83276ZM6.94447 3.36621L6.13379 2.55553L3.57804 5.11127V5.92196H4.38873L6.94447 3.36621ZM0 2.34391C0 1.93722 0.161559 1.54718 0.449136 1.2596C0.736714 0.972024 1.12675 0.810464 1.53345 0.810464H3.0669C3.20246 0.810464 3.33247 0.864317 3.42833 0.960177C3.52419 1.05604 3.57804 1.18605 3.57804 1.32161C3.57804 1.45718 3.52419 1.58719 3.42833 1.68305C3.33247 1.77891 3.20246 1.83276 3.0669 1.83276H1.53345C1.39788 1.83276 1.26787 1.88662 1.17201 1.98247C1.07615 2.07833 1.0223 2.20835 1.0223 2.34391V7.96655C1.0223 8.10212 1.07615 8.23213 1.17201 8.32799C1.26787 8.42385 1.39788 8.4777 1.53345 8.4777H7.15609C7.29165 8.4777 7.42167 8.42385 7.51753 8.32799C7.61338 8.23213 7.66724 8.10212 7.66724 7.96655V6.43311C7.66724 6.29754 7.72109 6.16753 7.81695 6.07167C7.91281 5.97581 8.04282 5.92196 8.17839 5.92196C8.31395 5.92196 8.44396 5.97581 8.53982 6.07167C8.63568 6.16753 8.68954 6.29754 8.68954 6.43311V7.96655C8.68954 8.37325 8.52798 8.76329 8.2404 9.05086C7.95282 9.33844 7.56278 9.5 7.15609 9.5H1.53345C1.12675 9.5 0.736714 9.33844 0.449136 9.05086C0.161559 8.76329 0 8.37325 0 7.96655V2.34391Z" fill="#2D3A47"/>
</svg>
