<svg xmlns="http://www.w3.org/2000/svg" viewBox="0 0 24 24">
  <path fill="none" d="M11.3 11.72h.43v.43h-.43z"/>
  <path fill="currentColor" d="M10 15.2a1.56 1.56 0 0 1-1.07-.82c-.13-.27-.14-.35-.14-1.24 0-.8 0-.84.05-1.02.12-.4-.07-.2 3.27-3.54a349.4 349.4 0 0 1 3.2-3.2 1.5 1.5 0 0 1 1.92-.05c.17.14 1.46 1.43 1.52 1.53.3.48.33 1.03.08 1.54-.08.15-.26.34-3.2 3.3a259.53 259.53 0 0 1-3.26 3.22 1.4 1.4 0 0 1-.42.23l-.15.06H10zm3.37-3.34 1.9-1.9-.6-.6-.62-.6c-.01 0-.87.84-1.9 1.88l-1.89 1.89v1.22h1.22zm3.55-3.55.58-.6c0-.02-.27-.3-.6-.63l-.6-.6-.6.6-.6.62.6.6.61.6c.01 0 .29-.27.61-.6z"/>
  <path fill="currentColor" d="M6.84 18.96a2.24 2.24 0 0 1-1.77-1.66l-.06-.2v-4.25c-.02-4.3 0-4.73.07-4.98.25-.84.82-1.39 1.65-1.6l.23-.07h2.73l.15.08a.73.73 0 0 1 0 1.32l-.15.08-2.66.02-.12.06a.9.9 0 0 0-.35.36l-.05.1v8.76l.06.13c.09.15.26.3.42.36l.12.05h4.3c4.76 0 4.38 0 4.6-.16.1-.07.24-.25.28-.36.01-.04.03-.65.03-1.38l.02-1.31.06-.13c.08-.16.2-.29.36-.36a.82.82 0 0 1 .62 0c.14.06.3.22.36.36.05.1.05.12.05 1.52 0 1.63 0 1.58-.21 2.03a2.2 2.2 0 0 1-1.62 1.23c-.16.03-.83.03-4.58.03-3.32 0-4.43 0-4.54-.03z"/>
</svg>