<svg width="16" height="16" viewBox="0 0 16 16" fill="none" xmlns="http://www.w3.org/2000/svg">
<path d="M11.696 0.50411C12.0188 0.181328 12.4567 0 12.9132 0C13.3698 0 13.8077 0.181328 14.1305 0.50411L15.4959 1.86947C15.8187 2.19235 16 2.63021 16 3.08676C16 3.54331 15.8187 3.98117 15.4959 4.30405L8.60883 11.1911C8.28601 11.514 7.84814 11.6955 7.39154 11.6956H6.02618C5.56954 11.6956 5.1316 11.5142 4.80871 11.1913C4.48581 10.8684 4.30441 10.4305 4.30441 9.97382V8.60846C4.30451 8.15186 4.48598 7.71399 4.80889 7.39117L11.696 0.50411ZM11.5479 3.08676L12.9132 4.45212L14.2786 3.08676L14.8872 3.6954L12.9132 1.7214L11.5479 3.08676ZM11.696 5.66941L10.3306 4.30405L6.02618 8.60846V9.97382H7.39154L11.696 5.66941ZM0 3.94764C0 3.26268 0.2721 2.60577 0.75644 2.12143C1.24078 1.63709 1.89769 1.36499 2.58265 1.36499H5.1653C5.39362 1.36499 5.61259 1.45569 5.77403 1.61714C5.93548 1.77859 6.02618 1.99755 6.02618 2.22588C6.02618 2.4542 5.93548 2.67316 5.77403 2.83461C5.61259 2.99606 5.39362 3.08676 5.1653 3.08676H2.58265C2.35433 3.08676 2.13536 3.17746 1.97391 3.3389C1.81247 3.50035 1.72177 3.71932 1.72177 3.94764V13.4174C1.72177 13.6457 1.81247 13.8646 1.97391 14.0261C2.13536 14.1875 2.35433 14.2782 2.58265 14.2782H12.0524C12.2807 14.2782 12.4996 14.1875 12.6611 14.0261C12.8225 13.8646 12.9132 13.6457 12.9132 13.4174V10.8347C12.9132 10.6064 13.0039 10.3874 13.1654 10.226C13.3268 10.0645 13.5458 9.97382 13.7741 9.97382C14.0024 9.97382 14.2214 10.0645 14.3829 10.226C14.5443 10.3874 14.635 10.6064 14.635 10.8347V13.4174C14.635 14.1023 14.3629 14.7592 13.8786 15.2436C13.3942 15.7279 12.7373 16 12.0524 16H2.58265C1.89769 16 1.24078 15.7279 0.75644 15.2436C0.2721 14.7592 0 14.1023 0 13.4174V3.94764Z" fill="#2D3A47"/>
</svg>
