<svg xmlns="http://www.w3.org/2000/svg" fill="currentColor" height="24px" viewBox="0 0 24 24" width="24px">
  <path d="M5.29 19.7a2.68 2.68 0 0 1-1.57-.77 2.54 2.54 0 0 1-.68-1.28L3 17.46V6.55l.04-.2c.09-.37.24-.71.45-1 .13-.19.43-.48.62-.61s.52-.29.73-.35c.36-.1.42-.1 2.08-.1 1.46 0 1.52 0 1.68.05.52.12.93.34 1.3.7.17.19.23.27.64.88.49.73.51.76.75.87l.11.05 2.8.01c2.6.01 2.8.02 2.96.05.96.18 1.71.84 2 1.76.1.31.12.46.12 1.15v.63l.09.03a2.62 2.62 0 0 1 1.6 1.95c.03.18.03.32.03 2.6 0 2.2 0 2.42-.03 2.57a2.6 2.6 0 0 1-2.02 2.08l-.16.04H5.29zm.48-1.7c.27-.06.5-.27.61-.56.04-.1.04-.1.05-2.52.01-2.23.01-2.43.05-2.55a2.61 2.61 0 0 1 2-2.01l.17-.05h8.94V9.8c0-.53-.01-.61-.12-.8a.97.97 0 0 0-.35-.35c-.2-.1-.09-.1-2.95-.1-2.21 0-2.7 0-2.87-.02a2.52 2.52 0 0 1-1.5-.76 5.44 5.44 0 0 1-.6-.8c-.24-.36-.46-.68-.5-.72a.93.93 0 0 0-.35-.23c-.1-.04-.11-.04-1.43-.05-.83 0-1.37 0-1.46.02a.87.87 0 0 0-.72.6c-.04.1-.04.26-.04 5.4 0 5.15 0 5.3.04 5.41.07.23.24.42.46.52.17.09.34.1.57.06zm12.94-.01a.9.9 0 0 0 .57-.63 58 58 0 0 0 .01-2.4v-2.3l-.07-.15a.85.85 0 0 0-.32-.37c-.22-.14.24-.13-5.24-.12h-4.9l-.12.06c-.22.1-.4.32-.48.56-.02.05-.03.56-.04 2.5v2.44l-.05.18-.05.23-.01.05 10.6-.01z"/>
</svg>