<svg width="88" height="50" viewBox="0 0 88 50" fill="none" xmlns="http://www.w3.org/2000/svg">
<path d="M44 50C68.3005 50 88 45.7467 88 40.5C88 35.2533 68.3005 31 44 31C19.6995 31 0 35.2533 0 40.5C0 45.7467 19.6995 50 44 50Z" fill="#FEF2E9"/>
<path d="M72 15.34L59.6483 3.31518C59.0555 2.49555 58.1899 2 57.2781 2H30.7219C29.8101 2 28.9445 2.49555 28.3517 3.31414L16 15.341V25H72V15.34Z" stroke="#2D3A47" stroke-width="4"/>
<path d="M55.7038 20.0809C55.7038 18.1585 56.9138 16.5715 58.4149 16.5703H72.001V38.2938C72.001 40.8366 70.394 42.9207 68.4097 42.9207H19.5923C17.6079 42.9207 16.001 40.8354 16.001 38.2938V16.5703H29.5871C31.0881 16.5703 32.2982 18.1549 32.2982 20.0773V20.1037C32.2982 22.026 33.5217 23.5783 35.0215 23.5783H52.9805C54.4803 23.5783 55.7038 22.0117 55.7038 20.0893V20.0809Z" fill="#FAFAFA" stroke="#2D3A47" stroke-width="4"/>
</svg>
