<svg width="20" height="21" viewBox="0 0 20 21" fill="none" xmlns="http://www.w3.org/2000/svg">
<path fill-rule="evenodd" clip-rule="evenodd" d="M10 0.5C7.34784 0.5 4.8043 1.55357 2.92893 3.42893C1.05357 5.3043 0 7.84784 0 10.5C0 13.1522 1.05357 15.6957 2.92893 17.5711C4.8043 19.4464 7.34784 20.5 10 20.5C12.6522 20.5 15.1957 19.4464 17.0711 17.5711C18.9464 15.6957 20 13.1522 20 10.5C20 7.84784 18.9464 5.3043 17.0711 3.42893C15.1957 1.55357 12.6522 0.5 10 0.5ZM8.57143 14.7857C8.57143 14.4068 8.72194 14.0435 8.98985 13.7756C9.25776 13.5077 9.62112 13.3571 10 13.3571C10.3789 13.3571 10.7437 13.5077 11.0116 13.7756C11.2795 14.0435 11.43 14.4068 11.43 14.7857C11.43 15.1646 11.2795 15.528 11.0116 15.7959C10.7437 16.0638 10.3803 16.2143 10.0014 16.2143C9.62255 16.2143 9.25776 16.0638 8.98985 15.7959C8.72194 15.528 8.57143 15.1646 8.57143 14.7857ZM11.4286 6.21429C11.4286 5.83541 11.2781 5.47204 11.0102 5.20413C10.7422 4.93622 10.3789 4.78571 10 4.78571C9.62112 4.78571 9.25776 4.93622 8.98985 5.20413C8.72194 5.47204 8.57143 5.83541 8.57143 6.21429L8.57286 10.5C8.57286 10.6876 8.60981 10.8734 8.6816 11.0467C8.75339 11.22 8.85862 11.3775 8.99128 11.5102C9.12393 11.6428 9.28142 11.748 9.45474 11.8198C9.62806 11.8916 9.81383 11.9286 10.0014 11.9286C10.189 11.9286 10.3748 11.8916 10.5481 11.8198C10.7214 11.748 10.8789 11.6428 11.0116 11.5102C11.1442 11.3775 11.2495 11.22 11.3213 11.0467C11.393 10.8734 11.43 10.6876 11.43 10.5L11.4286 6.21429Z" fill="#E03B24"/>
</svg>
