<svg width="16" height="23" viewBox="0 0 16 23" fill="none" xmlns="http://www.w3.org/2000/svg">
<path d="M8 0.789062L4 4.6838H7V13.447H9V4.6838H12L8 0.789062ZM14 22.2101H2C1.46957 22.2101 0.960859 22.0049 0.585786 21.6397C0.210714 21.2745 0 20.7792 0 20.2627V8.57854C0 8.06206 0.210714 7.56674 0.585786 7.20154C0.960859 6.83634 1.46957 6.63117 2 6.63117H5V8.57854H2V20.2627H14V8.57854H11V6.63117H14C14.5304 6.63117 15.0391 6.83634 15.4142 7.20154C15.7893 7.56674 16 8.06206 16 8.57854V20.2627C16 20.7792 15.7893 21.2745 15.4142 21.6397C15.0391 22.0049 14.5304 22.2101 14 22.2101Z" fill="#2D3A47"/>
</svg>
