<svg width="40" height="40" viewBox="0 0 40 40" fill="none" xmlns="http://www.w3.org/2000/svg">
<rect y="0.5" width="40" height="38" rx="7" fill="#FEEBDE"/>
<path d="M15.4647 15.0823C15.3642 14.9827 15.2845 14.8645 15.2301 14.7342C15.1757 14.604 15.1477 14.4644 15.1477 14.3234C15.1477 14.1824 15.1757 14.0428 15.2301 13.9126C15.2845 13.7824 15.3642 13.6641 15.4647 13.5646L19.2359 9.81509C19.336 9.71522 19.455 9.63597 19.5859 9.5819C19.7169 9.52783 19.8573 9.5 19.9992 9.5C20.141 9.5 20.2814 9.52783 20.4124 9.5819C20.5433 9.63597 20.6623 9.71522 20.7624 9.81509L24.5337 13.5646C24.6341 13.6641 24.7138 13.7824 24.7682 13.9126C24.8226 14.0428 24.8506 14.1824 24.8506 14.3234C24.8506 14.4644 24.8226 14.604 24.7682 14.7342C24.7138 14.8645 24.6341 14.9827 24.5337 15.0823C24.3303 15.2818 24.0561 15.3937 23.7704 15.3937C23.4847 15.3937 23.2105 15.2818 23.0072 15.0823L21.0767 13.1629V20.5726C21.0767 20.8567 20.9631 21.1292 20.7611 21.3301C20.559 21.531 20.2849 21.6439 19.9992 21.6439C19.7134 21.6439 19.4393 21.531 19.2372 21.3301C19.0352 21.1292 18.9216 20.8567 18.9216 20.5726V13.1629L16.9911 15.0823C16.891 15.1821 16.7721 15.2614 16.6411 15.3154C16.5101 15.3695 16.3697 15.3973 16.2279 15.3973C16.0861 15.3973 15.9457 15.3695 15.8147 15.3154C15.6837 15.2614 15.5648 15.1821 15.4647 15.0823ZM26.4642 17.0016H24.3092C24.0234 17.0016 23.7493 17.1145 23.5473 17.3154C23.3452 17.5163 23.2317 17.7888 23.2317 18.0729C23.2317 18.3571 23.3452 18.6295 23.5473 18.8304C23.7493 19.0314 24.0234 19.1442 24.3092 19.1442H26.105V27.3574H13.8933V19.1442H15.6891C15.9749 19.1442 16.249 19.0314 16.451 18.8304C16.6531 18.6295 16.7666 18.3571 16.7666 18.0729C16.7666 17.7888 16.6531 17.5163 16.451 17.3154C16.249 17.1145 15.9749 17.0016 15.6891 17.0016H13.5341C13.0586 17.004 12.6032 17.1929 12.2669 17.5272C11.9306 17.8615 11.7406 18.3143 11.7383 18.7871V27.7145C11.7406 28.1873 11.9306 28.6401 12.2669 28.9745C12.6032 29.3088 13.0586 29.4977 13.5341 29.5H26.4642C26.9397 29.4977 27.3951 29.3088 27.7314 28.9745C28.0677 28.6401 28.2577 28.1873 28.26 27.7145V18.7871C28.2577 18.3143 28.0677 17.8615 27.7314 17.5272C27.3951 17.1929 26.9397 17.004 26.4642 17.0016Z" fill="#2D3A47"/>
</svg>
