<svg width="33" height="30" viewBox="0 0 33 30" fill="none" xmlns="http://www.w3.org/2000/svg">
<path d="M3.38653 2L29.6051 28M9.21287 6.85622C11.4159 5.55808 13.9332 4.87807 16.4958 4.88889C25.6825 4.88889 30.1396 13.0977 30.9305 14.7227C31.0179 14.9003 31.0179 15.0997 30.9305 15.2788C30.4178 16.3303 28.3728 20.135 24.507 22.6902L9.21287 6.85622ZM19.409 24.8222C18.4503 25.016 17.4742 25.1128 16.4958 25.1111C7.30911 25.1111 2.85196 16.9023 2.06104 15.2773C2.0183 15.1905 1.99609 15.0952 1.99609 14.9986C1.99609 14.9019 2.0183 14.8066 2.06104 14.7198C2.38003 14.0669 3.28457 12.3624 4.84312 10.5526L19.409 24.8222ZM13.5826 11.7702C14.4151 11.0322 15.5009 10.6383 16.6171 10.6693C17.7333 10.7003 18.7952 11.1538 19.5847 11.9368C20.3743 12.7198 20.8317 13.7728 20.8629 14.8797C20.8941 15.9866 20.4969 17.0633 19.7527 17.8889L13.5826 11.7702Z" stroke="#2D3A47" stroke-width="2.5" stroke-linecap="round" stroke-linejoin="round"/>
</svg>
