<svg width="32" height="24" viewBox="0 0 32 24" fill="none" xmlns="http://www.w3.org/2000/svg">
<path d="M16.217 2C7.20704 2 2.83562 10.1186 2.0599 11.7257C2.01792 11.8111 1.99609 11.9049 1.99609 12C1.99609 12.0951 2.01792 12.1889 2.0599 12.2743C2.83419 13.8814 7.20562 22 16.217 22C25.2285 22 29.5985 13.8814 30.3742 12.2743C30.4162 12.1889 30.438 12.0951 30.438 12C30.438 11.9049 30.4162 11.8111 30.3742 11.7257C29.5999 10.1186 25.2285 2 16.217 2Z" stroke="#2D3A47" stroke-width="2.5" stroke-linecap="round" stroke-linejoin="round"/>
<path d="M16.2166 16.2824C18.5836 16.2824 20.5023 14.3636 20.5023 11.9967C20.5023 9.62972 18.5836 7.71094 16.2166 7.71094C13.8497 7.71094 11.9309 9.62972 11.9309 11.9967C11.9309 14.3636 13.8497 16.2824 16.2166 16.2824Z" stroke="#2D3A47" stroke-width="2.5" stroke-linecap="round" stroke-linejoin="round"/>
</svg>
