<svg width="18" height="20" viewBox="0 0 18 20" fill="none" xmlns="http://www.w3.org/2000/svg">
<path d="M16 7.33333V16.2222C16 16.6937 15.8156 17.1459 15.4874 17.4793C15.1592 17.8127 14.7141 18 14.25 18H3.75C3.28587 18 2.84075 17.8127 2.51256 17.4793C2.18437 17.1459 2 16.6937 2 16.2222V3.77778C2 3.30628 2.18437 2.8541 2.51256 2.5207C2.84075 2.1873 3.28587 2 3.75 2H10.75M16 7.33333V7.18044C15.9999 6.70899 15.8155 6.25688 15.4872 5.92356L12.1378 2.52089C11.8096 2.18747 11.3646 2.0001 10.9005 2H10.75M16 7.33333H12.5C12.0359 7.33333 11.5908 7.14603 11.2626 6.81263C10.9344 6.47924 10.75 6.02705 10.75 5.55556V2" stroke="#2D3A47" stroke-width="2.2" stroke-linecap="round" stroke-linejoin="round"/>
</svg>
