<svg width="20" height="20" viewBox="0 0 20 20" fill="none" xmlns="http://www.w3.org/2000/svg">
<path d="M16.164 1.5625H3.41404C2.23997 1.5625 1.26141 2.52937 1.55147 3.66625C1.86027 4.87101 2.4291 5.99355 3.21802 6.95502C4.00695 7.91648 4.99682 8.69354 6.1181 9.23163C6.99254 9.65025 7.66404 10.4726 7.66404 11.4416V17.9059C7.66413 18.0869 7.71049 18.2649 7.7987 18.423C7.88692 18.5811 8.01406 18.7141 8.16808 18.8092C8.3221 18.9044 8.49787 18.9586 8.67873 18.9667C8.85959 18.9749 9.03953 18.9367 9.20147 18.8557L11.3265 17.7932C11.5029 17.7051 11.6514 17.5695 11.7551 17.4017C11.8589 17.234 11.9139 17.0406 11.914 16.8434V11.4416C11.914 10.4726 12.5855 9.65025 13.4589 9.23163C14.5806 8.69385 15.571 7.91691 16.3603 6.95543C17.1496 5.99394 17.7187 4.87124 18.0277 3.66625C18.3156 2.52937 17.336 1.5625 16.164 1.5625Z" stroke="#2D3A47" stroke-width="2"/>
</svg>
