<svg width="21" height="18" viewBox="0 0 21 18" fill="none" xmlns="http://www.w3.org/2000/svg">
<path d="M17.0824 2.4386L17.0825 2.43866C17.5748 3.13971 18.0798 3.65533 19.0873 3.87965L19.0957 3.88152L19.0957 3.88163C19.3364 3.94195 19.5441 4.09379 19.6746 4.30486C19.8051 4.51592 19.8481 4.76958 19.7945 5.01187C19.7408 5.25416 19.5948 5.46598 19.3874 5.60227C19.1801 5.73857 18.9277 5.78859 18.684 5.7417L18.6751 5.73998L18.6751 5.73986C17.0498 5.37967 16.1881 4.47141 15.5527 3.57674C15.55 3.57757 15.5474 3.57859 15.5448 3.5798C15.5378 3.58315 15.5315 3.58787 15.5263 3.59369C14.4881 4.89747 12.9116 5.94179 10.509 5.94179C8.0559 5.94179 6.50599 4.62861 5.53441 3.47839C4.89754 4.39599 4.03547 5.36448 2.34286 5.73985L2.34267 5.73989C2.09587 5.79447 1.83749 5.74878 1.62437 5.61286C1.41125 5.47694 1.26086 5.26192 1.20628 5.01511C1.15169 4.76831 1.19739 4.50992 1.33331 4.29681C1.46923 4.08369 1.68425 3.9333 1.93106 3.87872L1.93112 3.8787C2.99522 3.64358 3.50023 3.08106 4.02985 2.30279C4.74261 1.25448 6.21181 1.31269 6.94453 2.19412C7.73644 3.14651 8.81238 4.03598 10.509 4.03598C12.2631 4.03598 13.3148 3.31253 14.038 2.40384L17.0824 2.4386ZM17.0824 2.4386C16.3017 1.32744 14.7508 1.50739 14.038 2.4038L17.0824 2.4386Z" fill="#7E44E6" stroke="#7E44E6" stroke-width="0.65"/>
<path d="M17.0824 7.70521L17.0825 7.70526C17.5748 8.40631 18.0798 8.92193 19.0873 9.14625L19.0957 9.14812L19.0957 9.14823C19.3364 9.20855 19.5441 9.36039 19.6746 9.57146C19.8051 9.78253 19.8481 10.0362 19.7945 10.2785C19.7408 10.5208 19.5948 10.7326 19.3874 10.8689C19.1801 11.0052 18.9277 11.0552 18.684 11.0083L18.6751 11.0066L18.6751 11.0065C17.0498 10.6463 16.1881 9.73801 15.5527 8.84334C15.55 8.84417 15.5474 8.84519 15.5448 8.84641C15.5378 8.84975 15.5315 8.85448 15.5263 8.86029C14.4881 10.1641 12.9116 11.2084 10.509 11.2084C8.0559 11.2084 6.50599 9.89521 5.53441 8.74499C4.89754 9.66259 4.03547 10.6311 2.34286 11.0065L2.34267 11.0065C2.09587 11.0611 1.83749 11.0154 1.62437 10.8795C1.41125 10.7435 1.26086 10.5285 1.20628 10.2817C1.15169 10.0349 1.19739 9.77653 1.33331 9.56341C1.46923 9.35029 1.68425 9.1999 1.93106 9.14532L1.93112 9.1453C2.99522 8.91018 3.50023 8.34767 4.02985 7.56939C4.74261 6.52108 6.21181 6.57929 6.94453 7.46072C7.73644 8.41311 8.81238 9.30258 10.509 9.30258C12.2631 9.30258 13.3148 8.57913 14.038 7.67044L17.0824 7.70521ZM17.0824 7.70521C16.3017 6.59404 14.7508 6.77399 14.038 7.6704L17.0824 7.70521Z" fill="#7E44E6" stroke="#7E44E6" stroke-width="0.65"/>
<path d="M17.0824 12.9728L17.0825 12.9728C17.5748 13.6739 18.0798 14.1895 19.0873 14.4138L19.0957 14.4157L19.0957 14.4158C19.3364 14.4761 19.5441 14.628 19.6746 14.839C19.8051 15.0501 19.8481 15.3038 19.7945 15.546C19.7408 15.7883 19.5948 16.0002 19.3874 16.1365C19.1801 16.2727 18.9277 16.3228 18.684 16.2759L18.6751 16.2742L18.6751 16.274C17.0498 15.9138 16.1881 15.0056 15.5527 14.1109C15.55 14.1117 15.5474 14.1128 15.5448 14.114C15.5378 14.1173 15.5315 14.1221 15.5263 14.1279C14.4881 15.4317 12.9116 16.476 10.509 16.476C8.0559 16.476 6.50599 15.1628 5.53441 14.0126C4.89754 14.9302 4.03547 15.8987 2.34286 16.274L2.34267 16.2741C2.09587 16.3287 1.83749 16.283 1.62437 16.147C1.41125 16.0111 1.26086 15.7961 1.20628 15.5493C1.15169 15.3025 1.19739 15.0441 1.33331 14.831C1.46923 14.6179 1.68425 14.4675 1.93106 14.4129L1.93112 14.4129C2.99522 14.1778 3.50023 13.6152 4.02985 12.837C4.74261 11.7887 6.21181 11.8469 6.94453 12.7283C7.73644 13.6807 8.81238 14.5702 10.509 14.5702C12.2631 14.5702 13.3148 13.8467 14.038 12.938L17.0824 12.9728ZM17.0824 12.9728C16.3017 11.8616 14.7508 12.0416 14.038 12.938L17.0824 12.9728Z" fill="#7E44E6" stroke="#7E44E6" stroke-width="0.65"/>
</svg>
