<svg width="41" height="34" viewBox="0 0 41 34" fill="none" xmlns="http://www.w3.org/2000/svg">
<path d="M0.910437 7.45768L0.806497 5.19699C0.806497 3.81866 1.35404 2.49679 2.32866 1.52216C3.30329 0.547539 4.62516 0 6.00349 0H15.5452C16.9234 0.000294344 18.245 0.548026 19.2194 1.52272L21.371 3.67427C22.3454 4.64896 23.667 5.1967 25.0453 5.19699H35.3925C36.1146 5.19692 36.8289 5.34735 37.4897 5.63871C38.1505 5.93007 38.7433 6.35595 39.2303 6.88918C39.7174 7.42242 40.0879 8.05131 40.3183 8.73573C40.5488 9.42016 40.634 10.1451 40.5687 10.8643L38.9134 29.0538C38.7961 30.345 38.2003 31.5457 37.2431 32.4203C36.2859 33.2948 35.0364 33.7799 33.7398 33.7804H6.8506C5.55405 33.7799 4.30451 33.2948 3.3473 32.4203C2.39008 31.5457 1.79433 30.345 1.67699 29.0538L0.0217515 10.8643C-0.0889802 9.66064 0.225458 8.45621 0.910437 7.46028V7.45768ZM5.19795 7.79549C4.83699 7.79547 4.47997 7.87065 4.14967 8.01625C3.81937 8.16185 3.52303 8.37467 3.27954 8.64115C3.03604 8.90762 2.85074 9.2219 2.73544 9.56396C2.62014 9.90602 2.57737 10.2683 2.60985 10.6278L4.26509 28.8173C4.32344 29.4629 4.621 30.0634 5.09936 30.5009C5.57772 30.9384 6.20234 31.1813 6.8506 31.1819H33.7398C34.3881 31.1813 35.0127 30.9384 35.4911 30.5009C35.9694 30.0634 36.267 29.4629 36.3253 28.8173L37.9806 10.6278C38.0131 10.2683 37.9703 9.90602 37.855 9.56396C37.7397 9.2219 37.5544 8.90762 37.3109 8.64115C37.0674 8.37467 36.771 8.16185 36.4408 8.01625C36.1105 7.87065 35.7534 7.79547 35.3925 7.79549H5.19795ZM17.3849 3.35985C17.1434 3.11824 16.8565 2.92662 16.5408 2.79598C16.2252 2.66533 15.8868 2.59823 15.5452 2.5985H6.00349C5.32279 2.59837 4.66923 2.86535 4.18331 3.34204C3.69739 3.81872 3.41793 4.46705 3.40499 5.14762L3.42058 5.50881C3.97666 5.30613 4.57432 5.19699 5.19795 5.19699H19.2194L17.3823 3.35985H17.3849Z" fill="#2D3A47"/>
</svg>
