<svg xmlns="http://www.w3.org/2000/svg" width="22" height="22" viewBox="0 0 22 22" fill="none">
    <path d="M11 20C15.9706 20 20 15.9706 20 11C20 6.02944 15.9706 2 11 2C6.02944 2 2 6.02944 2 11C2 15.9706 6.02944 20 11 20Z" stroke="#2D3A47" stroke-width="2.1" stroke-linecap="round" stroke-linejoin="round"/>
    <path d="M15 3C15 3.53043 14.7893 4.03914 14.4142 4.41421C14.0391 4.78929 13.5304 5 13 5H12.5C12.1022 5 11.7206 5.15804 11.4393 5.43934C11.158 5.72064 11 6.10218 11 6.5V7C11 7.26522 10.8946 7.51957 10.7071 7.70711C10.5196 7.89464 10.2652 8 10 8C9.73478 8 9.48043 8.10536 9.29289 8.29289C9.10536 8.48043 9 8.73478 9 9V10C9 10.5304 9.21071 11.0391 9.58579 11.4142C9.96086 11.7893 10.4696 12 11 12H13C13.5304 12 14.0391 12.2107 14.4142 12.5858C14.7893 12.9609 15 13.4696 15 14C15 14.5304 15.2107 15.0391 15.5858 15.4142C15.9609 15.7893 16.4696 16 17 16H18M10 20V17.5C10 16.672 9.315 16 8.487 16C7.673 16 7 15.34 7 14.526C7 14.186 6.882 13.856 6.667 13.593L2.5 8.5" stroke="#2D3A47" stroke-width="2.1" stroke-linecap="round" stroke-linejoin="round"/>
</svg>