<svg width="13" height="13" viewBox="0 0 13 13" fill="none" xmlns="http://www.w3.org/2000/svg">
<path d="M13.2031 6.70312C13.2031 10.293 10.293 13.2031 6.70312 13.2031C3.11326 13.2031 0.203125 10.293 0.203125 6.70312C0.203125 3.11326 3.11326 0.203125 6.70312 0.203125C10.293 0.203125 13.2031 3.11326 13.2031 6.70312ZM5.95127 10.1448L10.7739 5.32224C10.9376 5.15848 10.9376 4.89295 10.7739 4.7292L10.1808 4.13615C10.017 3.97236 9.75152 3.97236 9.58773 4.13615L5.65474 8.06912L3.81851 6.2329C3.65476 6.06914 3.38923 6.06914 3.22544 6.2329L2.63239 6.82594C2.46864 6.9897 2.46864 7.25523 2.63239 7.41899L5.3582 10.1448C5.52199 10.3086 5.78749 10.3086 5.95127 10.1448Z" fill="#5F9936"/>
</svg>
