<svg width="61" height="56" viewBox="0 0 61 56" fill="none" xmlns="http://www.w3.org/2000/svg">
<path d="M30.5003 14.3636H35.0457M30.5003 23.4545H35.0457M12.3184 32.5455H35.0457M12.3184 41.6364H35.0457M44.1366 14.3636H54.3639C56.2457 14.3636 57.773 15.8909 57.773 17.7727V46.1818C57.773 47.9901 57.0547 49.7243 55.776 51.003C54.4973 52.2817 52.7631 53 50.9548 53M44.1366 14.3636V46.1818C44.1366 47.9901 44.855 49.7243 46.1336 51.003C47.4123 52.2817 49.1465 53 50.9548 53M44.1366 14.3636V6.40909C44.1366 4.52727 42.6094 3 40.7275 3H6.63663C4.75481 3 3.22754 4.52727 3.22754 6.40909V46.1818C3.22754 47.9901 3.94588 49.7243 5.22454 51.003C6.5032 52.2817 8.23743 53 10.0457 53H50.9548M12.3184 14.3636H21.4094V23.4545H12.3184V14.3636Z" stroke="#2D3A47" stroke-width="5.5" stroke-linecap="round" stroke-linejoin="round"/>
</svg>
