<svg xmlns="http://www.w3.org/2000/svg" viewBox="0 0 24 24">
  <path fill="currentColor" d="m10.46 12.39-.01-.07v-.05l.02-.01.03.01v.11h-.04z"/>
  <path fill="currentColor" d="M4.27 20.87a2.12 2.12 0 0 1-1.16-1.19c-.14-.5-.15-2.82 0-3.32.08-.3.75-1.03 2.76-3.04l2.66-2.65-.07-.89a6.32 6.32 0 0 1 3.39-6.06 6.17 6.17 0 0 1 7.3 1.14 6.18 6.18 0 0 1-.02 8.85 5.94 5.94 0 0 1-4.6 1.82h-1.25l-.8.8c-.87.85-1.18 1.03-1.87 1.03-.36 0-.43.03-.43.23 0 .62-.9 1.53-1.52 1.53-.17 0-.24.1-.3.4-.1.52-.75 1.23-1.26 1.37-.52.14-2.4.13-2.83-.02zm2.37-1.86c0-.65.84-1.54 1.44-1.54a.3.3 0 0 0 .3-.24c.25-.96 1.06-1.64 1.95-1.64.41 0 .52-.08 1.47-1.01l1.03-1.01.58.1c.32.05.98.1 1.48.09.79 0 .98-.05 1.7-.41a4.27 4.27 0 0 0 2.43-2.7 4.52 4.52 0 0 0-5.4-5.74 4.51 4.51 0 0 0-3.01 2.55c-.3.64-.36.9-.37 1.6a11 11 0 0 0 .1 1.48l.1.64-5.68 5.68v2.37h.94c.88 0 .94-.01.94-.22z"/>
  <path fill="currentColor" d="M16 9.94a1.03 1.03 0 0 1-.36-.65c-.1-.56-.36-.84-.91-.93-.82-.13-1.16-.92-.63-1.45.35-.36 1.02-.36 1.78-.01a2.45 2.45 0 0 1 1.48 2.26c0 .47-.04.59-.29.78-.37.3-.7.3-1.07 0z"/>
</svg>
