<svg version="1.1" viewBox="0 0 24 24" xmlns="http://www.w3.org/2000/svg">
 <path d="m9.7878 18.975c-0.25177-0.0537-0.45401-0.20655-0.73519-0.55584-0.14442-0.1794-0.37188-0.4543-0.50549-0.61089-0.86063-1.0087-4.279-5.1404-4.3809-5.2951-0.29355-0.4457-0.21007-0.80056 0.34422-1.4631 0.16252-0.19425 0.71604-0.86126 1.2301-1.4822 0.51402-0.62098 0.98517-1.1881 1.047-1.2603 0.0618-0.0722 0.47608-0.56846 0.92056-1.1028 1.5511-1.8647 1.682-2.0093 1.9198-2.1222 0.5198-0.24666 1.2045 0.11132 1.3203 0.69032 0.0185 0.0924 0.018 0.27219-1e-3 0.39942-0.0345 0.2304-0.10951 0.33561-0.92274 1.295-0.11017 0.12997-0.33524 0.40172-0.50016 0.6039s-0.40117 0.48574-0.52499 0.63015c-0.12382 0.14442-0.54742 0.65248-0.94133 1.129-0.3939 0.47656-0.77344 0.92841-0.8434 1.0041-0.07 0.0757-0.11234 0.15249-0.0942 0.17067 0.0182 0.0182 2.7594 0.0331 6.0917 0.0331 5.9821 0 6.0613 1e-3 6.2673 0.10645 0.11476 0.0585 0.27924 0.20388 0.3655 0.32296 0.13406 0.18506 0.15658 0.26303 0.15509 0.53684-1e-3 0.26161-0.0281 0.35838-0.1453 0.52796-0.079 0.11419-0.22587 0.25598-0.32646 0.31508-0.18107 0.10637-0.24434 0.10759-6.2876 0.12143-3.3576 8e-3 -6.1047 0.0341-6.1047 0.0587 0 0.0382 0.9178 1.1634 1.654 2.0279 0.12299 0.14441 0.39693 0.47525 0.60875 0.73519 0.21183 0.25994 0.3983 0.48444 0.41439 0.49888 0.0161 0.0144 0.19254 0.22712 0.39211 0.47262s0.38904 0.47 0.42105 0.49888c0.032 0.0289 0.1164 0.13522 0.18755 0.23631 0.18423 0.26176 0.18563 0.79203 3e-3 1.0588-0.23588 0.34424-0.62855 0.50411-1.0288 0.41884z" stroke-width=".052514" fill="currentColor"/>
</svg>
