<svg xmlns="http://www.w3.org/2000/svg" width="20" height="22" viewBox="0 0 20 22" fill="none">
    <path d="M16 15.0156C17.245 15.5446 18 16.2386 18 16.9996C18 18.6566 14.418 19.9996 10 19.9996C5.582 19.9996 2 18.6566 2 16.9996C2 16.2396 2.755 15.5436 4 15.0156" stroke="#2D3A47" stroke-width="2.1" stroke-linecap="round" stroke-linejoin="round"/>
    <path d="M15 7.444C15 10.537 10 16 10 16C10 16 5 10.537 5 7.444C5 4.352 7.239 2 10 2C12.761 2 15 4.352 15 7.444Z" stroke="#2D3A47" stroke-width="2.1" stroke-linecap="round" stroke-linejoin="round"/>
    <path d="M10 8C10.5523 8 11 7.55228 11 7C11 6.44772 10.5523 6 10 6C9.44772 6 9 6.44772 9 7C9 7.55228 9.44772 8 10 8Z" stroke="#2D3A47" stroke-width="2.1" stroke-linecap="round" stroke-linejoin="round"/>
</svg>