<svg width="18" height="20" viewBox="0 0 18 20" fill="none" xmlns="http://www.w3.org/2000/svg">
<path d="M0 11C0 10.2044 0.316071 9.44129 0.87868 8.87868C1.44129 8.31607 2.20435 8 3 8H15C15.7956 8 16.5587 8.31607 17.1213 8.87868C17.6839 9.44129 18 10.2044 18 11V17C18 17.7956 17.6839 18.5587 17.1213 19.1213C16.5587 19.6839 15.7956 20 15 20H3C2.20435 20 1.44129 19.6839 0.87868 19.1213C0.316071 18.5587 0 17.7956 0 17V11ZM3 10C2.73478 10 2.48043 10.1054 2.29289 10.2929C2.10536 10.4804 2 10.7348 2 11V17C2 17.2652 2.10536 17.5196 2.29289 17.7071C2.48043 17.8946 2.73478 18 3 18H15C15.2652 18 15.5196 17.8946 15.7071 17.7071C15.8946 17.5196 16 17.2652 16 17V11C16 10.7348 15.8946 10.4804 15.7071 10.2929C15.5196 10.1054 15.2652 10 15 10H3Z" fill="#2D3A47"/>
<path d="M4 5C4 3.67392 4.52678 2.40215 5.46447 1.46447C6.40215 0.526784 7.67392 0 9 0C10.3261 0 11.5979 0.526784 12.5355 1.46447C13.4732 2.40215 14 3.67392 14 5V9C14 9.26522 13.8946 9.51957 13.7071 9.70711C13.5196 9.89464 13.2652 10 13 10C12.7348 10 12.4804 9.89464 12.2929 9.70711C12.1054 9.51957 12 9.26522 12 9V5C12 4.20435 11.6839 3.44129 11.1213 2.87868C10.5587 2.31607 9.79565 2 9 2C8.20435 2 7.44129 2.31607 6.87868 2.87868C6.31607 3.44129 6 4.20435 6 5V9C6 9.26522 5.89464 9.51957 5.70711 9.70711C5.51957 9.89464 5.26522 10 5 10C4.73478 10 4.48043 9.89464 4.29289 9.70711C4.10536 9.51957 4 9.26522 4 9V5ZM9 12C9.26522 12 9.51957 12.1054 9.70711 12.2929C9.89464 12.4804 10 12.7348 10 13V15C10 15.2652 9.89464 15.5196 9.70711 15.7071C9.51957 15.8946 9.26522 16 9 16C8.73478 16 8.48043 15.8946 8.29289 15.7071C8.10536 15.5196 8 15.2652 8 15V13C8 12.7348 8.10536 12.4804 8.29289 12.2929C8.48043 12.1054 8.73478 12 9 12Z" fill="#2D3A47"/>
</svg>
