<svg xmlns="http://www.w3.org/2000/svg" viewBox="0 0 24 24">
  <path d="M6.3 20.96a2.67 2.67 0 0 1-2.17-2.03l-.06-.22v-3.45c-.01-3.8-.02-3.69.13-4.12A2.7 2.7 0 0 1 6.99 9.3l.6-.01V8.23c0-.8 0-1.1.03-1.31a4.39 4.39 0 0 1 8.7-.43c.1.42.1.6.12 1.7v1.09l.59.01a2.71 2.71 0 0 1 2.84 2.04l.06.22v3.47c.01 2.5 0 3.53-.01 3.66a2.67 2.67 0 0 1-.75 1.5c-.4.43-.9.7-1.47.78-.3.05-11.14.05-11.41 0zm11.32-1.85a.96.96 0 0 0 .42-.43l.07-.13v-6.8l-.06-.12a.87.87 0 0 0-.64-.5c-.1-.02-1.66-.03-5.5-.02H6.56l-.13.06a.97.97 0 0 0-.42.35c-.14.24-.13.04-.13 3.68l.01 3.32.08.16a.9.9 0 0 0 .56.48l5.52.01h5.44zM14.6 8.23c0-.97 0-1.06-.05-1.28a2.64 2.64 0 0 0-1.41-1.86 2.5 2.5 0 0 0-1.95-.14c-.77.26-1.39.89-1.65 1.68-.13.37-.14.53-.14 1.65v1h5.2z"/>
  <path d="M11.77 17.37a1.13 1.13 0 0 1-.22-.09c-.13-.08-.3-.27-.37-.42l-.07-.13v-3.18l.07-.13a.99.99 0 0 1 .44-.44c.13-.07.16-.07.38-.07.21 0 .26 0 .37.06.27.13.48.4.53.69.02.1.02.6.02 1.58-.01 1.4-.01 1.45-.06 1.56a.92.92 0 0 1-1.09.57z"/>
</svg>
