<svg width="19" height="18" viewBox="0 0 19 18" fill="none" xmlns="http://www.w3.org/2000/svg">
<path d="M14.3672 4.13433C13.3102 3.07263 12.1572 2.11113 10.9229 1.26213C12.2626 0.581057 13.5323 0.170465 14.6328 0.0430065C16.0212 -0.117533 17.0477 0.178249 17.685 0.815542C18.3232 1.45381 18.619 2.47931 18.4575 3.86774C18.331 4.96914 17.9204 6.23788 17.2384 7.57863C16.3897 6.34433 15.4285 5.1913 14.3672 4.13433Z" fill="#009E6E"/>
<path fill-rule="evenodd" clip-rule="evenodd" d="M13.3343 5.1663C14.5032 6.32644 15.5405 7.61205 16.4273 8.99979C15.5406 10.3879 14.5033 11.6738 13.3343 12.8343C12.1741 14.0032 10.8885 15.0405 9.50076 15.9273C8.11233 15.0406 6.82606 14.0033 5.66533 12.8343C4.49675 11.6741 3.45978 10.3884 2.57324 9.00076C3.45987 7.61198 4.49718 6.32538 5.6663 5.16436C6.82653 3.9961 8.11214 2.95945 9.49979 2.07324C10.8879 2.96 12.1738 3.99731 13.3343 5.1663ZM9.49979 11.4332C10.1449 11.4332 10.7636 11.1769 11.2198 10.7207C11.6759 10.2646 11.9322 9.64588 11.9322 9.00076C11.9322 8.35565 11.6759 7.73695 11.2198 7.28079C10.7636 6.82462 10.1449 6.56835 9.49979 6.56835C8.85467 6.56835 8.23598 6.82462 7.77981 7.28079C7.32365 7.73695 7.06737 8.35565 7.06737 9.00076C7.06737 9.64588 7.32365 10.2646 7.77981 10.7207C8.23598 11.1769 8.85467 11.4332 9.49979 11.4332Z" fill="#009E6E"/>
<path d="M10.9226 16.7388C12.157 15.8894 13.31 14.9276 14.3669 13.8656C15.4283 12.8086 16.3895 11.6556 17.2381 10.4213C17.9202 11.762 18.3308 13.0308 18.4573 14.1312C18.6178 15.5196 18.323 16.5461 17.6847 17.1834C17.0474 17.8217 16.021 18.1175 14.6325 17.9559C13.5321 17.8295 12.2624 17.4208 10.9226 16.7388ZM4.63433 13.8656C5.69122 14.9276 6.84425 15.8895 8.07863 16.7388C6.73788 17.4198 5.46913 17.8304 4.36773 17.9569C2.97931 18.1175 1.95478 17.8226 1.31651 17.1844C0.678243 16.5471 0.382461 15.5206 0.543001 14.1322C0.669486 13.0318 1.08008 11.763 1.76213 10.4223C2.61143 11.6566 3.57327 12.8097 4.6353 13.8666M1.76213 7.57828C2.61144 6.34392 3.57328 5.1909 4.6353 4.13398C5.69225 3.07228 6.84527 2.11077 8.0796 1.26178C6.73885 0.580704 5.4701 0.170112 4.36871 0.0426534C2.98028 -0.116913 1.95478 0.177896 1.31651 0.815189C0.679216 1.45346 0.383434 2.47896 0.543974 3.86836C0.67046 4.96878 1.08008 6.23753 1.76213 7.57828Z" fill="#009E6E"/>
</svg>
