<svg width="1055" height="58" viewBox="0 0 1055 58" fill="none" xmlns="http://www.w3.org/2000/svg">
<path d="M21 43L1036 43.0001" stroke="#2D3A47" stroke-width="3" stroke-linecap="round"/>
<path d="M467 2L467 43" stroke="#2D3A47" stroke-width="3" stroke-linecap="round"/>
<path d="M588 2L588 43" stroke="#2D3A47" stroke-width="3" stroke-linecap="round"/>
<path d="M198 2L198 43" stroke="#2D3A47" stroke-width="3" stroke-linecap="round"/>
<path d="M319 2L319 43" stroke="#2D3A47" stroke-width="3" stroke-linecap="round"/>
<path d="M50 2L50 43" stroke="#2D3A47" stroke-width="3" stroke-linecap="round"/>
<path d="M736 2L736 43" stroke="#2D3A47" stroke-width="3" stroke-linecap="round"/>
<path d="M857 2L857 43" stroke="#2D3A47" stroke-width="3" stroke-linecap="round"/>
<path d="M1005 2L1005 43" stroke="#2D3A47" stroke-width="3" stroke-linecap="round"/>
<g clip-path="url(#clip0_14492_35084)">
<circle cx="15" cy="43" r="15" transform="rotate(-90 15 43)" fill="#FBFBFB"/>
<path d="M15 28C18.9782 28 22.7936 29.5804 25.6066 32.3934C28.4196 35.2064 30 39.0218 30 43C30 46.9782 28.4196 50.7936 25.6066 53.6066C22.7936 56.4196 18.9782 58 15 58C11.0218 58 7.20644 56.4196 4.3934 53.6066C1.58035 50.7936 -4.81776e-07 46.9782 -6.55671e-07 43C-8.29566e-07 39.0218 1.58035 35.2064 4.3934 32.3934C7.20644 29.5804 11.0218 28 15 28ZM8.4375 42.0625C8.18886 42.0625 7.9504 42.1613 7.77459 42.3371C7.59877 42.5129 7.5 42.7514 7.5 43C7.5 43.2486 7.59877 43.4871 7.77459 43.6629C7.9504 43.8387 8.18886 43.9375 8.4375 43.9375L19.2994 43.9375L15.2737 47.9612C15.0977 48.1373 14.9988 48.376 14.9988 48.625C14.9988 48.874 15.0977 49.1127 15.2737 49.2887C15.4498 49.4648 15.6885 49.5637 15.9375 49.5637C16.1865 49.5637 16.4252 49.4648 16.6012 49.2887L22.2262 43.6637C22.3136 43.5767 22.3828 43.4732 22.4301 43.3593C22.4773 43.2454 22.5017 43.1233 22.5017 43C22.5017 42.8767 22.4773 42.7546 22.4301 42.6407C22.3828 42.5268 22.3136 42.4233 22.2262 42.3362L16.6012 36.7112C16.4252 36.5352 16.1865 36.4363 15.9375 36.4363C15.6885 36.4363 15.4498 36.5352 15.2737 36.7112C15.0977 36.8873 14.9988 37.126 14.9988 37.375C14.9988 37.624 15.0977 37.8627 15.2737 38.0387L19.2994 42.0625L8.4375 42.0625Z" fill="#2D3A47"/>
</g>
<circle cx="1040" cy="43" r="15" fill="white"/>
<path fill-rule="evenodd" clip-rule="evenodd" d="M1040 28C1031.72 28 1025 34.7159 1025 43C1025 51.2841 1031.72 58 1040 58C1048.28 58 1055 51.2841 1055 43C1055 34.7159 1048.28 28 1040 28ZM1046.5 40.4636C1046.62 40.3268 1046.71 40.1674 1046.77 39.9948C1046.83 39.8222 1046.85 39.6399 1046.83 39.4586C1046.82 39.2773 1046.77 39.1008 1046.69 38.9393C1046.6 38.7778 1046.49 38.6346 1046.35 38.5182C1046.21 38.4018 1046.05 38.3145 1045.87 38.2614C1045.7 38.2084 1045.52 38.1907 1045.34 38.2093C1045.15 38.2279 1044.98 38.2826 1044.82 38.37C1044.66 38.4573 1044.52 38.5757 1044.41 38.7182L1038.54 45.7532L1035.51 42.7177C1035.25 42.4693 1034.91 42.3319 1034.55 42.335C1034.19 42.3381 1033.85 42.4815 1033.6 42.7343C1033.35 42.9872 1033.2 43.3292 1033.2 43.6867C1033.2 44.0443 1033.33 44.3887 1033.58 44.6459L1037.67 48.7368C1037.81 48.8707 1037.97 48.9752 1038.14 49.0437C1038.32 49.1122 1038.51 49.1431 1038.7 49.1345C1038.89 49.1259 1039.07 49.078 1039.24 48.9938C1039.41 48.9096 1039.56 48.791 1039.68 48.6455L1046.5 40.4636Z" fill="#2D3A47"/>
<defs>
<clipPath id="clip0_14492_35084">
<rect width="30" height="30" fill="white" transform="translate(0 58) rotate(-90)"/>
</clipPath>
</defs>
</svg>
