<svg width="19" height="18" viewBox="0 0 19 18" fill="none" xmlns="http://www.w3.org/2000/svg">
<path d="M2.48 6.3C1.95487 6.3 1.45125 6.11036 1.07993 5.77279C0.708606 5.43523 0.5 4.97739 0.5 4.5V1.8C0.5 1.32261 0.708606 0.864773 1.07993 0.527208C1.45125 0.189642 1.95487 0 2.48 0H6.44C6.96513 0 7.46875 0.189642 7.84007 0.527208C8.21139 0.864773 8.42 1.32261 8.42 1.8V4.5C8.42 4.97739 8.21139 5.43523 7.84007 5.77279C7.46875 6.11036 6.96513 6.3 6.44 6.3H2.48ZM2.48 4.5H6.44V1.8H2.48V4.5ZM2.48 18C1.95487 18 1.45125 17.8104 1.07993 17.4728C0.708606 17.1352 0.5 16.6774 0.5 16.2V9C0.5 8.52261 0.708606 8.06477 1.07993 7.72721C1.45125 7.38964 1.95487 7.2 2.48 7.2H6.44C6.96513 7.2 7.46875 7.38964 7.84007 7.72721C8.21139 8.06477 8.42 8.52261 8.42 9V16.2C8.42 16.6774 8.21139 17.1352 7.84007 17.4728C7.46875 17.8104 6.96513 18 6.44 18H2.48ZM2.48 16.2H6.44V9H2.48V16.2ZM10.4 16.2C10.4 16.6774 10.6086 17.1352 10.9799 17.4728C11.3513 17.8104 11.8549 18 12.38 18H16.34C16.8651 18 17.3687 17.8104 17.7401 17.4728C18.1114 17.1352 18.32 16.6774 18.32 16.2V14.4C18.32 13.9226 18.1114 13.4648 17.7401 13.1272C17.3687 12.7896 16.8651 12.6 16.34 12.6H12.38C11.8549 12.6 11.3513 12.7896 10.9799 13.1272C10.6086 13.4648 10.4 13.9226 10.4 14.4V16.2ZM16.34 16.2H12.38V14.4H16.34V16.2ZM12.38 10.8C11.8549 10.8 11.3513 10.6104 10.9799 10.2728C10.6086 9.93523 10.4 9.47739 10.4 9V1.8C10.4 1.32261 10.6086 0.864773 10.9799 0.527208C11.3513 0.189642 11.8549 0 12.38 0H16.34C16.8651 0 17.3687 0.189642 17.7401 0.527208C18.1114 0.864773 18.32 1.32261 18.32 1.8V9C18.32 9.47739 18.1114 9.93523 17.7401 10.2728C17.3687 10.6104 16.8651 10.8 16.34 10.8H12.38ZM12.38 9H16.34V1.8H12.38V9Z" fill="#2D3A47"/>
</svg>
