<svg width="15" height="13" viewBox="0 0 15 13" fill="none" xmlns="http://www.w3.org/2000/svg">
<path d="M8.6742 1.17913C8.4979 1.17913 8.32882 1.11702 8.20415 1.00645C8.07949 0.895889 8.00945 0.74593 8.00945 0.589567C8.00945 0.433204 8.07949 0.283245 8.20415 0.17268C8.32882 0.0621148 8.4979 0 8.6742 0H13.9922C14.1748 0 14.3405 0.0652454 14.461 0.171367L14.4619 0.17294L14.4637 0.173726C14.5877 0.284152 14.6572 0.43372 14.6569 0.589567V5.3061C14.6569 5.46247 14.5869 5.61242 14.4622 5.72299C14.3376 5.83355 14.1685 5.89567 13.9922 5.89567C13.8159 5.89567 13.6468 5.83355 13.5221 5.72299C13.3975 5.61242 13.3274 5.46247 13.3274 5.3061V2.01239L8.47921 6.3123C8.41835 6.37022 8.34496 6.41668 8.26342 6.4489C8.18188 6.48113 8.09385 6.49846 8.0046 6.49985C7.91534 6.50125 7.82668 6.48669 7.74391 6.45703C7.66114 6.42738 7.58595 6.38325 7.52283 6.32726C7.4597 6.27128 7.40994 6.20459 7.37651 6.13118C7.34307 6.05777 7.32665 5.97914 7.32823 5.89998C7.3298 5.82081 7.34934 5.74274 7.38567 5.67043C7.422 5.59811 7.47439 5.53302 7.5397 5.47904L12.3879 1.17913H8.6742Z" fill="#2D3A47"/>
<path d="M3.40268 2.32132C2.91675 2.32132 2.45072 2.49253 2.10711 2.79728C1.7635 3.10202 1.57047 3.51535 1.57047 3.94633V9.98204C1.57047 10.879 2.3913 11.607 3.40268 11.607H10.208C10.694 11.607 11.16 11.4358 11.5036 11.1311C11.8472 10.8263 12.0402 10.413 12.0402 9.98204V8.35704C12.0402 8.17234 12.123 7.9952 12.2702 7.86459C12.4175 7.73399 12.6172 7.66061 12.8255 7.66061C13.0337 7.66061 13.2335 7.73399 13.3807 7.86459C13.528 7.9952 13.6107 8.17234 13.6107 8.35704V9.98204C13.6107 10.7824 13.2522 11.55 12.6141 12.116C11.976 12.682 11.1105 12.9999 10.208 12.9999H3.40268C2.50023 12.9999 1.63475 12.682 0.996621 12.116C0.358495 11.55 0 10.7824 0 9.98204V3.94633C0 3.14594 0.358495 2.37834 0.996621 1.81238C1.63475 1.24642 2.50023 0.928467 3.40268 0.928467H5.23489C5.44315 0.928467 5.64287 1.00184 5.79013 1.13245C5.93739 1.26305 6.02012 1.44019 6.02012 1.6249C6.02012 1.8096 5.93739 1.98674 5.79013 2.11735C5.64287 2.24795 5.44315 2.32132 5.23489 2.32132H3.40268Z" fill="#2D3A47"/>
</svg>
