<svg width="17" height="14" viewBox="0 0 17 14" fill="none" xmlns="http://www.w3.org/2000/svg">
<path d="M10.3222 1.26985C10.1323 1.26985 9.95024 1.20295 9.81598 1.08388C9.68173 0.964812 9.6063 0.803316 9.6063 0.634924C9.6063 0.466532 9.68173 0.305036 9.81598 0.185965C9.95024 0.0668935 10.1323 0 10.3222 0H16.0493C16.2459 0 16.4244 0.0702648 16.5542 0.184551L16.5552 0.186244L16.5571 0.187091C16.6906 0.306012 16.7655 0.467088 16.7652 0.634924V5.71431C16.7652 5.88271 16.6898 6.0442 16.5555 6.16327C16.4212 6.28234 16.2392 6.34924 16.0493 6.34924C15.8594 6.34924 15.6773 6.28234 15.5431 6.16327C15.4088 6.0442 15.3334 5.88271 15.3334 5.71431V2.16721L10.1122 6.79792C10.0467 6.8603 9.96762 6.91033 9.87981 6.94503C9.79199 6.97974 9.6972 6.9984 9.60108 6.9999C9.50495 7.00141 9.40947 6.98572 9.32033 6.95379C9.23119 6.92186 9.15022 6.87433 9.08224 6.81403C9.01426 6.75374 8.96067 6.68193 8.92466 6.60287C8.88866 6.52381 8.87097 6.43913 8.87267 6.35388C8.87437 6.26862 8.89541 6.18455 8.93453 6.10667C8.97366 6.02878 9.03007 5.95869 9.10041 5.90056L14.3216 1.26985H10.3222Z" fill="#2D3A47"/>
<path d="M4.64444 2.50001C4.12112 2.50001 3.61924 2.68439 3.2492 3.01258C2.87915 3.34077 2.67127 3.7859 2.67127 4.25003V10.7501C2.67127 11.7161 3.55525 12.5001 4.64444 12.5001H11.9733C12.4967 12.5001 12.9985 12.3157 13.3686 11.9875C13.7386 11.6593 13.9465 11.2142 13.9465 10.7501V9.00008C13.9465 8.80116 14.0356 8.61039 14.1942 8.46974C14.3528 8.32909 14.5679 8.25007 14.7922 8.25007C15.0164 8.25007 15.2315 8.32909 15.3901 8.46974C15.5487 8.61039 15.6378 8.80116 15.6378 9.00008V10.7501C15.6378 11.6121 15.2517 12.4387 14.5645 13.0482C13.8773 13.6577 12.9452 14.0001 11.9733 14.0001H4.64444C3.67256 14.0001 2.74049 13.6577 2.05327 13.0482C1.36606 12.4387 0.97998 11.6121 0.97998 10.7501V4.25003C0.97998 3.38807 1.36606 2.56141 2.05327 1.95191C2.74049 1.34241 3.67256 1 4.64444 1H6.6176C6.84188 1 7.05698 1.07902 7.21556 1.21967C7.37415 1.36033 7.46325 1.55109 7.46325 1.75001C7.46325 1.94892 7.37415 2.13969 7.21556 2.28034C7.05698 2.421 6.84188 2.50001 6.6176 2.50001H4.64444Z" fill="#2D3A47"/>
</svg>
