<svg width="25" height="25" viewBox="0 0 25 25" fill="none" xmlns="http://www.w3.org/2000/svg">
<path d="M24 18.25V24C20.0354 24 16.7119 23.2884 13.9375 22.0953C8.41606 19.7206 5.0595 15.4397 3.15625 11.0625C1.575 7.4285 1 3.72837 1 1H6.75L8.1875 6.75L3.15625 11.0625C5.0595 15.4397 8.41606 19.7206 13.9375 22.0953L18.25 16.8125L24 18.25Z" fill="#F57B20"/>
<path d="M13.42 21.2515C16.0834 22.3969 19.274 23.08 23.08 23.08V17.56L17.56 16.18L13.42 21.2515ZM13.42 21.2515C8.11942 18.9717 4.89712 14.8621 3.07 10.66M3.07 10.66C1.552 7.17136 1 3.61924 1 1H6.52L7.9 6.52L3.07 10.66Z" stroke="#F57B20" stroke-width="2" stroke-linecap="round" stroke-linejoin="round"/>
</svg>
