<svg width="56" height="56" viewBox="0 0 56 56" fill="none" xmlns="http://www.w3.org/2000/svg">
<g filter="url(#filter0_d_6270_16407)">
<circle cx="27" cy="27" r="16" fill="#F57B20"/>
</g>
<path d="M30.696 19.5041C31.0188 19.1813 31.4567 19 31.9132 19C32.3698 19 32.8077 19.1813 33.1305 19.5041L34.4959 20.8695C34.8187 21.1923 35 21.6302 35 22.0868C35 22.5433 34.8187 22.9812 34.4959 23.304L27.6088 30.1911C27.286 30.514 26.8481 30.6955 26.3915 30.6956H25.0262C24.5695 30.6956 24.1316 30.5142 23.8087 30.1913C23.4858 29.8684 23.3044 29.4305 23.3044 28.9738V27.6085C23.3045 27.1519 23.486 26.714 23.8089 26.3912L30.696 19.5041ZM30.5479 22.0868L31.9132 23.4521L33.2786 22.0868L33.8872 22.6954L31.9132 20.7214L30.5479 22.0868ZM30.696 24.6694L29.3306 23.304L25.0262 27.6085V28.9738H26.3915L30.696 24.6694ZM19 22.9476C19 22.2627 19.2721 21.6058 19.7564 21.1214C20.2408 20.6371 20.8977 20.365 21.5826 20.365H24.1653C24.3936 20.365 24.6126 20.4557 24.774 20.6171C24.9355 20.7786 25.0262 20.9976 25.0262 21.2259C25.0262 21.4542 24.9355 21.6732 24.774 21.8346C24.6126 21.9961 24.3936 22.0868 24.1653 22.0868H21.5826C21.3543 22.0868 21.1354 22.1775 20.9739 22.3389C20.8125 22.5004 20.7218 22.7193 20.7218 22.9476V32.4174C20.7218 32.6457 20.8125 32.8646 20.9739 33.0261C21.1354 33.1875 21.3543 33.2782 21.5826 33.2782H31.0524C31.2807 33.2782 31.4996 33.1875 31.6611 33.0261C31.8225 32.8646 31.9132 32.6457 31.9132 32.4174V29.8347C31.9132 29.6064 32.0039 29.3874 32.1654 29.226C32.3268 29.0645 32.5458 28.9738 32.7741 28.9738C33.0024 28.9738 33.2214 29.0645 33.3829 29.226C33.5443 29.3874 33.635 29.6064 33.635 29.8347V32.4174C33.635 33.1023 33.3629 33.7592 32.8786 34.2436C32.3942 34.7279 31.7373 35 31.0524 35H21.5826C20.8977 35 20.2408 34.7279 19.7564 34.2436C19.2721 33.7592 19 33.1023 19 32.4174V22.9476Z" fill="white"/>
<defs>
<filter id="filter0_d_6270_16407" x="0" y="0" width="56" height="56" filterUnits="userSpaceOnUse" color-interpolation-filters="sRGB">
<feFlood flood-opacity="0" result="BackgroundImageFix"/>
<feColorMatrix in="SourceAlpha" type="matrix" values="0 0 0 0 0 0 0 0 0 0 0 0 0 0 0 0 0 0 127 0" result="hardAlpha"/>
<feMorphology radius="2" operator="dilate" in="SourceAlpha" result="effect1_dropShadow_6270_16407"/>
<feOffset dx="1" dy="1"/>
<feGaussianBlur stdDeviation="5"/>
<feColorMatrix type="matrix" values="0 0 0 0 0 0 0 0 0 0 0 0 0 0 0 0 0 0 0.1 0"/>
<feBlend mode="normal" in2="BackgroundImageFix" result="effect1_dropShadow_6270_16407"/>
<feBlend mode="normal" in="SourceGraphic" in2="effect1_dropShadow_6270_16407" result="shape"/>
</filter>
</defs>
</svg>
