<svg width="18" height="20" viewBox="0 0 18 20" fill="none" xmlns="http://www.w3.org/2000/svg">
<path d="M4.68384 10.2478C4.68384 9.70935 4.30937 9.3877 3.64908 9.3877C3.37958 9.3877 3.19731 9.41391 3.10156 9.43942V11.1688C3.21504 11.1943 3.35405 11.2036 3.54483 11.2036C4.24909 11.2036 4.68384 10.8472 4.68384 10.2478Z" fill="#2D3A47"/>
<path d="M8.77454 9.4043C8.47879 9.4043 8.2873 9.43051 8.17383 9.45672V13.2882C8.2873 13.3145 8.46957 13.3145 8.63482 13.3145C9.83483 13.323 10.6178 12.6626 10.6178 11.2641C10.627 10.0476 9.91356 9.4043 8.77454 9.4043Z" fill="#2D3A47"/>
<path d="M16.6086 7.15364H16.1278V4.83616C16.1274 4.82144 16.126 4.80676 16.1235 4.79223C16.1243 4.69903 16.0913 4.60869 16.0306 4.53789L12.1703 0.133905L12.1675 0.131071C12.1185 0.0779278 12.056 0.0390059 11.9866 0.0184208L11.9653 0.0113357C11.9359 0.00399646 11.9056 0.000191158 11.8753 0H2.38796C1.95463 0 1.60285 0.35212 1.60285 0.7843V7.15364H1.12199C0.502131 7.15364 0 7.65525 0 8.27447V14.1039C0 14.7224 0.502841 15.2248 1.12199 15.2248H1.60285V19.2157C1.60285 19.6479 1.95463 20 2.38796 20H15.3427C15.7753 20 16.1278 19.6479 16.1278 19.2157V15.2248H16.6086C17.2285 15.2248 17.7306 14.7224 17.7306 14.1039V8.27447C17.7306 7.65525 17.2278 7.15364 16.6086 7.15364ZM2.38796 0.7843H11.4824V4.79719C11.4824 5.01399 11.6582 5.18899 11.8753 5.18899H15.3434V7.15364H2.38796V0.7843ZM12.0263 11.2204C12.0263 12.3412 11.6178 13.1149 11.0512 13.5924C10.4341 14.1046 9.49511 14.3484 8.34687 14.3484C7.65963 14.3484 7.17311 14.3044 6.8419 14.2619V8.50969C7.32914 8.43175 7.96389 8.38854 8.63411 8.38854C9.74689 8.38854 10.4689 8.58833 11.0341 9.01413C11.6434 9.46544 12.0263 10.1867 12.0263 11.2204ZM1.78796 14.2881V8.50969C2.19647 8.44026 2.77094 8.38854 3.57946 8.38854C4.3972 8.38854 4.98018 8.54511 5.37096 8.85756C5.74473 9.153 5.9965 9.63973 5.9965 10.2129C5.9965 10.7868 5.80572 11.2728 5.45749 11.603C5.005 12.0288 4.33549 12.2201 3.55251 12.2201C3.37875 12.2201 3.22201 12.2116 3.10073 12.1938V14.2881H1.78796ZM15.3427 19.0032H2.38796V15.2248H15.3427V19.0032ZM16.4803 9.51787H14.2271V10.8562H16.332V11.9338H14.2271V14.2881H12.8973V8.43175H16.4803V9.51787Z" fill="#2D3A47"/>
</svg>
