<svg width="20" height="23" viewBox="0 0 20 23" fill="none" xmlns="http://www.w3.org/2000/svg">
<path d="M5.2848 11.9995C5.2848 11.3921 4.8624 11.0293 4.1176 11.0293C3.8136 11.0293 3.608 11.0589 3.5 11.0876V13.0384C3.628 13.0672 3.7848 13.0776 4 13.0776C4.7944 13.0776 5.2848 12.6756 5.2848 11.9995Z" fill="#F57B20"/>
<path d="M9.89635 11.0488C9.56275 11.0488 9.34675 11.0784 9.21875 11.108V15.4299C9.34675 15.4595 9.55235 15.4595 9.73875 15.4595C11.0923 15.469 11.9755 14.7242 11.9755 13.1467C11.9859 11.7745 11.1811 11.0488 9.89635 11.0488Z" fill="#F57B20"/>
<path d="M18.7344 8.50967H18.192V5.89558C18.1916 5.87897 18.1899 5.86241 18.1872 5.84603C18.1881 5.74089 18.1509 5.63899 18.0824 5.55913L13.728 0.591473L13.7248 0.588276C13.6695 0.528332 13.599 0.484428 13.5208 0.461208L13.4968 0.453216C13.4636 0.444938 13.4295 0.440645 13.3952 0.44043H2.6936C2.2048 0.44043 1.808 0.837618 1.808 1.32511V8.50967H1.2656C0.5664 8.50967 0 9.07548 0 9.77396V16.3495C0 17.0472 0.5672 17.6138 1.2656 17.6138H1.808V22.1156C1.808 22.6031 2.2048 23.0003 2.6936 23.0003H17.3064C17.7944 23.0003 18.192 22.6031 18.192 22.1156V17.6138H18.7344C19.4336 17.6138 20 17.0472 20 16.3495V9.77396C20 9.07548 19.4328 8.50967 18.7344 8.50967V8.50967ZM2.6936 1.32511H12.952V5.85162C12.952 6.09617 13.1504 6.29356 13.3952 6.29356H17.3072V8.50967H2.6936V1.32511ZM13.5656 13.0969C13.5656 14.3612 13.1048 15.2339 12.4656 15.7725C11.7696 16.3503 10.7104 16.6253 9.4152 16.6253C8.64 16.6253 8.0912 16.5757 7.7176 16.5278V10.0393C8.2672 9.95137 8.9832 9.90262 9.7392 9.90262C10.9944 9.90262 11.8088 10.128 12.4464 10.6083C13.1336 11.1174 13.5656 11.9309 13.5656 13.0969V13.0969ZM2.0168 16.5573V10.0393C2.4776 9.96096 3.1256 9.90262 4.0376 9.90262C4.96 9.90262 5.6176 10.0792 6.0584 10.4317C6.48 10.7649 6.764 11.314 6.764 11.9605C6.764 12.6078 6.5488 13.1561 6.156 13.5285C5.6456 14.0088 4.8904 14.2245 4.0072 14.2245C3.8112 14.2245 3.6344 14.215 3.4976 14.195V16.5573H2.0168ZM17.3064 21.8758H2.6936V17.6138H17.3064V21.8758ZM18.5896 11.1765H16.048V12.6861H18.4224V13.9017H16.048V16.5573H14.548V9.95137H18.5896V11.1765Z" fill="#F57B20"/>
</svg>
