<svg xmlns="http://www.w3.org/2000/svg" viewBox="0 0 24 24">
  <path fill="currentColor" d="M5.56 12.7a2.45 2.45 0 0 1-1.48-1.32 1.9 1.9 0 0 1-.2-.93 2.39 2.39 0 0 1 2.55-2.58c.45.02.58.05.9.22a2.5 2.5 0 0 1 .38 4.27c-.56.42-1.5.57-2.15.35zm1.16-1.64c.35-.24.48-.8.25-1.17-.14-.23-.43-.42-.66-.42-.4 0-.83.44-.83.85 0 .65.72 1.08 1.24.74zm4.5-.01a3.06 3.06 0 0 1-1.49-.88 3.3 3.3 0 0 1 1.76-5.62c.45-.09.53-.1 1 0 .77.13 1.3.4 1.8.91a3.3 3.3 0 0 1-3.06 5.6zm1.48-1.7c.32-.15.73-.61.85-.95.19-.55.06-1.25-.3-1.69a1.62 1.62 0 0 0-2.24-.2c-.4.34-.55.66-.58 1.18-.03.5.03.72.28 1.11.4.64 1.3.89 2 .55zm4.46 3.41c-.67-.17-1.3-.7-1.63-1.36-.19-.38-.2-.42-.2-1.06 0-.62.02-.69.18-1.04.27-.55.64-.93 1.16-1.19.43-.21.46-.22 1.08-.22.6 0 .66.02 1.01.18a2.5 2.5 0 0 1-.1 4.57c-.3.14-1.16.2-1.5.12zm.87-1.64c.1-.04.26-.16.34-.26.13-.16.16-.24.16-.53 0-.33-.02-.36-.22-.57a1.11 1.11 0 0 0-.38-.26c-.54-.13-1.1.42-.99.98.07.35.47.71.8.72.06 0 .19-.04.29-.08zM3.65 19.48a.88.88 0 0 1-.57-.5c-.11-.26-.1-2.09 0-2.63a3.31 3.31 0 0 1 3.65-2.62c.24.03.6.14.83.23l.4.17.44-.46a4.85 4.85 0 0 1 2.54-1.53 5.73 5.73 0 0 1 2.27.03c.97.26 1.95.88 2.54 1.61.3.38.28.38.8.16a3.21 3.21 0 0 1 4.07 1.52c.33.63.38.9.38 2.27 0 1.17 0 1.22-.13 1.41-.27.4.4.37-8.75.38-4.56 0-8.37-.01-8.47-.04zm3.44-2.14c0-.49.03-.78.14-1.46.04-.24.04-.24-.2-.37a2.18 2.18 0 0 0-.61-.16 1.56 1.56 0 0 0-1.55.86c-.16.28-.17.37-.2.98l-.01.68h2.42zm8.1.4c0-.06-.04-.56-.1-1.1-.08-.9-.1-1.01-.26-1.32a3.17 3.17 0 0 0-5.07-.7c-.63.63-.71.83-.81 1.91-.04.5-.1 1-.1 1.12l-.03.22h6.37zm4.2-.38c0-.84-.24-1.4-.76-1.75a1.57 1.57 0 0 0-1.48-.15c-.4.18-.4.18-.31.58.04.2.08.7.08 1.1v.73h2.47z"/>
</svg>
