<svg width="21" height="16" viewBox="0 0 21 16" fill="none" xmlns="http://www.w3.org/2000/svg">
    <path d="M8.32026 1H1.91503C1.67235 1 1.43961 1.09641 1.26801 1.26801C1.0964 1.43961 1 1.67235 1 1.91503V13.8105C1 14.0531 1.0964 14.2859 1.26801 14.4575C1.43961 14.6291 1.67235 14.7255 1.91503 14.7255H18.3856C18.6283 14.7255 18.861 14.6291 19.0326 14.4575C19.2043 14.2859 19.3007 14.0531 19.3007 13.8105V12.6667"
          stroke="#2D3A47" stroke-width="2" stroke-linecap="round" stroke-linejoin="round"/>
    <path d="M3.74219 6.94751H7.40232M3.74219 10.6076H14.7226" stroke="#2D3A47" stroke-width="2"
          stroke-linecap="round"/>
    <path d="M14.7217 6.4902C16.2377 6.4902 17.4668 5.26117 17.4668 3.7451C17.4668 2.22902 16.2377 1 14.7217 1C13.2056 1 11.9766 2.22902 11.9766 3.7451C11.9766 5.26117 13.2056 6.4902 14.7217 6.4902Z"
          stroke="#2D3A47" stroke-width="2" stroke-linecap="round" stroke-linejoin="round"/>
    <path d="M19.2972 9.42459C18.4037 7.67825 16.5521 6.48779 14.7221 6.48779C12.892 6.48779 11.9802 7.00616 11.0391 7.86034"
          stroke="#2D3A47" stroke-width="2" stroke-linecap="round" stroke-linejoin="round"/>
</svg>
