<svg version="1.1" viewBox="0 0 24 24" xmlns="http://www.w3.org/2000/svg">
 <path d="m5.6168 20.826c-1.2104-0.34631-2.1672-1.3518-2.4932-2.62-0.1653-0.64325-0.16458-11.769 8e-4 -12.408 0.32451-1.2536 1.2065-2.1971 2.4087-2.5769l0.57084-0.18032h5.8599c6.4312 0 6.277-9e-3 7.1029 0.43473 0.77214 0.41525 1.4608 1.2321 1.7455 2.0704 0.15906 0.46835 0.15969 0.49031 0.18024 6.2162 0.0227 6.3338 0.0217 6.352-0.41667 7.2444-0.27459 0.55902-0.90789 1.207-1.4682 1.502-0.90072 0.47445-0.59948 0.45544-7.1275 0.4498-5.4408-5e-3 -5.9553-0.0154-6.3633-0.13211zm12.491-1.8964c0.19876-0.0926 0.44998-0.27356 0.55826-0.40225 0.42431-0.50427 0.40664-0.21932 0.40664-6.5553v-5.8193l-0.233-0.38856c-0.15697-0.26177-0.3481-0.45956-0.58579-0.6062l-0.3528-0.21764-5.7768-0.02c-5.2266-0.018-5.8065-9e-3 -6.089 0.0984-0.39783 0.15082-0.76427 0.47251-0.96451 0.84672l-0.15709 0.29355v11.686l0.15503 0.28676c0.0853 0.15772 0.26269 0.38991 0.3943 0.51597 0.48925 0.46867 0.16041 0.44603 6.5122 0.44835l5.7711 2e-3 0.36139-0.16828z" stroke-width=".071691" fill="currentColor"/>
 <path d="m6.9107 17.141c-0.21818-0.19994-0.26475-0.29628-0.2949-0.61007-0.082-0.85305 0.33722-1.9614 1.0324-2.7295 0.21645-0.23918 0.66273-0.61399 0.99173-0.8329l0.59819-0.39802-0.23897-0.3551c-0.5136-0.76322-0.72681-1.8449-0.54041-2.7418 0.26847-1.2918 1.337-2.404 2.6342-2.7419 0.47354-0.12334 1.2753-0.13675 1.7426-0.0291 0.56259 0.12957 1.2311 0.50966 1.6914 0.96171 1.2159 1.1941 1.4256 3.1587 0.48558 4.5486-0.14527 0.21477-0.23424 0.40045-0.19772 0.41263 0.0365 0.0122 0.26883 0.1544 0.51624 0.31606 1.2086 0.78973 1.9239 1.9127 2.0496 3.2181 0.022 0.22783 1e-3 0.49919-0.0491 0.64274-0.1801 0.51398-0.88529 0.73682-1.3746 0.43439-0.28048-0.17335-0.38046-0.38166-0.46303-0.9647-0.0808-0.5709-0.28732-0.9743-0.72027-1.4072-0.67023-0.67024-1.6483-1.0201-2.8342-1.0138-1.2024 6e-3 -2.1726 0.4036-2.864 1.1726-0.352 0.39151-0.61305 0.99398-0.61305 1.4148 0 0.31487-0.23645 0.71281-0.50398 0.84818-0.0974 0.0493-0.31466 0.0901-0.48282 0.0907-0.24698 8.5e-4 -0.35553-0.0446-0.56483-0.23639zm5.8563-5.3561c0.38592-0.19688 0.76185-0.65468 0.88889-1.0825 0.13854-0.46653 0.13839-0.51932-3e-3 -0.99984-0.13938-0.47383-0.65826-1.0195-1.081-1.1369-1.5493-0.43023-2.8421 1.0542-2.1201 2.4343 0.4566 0.87279 1.4697 1.2163 2.3152 0.78494z" stroke-width=".071691" fill="currentColor"/>
</svg>
