<svg width="24" height="24" viewBox="0 0 24 24" fill="none" xmlns="http://www.w3.org/2000/svg">
<g opacity="0.35">
<path d="M12.5882 20.4412C14.8588 21.4176 17.5788 22 20.8235 22V17.2941L16.1176 16.1176L12.5882 20.4412ZM12.5882 20.4412C8.06941 18.4976 5.32235 14.9941 3.76471 11.4118M3.76471 11.4118C2.47059 8.43765 2 5.40941 2 3.17647H6.70588L7.88235 7.88235L3.76471 11.4118ZM14.9412 2H14.9529M18.4706 2H18.4824M22 2H22.0118M14.9412 5.52941H14.9529M18.4706 5.52941H18.4824M22 5.52941H22.0118M14.9412 9.05882H14.9529M18.4706 9.05882H18.4824M22 9.05882H22.0118" stroke="#2D3A47" stroke-width="2.5" stroke-linecap="round" stroke-linejoin="round"/>
</g>
</svg>
