<svg width="25" height="22" viewBox="0 0 25 22" fill="none" xmlns="http://www.w3.org/2000/svg">
<rect x="2" y="1" width="21" height="19" rx="4" fill="#ADBED0"/>
<path d="M0.75 3.5C0.75 2.77181 1.03511 2.07273 1.54373 1.55673C2.05247 1.04062 2.74324 0.75 3.46429 0.75H21.5357C22.2568 0.75 22.9475 1.04062 23.4563 1.55673C23.9649 2.07273 24.25 2.77181 24.25 3.5V5.16654V5.16667H24C24.0003 5.68388 23.8424 6.18844 23.5482 6.61082C23.2539 7.0332 22.8378 7.3526 22.3571 7.525L0.75 3.5ZM0.75 3.5V5.1666C0.75 5.16662 0.75 5.16664 0.75 5.16667C0.749733 5.73471 0.923105 6.2892 1.2467 6.75372C1.53613 7.1692 1.93314 7.49457 2.39286 7.69467V16.8333C2.39286 18.0036 2.85105 19.1266 3.66777 19.9551C4.48461 20.7838 5.59324 21.25 6.75 21.25H18.25C19.4068 21.25 20.5154 20.7838 21.3322 19.9551C22.149 19.1266 22.6071 18.0036 22.6071 16.8333V7.69467L0.75 3.5ZM10.0357 10.75C9.75039 10.75 9.47748 10.865 9.27683 11.0686C9.07631 11.272 8.96429 11.5472 8.96429 11.8333C8.96429 12.1195 9.07631 12.3947 9.27683 12.5981C9.47748 12.8016 9.75039 12.9167 10.0357 12.9167H14.9643C15.2496 12.9167 15.5225 12.8016 15.7232 12.5981C15.9237 12.3947 16.0357 12.1195 16.0357 11.8333C16.0357 11.5472 15.9237 11.272 15.7232 11.0686C15.5225 10.865 15.2496 10.75 14.9643 10.75H10.0357ZM3.06149 3.08624C3.16894 2.97724 3.3139 2.91667 3.46429 2.91667H21.5357C21.6861 2.91667 21.8311 2.97724 21.9385 3.08624C22.0461 3.19537 22.1071 3.34414 22.1071 3.5V5.16667C22.1071 5.32253 22.0461 5.47129 21.9385 5.58042C21.8311 5.68943 21.6861 5.75 21.5357 5.75H3.46429C3.3139 5.75 3.16894 5.68943 3.06149 5.58042C2.95392 5.47129 2.89286 5.32253 2.89286 5.16667V3.5C2.89286 3.34414 2.95392 3.19537 3.06149 3.08624ZM4.53572 16.8333V7.91667H20.4643V16.8333C20.4643 17.4312 20.2301 18.0039 19.8145 18.4256C19.3989 18.8472 18.8361 19.0833 18.25 19.0833H6.75C6.16391 19.0833 5.60108 18.8472 5.18553 18.4256C4.76987 18.0039 4.53572 17.4312 4.53572 16.8333Z" fill="#2D3A47" stroke="#2D3A47" stroke-width="0.5"/>
</svg>
