<svg width="24" height="22" viewBox="0 0 24 22" fill="none" xmlns="http://www.w3.org/2000/svg">
<path d="M12.1783 1.70753C11.9838 1.38584 11.5171 1.38584 11.3226 1.70753L8.00706 7.19037C7.92709 7.32261 7.79046 7.41045 7.63695 7.42829L1.97531 8.0866C1.56941 8.13379 1.38845 8.62156 1.66536 8.92207L5.9797 13.6041C6.09254 13.7266 6.13701 13.8971 6.09832 14.0591L4.67356 20.023C4.57763 20.4245 4.98217 20.7627 5.36037 20.5972L11.55 17.8878C11.6778 17.8318 11.8231 17.8318 11.951 17.8878L18.1405 20.5972C18.5187 20.7627 18.9233 20.4245 18.8273 20.023L17.4026 14.0591C17.3639 13.8971 17.4084 13.7266 17.5212 13.6041L21.8355 8.92207C22.1125 8.62156 21.9315 8.13379 21.5256 8.0866L15.864 7.42829C15.7104 7.41045 15.5738 7.32261 15.4938 7.19037L12.1783 1.70753Z" stroke="#2D3A47" stroke-width="2.5" stroke-linecap="round" stroke-linejoin="round"/>
</svg>
