<svg width="19" height="20" viewBox="0 0 19 20" fill="none" xmlns="http://www.w3.org/2000/svg">
<path d="M7.35511 1.18844C6.83357 1.70998 6.52157 2.40187 6.47326 3.13333H1.56667C1.36333 3.13333 1.16833 3.21411 1.02455 3.35788C0.880774 3.50166 0.8 3.69667 0.8 3.9V3.90887L0.800785 3.91771L0.809852 4.01971L0.81067 4.02891L0.812333 4.038C0.844632 4.21451 0.937821 4.37409 1.07567 4.48897C1.2135 4.60383 1.38725 4.66671 1.56667 4.66667C1.56669 4.66667 1.56671 4.66667 1.56673 4.66667H2.01517L3.46465 17.2169L3.46466 17.217C3.53425 17.8181 3.82238 18.3727 4.27424 18.7752C4.7261 19.1777 5.31016 19.4001 5.91527 19.4H13.0847C13.6898 19.4001 14.2739 19.1777 14.7258 18.7752C15.1776 18.3727 15.4657 17.8181 15.5353 17.217L15.5353 17.2169L16.9837 4.66667H17.4333C17.6367 4.66667 17.8317 4.58589 17.9754 4.44212L17.834 4.30069L17.9755 4.44211C18.1192 4.29834 18.2 4.10333 18.2 3.9C18.2 3.69667 18.1192 3.50166 17.9755 3.35789L17.834 3.49931L17.9754 3.35788C17.8317 3.21411 17.6367 3.13333 17.4333 3.13333H12.5267C12.4784 2.40187 12.1664 1.70998 11.6449 1.18844C11.076 0.619582 10.3045 0.3 9.5 0.3C8.69551 0.3 7.92397 0.619582 7.35511 1.18844ZM8.01339 3.13333C8.05697 2.80935 8.2056 2.50641 8.43934 2.27267C8.72064 1.99137 9.10218 1.83333 9.5 1.83333C9.89782 1.83333 10.2794 1.99137 10.5607 2.27267C10.7944 2.50641 10.943 2.80935 10.9866 3.13333H8.01339ZM5.91527 17.8667H5.91514C5.68609 17.8668 5.46498 17.7827 5.29391 17.6304C5.12286 17.4781 5.01377 17.2682 4.98742 17.0407C4.98741 17.0407 4.98741 17.0407 4.98741 17.0407L3.56019 4.66667H15.4387L14.0115 17.0407C13.9851 17.268 13.8762 17.4778 13.7053 17.6301C13.5344 17.7824 13.3136 17.8666 13.0847 17.8667C13.0847 17.8667 13.0847 17.8667 13.0847 17.8667H5.91527ZM7.8 7.1H7.6V7.1256C7.2869 7.20317 7.03333 7.45871 7.03333 7.79753V14.7369V14.747L7.03435 14.7571L7.04342 14.8466L7.04445 14.8568L7.04651 14.8668C7.11651 15.2068 7.44458 15.4333 7.8 15.4333C8.19718 15.4333 8.56667 15.146 8.56667 14.7381V7.7964V7.7863L8.56565 7.77625L8.55658 7.68672L8.55555 7.67655L8.55349 7.66654C8.48349 7.32654 8.15542 7.1 7.8 7.1ZM11.2 7.1H11V7.1256C10.6869 7.20317 10.4333 7.45871 10.4333 7.79753V14.7369V14.747L10.4344 14.7571L10.4434 14.8466L10.4444 14.8568L10.4465 14.8668C10.5165 15.2068 10.8446 15.4333 11.2 15.4333C11.5972 15.4333 11.9667 15.146 11.9667 14.7381V7.7964V7.7863L11.9656 7.77625L11.9566 7.68672L11.9556 7.67655L11.9535 7.66653C11.8835 7.32654 11.5554 7.1 11.2 7.1Z" fill="#2D3A47" stroke="#2D3A47" stroke-width="0.4"/>
</svg>
