<svg width="23" height="24" viewBox="0 0 23 24" fill="none" xmlns="http://www.w3.org/2000/svg">
<path d="M14.0767 21.2323C13.9692 21.6824 13.5669 22 13.1041 22H9.90467C9.44188 22 9.03955 21.6824 8.93203 21.2323L8.58227 19.7679C8.5042 19.4411 8.26551 19.1791 7.95743 19.045C7.51527 18.8524 7.0921 18.6241 6.69278 18.3628C6.43034 18.191 6.10749 18.1296 5.80647 18.2177L4.11866 18.7119C3.68746 18.8382 3.22498 18.6613 2.98803 18.2796L1.45314 15.8067C1.19254 15.3869 1.27768 14.8396 1.65351 14.5188L2.80838 13.5329C3.07396 13.3062 3.19681 12.9577 3.16768 12.6097C3.13375 12.2045 3.13376 11.7975 3.16769 11.3923C3.19682 11.0444 3.07407 10.696 2.80862 10.4693L1.65316 9.48235C1.2775 9.16148 1.19246 8.61437 1.45301 8.19461L2.98803 5.72154C3.22498 5.33979 3.68745 5.16295 4.11866 5.2892L5.80633 5.78334C6.10742 5.8715 6.43037 5.81002 6.69284 5.63814C7.09243 5.37646 7.51594 5.14793 7.95846 4.95515C8.26662 4.82091 8.50534 4.55879 8.58329 4.23182L8.93227 2.76808C9.03964 2.31776 9.44206 2 9.90501 2H13.1041C13.5669 2 13.9692 2.31755 14.0767 2.76768L14.4265 4.23208C14.5046 4.5589 14.7433 4.82086 15.0513 4.95503C15.4935 5.1476 15.9167 5.37587 16.316 5.63723C16.5784 5.80899 16.9013 5.87041 17.2023 5.78228L18.8901 5.28809C19.3213 5.16183 19.7838 5.33868 20.0207 5.72043L21.5556 8.19329C21.8162 8.61313 21.7311 9.16038 21.3553 9.48121L20.2005 10.467C19.9348 10.6938 19.812 11.0423 19.8412 11.3904C19.8751 11.7954 19.8751 12.2024 19.8412 12.6074C19.812 12.9554 19.9348 13.304 20.2005 13.5307L21.3553 14.5166C21.7311 14.8374 21.8162 15.3846 21.5556 15.8045L20.0207 18.2773C19.7838 18.6591 19.3213 18.8359 18.8901 18.7097L17.2028 18.2157C16.9015 18.1274 16.5783 18.1891 16.3158 18.3612C15.9164 18.6231 15.4931 18.8518 15.0508 19.0448C14.743 19.1791 14.5046 19.4409 14.4266 19.7675L14.0767 21.2323Z" stroke="#2D3A47" stroke-width="2.5" stroke-linecap="round" stroke-linejoin="round"/>
<path d="M11.5041 15.3327C13.4832 15.3327 15.0876 13.8403 15.0876 11.9993C15.0876 10.1584 13.4832 8.66602 11.5041 8.66602C9.52503 8.66602 7.92065 10.1584 7.92065 11.9993C7.92065 13.8403 9.52503 15.3327 11.5041 15.3327Z" stroke="#2D3A47" stroke-width="2.5"/>
</svg>
