<svg width="18" height="18" viewBox="0 0 18 18" fill="none" xmlns="http://www.w3.org/2000/svg">
<path d="M7.22222 0.875H1.88889C1.61999 0.875 1.3621 0.98182 1.17196 1.17196C0.98182 1.3621 0.875 1.61999 0.875 1.88889V7.22222C0.875 7.49112 0.98182 7.74901 1.17196 7.93915C1.3621 8.12929 1.61999 8.23611 1.88889 8.23611H7.22222C7.49112 8.23611 7.74901 8.12929 7.93915 7.93915C8.12929 7.74901 8.23611 7.49112 8.23611 7.22222V1.88889C8.23611 1.61999 8.12929 1.3621 7.93915 1.17196C7.74901 0.98182 7.49112 0.875 7.22222 0.875ZM6.20833 6.20833H2.90278V2.90278H6.20833V6.20833ZM16.1111 0.875H10.7778C10.5089 0.875 10.251 0.98182 10.0609 1.17196C9.87071 1.3621 9.76389 1.61999 9.76389 1.88889V7.22222C9.76389 7.49112 9.87071 7.74901 10.0609 7.93915C10.251 8.12929 10.5089 8.23611 10.7778 8.23611H16.1111C16.38 8.23611 16.6379 8.12929 16.828 7.93915C17.0182 7.74901 17.125 7.49112 17.125 7.22222V1.88889C17.125 1.61999 17.0182 1.3621 16.828 1.17196C16.6379 0.98182 16.38 0.875 16.1111 0.875ZM15.0972 6.20833H11.7917V2.90278H15.0972V6.20833ZM7.22222 9.76389H1.88889C1.61999 9.76389 1.3621 9.87071 1.17196 10.0609C0.98182 10.251 0.875 10.5089 0.875 10.7778V16.1111C0.875 16.38 0.98182 16.6379 1.17196 16.828C1.3621 17.0182 1.61999 17.125 1.88889 17.125H7.22222C7.49112 17.125 7.74901 17.0182 7.93915 16.828C8.12929 16.6379 8.23611 16.38 8.23611 16.1111V10.7778C8.23611 10.5089 8.12929 10.251 7.93915 10.0609C7.74901 9.87071 7.49112 9.76389 7.22222 9.76389ZM6.20833 15.0972H2.90278V11.7917H6.20833V15.0972ZM13.4444 9.76389C11.4145 9.76389 9.76389 11.4145 9.76389 13.4444C9.76389 15.4744 11.4145 17.125 13.4444 17.125C15.4744 17.125 17.125 15.4744 17.125 13.4444C17.125 11.4145 15.4744 9.76389 13.4444 9.76389ZM13.4444 15.0972C12.533 15.0972 11.7917 14.3559 11.7917 13.4444C11.7917 12.533 12.533 11.7917 13.4444 11.7917C14.3559 11.7917 15.0972 12.533 15.0972 13.4444C15.0972 14.3559 14.3559 15.0972 13.4444 15.0972Z" fill="#2D3A47" stroke="#2D3A47" stroke-width="0.25"/>
</svg>
