<svg width="20" height="18" viewBox="0 0 20 18" fill="none" xmlns="http://www.w3.org/2000/svg">
<path d="M0.75 3C0.75 2.40441 0.983182 1.83251 1.39937 1.41029C1.81569 0.98794 2.3811 0.75 2.97143 0.75H17.4286C18.0189 0.75 18.5843 0.98794 19.0006 1.41029C19.4168 1.83251 19.65 2.40441 19.65 3V4.3332V4.33333H19.4C19.4002 4.7471 19.2739 5.15075 19.0385 5.48865C18.8031 5.82656 18.4702 6.08208 18.0857 6.22L0.75 3ZM0.75 3V4.33326C0.75 4.33329 0.75 4.33331 0.75 4.33333C0.749786 4.79794 0.891586 5.25151 1.15633 5.63155C1.38682 5.96242 1.70073 6.22351 2.06429 6.38824V13.6667C2.06429 14.6159 2.43594 15.5269 3.09861 16.1992C3.76139 16.8716 4.6611 17.25 5.6 17.25H14.8C15.7389 17.25 16.6386 16.8716 17.3014 16.1992C17.9641 15.5269 18.3357 14.6159 18.3357 13.6667V6.38824L0.75 3ZM17.7152 4.62924L17.8932 4.80474L17.7152 4.62924C17.6386 4.70699 17.5354 4.75 17.4286 4.75H2.97143C2.86462 4.75 2.76144 4.70699 2.6848 4.62924C2.60804 4.55136 2.56429 4.44499 2.56429 4.33333V3C2.56429 2.88834 2.60804 2.78197 2.6848 2.7041C2.76144 2.62634 2.86462 2.58333 2.97143 2.58333H17.4286C17.5354 2.58333 17.6386 2.62635 17.7152 2.7041L17.8932 2.5286L17.7152 2.7041C17.792 2.78197 17.8357 2.88834 17.8357 3V4.33333C17.8357 4.44499 17.792 4.55136 17.7152 4.62924ZM8.22857 8.75C7.98681 8.75 7.75569 8.84746 7.58586 9.01976C7.41614 9.19194 7.32143 9.4247 7.32143 9.66667C7.32143 9.90863 7.41614 10.1414 7.58586 10.3136C7.75569 10.4859 7.98681 10.5833 8.22857 10.5833H12.1714C12.4132 10.5833 12.6443 10.4859 12.8141 10.3136C12.9839 10.1414 13.0786 9.90863 13.0786 9.66667C13.0786 9.4247 12.9839 9.19194 12.8141 9.01976C12.6443 8.84746 12.4132 8.75 12.1714 8.75H8.22857ZM3.87857 13.6667V6.58333H16.5214V13.6667C16.5214 14.1319 16.3392 14.5775 16.016 14.9054C15.6929 15.2332 15.2554 15.4167 14.8 15.4167H5.6C5.14462 15.4167 4.70715 15.2332 4.38403 14.9054C4.0608 14.5775 3.87857 14.1319 3.87857 13.6667Z" fill="#2D3A47" stroke="#2D3A47" stroke-width="0.5"/>
</svg>
