<svg width="18" height="18" viewBox="0 0 18 18" fill="none" xmlns="http://www.w3.org/2000/svg">
<path d="M9.43579 1.77473C9.24464 1.43491 8.75536 1.43491 8.56421 1.77473L6.2436 5.90026C6.16586 6.03847 6.02718 6.1316 5.86983 6.15127L1.9229 6.64464C1.52747 6.69407 1.34595 7.16361 1.60529 7.46617L4.6773 11.0502C4.77972 11.1697 4.81991 11.3304 4.78577 11.484L3.78106 16.0052C3.69093 16.4108 4.10611 16.743 4.48205 16.5661L8.7871 14.5402C8.92194 14.4767 9.07806 14.4767 9.2129 14.5402L13.5179 16.5661C13.8939 16.743 14.3091 16.4108 14.2189 16.0052L13.2142 11.484C13.1801 11.3304 13.2203 11.1697 13.3227 11.0502L16.3947 7.46617C16.6541 7.16361 16.4725 6.69407 16.0771 6.64464L12.1302 6.15127C11.9728 6.1316 11.8341 6.03847 11.7564 5.90026L9.43579 1.77473Z" stroke="#2D3A47" stroke-width="2.5" stroke-linecap="round" stroke-linejoin="round"/>
</svg>
