<svg width="36" height="36" viewBox="0 0 36 36" fill="none" xmlns="http://www.w3.org/2000/svg">
<circle cx="18.5" cy="17.5" r="16.5" fill="white" stroke="#2D3A47" stroke-width="2"/>
<path d="M16.4239 20.664H19.3449C19.3449 17.95 23.2779 17.605 23.2779 13.856C23.2779 11.211 21.0239 9.67 17.6429 9.67C14.7679 9.67 12.6979 10.728 11.4099 12.476L13.6409 13.925C14.4459 12.798 15.6879 12.154 17.3899 12.154C19.1609 12.154 20.2649 13.028 20.2649 14.316C20.2649 16.616 16.4239 17.26 16.4239 20.664ZM17.8959 26.161C18.9539 26.161 19.7129 25.356 19.7129 24.367C19.7129 23.378 18.9539 22.596 17.8959 22.596C16.8149 22.596 16.0559 23.378 16.0559 24.367C16.0559 25.356 16.8149 26.161 17.8959 26.161Z" fill="#2D3A47"/>
</svg>
