<svg width="20" height="16" viewBox="0 0 20 16" fill="none" xmlns="http://www.w3.org/2000/svg">
<mask id="path-1-inside-1_15872_44747" fill="white">
<path fill-rule="evenodd" clip-rule="evenodd" d="M8 0H6V2H3C2.20435 2 1.44129 2.31607 0.87868 2.87868C0.316071 3.44129 0 4.20435 0 5V11C0 11.7956 0.316071 12.5587 0.87868 13.1213C1.44129 13.6839 2.20435 14 3 14H6V16H8V0ZM6 4V12H3C2.73478 12 2.48043 11.8946 2.29289 11.7071C2.10536 11.5196 2 11.2652 2 11V5C2 4.73478 2.10536 4.48043 2.29289 4.29289C2.48043 4.10536 2.73478 4 3 4H6Z"/>
</mask>
<path d="M8 0H10V-2H8V0ZM6 0V-2H4V0H6ZM6 2V4H8V2H6ZM0 5H-2H0ZM0 11H-2H0ZM3 14V16V14ZM6 14H8V12H6V14ZM6 16H4V18H6V16ZM8 16V18H10V16H8ZM6 4H8V2H6V4ZM6 12V14H8V12H6ZM3 4V6V4ZM8 -2H6V2H8V-2ZM4 0V2H8V0H4ZM6 0H3V4H6V0ZM3 0C1.67392 0 0.402148 0.526784 -0.535534 1.46447L2.29289 4.29289C2.48043 4.10536 2.73478 4 3 4V0ZM-0.535534 1.46447C-1.47322 2.40215 -2 3.67392 -2 5H2C2 4.73478 2.10536 4.48043 2.29289 4.29289L-0.535534 1.46447ZM-2 5V11H2V5H-2ZM-2 11C-2 12.3261 -1.47322 13.5979 -0.535534 14.5355L2.29289 11.7071C2.10536 11.5196 2 11.2652 2 11H-2ZM-0.535534 14.5355C0.402148 15.4732 1.67392 16 3 16V12C2.73478 12 2.48043 11.8946 2.29289 11.7071L-0.535534 14.5355ZM3 16H6V12H3V16ZM4 14V16H8V14H4ZM6 18H8V14H6V18ZM10 16V0H6V16H10ZM4 4V12H8V4H4ZM6 10H3V14H6V10ZM3 10C3.26522 10 3.51957 10.1054 3.70711 10.2929L0.87868 13.1213C1.44129 13.6839 2.20435 14 3 14V10ZM3.70711 10.2929C3.89464 10.4804 4 10.7348 4 11H0C0 11.7957 0.316072 12.5587 0.87868 13.1213L3.70711 10.2929ZM4 11V5H0V11H4ZM4 5C4 5.26522 3.89464 5.51957 3.70711 5.70711L0.87868 2.87868C0.316072 3.44129 0 4.20435 0 5H4ZM3.70711 5.70711C3.51957 5.89464 3.26522 6 3 6V2C2.20435 2 1.44129 2.31607 0.87868 2.87868L3.70711 5.70711ZM3 6H6V2H3V6Z" fill="#2D3A47" mask="url(#path-1-inside-1_15872_44747)"/>
<mask id="path-3-inside-2_15872_44747" fill="white">
<path d="M17 12H10V14H17C17.7956 14 18.5587 13.6839 19.1213 13.1213C19.6839 12.5587 20 11.7956 20 11V5C20 4.20435 19.6839 3.44129 19.1213 2.87868C18.5587 2.31607 17.7956 2 17 2H10V4H17C17.2652 4 17.5196 4.10536 17.7071 4.29289C17.8946 4.48043 18 4.73478 18 5V11C18 11.2652 17.8946 11.5196 17.7071 11.7071C17.5196 11.8946 17.2652 12 17 12Z"/>
</mask>
<path d="M10 12V10H8V12H10ZM10 14H8V16H10V14ZM17 14V16V14ZM20 11H22H20ZM20 5H22H20ZM10 2V0H8V2H10ZM10 4H8V6H10V4ZM17 4V6V4ZM17 10H10V14H17V10ZM8 12V14H12V12H8ZM10 16H17V12H10V16ZM17 16C18.3261 16 19.5979 15.4732 20.5355 14.5355L17.7071 11.7071C17.5196 11.8946 17.2652 12 17 12V16ZM20.5355 14.5355C21.4732 13.5979 22 12.3261 22 11H18C18 11.2652 17.8946 11.5196 17.7071 11.7071L20.5355 14.5355ZM22 11V5H18V11H22ZM22 5C22 3.67392 21.4732 2.40215 20.5355 1.46447L17.7071 4.29289C17.8946 4.48043 18 4.73478 18 5H22ZM20.5355 1.46447C19.5979 0.526784 18.3261 0 17 0V4C17.2652 4 17.5196 4.10536 17.7071 4.29289L20.5355 1.46447ZM17 0H10V4H17V0ZM8 2V4H12V2H8ZM10 6H17V2H10V6ZM17 6C16.7348 6 16.4804 5.89464 16.2929 5.70711L19.1213 2.87868C18.5587 2.31607 17.7956 2 17 2V6ZM16.2929 5.70711C16.1054 5.51957 16 5.26521 16 5H20C20 4.20435 19.6839 3.44129 19.1213 2.87868L16.2929 5.70711ZM16 5V11H20V5H16ZM16 11C16 10.7348 16.1054 10.4804 16.2929 10.2929L19.1213 13.1213C19.6839 12.5587 20 11.7956 20 11H16ZM16.2929 10.2929C16.4804 10.1054 16.7348 10 17 10V14C17.7956 14 18.5587 13.6839 19.1213 13.1213L16.2929 10.2929Z" fill="#2D3A47" mask="url(#path-3-inside-2_15872_44747)"/>
</svg>
