<svg width="19" height="18" viewBox="0 0 19 18" fill="none" xmlns="http://www.w3.org/2000/svg">
<path fill-rule="evenodd" clip-rule="evenodd" d="M7.33257 1.08023C7.19103 1.20831 7.04228 1.3282 6.88707 1.43933C6.61887 1.61933 6.31737 1.74353 6.00057 1.80653C5.86287 1.83353 5.71887 1.84523 5.43177 1.86773C4.71087 1.92533 4.34997 1.95413 4.04937 2.06033C3.70566 2.18168 3.39348 2.37845 3.13574 2.63619C2.878 2.89394 2.68123 3.20612 2.55987 3.54983C2.45367 3.85043 2.42487 4.21133 2.36727 4.93223C2.35746 5.12282 2.33703 5.31271 2.30607 5.50103C2.24307 5.81783 2.11887 6.11933 1.93887 6.38753C1.86057 6.50453 1.76697 6.61433 1.57977 6.83303C1.11087 7.38383 0.875975 7.65923 0.738275 7.94723C0.420575 8.61323 0.420575 9.38723 0.738275 10.0532C0.875975 10.3412 1.11087 10.6166 1.57977 11.1674C1.76697 11.3861 1.86057 11.4959 1.93887 11.6129C2.11887 11.8811 2.24307 12.1826 2.30607 12.4994C2.33307 12.6371 2.34477 12.7811 2.36727 13.0682C2.42487 13.7891 2.45367 14.15 2.55987 14.4506C2.68123 14.7943 2.878 15.1065 3.13574 15.3643C3.39348 15.622 3.70566 15.8188 4.04937 15.9401C4.34997 16.0463 4.71087 16.0751 5.43177 16.1327C5.71887 16.1552 5.86287 16.1669 6.00057 16.1939C6.31737 16.2569 6.61887 16.382 6.88707 16.5611C7.00407 16.6394 7.11387 16.733 7.33257 16.9202C7.88337 17.3891 8.15877 17.624 8.44677 17.7617C9.11277 18.0794 9.88677 18.0794 10.5528 17.7617C10.8408 17.624 11.1162 17.3891 11.667 16.9202C11.8857 16.733 11.9955 16.6394 12.1125 16.5611C12.3807 16.3811 12.6822 16.2569 12.999 16.1939C13.1367 16.1669 13.2807 16.1552 13.5678 16.1327C14.2887 16.0751 14.6496 16.0463 14.9502 15.9401C15.2939 15.8188 15.6061 15.622 15.8638 15.3643C16.1216 15.1065 16.3183 14.7943 16.4397 14.4506C16.5459 14.15 16.5747 13.7891 16.6323 13.0682C16.6548 12.7811 16.6665 12.6371 16.6935 12.4994C16.7565 12.1826 16.8816 11.8811 17.0607 11.6129C17.139 11.4959 17.2326 11.3861 17.4198 11.1674C17.8887 10.6166 18.1236 10.3412 18.2613 10.0532C18.579 9.38723 18.579 8.61323 18.2613 7.94723C18.1236 7.65923 17.8887 7.38383 17.4198 6.83303C17.2917 6.69148 17.1718 6.54274 17.0607 6.38753C16.8808 6.11922 16.756 5.81791 16.6935 5.50103C16.6625 5.31271 16.6421 5.12281 16.6323 4.93223C16.5747 4.21133 16.5459 3.85043 16.4397 3.54983C16.3183 3.20612 16.1216 2.89394 15.8638 2.63619C15.6061 2.37845 15.2939 2.18168 14.9502 2.06033C14.6496 1.95413 14.2887 1.92533 13.5678 1.86773C13.3772 1.85791 13.1873 1.83748 12.999 1.80653C12.6821 1.74397 12.3808 1.61916 12.1125 1.43933C11.9574 1.32796 11.8087 1.20808 11.667 1.08023C11.1162 0.611327 10.8408 0.376427 10.5528 0.238727C10.224 0.0815698 9.86419 0 9.49977 0C9.13536 0 8.77556 0.0815698 8.44677 0.238727C8.15877 0.376427 7.88337 0.611327 7.33257 1.08023ZM13.4355 7.07693C13.5627 6.9377 13.6313 6.75479 13.627 6.56626C13.6228 6.37773 13.546 6.1981 13.4127 6.06475C13.2793 5.9314 13.0997 5.85461 12.9111 5.85036C12.7226 5.84611 12.5397 5.91473 12.4005 6.04193L8.03547 10.4069L6.59907 8.97143C6.45985 8.84422 6.27694 8.77561 6.08841 8.77986C5.89988 8.78411 5.72024 8.8609 5.5869 8.99425C5.45355 9.1276 5.37676 9.30723 5.37251 9.49576C5.36826 9.68429 5.43687 9.8672 5.56407 10.0064L7.51707 11.9594C7.65442 12.0965 7.84053 12.1735 8.03457 12.1735C8.22861 12.1735 8.41473 12.0965 8.55207 11.9594L13.4355 7.07693Z" fill="#3D57E3"/>
</svg>
