<svg width="19" height="18" viewBox="0 0 19 18" fill="none" xmlns="http://www.w3.org/2000/svg">
<path fill-rule="evenodd" clip-rule="evenodd" d="M9.5 18C14.4707 18 18.5 13.9707 18.5 9C18.5 4.0293 14.4707 0 9.5 0C4.5293 0 0.5 4.0293 0.5 9C0.5 13.9707 4.5293 18 9.5 18ZM10.175 3.6C10.175 3.42098 10.1039 3.24929 9.9773 3.1227C9.85071 2.99612 9.67902 2.925 9.5 2.925C9.32098 2.925 9.14929 2.99612 9.0227 3.1227C8.89612 3.24929 8.825 3.42098 8.825 3.6V3.8853C7.358 4.1481 6.125 5.2506 6.125 6.75C6.125 8.4753 7.7567 9.675 9.5 9.675C10.7393 9.675 11.525 10.4904 11.525 11.25C11.525 12.0096 10.7393 12.825 9.5 12.825C8.2616 12.825 7.475 12.0096 7.475 11.25C7.475 11.071 7.40388 10.8993 7.2773 10.7727C7.15071 10.6461 6.97902 10.575 6.8 10.575C6.62098 10.575 6.44929 10.6461 6.3227 10.7727C6.19612 10.8993 6.125 11.071 6.125 11.25C6.125 12.7494 7.358 13.8519 8.825 14.1147V14.4C8.825 14.579 8.89612 14.7507 9.0227 14.8773C9.14929 15.0039 9.32098 15.075 9.5 15.075C9.67902 15.075 9.85071 15.0039 9.9773 14.8773C10.1039 14.7507 10.175 14.579 10.175 14.4V14.1147C11.642 13.8519 12.875 12.7494 12.875 11.25C12.875 9.5247 11.2433 8.325 9.5 8.325C8.2616 8.325 7.475 7.5096 7.475 6.75C7.475 5.9904 8.2616 5.175 9.5 5.175C10.7393 5.175 11.525 5.9904 11.525 6.75C11.525 6.92902 11.5961 7.10071 11.7227 7.2273C11.8493 7.35388 12.021 7.425 12.2 7.425C12.379 7.425 12.5507 7.35388 12.6773 7.2273C12.8039 7.10071 12.875 6.92902 12.875 6.75C12.875 5.2506 11.642 4.1481 10.175 3.8853V3.6Z" fill="#47A100"/>
</svg>
