<svg width="20" height="21" viewBox="0 0 20 21" fill="none" xmlns="http://www.w3.org/2000/svg">
<path fill-rule="evenodd" clip-rule="evenodd" d="M1.25 10.375C1.25 12.7118 2.17187 14.9528 3.81282 16.6051C5.45376 18.2574 7.67936 19.1857 10 19.1857C12.3206 19.1857 14.5462 18.2574 16.1872 16.6051C17.8281 14.9528 18.75 12.7118 18.75 10.375C18.75 8.03827 17.8281 5.79724 16.1872 4.14492C14.5462 2.4926 12.3206 1.56433 10 1.56433C7.67936 1.56433 5.45376 2.4926 3.81282 4.14492C2.17187 5.79724 1.25 8.03827 1.25 10.375ZM20 10.375C20 13.0456 18.9464 15.6067 17.0711 17.4951C15.1957 19.3835 12.6522 20.4444 10 20.4444C7.34784 20.4444 4.8043 19.3835 2.92893 17.4951C1.05357 15.6067 0 13.0456 0 10.375C0 7.70445 1.05357 5.14328 2.92893 3.25491C4.8043 1.36654 7.34784 0.305664 10 0.305664C12.6522 0.305664 15.1957 1.36654 17.0711 3.25491C18.9464 5.14328 20 7.70445 20 10.375ZM10.625 5.96967C10.625 5.80276 10.5592 5.64269 10.4419 5.52467C10.3247 5.40664 10.1658 5.34034 10 5.34034C9.83424 5.34034 9.67527 5.40664 9.55806 5.52467C9.44085 5.64269 9.375 5.80276 9.375 5.96967V13.2611L6.6925 10.5588C6.57514 10.4406 6.41597 10.3742 6.25 10.3742C6.08403 10.3742 5.92486 10.4406 5.8075 10.5588C5.69014 10.677 5.62421 10.8372 5.62421 11.0043C5.62421 11.1715 5.69014 11.3317 5.8075 11.4499L9.5575 15.2259C9.61556 15.2845 9.68453 15.331 9.76046 15.3628C9.83639 15.3945 9.91779 15.4108 10 15.4108C10.0822 15.4108 10.1636 15.3945 10.2395 15.3628C10.3155 15.331 10.3844 15.2845 10.4425 15.2259L14.1925 11.4499C14.3099 11.3317 14.3758 11.1715 14.3758 11.0043C14.3758 10.8372 14.3099 10.677 14.1925 10.5588C14.0751 10.4406 13.916 10.3742 13.75 10.3742C13.584 10.3742 13.4249 10.4406 13.3075 10.5588L10.625 13.2611V5.96967Z" fill="#2D3A47"/>
</svg>
