<svg width="19" height="18" viewBox="0 0 19 18" fill="none" xmlns="http://www.w3.org/2000/svg">
<path fill-rule="evenodd" clip-rule="evenodd" d="M9.50039 17.9998C7.80299 17.9998 6.95519 17.9998 6.42779 17.4724C5.90039 16.945 5.90039 16.0972 5.90039 14.3998C5.90039 12.7024 5.90039 11.8546 6.42779 11.3272C6.95519 10.7998 7.80299 10.7998 9.50039 10.7998C11.1978 10.7998 12.0456 10.7998 12.573 11.3272C13.1004 11.8546 13.1004 12.7024 13.1004 14.3998C13.1004 16.0972 13.1004 16.945 12.573 17.4724C12.0456 17.9998 11.1978 17.9998 9.50039 17.9998ZM11.5254 13.624C11.6379 13.5113 11.7011 13.3586 11.701 13.1993C11.7009 13.0401 11.6376 12.8874 11.5249 12.7749C11.4692 12.7191 11.4029 12.6749 11.3301 12.6448C11.2572 12.6147 11.1791 12.5992 11.1003 12.5992C10.941 12.5993 10.7883 12.6626 10.6758 12.7753L8.70029 14.7508L8.32499 14.3755C8.21154 14.2675 8.06033 14.208 7.90367 14.2099C7.74701 14.2119 7.5973 14.2749 7.48651 14.3857C7.37573 14.4965 7.31265 14.6462 7.31074 14.8029C7.30883 14.9595 7.36824 15.1108 7.47629 15.2242L8.27639 16.0243C8.51039 16.2583 8.89019 16.2583 9.12419 16.0243L11.5254 13.624Z" fill="#E03B24"/>
<path d="M4.55 14.4V14.319C4.55 13.5405 4.55 12.8259 4.6283 12.2454C4.7138 11.6055 4.9163 10.9287 5.4725 10.3734C6.0287 9.8163 6.7055 9.6138 7.3445 9.5274C7.9259 9.45 8.6405 9.45 9.4199 9.45H9.5801C10.3595 9.45 11.0741 9.45 11.6546 9.5283C12.2945 9.6138 12.9713 9.8163 13.5266 10.3725C14.0837 10.9287 14.2862 11.6055 14.3726 12.2445C14.4491 12.8178 14.45 13.5189 14.45 14.2848C16.7657 13.7898 18.5 11.754 18.5 9.3168C18.5 7.0938 17.0537 5.202 15.0395 4.5135C14.7533 1.9746 12.5735 0 9.9284 0C7.088 0 4.7858 2.2752 4.7858 5.0823C4.7858 5.7033 4.8983 6.2973 5.1044 6.8481C4.85828 6.80027 4.60813 6.77616 4.3574 6.7761C2.2271 6.777 0.5 8.4834 0.5 10.5885C0.5 12.6936 2.2271 14.4 4.3574 14.4H4.55Z" fill="#E03B24"/>
</svg>
