<svg width="33" height="39" viewBox="0 0 33 39" fill="none" xmlns="http://www.w3.org/2000/svg">
<path d="M9.25 5.88889H5.625C4.66359 5.88889 3.74156 6.29861 3.06174 7.02792C2.38192 7.75723 2 8.74638 2 9.77778V33.1111C2 34.1425 2.38192 35.1317 3.06174 35.861C3.74156 36.5903 4.66359 37 5.625 37H27.375C28.3364 37 29.2584 36.5903 29.9383 35.861C30.6181 35.1317 31 34.1425 31 33.1111V9.77778C31 8.74638 30.6181 7.75723 29.9383 7.02792C29.2584 6.29861 28.3364 5.88889 27.375 5.88889H23.75M9.25 5.88889C9.25 4.85749 9.63192 3.86834 10.3117 3.13903C10.9916 2.40972 11.9136 2 12.875 2H20.125C21.0864 2 22.0084 2.40972 22.6883 3.13903C23.3681 3.86834 23.75 4.85749 23.75 5.88889M9.25 5.88889C9.25 6.92029 9.63192 7.90944 10.3117 8.63875C10.9916 9.36806 11.9136 9.77778 12.875 9.77778H20.125C21.0864 9.77778 22.0084 9.36806 22.6883 8.63875C23.3681 7.90944 23.75 6.92029 23.75 5.88889" stroke="#2D3A47" stroke-width="3.5" stroke-linecap="round" stroke-linejoin="round"/>
<path d="M11.0625 23.3885L14.6875 27.2774L21.9375 17.5552" stroke="#2D3A47" stroke-width="3.5" stroke-linecap="round" stroke-linejoin="round"/>
</svg>
