<svg width="42" height="33" viewBox="0 0 42 33" fill="none" xmlns="http://www.w3.org/2000/svg">
<path d="M10.3154 22.7143H16.552M31.1039 31H4.07885C3.52751 31 2.99874 30.7818 2.60888 30.3933C2.21902 30.0048 2 29.4779 2 28.9286V4.07143C2 3.52205 2.21902 2.99518 2.60888 2.60671C2.99874 2.21824 3.52751 2 4.07885 2H31.1039V31ZM31.1039 31H37.3405C37.8918 31 38.4206 30.7818 38.8105 30.3933C39.2003 30.0048 39.4194 29.4779 39.4194 28.9286V4.07143C39.4194 3.52205 39.2003 2.99518 38.8105 2.60671C38.4206 2.21824 37.8918 2 37.3405 2H31.1039V31ZM31.1039 31V28.9286V31ZM31.1039 2V4.07143V2ZM31.1039 10.2878V10.2857V10.2878ZM31.1039 16.5021V16.5V16.5021ZM31.1039 22.7164V22.7143V22.7164ZM10.3154 16.5H22.7885H10.3154Z" stroke="#2D3A47" stroke-width="3.5" stroke-linecap="round" stroke-linejoin="round"/>
</svg>
