<svg width="34" height="34" viewBox="0 0 34 34" fill="none" xmlns="http://www.w3.org/2000/svg">
<path d="M5.33333 18.6667V5.33333C5.33333 4.44928 5.68452 3.60143 6.30964 2.97631C6.93477 2.35119 7.78261 2 8.66667 2H28.6667C29.5507 2 30.3986 2.35119 31.0237 2.97631C31.6488 3.60143 32 4.44928 32 5.33333V27C32 28.6667 31 32 27 32M27 32H7C5.33333 32 2 31 2 27V23.6667H22V27C22 31 25.3333 32 27 32ZM12 8.66667H25.3333M12 15.3333H18.6667" stroke="#2D3A47" stroke-width="3.5" stroke-linecap="round" stroke-linejoin="round"/>
</svg>
