<svg width="39" height="32" viewBox="0 0 39 32" fill="none" xmlns="http://www.w3.org/2000/svg">
<path d="M28.25 30H37V26.5C36.9999 25.4089 36.6599 24.345 36.0272 23.4561C35.3946 22.5672 34.5007 21.8975 33.4698 21.5401C32.4389 21.1827 31.3223 21.1553 30.2752 21.4618C29.2281 21.7683 28.3024 22.3934 27.627 23.2502M28.25 30L27.627 23.2502M28.25 30H10.75M28.25 30V26.5C28.25 25.352 28.0295 24.2547 27.627 23.2502M27.627 23.2502C26.9771 21.6262 25.8556 20.2341 24.407 19.2535C22.9584 18.2729 21.2493 17.7488 19.5 17.7488C17.7507 17.7488 16.0416 18.2729 14.593 19.2535C13.1444 20.2341 12.0229 21.6262 11.373 23.2502M10.75 30H2V26.5C2.00008 25.4089 2.34009 24.345 2.97276 23.4561C3.60543 22.5672 4.49933 21.8975 5.53019 21.5401C6.56105 21.1827 7.67766 21.1553 8.72479 21.4618C9.77192 21.7683 10.6976 22.3934 11.373 23.2502M10.75 30C10.75 30 11.1297 25.8862 11.373 23.2502M10.75 30V26.5C10.75 25.352 10.9705 24.2547 11.373 23.2502M24.75 7.25C24.75 8.64239 24.1969 9.97775 23.2123 10.9623C22.2277 11.9469 20.8924 12.5 19.5 12.5C18.1076 12.5 16.7723 11.9469 15.7877 10.9623C14.8031 9.97775 14.25 8.64239 14.25 7.25C14.25 5.85761 14.8031 4.52226 15.7877 3.53769C16.7723 2.55312 18.1076 2 19.5 2C20.8924 2 22.2277 2.55312 23.2123 3.53769C24.1969 4.52226 24.75 5.85761 24.75 7.25ZM35.25 12.5C35.25 13.4283 34.8813 14.3185 34.2249 14.9749C33.5685 15.6313 32.6783 16 31.75 16C30.8217 16 29.9315 15.6313 29.2751 14.9749C28.6187 14.3185 28.25 13.4283 28.25 12.5C28.25 11.5717 28.6187 10.6815 29.2751 10.0251C29.9315 9.36875 30.8217 9 31.75 9C32.6783 9 33.5685 9.36875 34.2249 10.0251C34.8813 10.6815 35.25 11.5717 35.25 12.5ZM10.75 12.5C10.75 13.4283 10.3813 14.3185 9.72487 14.9749C9.0685 15.6313 8.17826 16 7.25 16C6.32174 16 5.4315 15.6313 4.77513 14.9749C4.11875 14.3185 3.75 13.4283 3.75 12.5C3.75 11.5717 4.11875 10.6815 4.77513 10.0251C5.4315 9.36875 6.32174 9 7.25 9C8.17826 9 9.0685 9.36875 9.72487 10.0251C10.3813 10.6815 10.75 11.5717 10.75 12.5Z" stroke="#2D3A47" stroke-width="3.5" stroke-linecap="round" stroke-linejoin="round"/>
</svg>
