<svg width="19" height="18" viewBox="0 0 19 18" fill="none" xmlns="http://www.w3.org/2000/svg">
<path d="M8.6 0C8.12261 0 7.66477 0.189642 7.32721 0.527208C6.98964 0.864773 6.8 1.32261 6.8 1.8V2.4813L6.1637 3.1176L6.8 2.4813L6.3176 1.9998C5.98005 1.66235 5.5223 1.47278 5.045 1.47278C4.5677 1.47278 4.10995 1.66235 3.7724 1.9998L2.4998 3.2724C2.16235 3.60995 1.97278 4.0677 1.97278 4.545C1.97278 5.0223 2.16235 5.48005 2.4998 5.8176L2.9813 6.3H2.3C1.82261 6.3 1.36477 6.48964 1.02721 6.82721C0.689642 7.16477 0.5 7.62261 0.5 8.1V9.9C0.5 10.3774 0.689642 10.8352 1.02721 11.1728C1.36477 11.5104 1.82261 11.7 2.3 11.7H2.9813L2.4998 12.1824C2.16235 12.5199 1.97278 12.9777 1.97278 13.455C1.97278 13.9323 2.16235 14.39 2.4998 14.7276L3.7724 16.0002C4.10995 16.3376 4.5677 16.5272 5.045 16.5272C5.5223 16.5272 5.98005 16.3376 6.3176 16.0002L6.8 15.5187V16.2C6.8 16.6774 6.98964 17.1352 7.32721 17.4728C7.66477 17.8104 8.12261 18 8.6 18H10.4C10.8774 18 11.3352 17.8104 11.6728 17.4728C12.0104 17.1352 12.2 16.6774 12.2 16.2V15.5187L12.6824 16.0002C13.0199 16.3376 13.4777 16.5272 13.955 16.5272C14.4323 16.5272 14.89 16.3376 15.2276 16.0002L16.5002 14.7276C16.6674 14.5604 16.8001 14.362 16.8906 14.1435C16.9811 13.9251 17.0277 13.691 17.0277 13.4545C17.0277 13.2181 16.9811 12.984 16.8906 12.7656C16.8001 12.5471 16.6674 12.3487 16.5002 12.1815L16.0187 11.7H16.7C17.1774 11.7 17.6352 11.5104 17.9728 11.1728C18.3104 10.8352 18.5 10.3774 18.5 9.9V8.1C18.5 7.62261 18.3104 7.16477 17.9728 6.82721C17.6352 6.48964 17.1774 6.3 16.7 6.3H16.0187L16.5002 5.8176C16.8376 5.48005 17.0272 5.0223 17.0272 4.545C17.0272 4.0677 16.8376 3.60995 16.5002 3.2724L15.2276 1.9998C14.89 1.66235 14.4323 1.47278 13.955 1.47278C13.4777 1.47278 13.0199 1.66235 12.6824 1.9998L12.2 2.4813V1.8C12.2 1.32261 12.0104 0.864773 11.6728 0.527208C11.3352 0.189642 10.8774 0 10.4 0H8.6ZM8.6 1.8H10.4V2.4813C10.4 4.0851 12.3386 4.8888 13.4726 3.7548L13.955 3.2724L15.2276 4.545L14.7452 5.0274C13.6112 6.1614 14.4149 8.1 16.0187 8.1H16.7V9.9H16.0187C14.4149 9.9 13.6121 11.8386 14.7452 12.9726L15.2276 13.455L13.955 14.7276L13.4726 14.2452C12.3386 13.1112 10.4 13.9149 10.4 15.5187V16.2H8.6V15.5187C8.6 13.9149 6.6614 13.1121 5.5274 14.2452L5.045 14.7276L3.7724 13.455L4.2548 12.9726C5.3888 11.8386 4.5851 9.9 2.9813 9.9H2.3V8.1H2.9813C4.5851 8.1 5.3888 6.1614 4.2548 5.0274L3.7724 4.545L5.045 3.2724L5.5274 3.7548C6.6614 4.8888 8.6 4.0851 8.6 2.4813V1.8ZM7.7 9C7.7 8.52261 7.88964 8.06477 8.22721 7.72721C8.56477 7.38964 9.02261 7.2 9.5 7.2C9.97739 7.2 10.4352 7.38964 10.7728 7.72721C11.1104 8.06477 11.3 8.52261 11.3 9C11.3 9.47739 11.1104 9.93523 10.7728 10.2728C10.4352 10.6104 9.97739 10.8 9.5 10.8C9.02261 10.8 8.56477 10.6104 8.22721 10.2728C7.88964 9.93523 7.7 9.47739 7.7 9ZM9.5 5.4C8.54522 5.4 7.62955 5.77928 6.95442 6.45442C6.27928 7.12955 5.9 8.04522 5.9 9C5.9 9.95478 6.27928 10.8705 6.95442 11.5456C7.62955 12.2207 8.54522 12.6 9.5 12.6C10.4548 12.6 11.3705 12.2207 12.0456 11.5456C12.7207 10.8705 13.1 9.95478 13.1 9C13.1 8.04522 12.7207 7.12955 12.0456 6.45442C11.3705 5.77928 10.4548 5.4 9.5 5.4Z" fill="#2D3A47"/>
</svg>
