<svg width="34" height="34" viewBox="0 0 34 34" fill="none" xmlns="http://www.w3.org/2000/svg">
<path id="Vector" d="M32 8.66667C32 12.35 25.2833 15.3333 17 15.3333C8.71667 15.3333 2 12.35 2 8.66667M32 8.66667C32 4.98333 25.2833 2 17 2C8.71667 2 2 4.98333 2 8.66667M32 8.66667V17M2 8.66667V17M32 17C32 20.6833 25.2833 23.6667 17 23.6667C8.71667 23.6667 2 20.6833 2 17M32 17V25.3333C32 29.0167 25.2833 32 17 32C8.71667 32 2 29.0167 2 25.3333V17" stroke="#2D3A47" stroke-width="3.5" stroke-linecap="round" stroke-linejoin="round"/>
</svg>
