<svg width="36" height="36" viewBox="0 0 36 36" fill="none" xmlns="http://www.w3.org/2000/svg">
<path d="M18.0003 19.7778C20.9458 19.7778 23.3337 17.3899 23.3337 14.4444C23.3337 11.4989 20.9458 9.11108 18.0003 9.11108C15.0548 9.11108 12.667 11.4989 12.667 14.4444C12.667 17.3899 15.0548 19.7778 18.0003 19.7778Z" stroke="#2D3A47" stroke-width="3.5" stroke-linecap="round" stroke-linejoin="round"/>
<path d="M26.8891 26.8889C26.8891 22.9601 22.9087 19.7778 18.0002 19.7778C13.0918 19.7778 9.11133 22.9601 9.11133 26.8889" stroke="#2D3A47" stroke-width="3.5" stroke-linecap="round" stroke-linejoin="round"/>
<path d="M28.6667 2H7.33333C4.38781 2 2 4.38781 2 7.33333V28.6667C2 31.6122 4.38781 34 7.33333 34H28.6667C31.6122 34 34 31.6122 34 28.6667V7.33333C34 4.38781 31.6122 2 28.6667 2Z" stroke="#2D3A47" stroke-width="3.5" stroke-linecap="round" stroke-linejoin="round"/>
</svg>
