<svg width="40" height="34" viewBox="0 0 40 34" fill="none" xmlns="http://www.w3.org/2000/svg">
<path d="M32 20C30.4087 20 28.8826 20.6321 27.7574 21.7574C26.6321 22.8826 26 24.4087 26 26C26 27.5913 26.6321 29.1174 27.7574 30.2426C28.8826 31.3679 30.4087 32 32 32C33.5913 32 35.1174 31.3679 36.2426 30.2426C37.3679 29.1174 38 27.5913 38 26C38 24.4087 37.3679 22.8826 36.2426 21.7574C35.1174 20.6321 33.5913 20 32 20ZM32 20V10C32 8.93913 31.5786 7.92172 30.8284 7.17157C30.0783 6.42143 29.0609 6 28 6H26M26 6V2L22 6M26 6H22M26 6V10L22 6M8 14C9.5913 14 11.1174 13.3679 12.2426 12.2426C13.3679 11.1174 14 9.5913 14 8C14 6.4087 13.3679 4.88258 12.2426 3.75736C11.1174 2.63214 9.5913 2 8 2C6.4087 2 4.88258 2.63214 3.75736 3.75736C2.63214 4.88258 2 6.4087 2 8C2 9.5913 2.63214 11.1174 3.75736 12.2426C4.88258 13.3679 6.4087 14 8 14ZM8 14V24C8 25.0609 8.42143 26.0783 9.17157 26.8284C9.92172 27.5786 10.9391 28 12 28H14M14 28V32L18 28M14 28H18M14 28V24L18 28" stroke="#2D3A47" stroke-width="3.5" stroke-linecap="round" stroke-linejoin="round"/>
</svg>
