<svg width="36" height="36" viewBox="0 0 36 36" fill="none" xmlns="http://www.w3.org/2000/svg">
<path d="M21.6 10.8H23.4C23.8774 10.8 24.3352 10.6104 24.6728 10.2728C25.0104 9.93523 25.2 9.47739 25.2 9C25.2 8.52261 25.0104 8.06477 24.6728 7.72721C24.3352 7.38964 23.8774 7.2 23.4 7.2H21.6C21.1226 7.2 20.6648 7.38964 20.3272 7.72721C19.9896 8.06477 19.8 8.52261 19.8 9C19.8 9.47739 19.9896 9.93523 20.3272 10.2728C20.6648 10.6104 21.1226 10.8 21.6 10.8ZM21.6 18H23.4C23.8774 18 24.3352 17.8104 24.6728 17.4728C25.0104 17.1352 25.2 16.6774 25.2 16.2C25.2 15.7226 25.0104 15.2648 24.6728 14.9272C24.3352 14.5896 23.8774 14.4 23.4 14.4H21.6C21.1226 14.4 20.6648 14.5896 20.3272 14.9272C19.9896 15.2648 19.8 15.7226 19.8 16.2C19.8 16.6774 19.9896 17.1352 20.3272 17.4728C20.6648 17.8104 21.1226 18 21.6 18ZM12.6 10.8H14.4C14.8774 10.8 15.3352 10.6104 15.6728 10.2728C16.0104 9.93523 16.2 9.47739 16.2 9C16.2 8.52261 16.0104 8.06477 15.6728 7.72721C15.3352 7.38964 14.8774 7.2 14.4 7.2H12.6C12.1226 7.2 11.6648 7.38964 11.3272 7.72721C10.9896 8.06477 10.8 8.52261 10.8 9C10.8 9.47739 10.9896 9.93523 11.3272 10.2728C11.6648 10.6104 12.1226 10.8 12.6 10.8ZM12.6 18H14.4C14.8774 18 15.3352 17.8104 15.6728 17.4728C16.0104 17.1352 16.2 16.6774 16.2 16.2C16.2 15.7226 16.0104 15.2648 15.6728 14.9272C15.3352 14.5896 14.8774 14.4 14.4 14.4H12.6C12.1226 14.4 11.6648 14.5896 11.3272 14.9272C10.9896 15.2648 10.8 15.7226 10.8 16.2C10.8 16.6774 10.9896 17.1352 11.3272 17.4728C11.6648 17.8104 12.1226 18 12.6 18ZM34.2 32.4H32.4V1.8C32.4 1.32261 32.2104 0.864773 31.8728 0.527208C31.5352 0.189642 31.0774 0 30.6 0H5.4C4.92261 0 4.46477 0.189642 4.12721 0.527208C3.78964 0.864773 3.6 1.32261 3.6 1.8V32.4H1.8C1.32261 32.4 0.864773 32.5896 0.527208 32.9272C0.189642 33.2648 0 33.7226 0 34.2C0 34.6774 0.189642 35.1352 0.527208 35.4728C0.864773 35.8104 1.32261 36 1.8 36H34.2C34.6774 36 35.1352 35.8104 35.4728 35.4728C35.8104 35.1352 36 34.6774 36 34.2C36 33.7226 35.8104 33.2648 35.4728 32.9272C35.1352 32.5896 34.6774 32.4 34.2 32.4ZM19.8 32.4H16.2V25.2H19.8V32.4ZM28.8 32.4H23.4V23.4C23.4 22.9226 23.2104 22.4648 22.8728 22.1272C22.5352 21.7896 22.0774 21.6 21.6 21.6H14.4C13.9226 21.6 13.4648 21.7896 13.1272 22.1272C12.7896 22.4648 12.6 22.9226 12.6 23.4V32.4H7.2V3.6H28.8V32.4Z" fill="#2D3A47"/>
</svg>
