<svg width="33" height="33" viewBox="0 0 33 33" fill="none" xmlns="http://www.w3.org/2000/svg">
<path d="M9.25 23.75H9.25181M14.6875 9.25H23.75H14.6875ZM23.75 16.5H14.6875H23.75ZM23.75 23.75H14.6875H23.75ZM5.625 31H27.375C28.3364 31 29.2584 30.6181 29.9383 29.9383C30.6181 29.2584 31 28.3364 31 27.375V5.625C31 4.66359 30.6181 3.74156 29.9383 3.06174C29.2584 2.38192 28.3364 2 27.375 2H5.625C4.66359 2 3.74156 2.38192 3.06174 3.06174C2.38192 3.74156 2 4.66359 2 5.625V27.375C2 28.3364 2.38192 29.2584 3.06174 29.9383C3.74156 30.6181 4.66359 31 5.625 31ZM9.25 9.25H9.25181H9.25ZM9.25 16.5H9.25181H9.25Z" stroke="#2D3A47" stroke-width="3.5" stroke-linecap="round" stroke-linejoin="round"/>
</svg>
