<svg width="31" height="31" viewBox="0 0 31 31" fill="none" xmlns="http://www.w3.org/2000/svg">
<path d="M8.87984 21.7914C8.75085 21.7914 8.61943 21.7792 8.49044 21.7549C7.9477 21.6502 7.46338 21.3217 7.16159 20.8568C6.01527 19.0801 5.43359 17.2718 5.43359 15.4806C5.43359 9.73195 10.1113 5.0542 15.86 5.0542C21.0853 5.0542 25.5318 8.96774 26.2011 14.1566C26.2936 14.8794 25.7825 15.5414 25.0597 15.6363C24.3344 15.7312 23.6749 15.2177 23.5799 14.4949C23.0786 10.6178 19.7589 7.69486 15.8575 7.69486C11.5643 7.69486 8.07182 11.1874 8.07182 15.4806C8.07182 16.5879 8.40282 17.7343 9.05751 18.8952L10.5348 17.8559C9.52723 15.4927 10.1795 12.7425 12.2701 10.9099L12.4186 10.7955C14.4192 9.49344 16.7751 9.34497 18.727 10.4037C20.6351 11.438 21.8203 13.4191 21.8203 15.5731C21.8203 16.3811 21.6548 17.1721 21.3384 17.9071L23.4169 19.3941C24.0107 19.8176 24.147 20.6426 23.7235 21.2365C23.3001 21.8303 22.475 21.9666 21.8812 21.5431L19.1237 19.5718C18.396 19.0509 18.1988 18.058 18.6759 17.3083C19.0044 16.7899 19.1797 16.1912 19.1797 15.5755C19.1797 14.3927 18.5225 13.3023 17.4687 12.7279C16.3905 12.1438 15.1103 12.2315 13.9397 12.9616C12.4332 14.3367 12.477 16.1158 13.2023 17.2816C13.6744 18.0409 13.4627 19.0363 12.7228 19.5499L10.0602 21.4239C9.7122 21.6673 9.29602 21.7963 8.87741 21.7963L8.87984 21.7914ZM11.2163 17.3789C11.2163 17.3789 11.209 17.3838 11.2065 17.3862L11.2163 17.3789Z" fill="url(#paint0_linear_4723_18484)"/>
<path d="M27.1063 30.5C26.9043 30.5 26.7023 30.4684 26.5027 30.4051L22.2485 29.0154C20.2503 29.9622 18.038 30.4611 15.8257 30.4611C7.5654 30.4635 0.845703 23.7438 0.845703 15.4835C0.845703 13.9746 1.07448 12.4802 1.52473 11.0443C1.67076 10.5819 1.83869 10.1219 2.02853 9.67407C2.31328 9.00234 3.08966 8.69082 3.76139 8.97557C4.43311 9.26033 4.74464 10.0367 4.45988 10.7084C4.30412 11.0759 4.16296 11.4556 4.04371 11.8353C3.67377 13.0157 3.48637 14.2423 3.48637 15.4835C3.48637 22.2884 9.02081 27.8229 15.8257 27.8229C17.7265 27.8229 19.6297 27.375 21.3285 26.5281C21.7885 26.2993 22.3093 26.2604 22.7936 26.4186L26.0817 27.4919L25.3029 24.6614C25.1447 24.0845 25.2664 23.4518 25.6339 22.9699C27.1842 20.9401 28.0555 18.516 28.1553 15.963C28.1845 15.2353 28.7954 14.6658 29.5255 14.695C30.2532 14.7242 30.8227 15.3375 30.7935 16.0652C30.6767 19.049 29.6934 21.8868 27.9411 24.2939L28.9755 28.0468C29.1653 28.7355 28.9609 29.4705 28.4449 29.9646C28.0774 30.3151 27.5979 30.5 27.1063 30.5Z" fill="url(#paint1_linear_4723_18484)"/>
<path d="M28.037 10.7692C27.5502 10.7692 27.0805 10.4991 26.8517 10.0318C25.1529 6.58556 21.8868 4.09336 18.1144 3.36565C14.5659 2.68419 10.9104 3.5847 8.08474 5.83839C7.51523 6.29351 6.68287 6.20102 6.23019 5.62908C5.77507 5.05957 5.86755 4.22722 6.43949 3.77453C9.86627 1.03651 14.3055 -0.0586917 18.6133 0.771231C23.1937 1.65226 27.1608 4.67747 29.2222 8.86359C29.5435 9.51828 29.2758 10.3093 28.6211 10.6305C28.4337 10.723 28.2341 10.7668 28.0394 10.7668L28.037 10.7692Z" fill="url(#paint2_linear_4723_18484)"/>
<defs>
<linearGradient id="paint0_linear_4723_18484" x1="22.8328" y1="22.1565" x2="8.64133" y2="7.96502" gradientUnits="userSpaceOnUse">
<stop stop-color="#F05523"/>
<stop offset="1" stop-color="#F9A619"/>
</linearGradient>
<linearGradient id="paint1_linear_4723_18484" x1="27.8292" y1="30.5803" x2="4.40878" y2="7.15996" gradientUnits="userSpaceOnUse">
<stop stop-color="#F05523"/>
<stop offset="1" stop-color="#F9A619"/>
</linearGradient>
<linearGradient id="paint2_linear_4723_18484" x1="25.1919" y1="14.162" x2="10.6159" y2="-0.414026" gradientUnits="userSpaceOnUse">
<stop stop-color="#F05523"/>
<stop offset="1" stop-color="#F9A619"/>
</linearGradient>
</defs>
</svg>
