<svg width="50" height="31" viewBox="0 0 50 31" fill="none" xmlns="http://www.w3.org/2000/svg">
<g clip-path="url(#clip0_4081_17272)">
<rect width="50" height="30" transform="translate(0 0.5)" fill="transparent"/>
<rect width="22" height="14" transform="translate(28 0.5)" fill="#D52B1E"/>
<path d="M30.8433 0.5C30.2449 0.5 29.671 0.726922 29.2478 1.13085C28.8246 1.53477 28.5869 2.08261 28.5869 2.65385V12.3462C28.5869 12.9174 28.8246 13.4652 29.2478 13.8692C29.671 14.2731 30.2449 14.5 30.8433 14.5H34.2279V0.5H30.8433ZM46.6382 0.5H43.2536V14.5H46.6382C47.2366 14.5 47.8106 14.2731 48.2337 13.8692C48.6569 13.4652 48.8946 12.9174 48.8946 12.3462V2.65385C48.8946 2.08261 48.6569 1.53477 48.2337 1.13085C47.8106 0.726922 47.2366 0.5 46.6382 0.5Z" fill="#D52B1E"/>
<path d="M34.2285 0.5H43.2542V14.5H34.2285V0.5Z" fill="white"/>
<path d="M39.0869 9.71468C39.7627 9.78953 40.3686 9.85684 41.0438 9.93061L40.8717 9.39107C40.8591 9.34464 40.8608 9.29571 40.8768 9.25021C40.8927 9.20471 40.9221 9.1646 40.9614 9.13476L42.924 7.60876L42.5178 7.42622C42.339 7.36538 42.3881 7.26899 42.4529 7.03745L42.7525 5.99499L41.6124 6.22491C41.5013 6.24107 41.4274 6.17376 41.4105 6.10914L41.2632 5.61861L40.3618 6.58461C40.2337 6.73968 39.9743 6.73968 40.0549 6.38214L40.4402 4.42538L39.9229 4.68115C39.778 4.75868 39.633 4.77161 39.5523 4.63322L38.8387 3.35922L38.1251 4.63322C38.0439 4.77161 37.8989 4.75868 37.754 4.68115L37.2372 4.42538L37.6225 6.38214C37.7037 6.73968 37.4437 6.73968 37.3156 6.58461L36.4142 5.61915L36.2675 6.10968C36.2506 6.1743 36.1762 6.24161 36.065 6.22545L34.925 5.99553L35.2245 7.03799C35.2883 7.26953 35.3379 7.36591 35.1591 7.42676L34.7529 7.6093L36.7154 9.1353C36.7933 9.19291 36.8328 9.29684 36.8046 9.39161L36.6325 9.93114L38.59 9.71522C38.6497 9.71522 38.6892 9.74699 38.6887 9.81268L38.568 11.8071H39.1072L38.9871 9.81268C38.9882 9.74645 39.0271 9.71468 39.0869 9.71468Z" fill="#D52B1E"/>
<path d="M2.146 27.9083C2.49197 28.3188 2.93776 28.6453 3.4459 28.8602C3.95403 29.0751 4.50964 29.1722 5.066 29.1433H6.816C7.58978 29.1413 8.33127 28.8516 8.87842 28.3373C9.42557 27.823 9.73389 27.1261 9.736 26.3988C9.73363 25.6717 9.42519 24.975 8.87807 24.4609C8.33095 23.9469 7.58961 23.6572 6.816 23.6552H4.92C4.14622 23.6532 3.40473 23.3634 2.85758 22.8492C2.31043 22.3349 2.00211 21.638 2 20.9107C2.00238 20.1836 2.31081 19.4869 2.85793 18.9728C3.40505 18.4588 4.14639 18.1691 4.92 18.1671H6.671C7.23073 18.1074 7.79724 18.1906 8.31092 18.4079C8.8246 18.6253 9.26646 18.9687 9.59 19.4021M13.612 29.1433V18.1662L19.45 29.1443L25.288 18.1681V29.1443M29.41 27.9083C29.756 28.3188 30.2018 28.6453 30.7099 28.8602C31.218 29.0751 31.7736 29.1722 32.33 29.1433H34.08C34.8538 29.1413 35.5953 28.8516 36.1424 28.3373C36.6896 27.823 36.9979 27.1261 37 26.3988C36.9976 25.6717 36.6892 24.975 36.1421 24.4609C35.5949 23.9469 34.8536 23.6572 34.08 23.6552H32.183C31.4092 23.6532 30.6677 23.3634 30.1206 22.8492C29.5734 22.3349 29.2651 21.638 29.263 20.9107C29.2654 20.1836 29.5738 19.4869 30.1209 18.9728C30.6681 18.4588 31.4094 18.1691 32.183 18.1671H33.935C34.4947 18.1074 35.0612 18.1906 35.5749 18.4079C36.0886 18.6253 36.5305 18.9687 36.854 19.4021" stroke="#2D3A47" stroke-width="2.5" stroke-linecap="round" stroke-linejoin="round"/>
</g>
<defs>
<clipPath id="clip0_4081_17272">
<rect width="50" height="30" fill="white" transform="translate(0 0.5)"/>
</clipPath>
</defs>
</svg>
