<svg width="50" height="31" viewBox="0 0 50 31" fill="none" xmlns="http://www.w3.org/2000/svg">
<g clip-path="url(#clip0_4081_17279)">
<rect width="50" height="30" transform="translate(0 0.5)" fill="transparent"/>
<path d="M49 0.148346H28V1.70001H49V0.148346Z" fill="#DC4437"/>
<path d="M49 3.26334H28V4.815H49V3.26334Z" fill="#DC4437"/>
<path d="M49 9.48169H28V11.0334H49V9.48169Z" fill="#DC4437"/>
<path d="M49 12.5967H28V14.1483H49V12.5967Z" fill="#DC4437"/>
<path d="M49 6.36667H28V7.91834H49V6.36667Z" fill="#DC4437"/>
<path d="M49 1.70001H28V3.25168H49V1.70001Z" fill="white"/>
<path d="M49 4.815H28V6.36667H49V4.815Z" fill="white"/>
<path d="M49 11.0334H28V12.585H49V11.0334Z" fill="white"/>
<path d="M49 7.93002H28V9.48169H49V7.93002Z" fill="white"/>
<path d="M36.1667 0.148346H28V7.93001H36.1667V0.148346Z" fill="#2A66B7"/>
<path d="M29.5752 0.61499L29.8435 1.18666L30.4502 1.27999L30.0069 1.73499L30.1119 2.36499L29.5752 2.06166L29.0385 2.36499L29.1435 1.73499L28.7002 1.27999L29.3069 1.18666L29.5752 0.61499Z" fill="white"/>
<path d="M31.9668 0.61499L32.2351 1.18666L32.8418 1.27999L32.4101 1.73499L32.5035 2.36499L31.9668 2.06166L31.4301 2.36499L31.5235 1.73499L31.0918 1.27999L31.6985 1.18666L31.9668 0.61499Z" fill="white"/>
<path d="M34.3574 0.61499L34.6258 1.18666L35.2324 1.27999L34.7891 1.73499L34.8941 2.36499L34.3574 2.06166L33.8208 2.36499L33.9258 1.73499L33.4824 1.27999L34.0891 1.18666L34.3574 0.61499Z" fill="white"/>
<path d="M30.7998 2.94833L31.0681 3.52L31.6748 3.61333L31.2431 4.06833L31.3365 4.69833L30.7998 4.395L30.2631 4.69833L30.3565 4.06833L29.9248 3.61333L30.5315 3.52L30.7998 2.94833Z" fill="white"/>
<path d="M33.1924 2.94833L33.4607 3.52L34.0674 3.61333L33.624 4.06833L33.729 4.69833L33.1924 4.395L32.6557 4.69833L32.7607 4.06833L32.3174 3.61333L32.924 3.52L33.1924 2.94833Z" fill="white"/>
<path d="M29.5752 5.42169L29.8435 5.99336L30.4502 6.08669L30.0069 6.53003L30.1119 7.17169L29.5752 6.86836L29.0385 7.17169L29.1435 6.53003L28.7002 6.08669L29.3069 5.99336L29.5752 5.42169Z" fill="white"/>
<path d="M31.9668 5.42169L32.2351 5.99336L32.8418 6.08669L32.4101 6.53003L32.5035 7.17169L31.9668 6.86836L31.4301 7.17169L31.5235 6.53003L31.0918 6.08669L31.6985 5.99336L31.9668 5.42169Z" fill="white"/>
<path d="M34.3574 5.42169L34.6258 5.99336L35.2324 6.08669L34.7891 6.53003L34.8941 7.17169L34.3574 6.86836L33.8208 7.17169L33.9258 6.53003L33.4824 6.08669L34.0891 5.99336L34.3574 5.42169Z" fill="white"/>
<path d="M2.146 27.9083C2.49197 28.3188 2.93776 28.6453 3.4459 28.8602C3.95403 29.0751 4.50964 29.1722 5.066 29.1433H6.816C7.58978 29.1413 8.33127 28.8516 8.87842 28.3373C9.42557 27.823 9.73389 27.1261 9.736 26.3988C9.73363 25.6717 9.42519 24.975 8.87807 24.4609C8.33095 23.9469 7.58961 23.6572 6.816 23.6552H4.92C4.14622 23.6532 3.40473 23.3634 2.85758 22.8492C2.31043 22.3349 2.00211 21.638 2 20.9107C2.00238 20.1836 2.31081 19.4869 2.85793 18.9728C3.40505 18.4588 4.14639 18.1691 4.92 18.1671H6.671C7.23073 18.1074 7.79724 18.1906 8.31092 18.4079C8.8246 18.6253 9.26646 18.9687 9.59 19.4021M13.612 29.1433V18.1662L19.45 29.1443L25.288 18.1681V29.1443M29.41 27.9083C29.756 28.3188 30.2018 28.6453 30.7099 28.8602C31.218 29.0751 31.7736 29.1722 32.33 29.1433H34.08C34.8538 29.1413 35.5953 28.8516 36.1424 28.3373C36.6896 27.823 36.9979 27.1261 37 26.3988C36.9976 25.6717 36.6892 24.975 36.1421 24.4609C35.5949 23.9469 34.8536 23.6572 34.08 23.6552H32.183C31.4092 23.6532 30.6677 23.3634 30.1206 22.8492C29.5734 22.3349 29.2651 21.638 29.263 20.9107C29.2654 20.1836 29.5738 19.4869 30.1209 18.9728C30.6681 18.4588 31.4094 18.1691 32.183 18.1671H33.935C34.4947 18.1074 35.0612 18.1906 35.5749 18.4079C36.0886 18.6253 36.5305 18.9687 36.854 19.4021" stroke="#2D3A47" stroke-width="2.5" stroke-linecap="round" stroke-linejoin="round"/>
</g>
<defs>
<clipPath id="clip0_4081_17279">
<rect width="50" height="30" fill="white" transform="translate(0 0.5)"/>
</clipPath>
</defs>
</svg>
