<svg width="51" height="50" viewBox="0 0 51 50" fill="none" xmlns="http://www.w3.org/2000/svg">
<circle cx="25.75" cy="25" r="25" fill="#FFEEE1"/>
<path d="M32.9444 34.4444H14.8889C14.5205 34.4444 14.1673 34.2981 13.9068 34.0377C13.6463 33.7772 13.5 33.4239 13.5 33.0556V16.3889C13.5 16.0205 13.6463 15.6673 13.9068 15.4068C14.1673 15.1463 14.5205 15 14.8889 15H32.9444M32.9444 34.4444H37.1111C37.4795 34.4444 37.8327 34.2981 38.0932 34.0377C38.3537 33.7772 38.5 33.4239 38.5 33.0556V16.3889C38.5 16.0205 38.3537 15.6673 38.0932 15.4068C37.8327 15.1463 37.4795 15 37.1111 15H32.9444M32.9444 34.4444V33.0556M32.9444 15V16.3889M32.9444 20.5569V20.5556M32.9444 24.7236V24.7222M32.9444 28.8903V28.8889M19.0556 24.7222H27.3889M19.0556 28.8889H23.2222" stroke="#F57B20" stroke-width="3" stroke-linecap="round" stroke-linejoin="round"/>
</svg>
