<svg width="51" height="51" viewBox="0 0 51 51" fill="none" xmlns="http://www.w3.org/2000/svg">
<circle cx="25.25" cy="25.5" r="25" fill="#FFEEE1"/>
<path d="M24.75 11.375C22.0552 11.375 19.421 12.1741 17.1804 13.6712C14.9397 15.1684 13.1934 17.2963 12.1621 19.7859C11.1309 22.2756 10.8611 25.0151 11.3868 27.6581C11.9125 30.3011 13.2102 32.7288 15.1157 34.6343C17.0212 36.5398 19.4489 37.8375 22.0919 38.3632C24.7349 38.8889 27.4744 38.6191 29.9641 37.5879C32.4537 36.5566 34.5816 34.8103 36.0788 32.5696C37.5759 30.329 38.375 27.6948 38.375 25C38.375 21.3864 36.9395 17.9209 34.3843 15.3657C31.8291 12.8105 28.3636 11.375 24.75 11.375ZM24.75 36.125C22.5497 36.125 20.3988 35.4725 18.5693 34.2501C16.7398 33.0277 15.3139 31.2902 14.4718 29.2573C13.6298 27.2245 13.4095 24.9877 13.8388 22.8296C14.268 20.6716 15.3276 18.6893 16.8834 17.1334C18.4393 15.5776 20.4216 14.518 22.5796 14.0888C24.7377 13.6595 26.9745 13.8798 29.0074 14.7218C31.0402 15.5639 32.7777 16.9898 34.0001 18.8193C35.2225 20.6488 35.875 22.7997 35.875 25C35.875 26.461 35.5872 27.9076 35.0282 29.2573C34.4691 30.6071 33.6496 31.8335 32.6166 32.8666C31.5835 33.8996 30.3571 34.7191 29.0074 35.2782C27.6576 35.8372 26.211 36.125 24.75 36.125Z" fill="#F57B20" stroke="#F57B20" stroke-width="0.25"/>
<path d="M23.629 26.9835C23.9267 27.2812 24.3305 27.4484 24.7516 27.4484C25.1726 27.4484 25.5764 27.2812 25.8741 26.9835C26.1718 26.6858 26.3391 26.282 26.3391 25.8609V19.1109C26.3391 18.6899 26.1718 18.2861 25.8741 17.9884C25.5764 17.6907 25.1726 17.5234 24.7516 17.5234C24.3305 17.5234 23.9267 17.6907 23.629 17.9884C23.3313 18.2861 23.1641 18.6899 23.1641 19.1109V25.8609C23.1641 26.282 23.3313 26.6858 23.629 26.9835Z" fill="#F57B20" stroke="#F57B20" stroke-width="0.25"/>
<path d="M24.6934 32.4648C25.6944 32.4648 26.5059 31.6534 26.5059 30.6523C26.5059 29.6513 25.6944 28.8398 24.6934 28.8398C23.6923 28.8398 22.8809 29.6513 22.8809 30.6523C22.8809 31.6534 23.6923 32.4648 24.6934 32.4648Z" fill="#F57B20" stroke="#F57B20" stroke-width="0.25"/>
</svg>
