<svg width="51" height="50" viewBox="0 0 51 50" fill="none" xmlns="http://www.w3.org/2000/svg">
<circle cx="25.75" cy="25" r="25" fill="#FFEEE1"/>
<path d="M15.75 20.6667V33.4444C15.75 34.1222 16.0192 34.7722 16.4985 35.2515C16.9778 35.7308 17.6278 36 18.3056 36H33.6389C34.3167 36 34.9667 35.7308 35.4459 35.2515C35.9252 34.7722 36.1944 34.1222 36.1944 33.4444V20.6667M15.75 20.6667V18.1111C15.75 17.4333 16.0192 16.7833 16.4985 16.3041C16.9778 15.8248 17.6278 15.5556 18.3056 15.5556H20.8611M15.75 20.6667H36.1944M36.1944 20.6667V18.1111C36.1944 17.4333 35.9252 16.7833 35.4459 16.3041C34.9667 15.8248 34.3167 15.5556 33.6389 15.5556H31.0833M20.8611 15.5556H31.0833M20.8611 15.5556V13M31.0833 15.5556V13" stroke="#F57B20" stroke-width="3" stroke-linecap="round" stroke-linejoin="round"/>
</svg>
