<svg width="64" height="64" viewBox="0 0 64 64" fill="none" xmlns="http://www.w3.org/2000/svg">
<circle cx="32" cy="32" r="32" fill="#F57B20"/>
<path d="M47.9319 19.8297C48.3319 20.2297 48.5565 20.7723 48.5565 21.338C48.5565 21.9036 48.3319 22.4462 47.9319 22.8462L26.5986 44.1796C26.1985 44.5795 25.656 44.8042 25.0903 44.8042C24.5247 44.8042 23.9821 44.5795 23.5821 44.1796L15.0487 35.6462C14.845 35.4494 14.6825 35.214 14.5707 34.9538C14.4589 34.6935 14.4 34.4135 14.3975 34.1303C14.3951 33.847 14.4491 33.5661 14.5563 33.3039C14.6636 33.0417 14.822 32.8036 15.0223 32.6032C15.2226 32.4029 15.4608 32.2445 15.723 32.1373C15.9852 32.03 16.2661 31.976 16.5493 31.9785C16.8326 31.9809 17.1125 32.0398 17.3728 32.1516C17.6331 32.2634 17.8685 32.4259 18.0653 32.6297L25.0903 39.6548L44.9154 19.8297C45.3155 19.4298 45.858 19.2051 46.4237 19.2051C46.9894 19.2051 47.5319 19.4298 47.9319 19.8297Z" fill="white"/>
</svg>
