<svg width="19" height="17" viewBox="0 0 19 17" fill="none" xmlns="http://www.w3.org/2000/svg">
<path d="M16.7 0H2.3C1.31 0 0.509 0.81 0.509 1.8L0.501342 15.5839C0.500847 16.4751 1.57829 16.9217 2.20845 16.2916L3.80711 14.6929C3.99464 14.5054 4.249 14.4 4.51421 14.4H16.7C17.69 14.4 18.5 13.59 18.5 12.6V1.8C18.5 0.81 17.69 0 16.7 0ZM16.7 11.6C16.7 12.1523 16.2523 12.6 15.7 12.6H3.76721C3.502 12.6 3.24764 12.7054 3.06011 12.8929L2.822 13.131C2.62937 13.3236 2.3 13.1872 2.3 12.9148V2.8C2.3 2.24772 2.74772 1.8 3.3 1.8H15.7C16.2523 1.8 16.7 2.24772 16.7 2.8V11.6ZM8.6 9.9C8.6 9.40294 9.00294 9 9.5 9C9.99706 9 10.4 9.40294 10.4 9.9C10.4 10.3971 9.99706 10.8 9.5 10.8C9.00294 10.8 8.6 10.3971 8.6 9.9ZM8.6 4.5C8.6 4.00294 9.00294 3.6 9.5 3.6C9.99706 3.6 10.4 4.00294 10.4 4.5V6.3C10.4 6.79706 9.99706 7.2 9.5 7.2C9.00294 7.2 8.6 6.79706 8.6 6.3V4.5Z" fill="#2D3A47"/>
</svg>
