<svg width="27" height="34" viewBox="0 0 27 34" fill="none" xmlns="http://www.w3.org/2000/svg">
<path d="M23.2677 23.8527C24.9138 23.8527 26.2482 22.5183 26.2482 20.8722C26.2482 19.226 24.9138 17.8916 23.2677 17.8916C21.6215 17.8916 20.2871 19.226 20.2871 20.8722C20.2871 22.5183 21.6215 23.8527 23.2677 23.8527Z" fill="url(#paint0_linear_1379_4720)"/>
<path d="M23.2867 31.1962C24.9328 31.1896 26.2619 29.8498 26.2552 28.2037C26.2486 26.5576 24.9089 25.2285 23.2628 25.2351C21.6167 25.2417 20.2876 26.5815 20.2942 28.2276C20.3008 29.8737 21.6406 31.2028 23.2867 31.1962Z" fill="url(#paint1_linear_1379_4720)"/>
<path d="M23.8871 0.0126358C23.8225 0.0185088 23.7608 0.0243818 23.6962 0.0302548C23.3379 0.0713659 22.9767 0.121286 22.6185 0.174144L22.1868 0.238747L22.0224 0.265175L21.9871 0.271048C18.064 1.06684 15.1363 2.82874 13.0337 5.6566C12.7841 5.9943 12.5522 6.33787 12.3437 6.67557C10.7345 9.29199 10.1325 12.158 9.59803 14.6864L9.44827 15.394C9.00192 17.5113 8.54088 19.699 7.51605 21.3669C7.40152 21.549 7.27525 21.7398 7.13724 21.9248C6.61748 22.6178 5.98025 23.2081 5.24319 23.6662C4.42391 24.1742 3.50772 24.5119 2.57391 24.7409C2.06002 24.8672 1.57256 24.8936 1.12328 25.2049C0.747403 25.4663 0.453752 25.8451 0.301054 26.2797C0.277562 26.3501 0.257006 26.4206 0.239387 26.494C0.201213 26.6555 0.183594 26.8229 0.183594 26.9874C0.183594 28.1825 1.15558 29.1516 2.35073 29.1516C2.42708 29.1516 2.5005 29.1486 2.57097 29.1398L2.61208 29.134L2.73542 29.1134L2.79415 29.1046L2.87343 29.0899C6.27684 28.3998 8.79636 26.8993 10.5788 24.5031C10.7932 24.2124 10.9899 23.9217 11.1661 23.6339C12.5845 21.3258 13.1248 18.7652 13.6475 16.2838L13.7972 15.5761C14.2788 13.2856 14.778 10.9188 15.9937 8.93961C16.1376 8.70469 16.2991 8.46683 16.4724 8.23191C17.9083 6.30263 19.9786 5.08398 22.8035 4.50549C22.9532 4.482 23.1001 4.46144 23.2469 4.44089C24.0104 4.3293 24.8297 4.34692 25.4581 3.8389C25.9544 3.4366 26.248 2.82287 26.248 2.18565V2.12105C26.248 1.47502 25.9485 0.858349 25.4405 0.456048C25.2144 0.276921 24.953 0.144779 24.677 0.0684294C24.4186 -0.00204673 24.1484 -0.0108562 23.8812 0.00969929L23.8871 0.0126358Z" fill="url(#paint2_linear_1379_4720)"/>
<path d="M23.8871 0.0126358C23.8225 0.0185088 23.7608 0.0243818 23.6962 0.0302548C23.3379 0.0713659 22.9767 0.121286 22.6185 0.174144L22.1868 0.238747L22.0224 0.265175L21.9871 0.271048C18.064 1.06684 15.1363 2.82874 13.0337 5.6566C12.7841 5.9943 12.5522 6.33787 12.3437 6.67557C10.7345 9.29199 10.1325 12.158 9.59803 14.6864L9.44827 15.394C9.00192 17.5113 8.54088 19.699 7.51605 21.3669C7.40152 21.549 7.27525 21.7398 7.13724 21.9248C6.61748 22.6178 5.98025 23.2081 5.24319 23.6662C4.42391 24.1742 3.50772 24.5119 2.57391 24.7409C2.06002 24.8672 1.57256 24.8936 1.12328 25.2049C0.747403 25.4663 0.453752 25.8451 0.301054 26.2797C0.277562 26.3501 0.257006 26.4206 0.239387 26.494C0.201213 26.6555 0.183594 26.8229 0.183594 26.9874C0.183594 28.1825 1.15558 29.1516 2.35073 29.1516C2.42708 29.1516 2.5005 29.1486 2.57097 29.1398L2.61208 29.134L2.73542 29.1134L2.79415 29.1046L2.87343 29.0899C6.27684 28.3998 8.79636 26.8993 10.5788 24.5031C10.7932 24.2124 10.9899 23.9217 11.1661 23.6339C12.5845 21.3258 13.1248 18.7652 13.6475 16.2838L13.7972 15.5761C14.2788 13.2856 14.778 10.9188 15.9937 8.93961C16.1376 8.70469 16.2991 8.46683 16.4724 8.23191C17.9083 6.30263 19.9786 5.08398 22.8035 4.50549C22.9532 4.482 23.1001 4.46144 23.2469 4.44089C24.0104 4.3293 24.8297 4.34692 25.4581 3.8389C25.9544 3.4366 26.248 2.82287 26.248 2.18565V2.12105C26.248 1.47502 25.9485 0.858349 25.4405 0.456048C25.2144 0.276921 24.953 0.144779 24.677 0.0684294C24.4186 -0.00204673 24.1484 -0.0108562 23.8812 0.00969929L23.8871 0.0126358Z" fill="url(#paint3_linear_1379_4720)"/>
<path d="M23.3193 6.67047L23.5249 6.63523C23.5689 6.62936 24.629 6.47372 24.7494 6.45904C24.8169 6.45023 24.8845 6.44436 24.9549 6.43848C24.9931 6.43848 25.0284 6.43555 25.0636 6.43555C25.3661 6.43555 25.6069 6.51483 25.8183 6.68221C26.0943 6.90245 26.2588 7.24309 26.2588 7.5984V7.69531C26.2588 7.8157 26.2411 7.93316 26.2059 8.04769C26.0972 8.39713 25.8271 8.67904 25.4865 8.80237C25.3279 8.85816 25.1605 8.87872 24.999 8.89927C24.9461 8.90515 24.8933 8.91102 24.8434 8.91983L24.1386 9.01967L23.7833 9.07253C21.8481 9.48364 21.6191 10.2413 20.7117 11.4599C20.5884 11.6302 20.4885 11.78 20.4034 11.9151C19.4989 13.3863 19.0819 15.3596 18.6444 17.4504L18.4946 18.1581C17.9396 20.7951 17.3083 23.7844 15.5728 26.6093C15.3467 26.9793 15.0912 27.3552 14.8152 27.7252C12.5012 30.8379 8.41068 32.7731 4.14394 33.6393L3.87966 33.6863L3.43037 33.7509C2.84307 33.8331 2.21759 33.9183 1.59212 33.9858C1.54513 33.9917 1.49815 33.9946 1.45117 33.9946C0.755215 33.9946 0.191406 33.4573 0.191406 32.7936V32.7613C0.191406 32.6732 0.200216 32.5881 0.217835 32.5029C0.323549 32.0242 0.719977 31.6484 1.20744 31.572C1.38656 31.5427 1.56863 31.525 1.75069 31.5074C1.87696 31.4957 2.00617 31.481 2.13244 31.4663C2.44664 31.4252 2.76085 31.3812 3.07505 31.3342L3.66529 31.2431C7.3183 30.5031 10.9302 28.8734 12.8654 26.2658C13.0973 25.9516 13.3117 25.6344 13.5026 25.3261C15.0149 22.8653 15.5992 20.0962 16.1131 17.653L16.2629 16.9453C16.7504 14.6372 17.2085 12.4613 18.3331 10.6347C18.4594 10.4292 18.6033 10.2178 18.7619 10.0034" fill="url(#paint4_linear_1379_4720)"/>
<path d="M1.44726 33.9946C0.751309 33.9946 0.1875 33.4572 0.1875 32.7936V32.7613C0.1875 32.6732 0.19631 32.588 0.213929 32.5029C0.319643 32.0242 0.716071 31.6484 1.20353 31.572C1.38266 31.5426 1.56472 31.525 1.74678 31.5074C1.87305 31.4957 2.00226 31.481 2.12853 31.4663C2.44274 31.4252 2.75694 31.3811 3.07115 31.3342L3.66138 31.2431C7.3144 30.5031 10.9263 28.8734 12.8615 26.2657C13.0934 25.9515 13.3078 25.6344 13.4987 25.3261C15.011 22.8653 15.5953 20.0962 16.1092 17.653L16.259 16.9453C16.7464 14.6372 17.2045 12.4612 18.3292 10.6347C18.4555 10.4292 18.5994 10.2178 18.758 10.0034C20.0441 8.27378 20.7019 7.50736 23.3213 6.67633L23.5268 6.64109C23.5709 6.63522 24.631 6.47958 24.7514 6.4649C24.8189 6.45609 24.8864 6.45022 24.9569 6.44434C24.9951 6.44434 25.0303 6.44141 25.0656 6.44141C25.368 6.44141 25.6088 6.52069 25.8202 6.68807C26.0963 6.90831 26.2607 7.24894 26.2607 7.60426V7.70117C26.2607 7.82156 26.2431 7.93902 26.2079 8.05355C26.0992 8.40299 25.8291 8.6849 25.4884 8.80823C25.3299 8.86402 25.1625 8.88458 25.001 8.90513C24.9481 8.91101 24.8952 8.91688 24.8453 8.92569L24.1406 9.02553L23.7852 9.07839C21.7708 9.79783 21.621 10.2471 20.7137 11.4658C20.5903 11.6361 20.4905 11.7858 20.4053 11.9209C19.5009 13.3921 19.0839 15.3654 18.6464 17.4562L18.4966 18.1639C17.9416 20.8009 17.3103 23.7903 15.5748 26.6152C15.3487 26.9852 15.0932 27.3611 14.8172 27.7311C12.5032 30.8438 8.41265 32.7789 4.14591 33.6452L3.88162 33.6922L3.43234 33.7568C2.84504 33.839 2.21956 33.9242 1.59409 33.9917C1.5471 33.9976 1.50012 34.0005 1.45313 34.0005L1.44726 33.9946Z" fill="url(#paint5_linear_1379_4720)"/>
<defs>
<linearGradient id="paint0_linear_1379_4720" x1="14.8487" y1="34.1804" x2="31.0523" y2="8.56233" gradientUnits="userSpaceOnUse">
<stop stop-color="#0177FF"/>
<stop offset="0.18" stop-color="#0177FF"/>
<stop offset="0.73" stop-color="#00B4FF"/>
<stop offset="1" stop-color="#00C7FF"/>
</linearGradient>
<linearGradient id="paint1_linear_1379_4720" x1="18.1722" y1="36.2807" x2="34.3758" y2="10.6597" gradientUnits="userSpaceOnUse">
<stop stop-color="#0177FF"/>
<stop offset="0.18" stop-color="#0177FF"/>
<stop offset="0.73" stop-color="#00B4FF"/>
<stop offset="1" stop-color="#00C7FF"/>
</linearGradient>
<linearGradient id="paint2_linear_1379_4720" x1="5.19914" y1="27.0344" x2="21.4028" y2="1.41335" gradientUnits="userSpaceOnUse">
<stop stop-color="#0177FF"/>
<stop offset="0.18" stop-color="#0177FF"/>
<stop offset="0.73" stop-color="#00B4FF"/>
<stop offset="1" stop-color="#00C7FF"/>
</linearGradient>
<linearGradient id="paint3_linear_1379_4720" x1="5.19914" y1="27.0344" x2="21.4028" y2="1.41335" gradientUnits="userSpaceOnUse">
<stop offset="0.02" stop-color="#0176FF"/>
<stop offset="0.085" stop-color="#0177FF"/>
<stop offset="0.18" stop-color="#0177FF"/>
<stop offset="0.73" stop-color="#00B4FF"/>
<stop offset="1" stop-color="#00C7FF"/>
</linearGradient>
<linearGradient id="paint4_linear_1379_4720" x1="7.98783" y1="29.3403" x2="24.2355" y2="3.65468" gradientUnits="userSpaceOnUse">
<stop stop-color="#0177FF"/>
<stop offset="0.18" stop-color="#0177FF"/>
<stop offset="0.265" stop-color="#0177FF"/>
<stop offset="0.73" stop-color="#00B4FF"/>
<stop offset="1" stop-color="#00C7FF"/>
</linearGradient>
<linearGradient id="paint5_linear_1379_4720" x1="7.98686" y1="29.3403" x2="24.2345" y2="3.65466" gradientUnits="userSpaceOnUse">
<stop stop-color="#0177FF"/>
<stop offset="0.18" stop-color="#0176FF"/>
<stop offset="0.73" stop-color="#00B4FF"/>
<stop offset="1" stop-color="#00C7FF"/>
</linearGradient>
</defs>
</svg>
