<svg width="19" height="18" viewBox="0 0 19 18" fill="none" xmlns="http://www.w3.org/2000/svg">
<path d="M7.15192 0.31945C7.24302 0.170969 7.39157 0.063435 7.56491 0.0204886C7.73825 -0.0224579 7.9222 0.00269891 8.0763 0.0904283L8.82516 0.517241L17.1482 5.12109C17.3035 5.20702 17.417 5.34889 17.4637 5.51548C17.5105 5.68208 17.4867 5.85975 17.3975 6.00941C17.3084 6.15908 17.1612 6.26848 16.9883 6.31354C16.8155 6.35861 16.6311 6.33565 16.4758 6.24971L15.7171 5.82984L14.3624 8.08362L14.3606 8.08188L12.0582 6.80578C11.9813 6.76166 11.8961 6.73272 11.8075 6.72063C11.7189 6.70855 11.6287 6.71357 11.5421 6.7354C11.4555 6.75722 11.3743 6.79543 11.3032 6.84778C11.2321 6.90014 11.1724 6.9656 11.1278 7.04036C11.0832 7.11512 11.0544 7.19769 11.0432 7.28327C11.032 7.36884 11.0385 7.45571 11.0625 7.53883C11.0864 7.62194 11.1272 7.69964 11.1826 7.7674C11.238 7.83516 11.3068 7.89164 11.385 7.93354L13.6856 9.20877L12.8206 10.6488L12.8188 10.648L9.03578 8.55034C8.95888 8.50621 8.87365 8.47727 8.78504 8.46519C8.69643 8.4531 8.60621 8.45812 8.51963 8.47995C8.43305 8.50178 8.35184 8.53998 8.28071 8.59233C8.20959 8.64469 8.14998 8.71015 8.10535 8.78491C8.06072 8.85968 8.03195 8.94225 8.02073 9.02782C8.00951 9.11339 8.01606 9.20026 8.03999 9.28338C8.06392 9.36649 8.10476 9.44419 8.16013 9.51195C8.2155 9.57971 8.2843 9.63619 8.36252 9.67809L12.1429 11.7749L11.3463 13.1013L11.3445 13.0995L8.99258 11.7957C8.8376 11.7127 8.65497 11.6917 8.48412 11.7374C8.31328 11.7831 8.16794 11.8918 8.07952 12.0399C7.9911 12.188 7.96668 12.3637 8.01155 12.529C8.05642 12.6943 8.16697 12.836 8.31932 12.9234L10.6694 14.2264L9.66134 15.9024C9.07963 16.8666 8.12538 17.5694 7.00737 17.8572C5.88935 18.1449 4.6986 17.9942 3.69562 17.4379C3.19948 17.1636 2.76441 16.7976 2.41539 16.3609C2.06636 15.9242 1.81024 15.4253 1.66172 14.893C1.5132 14.3606 1.47521 13.8052 1.54992 13.2587C1.62463 12.7121 1.81057 12.1852 2.09708 11.7081L8.1474 1.64239L8.142 1.63979L7.38954 1.21124C7.31314 1.16777 7.24638 1.1102 7.19308 1.04183C7.13978 0.97347 7.10099 0.895649 7.07892 0.812823C7.05685 0.729997 7.05194 0.64379 7.06446 0.559133C7.07699 0.474476 7.10671 0.393028 7.15192 0.31945Z" fill="#0AB0C0"/>
</svg>
