<svg width="23" height="5" viewBox="0 0 23 5" fill="none" xmlns="http://www.w3.org/2000/svg">
<path fill-rule="evenodd" clip-rule="evenodd" d="M3.12677 0C2.46792 0 1.83606 0.257539 1.37018 0.715962C0.904305 1.17438 0.642578 1.79614 0.642578 2.44445C0.642578 3.09275 0.904305 3.71451 1.37018 4.17293C1.83606 4.63135 2.46792 4.88889 3.12677 4.88889C3.78562 4.88889 4.41748 4.63135 4.88336 4.17293C5.34923 3.71451 5.61096 3.09275 5.61096 2.44445C5.61096 1.79614 5.34923 1.17438 4.88336 0.715962C4.41748 0.257539 3.78562 0 3.12677 0ZM11.8214 0C11.1626 0 10.5307 0.257539 10.0649 0.715962C9.59898 1.17438 9.33725 1.79614 9.33725 2.44445C9.33725 3.09275 9.59898 3.71451 10.0649 4.17293C10.5307 4.63135 11.1626 4.88889 11.8214 4.88889C12.4803 4.88889 13.1122 4.63135 13.578 4.17293C14.0439 3.71451 14.3056 3.09275 14.3056 2.44445C14.3056 1.79614 14.0439 1.17438 13.578 0.715962C13.1122 0.257539 12.4803 0 11.8214 0ZM20.5161 0C19.8573 0 19.2254 0.257539 18.7595 0.715962C18.2936 1.17438 18.0319 1.79614 18.0319 2.44445C18.0319 3.09275 18.2936 3.71451 18.7595 4.17293C19.2254 4.63135 19.8573 4.88889 20.5161 4.88889C21.175 4.88889 21.8068 4.63135 22.2727 4.17293C22.7386 3.71451 23.0003 3.09275 23.0003 2.44445C23.0003 1.79614 22.7386 1.17438 22.2727 0.715962C21.8068 0.257539 21.175 0 20.5161 0Z" fill="#2D3A47"/>
</svg>
