<svg fill="none" version="1.1" viewBox="0 0 24 24" xmlns="http://www.w3.org/2000/svg">
 <path d="m3.6293 19.023c-0.17669-0.065773-0.25335-0.11973-0.40342-0.28392-0.17251-0.18875-0.2249-0.33811-0.22582-0.64381-6.555e-4 -0.21691 0.0064-0.26088 0.060085-0.37449 0.033456-0.0708 1.8798-2.8936 4.1031-6.2728 2.9339-4.4594 4.0739-6.174 4.1576-6.2533 0.22313-0.21121 0.54185-0.3106 0.82634-0.25769 0.19832 0.036883 0.40421 0.1439 0.53467 0.27791 0.13976 0.14357 8.1783 12.353 8.2489 12.529 0.19157 0.47747-0.02702 1.0237-0.49915 1.2473l-0.15855 0.0751-16.501 0.0094z" fill="currentColor" stroke-width=".023406"/>
</svg>
