<svg width="36" height="36" viewBox="0 0 36 36" fill="none" xmlns="http://www.w3.org/2000/svg">
<path d="M10.106 0.313376C7.76903 -0.279862 5.31968 -0.0281855 3.40064 1.04593C1.44565 2.13803 0.0749143 4.07504 0.00750088 6.66596C-0.0958663 10.7153 0.84118 16.1488 4.5624 22.5261C8.23643 28.8248 12.2925 32.5999 15.6586 34.8425C17.7844 36.2604 20.1327 36.2986 22.1393 35.3751C24.1168 34.465 25.7212 32.6471 26.5549 30.3932C26.7624 29.8327 26.8457 29.2338 26.7992 28.6378C26.7526 28.0419 26.5773 27.4632 26.2852 26.9417L24.1415 23.1148C23.4822 21.9381 22.4214 21.0379 21.1532 20.5787C19.8849 20.1195 18.4937 20.132 17.2339 20.6138L15.7373 21.1868C15.0115 21.4632 14.3441 21.3351 13.9666 20.9621C12.697 19.715 11.7891 18.0229 11.3779 16.1982C11.2476 15.623 11.5127 14.9443 12.1464 14.4657L13.4969 13.4455C14.5887 12.6216 15.3425 11.4277 15.6168 10.0877C15.891 8.74775 15.667 7.35371 14.9868 6.16711L12.8026 2.35825C12.5132 1.85398 12.1254 1.41308 11.6621 1.06178C11.1988 0.710485 10.6697 0.455967 10.106 0.313376ZM2.25461 6.72439C2.29956 4.98512 3.18043 3.74247 4.49723 3.00542C5.85 2.24814 7.69712 2.01669 9.55324 2.48858C10.1038 2.6279 10.5712 2.98295 10.8543 3.47506L13.0363 7.28392C13.4444 7.99559 13.5789 8.83168 13.4147 9.63545C13.2505 10.4392 12.7987 11.1555 12.1442 11.6501L10.7936 12.6703C9.62515 13.5511 8.81619 15.0612 9.18471 16.6903C9.68357 18.897 10.7869 20.9891 12.3913 22.5643C13.5643 23.7148 15.2362 23.7822 16.5395 23.2834L18.0361 22.7104C18.7922 22.4209 19.6273 22.4133 20.3885 22.689C21.1498 22.9646 21.7864 23.505 22.182 24.2114L24.3235 28.0383C24.5932 28.5191 24.6381 29.0944 24.4471 29.6112C23.7954 31.3752 22.5708 32.6988 21.2 33.3302C19.8585 33.9482 18.3417 33.9302 16.9058 32.9707C13.825 30.9168 10.0072 27.3933 6.50166 21.3913C2.99392 15.3713 2.16248 10.3512 2.25686 6.72664L2.25461 6.72439Z" fill="white"/>
<path d="M22.3868 14.6568C22.3868 14.9547 22.2684 15.2405 22.0577 15.4512C21.847 15.6619 21.5612 15.7803 21.2632 15.7803C20.9652 15.7803 20.6794 15.6619 20.4687 15.4512C20.258 15.2405 20.1396 14.9547 20.1396 14.6568C20.1396 14.3588 20.258 14.073 20.4687 13.8623C20.6794 13.6516 20.9652 13.5332 21.2632 13.5332C21.5612 13.5332 21.847 13.6516 22.0577 13.8623C22.2684 14.073 22.3868 14.3588 22.3868 14.6568Z" fill="white"/>
<path d="M24.6338 12.4087C24.6338 12.7067 24.5155 12.9925 24.3048 13.2032C24.094 13.4139 23.8083 13.5323 23.5103 13.5323C23.2123 13.5323 22.9265 13.4139 22.7158 13.2032C22.5051 12.9925 22.3867 12.7067 22.3867 12.4087C22.3867 12.1107 22.5051 11.8249 22.7158 11.6142C22.9265 11.4035 23.2123 11.2852 23.5103 11.2852C23.8083 11.2852 24.094 11.4035 24.3048 11.6142C24.5155 11.8249 24.6338 12.1107 24.6338 12.4087Z" fill="white"/>
<path d="M26.8809 10.1626C26.8809 10.4606 26.7625 10.7464 26.5518 10.9571C26.3411 11.1678 26.0553 11.2862 25.7573 11.2862C25.4594 11.2862 25.1736 11.1678 24.9629 10.9571C24.7522 10.7464 24.6338 10.4606 24.6338 10.1626C24.6338 9.86463 24.7522 9.57885 24.9629 9.36814C25.1736 9.15744 25.4594 9.03906 25.7573 9.03906C26.0553 9.03906 26.3411 9.15744 26.5518 9.36814C26.7625 9.57885 26.8809 9.86463 26.8809 10.1626Z" fill="white"/>
<path d="M34.7458 13.5335C34.4479 13.5335 34.1621 13.4151 33.9514 13.2044C33.7407 12.9937 33.6223 12.7079 33.6223 12.4099V3.8866L28.8 8.71116C28.6957 8.81562 28.5718 8.89851 28.4354 8.95511C28.2991 9.0117 28.1529 9.04088 28.0053 9.04098C27.8577 9.04109 27.7115 9.01211 27.575 8.95571C27.4386 8.89931 27.3146 8.8166 27.2101 8.71228C27.1057 8.60796 27.0228 8.48409 26.9662 8.34774C26.9096 8.21139 26.8804 8.06523 26.8803 7.9176C26.8802 7.76997 26.9092 7.62376 26.9656 7.48733C27.022 7.3509 27.1047 7.22691 27.209 7.12245L32.0336 2.29789H23.5103C23.2123 2.29789 22.9265 2.17952 22.7158 1.96881C22.5051 1.7581 22.3867 1.47232 22.3867 1.17434C22.3867 0.876352 22.5051 0.590571 22.7158 0.379864C22.9265 0.169156 23.2123 0.0507812 23.5103 0.0507812H34.7458C35.0438 0.0507812 35.3296 0.169156 35.5403 0.379864C35.751 0.590571 35.8694 0.876352 35.8694 1.17434V12.4099C35.8694 12.7079 35.751 12.9937 35.5403 13.2044C35.3296 13.4151 35.0438 13.5335 34.7458 13.5335Z" fill="white"/>
</svg>
