<svg version="1.1" viewBox="0 0 24 24" xmlns="http://www.w3.org/2000/svg">
 <path d="m11.976 11.608h0.47622v0.47621h-0.47622z" fill="none" stroke-width=".019843"/>
 <path d="m8.5252 19.614c-0.58624-0.18744-1.0639-0.6378-1.2904-1.2165-0.04676-0.1195-0.14785-0.77956-0.23356-1.525-0.08312-0.72287-0.17337-1.4944-0.20056-1.7144-0.02719-0.22001-0.09497-0.80504-0.1506-1.3001-0.055638-0.49502-0.1242-1.0913-0.15236-1.3251-0.11124-0.92334-0.15033-1.2592-0.2474-2.1251-0.055492-0.49502-0.12225-1.0688-0.14836-1.275-0.02611-0.20621-0.061529-0.53251-0.078715-0.72504-0.046247-0.51812-0.049904-0.52502-0.27819-0.52502-0.4557 0-0.74508-0.25536-0.74508-0.6575 0-0.20808 0.025188-0.27149 0.17113-0.43077l0.17113-0.18677 4.208-0.028152 0.0011-0.13593c0.0016-0.20618 0.21535-0.76906 0.3865-1.0178 0.31932-0.46411 0.74403-0.79328 1.2572-0.97444 0.44504-0.1571 1.1031-0.16329 1.556-0.014643 0.83804 0.2751 1.488 1.0045 1.6561 1.8585l0.05658 0.28751h4.0724l0.16918 0.11401c0.20383 0.13736 0.29398 0.30132 0.29472 0.53601 0.0012 0.38428-0.31462 0.65002-0.77252 0.65002-0.22515 0-0.22662 0.00112-0.22662 0.17296 0 0.095127-0.02243 0.33701-0.04983 0.53752-0.02741 0.20051-0.09517 0.76955-0.15058 1.2646-0.05541 0.49502-0.12273 1.0801-0.1496 1.3001-0.02687 0.22001-0.09437 0.80504-0.15001 1.3001-0.05564 0.49502-0.12347 1.0801-0.15072 1.3001-0.02726 0.22001-0.13999 1.1988-0.25052 2.175-0.11052 0.97626-0.22275 1.9101-0.2494 2.0751-0.10565 0.65427-0.54435 1.2345-1.1495 1.5202l-0.27502 0.12986-3.3502 0.0099c-2.6053 0.0077-3.3947-0.0043-3.5503-0.0541zm6.6622-1.2791c0.35148-0.15954 0.38228-0.27548 0.61158-2.3017 0.11047-0.97626 0.24622-2.1688 0.30166-2.6501 0.05544-0.48126 0.12391-1.0775 0.15217-1.3251 0.02825-0.2475 0.09563-0.83255 0.14974-1.3001 0.0541-0.46751 0.1437-1.2551 0.19911-1.7501 0.0554-0.49502 0.11204-0.95064 0.12584-1.0125l0.0251-0.1125h-9.5039l0.0255 0.1875c0.01403 0.10313 0.07081 0.59252 0.12618 1.0876 0.09673 0.86482 0.1353 1.1963 0.24718 2.1251 0.05395 0.44779 0.09898 0.83969 0.5028 4.3751 0.13821 1.21 0.27671 2.2633 0.30778 2.3407 0.06075 0.15116 0.3043 0.35909 0.46686 0.39857 0.055 0.01336 1.4388 0.02641 3.0752 0.029 2.8343 0.0045 2.9852 1.59e-4 3.187-0.09145zm-2.0586-11.89c-0.04709-0.19908-0.2807-0.51828-0.47526-0.64939-0.58321-0.39302-1.3833-0.18341-1.7078 0.44739-0.18198 0.35379-0.2266 0.3395 1.0601 0.3395h1.1555z" fill="currentColor" stroke-width=".050002"/>
 <path d="m10.371 16.462c-0.08484-0.03694-0.20297-0.1291-0.26251-0.20479-0.10826-0.13762-0.10827-0.13781-0.10827-3.1078 0-2.6748 0.0082-2.9826 0.08243-3.0959 0.23098-0.35251 0.84567-0.35807 1.0896-0.0099 0.06861 0.09796 0.07804 0.47425 0.07804 3.116v3.0046l-0.13751 0.13118c-0.24233 0.23117-0.47384 0.28313-0.74179 0.16647z" fill="currentColor" stroke-width=".050002"/>
 <path d="m13.034 16.431c-0.34121-0.18482-0.33366-0.10997-0.33345-3.3083 1.81e-4 -2.7526 4e-3 -2.8705 0.0978-3.0242 0.25176-0.41289 0.87976-0.42015 1.1203-0.01294 0.07321 0.12394 0.0817 0.44406 0.08105 3.0558-5.6e-4 2.2159-0.01559 2.9463-0.0625 3.0375-0.16034 0.31197-0.57765 0.42847-0.90321 0.25212z" fill="currentColor" stroke-width=".050002"/>
</svg>
