<svg width="196" height="150" viewBox="0 0 196 150" fill="none" xmlns="http://www.w3.org/2000/svg">
<g clip-path="url(#clip0_2663_7232)">
<path d="M131.554 42.2361C135.737 30.9888 145.621 21.2703 157.565 20.1143C150.384 31.0106 147.289 44.0957 148.827 57.0546C149.438 62.0501 150.638 67.5427 147.945 71.7944C146.27 74.44 143.317 76.0686 140.273 76.8036C137.229 77.5386 134.057 77.4817 130.926 77.4205L130.225 77.7667C128.023 65.9703 127.371 53.4835 131.554 42.2361Z" fill="#CFD6DC"/>
<path d="M157.623 20.3586C149.481 26.0471 143.338 34.1565 140.066 43.5351C139.378 45.5487 138.855 47.6511 138.824 49.7892C138.811 51.8736 139.356 53.9235 140.403 55.726C141.345 57.4262 142.506 59.0562 143.018 60.9559C143.558 62.9583 143.118 64.9839 142.015 66.7139C140.664 68.8306 138.634 70.3359 136.597 71.7389C134.336 73.2967 131.963 74.879 130.579 77.3262C130.411 77.6227 129.961 77.3453 130.128 77.0492C132.536 72.7914 137.588 71.2449 140.678 67.6282C142.12 65.9406 143.063 63.8082 142.617 61.5611C142.227 59.5961 141.032 57.9141 140.063 56.2008C139.045 54.4019 138.381 52.5349 138.303 50.4535C138.224 48.3244 138.666 46.197 139.3 44.1747C140.772 39.5997 142.954 35.2845 145.767 31.3873C148.952 26.9217 152.878 23.0339 157.374 19.892C157.652 19.6977 157.9 20.1656 157.623 20.3586Z" fill="white"/>
<path d="M140.942 40.4536C139.443 39.6912 138.264 38.4207 137.615 36.8691C136.966 35.3175 136.89 33.5858 137.4 31.9833C137.505 31.6594 138.013 31.8063 137.909 32.1306C137.431 33.622 137.502 35.2351 138.109 36.6787C138.716 38.1223 139.819 39.3014 141.219 40.0031C141.523 40.1559 141.245 40.6056 140.942 40.4536Z" fill="white"/>
<path d="M139.812 54.9271C143.09 53.8917 145.857 51.6587 147.562 48.6734C147.731 48.3775 148.181 48.6549 148.013 48.9504C146.233 52.0537 143.348 54.3716 139.934 55.4415C139.609 55.5433 139.488 55.0283 139.812 54.9271Z" fill="white"/>
<path d="M149.314 27.523C149.832 27.9389 150.446 28.2195 151.1 28.3395C151.754 28.4596 152.427 28.4154 153.059 28.2109C153.383 28.1051 153.504 28.6203 153.182 28.7254C152.482 28.9481 151.739 28.996 151.016 28.8649C150.293 28.7339 149.614 28.4278 149.037 27.9736C148.979 27.9353 148.938 27.8764 148.922 27.8089C148.905 27.7413 148.916 27.6701 148.95 27.6098C148.987 27.5503 149.046 27.5079 149.114 27.4916C149.182 27.4754 149.254 27.4867 149.314 27.523Z" fill="white"/>
<path d="M186.354 48.7842C186.154 48.8561 185.953 48.9279 185.752 49.004C183.062 49.9838 180.456 51.1805 177.96 52.5822C177.766 52.6875 177.57 52.7972 177.379 52.9079C171.401 56.3491 166.115 60.8701 161.788 66.2411C160.069 68.38 158.514 70.6465 157.138 73.0212C155.238 76.3009 153.439 80.008 150.649 82.3981C150.36 82.6507 150.057 82.8853 149.739 83.1003L130.701 78.5952C130.662 78.5633 130.623 78.5356 130.585 78.5036L129.816 78.3585C129.879 78.231 129.946 78.1002 130.009 77.9728C130.045 77.8987 130.085 77.8257 130.121 77.7516C130.146 77.7025 130.171 77.6535 130.191 77.6078C130.2 77.5914 130.208 77.5751 130.216 77.5631C130.236 77.5173 130.259 77.477 130.278 77.4356C130.653 76.7033 131.034 75.9724 131.421 75.2428C131.422 75.2384 131.422 75.2384 131.427 75.2351C134.388 69.6836 137.838 64.3304 141.99 59.6711C142.115 59.531 142.241 59.3864 142.375 59.2483C144.258 57.1585 146.31 55.2261 148.508 53.4705C149.715 52.513 150.969 51.6173 152.267 50.7867C155.623 48.647 159.295 47.0485 163.149 46.05C170.83 44.0605 179.063 44.5498 185.839 48.4789C186.013 48.5796 186.182 48.6792 186.354 48.7842Z" fill="#CFD6DC"/>
<path d="M186.255 49.015C176.329 48.6546 166.541 51.431 158.283 56.9498C156.521 58.1429 154.837 59.5065 153.526 61.1956C152.26 62.8517 151.461 64.8166 151.212 66.886C150.941 68.8108 150.886 70.8111 150.151 72.6365C149.377 74.5605 147.806 75.9128 145.883 76.6296C143.531 77.5067 141.003 77.4862 138.533 77.3803C135.789 77.2627 132.941 77.0971 130.363 78.218C130.051 78.3538 129.859 77.8612 130.17 77.7256C134.656 75.7753 139.621 77.5822 144.266 76.5552C146.433 76.076 148.47 74.9408 149.467 72.8781C150.338 71.0744 150.397 69.0117 150.654 67.0604C150.925 65.0114 151.518 63.1206 152.71 61.4121C153.928 59.6643 155.562 58.232 157.286 56.9991C161.216 54.2324 165.556 52.1009 170.148 50.6825C175.38 49.0347 180.855 48.294 186.337 48.4924C186.676 48.5048 186.592 49.0274 186.255 49.015Z" fill="white"/>
<path d="M160.838 55.0162C160.1 53.505 159.923 51.7806 160.34 50.1511C160.756 48.5217 161.738 47.0932 163.11 46.1208C163.388 45.925 163.705 46.3483 163.427 46.5444C162.147 47.4475 161.233 48.7782 160.848 50.2964C160.464 51.8145 160.635 53.4201 161.33 54.8233C161.481 55.1284 160.988 55.3196 160.838 55.0162Z" fill="white"/>
<path d="M151.22 65.8918C154.461 67.0388 158.016 66.9221 161.174 65.5651C161.487 65.4304 161.68 65.923 161.367 66.0575C158.078 67.4636 154.379 67.5774 151.009 66.3764C150.688 66.2617 150.901 65.7777 151.22 65.8918Z" fill="white"/>
<path d="M175.307 49.732C175.471 50.3763 175.792 50.9698 176.241 51.4592C176.691 51.9487 177.255 52.3188 177.884 52.5364C178.206 52.6469 177.992 53.1308 177.672 53.021C176.979 52.7774 176.356 52.3679 175.858 51.8282C175.36 51.2885 175.002 50.6351 174.815 49.925C174.791 49.8595 174.794 49.7877 174.822 49.724C174.85 49.6604 174.901 49.6097 174.964 49.5823C175.03 49.5571 175.102 49.5586 175.166 49.5867C175.231 49.6147 175.281 49.6669 175.307 49.732Z" fill="white"/>
<path d="M21.241 145.332C10.3416 140.311 1.39722 129.722 1.14648 117.725C11.4694 125.708 24.2835 129.783 37.3215 129.228C42.3489 128.995 47.9164 128.213 51.9526 131.22C54.4641 133.09 55.8652 136.158 56.3682 139.249C56.8712 142.34 56.5749 145.498 56.2775 148.615L56.5697 149.341C44.6407 150.646 32.1403 150.353 21.241 145.332Z" fill="#CFD6DC"/>
<path d="M1.39573 117.686C6.45306 126.234 14.0755 132.972 23.1802 136.942C25.136 137.781 27.193 138.462 29.3227 138.653C31.4001 138.824 33.4853 138.435 35.3616 137.528C37.1282 136.716 38.8412 135.682 40.7742 135.315C42.8116 134.927 44.7982 135.519 46.4399 136.75C48.4486 138.256 49.7963 140.395 51.0415 142.531C52.4241 144.904 53.8226 147.39 56.1584 148.954C56.4414 149.144 56.1307 149.572 55.8481 149.383C51.7843 146.661 50.6237 141.506 47.2507 138.152C45.6769 136.586 43.6217 135.485 41.3473 135.76C39.3585 136.001 37.591 137.066 35.8095 137.903C33.9388 138.781 32.027 139.303 29.9457 139.223C27.8166 139.141 25.7288 138.54 23.7601 137.755C19.3093 135.942 15.1712 133.44 11.4976 130.341C7.28525 126.828 3.70497 122.619 0.911627 117.899C0.738846 117.607 1.22409 117.395 1.39573 117.686Z" fill="white"/>
<path d="M20.1736 135.836C19.3002 137.273 17.9443 138.353 16.3481 138.883C14.752 139.413 13.0195 139.358 11.46 138.728C11.1449 138.6 11.3298 138.104 11.6453 138.233C13.0964 138.822 14.7102 138.873 16.1956 138.376C17.6809 137.88 18.9399 136.869 19.7453 135.526C19.9207 135.234 20.348 135.546 20.1736 135.836Z" fill="white"/>
<path d="M34.5197 138.057C33.7348 134.71 31.7172 131.781 28.8692 129.856C28.5868 129.665 28.8974 129.237 29.1794 129.428C32.1394 131.437 34.2328 134.489 35.0419 137.973C35.1188 138.306 34.5961 138.387 34.5197 138.057Z" fill="white"/>
<path d="M7.91108 126.511C8.36491 126.025 8.69102 125.435 8.86011 124.792C9.02921 124.149 9.036 123.474 8.87987 122.828C8.7988 122.497 9.32159 122.416 9.40212 122.745C9.5713 123.459 9.5629 124.205 9.37765 124.915C9.1924 125.626 8.83594 126.28 8.33941 126.821C8.29689 126.876 8.23504 126.913 8.16645 126.924C8.09785 126.935 8.02766 126.919 7.97013 126.88C7.91362 126.839 7.87572 126.777 7.86466 126.708C7.85361 126.639 7.87029 126.568 7.91108 126.511Z" fill="white"/>
<path d="M31.9097 91.1816C31.9662 91.3869 32.0227 91.5922 32.0834 91.7991C32.8573 94.5551 33.8537 97.2436 35.063 99.8383C35.1533 100.04 35.2479 100.244 35.3438 100.443C38.3238 106.663 42.4328 112.276 47.4617 116.996C49.4645 118.872 51.6073 120.593 53.8713 122.144C56.9981 124.287 60.5588 126.361 62.7313 129.323C62.9615 129.63 63.1724 129.95 63.3629 130.283L57.4329 148.927C57.3982 148.963 57.3676 149 57.3328 149.036L57.1301 149.791C57.0077 149.719 56.8823 149.642 56.76 149.57C56.6888 149.529 56.619 149.483 56.5479 149.442C56.5009 149.413 56.4539 149.384 56.4098 149.361C56.3941 149.351 56.3785 149.341 56.3671 149.333C56.323 149.31 56.2845 149.283 56.2447 149.261C55.5428 148.832 54.8427 148.397 54.1444 147.956C54.1402 147.955 54.1402 147.955 54.1372 147.949C48.8251 144.578 43.7478 140.734 39.4153 136.241C39.285 136.106 39.1504 135.969 39.0228 135.826C37.0812 133.79 35.3093 131.598 33.7246 129.274C32.861 127.998 32.0626 126.679 31.3323 125.323C29.4522 121.814 28.1356 118.032 27.4309 114.114C26.0272 106.304 27.1368 98.1324 31.5664 91.6719C31.6799 91.5067 31.792 91.3455 31.9097 91.1816Z" fill="#CFD6DC"/>
<path d="M32.1315 91.2994C31.0225 101.17 33.0518 111.139 37.9312 119.791C38.9879 121.638 40.2205 123.42 41.8057 124.855C43.3615 126.242 45.2604 127.187 47.3051 127.592C49.2039 128.008 51.1944 128.213 52.9591 129.084C54.8192 130.001 56.0489 131.67 56.6185 133.641C57.3155 136.053 57.1042 138.572 56.812 141.028C56.4875 143.754 56.1073 146.581 57.0304 149.237C57.1422 149.559 56.6365 149.713 56.5248 149.392C54.9188 144.772 57.0954 139.958 56.4222 135.248C56.1081 133.051 55.1298 130.935 53.1483 129.785C51.4156 128.779 49.3631 128.566 47.4369 128.161C45.4143 127.736 43.5736 127.002 41.9599 125.685C40.3092 124.338 39.0043 122.601 37.9051 120.789C35.4431 116.661 33.6454 112.172 32.5779 107.486C31.3298 102.145 31.0047 96.6293 31.6165 91.1783C31.6545 90.8409 32.1692 90.9643 32.1315 91.2994Z" fill="white"/>
<path d="M36.1971 117.097C34.6344 117.719 32.9017 117.765 31.3083 117.227C29.7149 116.689 28.3646 115.602 27.4986 114.16C27.3244 113.868 27.7705 113.583 27.9449 113.876C28.7488 115.22 30.0067 116.232 31.4915 116.73C32.9763 117.228 34.5902 117.179 36.0419 116.592C36.3575 116.464 36.5109 116.971 36.1971 117.097Z" fill="white"/>
<path d="M46.3143 127.507C47.7027 124.362 47.8548 120.809 46.7402 117.557C46.6295 117.235 47.1352 117.08 47.2458 117.402C48.3994 120.788 48.2336 124.485 46.7815 127.755C46.6429 128.066 46.1764 127.817 46.3143 127.507Z" fill="white"/>
<path d="M32.0205 102.269C32.6752 102.155 33.2913 101.879 33.8133 101.468C34.3354 101.056 34.747 100.522 35.0114 99.9117C35.146 99.5986 35.6124 99.8484 35.4786 100.159C35.1835 100.832 34.7281 101.422 34.1523 101.878C33.5766 102.334 32.8979 102.642 32.1757 102.775C32.1087 102.793 32.0372 102.785 31.9758 102.752C31.9145 102.72 31.8678 102.665 31.8453 102.599C31.8251 102.532 31.8321 102.46 31.8649 102.398C31.8978 102.336 31.9537 102.29 32.0205 102.269Z" fill="white"/>
<path d="M46.3382 79.0307C36.7072 69.5496 32.6395 59.6585 34.8842 51.1796C37.7647 40.2988 50.5617 32.7756 69.9939 30.5391L70.0656 31.1632C50.904 33.3684 38.3022 40.7228 35.4914 51.3403C33.3069 59.5919 37.3156 69.267 46.779 78.5832L46.3382 79.0307Z" fill="#CFD6DC"/>
<path d="M139.261 112.686C127.241 112.686 114.179 110.9 101.205 107.465C85.1603 103.218 70.4493 96.8064 58.6621 88.9244L59.0112 88.4023C70.7416 96.2462 85.3874 102.628 101.365 106.858C115.805 110.681 130.352 112.452 143.43 111.985L143.452 112.612C142.071 112.662 140.674 112.686 139.261 112.686Z" fill="#F0F0F0"/>
<path d="M166.836 108.736L166.635 108.141C177.385 104.506 184.109 98.6511 186.079 91.208C188.584 81.7459 183.142 70.7659 170.756 60.2903C158.307 49.7616 140.354 41.0253 120.205 35.6913L120.366 35.084C140.603 40.4415 158.643 49.223 171.162 59.8108C183.744 70.4516 189.257 81.6591 186.687 91.3687C184.66 99.0253 177.795 105.031 166.836 108.736Z" fill="#CFD6DC"/>
<path d="M68.1223 112.948C44.5035 102.473 26.3035 88.8827 16.875 74.6805L17.3982 74.333C26.7615 88.4369 44.8661 101.947 68.3769 112.374L68.1223 112.948Z" fill="#CFD6DC"/>
<path d="M151.164 131.096C148.728 131.096 146.25 131.041 143.73 130.932L143.757 130.305C162.559 131.119 179.148 128.869 191.734 123.797L191.969 124.38C180.989 128.804 166.996 131.096 151.164 131.096Z" fill="#CFD6DC"/>
<path d="M137.46 31.1027C133.556 29.8317 129.541 28.6483 125.525 27.5853C102.418 21.468 79.7038 19.2961 59.8366 21.3055L59.7734 20.6804C79.7147 18.6644 102.507 20.8416 125.686 26.978C129.713 28.0441 133.74 29.2309 137.654 30.5056L137.46 31.1027Z" fill="#CFD6DC"/>
<path d="M31.5765 79.973C21.9455 70.492 17.8778 60.6009 20.1224 52.122C23.003 41.2411 35.8 33.7179 55.2322 31.4814L55.3039 32.1056C36.1423 34.3108 23.5405 41.6652 20.7297 52.2827C18.5452 60.5343 22.5539 70.2094 32.0173 79.5256L31.5765 79.973Z" fill="#CFD6DC"/>
<path d="M124.499 113.628C112.479 113.628 99.4173 111.841 86.443 108.407C70.3986 104.159 55.6876 97.7478 43.9004 89.8658L44.2494 89.3438C55.9799 97.1876 70.6257 103.57 86.6037 107.799C101.043 111.622 115.59 113.393 128.668 112.926L128.69 113.553C127.309 113.603 125.912 113.628 124.499 113.628Z" fill="#F0F0F0"/>
<path d="M152.074 109.678L151.873 109.083C162.623 105.449 169.347 99.5935 171.318 92.1504C173.823 82.6883 168.381 71.7083 155.994 61.2327C143.545 50.7039 125.592 41.9677 105.443 36.6336L105.604 36.0264C125.841 41.3839 143.881 50.1654 156.4 60.7532C168.982 71.394 174.495 82.6015 171.925 92.311C169.898 99.9677 163.034 105.973 152.074 109.678Z" fill="#CFD6DC"/>
<path d="M53.3626 113.891C29.7438 103.415 11.5437 89.8251 2.11523 75.6229L2.63848 75.2754C12.0018 89.3793 30.1063 102.889 53.6171 113.316L53.3626 113.891Z" fill="#CFD6DC"/>
<path d="M136.404 132.038C133.968 132.038 131.49 131.984 128.971 131.875L128.998 131.247C147.799 132.061 164.388 129.811 176.974 124.739L177.209 125.322C166.23 129.746 152.236 132.038 136.404 132.038Z" fill="#CFD6DC"/>
<path d="M122.7 32.0451C118.796 30.7741 114.781 29.5907 110.766 28.5277C87.6585 22.4104 64.944 20.2385 45.0769 22.2479L45.0137 21.6228C64.9549 19.6068 87.7472 21.784 110.926 27.9204C114.953 28.9865 118.98 30.1733 122.895 31.448L122.7 32.0451Z" fill="#CFD6DC"/>
<path d="M60.2987 78.6856C59.008 78.687 57.7706 79.2003 56.858 80.113C55.9454 81.0256 55.432 82.263 55.4306 83.5536C53.5798 97.181 52.9617 110.948 53.5838 124.686C53.6207 125.563 53.6617 126.365 53.7092 127.14C53.7782 128.418 53.866 129.767 53.9698 131.151C54.0294 131.968 54.0923 132.787 54.1612 133.603C54.2765 134.932 54.4031 136.283 54.5379 137.617C54.6226 138.433 54.7105 139.252 54.8045 140.068C54.985 141.67 55.1892 143.313 55.4292 145.09C55.4268 146.384 55.9384 147.626 56.8516 148.542C57.7647 149.459 59.0046 149.976 60.2987 149.979H141.956C143.247 149.977 144.484 149.464 145.397 148.551C146.309 147.639 146.823 146.401 146.824 145.111L146.828 145.077C147.192 143.42 147.53 141.731 147.835 140.057C147.998 139.175 148.138 138.374 148.265 137.607C148.494 136.213 148.698 134.862 148.87 133.595C148.988 132.744 149.095 131.92 149.187 131.144C149.339 129.875 149.476 128.564 149.607 127.135C149.679 126.358 149.745 125.555 149.808 124.682V124.682C150.807 110.911 149.803 97.0693 146.828 83.5873L146.824 83.5536C146.823 82.263 146.309 81.0256 145.397 80.113C144.484 79.2003 143.247 78.687 141.956 78.6855L60.2987 78.6856Z" fill="#2D3A47"/>
<path d="M104.297 99.5258C86.6038 99.5258 67.8555 97.9181 43.3181 94.7017H43.3155C42.0434 94.6999 40.8168 94.2287 39.8707 93.3784C38.9246 92.528 38.3257 91.3584 38.1887 90.0937C38.1664 89.9036 38.1556 89.7122 38.1564 89.5208V74.7596C38.1558 74.7281 38.1572 74.6965 38.1607 74.6652C38.1883 73.3089 38.7455 72.0173 39.7131 71.0665C40.6807 70.1157 41.9819 69.5813 43.3385 69.5775C86.0283 63.7731 111.961 63.7737 158.934 69.5788H158.937C160.292 69.5877 161.591 70.1265 162.555 71.0801C163.518 72.0337 164.071 73.3264 164.094 74.682C164.097 74.7078 164.098 74.7337 164.097 74.7596V89.5208C164.098 89.7127 164.087 89.9046 164.065 90.0952C163.926 91.3632 163.323 92.535 162.372 93.3855C161.422 94.236 160.191 94.7052 158.915 94.7029C138.62 97.9178 121.986 99.5258 104.297 99.5258Z" fill="#F57B20"/>
<path d="M107.135 109.778H96.3997C95.0333 109.777 93.7234 109.233 92.7573 108.267C91.7911 107.301 91.2477 105.991 91.2461 104.625V65.6233C91.2477 64.257 91.7911 62.947 92.7573 61.9809C93.7234 61.0148 95.0333 60.4713 96.3997 60.4697H107.135C108.501 60.4713 109.811 61.0147 110.777 61.9809C111.744 62.947 112.287 64.257 112.289 65.6233V104.625C112.287 105.991 111.744 107.301 110.777 108.267C109.811 109.233 108.501 109.777 107.135 109.778Z" fill="#2D3A47"/>
<path d="M131.509 53.0062C131.431 52.2751 131.294 51.5514 131.1 50.8423C130.89 50.1319 130.623 49.4392 130.304 48.7708C129.159 46.3133 127.227 44.3077 124.815 43.0709C121.82 41.5968 118.395 41.4762 115.175 42.1864C112.469 42.7926 109.927 43.9824 107.729 45.6727C106.589 46.5317 105.547 47.514 104.623 48.6019C103.669 49.7465 101.894 52.8912 101.767 53.1823C100.763 50.9045 99.3237 48.8452 97.529 47.1205C95.4429 45.1405 92.9528 43.6356 90.2299 42.7093C88.7822 42.2215 87.2793 41.9161 85.7561 41.7999C84.1443 41.6659 82.5215 41.8075 80.9573 42.2186C78.1475 43.0055 75.7171 44.7821 74.1146 47.2206C72.5876 49.4869 71.8376 52.1878 71.9775 54.917C72.0548 56.2949 72.3519 57.6516 72.8577 58.9357C73.1287 59.6308 73.4502 60.3052 73.8196 60.9535C74.2017 61.5938 74.629 62.2061 75.0983 62.7856C76.9394 65.0451 79.4194 66.6965 82.2141 67.524C85.1977 68.4462 88.3626 68.4763 91.4307 68.0434C94.5813 67.5988 97.614 66.5789 100.581 65.4619C100.977 65.3129 101.371 65.1596 101.766 65.0078C104.404 66.0226 107.065 67.0014 109.826 67.6226C112.933 68.3729 116.157 68.5022 119.314 68.0031C122.256 67.5201 124.992 66.1838 127.181 64.16C129.207 62.2534 130.625 59.7911 131.257 57.0819C131.569 55.7471 131.654 54.3693 131.509 53.0062ZM90.6113 65.0093C88.9085 65.2274 87.1855 65.2375 85.4802 65.0393C84.258 64.8621 83.0605 64.5434 81.912 64.0896C79.2048 62.9622 77.0467 60.8195 75.8999 58.1205C75.5572 57.2696 75.3131 56.3822 75.1724 55.4757C75.0822 54.6693 75.082 53.8553 75.1716 53.0487C75.3052 52.2002 75.5341 51.3695 75.8539 50.5723C76.1999 49.7969 76.6294 49.0616 77.1348 48.3794C77.625 47.769 78.1789 47.2126 78.7872 46.7198C79.3637 46.2933 79.9842 45.9297 80.638 45.6352C81.4185 45.3304 82.2303 45.1132 83.0587 44.9877C84.1807 44.8635 85.3135 44.8723 86.4335 45.0141C87.7662 45.2198 89.0706 45.5794 90.3206 46.0855C91.65 46.6625 92.9065 47.3951 94.0635 48.2678C95.1341 49.116 96.1046 50.0835 96.956 51.1515C97.799 52.2728 98.506 53.4902 99.062 54.7781C99.6024 56.1218 99.982 57.5247 100.193 58.9576L100.195 58.9786C100.113 59.6985 100.072 60.4226 100.072 61.1472C100.073 61.4263 100.085 61.7051 100.099 61.9837C99.9662 62.1115 99.8556 62.2603 99.7716 62.4242C97.584 63.2824 95.3414 63.9936 93.059 64.553C92.25 64.7397 91.4341 64.8918 90.6113 65.0093ZM128.367 55.4757C128.226 56.3822 127.982 57.2697 127.639 58.1207C126.498 60.8234 124.338 62.9678 121.627 64.0896C120.479 64.5434 119.281 64.8621 118.059 65.0393C116.351 65.2379 114.625 65.2274 112.919 65.0082C109.889 64.5749 106.966 63.6185 104.107 62.5511C103.989 62.5071 103.872 62.4608 103.754 62.4165C103.675 62.2551 103.569 62.1079 103.441 61.9809C103.492 60.9696 103.46 59.956 103.348 58.9498C103.559 57.5196 103.938 56.1194 104.477 54.7781C105.033 53.4902 105.74 52.2729 106.583 51.1517C107.435 50.0835 108.405 49.116 109.476 48.2678C110.633 47.3951 111.889 46.6625 113.219 46.0855C114.469 45.5794 115.773 45.2198 117.106 45.0141C118.226 44.8723 119.359 44.8635 120.481 44.9877C121.309 45.1132 122.121 45.3304 122.901 45.6352C123.555 45.9297 124.176 46.2933 124.752 46.7199C125.361 47.2127 125.914 47.7691 126.405 48.3795C126.91 49.0616 127.34 49.7969 127.685 50.5723C128.005 51.3695 128.234 52.2002 128.368 53.0487C128.457 53.8552 128.457 54.6692 128.367 55.4757Z" fill="#2D3A47"/>
<path d="M69.0914 111.505C70.1322 111.505 70.9758 110.661 70.9758 109.621C70.9758 108.58 70.1322 107.736 69.0914 107.736C68.0507 107.736 67.207 108.58 67.207 109.621C67.207 110.661 68.0507 111.505 69.0914 111.505Z" fill="#F57B20"/>
<path d="M82.5973 106.794C83.638 106.794 84.4817 105.951 84.4817 104.91C84.4817 103.869 83.638 103.025 82.5973 103.025C81.5566 103.025 80.7129 103.869 80.7129 104.91C80.7129 105.951 81.5566 106.794 82.5973 106.794Z" fill="#F57B20"/>
<path d="M76.6305 121.556C77.6712 121.556 78.5149 120.712 78.5149 119.672C78.5149 118.631 77.6712 117.787 76.6305 117.787C75.5898 117.787 74.7461 118.631 74.7461 119.672C74.7461 120.712 75.5898 121.556 76.6305 121.556Z" fill="#F57B20"/>
<path d="M132.535 111.505C133.576 111.505 134.419 110.661 134.419 109.621C134.419 108.58 133.576 107.736 132.535 107.736C131.494 107.736 130.65 108.58 130.65 109.621C130.65 110.661 131.494 111.505 132.535 111.505Z" fill="#F57B20"/>
<path d="M119.029 106.794C120.07 106.794 120.913 105.951 120.913 104.91C120.913 103.869 120.07 103.025 119.029 103.025C117.988 103.025 117.145 103.869 117.145 104.91C117.145 105.951 117.988 106.794 119.029 106.794Z" fill="#F57B20"/>
<path d="M124.996 121.556C126.036 121.556 126.88 120.712 126.88 119.672C126.88 118.631 126.036 117.787 124.996 117.787C123.955 117.787 123.111 118.631 123.111 119.672C123.111 120.712 123.955 121.556 124.996 121.556Z" fill="#F57B20"/>
<path d="M134.105 144.483C135.146 144.483 135.989 143.639 135.989 142.598C135.989 141.558 135.146 140.714 134.105 140.714C133.064 140.714 132.221 141.558 132.221 142.598C132.221 143.639 133.064 144.483 134.105 144.483Z" fill="#F57B20"/>
<path d="M138.816 130.978C139.857 130.978 140.7 130.134 140.7 129.093C140.7 128.053 139.857 127.209 138.816 127.209C137.775 127.209 136.932 128.053 136.932 129.093C136.932 130.134 137.775 130.978 138.816 130.978Z" fill="#F57B20"/>
<path d="M124.054 136.945C125.095 136.945 125.939 136.101 125.939 135.06C125.939 134.019 125.095 133.176 124.054 133.176C123.014 133.176 122.17 134.019 122.17 135.06C122.17 136.101 123.014 136.945 124.054 136.945Z" fill="#F57B20"/>
<path d="M80.0856 144.483C81.1263 144.483 81.97 143.639 81.97 142.598C81.97 141.558 81.1263 140.714 80.0856 140.714C79.0449 140.714 78.2012 141.558 78.2012 142.598C78.2012 143.639 79.0449 144.483 80.0856 144.483Z" fill="#F57B20"/>
<path d="M84.7965 130.978C85.8372 130.978 86.6809 130.134 86.6809 129.093C86.6809 128.053 85.8372 127.209 84.7965 127.209C83.7558 127.209 82.9121 128.053 82.9121 129.093C82.9121 130.134 83.7558 130.978 84.7965 130.978Z" fill="#F57B20"/>
<path d="M70.0348 136.945C71.0755 136.945 71.9192 136.101 71.9192 135.06C71.9192 134.019 71.0755 133.176 70.0348 133.176C68.9941 133.176 68.1504 134.019 68.1504 135.06C68.1504 136.101 68.9941 136.945 70.0348 136.945Z" fill="#F57B20"/>
<path d="M124.177 11.3933C124.891 11.6911 125.669 11.8002 126.437 11.71C127.205 11.6198 127.937 11.3333 128.562 10.8782C130.156 9.68961 130.753 7.61486 131.253 5.69117L132.732 0L130.235 1.51577C128.439 2.60562 126.603 3.73157 125.307 5.38614C124.011 7.04071 123.355 9.35932 124.209 11.2793" fill="#349AFF"/>
<path d="M57.4058 60.0067C57.8877 59.402 58.2057 58.6834 58.3293 57.9201C58.4529 57.1568 58.3778 56.3746 58.1112 55.6487C57.4046 53.7905 55.5728 52.6477 53.8597 51.6396L48.791 48.6592L49.565 51.4754C50.1215 53.5008 50.7013 55.5756 51.9377 57.2752C53.174 58.9748 55.2244 60.2405 57.3049 59.9449" fill="#349AFF"/>
<path d="M176.437 147.632C176.919 147.027 177.237 146.308 177.361 145.545C177.484 144.782 177.409 144 177.143 143.274C176.436 141.416 174.604 140.273 172.891 139.265L167.822 136.284L168.596 139.1C169.153 141.126 169.733 143.201 170.969 144.9C172.205 146.6 174.256 147.865 176.336 147.57" fill="#349AFF"/>
<path d="M80.7137 36.443C82.1013 36.443 83.2262 35.3181 83.2262 33.9305C83.2262 32.5429 82.1013 31.418 80.7137 31.418C79.3261 31.418 78.2012 32.5429 78.2012 33.9305C78.2012 35.3181 79.3261 36.443 80.7137 36.443Z" fill="#FD6584"/>
<path d="M13.8172 110.563C15.2049 110.563 16.3298 109.438 16.3298 108.051C16.3298 106.663 15.2049 105.538 13.8172 105.538C12.4296 105.538 11.3047 106.663 11.3047 108.051C11.3047 109.438 12.4296 110.563 13.8172 110.563Z" fill="#FD6584"/>
<path d="M186.554 90.1491C187.941 90.1491 189.066 89.0242 189.066 87.6366C189.066 86.2489 187.941 85.124 186.554 85.124C185.166 85.124 184.041 86.2489 184.041 87.6366C184.041 89.0242 185.166 90.1491 186.554 90.1491Z" fill="#FD6584"/>
<path d="M11.3036 47.4352C12.6912 47.4352 13.8161 46.3103 13.8161 44.9227C13.8161 43.5351 12.6912 42.4102 11.3036 42.4102C9.91592 42.4102 8.79102 43.5351 8.79102 44.9227C8.79102 46.3103 9.91592 47.4352 11.3036 47.4352Z" fill="#28A826"/>
<path d="M166.766 119.043C168.154 119.043 169.279 117.918 169.279 116.53C169.279 115.142 168.154 114.018 166.766 114.018C165.379 114.018 164.254 115.142 164.254 116.53C164.254 117.918 165.379 119.043 166.766 119.043Z" fill="#28A826"/>
<path d="M171.792 42.7243C173.179 42.7243 174.304 41.5994 174.304 40.2118C174.304 38.8241 173.179 37.6992 171.792 37.6992C170.404 37.6992 169.279 38.8241 169.279 40.2118C169.279 41.5994 170.404 42.7243 171.792 42.7243Z" fill="#E6E6E6"/>
<path d="M61.6256 82.6858C61.4084 83.0294 60.8818 82.9794 60.5861 82.7647C60.1756 82.4665 60.3085 81.8922 60.5912 81.5528C61.4896 80.4743 62.9755 81.613 63.1759 82.6841C63.2505 83.2063 63.17 83.739 62.9447 84.2159C62.7193 84.6929 62.3588 85.0932 61.908 85.3673C60.883 85.9747 59.5515 85.67 58.6702 84.943C56.8317 83.4265 57.3323 80.3901 59.3744 79.2929C60.6776 78.5927 62.3251 78.9 63.609 79.4866C65.0541 80.1468 66.2968 81.1588 67.6332 82.0024C70.5655 83.8379 73.8826 84.9706 77.3252 85.3118C77.9278 85.3733 77.9235 84.4306 77.3252 84.3696C75.4174 84.1724 73.5446 83.7215 71.7562 83.0287C69.9867 82.3115 68.3073 81.3897 66.7521 80.2821C65.1785 79.2035 63.5346 78.1557 61.5872 77.9775C60.8014 77.8857 60.0052 78.0037 59.2798 78.3194C58.5543 78.635 57.9253 79.1372 57.4568 79.7747C57.0401 80.3453 56.7612 81.0045 56.6419 81.7009C56.5226 82.3972 56.5661 83.1118 56.7692 83.7885C57.0139 84.4961 57.4417 85.1262 58.0091 85.6147C58.5765 86.1033 59.2633 86.4327 59.9994 86.5696C60.708 86.7035 61.4408 86.6129 62.0955 86.3104C62.7501 86.0079 63.2941 85.5087 63.6515 84.8823C64.3682 83.6426 64.3449 81.9775 63.2623 80.9497C62.952 80.6343 62.5635 80.4069 62.1365 80.2907C61.7095 80.1746 61.2594 80.1739 60.8321 80.2887C60.4383 80.4217 60.0919 80.6666 59.8351 80.9934C59.5784 81.3202 59.4224 81.7147 59.3864 82.1287C59.2819 83.7378 61.5661 84.5425 62.4392 83.1614C62.7641 82.6474 61.9491 82.174 61.6256 82.6858Z" fill="#3F3D56"/>
<path d="M142.199 82.6858C142.416 83.0294 142.943 82.9794 143.238 82.7647C143.649 82.4665 143.516 81.8922 143.233 81.5528C142.335 80.4743 140.849 81.613 140.648 82.6841C140.574 83.2063 140.654 83.739 140.88 84.2159C141.105 84.6929 141.466 85.0932 141.916 85.3673C142.941 85.9747 144.273 85.67 145.154 84.943C146.993 83.4265 146.492 80.3901 144.45 79.2929C143.147 78.5927 141.499 78.9 140.215 79.4866C138.77 80.1468 137.528 81.1588 136.191 82.0024C133.259 83.8379 129.942 84.9706 126.499 85.3118C125.897 85.3733 125.901 84.4306 126.499 84.3696C128.407 84.1724 130.28 83.7215 132.068 83.0287C133.838 82.3115 135.517 81.3897 137.072 80.2821C138.646 79.2035 140.29 78.1557 142.237 77.9775C143.023 77.8857 143.819 78.0037 144.545 78.3194C145.27 78.635 145.899 79.1372 146.368 79.7747C146.784 80.3453 147.063 81.0045 147.183 81.7009C147.302 82.3972 147.258 83.1118 147.055 83.7885C146.81 84.4961 146.383 85.1262 145.815 85.6147C145.248 86.1033 144.561 86.4327 143.825 86.5696C143.116 86.7035 142.384 86.6129 141.729 86.3104C141.074 86.0079 140.53 85.5087 140.173 84.8823C139.456 83.6426 139.479 81.9775 140.562 80.9497C140.872 80.6343 141.261 80.4069 141.688 80.2907C142.115 80.1746 142.565 80.1739 142.992 80.2887C143.386 80.4217 143.732 80.6666 143.989 80.9934C144.246 81.3202 144.402 81.7147 144.438 82.1287C144.542 83.7378 142.258 84.5425 141.385 83.1614C141.06 82.6474 141.875 82.174 142.199 82.6858Z" fill="#3F3D56"/>
<path d="M28.8374 11.42L27.5928 12.9814L23.1914 10.3778L24.4357 8.81641L28.8374 11.42Z" fill="#EBC91A"/>
<path d="M33.4305 18.1289L34.5296 19.7693L29.9058 22.0692L28.8066 20.4291L33.4305 18.1289Z" fill="#EBC91A"/>
<path d="M38.217 10.9971L40.4135 11.0749L40.1948 15.6708L37.998 15.5933L38.217 10.9971Z" fill="#EBC91A"/>
<path d="M184.3 107.525L183.056 109.086L178.654 106.482L179.899 104.921L184.3 107.525Z" fill="#EBC91A"/>
<path d="M188.893 114.233L189.992 115.874L185.369 118.174L184.27 116.533L188.893 114.233Z" fill="#EBC91A"/>
<path d="M193.68 107.102L195.876 107.179L195.658 111.775L193.461 111.698L193.68 107.102Z" fill="#EBC91A"/>
</g>
<defs>
<clipPath id="clip0_2663_7232">
<rect width="195.001" height="150" fill="white" transform="translate(0.875)"/>
</clipPath>
</defs>
</svg>
