<svg xmlns="http://www.w3.org/2000/svg" viewBox="0 0 24 24">
  <path fill="currentColor" d="M6.33 20.94c-.7-.14-1.5-.78-1.82-1.47-.28-.6-.3-.97-.28-4.64.02-3.18.03-3.34.14-3.68.26-.75.86-1.4 1.55-1.68.23-.1.5-.13 1.02-.16l.7-.03.03-1.32c.04-1.2.05-1.36.2-1.84.64-2.12 2.3-3.25 4.58-3.1 1.5.08 2.34.57 3.1 1.8.48.76.49 1.22.04 1.62a.9.9 0 0 1-.96.14c-.21-.08-.3-.18-.61-.66-.55-.85-.7-.95-1.61-1.03a3.25 3.25 0 0 0-1.56.24A2.6 2.6 0 0 0 9.6 6.94c-.04.2-.06.76-.05 1.34l.02 1 4.12.03 4.13.03.4.18c.72.35 1.26 1 1.47 1.8.07.3.09.9.09 3.84 0 3.82 0 3.86-.36 4.47-.2.36-.76.9-1.1 1.08-.59.3-.5.3-6.32.29-2.98 0-5.53-.03-5.67-.06zM17.5 19c.42-.28.4-.16.4-3.84 0-3.15 0-3.32-.11-3.56a.63.63 0 0 0-.37-.36c-.24-.11-.42-.12-5.41-.12-5.6 0-5.38-.01-5.69.32l-.14.16-.02 3.47c-.02 3.85-.03 3.71.36 3.95.18.11.33.11 5.48.11h5.3l.2-.13z"/>
  <path fill="currentColor" d="M11.69 17.36c-.6-.22-.64-.4-.62-2.33.02-1.47.03-1.57.14-1.72a.9.9 0 0 1 .74-.42c.38-.02.71.14.87.45.1.19.11.36.11 1.82 0 1.58 0 1.62-.13 1.81-.27.4-.69.54-1.11.38z"/>
</svg>
