<svg width="17" height="22" viewBox="0 0 17 22" fill="none" xmlns="http://www.w3.org/2000/svg">
<path d="M7.74884 9.68683L6.52976 10.907L6.52973 10.907C6.38892 11.0478 6.19796 11.1269 5.99884 11.1269C5.79972 11.1269 5.60875 11.0478 5.46795 10.907C5.32715 10.7662 5.24805 10.5752 5.24805 10.3761C5.24805 10.177 5.32715 9.98603 5.46795 9.84523L7.96784 7.34534L7.74884 9.68683ZM7.74884 9.68683V14.1261C7.74884 14.325 7.82785 14.5158 7.96851 14.6564C8.10916 14.7971 8.29992 14.8761 8.49884 14.8761C8.69775 14.8761 8.88851 14.7971 9.02917 14.6564C9.16982 14.5158 9.24884 14.325 9.24884 14.1261V9.68683L10.4679 10.907L10.4679 10.907C10.6087 11.0478 10.7997 11.1269 10.9988 11.1269C11.198 11.1269 11.3889 11.0478 11.5297 10.907C11.6705 10.7662 11.7496 10.5752 11.7496 10.3761C11.7496 10.177 11.6705 9.98603 11.5297 9.84523L9.02984 7.34534C9.0298 7.34531 9.02976 7.34526 9.02973 7.34523C8.96008 7.27543 8.87736 7.22006 8.78629 7.18227C8.69517 7.14446 8.59749 7.125 8.49884 7.125C8.40019 7.125 8.3025 7.14446 8.21139 7.18227C8.12032 7.22006 8.03759 7.27544 7.96795 7.34523L7.74884 9.68683Z" fill="#2D3A47" stroke="#2D3A47" stroke-width="0.25"/>
<path d="M3.5 0.875C2.80381 0.875 2.13613 1.15156 1.64384 1.64384C1.15156 2.13613 0.875 2.80381 0.875 3.5V18.5C0.875 19.1962 1.15156 19.8639 1.64384 20.3562C2.13613 20.8484 2.80381 21.125 3.5 21.125H13.5C14.1962 21.125 14.8639 20.8484 15.3562 20.3562C15.8484 19.8639 16.125 19.1962 16.125 18.5V3.5C16.125 2.80381 15.8484 2.13613 15.3562 1.64384C14.8639 1.15156 14.1962 0.875 13.5 0.875H3.5ZM3.5 2.375H13.5C13.7984 2.375 14.0845 2.49353 14.2955 2.7045C14.5065 2.91548 14.625 3.20163 14.625 3.5V18.5C14.625 18.7984 14.5065 19.0845 14.2955 19.2955C14.0845 19.5065 13.7984 19.625 13.5 19.625H3.5C3.20163 19.625 2.91548 19.5065 2.7045 19.2955C2.49353 19.0845 2.375 18.7984 2.375 18.5V3.5C2.375 3.20163 2.49353 2.91548 2.7045 2.7045C2.91548 2.49353 3.20163 2.375 3.5 2.375Z" fill="#2D3A47" stroke="#2D3A47" stroke-width="0.25"/>
</svg>
