<svg width="12" height="15" viewBox="0 0 12 15" fill="none" xmlns="http://www.w3.org/2000/svg">
<path d="M5.625 0L2.8125 2.72727H4.92188V8.86364H6.32812V2.72727H8.4375L5.625 0ZM9.84375 15H1.40625C1.03329 15 0.675604 14.8563 0.411881 14.6006C0.148158 14.3449 0 13.998 0 13.6364V5.45455C0 5.09289 0.148158 4.74604 0.411881 4.49031C0.675604 4.23458 1.03329 4.09091 1.40625 4.09091H3.51562V5.45455H1.40625V13.6364H9.84375V5.45455H7.73438V4.09091H9.84375C10.2167 4.09091 10.5744 4.23458 10.8381 4.49031C11.1018 4.74604 11.25 5.09289 11.25 5.45455V13.6364C11.25 13.998 11.1018 14.3449 10.8381 14.6006C10.5744 14.8563 10.2167 15 9.84375 15Z" fill="#2D3A47"/>
</svg>
