<svg width="17" height="20" viewBox="0 0 17 20" fill="none" xmlns="http://www.w3.org/2000/svg">
<path d="M3.72637 5.58225C3.62592 5.48273 3.54622 5.36446 3.49183 5.23425C3.43745 5.10403 3.40945 4.96442 3.40945 4.82343C3.40945 4.68243 3.43745 4.54282 3.49183 4.4126C3.54622 4.28239 3.62592 4.16412 3.72637 4.0646L7.49764 0.315089C7.59774 0.215217 7.71669 0.135973 7.84766 0.0819032C7.97864 0.0278331 8.11906 0 8.26087 0C8.40268 0 8.5431 0.0278331 8.67408 0.0819032C8.80505 0.135973 8.924 0.215217 9.0241 0.315089L12.7954 4.0646C12.8958 4.16412 12.9755 4.28239 13.0299 4.4126C13.0843 4.54282 13.1123 4.68243 13.1123 4.82343C13.1123 4.96442 13.0843 5.10403 13.0299 5.23425C12.9755 5.36446 12.8958 5.48273 12.7954 5.58225C12.592 5.78179 12.3178 5.89368 12.0321 5.89368C11.7464 5.89368 11.4722 5.78179 11.2689 5.58225L9.33837 3.66286V11.0726C9.33837 11.3567 9.22485 11.6292 9.02278 11.8301C8.82071 12.031 8.54664 12.1439 8.26087 12.1439C7.9751 12.1439 7.70103 12.031 7.49896 11.8301C7.29689 11.6292 7.18337 11.3567 7.18337 11.0726V3.66286L5.25284 5.58225C5.15273 5.68213 5.03378 5.76137 4.90281 5.81544C4.77184 5.86951 4.63142 5.89734 4.4896 5.89734C4.34779 5.89734 4.20737 5.86951 4.0764 5.81544C3.94542 5.76137 3.82647 5.68213 3.72637 5.58225V5.58225ZM14.7259 7.50164H12.5709C12.2851 7.50164 12.0111 7.61451 11.809 7.81542C11.6069 8.01632 11.4934 8.28881 11.4934 8.57293C11.4934 8.85706 11.6069 9.12954 11.809 9.33045C12.0111 9.53135 12.2851 9.64422 12.5709 9.64422H14.3667V17.8574H2.15501V9.64422H3.95085C4.23662 9.64422 4.51069 9.53135 4.71276 9.33045C4.91483 9.12954 5.02836 8.85706 5.02836 8.57293C5.02836 8.28881 4.91483 8.01632 4.71276 7.81542C4.51069 7.61451 4.23662 7.50164 3.95085 7.50164H1.79584C1.32028 7.50399 0.864873 7.69286 0.528597 8.02719C0.192322 8.36153 0.00236014 8.81431 0 9.28712V18.2145C0.00236014 18.6873 0.192322 19.1401 0.528597 19.4745C0.864873 19.8088 1.32028 19.9977 1.79584 20H14.7259C15.2015 19.9977 15.6569 19.8088 15.9931 19.4745C16.3294 19.1401 16.5194 18.6873 16.5217 18.2145V9.28712C16.5194 8.81431 16.3294 8.36153 15.9931 8.02719C15.6569 7.69286 15.2015 7.50399 14.7259 7.50164V7.50164Z" fill="#2D3A47"/>
</svg>
