<svg width="23" height="21" viewBox="0 0 23 21" fill="none" xmlns="http://www.w3.org/2000/svg">
<path d="M11.4269 0.5C12.0609 0.5 12.6457 0.834821 12.9671 1.38393L22.61 17.8125C22.9359 18.3661 22.9359 19.0491 22.6189 19.6027C22.3019 20.1562 21.7082 20.5 21.0698 20.5H1.78407C1.14567 20.5 0.551924 20.1562 0.234959 19.6027C-0.0820049 19.0491 -0.0775406 18.3616 0.243888 17.8125L9.88675 1.38393C10.2082 0.834821 10.793 0.5 11.4269 0.5ZM11.4269 6.21429C10.8332 6.21429 10.3555 6.69196 10.3555 7.28571V12.2857C10.3555 12.8795 10.8332 13.3571 11.4269 13.3571C12.0207 13.3571 12.4984 12.8795 12.4984 12.2857V7.28571C12.4984 6.69196 12.0207 6.21429 11.4269 6.21429ZM12.8555 16.2143C12.8555 15.8354 12.705 15.472 12.4371 15.2041C12.1692 14.9362 11.8058 14.7857 11.4269 14.7857C11.048 14.7857 10.6847 14.9362 10.4168 15.2041C10.1489 15.472 9.99835 15.8354 9.99835 16.2143C9.99835 16.5932 10.1489 16.9565 10.4168 17.2244C10.6847 17.4923 11.048 17.6429 11.4269 17.6429C11.8058 17.6429 12.1692 17.4923 12.4371 17.2244C12.705 16.9565 12.8555 16.5932 12.8555 16.2143Z" fill="#E7BB09"/>
</svg>
