<svg width="61" height="61" viewBox="0 0 61 61" fill="none" xmlns="http://www.w3.org/2000/svg">
<path d="M30.5 0C24.4677 0 18.5708 1.78879 13.5551 5.14018C8.53942 8.49156 4.63016 13.255 2.32169 18.8282C0.0132152 24.4013 -0.590786 30.5338 0.586062 36.4502C1.76291 42.3667 4.66776 47.8012 8.93326 52.0667C13.1988 56.3322 18.6333 59.2371 24.5498 60.4139C30.4662 61.5908 36.5987 60.9868 42.1718 58.6783C47.745 56.3698 52.5084 52.4606 55.8598 47.4449C59.2112 42.4292 61 36.5323 61 30.5C61 22.4109 57.7866 14.6531 52.0668 8.93324C46.3469 3.21338 38.5891 0 30.5 0ZM30.5 55.9167C25.4731 55.9167 20.559 54.426 16.3793 51.6332C12.1995 48.8404 8.9418 44.8708 7.01807 40.2265C5.09435 35.5822 4.59101 30.4718 5.57172 25.5415C6.55243 20.6111 8.97313 16.0823 12.5277 12.5277C16.0823 8.97312 20.6111 6.55241 25.5415 5.57171C30.4718 4.591 35.5823 5.09433 40.2265 7.01806C44.8708 8.94179 48.8404 12.1995 51.6332 16.3793C54.426 20.559 55.9167 25.4731 55.9167 30.5C55.9167 33.8378 55.2592 37.1428 53.9819 40.2265C52.7046 43.3102 50.8325 46.1121 48.4723 48.4723C46.1121 50.8324 43.3102 52.7046 40.2265 53.9819C37.1428 55.2592 33.8378 55.9167 30.5 55.9167Z" fill="#E03B24"/>
<path d="M30.5 0C24.4677 0 18.5708 1.78879 13.5551 5.14018C8.53942 8.49156 4.63016 13.255 2.32169 18.8282C0.0132152 24.4013 -0.590786 30.5338 0.586062 36.4502C1.76291 42.3667 4.66776 47.8012 8.93326 52.0667C13.1988 56.3322 18.6333 59.2371 24.5498 60.4139C30.4662 61.5908 36.5987 60.9868 42.1718 58.6783C47.745 56.3698 52.5084 52.4606 55.8598 47.4449C59.2112 42.4292 61 36.5323 61 30.5C61 22.4109 57.7866 14.6531 52.0668 8.93324C46.3469 3.21338 38.5891 0 30.5 0ZM30.5 55.9167C25.4731 55.9167 20.559 54.426 16.3793 51.6332C12.1995 48.8404 8.9418 44.8708 7.01807 40.2265C5.09435 35.5822 4.59101 30.4718 5.57172 25.5415C6.55243 20.6111 8.97313 16.0823 12.5277 12.5277C16.0823 8.97312 20.6111 6.55241 25.5415 5.57171C30.4718 4.591 35.5823 5.09433 40.2265 7.01806C44.8708 8.94179 48.8404 12.1995 51.6332 16.3793C54.426 20.559 55.9167 25.4731 55.9167 30.5C55.9167 33.8378 55.2592 37.1428 53.9819 40.2265C52.7046 43.3102 50.8325 46.1121 48.4723 48.4723C46.1121 50.8324 43.3102 52.7046 40.2265 53.9819C37.1428 55.2592 33.8378 55.9167 30.5 55.9167Z" stroke="#E03B24"/>
<path d="M30.5034 35.7607C29.6271 35.7607 28.7866 35.4126 28.167 34.7929C27.5473 34.1733 27.1992 33.3328 27.1992 32.4565V17.2065C27.1992 16.3302 27.5473 15.4898 28.167 14.8701C28.7866 14.2505 29.6271 13.9023 30.5034 13.9023C31.3797 13.9023 32.2201 14.2505 32.8398 14.8701C33.4594 15.4898 33.8076 16.3302 33.8076 17.2065V32.4565C33.8076 33.3328 33.4594 34.1733 32.8398 34.7929C32.2201 35.4126 31.3797 35.7607 30.5034 35.7607Z" fill="#E03B24"/>
<path d="M30.5034 35.7607C29.6271 35.7607 28.7866 35.4126 28.167 34.7929C27.5473 34.1733 27.1992 33.3328 27.1992 32.4565V17.2065C27.1992 16.3302 27.5473 15.4898 28.167 14.8701C28.7866 14.2505 29.6271 13.9023 30.5034 13.9023C31.3797 13.9023 32.2201 14.2505 32.8398 14.8701C33.4594 15.4898 33.8076 16.3302 33.8076 17.2065V32.4565C33.8076 33.3328 33.4594 34.1733 32.8398 34.7929C32.2201 35.4126 31.3797 35.7607 30.5034 35.7607Z" stroke="#E03B24"/>
<path d="M30.375 47.0723C32.4806 47.0723 34.1875 45.3653 34.1875 43.2598C34.1875 41.1542 32.4806 39.4473 30.375 39.4473C28.2694 39.4473 26.5625 41.1542 26.5625 43.2598C26.5625 45.3653 28.2694 47.0723 30.375 47.0723Z" fill="#E03B24"/>
<path d="M30.375 47.0723C32.4806 47.0723 34.1875 45.3653 34.1875 43.2598C34.1875 41.1542 32.4806 39.4473 30.375 39.4473C28.2694 39.4473 26.5625 41.1542 26.5625 43.2598C26.5625 45.3653 28.2694 47.0723 30.375 47.0723Z" stroke="#E03B24"/>
</svg>
