<svg version="1.1" viewBox="0 0 24 24" xmlns="http://www.w3.org/2000/svg">
 <path d="m3.2922 19.901c-0.72372-0.23122-1.2861-0.7343-1.6215-1.4504l-0.17071-0.36452v-12.174l0.19885-0.40392c0.25121-0.51028 0.58708-0.89103 1.0083-1.143 0.68005-0.40681 0.19249-0.38695 9.4554-0.38529 5.4321 9.835e-4 8.4882 0.023463 8.6626 0.063635 0.75743 0.17461 1.4476 0.7316 1.8003 1.4528l0.20457 0.41836v12.171l-0.1958 0.39954c-0.36087 0.73643-0.87702 1.1881-1.6232 1.4203-0.35985 0.11198-0.69927 0.11637-8.8669 0.11317-8.1169-0.0036-8.5086-0.0083-8.852-0.11803zm17.402-1.7224c0.1102-0.06719 0.25531-0.2123 0.32249-0.3225 0.11791-0.19332 0.12216-0.31587 0.12238-3.5043l2.37e-4 -3.304h-8.968c-8.1209 0-8.9715 0.0095-9.0053 0.09729-0.066005 0.17192-0.038868 6.1221 0.02927 6.4176 0.070152 0.30426 0.17869 0.45289 0.45596 0.62417 0.17716 0.10938 0.51185 0.11388 8.5136 0.11388 8.203 0 8.3322-0.0024 8.5295-0.12214zm0.44486-10.343c-1.77e-4 -1.379-0.00948-1.5056-0.12238-1.691-0.067189-0.1102-0.2123-0.2553-0.32249-0.32248-0.19729-0.12029-0.3267-0.12215-8.5172-0.12237-8.9755-2.488e-4 -8.4735-0.018367-8.7812 0.31664-0.072878 0.079276-0.16257 0.2548-0.19944 0.39003-0.072285 0.26507-0.095866 2.8097-0.026662 2.8788 0.022515 0.02252 4.0749 0.041 9.0053 0.041h8.9643l-2.49e-4 -1.4906z" stroke-width=".06147" fill="currentColor"/>
 <path d="m4.6169 8.2846c-0.2062-0.095274-0.29082-0.18273-0.387-0.40016-0.1672-0.37798-0.11009-0.66682 0.19182-0.97011 0.19976-0.20067 0.26661-0.23051 0.51636-0.23051 0.53294 0 0.89503 0.33571 0.89503 0.82984 0 0.64316-0.62922 1.042-1.2162 0.77093z" stroke-width=".06147" fill="currentColor"/>
 <path d="m7.3291 8.2858c-0.83481-0.37903-0.56863-1.602 0.34866-1.602 0.51807 0 0.90933 0.43334 0.84232 0.93294-0.04444 0.33167-0.19256 0.53236-0.49367 0.66907-0.31872 0.14471-0.37858 0.14471-0.69731 0z" stroke-width=".06147" fill="currentColor"/>
 <path d="m10.115 8.3417c-0.7008-0.21-0.802-1.235-0.15497-1.5696 0.13787-0.071337 0.2903-0.093141 0.50603-0.072404 0.25579 0.02453 0.343 0.067071 0.5086 0.24777 0.26936 0.29393 0.31469 0.56749 0.15414 0.93044-0.09966 0.22529-0.18103 0.30972-0.38984 0.40449-0.28856 0.13097-0.36158 0.1379-0.62396 0.05925z" stroke-width=".06147" fill="currentColor"/>
</svg>
