<svg version="1.1" viewBox="0 0 24 24" xmlns="http://www.w3.org/2000/svg">
 <path d="m11.296 11.719h0.4324v0.43237h-0.4324z" fill="none" stroke-width=".018016"/>
 <path d="m10.002 15.203c-0.43527-0.072834-0.87934-0.41186-1.0751-0.82061-0.13112-0.27387-0.13938-0.3482-0.13938-1.246 0-0.80381 0-0.83552 0.053201-1.0133 0.11726-0.4034-0.0742-0.19578 3.2693-3.5449 1.6745-1.6773 3.1187-3.1138 3.2094-3.1921 0.37227-0.32175 0.84014-0.44229 1.3227-0.34079 0.18761 0.03948 0.44234 0.16043 0.58956 0.27993 0.17319 0.14062 1.4545 1.4373 1.5165 1.5348 0.30618 0.48097 0.33454 1.0345 0.07889 1.5386-0.0791 0.15585-0.25565 0.33728-3.206 3.2936-1.7172 1.7208-3.1785 3.1713-3.2471 3.2233-0.15555 0.11789-0.22128 0.15439-0.4205 0.23346l-0.15835 0.06279-0.83986 0.0049c-0.46194 0.0028-0.89089-0.0035-0.95333-0.01386zm3.3708-3.348 1.8953-1.8953-0.60132-0.60158c-0.33069-0.33087-0.60867-0.60158-0.6177-0.60158-0.0091 0-0.8645 0.84791-1.9012 1.8843l-1.8849 1.8843v1.2254h1.2146zm3.5467-3.5467c0.32159-0.32139 0.58466-0.5947 0.58466-0.60737 0-0.012671-0.26923-0.29213-0.59831-0.62104l-0.59838-0.59801-0.6072 0.60691-0.6072 0.6069 0.59817 0.59847c0.32901 0.32916 0.60839 0.59848 0.62085 0.59848 0.0126 0 0.28582-0.26295 0.60741-0.58434z" fill="currentColor" stroke-width=".0227"/>
 <path d="m6.8352 18.961c-0.57409-0.10631-1.0989-0.44901-1.4276-0.93233-0.17277-0.25401-0.23857-0.39574-0.33727-0.72639l-0.060902-0.2043-7e-3 -4.2445c-0.0077-4.3071 0-4.7309 0.07595-4.9827 0.25572-0.83776 0.82425-1.391 1.653-1.6083l0.22912-0.060131h2.7248l0.15184 0.074725c0.56352 0.27739 0.56303 1.0506 0 1.3264l-0.15191 0.074305-2.6558 0.02268-0.11481 0.060551c-0.14099 0.074416-0.28211 0.21668-0.35358 0.35636l-0.053901 0.10515v8.7619l0.067202 0.12183c0.08547 0.15432 0.25481 0.30318 0.41427 0.3642l0.12384 0.04739 4.2939-0.0021c4.7679-0.0021 4.3817 0.01071 4.6102-0.15098 0.09996-0.07073 0.23479-0.25206 0.27455-0.36935 0.0105-0.03122 0.0252-0.6492 0.0322-1.3733l0.0126-1.3166 0.0623-0.12638c0.08001-0.16299 0.2014-0.28476 0.35785-0.35909 0.17501-0.08312 0.45711-0.08457 0.62428-0.0035 0.13777 0.06706 0.29408 0.22492 0.35988 0.36351 0.0483 0.10139 0.0483 0.1176 0.0483 1.5212 0 1.6261 7e-3 1.5757-0.21344 2.0292-0.31529 0.65377-0.91147 1.1075-1.6138 1.2282-0.16507 0.02835-0.82873 0.03283-4.5853 0.03101-3.319-0.0014-4.4284-0.0088-4.5399-0.02947z" fill="currentColor" stroke-width=".0227"/>
</svg>
