<svg width="28" height="30" viewBox="0 0 28 30" fill="none" xmlns="http://www.w3.org/2000/svg">
<path d="M8.5 24.75C8.5 25.612 8.15759 26.4386 7.5481 27.0481C6.9386 27.6576 6.11195 28 5.25 28C4.38805 28 3.5614 27.6576 2.9519 27.0481C2.34241 26.4386 2 25.612 2 24.75C2 23.888 2.34241 23.0614 2.9519 22.4519C3.5614 21.8424 4.38805 21.5 5.25 21.5M8.5 24.75C8.5 23.888 8.15759 23.0614 7.5481 22.4519C6.9386 21.8424 6.11195 21.5 5.25 21.5M8.5 24.75H18.25C19.112 24.75 19.9386 24.4076 20.5481 23.7981C21.1576 23.1886 21.5 22.362 21.5 21.5V13.375M5.25 21.5V8.5M5.25 8.5C4.38805 8.5 3.5614 8.15759 2.9519 7.5481C2.34241 6.9386 2 6.11195 2 5.25C2 4.38805 2.34241 3.5614 2.9519 2.9519C3.5614 2.34241 4.38805 2 5.25 2C6.11195 2 6.9386 2.34241 7.5481 2.9519C8.15759 3.5614 8.5 4.38805 8.5 5.25C8.5 6.11195 8.15759 6.9386 7.5481 7.5481C6.9386 8.15759 6.11195 8.5 5.25 8.5Z" stroke="#F57B20" stroke-width="3" stroke-linecap="round" stroke-linejoin="round"/>
<path d="M16.625 18.25L21.5 13.375L26.375 18.25M18.25 2L24.75 8.5M18.25 8.5L24.75 2" stroke="#F57B20" stroke-width="3" stroke-linecap="round" stroke-linejoin="round"/>
</svg>
