<svg width="24" height="30" viewBox="0 0 24 30" fill="none" xmlns="http://www.w3.org/2000/svg">
<path d="M11.7327 23.0107C7.38186 22.9305 3.87068 19.3698 3.87068 15C3.87068 13.944 4.07122 12.9165 4.45752 11.9974L4.45769 11.9969C4.68828 11.4435 4.51658 10.8226 4.11242 10.4184C3.34167 9.64766 2.0434 9.92105 1.63635 10.9307C1.12575 12.1866 0.85 13.5661 0.85 15C0.85 21.0455 5.70639 25.9515 11.7327 26.0317V28.3177C11.7327 29.0619 12.6287 29.4316 13.1459 28.8991C13.1462 28.8988 13.1465 28.8985 13.1468 28.8982L16.9404 25.1046C17.2711 24.7739 17.2711 24.2572 16.9404 23.9266L13.1451 20.1312L13.144 20.1302C13.027 20.0155 12.8786 19.9379 12.7176 19.9074C12.5565 19.8769 12.3901 19.8947 12.2391 19.9586C12.0882 20.0225 11.9596 20.1297 11.8695 20.2666C11.7794 20.4034 11.7318 20.5638 11.7327 20.7276M11.7327 23.0107V20.7276M11.7327 23.0107V20.7276M11.7327 23.0107V20.7276M11.7327 20.7276V20.727H11.8827L11.7327 20.7279C11.7327 20.7278 11.7327 20.7277 11.7327 20.7276ZM12.0327 9.27296V6.98933C16.3836 7.06951 19.8948 10.6302 19.8948 15C19.8948 16.056 19.6942 17.0835 19.3079 18.0026L19.3078 18.0031C19.0772 18.5565 19.2489 19.1774 19.653 19.5816C20.4237 20.3523 21.7219 20.079 22.129 19.0695C22.6397 17.8135 22.9155 16.434 22.9155 15C22.9155 8.95453 18.0591 4.04847 12.0327 3.96827V1.68226C12.0327 0.938127 11.1369 0.568432 10.6197 1.10077L6.81161 4.89524L6.81142 4.89542C6.48077 5.22607 6.48077 5.74275 6.81142 6.0734L10.6068 9.86875L10.6068 9.86876L10.6085 9.87042C11.136 10.3815 12.0327 10.0216 12.0327 9.27296Z" fill="#F57B20" stroke="#F57B20" stroke-width="0.3"/>
</svg>
