<svg width="29" height="30" viewBox="0 0 29 30" fill="none" xmlns="http://www.w3.org/2000/svg">
<path d="M13.7327 23.0107C9.38186 22.9305 5.87068 19.3698 5.87068 15C5.87068 13.944 6.07122 12.9165 6.45752 11.9974L6.45769 11.9969C6.68828 11.4435 6.51658 10.8226 6.11242 10.4184C5.34167 9.64766 4.0434 9.92105 3.63635 10.9307C3.12575 12.1866 2.85 13.5661 2.85 15C2.85 21.0455 7.70639 25.9515 13.7327 26.0317V28.3177C13.7327 29.0619 14.6287 29.4316 15.1459 28.8991C15.1462 28.8988 15.1465 28.8985 15.1468 28.8982L18.9404 25.1046C19.2711 24.7739 19.2711 24.2572 18.9404 23.9266L15.1451 20.1312L15.144 20.1302C15.027 20.0155 14.8786 19.9379 14.7176 19.9074C14.5565 19.8769 14.3901 19.8947 14.2391 19.9586C14.0882 20.0225 13.9596 20.1297 13.8695 20.2666C13.7794 20.4034 13.7318 20.5638 13.7327 20.7276M13.7327 23.0107V20.7276M13.7327 23.0107V20.7276M13.7327 23.0107V20.7276M13.7327 20.7276V20.727H13.8827L13.7327 20.7279C13.7327 20.7278 13.7327 20.7277 13.7327 20.7276ZM14.0327 9.27296V6.98933C18.3836 7.06951 21.8948 10.6302 21.8948 15C21.8948 16.056 21.6942 17.0835 21.3079 18.0026L21.3078 18.0031C21.0772 18.5565 21.2489 19.1774 21.653 19.5816C22.4237 20.3523 23.7219 20.079 24.129 19.0695C24.6397 17.8135 24.9155 16.434 24.9155 15C24.9155 8.95453 20.0591 4.04847 14.0327 3.96827V1.68226C14.0327 0.938127 13.1369 0.568432 12.6197 1.10077L8.81161 4.89524L8.81142 4.89542C8.48077 5.22607 8.48077 5.74275 8.81142 6.0734L12.6068 9.86875L12.6068 9.86876L12.6085 9.87042C13.136 10.3815 14.0327 10.0216 14.0327 9.27296Z" fill="#F57B20" stroke="#F57B20" stroke-width="0.3"/>
<rect x="-0.202082" y="26" width="34.934" height="5.44408" rx="2.72204" transform="rotate(-45 -0.202082 26)" fill="#F57B20" stroke="#FEF2E9" stroke-width="0"/>
</svg>
