<svg version="1.1" viewBox="0 0 24 24" xmlns="http://www.w3.org/2000/svg">
 <path d="m0 0h24v24h-24z" fill="none"/>
 <path d="m2.6523 21.374c-0.84954-0.86013-0.86487-0.74788 0.25495-1.8662 0.4817-0.48104 0.87582-0.90683 0.87582-0.94621 0-0.0394-0.0844-0.22255-0.18758-0.40703-0.10317-0.18449-0.25073-0.57055-0.32792-0.85791-0.12223-0.45509-0.14071-0.62859-0.14325-1.3452-2e-3 -0.69259 0.0167-0.90136 0.12141-1.3197 0.1393-0.55675 0.468-1.2294 0.85952-1.759 0.3959-0.53547 2.9737-3.0786 3.1206-3.0786 0.19364 0 0.32604 0.0919 0.7904 0.54881l0.43794 0.43089 0.75871-0.78179c0.96837-0.99783 0.90902-0.98836 1.6355-0.26082 0.56651 0.5673 0.65989 0.72211 0.57424 0.952-0.0299 0.0803-0.37847 0.47154-0.77456 0.86946l-0.72018 0.7235 0.87797 0.88218c0.48288 0.4852 0.89872 0.88219 0.92409 0.88219 0.0254 0 0.37766-0.33441 0.78287-0.74313 0.95875-0.96705 0.91217-0.96143 1.6811-0.20263 0.77302 0.76282 0.77906 0.71504-0.21669 1.7126l-0.7644 0.76577 0.48661 0.49436c0.71919 0.73065 0.78995 0.55692-0.93263 2.2897-1.1629 1.1698-1.5161 1.4924-1.9515 1.7822-0.94556 0.62937-2.1211 0.92577-3.2015 0.80725-0.65094-0.0714-1.8916-0.46794-1.9968-0.63821-0.0871-0.14085-0.27017-3e-3 -1.0909 0.81835-1.1254 1.127-1.0189 1.1129-1.8739 0.24721zm6.3735-2.6736c0.46501-0.17081 0.84663-0.45563 1.5628-1.1664 0.40256-0.39951 0.73192-0.75543 0.73192-0.79092 0-0.0784-3.9796-4.0827-4.0575-4.0827-0.0303 0-0.39253 0.34777-0.80503 0.77282-0.62686 0.64593-0.78248 0.83938-0.9478 1.1782-0.4384 0.89864-0.44282 1.6997-0.0144 2.6103 0.29981 0.63723 1.0262 1.2657 1.7307 1.4973 0.37664 0.12383 1.4414 0.11275 1.7994-0.0187z" stroke-width=".05308" fill="currentColor"/>
 <path d="m13.133 10.821c-3.0707-3.0949-3.3518-3.3929-3.3518-3.553 0-0.15704 0.13561-0.31237 1.3403-1.5351 1.4259-1.4474 1.8357-1.7987 2.5008-2.1442 1.3258-0.68871 3.1005-0.71094 4.4035-0.0552 0.2284 0.11495 0.44249 0.209 0.47575 0.209 0.03327 0 0.45708-0.39412 0.94181-0.87583 1.1203-1.1133 1.0108-1.0968 1.843-0.27867 0.33408 0.32843 0.62915 0.6529 0.65573 0.72103 0.08093 0.2075-0.06891 0.41706-0.84131 1.1766-1.0454 1.028-0.96842 0.87667-0.70999 1.3956 0.30748 0.61734 0.43377 1.1501 0.46815 1.975 0.05421 1.3005-0.26322 2.3403-1.0074 3.3-0.13199 0.17022-0.85308 0.92455-1.6024 1.6763-1.3022 1.3064-1.3713 1.3668-1.5633 1.3668-0.1953 0-0.29477-0.0946-3.5527-3.3783zm5.212-1.1936c0.0751-0.12814 0.20172-0.39993 0.28138-0.60399 0.12604-0.32283 0.145-0.4468 0.14607-0.95488 0.0011-0.5451-0.01066-0.61209-0.17773-1.0085-0.22577-0.53574-0.40243-0.79616-0.75642-1.1151-0.39491-0.35581-0.60712-0.47902-1.0995-0.63842-0.74504-0.24119-1.474-0.17066-2.2381 0.21654-0.18541 0.094-0.55119 0.40892-1.0947 0.94262l-0.81624 0.80151 4.1184 4.1242 0.75015-0.76547c0.41258-0.42101 0.81159-0.87031 0.88669-0.99846z" stroke-width=".05308" fill="currentColor"/>
</svg>
