<svg width="28" height="22" viewBox="0 0 28 22" fill="none" xmlns="http://www.w3.org/2000/svg">
<path d="M7.33333 14.8571H11.3333M20.6667 20H3.33333C2.97971 20 2.64057 19.8645 2.39052 19.6234C2.14048 19.3823 2 19.0553 2 18.7143V3.28571C2 2.94472 2.14048 2.6177 2.39052 2.37658C2.64057 2.13546 2.97971 2 3.33333 2H20.6667V20ZM20.6667 20H24.6667C25.0203 20 25.3594 19.8645 25.6095 19.6234C25.8595 19.3823 26 19.0553 26 18.7143V3.28571C26 2.94472 25.8595 2.6177 25.6095 2.37658C25.3594 2.13546 25.0203 2 24.6667 2H20.6667V20ZM20.6667 20V18.7143V20ZM20.6667 2V3.28571V2ZM20.6667 7.14414V7.14286V7.14414ZM20.6667 11.0013V11V11.0013ZM20.6667 14.8584V14.8571V14.8584ZM7.33333 11H15.3333H7.33333Z" stroke="#4299FF" stroke-width="3" stroke-linecap="round" stroke-linejoin="round"/>
</svg>
