<svg width="28" height="23" viewBox="0 0 28 23" fill="none" xmlns="http://www.w3.org/2000/svg">
<path d="M20.6667 20.6667H3.33333C2.97971 20.6667 2.64057 20.5262 2.39052 20.2761C2.14048 20.0261 2 19.687 2 19.3333V3.33333C2 2.97971 2.14048 2.64057 2.39052 2.39052C2.64057 2.14048 2.97971 2 3.33333 2H20.6667M20.6667 20.6667V2M20.6667 20.6667H24.6667C25.0203 20.6667 25.3594 20.5262 25.6095 20.2761C25.8595 20.0261 26 19.687 26 19.3333V3.33333C26 2.97971 25.8595 2.64057 25.6095 2.39052C25.3594 2.14048 25.0203 2 24.6667 2H20.6667M20.6667 20.6667V19.3333M20.6667 2V3.33333M20.6667 7.33467V7.33333M20.6667 11.3347V11.3333M20.6667 15.3347V15.3333" stroke="#4299FF" stroke-width="3" stroke-linecap="round" stroke-linejoin="round"/>
<path d="M7.33331 12.6668L9.99998 15.3335L15.3333 7.3335" stroke="#4299FF" stroke-width="3" stroke-linecap="round" stroke-linejoin="round"/>
</svg>
