<svg version="1.1" viewBox="0 0 24 24" xmlns="http://www.w3.org/2000/svg">
 <path d="m0 0h24v24h-24z" fill="none"/>
 <path d="m11.47 14.392c-0.36099-0.11943-0.61502-0.33767-0.80714-0.6934-0.13166-0.2438-0.0779 0.18957-0.60339-4.8635-0.096308-0.92607-0.1854-1.7198-0.198-1.7639-0.054909-0.19228-0.27089-2.7504-0.25386-3.0067 0.01025-0.15435 0.057639-0.39439 0.1053-0.53343 0.097748-0.28512 0.41489-0.74643 0.62149-0.90402 0.075568-0.0576 0.16547-0.13288 0.1998-0.16721 0.17425-0.17425 1.0592-0.45996 1.4247-0.45996 0.4543 0 1.1134 0.22795 1.4974 0.51789 0.45143 0.34084 0.78511 0.88939 0.87204 1.4336 0.04302 0.26928-0.0018 1.0367-0.08147 1.396-0.01956 0.0882-0.09946 0.82785-0.17753 1.6437-0.07808 0.81582-0.16933 1.6727-0.20278 1.9043-0.03345 0.23151-0.1234 1.0794-0.1999 1.8842-0.0765 0.8048-0.15759 1.5625-0.18021 1.6838-0.02262 0.12127-0.05924 0.39616-0.08137 0.61085-0.02213 0.2147-0.06983 0.46727-0.10599 0.56126-0.09254 0.24055-0.42958 0.58044-0.69571 0.70159-0.30452 0.13863-0.80713 0.16306-1.1334 0.0551z" stroke-width=".040089" fill="currentColor"/>
 <path d="m11.315 21.943c-0.12413-0.0301-0.38531-0.13235-0.5804-0.22717-0.4785-0.23257-0.92768-0.67171-1.152-1.1263-0.51468-1.043-0.20619-2.2539 0.75933-2.9806 0.44761-0.3369 1.0517-0.53549 1.6289-0.53549 0.32136 0 0.44527 0.0212 0.8214 0.14027 0.93549 0.29623 1.5672 0.96499 1.7539 1.8568 0.07636 0.36475 0.07687 0.52082 3e-3 0.90712-0.11561 0.60424-0.37682 1.0354-0.88393 1.459-0.21911 0.18302-0.83676 0.47161-1.1224 0.52441-0.31672 0.0585-0.95062 0.0493-1.2278-0.018z" stroke-width=".040089" fill="currentColor"/>
</svg>
