<svg version="1.1" viewBox="0 0 24 24" xmlns="http://www.w3.org/2000/svg">
 <path d="m0 0h24v24h-24z" fill="none"/>
 <path d="m3.6487 21.827c-0.40533-0.064584-0.71399-0.22287-1.0479-0.53738-0.25622-0.24134-0.33197-0.36506-0.54821-0.89538-0.09415-0.23089-0.10654-3.8057-0.013783-3.9781 0.034383-0.06389 0.10194-0.21399 0.15012-0.33357 0.048184-0.11958 0.11036-0.21741 0.13817-0.21741 0.027811 0 0.050565-0.02754 0.050565-0.06121s1.0831-1.14 2.4068-2.4584c3.867-3.8516 5.5258-5.5108 6.509-6.5105 0.507-0.51552 0.94336-0.93731 0.9697-0.93731 0.02634 0 1.3313 1.2831 2.8999 2.8514l2.852 2.8514-4.9592 4.9603c-3.9162 3.9171-5.0295 4.9944-5.2934 5.1223-0.32433 0.15718-0.3853 0.16238-2.0734 0.17689-0.95661 0.0082-1.8748-0.0066-2.0403-0.03302z" stroke-width=".066896" fill="currentColor"/>
 <path d="m18.616 8.7906c-0.57905-0.5799-1.0528-1.0802-1.0528-1.1117 0-0.031535-0.78268-0.83804-1.7393-1.7922-0.95661-0.95419-1.7393-1.7619-1.7393-1.7949 0-0.10245 1.7788-1.8364 1.982-1.932 0.10567-0.049707 0.2444-0.11697 0.30829-0.14947 0.15087-0.076747 1.2223-0.076747 1.3732 0 0.06389 0.0325 0.20647 0.099016 0.31685 0.14781 0.30367 0.13425 3.4776 3.309 3.634 3.6349 0.16528 0.3445 0.28029 0.76709 0.27648 1.0159-0.0043 0.2799-0.14602 0.77349-0.28136 0.97977-0.06439 0.098143-0.11707 0.19576-0.11707 0.21693 0 0.057137-1.8009 1.8393-1.8586 1.8393-0.02721 0-0.52324-0.47447-1.1023-1.0544z" stroke-width=".066896" fill="currentColor"/>
</svg>
