<svg version="1.1" viewBox="0 0 24 24" xmlns="http://www.w3.org/2000/svg" fill="currentColor">
      <path d="m5.9785 23.664c-0.31111-0.07742-0.55305-0.25139-0.74606-0.53658l-0.14046-0.2075-0.023397-6.5456c-0.012903-3.6003-0.032967-6.6231-0.044609-6.7181-0.020394-0.1658-0.026895-0.17384-0.17165-0.21277-0.082748-0.022275-0.31956-0.1204-0.52625-0.21809-1.7078-0.80721-2.7237-2.365-2.737-4.1969-0.00422-0.58337 0.04253-0.89512 0.21553-1.4367 0.43956-1.3761 1.4935-2.4741 2.8429-2.9617 1.4446-0.52203 3.109-0.26648 4.3266 0.66432 0.87648 0.67 1.5884 1.8012 1.7665 2.8068 0.06386 0.36069 0.06435 1.4291 8.18e-4 1.7819-0.14028 0.779-0.59608 1.6592-1.1835 2.2857-0.49715 0.53014-1.0408 0.89044-1.8003 1.1932l-0.42752 0.17041v4.9071l4.0148-0.02211c2.3994-0.0132 4.124-0.03703 4.2867-0.05923 0.40296-0.05508 0.5516-0.12428 0.76121-0.35439 0.3134-0.34399 0.30667-0.31693 0.31957-1.2875l0.01155-0.85797-0.22889-0.08336c-1.4717-0.53595-2.5305-1.5683-2.9846-2.9101-0.57786-1.7075-0.15721-3.5353 1.1051-4.8015 0.60878-0.61073 1.4208-1.0688 2.2306-1.2582 0.36785-0.086067 1.5595-0.09667 1.9575-0.017424 1.2336 0.24562 2.4188 1.111 3.0621 2.2359 0.23093 0.40385 0.38201 0.78207 0.49856 1.2481 0.08887 0.35531 0.09837 0.45735 0.09946 1.0657 0.0012 0.73626-0.03544 0.97277-0.24295 1.5637-0.2209 0.62911-0.59618 1.2231-1.0766 1.7041-0.49711 0.49771-1.2105 0.9442-1.815 1.136-0.14952 0.04742-0.28166 0.09979-0.29357 0.11639-0.01188 0.0165-0.03135 0.4423-0.04316 0.94604-0.02541 1.081-0.06333 1.2769-0.36808 1.8978-0.53212 1.0841-1.4847 1.781-2.6121 1.911-0.24229 0.02805-1.7421 0.04801-4.5223 0.06056l-4.1596 0.01881-0.00156 2.405c-0.00185 2.8662-0.03102 3.7234-0.13484 3.955-0.1946 0.43434-0.76821 0.72322-1.2151 0.61204zm12.458-14.035c1.0066-0.25827 1.7359-1.141 1.7885-2.1648 0.03538-0.6893-0.19764-1.2888-0.69346-1.7843-0.3131-0.31288-0.49322-0.42969-0.90509-0.58704-0.23423-0.089483-0.30433-0.098818-0.74785-0.099624-0.44072-8.441e-4 -0.51582 0.00875-0.75527 0.09605-0.38079 0.13882-0.63099 0.30075-0.93529 0.60532-0.19991 0.2001-0.30291 0.34112-0.41161 0.56367-0.21364 0.43732-0.26618 0.68828-0.2447 1.1689 0.03036 0.67891 0.23245 1.1355 0.71283 1.6103 0.28938 0.286 0.67135 0.50566 1.0541 0.60611 0.29479 0.077396 0.80494 0.070851 1.1379-0.014586zm-11.441-2.4076c0.59786-0.24964 1.0579-0.65462 1.304-1.1479 0.20361-0.40804 0.27806-0.76322 0.25285-1.2062-0.049962-0.87859-0.56489-1.6311-1.3868-2.0266-0.25872-0.12449-0.70396-0.23128-0.96432-0.23128-0.27723 0-0.70214 0.11346-1.0434 0.2786-0.88922 0.43039-1.4271 1.4091-1.3059 2.3761 0.01881 0.15001 0.068495 0.37627 0.11041 0.50279 0.16903 0.51021 0.68247 1.0935 1.1796 1.3399 0.38917 0.19294 0.5746 0.22859 1.1364 0.21845 0.43375-0.00785 0.51526-0.019635 0.71699-0.10388z" stroke-width=".036307" />
    </svg>