<svg id="a" version="1.1" viewBox="0 0 24 24" xmlns="http://www.w3.org/2000/svg" fill="currentColor">
      <path d="m6.5386 13.258c-0.26691-0.08685-0.59501-0.39537-0.74376-0.69937-0.16887-0.34512-0.16887-0.84604 0-1.1912 0.15471-0.31617 0.47636-0.61236 0.76245-0.70211 0.34841-0.1093 7.4516-0.10528 7.8012 0.0044 0.33568 0.1053 0.72321 0.51466 0.8229 0.86924 0.15301 0.54424 0.05094 0.97173-0.32745 1.3714-0.42233 0.44611-0.16021 0.42136-4.4224 0.41756-3.0457-0.0027-3.7237-0.01491-3.893-0.07001z" stroke-width=".045906" />
      <path d="m6.3044 16.869c-0.45432-0.08332-0.85575-0.4783-0.99302-0.97708-0.16989-0.6173 0.12139-1.304 0.67641-1.5947 0.1673-0.08762 0.29296-0.09354 2.2541-0.10622 2.3534-0.0152 2.3057-0.02147 2.685 0.35329 0.42534 0.42026 0.52647 1.0361 0.26299 1.6015-0.14974 0.32131-0.30106 0.47034-0.65021 0.64039-0.21805 0.1062-0.24504 0.10767-2.1191 0.11519-1.0441 0.0042-1.9963-0.01036-2.1162-0.03234z" stroke-width=".045906" />
      <path d="m2.0476 21.567c-0.83732-0.21527-1.5578-0.96426-1.775-1.8453-0.060018-0.24341-0.068393-1.1932-0.068393-7.7593 0-6.5661 0.0084-7.5159 0.068393-7.7593 0.17035-0.69087 0.674-1.3414 1.2716-1.6424 0.18424-0.092807 0.45559-0.19257 0.60298-0.2217 0.19435-0.038404 2.9438-0.049128 10.005-0.039022l9.737 0.013936 0.26799 0.1132c0.81737 0.34524 1.3965 1.041 1.5648 1.8798 0.09557 0.47642 0.09557 14.834 0 15.311-0.16829 0.83887-0.74741 1.5346-1.5648 1.8798l-0.26799 0.1132-9.804 8e-3c-7.8039 0.0064-9.8517-0.0042-10.038-0.05198zm14.459-9.6045v-6.9356h-13.712v13.871h13.712zm4.6899 0v-6.9356h-2.0993v13.871h2.0993z" stroke-width=".045906" />
    </svg>