<svg version="1.1" viewBox="0 0 24 24" xmlns="http://www.w3.org/2000/svg">
 <path d="m0 0h24v24h-24z" fill="none"/>
 <path d="m3.75 10.625c-1.5125 0-2.75-1.2375-2.75-2.75s1.2375-2.75 2.75-2.75 2.75 1.2375 2.75 2.75-1.2375 2.75-2.75 2.75zm11-2.75c0-1.5125-1.2375-2.75-2.75-2.75s-2.75 1.2375-2.75 2.75 1.2375 2.75 2.75 2.75 2.75-1.2375 2.75-2.75zm8.25 0c0-1.5125-1.2375-2.75-2.75-2.75s-2.75 1.2375-2.75 2.75 1.2375 2.75 2.75 2.75 2.75-1.2375 2.75-2.75zm-5.5 8.25c0 1.5125 1.2375 2.75 2.75 2.75s2.75-1.2375 2.75-2.75-1.2375-2.75-2.75-2.75-2.75 1.2375-2.75 2.75zm-2.75 0c0-1.5125-1.2375-2.75-2.75-2.75s-2.75 1.2375-2.75 2.75 1.2375 2.75 2.75 2.75 2.75-1.2375 2.75-2.75zm-8.25 0c0-1.5125-1.2375-2.75-2.75-2.75s-2.75 1.2375-2.75 2.75 1.2375 2.75 2.75 2.75 2.75-1.2375 2.75-2.75z" fill="currentColor" stroke-width="1.375"/>
</svg>
