<svg width="17" height="21" viewBox="0 0 17 21" fill="none" xmlns="http://www.w3.org/2000/svg">
<path d="M4.68182 13.3725C4.25003 13.3725 3.9 13.0225 3.9 12.5907C3.9 12.1589 4.25003 11.8089 4.68182 11.8089H10.6307C11.0625 11.8089 11.4125 12.1589 11.4125 12.5907C11.4125 13.0225 11.0625 13.3725 10.6307 13.3725H4.68182ZM4.68182 16.7816C4.25003 16.7816 3.9 16.4316 3.9 15.9998C3.9 15.568 4.25003 15.218 4.68182 15.218H12.5057C12.9375 15.218 13.2875 15.568 13.2875 15.9998C13.2875 16.4316 12.9375 16.7816 12.5057 16.7816H4.68182ZM4.68182 9.96346C4.25003 9.96346 3.9 9.61343 3.9 9.18164C3.9 8.74985 4.25003 8.39982 4.68182 8.39982H7.81817C8.24996 8.39982 8.59999 8.74985 8.59999 9.18164C8.59999 9.61343 8.24996 9.96346 7.81817 9.96346H4.68182Z" fill="#4299FF" stroke="#4299FF" stroke-width="0.2"/>
<path d="M12.6909 6.45454V4.50909H14.5364V18.6273H2.46364V4.50909H4.30909V6.45454V6.55454H4.40909H12.5909H12.6909V6.45454ZM14.6364 2.94545H12.6909V2.36364C12.6909 1.97546 12.5367 1.60317 12.2622 1.32869C11.9877 1.0542 11.6155 0.9 11.2273 0.9H5.77273C5.38455 0.9 5.01227 1.0542 4.73778 1.32869C4.4633 1.60317 4.30909 1.97546 4.30909 2.36364V2.94545H2.36364C1.97546 2.94545 1.60317 3.09966 1.32869 3.37414C1.0542 3.64863 0.9 4.02091 0.9 4.40909V18.7273C0.9 19.1154 1.0542 19.4877 1.32869 19.7622C1.60317 20.0367 1.97546 20.1909 2.36364 20.1909H14.6364C15.0245 20.1909 15.3968 20.0367 15.6713 19.7622C15.9458 19.4877 16.1 19.1154 16.1 18.7273V4.40909C16.1 4.02091 15.9458 3.64863 15.6713 3.37414C15.3968 3.09966 15.0245 2.94545 14.6364 2.94545ZM5.87273 2.46364H11.1273V4.99091H5.87273V2.46364Z" fill="#4299FF" stroke="#4299FF" stroke-width="0.2"/>
</svg>
