<svg width="18" height="19" viewBox="0 0 18 19" fill="none" xmlns="http://www.w3.org/2000/svg">
<path d="M6.39032 7.3752L6.38476 7.3823L6.37996 7.38994L1.10497 15.7815C1.00342 15.9245 0.929687 16.0742 0.886872 16.2305C0.845308 16.3822 0.825 16.5417 0.825 16.7083C0.825 16.9588 0.876664 17.1959 0.980732 17.4175C1.08321 17.6357 1.2237 17.8264 1.40146 17.9886C1.57914 18.1508 1.78643 18.2774 2.02148 18.3694C2.2595 18.4624 2.51314 18.5083 2.78087 18.5083H15.2191C15.4869 18.5083 15.7405 18.4624 15.9785 18.3694C16.2136 18.2774 16.4209 18.1508 16.5985 17.9886C16.7763 17.8264 16.9168 17.6357 17.0193 17.4175C17.1233 17.1959 17.175 16.9588 17.175 16.7083C17.175 16.5392 17.1509 16.3772 17.1018 16.2234C17.0533 16.0718 16.9813 15.9252 16.8872 15.7838L11.6107 7.39834L11.6108 7.39826L11.607 7.39264C11.5647 7.33085 11.5449 7.26645 11.5449 7.19531V2.67696C11.5449 2.44576 11.7323 2.25833 11.9635 2.25833H12.0154C12.4112 2.25833 12.7321 1.93747 12.7321 1.54167C12.7321 1.14586 12.4112 0.825 12.0154 0.825H5.97529C5.57949 0.825 5.25862 1.14586 5.25862 1.54167C5.25862 1.93747 5.57948 2.25833 5.97529 2.25833H6.02725C6.25845 2.25833 6.44587 2.44576 6.44587 2.67696V7.19531C6.44587 7.27421 6.42506 7.33082 6.39032 7.3752ZM7.70486 8.12788C7.70502 8.12763 7.70518 8.12738 7.70534 8.12713C7.88953 7.8405 7.98312 7.52876 7.98312 7.19531V3.08333C7.98312 2.6277 8.35248 2.25833 8.80812 2.25833H9.18261C9.63824 2.25833 10.0076 2.6277 10.0076 3.08333V7.19531C10.0076 7.52875 10.1012 7.84049 10.2854 8.12712C10.2855 8.12737 10.2857 8.12762 10.2859 8.12788L12.3917 11.4776C12.7371 12.027 12.3423 12.7417 11.6933 12.7417H6.29742C5.64846 12.7417 5.25358 12.027 5.59898 11.4776L7.70486 8.12788Z" fill="#F57B20" stroke="#F57B20" stroke-width="0.35"/>
</svg>
