<svg width="28" height="31" viewBox="0 0 28 31" fill="none" xmlns="http://www.w3.org/2000/svg">
<path d="M6.5 20H18.5C19.2956 20 20.0587 19.6839 20.6213 19.1213C21.1839 18.5587 21.5 17.7956 21.5 17V14M6.5 29V20V29ZM6.5 11V20V11Z" stroke="#F57B20" stroke-width="3" stroke-linecap="round" stroke-linejoin="round"/>
<path d="M6.5 11C8.98528 11 11 8.98528 11 6.5C11 4.01472 8.98528 2 6.5 2C4.01472 2 2 4.01472 2 6.5C2 8.98528 4.01472 11 6.5 11Z" stroke="#F57B20" stroke-width="3" stroke-linecap="round" stroke-linejoin="round"/>
<path d="M21.5 14C23.9853 14 26 11.9853 26 9.5C26 7.01472 23.9853 5 21.5 5C19.0147 5 17 7.01472 17 9.5C17 11.9853 19.0147 14 21.5 14Z" stroke="#F57B20" stroke-width="3" stroke-linecap="round" stroke-linejoin="round"/>
</svg>
