<svg version="1.1" viewBox="0 0 24 24" xmlns="http://www.w3.org/2000/svg">
 <path d="m0 0h24v24h-24z" fill="none"/>
 <path d="m11.204 21.897c-0.65098-0.14201-1.2935-0.51875-1.7655-1.0353-0.32092-0.35115-0.51173-0.69843-0.92662-1.6865-0.28736-0.68438-0.57254-1.3579-0.63375-1.4968-0.25573-0.58013-0.71837-1.6799-2.6903-6.3953-1.3246-3.1674-2.1048-5.1399-2.155-5.4486-0.22912-1.407 0.56182-2.8852 1.9023-3.5553l0.50488-0.25239 5.1033-0.0235c2.8068-0.013 5.7672 9e-3 6.5785 0.0486 1.4161 0.0693 1.4969 0.0829 2.0159 0.33834 0.67657 0.33308 1.247 0.93132 1.6014 1.6794 0.24356 0.51414 0.2678 0.63869 0.26578 1.3652-3e-3 0.90713 0.1344 0.52089-1.5957 4.5019-0.54305 1.2496-1.0925 2.5181-1.2209 2.819-0.12845 0.30082-0.73455 1.7019-1.3469 3.1135-0.61235 1.4116-1.2655 2.9263-1.4514 3.3659-0.43052 1.0182-0.7896 1.5785-1.2522 1.9537-0.50371 0.40858-0.95572 0.6229-1.5425 0.73138-0.59975 0.11087-0.79116 0.10767-1.3913-0.0232z" stroke-width=".084148" fill="currentColor"/>
</svg>
