<svg width="28" height="23" viewBox="0 0 28 23" fill="none" xmlns="http://www.w3.org/2000/svg">
<path d="M7.33333 7.33333L12.3333 11.3333C12.8063 11.712 13.3941 11.9183 14 11.9183C14.6059 11.9183 15.1937 11.712 15.6667 11.3333L20.6667 7.33333M26 18V4.66667C26 3.95942 25.719 3.28115 25.219 2.78105C24.7189 2.28095 24.0406 2 23.3333 2H4.66667C3.95942 2 3.28115 2.28095 2.78105 2.78105C2.28095 3.28115 2 3.95942 2 4.66667V18C2 18.7072 2.28095 19.3855 2.78105 19.8856C3.28115 20.3857 3.95942 20.6667 4.66667 20.6667H23.3333C24.0406 20.6667 24.7189 20.3857 25.219 19.8856C25.719 19.3855 26 18.7072 26 18Z" stroke="#4299FF" stroke-width="3" stroke-linecap="round" stroke-linejoin="round"/>
</svg>
