<svg width="26" height="26" viewBox="0 0 26 26" fill="none" xmlns="http://www.w3.org/2000/svg">
<path d="M17.8134 2.12254C16.263 2.12257 14.7119 2.71341 13.5277 3.89797L10.5305 6.89613L10.5299 6.89675C10.4536 6.97376 10.4109 7.07774 10.4109 7.1861C10.4109 7.29445 10.4536 7.39844 10.5299 7.47545L10.5305 7.47606L18.5222 15.4702C18.6057 15.5538 18.7109 15.5891 18.8136 15.5891C18.9173 15.5891 19.0218 15.5484 19.101 15.4741L19.101 15.4742L19.105 15.4702L22.1022 12.472L22.1023 12.4719C24.1538 10.4169 24.4255 7.25831 22.9179 4.91245L25.0554 2.77433L25.0554 2.77435L25.0573 2.77235C25.2132 2.61144 25.2159 2.35208 25.0554 2.19146L23.8082 0.943947C23.7247 0.860359 23.6195 0.825 23.5168 0.825C23.409 0.825 23.3078 0.866541 23.2295 0.940021L23.2294 0.939955L23.2254 0.943947L21.088 3.08199C20.1123 2.45435 18.9755 2.12066 17.8134 2.12254ZM17.8134 2.12254C17.8134 2.12254 17.8135 2.12254 17.8135 2.12254V2.29754L17.8132 2.12254C17.8133 2.12254 17.8133 2.12254 17.8134 2.12254ZM7.18181 10.4138C7.07861 10.4142 6.97484 10.455 6.89608 10.5288L6.89601 10.5288L6.89196 10.5328L3.89766 13.531L3.89763 13.531C1.8462 15.586 1.57443 18.7446 3.08206 21.0905L0.944595 23.2286L0.944593 23.2286L0.943986 23.2292C0.867754 23.3062 0.825 23.4102 0.825 23.5186C0.825 23.6269 0.867755 23.7309 0.943986 23.8079L0.944595 23.8085L2.19173 25.0561L2.31549 24.9323L2.19173 25.0561C2.2753 25.1396 2.38044 25.175 2.48315 25.175C2.59093 25.175 2.69216 25.1335 2.77052 25.06L2.77058 25.06L2.77457 25.0561L4.91183 22.9181C5.90531 23.5588 7.04619 23.8775 8.18645 23.8775C9.73691 23.8775 11.288 23.2866 12.4722 22.102L15.4695 19.1039C15.629 18.9443 15.629 18.6835 15.4695 18.5239L14.3284 17.3825L16.1666 15.5437C16.3261 15.3842 16.3261 15.1234 16.1666 14.9638L16.1659 14.9631L15.0894 13.8981C15.0894 13.8981 15.0894 13.8981 15.0894 13.898C15.0124 13.8218 14.9084 13.7791 14.8001 13.7791C14.6917 13.7791 14.5877 13.8218 14.5108 13.8981L14.5101 13.8987L12.675 15.7345L10.2664 13.3251L12.1046 11.4864C12.2641 11.3268 12.2641 11.066 12.1046 10.9064L11.0339 9.83545L11.0333 9.83484C10.9563 9.75859 10.8523 9.7158 10.744 9.7158C10.6356 9.7158 10.5316 9.75858 10.4546 9.83484L10.454 9.83545L8.61589 11.6741L7.47491 10.5328C7.4749 10.5328 7.47488 10.5328 7.47487 10.5328C7.43628 10.4942 7.3903 10.4637 7.33967 10.4433C7.28953 10.423 7.23585 10.413 7.18181 10.4138ZM7.18181 10.4138C7.18235 10.4138 7.1829 10.4138 7.18344 10.4138V10.5888L7.18017 10.4138C7.18071 10.4138 7.18126 10.4138 7.18181 10.4138ZM10.807 20.4423L10.8067 20.4426C10.463 20.7882 10.0542 21.0622 9.60405 21.2487C9.15388 21.4353 8.6712 21.5308 8.18391 21.5297H8.18351C7.19164 21.5297 6.26257 21.145 5.56004 20.4423L5.55972 20.442C5.21427 20.0982 4.94036 19.6893 4.75383 19.239C4.5673 18.7887 4.47184 18.3058 4.47297 17.8184V17.8179C4.47297 16.8257 4.85751 15.8963 5.56004 15.1936L7.18344 13.5697L12.4305 18.8183L10.807 20.4423ZM20.4367 10.8096L18.8136 12.4332L13.5666 7.18463L15.1901 5.56065C15.8897 4.86078 16.8218 4.47327 17.8135 4.47327C18.8054 4.47327 19.7345 4.85791 20.437 5.56065C21.1366 6.26052 21.5241 7.19288 21.5241 8.18499C21.5241 9.17691 21.1368 10.1065 20.4367 10.8096Z" fill="#4299FF" stroke="#4299FF" stroke-width="0.35"/>
</svg>
