<svg width="31" height="25" viewBox="0 0 31 25" fill="none" xmlns="http://www.w3.org/2000/svg">
<path d="M10.1 23.6016H6.05V20.9016M10.1 23.6016V18.2016H15.5M10.1 23.6016H15.5M6.05 20.9016H4.7C3.98392 20.9016 3.29716 20.6171 2.79081 20.1108C2.28446 19.6044 2 18.9176 2 18.2016V16.8516C2 16.1355 2.28446 15.4487 2.79081 14.9424C3.29716 14.436 3.98392 14.1516 4.7 14.1516H6.05M6.05 20.9016V14.1516M15.5 18.2016H20.9V23.6016M15.5 18.2016V23.6016M15.5 23.6016H20.9M20.9 23.6016H24.95V20.9016M24.95 20.9016H26.3C27.0161 20.9016 27.7028 20.6171 28.2092 20.1108C28.7155 19.6044 29 18.9176 29 18.2016V16.8516C29 16.1355 28.7155 15.4487 28.2092 14.9424C27.7028 14.436 27.0161 14.1516 26.3 14.1516H24.95M24.95 20.9016V14.1516M15.5 8.75156H11.45C10.0178 8.75156 8.64432 9.32049 7.63162 10.3332C6.61893 11.3459 6.05 12.7194 6.05 14.1516M15.5 8.75156H19.55C20.9822 8.75156 22.3557 9.32049 23.3684 10.3332C24.3811 11.3459 24.95 12.7194 24.95 14.1516M15.5 8.75156V3.35156M6.05 16.1766V18.8766M11.45 14.1516H11.4514M19.55 14.1516H19.5514" stroke="#F57B20" stroke-width="2.75" stroke-linecap="round" stroke-linejoin="round"/>
<path d="M15.5014 4.7C16.247 4.7 16.8514 4.09558 16.8514 3.35C16.8514 2.60442 16.247 2 15.5014 2C14.7558 2 14.1514 2.60442 14.1514 3.35C14.1514 4.09558 14.7558 4.7 15.5014 4.7Z" stroke="#F57B20" stroke-width="2.75" stroke-linecap="round" stroke-linejoin="round"/>
</svg>
