<svg width="20" height="20" viewBox="0 0 20 20" fill="none" xmlns="http://www.w3.org/2000/svg">
<path d="M10 17.725C7.9512 17.725 5.98632 16.9111 4.5376 15.4624C3.08888 14.0137 2.275 12.0488 2.275 10C2.275 7.9512 3.08888 5.98632 4.5376 4.5376C5.98632 3.08888 7.9512 2.275 10 2.275C12.0488 2.275 14.0137 3.08888 15.4624 4.5376C16.9111 5.98632 17.725 7.9512 17.725 10C17.725 12.0488 16.9111 14.0137 15.4624 15.4624C14.0137 16.9111 12.0488 17.725 10 17.725ZM10 19.15C12.4267 19.15 14.7541 18.186 16.47 16.47C18.186 14.7541 19.15 12.4267 19.15 10C19.15 7.57327 18.186 5.24593 16.47 3.52997C14.7541 1.81402 12.4267 0.85 10 0.85C7.57327 0.85 5.24593 1.81402 3.52997 3.52997C1.81402 5.24593 0.85 7.57327 0.85 10C0.85 12.4267 1.81402 14.7541 3.52997 16.47C5.24593 18.186 7.57327 19.15 10 19.15Z" fill="#5F9936" stroke="#5F9936" stroke-width="0.3"/>
<path d="M13.0839 6.20522L9.00065 11.1018L6.57619 8.81884L6.57623 8.81879L6.57357 8.81646C6.3844 8.65055 6.13533 8.56108 5.87901 8.56534C5.62268 8.56959 5.37701 8.66729 5.19404 8.8395C5.01088 9.01188 4.90478 9.24573 4.90016 9.49218C4.89554 9.73865 4.99282 9.976 5.16954 10.1545L5.1695 10.1545L5.17206 10.157L8.33485 13.1348L8.33493 13.1349C8.42989 13.2241 8.54263 13.2941 8.66628 13.341C8.78992 13.3879 8.92213 13.4108 9.05509 13.4084C9.18805 13.4061 9.31931 13.3786 9.44107 13.3274C9.56284 13.2763 9.67282 13.2023 9.76427 13.1098L9.76447 13.11L9.76934 13.1043L14.5383 7.49376C14.7176 7.31502 14.8166 7.07603 14.8121 6.82756C14.8076 6.57764 14.6987 6.34079 14.5112 6.16776C14.3239 5.99491 14.073 5.89933 13.813 5.9C13.5533 5.90068 13.3031 5.99742 13.1168 6.17102C13.1054 6.1815 13.0946 6.19269 13.0845 6.20452L13.0839 6.20522Z" fill="#5F9936" stroke="#5F9936" stroke-width="0.2"/>
</svg>
