<svg width="19" height="20" viewBox="0 0 19 20" fill="none" xmlns="http://www.w3.org/2000/svg">
<path d="M2.63672 20C2.08672 20 1.61572 19.804 1.22372 19.412C0.83172 19.02 0.636054 18.5493 0.63672 18V4C0.63672 3.45 0.83272 2.979 1.22472 2.587C1.61672 2.195 2.08739 1.99933 2.63672 2H6.83672C7.07005 1.4 7.43672 0.916667 7.93672 0.55C8.43672 0.183333 9.00339 0 9.63672 0C10.2701 0 10.8367 0.183333 11.3367 0.55C11.8367 0.916667 12.2034 1.4 12.4367 2H16.6367C17.1867 2 17.6577 2.196 18.0497 2.588C18.4417 2.98 18.6374 3.45067 18.6367 4V18C18.6367 18.55 18.4407 19.021 18.0487 19.413C17.6567 19.805 17.1861 20.0007 16.6367 20H2.63672ZM9.63672 3.25C9.85339 3.25 10.0324 3.179 10.1737 3.037C10.3151 2.895 10.3861 2.716 10.3867 2.5C10.3867 2.28333 10.3157 2.10433 10.1737 1.963C10.0317 1.82167 9.85272 1.75067 9.63672 1.75C9.42005 1.75 9.24105 1.821 9.09972 1.963C8.95839 2.105 8.88739 2.284 8.88672 2.5C8.88672 2.71667 8.95772 2.89567 9.09972 3.037C9.24172 3.17833 9.42072 3.24933 9.63672 3.25ZM2.63672 16.85C3.53672 15.9667 4.58272 15.271 5.77472 14.763C6.96672 14.255 8.25405 14.0007 9.63672 14C11.0201 14 12.3077 14.2543 13.4997 14.763C14.6917 15.2717 15.7374 15.9673 16.6367 16.85V4H2.63672V16.85ZM9.63672 12C10.6034 12 11.4284 11.6583 12.1117 10.975C12.7951 10.2917 13.1367 9.46667 13.1367 8.5C13.1367 7.53333 12.7951 6.70833 12.1117 6.025C11.4284 5.34167 10.6034 5 9.63672 5C8.67005 5 7.84505 5.34167 7.16172 6.025C6.47839 6.70833 6.13672 7.53333 6.13672 8.5C6.13672 9.46667 6.47839 10.2917 7.16172 10.975C7.84505 11.6583 8.67005 12 9.63672 12ZM4.63672 18H14.6367V17.75C13.9367 17.1667 13.1617 16.729 12.3117 16.437C11.4617 16.145 10.5701 15.9993 9.63672 16C8.70339 16 7.81172 16.146 6.96172 16.438C6.11172 16.73 5.33672 17.1673 4.63672 17.75V18ZM9.63672 10C9.22005 10 8.86572 9.854 8.57372 9.562C8.28172 9.27 8.13605 8.916 8.13672 8.5C8.13672 8.08333 8.28272 7.729 8.57472 7.437C8.86672 7.145 9.22072 6.99933 9.63672 7C10.0534 7 10.4077 7.146 10.6997 7.438C10.9917 7.73 11.1374 8.084 11.1367 8.5C11.1367 8.91667 10.9907 9.271 10.6987 9.563C10.4067 9.855 10.0527 10.0007 9.63672 10Z" fill="#2D3A47"/>
</svg>
