<svg width="18" height="20" viewBox="0 0 18 20" fill="none" xmlns="http://www.w3.org/2000/svg">
<path d="M6.74864 1.65738C6.247 2.15902 5.94623 2.82397 5.8981 3.52727H1.18217C0.984466 3.52727 0.794857 3.60581 0.655057 3.74561C0.515258 3.88541 0.436719 4.07502 0.436719 4.27273V4.2816L0.437504 4.29044L0.446231 4.38862L0.447049 4.39782L0.448713 4.40691C0.480118 4.57853 0.570728 4.73371 0.704763 4.8454C0.838781 4.95708 1.00772 5.01822 1.18217 5.01818C1.1822 5.01818 1.18222 5.01818 1.18224 5.01818H1.60722L3.00168 17.092L3.00168 17.0921C3.06888 17.6725 3.3471 18.208 3.78342 18.5967C4.21973 18.9854 4.7837 19.2001 5.36799 19.2H12.2691C12.8534 19.2001 13.4173 18.9854 13.8537 18.5967C14.29 18.208 14.5682 17.6725 14.6354 17.0921L14.6354 17.092L16.0288 5.01818H16.4549C16.6526 5.01818 16.8422 4.93964 16.982 4.79984C17.1218 4.66004 17.2004 4.47043 17.2004 4.27273C17.2004 4.07502 17.1218 3.88541 16.982 3.74561C16.8422 3.60581 16.6526 3.52727 16.4549 3.52727H11.739C11.6908 2.82397 11.3901 2.15902 10.8884 1.65738C10.3395 1.10841 9.5949 0.8 8.81854 0.8C8.04218 0.8 7.29761 1.10841 6.74864 1.65738ZM7.39616 3.52727C7.43933 3.22023 7.58109 2.93339 7.80287 2.71161C8.07225 2.44224 8.43759 2.29091 8.81854 2.29091C9.19948 2.29091 9.56483 2.44224 9.8342 2.71161C10.056 2.93339 10.1977 3.22023 10.2409 3.52727H7.39616ZM5.36799 17.7091H5.36786C5.14922 17.7092 4.93817 17.629 4.77487 17.4836C4.6116 17.3382 4.50747 17.1379 4.48231 16.9207C4.48231 16.9207 4.4823 16.9207 4.4823 16.9206L3.10948 5.01818H14.5265L13.1537 16.9206C13.1286 17.1377 13.0246 17.3379 12.8614 17.4833C12.6984 17.6286 12.4875 17.709 12.2691 17.7091C12.2691 17.7091 12.269 17.7091 12.269 17.7091H5.36799ZM7.18217 7.34546H6.98217V7.37176C6.68063 7.44884 6.43672 7.69614 6.43672 8.02436V14.704V14.7141L6.43774 14.7242L6.44646 14.8103L6.44749 14.8205L6.44956 14.8305C6.51777 15.1619 6.83715 15.3818 7.18217 15.3818C7.56764 15.3818 7.92763 15.1028 7.92763 14.7051V8.02327V8.01317L7.92661 8.00312L7.91788 7.91694L7.91685 7.90677L7.91479 7.89676C7.84657 7.56542 7.5272 7.34546 7.18217 7.34546ZM10.4549 7.34546H10.2549V7.37176C9.95336 7.44884 9.70945 7.69614 9.70945 8.02436V14.704V14.7141L9.71046 14.7241L9.71919 14.8103L9.72022 14.8205L9.72228 14.8305C9.7905 15.1619 10.1099 15.3818 10.4549 15.3818C10.8404 15.3818 11.2004 15.1028 11.2004 14.7051V8.02327V8.01317L11.1993 8.00312L11.1906 7.91694L11.1896 7.90677L11.1875 7.89676C11.1193 7.56542 10.7999 7.34546 10.4549 7.34546Z" fill="#2D3A47" stroke="#2D3A47" stroke-width="0.4"/>
</svg>
