<svg width="21" height="20" viewBox="0 0 21 20" fill="none" xmlns="http://www.w3.org/2000/svg">
<path d="M2.63672 18C2.08672 18 1.61572 17.804 1.22372 17.412C0.83172 17.02 0.636054 16.5493 0.63672 16V4C0.63672 3.45 0.83272 2.979 1.22472 2.587C1.61672 2.195 2.08739 1.99934 2.63672 2H6.63672C6.92005 2 7.15772 2.096 7.34972 2.288C7.54172 2.48 7.63739 2.71734 7.63672 3C7.63672 3.28334 7.54072 3.521 7.34872 3.713C7.15672 3.905 6.91939 4.00067 6.63672 4H2.63672V16H18.6367V4H14.6367C14.3534 4 14.1157 3.904 13.9237 3.712C13.7317 3.52 13.6361 3.28267 13.6367 3C13.6367 2.71667 13.7327 2.479 13.9247 2.287C14.1167 2.095 14.3541 1.99934 14.6367 2H18.6367C19.1867 2 19.6577 2.196 20.0497 2.588C20.4417 2.98 20.6374 3.45067 20.6367 4V16C20.6367 16.55 20.4407 17.021 20.0487 17.413C19.6567 17.805 19.1861 18.0007 18.6367 18H2.63672ZM10.6367 12.975C10.5034 12.975 10.3784 12.954 10.2617 12.912C10.1451 12.87 10.0367 12.7993 9.93672 12.7L6.31172 9.075C6.12839 8.89167 6.03672 8.66667 6.03672 8.4C6.03672 8.13334 6.13672 7.9 6.33672 7.7C6.52005 7.51667 6.75339 7.425 7.03672 7.425C7.32005 7.425 7.55339 7.51667 7.73672 7.7L9.63672 9.6V3C9.63672 2.71667 9.73272 2.479 9.92472 2.287C10.1167 2.095 10.3541 1.99934 10.6367 2C10.9201 2 11.1577 2.096 11.3497 2.288C11.5417 2.48 11.6374 2.71734 11.6367 3V9.6L13.5617 7.675C13.7451 7.49167 13.9701 7.4 14.2367 7.4C14.5034 7.4 14.7367 7.5 14.9367 7.7C15.1201 7.88334 15.2117 8.11667 15.2117 8.4C15.2117 8.68334 15.1201 8.91667 14.9367 9.1L11.3367 12.7C11.2367 12.8 11.1284 12.871 11.0117 12.913C10.8951 12.955 10.7701 12.9757 10.6367 12.975Z" fill="#2D3A47"/>
</svg>
